<svg width="64" height="64" viewBox="0 0 64 64" fill="none" xmlns="http://www.w3.org/2000/svg">
<path d="M45.252 51.3829C44.2138 46.5105 43.2925 37.6137 43.2653 35.4347C43.8565 34.9349 44.86 34.4848 45.3964 34.1168C45.9327 33.7489 48.0468 32.2334 48.5807 31.886C50.5081 30.6031 49.772 31.1301 51.765 29.6551C54.4329 27.6807 61.3757 26.4693 59.7588 24.5469C59.3646 24.0783 52.3685 24.0024 50.7036 23.8268C45.9098 23.3212 41.4546 26.1585 40.0891 21.847C39.6275 20.3893 38.8315 17.9182 37.78 15.8092C35.4372 11.1104 34.9936 2.73562 32.8482 4.16113C32.3416 4.49773 31.5236 8.02311 29.165 12.6152C26.5468 17.7126 25.1624 22.1649 23.0221 23.8268C22.7159 24.0646 22.2742 24.148 21.5868 24.1948C15.1478 24.6336 2.63696 24.0911 4.12124 25.17C5.48722 26.163 6.76344 27.9619 11.8643 31.1046C15.1597 33.135 19.8977 33.9038 19.4094 35.6218C18.7657 37.8867 17.5995 40.5404 15.8995 44.9436C12.7709 53.0471 8.54363 60.3367 10.4411 59.988C11.249 59.8395 13.7753 59.7224 18.6396 55.4291C24.7317 50.052 27.419 43.7834 29.4851 44.1524C30.2612 44.2909 31.3941 45.4787 33.5482 47.5294C37.9414 51.7116 40.5978 54.7026 46.7064 58.0948C47.5982 58.5901 47.365 58.1127 47.1323 57.4553C46.6198 56.0073 45.8914 54.3837 45.252 51.3829Z" stroke="#4A2F2C" stroke-width="2" stroke-linecap="round"/>
</svg>
