<svg width="32" height="40" viewBox="0 0 32 40" fill="none" xmlns="http://www.w3.org/2000/svg">
<path d="M19.7863 25.538C19.4897 24.1459 19.2264 21.6039 19.2187 20.9813C19.3876 20.8385 19.6743 20.7099 19.8275 20.6048C19.9808 20.4997 20.5848 20.0667 20.7373 19.9674C21.288 19.6009 21.0777 19.7515 21.6472 19.33C22.4094 18.7659 24.3931 18.4198 23.9311 17.8706C23.8185 17.7367 21.8196 17.715 21.3439 17.6648C19.9742 17.5203 18.7013 18.331 18.3112 17.0991C18.1793 16.6827 17.9519 15.9766 17.6514 15.3741C16.982 14.0315 16.8553 11.6387 16.2423 12.046C16.0976 12.1422 15.8639 13.1495 15.19 14.4615C14.4419 15.9179 14.0464 17.19 13.4349 17.6648C13.3474 17.7327 13.2212 17.7566 13.0248 17.77C11.1851 17.8953 7.61056 17.7403 8.03464 18.0486C8.42492 18.3323 8.78955 18.8462 10.2469 19.7442C11.1885 20.3243 12.5422 20.5439 12.4027 21.0348C12.2188 21.6819 11.8856 22.4401 11.3999 23.6982C10.506 26.0135 9.29818 28.0962 9.84032 27.9966C10.0712 27.9541 10.7929 27.9207 12.1827 26.694C13.9233 25.1577 14.6911 23.3667 15.2815 23.4721C15.5032 23.5117 15.8269 23.8511 16.4423 24.437C17.6975 25.6319 18.4565 26.4864 20.2018 27.4557C20.4566 27.5972 20.39 27.4608 20.3235 27.273C20.1771 26.8592 19.969 26.3953 19.7863 25.538Z" fill="#4A2F2C" stroke="#4A2F2C" stroke-width="1.5" stroke-linecap="round"/>
</svg>
