<svg width="40" height="40" viewBox="0 0 40 40" fill="none" xmlns="http://www.w3.org/2000/svg">
<path d="M16.0795 1.52588C17.2514 1.05907 19.6036 1.00117 20.6771 1.00015C21.6951 1.14668 24.3349 1.13432 25.0567 1.54875C25.7417 1.94207 26.9117 3.03141 28.4142 3.89955L28.424 3.9052C29.539 4.54942 31.2056 5.51232 32.4643 7.38114C33.8644 9.4599 34.8718 10.8683 35.1304 11.282C35.9834 12.6464 36.4399 13.4614 36.8589 14.3761C37.3602 15.4706 37.9338 16.0458 38.4117 17.5213C38.6458 18.2441 38.7615 20.021 38.6544 22.3203C38.5932 23.6343 38.5481 24.1881 38.5068 24.4859C38.3383 25.6975 38.015 28.2142 37.5137 29.1079C37.2501 29.5778 36.0456 31.0781 34.666 33.0896C34.0674 33.9624 33.9172 34.3056 33.6094 34.5046C32.8808 34.9754 32.1933 35.7315 29.083 36.8665C27.2453 37.5371 25.7833 38.0089 24.077 38.104C22.9083 38.1692 21.1561 38.1976 19.8247 38.2032C18.4932 38.2087 17.6091 38.1969 16.9098 38.1686C14.899 38.0875 13.7536 37.9217 12.6328 37.8692C10.9354 37.7898 9.89483 37.9452 6.81434 35.697C5.60939 34.8176 4.39689 34.1232 3.47765 31.1397C2.59976 28.2904 2.56296 27.362 2.22874 26.4281C1.71031 24.9794 0.704994 22.974 1.0831 20.577C1.3108 19.1335 1.33419 18.3936 1.8804 17.185C2.53404 15.7387 3.08931 14.0706 3.32532 13.5146C3.69436 12.6451 4.40522 11.3793 4.99371 10.5189C5.4278 9.88428 6.49772 7.89539 8.41545 6.1249C9.76533 4.87867 10.669 4.09674 12.7644 2.98978C13.5376 2.58128 14.5143 2.14931 16.0795 1.52588Z" fill="#F6F3EE" stroke="#4A2F2C" stroke-width="2" stroke-linecap="round"/>
<path d="M17.0022 8.21367C18.0475 7.92323 19.3173 8.01306 19.5771 8.01332C19.8857 8.01364 20.9787 7.96132 21.3466 8.08959C21.7106 8.21648 22.16 8.34627 22.8322 8.74802L22.8555 8.76194C23.3647 9.06627 23.7882 9.3194 24.0455 9.66005C24.8138 10.6771 25.468 11.5111 25.6189 11.8612C25.7159 12.0863 26.0052 12.8728 26.1244 13.9838C26.1935 14.6272 26.1766 15.0332 26.045 15.5132C25.8558 16.2031 25.4425 17.0469 25.3106 17.2138C25.065 17.5245 24.8452 17.5499 23.8964 18.1409C23.2351 18.5529 22.4513 18.9192 21.3518 18.9162C20.6451 18.9143 19.3464 18.9188 18.6055 18.8794L18.5934 18.8788C17.6751 18.8299 16.6622 18.7761 15.9243 18.2762C15.4939 17.9846 15.025 17.5916 14.7895 17.2138C14.4405 16.654 14.0127 15.9453 13.9275 15.2399C13.8183 14.3368 13.8159 13.1832 13.8726 12.7762C13.9347 12.3301 13.7679 11.742 14.5777 10.4704C15.0319 9.75729 15.4006 9.31336 15.6526 9.09005C15.8406 8.92341 15.9243 8.51318 17.0022 8.21367Z" fill="#4A2F2C" stroke="#4A2F2C" stroke-width="1.5" stroke-linecap="round"/>
<path d="M31.2529 27.8738C31.3185 28.1249 31.5091 28.5956 31.5541 29.4452C31.5952 30.2205 31.0192 30.8308 30.2428 30.8233C29.649 30.8176 29.0074 30.8064 28.6072 30.8059C28.0463 30.8052 27.0266 30.7982 26.182 30.7883C25.3374 30.7785 24.6874 30.77 24.2967 30.7567C23.4704 30.7285 22.9987 30.6988 21.9378 30.5792C21.4061 30.5192 20.5968 30.4387 19.8015 30.3995C19.0061 30.3602 18.2477 30.3569 17.7996 30.3674C17.2175 30.3809 16.9319 30.3995 16.6266 30.4073C16.3056 30.4154 15.9269 30.4453 14.684 30.4744C13.6509 30.4986 11.8485 30.5305 10.9172 30.5427C9.98581 30.5549 9.93036 30.5295 9.84035 30.5295C9.33566 30.5295 8.78436 30.5983 8.49531 30.117C8.46195 30.0615 8.38517 29.9107 8.52371 29.6503C8.65223 29.4087 8.73452 29.3106 8.88396 29.0861C9.30866 28.4481 9.7535 27.6414 10.2844 26.883C10.8242 26.1119 11.131 25.6859 11.5291 25.2472C11.8159 24.9313 12.504 24.1962 13.5597 23.4818C14.6056 22.7741 14.9046 22.4951 15.394 22.2566L15.4076 22.25C15.7113 22.102 16.0423 21.9406 16.869 21.9265C17.4249 21.9169 18.4179 21.9117 18.9458 21.9206C19.535 21.9305 19.8833 21.9124 20.3218 21.9767C20.6886 22.0306 20.9725 22.0823 21.2665 22.1284C22.0115 22.2453 22.9117 22.4133 23.3269 22.5085C23.8303 22.6239 24.6698 22.7464 25.1592 22.8422C25.5693 22.9224 25.8295 22.9184 27.276 23.4482C27.798 23.6394 28.047 23.7809 28.4607 24.0024C29.1877 24.3917 29.4304 24.6826 29.5766 24.9275C29.7552 25.2266 30.1056 25.5994 30.3235 25.9262C30.6376 26.3973 31.0061 26.9286 31.2529 27.8738Z" fill="#4A2F2C" stroke="#4A2F2C" stroke-width="1.5" stroke-linecap="round"/>
</svg>
