<svg width="112" height="40" viewBox="0 0 112 40" fill="none" xmlns="http://www.w3.org/2000/svg">
<rect x="0.5" y="0.5" width="111" height="39" rx="15.5" stroke="#4A2F2C"/>
<path d="M13.6666 20C13.6729 20 13.7243 20 14.9866 20C16.3199 20 18.8199 20 21.6666 20" stroke="#4A2F2C" stroke-width="1.5" stroke-linecap="round"/>
<path d="M55.3907 24.9375C55.2136 24.8854 55.0886 24.7865 55.0157 24.6406C54.9532 24.4948 54.9375 24.3385 54.9688 24.1719C55.125 23.3281 55.2344 22.4844 55.2969 21.6406C55.3594 20.7969 55.3959 19.9531 55.4063 19.1094C55.4167 18.2552 55.4115 17.401 55.3907 16.5469C55.3802 15.6927 55.375 14.8438 55.375 14C55.375 13.8021 55.4375 13.6562 55.5625 13.5625C55.698 13.4583 55.8438 13.4062 56 13.4062C56.1563 13.4062 56.2969 13.4583 56.4219 13.5625C56.5573 13.6562 56.625 13.8021 56.625 14C56.625 14.875 56.6302 15.7552 56.6407 16.6406C56.6615 17.5156 56.6615 18.3906 56.6407 19.2656C56.6302 20.1406 56.5886 21.0156 56.5157 21.8906C56.4427 22.7656 56.323 23.6354 56.1563 24.5C56.125 24.6667 56.0261 24.7917 55.8594 24.875C55.7032 24.9583 55.5469 24.9792 55.3907 24.9375Z" fill="#4A2F2C"/>
<path d="M90.3333 19.6585C90.3209 19.6585 92.5788 19.6585 96.0902 19.6508C97.3372 19.6432 97.4983 19.6279 97.6916 19.6194C97.885 19.6108 98.1058 19.6095 98.3333 19.6081" stroke="#4A2F2C" stroke-width="1.5" stroke-linecap="round"/>
<path d="M95.3978 16.0003C95.3663 15.9745 95.3084 17.6706 95.1772 20.6255C95.0878 21.8709 94.9518 22.6005 94.8715 23.0581C94.7912 23.5157 94.7706 23.6793 94.703 24" stroke="#4A2F2C" stroke-width="1.5" stroke-linecap="round"/>
</svg>
