<svg width="54" height="42" viewBox="0 0 54 42" fill="none" xmlns="http://www.w3.org/2000/svg">
<g filter="url(#filter0_d_5507_9207)">
<rect x="5.33073" y="5.33073" width="43.3385" height="31.3385" rx="3.63802" fill="white" stroke="#D9D9D9" stroke-width="0.661458"/>
<path fill-rule="evenodd" clip-rule="evenodd" d="M15.4923 16.9103C16.0832 16.9632 16.6741 16.5931 17.0434 16.1239C17.4066 15.6415 17.6467 14.9938 17.5851 14.333C17.0619 14.3594 16.4156 14.7031 16.0463 15.1855C15.7077 15.6018 15.4184 16.2759 15.4923 16.9103ZM22.5217 25.4219V15.1194H26.1225C27.9814 15.1194 29.2802 16.494 29.2802 18.5029C29.2802 20.5119 27.9568 21.8996 26.0733 21.8996H24.0112V25.4219H22.5217ZM17.5789 17.0358C17.0583 17.0037 16.5833 17.2039 16.1996 17.3657C15.9527 17.4698 15.7437 17.5579 15.5846 17.5579C15.4061 17.5579 15.1884 17.465 14.9439 17.3608C14.6236 17.2242 14.2574 17.068 13.8734 17.0755C12.9932 17.0887 12.1746 17.624 11.7252 18.4765C10.8019 20.1814 11.4852 22.7058 12.3777 24.0936C12.8147 24.7809 13.3379 25.5342 14.0273 25.5078C14.3306 25.4955 14.5488 25.3961 14.7745 25.2933C15.0345 25.1748 15.3045 25.0518 15.7262 25.0518C16.1332 25.0518 16.3914 25.1716 16.6393 25.2867C16.875 25.396 17.1013 25.501 17.4373 25.4946C18.1513 25.4814 18.6007 24.8073 19.0377 24.12C19.5093 23.3824 19.7166 22.6625 19.748 22.5533L19.7517 22.5406C19.751 22.5398 19.7451 22.537 19.7349 22.5319C19.5772 22.4544 18.3722 21.8622 18.3606 20.274C18.349 18.9409 19.3164 18.2655 19.4687 18.1592L19.4688 18.1591L19.4688 18.1591C19.478 18.1526 19.4842 18.1483 19.487 18.146C18.8715 17.168 17.9113 17.0623 17.5789 17.0358ZM32.0009 25.5012C32.9365 25.5012 33.8044 24.9924 34.1983 24.1861H34.2291V25.4219H35.6079V20.2938C35.6079 18.8069 34.4999 17.8487 32.7949 17.8487C31.213 17.8487 30.0435 18.8201 30.0004 20.155H31.3423C31.4531 19.5206 32.0009 19.1043 32.7518 19.1043C33.6628 19.1043 34.1737 19.5602 34.1737 20.3995V20.9678L32.3148 21.0868C30.5852 21.1991 29.6496 21.9591 29.6496 23.2808C29.6496 24.6157 30.6159 25.5012 32.0009 25.5012ZM32.4009 24.2786C31.6068 24.2786 31.1021 23.8689 31.1021 23.2411C31.1021 22.5935 31.5884 22.2168 32.5178 22.1574L34.1736 22.045V22.6266C34.1736 23.5914 33.4104 24.2786 32.4009 24.2786ZM40.1812 25.825C39.5842 27.6291 38.9009 28.2239 37.4483 28.2239C37.3375 28.2239 36.9682 28.2106 36.882 28.1842V26.9484C36.9743 26.9617 37.2021 26.9749 37.319 26.9749C37.9776 26.9749 38.3469 26.6775 38.5747 25.9043L38.7101 25.4483L36.1864 17.9478H37.7437L39.498 24.0341H39.5288L41.283 17.9478H42.7972L40.1812 25.825ZM24.0111 16.4675H25.7284C27.0211 16.4675 27.7597 17.2077 27.7597 18.5095C27.7597 19.8114 27.0211 20.5581 25.7223 20.5581H24.0111V16.4675Z" fill="black"/>
</g>
<defs>
<filter id="filter0_d_5507_9207" x="0" y="0" width="54" height="42" filterUnits="userSpaceOnUse" color-interpolation-filters="sRGB">
<feFlood flood-opacity="0" result="BackgroundImageFix"/>
<feColorMatrix in="SourceAlpha" type="matrix" values="0 0 0 0 0 0 0 0 0 0 0 0 0 0 0 0 0 0 127 0" result="hardAlpha"/>
<feOffset/>
<feGaussianBlur stdDeviation="2.5"/>
<feComposite in2="hardAlpha" operator="out"/>
<feColorMatrix type="matrix" values="0 0 0 0 0 0 0 0 0 0 0 0 0 0 0 0 0 0 0.07 0"/>
<feBlend mode="normal" in2="BackgroundImageFix" result="effect1_dropShadow_5507_9207"/>
<feBlend mode="normal" in="SourceGraphic" in2="effect1_dropShadow_5507_9207" result="shape"/>
</filter>
</defs>
</svg>
