<svg width="400" height="104" viewBox="0 0 400 104" fill="none" xmlns="http://www.w3.org/2000/svg">
<path d="M321.544 90.5831C305.922 94.4328 276.662 94.7708 276.662 94.7708C276.662 94.7708 155.67 96.9494 136.288 94.352C123.863 92.687 89.4958 92.6769 60.8479 86.8142C32.1999 80.9514 37.9295 67.5507 49.3887 59.5941C60.8479 51.6375 49.3887 44.0684 80.5138 30.9966C101.523 22.1733 149.211 15.7463 149.211 15.7463C149.211 15.7463 209.181 11.4355 222.231 9.76041C246.678 6.41024 252.08 7.46743 269.978 9.76041C290.535 12.394 300.115 16.7685 314.86 23.5798C326.682 29.0409 329.42 33.1752 339.688 39.4931C360 51.9906 360 58.9226 360 58.9226C360 58.9226 359.313 69.5714 352.102 76.7637C345.202 83.6454 336.489 86.9004 321.544 90.5831Z" fill="#E8DCCD"/>
<path d="M61.5441 57.5269C59.8585 60.9234 56.7673 64.1347 53.8867 66.0721C51.5897 67.6626 49.5288 69.6635 48.5598 71.2962C48.0679 72.0962 47.9284 72.7107 47.937 72.8341C47.9623 72.969 47.8726 72.7411 48.0526 73.0559C48.9417 74.8511 56.1134 77.8468 62.4516 78.9774C74.0188 81.3251 85.9632 82.6841 97.5418 83.7669C100.977 84.0813 100.708 84.592 101.668 84.7363C104.298 85.126 105.947 84.6012 107.867 84.7739C117.295 85.6502 125.99 85.9899 135.828 87.1793C136.338 87.2471 136.804 87.3181 137.221 87.3902C140.446 87.9297 141.719 88.4017 141.942 88.9047C142.286 89.3982 142.024 89.8688 143.598 90.1474C149.952 91.2373 144.592 88.8164 147.149 88.436C154.538 88.849 161.979 89.1902 169.46 89.503C167.639 89.6894 165.834 89.8684 163.966 90.0318C167.313 90.1218 171.812 90.4989 166.45 91.0129C167.624 91.1831 168.738 91.3778 169.985 91.5421C170.369 90.7548 176.077 90.731 176.64 90.2615C177.169 89.7943 173.908 89.8838 173.936 89.8422C174.167 89.2682 187.442 90.1118 188.423 90.1683C190.969 90.3419 188.739 91.3257 190.892 91.2614C194.599 91.149 192.137 89.1533 197.164 91.8017C199.16 90.9321 199.338 91.3804 201.875 91.4307C202.208 91.4368 201.948 90.9376 202.094 90.9239C205.925 90.5364 202.983 91.4793 203.003 91.5296C203.355 92.3847 207.468 91.9844 208.338 92.0611C219.24 93.0209 227.203 93.6429 238.713 93.7527C241.212 93.7761 248.718 93.337 251.173 93.4492C253.515 93.5619 252.223 94.1959 253.508 94.4749C255.517 92.9636 257.425 92.7744 261.838 93.6875C263.573 92.5792 263.265 93.4575 266.504 93.1914C269.007 92.9737 273.882 91.5966 276.624 92.6543C273.437 92.609 273.658 93.1369 269.943 93.5182C268.704 93.648 255.563 93.8636 256.578 94.9534C257.013 95.5244 261.48 94.9307 261.561 95.0355C262.513 95.6412 260.242 96.4364 258.009 96.201C258.561 96.0681 259.214 95.9319 259.784 95.7987C254.842 95.0942 258.325 98.0204 254.609 95.4718C254.146 95.1591 254.322 94.8242 253.553 94.4957C253.397 94.638 254.338 94.9728 253.533 95.0459C252.678 95.1202 251.236 94.4795 251 95.0385C250.679 95.8514 253.946 95.4894 254.236 95.5325C254.238 95.5276 254.241 95.5227 254.244 95.5177C256.494 95.9164 251.788 96.0292 251.622 96.1076C250.212 96.6298 251.2 97.005 249.036 97.4489C247.757 97.7026 244.748 97.6001 243.546 97.6909C242.381 97.7833 244.199 98.144 243.416 98.2355C242.613 98.3272 241.71 98.0472 240.804 98.1529C240.421 98.1993 240.445 98.6256 240.259 98.6426C238.249 98.8297 239.564 97.9276 237.722 98.0023C236.555 98.0515 232.628 98.9201 235.347 99.1376C234.048 99.2373 232.749 99.3137 231.442 99.394C232.261 99.5126 233.134 99.5899 233.937 99.7307C231.45 99.5535 230.383 100.294 228.844 100.363C227.31 100.432 225.892 99.569 224.228 100.011C220.627 100.952 229.577 100.452 230.669 100.602C231.099 100.662 229.458 101.364 229.201 101.386C228.069 101.483 226.708 101.005 225.824 101.035C222.73 101.145 220.755 101.809 217.799 101.962C207.625 102.485 194.985 102.899 185.326 103.025C181.764 103.073 179.541 102.335 177.962 102.349C174.146 102.379 173.736 103.01 170.404 103.017C165.554 103.031 158.541 102.376 154.438 102.154C151.658 102.008 148.929 102.532 148.245 102.522C144.215 102.445 140.045 102.385 135.285 101.838C129.281 101.156 122.268 100.87 117.099 100.549C113.117 100.321 111.255 99.5148 110.436 99.4847C106.884 99.3483 107.786 99.9968 104.916 99.746C103.349 99.6077 103.111 99.0219 102.901 98.9852C101.067 98.6677 100.664 99.3789 99.2172 99.2939C90.9441 98.8014 83.0055 97.5514 74.799 96.3554C74.2035 96.2676 74.3017 95.9502 73.9137 95.9128C72.2448 95.7561 72.9413 96.3791 71.2004 96.1585C67.5766 95.6942 63.8755 94.9789 60.0548 94.145C59.8207 94.0938 59.6984 93.9025 59.4341 93.7222C59.2578 93.6087 59.025 93.4985 58.6768 93.4242C57.7443 93.2222 57.0563 93.4834 55.5672 93.0895C51.8054 92.0578 48.2967 90.5044 44.1794 88.324C43.5352 87.9767 42.384 87.9128 41.3822 87.2415C38.1246 85.4075 33.3271 79.1587 33.3246 74.1851C33.4072 62.4059 40.3809 58.0383 45.4383 53.9047C46.5599 53.0896 47.2871 52.3578 47.8402 51.5617C48.3419 50.861 49.2333 50.0053 49.5788 49.2017C50.3851 47.3144 49.3211 48.6842 50.2609 46.4654C56.2953 33.1594 68.3766 29.0884 77.8785 24.7218C85.35 21.6843 92.6693 19.7806 100.026 17.9528C106.963 16.2489 115.325 14.0736 122.067 12.9616C124.863 12.5018 125.491 13.0162 127.46 12.6741C130.966 12.0709 131.503 11.1808 135.21 10.4938C138.182 9.94784 141.689 10.1976 144.796 9.69401C146.199 9.46676 147.252 9.14904 148.278 8.82283L148.71 8.77822C149.912 8.46472 151.256 8.11228 153.2 7.91973C156.117 7.63189 160.237 7.675 163.407 7.38217C182.813 5.54282 202.481 3.94445 221.232 1.97245L221.165 1.98127C230.833 0.722805 240.841 -0.495603 251.446 0.205094C258.032 0.63951 264.552 1.62537 270.9 2.56404C275.602 3.26635 280.318 4.19699 284.838 5.50673C285.858 5.81128 284.123 6.15338 287.463 6.78365C289.251 7.14031 291.917 7.13852 295.996 8.42647C303.584 10.8245 310.742 14.2507 317.627 17.5898C327.428 21.9187 335.315 29.7531 342.819 34.4051C349.11 38.4844 355.244 42.6484 360.806 48.7157C361.773 49.8059 362.74 51.0008 363.635 52.3831C364.091 53.0924 364.529 53.845 364.943 54.7369C365.144 55.1746 365.35 55.6715 365.534 56.2295C365.626 56.5122 365.716 56.8195 365.799 57.1741C365.842 57.363 365.88 57.541 365.919 57.7776C365.935 57.8745 365.957 58.0239 365.973 58.1656C365.981 58.2354 365.988 58.2992 365.998 58.4225C366.006 58.5428 366.015 58.5761 366.019 58.9226L366.006 59.31C365.265 67.5623 362.847 75.0055 356.907 81.5815C347.242 92.0123 334.168 95.461 323.457 98.3435C306.701 102.105 291.714 101.514 277.58 98.6066C276.001 98.2549 276.828 96.3961 277.745 95.854C278.615 96.2122 279.436 96.6382 280.356 97.0367C281.415 94.694 281.236 95.3173 285.465 95.3609C288.061 95.3798 285.961 94.4817 287.312 94.1416C289.1 93.725 297.374 92.0614 295.871 93.6826C296.372 93.3825 296.838 93.0948 297.319 92.7994C303.344 92.119 309.185 91.1595 314.879 89.7833C315.874 89.5384 315.817 89.0621 316.829 88.7986C318.266 88.4155 319.597 88.1749 320.886 87.9126C322.048 87.6725 323.202 87.4383 324.492 87.0786C326.01 86.651 326.077 86.0643 328.057 85.5444C330.021 85.0118 330.219 85.7507 332.6 84.1295C330.622 83.8204 338.375 81.9351 340.705 80.5406C341.087 80.3678 343.468 78.1201 344.82 77.2451C346.009 76.5226 347.856 75.5875 349.345 73.9999C349.592 73.7371 349.817 73.4595 350.026 73.1559C350.662 72.2121 350.545 71.2859 351.164 70.283C351.594 69.5776 352.618 68.9754 353.128 67.9716C353.664 66.9866 354.052 64.5216 354.153 64.0962C354.584 62.5457 354.475 64.3674 354.802 63.3107C355.25 61.8275 355.65 59.9934 355.8 58.6517L355.792 58.9226C355.794 59.1289 355.798 59.1275 355.801 59.1741C355.804 59.2153 355.807 59.2401 355.809 59.2562C355.813 59.2913 355.818 59.3224 355.821 59.3339C355.827 59.3651 355.83 59.3743 355.831 59.3746C355.834 59.3744 355.828 59.3381 355.817 59.2955C355.794 59.2019 355.75 59.0675 355.688 58.9119C355.567 58.6079 355.379 58.2351 355.165 57.8702C354.723 57.1179 354.148 56.3382 353.504 55.5795C352.21 54.059 350.663 52.6421 349.1 51.4259C348.546 50.9966 348.967 51.9925 348.882 51.9425C344.901 49.4012 347.226 50.5334 346.48 49.3763C345.865 48.2108 337.916 43.1751 337.382 43.9279C337.442 43.7215 337.404 43.5389 337.299 43.3761C336.826 42.6894 335.267 42.3168 334.847 42.0698C332.878 40.9125 333.762 40.4098 331.805 39.388C331.09 39.0084 332.015 40.4153 331.317 39.9007C329.593 38.6279 328.659 36.6854 326.553 35.0024C326.046 34.5989 325.615 34.8253 324.706 34.1533C323.811 33.4423 320.22 30.4862 321.509 32.4227C319.546 30.3049 318.841 30.354 315.949 28.8234C315.29 28.4829 314.689 27.5376 313.304 26.9468C313.143 26.878 312.973 26.8135 312.793 26.7547C312.184 26.5558 311.925 27.1895 311.051 26.7929C309.07 25.8977 307.517 24.4024 305.028 23.2732C300.376 21.1583 295.255 19.6589 290.345 18.0118C289.002 17.5657 289.538 16.9949 287.546 16.439C287.246 16.3533 284.696 16.314 283.319 15.9544C282.502 15.7128 278.187 14.4284 277.296 14.2587C275.82 13.9483 275.454 14.5672 274.662 14.3088C272.375 13.5795 274.402 12.8865 271.367 13.8075C270.921 13.3372 270.218 13.0795 269.59 12.7857C269.054 12.5387 268.598 12.2668 268.407 11.8226C267.29 12.6895 266.132 11.5675 264.182 11.6564C262.226 11.7444 260.458 13.4863 260.238 11.3577C259.319 11.4946 255.53 11.5319 254.908 11.5233C253.057 11.4609 254.088 10.9627 252.688 10.9423C252.442 10.9415 252.672 11.3426 251.108 11.2212C250.088 11.0584 242.546 11.083 242.08 11.1202C236.869 10.7833 244.893 10.5593 245.999 10.1919C246.198 10.3026 246.397 10.4144 246.608 10.5251C248.887 10.7242 247.597 9.81951 246.554 9.61209C245.509 9.40166 243.549 9.84716 242.679 9.59366C242.236 9.46632 242.46 8.37893 243.793 8.46585C242.354 8.18254 244.296 7.7718 243.721 7.48027C243.092 7.11378 236.617 7.42616 236.652 8.04692C237.832 7.96651 239.351 7.83501 240.548 7.79132C242.153 8.72921 237.682 12.4545 233.242 11.535C229.985 10.8776 235.094 9.46919 227.71 11.1978C228.852 11.0974 229.866 11.0731 230.893 10.9995C231.095 11.7491 229.302 11.1051 228.46 11.4557C228.054 11.6249 230.7 11.8536 228.485 12.3037C226.596 11.5324 225.338 12.5151 222.682 13.0495L222.654 13.0533C222.397 13.1038 222.112 13.15 221.791 13.1895C222.089 13.091 222.37 12.9935 222.634 12.8968L222.661 12.8933C223.272 12.6751 223.871 12.4599 224.457 12.2472C219.173 12.1967 230.241 10.4365 222.412 11.0772L222.401 11.0787C221.991 11.1075 221.409 11.1537 220.812 11.1967C221.325 11.1238 221.921 11.0456 222.388 10.9786L222.398 10.9772C223.178 10.8603 223.933 10.7487 224.682 10.6175C224.008 10.2999 224.848 8.99496 224.258 8.82072C223.626 8.63122 222.886 8.63805 222.09 8.7286C221.076 8.83249 219.85 9.09157 218.793 9.16895C218.021 9.22545 218.464 8.85762 218.4 8.8625C217.321 8.93842 217.562 9.38435 216.655 9.50493C215.424 9.66731 211.978 9.53075 211.415 9.63242C209.957 9.89772 212.486 10.5965 212.34 10.6786C211.461 11.2095 209.528 11.0095 209.686 11.5832C214.185 10.8169 227.399 9.93045 215.568 12.1281C218.951 12.7435 218.155 14.1471 213.407 14.6962C209.549 15.1357 211.963 14.3902 209.92 13.9968C209.647 13.9515 204.396 14.1309 204.179 14.5551C204.311 13.6047 202.535 12.9232 203.598 11.864C203.762 11.7082 205.874 11.5838 205.072 10.873C204.675 10.5157 203.538 9.76055 203.667 9.25125C203.257 9.6325 202.827 10.0586 202.404 10.4557C199.234 10.8228 198.736 10.4893 196.932 9.99134C197.035 10.2526 198.752 11.2453 196.256 11.1048C196.129 11.0945 195.991 10.6993 194.728 10.5999C192.162 10.4031 191.64 10.3186 193.475 8.97694C188.309 10.073 187.081 8.8387 181.755 9.64293C182.938 11.0854 184.794 10.563 189.673 9.87999C189.914 10.2259 190.041 10.5771 190.291 10.926C183.701 10.6209 186.932 10.4492 183.291 11.4756C182.398 11.7274 177.555 11.9071 179.246 12.8099C179.647 13.0223 182.643 12.762 182.329 13.1696C182.271 13.2474 178.63 13.7148 178.308 13.6402C174.174 12.7341 181.326 11.3385 170.242 12.6264C169.937 12.6625 169.862 13.1149 169.275 13.2214C168.173 13.4204 168.092 12.909 167.103 13.1028C166.137 13.2951 164.745 14.0954 163.217 13.5658C160.345 12.6081 166.825 11.452 169.774 11.8498C170.816 10.2742 150.843 11.6987 148.938 11.9498L148.703 11.9741C148.701 11.9767 148.671 11.9831 148.64 11.9898C145.718 12.7008 146.858 12.5902 148.756 12.3707L148.967 12.349C150.591 12.2706 152.822 12.1397 153.091 12.3212C153.288 12.4864 153.363 14.7584 155.605 13.1163C156.254 12.6308 153.362 12.2659 155.041 11.9014C156.761 11.5337 156.142 12.2496 156.266 12.2874C156.702 12.4157 158.553 12.0306 158.797 12.1076C162.629 13.2667 162.404 15.4646 157.267 12.6229C155.209 13.5025 160.186 14.2961 157.553 14.9843C154.379 15.8187 151.92 14.959 151.529 14.9407C148.125 14.7978 149.884 15.3059 149.2 15.597C148.968 15.7306 148.184 15.8687 146.422 15.9793C143.087 16.1949 151.179 14.2655 143.701 15.4638C137.424 16.507 140.905 16.5108 140.632 17.7611C140.562 18.0555 137.166 18.9328 141.83 18.0815C141.919 17.7525 142.114 17.3069 142.367 16.9775C143.502 17.0334 145.733 18.2787 146.282 18.2547C148.248 18.1388 148.818 17.7766 149.478 17.7288L149.354 17.7416C149.338 17.7485 149.578 17.7429 149.613 17.7599C149.694 17.7735 149.798 17.7934 149.934 17.8207C150.194 17.8761 150.37 17.9767 150.746 18.1171C149.371 17.1708 151.493 17.6474 152.26 17.3706C155.106 16.3488 151.289 16.3266 157.8 16.8942C156.956 16.4661 156.111 16.0469 155.288 15.6189C156.032 15.5475 156.86 15.4693 157.596 15.3983C158.882 16.3836 162.915 15.9466 159.298 17.3017C163.772 17.2794 165.573 16.9082 166.5 15.9988C166.671 15.8256 167.325 15.7124 168.12 15.6372C167.952 15.4136 167.706 14.7022 167.824 14.6037C168.907 13.7351 170.694 14.9602 170.155 15.5201C170.707 15.5032 171.151 15.4987 171.308 15.4995C172.304 15.5047 170.401 16.1182 171.213 16.2177C171.501 16.2484 174.214 15.9402 174.295 16.1247C174.71 17.316 170.132 16.785 179.277 16.7949C179.416 15.6707 175.198 16.2391 176.196 14.9795C177.273 13.6264 179.77 15.1389 180.175 13.5481C180.389 13.788 180.491 13.9939 180.681 14.2711C184.304 13.3108 184.46 14.5963 185.605 14.7936C187.836 15.1809 197.874 14.2937 188.766 13.895C190.072 13.6792 191.421 13.5197 192.721 13.316C193.204 15.6049 192.337 14.7529 198.687 14.5888C200.066 14.5537 200.635 15.5309 201.888 14.2093C201.794 15.4118 205.848 14.3474 206.26 14.4554C208.811 15.1807 199.749 17.2638 198.407 15.2585C196.926 16.2016 196.839 15.1228 195.131 15.4054C192.643 15.8143 192.327 16.0513 189.302 15.4904C186.476 16.8471 200.748 15.0689 192.185 17.2553C187.128 18.5531 167.361 20.7429 149.693 22.4482L150.108 22.4053C138.262 24.3541 127.162 26.5562 122.541 27.5303C105.742 31.1637 95.1477 33.7174 83.5766 38.2895C80.869 39.4382 78.1294 40.6747 75.3489 42.1316C74.6255 42.5029 71.3937 44.2907 69.1567 45.828C66.8751 47.3483 65.5056 48.5933 65.7158 47.3826C65.6428 47.0537 69.1641 43.4242 65.2373 45.4666C66.2506 45.3301 64.7754 47.2929 64.755 47.4725C63.9265 49.5663 64.271 50.1022 64.1457 50.8352C64.0968 51.2143 63.9965 51.5972 63.7036 52.4118C63.3704 53.2425 63.0489 54.5078 61.5441 57.5269ZM37.2207 77.4893C35.5948 73.2205 36.5945 70.5667 36.7622 69.416C37.0461 68.2052 37.0004 68.0443 36.6984 68.2217C36.0962 68.5044 34.7952 70.8051 34.3494 68.6096C33.6373 71.0044 33.4623 73.9419 34.2363 76.6803C34.1555 75.9288 34.1384 75.193 34.1781 74.4601C34.1778 74.457 34.1774 74.4539 34.1771 74.4508C35.0521 75.7123 36.1094 76.7465 37.2207 77.4893ZM237.451 100.366C236.98 100.63 236.518 100.894 236.006 101.152C234.402 101.089 232.744 101.028 231.128 100.964C231.318 100.786 231.501 100.607 231.69 100.43C233.641 100.417 235.557 100.405 237.451 100.366ZM171.476 11.4361C173.793 11.9807 173.524 10.7157 176.594 11.0666C176.147 10.1519 175.663 9.2607 175.201 8.35645C172.894 8.67301 172.421 9.06985 169.863 9.03143C170.178 9.31258 170.503 9.59486 170.815 9.87808C171.236 9.78074 171.674 9.67316 172.07 9.58512C172.79 10.384 168.752 10.8172 171.468 11.4387C171.47 11.4378 171.473 11.437 171.476 11.4361ZM194.898 9.22431C196.121 9.24995 201.062 9.30679 201.679 8.86038C203.835 7.3507 190.138 9.32636 200.183 7.31257C200.121 7.13064 200.153 6.94472 200.137 6.76076C198.277 6.8501 196.427 6.94534 194.574 7.04315C194.733 7.76794 194.725 8.49689 194.898 9.22431ZM61.1675 37.342C62.8141 35.8433 70.8345 30.5804 67.6984 31.4039C66.7458 31.6162 63.6232 34.9257 62.2573 35.9288C61.3518 36.5697 61.9747 35.2363 60.3432 36.8381C60.6031 37.0016 60.853 37.214 61.1709 37.3367C61.1698 37.3385 61.1686 37.3402 61.1675 37.342ZM60.9428 42.7135C62.2162 41.229 63.6869 39.8425 65.249 38.5918C63.5812 38.8002 61.6557 41.0645 60.8366 40.4192C61.1844 39.9893 61.6054 39.5187 61.9683 39.1162C62.446 39.0221 62.9319 38.9322 63.415 38.8538C64.4534 37.3788 63.4301 37.6916 66.2671 36.0289C63.7843 35.8223 62.6399 35.1193 59.3011 40.3928C59.5781 38.9767 56.591 37.6288 55.7944 41.8315C55.6693 42.5732 57.6197 40.5779 57.6993 40.6327C58.5127 40.837 57.9053 42.2292 58.7199 42.369C59.0657 42.4359 60.1173 41.3134 60.5853 41.488C60.7926 41.5756 60.2853 42.9768 60.9428 42.7135ZM55.3471 43.6742C55.4011 42.7831 53.0028 44.387 52.3167 46.4728C51.3392 49.5502 54.1925 45.3034 55.3471 43.6742ZM237.462 100.365C237.458 100.365 237.455 100.365 237.451 100.366C237.453 100.365 237.455 100.364 237.457 100.363C237.458 100.363 237.46 100.364 237.462 100.365ZM188.51 9.21406C189.925 8.71853 192.082 8.60163 191.873 8.00847C192.585 8.07117 193.306 8.13111 194.024 8.19285C194.003 8.0112 193.975 7.8297 193.953 7.64991C191.821 7.70812 189.699 7.76292 187.569 7.81514C187.874 8.28156 188.159 8.75139 188.51 9.21406ZM211.642 7.70246C214.257 7.52338 211.997 6.90113 212.531 6.45076C213.112 5.99705 215.437 6.10147 215.136 5.55411C213.601 5.68024 211.974 5.80828 210.363 5.93285C210.848 6.51506 211.2 7.12059 211.647 7.70197C211.646 7.70214 211.644 7.7023 211.642 7.70246ZM86.5445 95.0256C84.7324 94.6533 85.5544 94.117 81.8649 94.4409C81.8676 94.4412 81.8703 94.4415 81.873 94.4418C85.2429 95.3567 89.6302 96.2616 93.4614 96.0916C91.2104 95.2249 89.3878 95.599 86.5445 95.0256ZM164.994 10.0566C164.275 10.612 167.842 10.7636 168.621 10.2387C169.83 9.39337 166.112 9.21147 164.994 10.0566ZM160.123 95.3756C162.94 93.878 157.722 92.0856 152.263 92.6826C151.784 92.7366 155.251 93.3144 154.212 93.5887C154.089 93.616 152.224 93.5313 151.719 93.7303C151.215 93.9305 151.72 94.4438 150.904 94.6288C149.49 94.9551 146.403 94.165 145.358 94.5953C145.208 94.6542 147.124 95.4009 147.267 95.4302C149.238 95.9093 151.164 95.0927 151.505 95.0968C153.102 95.1119 152.809 95.7857 153.208 95.9569C153.938 96.2781 155.294 96.0077 155.392 96.0321C157.824 96.686 152.268 96.3887 151.559 96.6088C149.476 97.2081 151.365 97.9002 146.512 98.0961C146.027 98.1137 140.605 97.8382 147.488 98.8941C133.649 99.8754 154.349 100.111 156.504 99.7036C157.494 99.5614 156.014 98.8797 156.618 98.5993C157.983 97.9587 160.418 97.8823 160.219 96.9341C159.737 94.9409 156.713 96.1887 154.453 95.7993C154.692 95.3737 154.789 94.9555 155.226 94.5435C154.601 95.1003 159.884 95.4915 160.123 95.3795C160.123 95.3782 160.123 95.3769 160.123 95.3756ZM126.011 95.6888C123.039 94.9008 123.178 96.1677 120.454 95.2887C117.952 96.2697 122.771 96.4756 123.311 96.5736C125.847 97.0138 125.696 98.2275 128.318 98.0303C127.495 97.2465 126.795 96.4668 126.011 95.6888ZM152.285 97.9918C150.266 98.5709 153.831 98.6582 153.987 98.7811C155.593 100.121 144.607 99.5477 152.285 97.9918ZM72.9888 33.0082C73.9368 32.5872 73.0716 32.335 73.8385 31.7631C74.5816 31.1894 77.7095 30.3484 77.4551 30.0557C77.2741 29.7048 71.4767 31.273 76.7665 28.6389C76.5032 28.5226 76.4988 28.3512 76.3354 28.2134C74.821 28.8787 73.3796 29.5383 71.8744 30.2773C72.9466 30.4288 74.0796 30.6013 75.0666 30.7952C74.4762 31.6071 73.7534 31.2637 73.7029 31.2876C73.7032 31.2881 73.7035 31.2887 73.7038 31.2893C72.1631 32.0832 70.9028 33.9606 72.9888 33.0082ZM61.257 90.1578C61.5561 89.4457 61.0296 89.3829 60.2996 89.4932C59.5226 89.5976 58.5448 89.87 58.0246 89.8466C56.996 89.8066 55.6948 88.8854 56.0671 89.6576C57.0928 90.2256 58.883 90.347 60.1324 90.3102C60.7776 90.2828 61.2337 90.2133 61.2573 90.1558C61.2572 90.1565 61.2571 90.1571 61.257 90.1578ZM109.604 94.7089C107.057 94.9168 107.428 95.3394 104.347 94.6778C104.44 95.0528 104.537 95.436 104.633 95.8056C107.109 95.9802 107.006 94.9042 109.824 95.5124C110.289 95.6121 109.239 96.4019 111.363 96.2581C110.781 95.7666 110.188 95.224 109.604 94.7089ZM96.9251 95.1772C99.8508 95.3531 102.383 92.5643 96.9189 93.4818C96.1078 93.617 94.7259 95.0403 96.9251 95.1772ZM54.0887 52.0771C56.0331 47.5925 53.5098 52.681 52.5259 53.3148C56.6103 43.0367 52.2468 55.1305 50.267 54.1764C50.0038 55.2426 48.8689 57.5852 50.9354 55.9745C51.7411 55.2531 51.1205 55.2462 51.1685 55.2014C52.4175 53.7518 52.9377 54.3765 54.0887 52.0771ZM131.221 95.9888C131.034 95.996 131.285 96.5314 130.683 96.586C130.095 96.6404 128.784 96.1842 128.629 96.4898C128.475 96.7945 131.145 97.2389 131.939 97.0814C132.795 96.9243 132.873 95.9292 131.221 95.9888ZM112.371 93.535C109.876 93.7536 113.819 95.8889 114.342 95.9098C119.084 96.0897 112.202 94.1274 112.371 93.535ZM48.8196 62.5032C49.4926 61.7562 49.9508 61.2004 50.2062 60.7715C50.852 59.7645 50.3398 59.5039 49.3735 59.5723C48.2578 59.6278 46.4446 60.2528 44.8514 61.105C44.6027 61.6043 44.3581 62.1186 44.1444 62.6193C44.5197 61.3496 45.377 59.8123 45.3171 59.4462C45.3069 59.126 44.017 59.6979 41.2781 63.7521C44.9857 60.0043 42.2724 63.5055 42.3336 63.5639C43.5822 65.2839 48.0519 59.755 48.8157 62.5063C48.817 62.5052 48.8183 62.5042 48.8196 62.5032ZM139.111 97.3388C141.821 97.5717 148.575 97.4354 145.466 96.3185C143.43 96.6916 141.362 97.0511 139.111 97.3388ZM130.992 20.4825C133.201 20.6771 135.083 20.3516 137.666 19.8971C135.233 19.4575 136.741 19.1167 137.475 18.7943C138.59 18.3071 135.768 18.7879 135.724 18.7404C135.668 17.9588 137.451 17.5372 133.289 18.2472C134.304 17.8008 135.236 17.3689 136.256 16.9289C133.052 17.4166 132.233 17.0413 130.08 16.778C132.313 17.9408 129.565 17.4392 127.345 18.6038C126.242 19.1846 129.907 20.3728 131.001 20.4811C130.998 20.4815 130.995 20.482 130.992 20.4825ZM54.0588 58.6046C54.3309 57.9029 54.4505 57.1633 54.5708 56.4546C54.9582 55.8599 55.3029 55.245 55.6053 54.6167C55.8597 54.6554 56.1181 54.7095 56.3726 54.7254C56.8599 53.9181 56.3868 54.0969 56.4781 53.8373C56.4793 53.8378 56.4805 53.8384 56.4817 53.8389C57.6187 50.175 58.0312 48.8276 60.0642 47.028C59.4394 46.6255 58.8146 46.2231 58.1899 45.8207C57.9053 46.3928 57.6382 46.9942 57.4028 47.5979C57.601 48.0828 57.8143 48.5558 58.0373 49.0213C57.5396 49.5648 57.056 50.152 56.5742 50.748C56.4823 51.3517 56.3534 52.0715 56.2724 52.6112C53.2025 54.5036 57.0862 48.8813 56.3586 48.4748C55.7811 48.2496 53.3891 54.4537 52.9616 55.2293C52.9056 55.3763 55.0876 55.0883 52.9027 56.6122C52.4645 56.8704 50.2293 54.6235 50.1203 58.2498C50.0471 58.7804 52.4348 59.6436 54.0588 58.6046ZM68.7933 40.7207C64.4897 40.747 77.3111 35.9617 71.3888 37.2711C72.3752 35.6177 72.1545 35.7434 70.1977 35.8234C70.0252 35.8278 70.9618 35.0046 70.8493 35.0288C69.1549 35.3884 67.5979 36.6344 67.1193 35.9052C66.752 36.1862 66.4468 36.4277 66.076 36.7237C68.0955 36.4134 65.8693 38.472 65.4002 39.6986C65.1713 40.2522 66.1812 39.6464 65.9915 40.1217C65.9037 40.2977 64.5394 41.072 64.6572 41.358C64.9715 41.948 66.2461 42.0319 67.8529 41.5119C67.8533 41.5124 67.8537 41.5129 67.854 41.5135C68.1566 41.2539 68.4601 40.9893 68.7933 40.7207ZM70.0374 86.8508C70.4811 88.1167 73.0042 88.8742 67.9794 88.6413C68.1849 88.9122 68.3988 89.1821 68.6062 89.4525C69.4437 89.5698 70.2533 89.6784 71.1055 89.7912C74.1586 86.7452 78.2248 91.254 75.602 88.4032C75.3156 88.0932 73.3081 88.1114 75.3507 87.6632C75.3481 87.6622 75.3456 87.6612 75.3431 87.6602C72.605 87.4978 72.1959 87.8574 70.0374 86.8508ZM52.1212 83.6246C48.7222 83.6352 50.6258 84.8348 53.2159 85.6335C55.7925 86.4328 59.012 86.7016 57.8398 86.087C57.6143 86.0568 51.1904 84.6583 52.1212 83.6246ZM102.278 89.0345C99.4715 88.7859 99.1671 90.1043 99.4173 90.61C99.6683 91.1168 101.669 90.7748 101.911 90.8682C102.712 91.1791 100.962 91.2185 102.001 91.6405C102.356 91.7831 107.259 92.5987 107.488 92.552C108.775 92.3135 106.997 91.0872 107.367 90.9841C108.58 90.6468 110.11 91.3206 110.499 90.754C111.306 89.5447 108.269 90.6771 107.759 90.6642C106.243 90.6249 106.431 89.9275 105.306 89.7093C104.182 89.4907 103.442 89.6817 102.441 89.5594C102.109 89.5186 102.422 89.0494 102.278 89.0345ZM92.707 91.1081C95.7461 90.3619 88.668 88.6096 87.8027 88.7452C85.2264 89.1949 91.2347 91.4755 92.707 91.1081ZM59.8434 44.1273C58.7658 46.5874 63.036 42.3486 64.3505 41.2012C63.9161 41.0691 60.1834 43.1586 59.8434 44.1273ZM47.6236 63.4939C49.2877 61.8067 45.7448 62.4853 44.3231 64.1012C44.3358 65.7264 44.8994 64.7184 45.862 63.8385C46.8415 62.9707 46.3921 64.8521 47.6236 63.4939ZM133.01 92.2493C132.457 92.1442 123.679 92.4503 128.661 93.1673C129.049 93.2026 135.128 93.5545 135.617 93.4875C136.603 93.2652 134.396 92.4153 133.01 92.2493ZM43.64 72.3149C42.7802 71.4133 43.1998 70.2583 41.8335 70.9329C41.8331 70.9344 41.8327 70.9359 41.8323 70.9373C42.4525 68.0032 44.7763 69.1182 44.9663 68.617C46.0263 66.8204 43.5278 67.5155 43.9767 66.0414C42.3951 69.1205 41.9905 67.7072 40.9119 70.1893C40.6174 70.7874 41.0204 73.1869 41.5343 73.3832C41.9532 73.6037 43.1025 72.6054 43.64 72.3149ZM145.105 93.0316C142.174 92.5347 139.497 93.8928 143.494 94.3665C145.51 94.588 146.82 93.3256 145.105 93.0316ZM199.546 14.2485C199.071 13.8851 198.581 13.5246 198.069 13.1679C199.134 12.983 200.211 12.7946 201.282 12.6058C200.444 12.8032 199.58 13.0003 198.745 13.1945C200.771 13.1677 201.781 13.8156 199.551 14.248C199.549 14.2482 199.547 14.2483 199.546 14.2485ZM270.912 12.5638C271.736 13.0619 273.66 12.1347 273.448 12.01C271.883 11.073 269.747 11.8695 270.912 12.5638ZM65.021 44.0226C67.4177 42.2767 64.6216 41.9596 63.0695 43.2113C64.1542 42.7204 63.7254 45.0615 65.021 44.0226ZM245.999 10.1919C245.706 10.0269 245.407 9.86327 245.07 9.70161C246.12 9.9177 246.294 10.0779 245.999 10.1919ZM131.761 90.4166C131.219 90.214 127.405 89.8184 126.875 89.9739C125.787 90.2928 128.671 91.5518 130.472 91.3614C130.643 91.3374 132.277 90.6085 131.753 90.4159C131.755 90.4162 131.758 90.4164 131.761 90.4166ZM204.175 14.6083C204.168 14.5903 204.17 14.5723 204.179 14.5551C204.177 14.5727 204.179 14.5905 204.175 14.6083ZM337.36 44.0187C337.358 43.9823 337.365 43.9511 337.382 43.9279C337.374 43.9561 337.372 43.9897 337.36 44.0187ZM104.99 87.0653C103.877 85.1326 100.898 85.9038 103.127 86.9837C103.254 87.0414 104.691 87.0415 104.99 87.0653Z" fill="#E8DCCD"/>
<path d="M117.253 50.3525C117.003 50.3838 116.784 50.2979 116.597 50.0947C116.425 49.8916 116.339 49.6729 116.339 49.4385C116.339 49.1572 116.425 48.9385 116.597 48.7822C116.784 48.626 117.011 48.5322 117.277 48.501C117.417 47.4854 117.503 46.4775 117.534 45.4775C117.581 44.4775 117.62 43.4697 117.652 42.4541C117.448 42.3916 117.277 42.29 117.136 42.1494C117.011 41.9932 116.948 41.7979 116.948 41.5635C116.948 41.3291 117.034 41.1104 117.206 40.9072C117.394 40.6885 117.62 40.5947 117.886 40.626C118.464 40.6885 119.042 40.7588 119.62 40.8369C120.214 40.8994 120.8 40.9854 121.378 41.0947C121.972 41.2041 122.55 41.3447 123.113 41.5166C123.691 41.6885 124.238 41.9072 124.753 42.1729C125.113 42.3447 125.448 42.5713 125.761 42.8525C126.089 43.1182 126.355 43.4229 126.558 43.7666C126.777 44.0947 126.909 44.4541 126.956 44.8447C127.019 45.2354 126.964 45.6416 126.792 46.0635C126.48 46.8291 126.05 47.4775 125.503 48.0088C124.972 48.5244 124.331 48.9385 123.581 49.251C123.425 49.3291 123.269 49.3916 123.113 49.4385C122.956 49.4854 122.8 49.54 122.644 49.6025C122.878 49.7275 123.12 49.8916 123.37 50.0947C123.917 50.5479 124.394 51.0635 124.8 51.6416C125.206 52.2041 125.566 52.8057 125.878 53.4463C126.05 53.8057 126.222 54.1729 126.394 54.5479C126.581 54.9229 126.683 55.3135 126.698 55.7197C126.714 56.2197 126.558 56.6494 126.23 57.0088C125.917 57.3525 125.55 57.6182 125.128 57.8057C124.003 58.29 122.855 58.5713 121.683 58.6494C120.527 58.7432 119.347 58.7354 118.144 58.626C117.941 58.7354 117.722 58.7744 117.488 58.7432C117.253 58.7275 117.073 58.6182 116.948 58.415C116.808 58.3369 116.691 58.2354 116.597 58.1104C116.503 57.9697 116.456 57.8057 116.456 57.6182C116.456 57.5088 116.472 57.4072 116.503 57.3135C116.55 57.2041 116.605 57.1104 116.667 57.0322C116.652 56.5479 116.683 56.0713 116.761 55.6025C116.839 55.1182 116.917 54.6338 116.995 54.1494C117.105 53.5244 117.167 52.8994 117.183 52.2744C117.214 51.6338 117.245 51.001 117.277 50.376L117.253 50.3525ZM119.503 42.6885C119.472 43.626 119.433 44.5713 119.386 45.5244C119.355 46.4619 119.316 47.3994 119.269 48.3369C119.863 48.2744 120.456 48.1885 121.05 48.0791C121.659 47.9541 122.238 47.7822 122.784 47.5635C123.003 47.4854 123.245 47.3682 123.511 47.2119C123.792 47.0557 124.003 46.915 124.144 46.79C124.363 46.5713 124.527 46.3838 124.636 46.2275C124.761 46.0713 124.894 45.8369 125.034 45.5244C125.003 45.5713 124.995 45.5557 125.011 45.4775C125.042 45.3994 125.066 45.3291 125.081 45.2666C125.081 45.251 125.081 45.2197 125.081 45.1729C125.097 45.1104 125.105 45.0557 125.105 45.0088C125.058 44.8525 125.019 44.751 124.988 44.7041C124.972 44.6572 124.948 44.6182 124.917 44.5869C124.917 44.5713 124.886 44.5322 124.823 44.4697C124.777 44.4072 124.738 44.3682 124.706 44.3525C124.628 44.2744 124.542 44.2041 124.448 44.1416C124.323 44.0635 124.183 43.9854 124.027 43.9072C123.886 43.8135 123.753 43.7432 123.628 43.6963C122.972 43.4307 122.292 43.2197 121.589 43.0635C120.902 42.9072 120.206 42.7822 119.503 42.6885ZM118.894 54.126C118.816 54.5635 118.73 55.0088 118.636 55.4619C118.558 55.8994 118.519 56.3447 118.519 56.7979C119.472 56.876 120.417 56.8916 121.355 56.8447C122.308 56.7822 123.238 56.5713 124.144 56.2119C124.331 56.1494 124.519 56.0557 124.706 55.9307C124.784 55.7744 124.808 55.665 124.777 55.6025C124.698 55.3525 124.605 55.1182 124.495 54.8994C124.402 54.665 124.284 54.415 124.144 54.1494C124.019 53.8838 123.886 53.6338 123.745 53.3994C123.605 53.1494 123.448 52.9072 123.277 52.6729L123.042 52.3916L122.761 52.04C122.652 51.9307 122.527 51.8213 122.386 51.7119C122.261 51.5869 122.159 51.501 122.081 51.4541C121.628 51.126 121.159 50.876 120.675 50.7041C120.191 50.5322 119.683 50.4229 119.152 50.376C119.12 51.001 119.089 51.626 119.058 52.251C119.042 52.876 118.988 53.501 118.894 54.126ZM132.614 57.9932C132.083 57.7588 131.661 57.4385 131.348 57.0322C131.052 56.6104 130.841 56.1494 130.716 55.6494C130.606 55.1494 130.575 54.6338 130.622 54.1025C130.669 53.5557 130.778 53.0322 130.95 52.5322C131.091 52.1416 131.247 51.7354 131.419 51.3135C131.606 50.8916 131.825 50.501 132.075 50.1416C132.325 49.7822 132.622 49.4775 132.966 49.2275C133.309 48.9619 133.716 48.79 134.184 48.7119C134.669 48.6338 135.153 48.6104 135.637 48.6416C136.137 48.6572 136.63 48.7041 137.114 48.7822C137.333 48.8135 137.544 48.8682 137.747 48.9463C137.95 49.0088 138.153 49.0791 138.356 49.1572C138.372 48.9229 138.473 48.7275 138.661 48.5713C138.864 48.415 139.075 48.3369 139.294 48.3369C139.559 48.3369 139.77 48.4307 139.927 48.6182C140.098 48.79 140.2 49.001 140.231 49.251C140.309 49.9697 140.341 50.6885 140.325 51.4072C140.325 52.126 140.302 52.8447 140.255 53.5635C140.223 54.2822 140.192 55.001 140.161 55.7197C140.145 56.4385 140.153 57.1572 140.184 57.876C140.2 58.1729 140.106 58.3994 139.903 58.5557C139.716 58.6963 139.505 58.7666 139.27 58.7666C139.036 58.7666 138.817 58.6963 138.614 58.5557C138.427 58.3994 138.325 58.1729 138.309 57.876C137.419 58.251 136.473 58.4697 135.473 58.5322C134.473 58.5791 133.52 58.3994 132.614 57.9932ZM132.778 52.9072C132.684 53.1885 132.598 53.5088 132.52 53.8682C132.442 54.2275 132.419 54.5713 132.45 54.8994C132.481 55.2275 132.583 55.5322 132.755 55.8135C132.927 56.0791 133.208 56.2666 133.598 56.376C134.395 56.626 135.192 56.6963 135.989 56.5869C136.802 56.4775 137.559 56.1963 138.262 55.7432C138.325 54.9775 138.372 54.2354 138.403 53.5166C138.45 52.7979 138.466 52.0713 138.45 51.3369C138.184 51.165 137.911 51.0166 137.63 50.8916C137.364 50.751 137.067 50.6572 136.739 50.6104C136.411 50.5635 136.059 50.5322 135.684 50.5166C135.325 50.4854 134.973 50.4854 134.63 50.5166C134.598 50.5166 134.512 50.54 134.372 50.5869C134.247 50.6182 134.177 50.6416 134.161 50.6572C134.005 50.7354 133.864 50.8604 133.739 51.0322C133.536 51.3135 133.356 51.6182 133.2 51.9463C133.044 52.2588 132.903 52.5791 132.778 52.9072ZM144.998 41.1416C144.983 40.8447 145.069 40.6182 145.256 40.4619C145.444 40.3057 145.655 40.2275 145.889 40.2275C146.123 40.2275 146.342 40.3057 146.545 40.4619C146.748 40.6182 146.858 40.8447 146.873 41.1416C146.936 42.4072 147.038 43.665 147.178 44.915C147.319 46.165 147.373 47.4229 147.342 48.6885C148.17 48.4385 149.014 48.2666 149.873 48.1729C150.748 48.0635 151.6 48.1182 152.428 48.3369C152.928 48.4619 153.405 48.665 153.858 48.9463C154.327 49.2275 154.678 49.6182 154.913 50.1182C155.116 50.5713 155.248 51.0322 155.311 51.501C155.389 51.9697 155.413 52.4541 155.381 52.9541C155.334 53.5322 155.217 54.0713 155.03 54.5713C154.858 55.0713 154.592 55.5479 154.233 56.001C153.905 56.4229 153.53 56.8291 153.108 57.2197C152.702 57.5947 152.248 57.8994 151.748 58.1338C151.452 58.2588 151.155 58.3291 150.858 58.3447C150.577 58.3447 150.295 58.3057 150.014 58.2275C149.733 58.1338 149.459 58.0244 149.194 57.8994C148.928 57.7588 148.67 57.6104 148.42 57.4541C148.17 57.2979 147.928 57.1494 147.694 57.0088C147.459 56.8525 147.233 56.6729 147.014 56.4697L146.873 56.9385C146.873 57.251 146.772 57.4854 146.569 57.6416C146.381 57.7822 146.17 57.8525 145.936 57.8525C145.702 57.8525 145.483 57.7822 145.28 57.6416C145.092 57.4854 144.998 57.251 144.998 56.9385C144.983 55.9072 145.022 54.8916 145.116 53.8916C145.209 52.8916 145.295 51.8838 145.373 50.8682C145.186 50.5869 145.108 50.3291 145.139 50.0947C145.17 49.8604 145.272 49.6729 145.444 49.5322C145.459 49.3916 145.467 49.251 145.467 49.1104C145.467 48.9697 145.467 48.8291 145.467 48.6885C145.498 47.4229 145.444 46.165 145.303 44.915C145.163 43.665 145.061 42.4072 144.998 41.1416ZM147.225 50.751C147.194 51.2979 147.155 51.8369 147.108 52.3682C147.061 52.8994 147.014 53.4385 146.967 53.9854C147.327 54.251 147.663 54.54 147.975 54.8525C148.288 55.1494 148.639 55.4072 149.03 55.626C149.123 55.6885 149.248 55.7822 149.405 55.9072C149.577 56.0166 149.748 56.126 149.92 56.2354C150.108 56.3447 150.288 56.4307 150.459 56.4932C150.647 56.54 150.803 56.5244 150.928 56.4463C151.256 56.2744 151.569 56.0713 151.866 55.8369C152.163 55.5869 152.428 55.3135 152.663 55.0166C152.913 54.7041 153.108 54.376 153.248 54.0322C153.405 53.6885 153.491 53.3291 153.506 52.9541C153.538 52.626 153.538 52.2822 153.506 51.9229C153.491 51.5635 153.405 51.2354 153.248 50.9385C153.077 50.6416 152.827 50.4307 152.498 50.3057C152.186 50.1807 151.858 50.0947 151.514 50.0479C150.795 49.9385 150.069 49.9619 149.334 50.1182C148.616 50.2588 147.913 50.4697 147.225 50.751ZM168.328 48.0791C168.547 48.2041 168.695 48.3916 168.773 48.6416C168.852 48.8916 168.812 49.126 168.656 49.3447C168.266 49.9072 167.969 50.5244 167.766 51.1963C167.578 51.8682 167.359 52.5244 167.109 53.165C166.844 53.8525 166.547 54.5166 166.219 55.1572C165.906 55.7979 165.57 56.4463 165.211 57.1025C165.18 57.1807 165.141 57.251 165.094 57.3135C165.062 57.3604 165.031 57.4229 165 57.501C165.062 57.751 165.023 57.9775 164.883 58.1807C164.758 58.3682 164.586 58.501 164.367 58.5791C163.727 59.6729 163.078 60.751 162.422 61.8135C161.781 62.8916 161.141 63.9775 160.5 65.0713C160.344 65.3369 160.141 65.4854 159.891 65.5166C159.656 65.5479 159.438 65.501 159.234 65.376C159.031 65.2666 158.883 65.0947 158.789 64.8604C158.695 64.6416 158.727 64.3994 158.883 64.1338C159.539 63.0088 160.203 61.8916 160.875 60.7822C161.547 59.6885 162.211 58.5791 162.867 57.4541C162.164 56.1885 161.492 54.915 160.852 53.6338C160.211 52.3369 159.555 51.0479 158.883 49.7666C158.742 49.501 158.719 49.2588 158.812 49.04C158.922 48.8057 159.07 48.6338 159.258 48.5244C159.461 48.3994 159.68 48.3525 159.914 48.3838C160.164 48.415 160.359 48.5635 160.5 48.8291C161.078 49.9541 161.648 51.0791 162.211 52.2041C162.773 53.3135 163.352 54.4229 163.945 55.5322C164.523 54.4697 165.039 53.3525 165.492 52.1807C165.727 51.54 165.945 50.8916 166.148 50.2354C166.367 49.5635 166.672 48.9541 167.062 48.4072C167.203 48.1885 167.391 48.0479 167.625 47.9854C167.859 47.9072 168.094 47.9385 168.328 48.0791ZM186.769 60.5479C186.3 60.6729 185.87 60.6885 185.48 60.5947C185.089 60.5166 184.738 60.3525 184.425 60.1025C184.128 59.8682 183.87 59.5713 183.652 59.2119C183.433 58.8682 183.253 58.4932 183.113 58.0869C182.847 57.29 182.659 56.4775 182.55 55.6494C182.456 54.8213 182.386 53.9932 182.339 53.165C182.292 52.4775 182.245 51.7979 182.198 51.126C182.152 50.4385 182.12 49.751 182.105 49.0635C182.089 48.2197 182.113 47.3057 182.175 46.3213C182.253 45.3213 182.433 44.3682 182.714 43.4619C183.011 42.54 183.441 41.7275 184.003 41.0244C184.581 40.3213 185.363 39.8369 186.347 39.5713C186.644 39.4932 186.886 39.5322 187.073 39.6885C187.277 39.8291 187.409 40.0166 187.472 40.251C187.534 40.4697 187.519 40.6963 187.425 40.9307C187.331 41.1494 187.144 41.2979 186.863 41.376C186.409 41.501 186.027 41.6963 185.714 41.9619C185.417 42.2119 185.159 42.5557 184.941 42.9932C184.55 43.7432 184.292 44.5635 184.167 45.4541C184.058 46.3447 183.995 47.2275 183.98 48.1025C183.964 48.8213 183.98 49.5322 184.027 50.2354C184.073 50.9385 184.12 51.6494 184.167 52.3682C184.198 53.1963 184.245 53.9775 184.308 54.7119C184.37 55.4463 184.511 56.2041 184.73 56.9854C184.761 57.0947 184.792 57.1963 184.823 57.29C184.855 57.3838 184.886 57.4854 184.917 57.5947C184.964 57.7354 184.988 57.8135 184.988 57.8291C185.003 57.8291 185.011 57.8369 185.011 57.8525C185.058 57.9619 185.097 58.0479 185.128 58.1104C185.175 58.1729 185.222 58.2354 185.269 58.2979C185.363 58.4385 185.409 58.5088 185.409 58.5088L185.62 58.7197C185.761 58.7666 185.839 58.79 185.855 58.79C185.87 58.8057 185.886 58.8135 185.902 58.8135C186.073 58.7979 186.167 58.7822 186.183 58.7666C186.198 58.7666 186.222 58.7666 186.253 58.7666C186.55 58.6885 186.792 58.7197 186.98 58.8604C187.183 59.0166 187.316 59.2041 187.378 59.4229C187.441 59.6416 187.425 59.8604 187.331 60.0791C187.238 60.3135 187.05 60.4697 186.769 60.5479ZM198.684 49.8369C199.059 50.0244 199.45 50.251 199.856 50.5166C200.278 50.7666 200.661 51.0557 201.005 51.3838C201.364 51.7119 201.661 52.0713 201.895 52.4619C202.145 52.8525 202.286 53.2822 202.317 53.751C202.348 54.2354 202.231 54.6807 201.966 55.0869C201.716 55.4775 201.403 55.8057 201.028 56.0713C200.903 56.165 200.77 56.251 200.63 56.3291C200.505 56.3916 200.372 56.4619 200.231 56.54C200.153 56.5713 200.067 56.6104 199.973 56.6572C199.895 56.6885 199.809 56.7197 199.716 56.751C199.466 56.8604 199.239 56.9619 199.036 57.0557C198.833 57.1494 198.63 57.2354 198.427 57.3135C197.989 57.4854 197.52 57.6572 197.02 57.8291C196.52 58.001 196.013 58.126 195.497 58.2041C194.997 58.2822 194.497 58.29 193.997 58.2275C193.513 58.1494 193.059 57.9463 192.638 57.6182C192.434 57.4619 192.341 57.251 192.356 56.9854C192.372 56.7041 192.466 56.4775 192.638 56.3057C192.841 56.1025 193.059 56.0088 193.294 56.0244C193.544 56.04 193.77 56.1338 193.973 56.3057L194.325 56.3994C194.309 56.3838 194.348 56.3838 194.442 56.3994C194.536 56.3994 194.591 56.3994 194.606 56.3994C194.763 56.3994 194.872 56.3916 194.934 56.376C195.153 56.3604 195.395 56.3213 195.661 56.2588C195.942 56.1963 196.2 56.126 196.434 56.0479C196.966 55.876 197.458 55.7041 197.911 55.5322C198.38 55.3447 198.841 55.1416 199.294 54.9229C199.419 54.8604 199.552 54.79 199.692 54.7119C199.848 54.6182 199.973 54.5322 200.067 54.4541C200.13 54.4072 200.216 54.3291 200.325 54.2197L200.442 54.0088C200.458 53.8682 200.458 53.79 200.442 53.7744L200.348 53.5166C200.302 53.4229 200.255 53.3447 200.208 53.2822C200.161 53.2197 200.138 53.1963 200.138 53.2119C200.059 53.1338 199.981 53.0557 199.903 52.9775C199.841 52.8994 199.77 52.8213 199.692 52.7432C199.348 52.4307 198.966 52.1494 198.544 51.8994C197.731 51.415 196.934 51.0244 196.153 50.7275C195.716 50.5713 195.27 50.4619 194.817 50.3994C194.364 50.3369 193.911 50.2588 193.458 50.165C192.973 50.0869 192.489 49.9619 192.005 49.79C191.536 49.6182 191.138 49.3447 190.809 48.9697C190.653 48.7979 190.52 48.6025 190.411 48.3838C190.302 48.1494 190.263 47.9072 190.294 47.6572C190.325 47.4541 190.348 47.2588 190.364 47.0713C190.395 46.8682 190.427 46.6572 190.458 46.4385C190.536 46.0635 190.606 45.6729 190.669 45.2666C190.731 44.8604 190.872 44.4932 191.091 44.165C191.356 43.7432 191.684 43.3994 192.075 43.1338C192.481 42.8525 192.911 42.626 193.364 42.4541C194.255 42.1572 195.169 42.001 196.106 41.9854C197.059 41.9697 197.997 41.9854 198.919 42.0322C199.216 42.0479 199.442 42.1572 199.598 42.3604C199.755 42.5635 199.833 42.7822 199.833 43.0166C199.833 43.251 199.755 43.4619 199.598 43.6494C199.442 43.8369 199.216 43.9229 198.919 43.9072C198.372 43.876 197.817 43.8525 197.255 43.8369C196.708 43.8213 196.161 43.8447 195.614 43.9072C195.161 43.9385 194.677 44.0244 194.161 44.165C193.661 44.29 193.27 44.4932 192.989 44.7744C192.833 44.915 192.723 45.0479 192.661 45.1729C192.598 45.2822 192.544 45.4541 192.497 45.6885C192.434 45.9229 192.38 46.165 192.333 46.415C192.302 46.6494 192.27 46.8916 192.239 47.1416C192.223 47.2197 192.208 47.29 192.192 47.3525C192.192 47.3994 192.184 47.4619 192.169 47.54C192.2 47.6494 192.239 47.7354 192.286 47.7979C192.333 47.8447 192.341 47.8604 192.309 47.8447C192.372 47.876 192.427 47.9072 192.473 47.9385C192.52 47.9697 192.575 48.001 192.638 48.0322C192.716 48.0635 192.809 48.0947 192.919 48.126C193.028 48.1572 193.138 48.1885 193.247 48.2197C193.716 48.3447 194.192 48.4385 194.677 48.501C195.161 48.5479 195.638 48.6338 196.106 48.7588C196.559 48.8838 196.997 49.04 197.419 49.2275C197.856 49.415 198.278 49.6182 198.684 49.8369ZM216.342 50.1885C216.623 50.2666 216.811 50.415 216.905 50.6338C216.998 50.8525 217.014 51.0791 216.952 51.3135C216.889 51.5322 216.756 51.7197 216.553 51.876C216.366 52.0166 216.123 52.0479 215.827 51.9697C215.748 51.9541 215.663 51.9385 215.569 51.9229C215.491 51.9072 215.413 51.8916 215.334 51.876C215.319 52.2354 215.303 52.5947 215.288 52.9541C215.288 53.2979 215.272 53.6494 215.241 54.0088C215.209 54.5869 215.186 55.165 215.17 55.7432C215.17 56.3213 215.217 56.8916 215.311 57.4541C215.358 57.7197 215.327 57.9619 215.217 58.1807C215.108 58.3838 214.92 58.5244 214.655 58.6025C214.436 58.6807 214.202 58.6572 213.952 58.5322C213.702 58.4072 213.553 58.2119 213.506 57.9463C213.397 57.3213 213.334 56.6963 213.319 56.0713C213.319 55.4463 213.334 54.8213 213.366 54.1963C213.397 53.7588 213.42 53.3291 213.436 52.9072C213.452 52.4697 213.467 52.0322 213.483 51.5947C212.405 51.501 211.319 51.4697 210.225 51.501C209.147 51.5322 208.069 51.5322 206.991 51.501C206.756 51.501 206.538 51.415 206.334 51.2432C206.131 51.0557 206.038 50.8291 206.053 50.5635C206.147 49.251 206.209 47.9463 206.241 46.6494C206.272 45.3525 206.334 44.04 206.428 42.7119C206.444 42.4619 206.538 42.2432 206.709 42.0557C206.881 41.8682 207.1 41.7744 207.366 41.7744C207.6 41.7744 207.819 41.8682 208.022 42.0557C208.225 42.2432 208.319 42.4619 208.303 42.7119C208.209 43.8838 208.147 45.0479 208.116 46.2041C208.1 47.3447 208.053 48.4932 207.975 49.6494C208.913 49.6494 209.834 49.6494 210.741 49.6494C211.663 49.6338 212.592 49.665 213.53 49.7432C213.514 48.4932 213.436 47.2588 213.295 46.04C213.17 44.8213 213.1 43.5869 213.084 42.3369C213.084 42.04 213.178 41.8213 213.366 41.6807C213.569 41.5244 213.788 41.4463 214.022 41.4463C214.256 41.4463 214.467 41.5244 214.655 41.6807C214.858 41.8213 214.959 42.04 214.959 42.3369C214.959 42.9775 214.983 43.6182 215.03 44.2588C215.077 44.8838 215.123 45.5166 215.17 46.1572C215.233 46.7979 215.28 47.4385 215.311 48.0791C215.358 48.7041 215.381 49.3369 215.381 49.9775C215.678 50.0244 215.998 50.0947 216.342 50.1885ZM229.688 50.751C229.984 50.7666 230.211 50.876 230.367 51.0791C230.523 51.2666 230.602 51.4775 230.602 51.7119C230.602 51.9463 230.523 52.1572 230.367 52.3447C230.211 52.5322 229.984 52.626 229.688 52.626C229.016 52.6104 228.336 52.5791 227.648 52.5322C226.977 52.4854 226.297 52.4541 225.609 52.4385C224.938 52.4072 224.258 52.4072 223.57 52.4385C222.898 52.4697 222.227 52.54 221.555 52.6494C221.289 52.6963 221.047 52.6729 220.828 52.5791C220.625 52.4697 220.484 52.2822 220.406 52.0166C220.328 51.7822 220.352 51.54 220.477 51.29C220.602 51.04 220.797 50.8994 221.062 50.8682C221.781 50.7432 222.5 50.665 223.219 50.6338C223.938 50.5869 224.656 50.5713 225.375 50.5869C226.094 50.6025 226.812 50.6338 227.531 50.6807C228.25 50.7119 228.969 50.7354 229.688 50.751ZM240.994 59.3291C240.556 59.4385 240.095 59.4932 239.611 59.4932C239.142 59.5088 238.673 59.4697 238.205 59.376C237.752 59.2822 237.314 59.126 236.892 58.9072C236.47 58.6885 236.111 58.3994 235.814 58.04C235.455 57.6182 235.189 57.1729 235.017 56.7041C234.861 56.2197 234.783 55.7354 234.783 55.251C234.783 54.751 234.845 54.251 234.97 53.751C235.111 53.2354 235.291 52.7432 235.509 52.2744C235.822 51.6025 236.181 50.9619 236.587 50.3525C236.994 49.7432 237.423 49.1416 237.877 48.5479C237.564 48.3291 237.259 48.1104 236.962 47.8916C236.666 47.6729 236.377 47.4307 236.095 47.165C235.767 46.8525 235.455 46.501 235.158 46.1104C234.861 45.7041 234.697 45.251 234.666 44.751C234.65 44.3135 234.752 43.9463 234.97 43.6494C235.189 43.3525 235.462 43.1025 235.791 42.8994C236.134 42.6963 236.502 42.54 236.892 42.4307C237.298 42.3057 237.673 42.2119 238.017 42.1494C238.689 42.0244 239.353 41.9385 240.009 41.8916C240.681 41.8447 241.353 41.8057 242.025 41.7744C242.072 41.6025 242.111 41.4307 242.142 41.2588C242.189 41.0869 242.236 40.915 242.283 40.7432C242.361 40.4619 242.509 40.2744 242.728 40.1807C242.962 40.0869 243.189 40.0713 243.408 40.1338C243.642 40.1963 243.83 40.3291 243.97 40.5322C244.127 40.7197 244.166 40.9541 244.087 41.2354L243.947 41.7979C244.134 41.8916 244.259 42.04 244.322 42.2432C244.4 42.4307 244.416 42.626 244.369 42.8291C244.337 43.0166 244.244 43.1885 244.087 43.3447C243.947 43.501 243.752 43.5791 243.502 43.5791C243.361 43.9541 243.212 44.29 243.056 44.5869C242.759 45.2744 242.384 45.915 241.931 46.5088C241.494 47.0869 241.033 47.665 240.548 48.2432C240.642 48.29 240.728 48.3525 240.806 48.4307C241.275 48.8369 241.681 49.2979 242.025 49.8135C242.384 50.3135 242.712 50.8369 243.009 51.3838C243.322 51.9463 243.587 52.54 243.806 53.165C244.041 53.79 244.173 54.4307 244.205 55.0869C244.252 56.1182 243.978 57.0244 243.384 57.8057C242.806 58.5713 242.009 59.0791 240.994 59.3291ZM236.822 45.2197C236.994 45.4229 237.166 45.6104 237.337 45.7822C237.525 45.9385 237.728 46.1025 237.947 46.2744C238.322 46.5713 238.689 46.8447 239.048 47.0947C239.095 47.0479 239.142 47.001 239.189 46.9541C239.236 46.9072 239.275 46.8525 239.306 46.79C239.65 46.3838 239.986 45.9697 240.314 45.5479C240.658 45.126 240.955 44.6729 241.205 44.1885C241.236 44.1104 241.275 44.0244 241.322 43.9307C241.369 43.8369 241.408 43.751 241.439 43.6729C240.814 43.6885 240.197 43.7354 239.587 43.8135C239.212 43.8447 238.822 43.8994 238.416 43.9775C238.009 44.0557 237.611 44.165 237.22 44.3057C237.08 44.3682 236.986 44.4072 236.939 44.4229C236.908 44.4229 236.877 44.4385 236.845 44.4697C236.72 44.5479 236.65 44.5869 236.634 44.5869L236.564 44.8213C236.595 44.8994 236.634 44.9775 236.681 45.0557C236.728 45.1182 236.775 45.1729 236.822 45.2197ZM237.431 57.0322C238.072 57.4541 238.775 57.6572 239.541 57.6416C239.9 57.6416 240.252 57.6025 240.595 57.5244C240.939 57.4307 241.267 57.2744 241.58 57.0557C241.658 56.9775 241.744 56.8916 241.837 56.7979C241.947 56.6885 242.033 56.5635 242.095 56.4229C242.205 56.1729 242.267 55.9932 242.283 55.8838C242.33 55.6807 242.353 55.4619 242.353 55.2275C242.322 54.6338 242.189 54.0557 241.955 53.4932C241.72 52.9307 241.455 52.3994 241.158 51.8994C241.017 51.6494 240.869 51.3916 240.712 51.126C240.556 50.8604 240.369 50.6182 240.15 50.3994C240.025 50.2744 239.9 50.1494 239.775 50.0244C239.65 49.8994 239.517 49.7822 239.377 49.6729C239.345 49.7197 239.306 49.7666 239.259 49.8135C239.212 49.8604 239.173 49.9072 239.142 49.9541C238.861 50.3291 238.564 50.7354 238.252 51.1729C237.955 51.5947 237.681 52.0322 237.431 52.4854C237.181 52.9385 236.978 53.4072 236.822 53.8916C236.666 54.3604 236.595 54.8291 236.611 55.2979C236.627 55.626 236.705 55.9541 236.845 56.2822C237.002 56.6104 237.197 56.8604 237.431 57.0322ZM251.128 59.0713C250.613 58.915 250.206 58.665 249.909 58.3213C249.628 57.9775 249.425 57.5869 249.3 57.1494C249.175 56.7119 249.105 56.251 249.089 55.7666C249.089 55.2822 249.12 54.8213 249.183 54.3838C249.214 54.1182 249.253 53.8525 249.3 53.5869C249.363 53.3057 249.409 53.0322 249.441 52.7666C249.284 52.7041 249.152 52.6025 249.042 52.4619C248.948 52.3057 248.886 52.1494 248.855 51.9932C248.839 51.8213 248.863 51.6572 248.925 51.501C249.003 51.3447 249.136 51.2119 249.323 51.1025C249.37 51.0713 249.417 51.04 249.464 51.0088C249.527 50.9775 249.589 50.9463 249.652 50.915C249.714 50.4619 249.777 50.0088 249.839 49.5557C249.902 49.0869 249.988 48.626 250.097 48.1729C250.363 46.8916 250.769 45.6885 251.316 44.5635C251.878 43.4385 252.581 42.3682 253.425 41.3525C253.581 41.165 253.792 41.0791 254.058 41.0947C254.339 41.0947 254.566 41.1807 254.738 41.3525C254.925 41.5557 255.011 41.7822 254.995 42.0322C254.995 42.2666 254.909 42.4854 254.738 42.6885C254.05 43.501 253.48 44.376 253.027 45.3135C252.573 46.2354 252.222 47.2119 251.972 48.2432C251.894 48.5713 251.831 48.8994 251.784 49.2275C251.738 49.54 251.691 49.8604 251.644 50.1885C252.534 49.9385 253.464 49.8135 254.433 49.8135C255.245 49.8135 256.011 49.9463 256.73 50.2119C257.464 50.4619 258.097 50.915 258.628 51.5713C258.863 51.8682 259.05 52.1885 259.191 52.5322C259.347 52.876 259.441 53.2275 259.472 53.5869C259.503 53.9307 259.464 54.2822 259.355 54.6416C259.261 54.9854 259.089 55.3135 258.839 55.626C258.495 56.0322 258.089 56.3838 257.62 56.6807C257.152 56.9619 256.691 57.2275 256.238 57.4775C255.784 57.7119 255.331 57.9385 254.878 58.1572C254.425 58.3604 253.956 58.5479 253.472 58.7197C253.113 58.8447 252.722 58.9619 252.3 59.0713C251.878 59.1807 251.488 59.1807 251.128 59.0713ZM251.152 53.7041C251.073 54.1104 251.011 54.5166 250.964 54.9229C250.933 55.3135 250.941 55.7354 250.988 56.1885C251.003 56.2979 251.027 56.4307 251.058 56.5869C251.105 56.7432 251.159 56.876 251.222 56.9854C251.331 57.1104 251.394 57.1729 251.409 57.1729C251.628 57.2354 251.761 57.2588 251.808 57.2432C251.933 57.2275 252.034 57.2119 252.113 57.1963C252.206 57.1807 252.3 57.1572 252.394 57.126C252.597 57.0635 252.792 56.9932 252.98 56.915C253.183 56.8369 253.386 56.7588 253.589 56.6807C253.995 56.5088 254.409 56.3135 254.831 56.0947C255.269 55.876 255.683 55.6494 256.073 55.415C256.245 55.3057 256.409 55.2041 256.566 55.1104C256.738 55.001 256.902 54.8838 257.058 54.7588C257.042 54.7588 257.066 54.7354 257.128 54.6885C257.206 54.626 257.261 54.5791 257.292 54.5479C257.355 54.4854 257.402 54.4307 257.433 54.3838C257.48 54.3369 257.519 54.2744 257.55 54.1963C257.675 53.9619 257.667 53.6572 257.527 53.2822C257.448 53.126 257.339 52.9697 257.198 52.8135C257.073 52.6416 256.941 52.4932 256.8 52.3682C256.378 52.0088 255.902 51.7979 255.37 51.7354C254.855 51.6729 254.331 51.665 253.8 51.7119C252.956 51.7588 252.152 51.9229 251.386 52.2041C251.355 52.4697 251.316 52.7275 251.269 52.9775C251.238 53.2119 251.198 53.4541 251.152 53.7041ZM262.88 39.5713C263.348 39.4463 263.77 39.4307 264.145 39.5244C264.536 39.6025 264.88 39.7666 265.177 40.0166C265.489 40.251 265.755 40.5479 265.973 40.9072C266.208 41.2666 266.395 41.6416 266.536 42.0322C266.802 42.8291 266.981 43.6416 267.075 44.4697C267.169 45.2979 267.247 46.126 267.309 46.9541C267.341 47.6416 267.38 48.3291 267.427 49.0166C267.473 49.6885 267.505 50.3682 267.52 51.0557C267.536 51.8994 267.505 52.8213 267.427 53.8213C267.364 54.8057 267.192 55.7588 266.911 56.6807C266.63 57.5869 266.2 58.3916 265.622 59.0947C265.044 59.8135 264.263 60.2979 263.278 60.5479C262.997 60.626 262.755 60.5869 262.552 60.4307C262.348 60.29 262.216 60.1104 262.153 59.8916C262.091 59.6729 262.106 59.4463 262.2 59.2119C262.294 58.9932 262.489 58.8447 262.786 58.7666C263.239 58.6416 263.614 58.4463 263.911 58.1807C264.208 57.915 264.473 57.5635 264.708 57.126C265.098 56.376 265.348 55.5557 265.458 54.665C265.583 53.7744 265.653 52.8916 265.669 52.0166C265.684 51.2979 265.661 50.5869 265.598 49.8838C265.552 49.1807 265.513 48.4697 265.481 47.751C265.434 46.9229 265.38 46.1416 265.317 45.4072C265.27 44.6729 265.138 43.915 264.919 43.1338C264.888 43.04 264.856 42.9463 264.825 42.8525C264.794 42.7432 264.763 42.6416 264.731 42.5479C264.669 42.3916 264.63 42.3057 264.614 42.29C264.614 42.2588 264.606 42.2354 264.591 42.2197C264.544 42.0635 264.473 41.9307 264.38 41.8213L264.239 41.6104C264.114 41.4854 264.044 41.4229 264.028 41.4229C263.888 41.3604 263.802 41.3291 263.77 41.3291C263.755 41.3135 263.739 41.3057 263.723 41.3057C263.552 41.3213 263.434 41.3447 263.372 41.376C263.091 41.4541 262.848 41.4229 262.645 41.2822C262.458 41.126 262.333 40.9385 262.27 40.7197C262.208 40.4854 262.223 40.2588 262.317 40.04C262.411 39.8057 262.598 39.6494 262.88 39.5713Z" fill="#4A2F2C"/>
</svg>
