<svg width="1441" height="42" viewBox="0 0 1441 42" fill="none" xmlns="http://www.w3.org/2000/svg">
<path d="M0.999023 5.07778C15.5019 5.07778 68.6377 3.60477 113.361 2.61842C180.015 1.14841 228.349 1.35441 236.554 1.08854C244.962 0.816107 272.264 0.784695 310.763 0.750255C333.896 0.729562 352.24 1.97282 422.407 3.4026C481.932 4.61553 590.304 3.8933 648.486 3.76888C711.456 3.63423 737.702 3.13208 782.412 3.19303C805.796 3.2249 830.59 3.37586 876.617 3.67128C922.643 3.9667 989.15 4.43196 1036.23 4.00809C1139.42 3.07912 1153.75 0.27595 1189.54 2.74707C1223.3 4.1863 1242.47 5.60495 1280.88 6.12779C1314.36 6.30556 1376.24 6.30556 1440 6.30556" stroke="#4A2F2C" stroke-width="1.5" stroke-linecap="round"/>
<path d="M0 6.20498L114.36 4.18478V35.6999L0 37.7201V6.20498Z" fill="#BFD1F4"/>
<path d="M114.36 4.18478L169.882 3.3767L225.722 2.97266V34.8918L114.36 35.6999V4.18478Z" fill="#E9ACC8"/>
<path d="M225.722 2.97266H280.805H337.084V34.8918H225.722V2.97266Z" fill="#BFD1F4"/>
<path d="M337.084 2.97266L448.446 4.99286V36.9121L392.728 36.104L337.084 34.8918V2.97266Z" fill="#E9ACC8"/>
<path d="M448.446 4.99286H559.807V36.9121H448.446V4.99286Z" fill="#BFD1F4"/>
<path d="M559.807 4.99286H671.169V36.9121H559.807V4.99286Z" fill="#E9ACC8"/>
<path d="M671.169 4.99286H681.027L782.531 4.58882V36.508L671.169 36.9121V4.99286Z" fill="#BFD1F4"/>
<path d="M782.531 4.58882L893.893 4.99286V36.9121L782.531 36.508V4.58882Z" fill="#E9ACC8"/>
<path d="M893.893 4.99286L1005.25 5.3969V37.3161L893.893 36.9121V4.99286Z" fill="#BFD1F4"/>
<path d="M1005.25 5.3969L1116.83 4.18478V36.104L1005.25 37.3161V5.3969Z" fill="#E9ACC8"/>
<path d="M1116.83 4.18478L1161.69 3.3767L1228.19 5.3969V37.7201L1172.19 35.2959L1116.83 36.104V4.18478Z" fill="#BFD1F4"/>
<path d="M1228.19 5.3969L1265.62 6.60902L1339.56 7.01306V38.5282H1284.11L1228.19 37.7201V5.3969Z" fill="#E9ACC8"/>
<path d="M1339.56 7.01306H1395.03H1439V38.5282H1395.03H1339.56V7.01306Z" fill="#BFD1F4"/>
<path d="M0.999023 39.5221C15.5019 39.5221 68.6377 38.0491 113.361 37.0628C180.015 35.5927 228.349 35.7987 236.554 35.5329C244.962 35.2604 272.264 35.229 310.763 35.1946C333.896 35.1739 352.24 36.4172 422.407 37.8469C481.932 39.0599 590.304 38.3376 648.486 38.2132C711.456 38.0786 737.702 37.5764 782.412 37.6374C805.796 37.6692 830.59 37.8202 876.617 38.1156C922.643 38.411 989.151 38.8763 1036.23 38.4524C1139.43 37.5235 1153.75 34.7203 1189.54 37.1914C1223.3 38.6306 1242.47 40.0493 1280.88 40.5721C1314.36 40.7499 1376.24 40.7499 1440 40.7499" stroke="#4A2F2C" stroke-width="1.5" stroke-linecap="round"/>
</svg>
