<svg width="242" height="104" viewBox="0 0 242 104" fill="none" xmlns="http://www.w3.org/2000/svg">
<path d="M207.83 90.6554C196.699 94.5051 175.852 94.8431 175.852 94.8431C175.852 94.8431 89.6442 97.0217 75.8345 94.4243C66.9821 92.7593 42.4953 92.7492 22.0836 86.8864C1.67192 81.0236 5.75426 67.623 13.9189 59.6664C22.0836 51.7097 13.9189 44.1406 36.0955 31.0689C51.0647 22.2455 85.0423 15.8186 85.0423 15.8186C85.0423 15.8186 127.771 11.5078 137.069 9.83267C154.487 6.48251 158.336 7.5397 171.089 9.83267C185.736 12.4663 192.561 16.8407 203.067 23.6521C211.49 29.1131 213.441 33.2475 220.757 39.5654C235.229 52.0629 235.229 58.9949 235.229 58.9949C235.229 58.9949 234.74 69.6437 229.602 76.8359C224.686 83.7176 218.478 86.9726 207.83 90.6554Z" fill="#E8DCCD"/>
<path d="M26.2669 52.6537C25.5521 55.5993 23.3641 61.8276 19.435 65.3267C12.8068 73.3852 13.138 75.2377 24.2897 79.2057C29.8721 80.8247 35.6969 81.988 41.473 82.9311C43.9757 83.3323 43.7443 83.8315 44.4413 83.9981C46.3655 84.4474 47.6168 83.9556 49.0375 84.1637C55.9615 85.1752 62.5139 85.711 69.6775 86.551C77.2302 87.5359 73.4685 88.8389 76.1324 89.6249C76.3401 89.6911 76.5294 89.7516 76.703 89.8066C79.9261 90.8368 77.1237 88.3949 78.6656 88.1187C83.688 88.7717 89.4999 89.14 95.0204 89.5023C93.7025 89.6796 92.2448 89.8446 90.9073 89.9951C93.3162 90.1088 96.8381 90.5137 92.7181 90.993C93.6517 91.1724 94.4558 91.373 95.3842 91.5439C95.6652 90.7596 99.9802 90.7622 100.4 90.2938C100.8 89.8288 98.3534 89.9053 98.3776 89.8636C98.5426 89.2943 108.52 90.1789 109.276 90.2345C111.171 90.4133 109.503 91.3927 111.124 91.3326C113.924 91.2268 112.072 89.2272 115.85 91.883C117.357 91.0161 117.498 91.4647 119.401 91.5177C119.652 91.5242 119.455 91.0247 119.566 91.0112C122.455 90.6275 120.237 91.5675 120.252 91.6178C120.518 92.4734 123.624 92.0766 124.277 92.1538C132.486 93.121 138.536 93.7427 147.194 93.85C149.092 93.8727 154.762 93.4302 156.598 93.5413C158.394 93.6522 157.444 94.2865 158.372 94.5655C159.858 93.0535 161.258 92.864 164.662 93.7725C165.865 92.6651 165.8 93.5402 168.15 93.2735C170.105 93.0523 173.677 91.6731 175.798 92.7269C173.406 92.6845 173.534 93.2132 170.757 93.5972C169.837 93.7282 159.893 93.9538 160.704 95.0419C161.069 95.612 164.379 95.0164 164.478 95.1203C165.212 95.725 163.438 96.5233 161.783 96.2887C162.154 96.1564 162.679 96.0191 163.113 95.8853C159.443 95.183 162.054 98.1075 159.189 95.5621C158.828 95.2499 158.96 94.9149 158.404 94.5864C158.294 94.7286 158.971 95.0635 158.395 95.1365C157.809 95.2102 156.644 94.5717 156.478 95.1306C156.244 95.9436 158.736 95.5792 158.904 95.6231C158.905 95.6182 158.907 95.6133 158.909 95.6084C160.604 96.0058 157.133 96.1199 156.966 96.1991C155.893 96.7223 156.616 97.0974 155.013 97.542C154.138 97.7947 151.698 97.6965 150.88 97.7862C150.029 97.8786 151.362 98.2392 150.79 98.3307C150.217 98.4222 149.491 98.1433 148.804 98.2494C148.509 98.296 148.531 98.7222 148.388 98.7393C146.866 98.9271 147.857 98.0246 146.493 98.0994C145.619 98.1489 142.6 99.019 144.689 99.2355C143.675 99.336 142.748 99.4118 141.759 99.4923C142.381 99.6108 143.02 99.6882 143.62 99.829C141.786 99.6515 140.948 100.392 139.776 100.462C138.624 100.531 137.578 99.6675 136.299 100.11C133.582 101.05 140.308 100.552 141.174 100.7C141.503 100.76 140.251 101.463 140.055 101.485C139.192 101.582 138.187 101.103 137.522 101.133C135.138 101.244 133.718 101.907 131.447 102.059C123.76 102.58 114.213 102.983 106.884 103.084C104.201 103.123 102.497 102.378 101.312 102.386C98.3933 102.401 98.1344 103.031 95.5584 103.02C91.8332 103.008 86.5529 102.299 83.3849 102.002C81.17 101.806 79.0397 102.248 78.477 102.208C77.8243 102.163 77.1964 102.112 76.5925 102.051C75.9352 101.984 75.1474 101.884 74.4539 101.765C68.8407 100.989 60.5679 100.571 55.1526 100.039C52.1123 99.7669 50.7158 98.924 50.0943 98.881C47.372 98.6787 48.0342 99.3435 45.8368 99.0296C44.6441 98.8559 44.4924 98.2642 44.3362 98.2229C42.9565 97.8616 42.5806 98.557 41.4769 98.4324C35.1237 97.7016 29.0735 96.1398 22.8053 94.4394C22.3504 94.3147 22.4756 94.0085 22.1762 93.9461C20.8989 93.6823 21.3309 94.3287 20.0376 94.0098C20.0242 94.0064 20.0107 94.0029 19.997 93.9993C17.0054 93.2127 13.8815 91.9981 10.705 90.0797C10.4053 89.8943 10.4506 89.4404 9.73952 88.9825C9.04743 88.5248 8.23477 88.4674 7.13492 87.5415C4.26501 85.1156 1.84964 81.2599 0.908202 76.7359C0.751272 76.0055 0.0903831 75.1344 0.0304556 73.9784C-0.262439 70.2588 1.62279 65.7642 2.77348 63.6106C4.54458 60.0556 6.73121 57.2488 9.15588 54.7788C10.453 53.3582 10.8162 52.5251 11.616 49.8633C11.9631 48.6846 12.8005 47.4721 13.0768 46.6849C13.7332 44.8628 12.7954 46.1165 13.5429 44.1926C17.6772 34.3839 25.7181 29.3886 32.6387 25.2042C38.3435 21.9497 43.9317 19.9298 49.5426 17.9966C54.7338 16.2287 60.9494 13.9958 66.0335 12.8352C68.1522 12.3529 68.6858 12.8569 70.1562 12.5047C72.8053 11.8767 73.1164 10.9952 75.9071 10.2868C78.1455 9.72459 80.8247 9.95553 83.2343 9.43217C83.3276 9.4118 83.4125 9.39183 83.5323 9.36403C83.5844 9.35165 83.6287 9.34053 83.6655 9.33059C83.6713 9.32657 83.8187 9.29524 83.8082 9.29389L84.3758 9.21173C86.2475 8.87552 87.3546 8.11172 89.7698 7.77837C91.9443 7.47901 95.0547 7.50288 97.4394 7.19481C110.314 5.49002 123.66 3.948 135.676 2.10003L135.585 2.11699C144.288 0.38833 155.162 -1.09241 164.935 1.09763C167.466 1.57293 169.916 2.07134 172.397 2.55524C178.342 3.69555 184.736 5.52031 190.226 8.55963C190.96 8.97408 189.507 9.09561 191.986 10.0975C193.302 10.6453 195.407 10.9901 198.218 12.6018C201.2 14.3167 203.997 16.158 206.738 17.9896C214.407 22.7602 219.597 30.3717 224.757 34.9332C230.46 40.3234 236.12 45.5805 240.009 54.1792C240.242 54.7554 240.469 55.379 240.669 56.067C240.769 56.4116 240.865 56.7836 240.948 57.1834C240.992 57.3964 241.032 57.6141 241.067 57.8513C241.085 57.9728 241.104 58.1181 241.119 58.2572C241.137 58.4663 241.152 58.4717 241.162 58.9949L241.155 59.2672C240.665 66.7026 239.644 73.559 235.195 80.8315C229.396 90.4672 218.524 95.4684 210.445 98.2159C197.708 102.116 186.935 101.392 176.589 98.6773C175.37 98.3279 175.993 96.4682 176.685 95.9248C177.356 96.2814 177.964 96.7064 178.684 97.102C179.449 94.7568 179.313 95.3827 182.512 95.4113C184.482 95.4194 182.85 94.5316 183.878 94.1851C185.211 93.7651 191.377 92.05 190.322 93.6766C190.683 93.3736 191.016 93.0833 191.369 92.7841C195.866 92.0557 200.221 91.0304 204.292 89.5269C204.991 89.2617 204.895 88.7915 205.592 88.5065C206.042 88.318 206.501 88.1497 206.913 88.006C208.305 87.5208 209.639 87.2243 211.141 86.6077C212.221 86.158 212.17 85.5885 213.568 85.0364C214.945 84.4724 215.266 85.1682 216.707 83.5449C215.165 83.3165 220.52 81.2647 221.91 79.8793C222.156 79.6985 223.296 77.5847 224.13 76.7621C224.72 76.2113 225.634 75.5343 226.417 74.5606C226.764 74.136 227.073 73.6372 227.283 73.0744C227.585 72.2559 227.232 71.502 227.576 70.6535C227.816 70.0565 228.658 69.5338 228.969 68.7201C229.295 67.9116 229.348 65.9621 229.415 65.6221C229.682 64.3956 229.755 65.8397 229.975 65.0062C230.475 63.0762 230.921 60.7471 231.079 58.8041L231.075 58.9949C231.077 59.1569 231.079 59.1303 231.08 59.1651C231.082 59.1912 231.082 59.1958 231.083 59.2049C231.085 59.2213 231.086 59.2246 231.087 59.2241C231.087 59.2214 231.086 59.2046 231.083 59.1778C231.077 59.1288 231.065 59.0553 231.046 58.9698C231.012 58.8079 230.957 58.6021 230.891 58.3995C230.757 57.9813 230.572 57.5306 230.355 57.082C229.916 56.1724 229.357 55.2816 228.735 54.455C228.433 54.0535 228.407 54.8976 228.354 54.8476C226.012 52.4606 227.504 53.5568 227.324 52.5577C227.235 51.5326 222.423 46.6242 221.734 47.2399C222.33 46.3427 220.661 45.8488 220.346 45.6021C219.134 44.6414 219.947 44.1513 218.637 43.3651C218.15 43.0738 218.558 44.2522 218.122 43.8442C217.926 43.6617 217.751 43.4578 217.586 43.2372C216.756 42.1651 216.226 40.778 215.014 39.4971C214.653 39.1132 214.222 39.3117 213.577 38.6478C212.905 37.9703 210.696 34.8804 211.227 36.7768C210.193 34.6299 209.605 34.5667 207.865 32.8348C207.426 32.405 207.334 31.3309 206.2 30.6425C205.813 30.4105 205.388 30.9442 204.88 30.5332C203.726 29.6127 203.006 28.1894 201.385 27.0824C201.261 26.9983 201.135 26.9142 201.007 26.8303C197.841 24.7682 194.323 23.012 191.166 21.0482C190.268 20.4959 190.832 20.0112 189.477 19.2835C189.274 19.1728 187.371 18.8782 186.448 18.405C185.906 18.0926 183.047 16.4722 182.42 16.2371C181.401 15.8152 181.008 16.3913 180.482 16.0808C178.95 15.2043 180.554 14.665 178.172 15.3633C177.708 14.4567 176.494 14.2178 176.329 13.2369C175.376 14.0341 174.699 12.8807 173.23 12.9165C172.047 12.9498 170.843 14.0928 170.454 13.365C170.36 13.1994 170.31 12.9383 170.313 12.5474C169.601 12.6776 166.667 12.5842 166.193 12.5336C164.769 12.3726 165.63 11.9371 164.554 11.8306C164.368 11.813 164.493 12.2312 163.32 11.9992C162.519 11.7846 157.007 11.1262 156.695 11.1351C152.973 10.3836 158.748 10.8007 159.634 10.5526C159.768 10.6804 159.9 10.8089 160.041 10.9373C161.701 11.3343 160.865 10.3255 160.11 10.026C159.354 9.7234 157.879 9.99103 157.259 9.66513C156.948 9.50133 157.204 8.43543 158.191 8.63988C157.151 8.23138 158.634 7.99381 158.236 7.65311C157.804 7.21162 152.874 7.03275 152.875 7.67941C153.785 7.66827 154.912 7.64308 155.827 7.69459C156.905 8.76116 153.487 12.0858 150.304 10.9849C147.896 10.207 151.665 8.95973 146.203 10.4649C147.062 10.391 147.794 10.3989 148.574 10.3584C148.736 11.1124 147.394 10.4109 146.775 10.7402C146.481 10.8969 148.451 11.1987 146.826 11.5854C145.257 10.6844 144.294 11.9362 141.916 12.3526C142.55 12.0454 143.179 11.7441 143.824 11.4444C139.621 11.3136 149.075 9.52294 141.04 10.3801C141.984 10.1798 142.937 10.0309 143.909 9.8261C143.377 9.50056 143.951 8.21384 143.489 8.03237C142.268 7.55644 140.677 8.22658 139.32 8.41557C138.722 8.49991 139.033 8.11851 138.983 8.12569C138.148 8.24315 138.429 8.66764 137.725 8.83046C137.527 8.87635 137.238 8.91464 136.899 8.94957L136.91 8.94763C135.788 9.04623 134.15 9.01286 133.818 9.10117C132.712 9.3929 134.713 10.0409 134.597 10.1258C133.965 10.6731 132.505 10.4993 132.651 11.07C133.721 10.7896 135.567 10.5022 137.148 10.2691C140.445 9.74675 142.948 9.74114 137.376 11.4277L137.357 11.4312C137.306 11.4469 137.252 11.4628 137.197 11.4789C137.258 11.4913 137.317 11.5043 137.373 11.5178L137.393 11.5141C139.244 11.8968 139.353 12.7945 137.78 13.5262L137.736 13.5343C137.261 13.7501 136.561 13.9514 135.734 14.1001C132.738 14.6252 134.623 13.8225 132.993 13.4705C132.778 13.4333 128.796 13.6727 128.659 14.0952C128.701 13.1469 127.323 12.4834 128.06 11.4185C128.161 11.2635 129.78 11.1149 129.118 10.4161C128.77 10.0674 127.89 9.32227 127.952 8.81409C127.669 9.19737 127.371 9.62579 127.074 10.0253C124.693 10.4193 124.307 10.0885 122.906 9.60675C123.002 9.86602 124.351 10.8438 122.462 10.7211C122.365 10.7118 122.242 10.3186 121.277 10.2288C119.331 10.0494 118.933 9.96831 120.24 8.61913C116.402 9.74524 115.4 8.52227 111.422 9.35415C112.39 10.786 113.767 10.2552 117.419 9.54376C117.62 9.88715 117.736 10.2365 117.942 10.5831C112.943 10.3193 115.373 10.1286 112.677 11.1733C112.015 11.4298 108.364 11.6355 109.688 12.5266C110 12.7367 112.254 12.4601 112.037 12.8683C111.994 12.9467 109.273 13.4322 109.017 13.3604C105.853 12.4779 111.179 11.0496 102.874 12.391C102.643 12.4289 102.608 12.8806 102.163 12.9905C101.325 13.1963 101.28 12.682 100.522 12.8824C99.77 13.0824 98.8043 13.8827 97.5951 13.3649C95.406 12.4205 100.228 11.2376 102.478 11.6191C103.21 10.0132 87.5875 11.6182 86.6471 11.8366C82.452 12.8362 89.4975 11.7877 89.8824 12.1719C90.0732 12.3322 90.1785 14.6049 91.837 12.9515C92.3283 12.4615 90.0332 12.1208 91.3478 11.7425C92.6197 11.3686 92.176 12.0868 92.2745 12.1235C92.6231 12.2482 93.9884 11.8567 94.1798 11.932C97.1137 13.0717 97.0965 15.2607 93.0686 12.4514C91.5191 13.3426 95.3325 14.109 93.4017 14.8055C91.0341 15.6541 89.1272 14.8088 88.8358 14.7919C85.0937 14.6219 89.4694 15.6827 85.0268 15.6647L85.0136 15.6666C85.0132 15.6651 85.0058 15.6648 84.9912 15.6659C83.868 15.761 84.4156 15.4346 84.9147 15.1437L84.9734 15.1352C85.1725 15.0346 85.3426 14.941 85.4134 14.8703C85.4755 14.8005 85.2735 14.7704 84.9371 14.7752L84.8474 14.7882C84.4928 14.8282 83.8476 14.9453 82.8694 15.1619C78.1393 16.2308 80.8434 16.2096 80.729 17.4533C80.7284 17.7399 78.2195 18.6257 81.6863 17.762C81.724 17.4357 81.798 17.0005 81.9773 16.6696C82.885 16.712 84.6085 17.9564 85.0681 17.9237C85.2435 17.9052 85.3275 17.9009 85.434 17.8893L85.2539 17.9153C87.149 17.8577 87.0126 17.2049 88.385 17.9659C87.3603 17.0224 88.926 17.4938 89.5018 17.2131C91.5992 16.1805 88.6838 16.1796 93.6832 16.7095C92.9724 16.2918 92.3752 15.8714 91.711 15.4504C92.2942 15.3731 92.8488 15.2982 93.4551 15.2182C94.4032 16.2025 97.5118 15.7385 94.8125 17.1111C98.2185 17.0647 99.5578 16.6857 100.197 15.7756C100.318 15.602 100.826 15.4838 101.418 15.4053C101.282 15.1829 101.063 14.4741 101.146 14.3756C101.884 13.5077 103.341 14.7157 102.949 15.2783C103.375 15.2577 103.699 15.2522 103.817 15.2522C104.557 15.2537 103.173 15.8728 103.783 15.9689C103.977 16.0007 106.055 15.6746 106.108 15.8601C106.495 17.0446 102.975 16.5432 109.914 16.5013C109.956 15.38 106.803 15.9689 107.492 14.7073C108.229 13.3528 110.208 14.8463 110.427 13.2581C110.6 13.4962 110.688 13.701 110.844 13.9765C113.542 12.9976 113.721 14.2792 114.599 14.469C116.302 14.8436 123.867 13.8914 116.943 13.5537C117.93 13.3293 118.926 13.1634 119.909 12.9504C120.402 15.2286 119.69 14.3885 124.497 14.1765C125.535 14.1313 126.033 15.0995 126.9 13.7719C126.887 14.9734 129.928 13.8706 130.24 13.9736C132.231 14.6699 125.446 16.8399 124.323 14.8464C123.241 15.7994 123.134 14.7223 121.846 15.0174C119.993 15.4415 119.748 15.6821 117.436 15.1412C115.37 16.5132 126.082 14.6439 119.713 16.8825C115.746 18.2856 99.5286 20.7436 85.7234 22.5692L86.3034 22.4853C78.3942 24.2974 71.1522 26.2926 68.016 27.2034C55.6553 30.8827 47.8201 33.5958 40.1127 37.8841C38.3411 38.9382 36.5823 40.0523 34.8324 41.3139C34.3309 41.6674 32.2613 43.2597 30.7915 44.554C29.2824 45.8506 28.2654 46.8458 28.2005 45.8309C28.1056 45.5589 30.2544 42.4628 27.3527 44.1722C28.2132 44.0761 27.3651 45.7236 27.3568 45.8813C26.9997 47.6425 27.3371 48.0971 27.3243 48.6866C27.3261 49.3583 27.1497 49.6264 26.2669 52.6537ZM4.58416 67.0359C6.85311 61.9277 7.54618 61.6301 6.9078 61.6032C6.35923 61.6405 4.95528 62.5622 4.76228 61.0183C3.94552 62.29 3.20725 63.6487 2.58625 65.1291C2.86271 64.7844 3.13967 64.4651 3.42692 64.1473C3.42767 64.1457 3.42843 64.1441 3.42918 64.1425C3.75871 65.1443 4.14031 66.1204 4.58416 67.0359ZM146.309 100.463C145.952 100.727 145.598 100.991 145.206 101.25C143.956 101.188 142.76 101.126 141.527 101.062C141.672 100.885 141.811 100.705 141.954 100.528C143.392 100.516 144.855 100.503 146.309 100.463ZM103.735 11.1987C105.541 11.727 105.237 10.4706 107.595 10.8022C107.215 9.89184 106.8 9.00583 106.403 8.10652C104.682 8.43375 104.315 8.8352 102.408 8.80687C102.666 9.08521 102.919 9.36578 103.165 9.64707C103.471 9.54868 103.797 9.43897 104.097 9.34862C104.669 10.1432 101.677 10.5919 103.729 11.2013C103.731 11.2004 103.733 11.1996 103.735 11.1987ZM121.33 8.85592C122.251 8.87429 125.997 8.89206 126.426 8.44229C127.975 6.921 117.736 8.99543 125.211 6.91116C125.154 6.73031 125.167 6.54473 125.145 6.36148C123.745 6.46547 122.363 6.57279 120.965 6.68346C121.125 7.40499 121.159 8.13187 121.33 8.85592ZM21.916 37.0358C22.9927 35.7909 28.4516 30.7315 26.0464 31.5522C25.2748 31.8005 23.463 34.8718 22.5235 35.7686C21.8998 36.3433 22.0869 35.1975 21.0872 36.5877C21.3499 36.733 21.6157 36.9211 21.9177 37.0313C21.9171 37.0328 21.9166 37.0343 21.916 37.0358ZM22.946 41.7113C23.7656 40.4658 24.6856 39.264 25.6941 38.1433C24.3668 38.3266 23.2104 40.3166 22.3443 39.729C22.5568 39.3556 22.786 38.9781 23.0307 38.5973C23.4196 38.5189 23.8083 38.4483 24.2 38.3812C24.7541 37.0376 23.9532 37.3537 25.9311 35.8229C23.8229 35.6043 22.7 35.1594 20.9845 39.6792C20.8959 38.4538 18.0427 37.2865 18.1263 40.7646C18.1603 41.3768 19.5363 39.8065 19.6131 39.8357C20.3886 40.0334 20.1193 41.2047 20.8831 41.3479C21.2198 41.4112 21.9106 40.4969 22.3627 40.6488C22.5675 40.7309 22.4194 41.9172 22.946 41.7113ZM18.0396 42.2481C17.9418 41.5338 16.0077 42.6502 15.5354 44.3051C14.8634 46.7975 17.2888 43.4692 18.0396 42.2481ZM146.317 100.462C146.315 100.462 146.312 100.462 146.309 100.463C146.311 100.462 146.312 100.461 146.313 100.46C146.315 100.46 146.316 100.461 146.317 100.462ZM116.503 8.88712C117.553 8.38362 119.166 8.25432 118.98 7.6637C119.526 7.72108 120.064 7.77717 120.61 7.83388C120.584 7.65292 120.552 7.47214 120.526 7.29302C118.931 7.36405 117.327 7.43255 115.717 7.49784C115.97 7.96135 116.211 8.42801 116.503 8.88712ZM133.847 7.17601C135.8 6.94787 134.03 6.37552 134.404 5.91584C134.812 5.45581 136.492 5.50269 136.173 4.97287C135.121 5.13741 133.957 5.28599 132.764 5.43375C133.138 6.01065 133.478 6.60335 133.851 7.17544C133.849 7.17563 133.848 7.17582 133.847 7.17601ZM32.0994 93.7413C30.7471 93.2927 31.4428 92.8034 28.5627 92.9471C28.5647 92.9475 28.5668 92.9479 28.5688 92.9484C31.053 94.0215 34.3512 95.104 37.3119 95.065C35.6605 94.1252 34.2297 94.4311 32.0994 93.7413ZM98.7798 9.85387C98.251 10.4129 100.989 10.5427 101.515 10.0189C102.393 9.169 99.5623 9.00758 98.7798 9.85387ZM87.8941 95.3025C90.0142 93.8276 86.1431 92.0071 82.069 92.496C81.6941 92.5414 84.3095 93.1843 83.5084 93.4389C83.4132 93.4647 81.9729 93.3424 81.6381 93.5323C81.2529 93.721 81.6081 94.2455 80.9755 94.4101C79.8746 94.7039 77.6857 93.8161 76.8182 94.1616C76.7532 94.1847 77.1035 94.4204 77.443 94.6412C77.7488 94.8586 78.1161 95.0724 78.161 95.0898C79.7308 95.662 81.1166 94.876 81.4155 94.8924C82.5667 94.9393 82.356 95.6071 82.6456 95.786C83.1869 96.1215 84.2859 95.8762 84.3183 95.8997C86.0973 96.589 81.8934 96.2048 81.3886 96.4039C79.7197 96.9378 81.2302 97.7261 77.3875 97.7133C77.0548 97.725 72.5163 97.0395 78.0612 98.5515C76.7806 98.6215 75.627 98.6129 75.0426 98.6343C74.0346 98.7358 74.2177 98.914 74.9538 99.1067C77.6153 99.798 83.9874 99.7574 85.006 99.5835C85.7856 99.4562 84.6476 98.7527 85.1279 98.4815C86.2413 97.8636 88.0638 97.8117 87.9274 96.8614C87.6914 94.8674 85.2061 96.0751 83.6172 95.6521C83.8147 95.2309 83.924 94.8158 84.2527 94.4102C83.6908 94.9568 87.7897 95.4223 87.894 95.3064C87.894 95.3051 87.8941 95.3038 87.8941 95.3025ZM62.1413 95.23C59.9164 94.4462 59.9717 95.7093 57.9399 94.8169C55.9971 95.779 59.6531 96.0178 60.0585 96.113C61.9788 96.5565 61.8292 97.7709 63.8332 97.5572C63.2032 96.7791 62.7286 96.0064 62.1413 95.23ZM81.8544 97.7998C80.3223 98.3362 82.9976 98.4984 83.1447 98.623C84.3113 100.009 75.8837 99.1583 81.8544 97.7998ZM30.7613 32.9302C31.4447 32.5146 30.6814 32.2986 31.1787 31.748C31.6297 31.2154 33.9756 30.3568 33.7115 30.0834C33.5015 29.7519 29.1437 31.3534 32.85 28.7651C32.6105 28.6626 32.5706 28.501 32.4078 28.3755C31.3536 29.0187 30.3032 29.6847 29.2342 30.4106C30.1704 30.5109 31.0852 30.6777 31.9493 30.8242C31.6383 31.605 30.9902 31.2885 30.9585 31.3091C30.9589 31.3096 30.9593 31.3101 30.9596 31.3107C29.8759 32.0905 29.2715 33.8594 30.7613 32.9302ZM13.0786 86.6629C14.0584 85.4808 11.4581 85.9283 10.5921 85.5042C9.75178 85.1406 9.15582 83.8725 9.09242 84.6814C9.94723 86.0744 13.0149 86.8515 13.0796 86.6612C13.0793 86.6618 13.0789 86.6623 13.0786 86.6629ZM49.7362 94.1026C47.783 94.2619 48.0346 94.6913 45.7415 93.9649C45.7886 94.3409 45.8352 94.725 45.8836 95.0954C47.7531 95.3231 47.7438 94.249 49.8559 94.9078C50.2022 95.0151 49.3582 95.7857 50.9812 95.6776C50.5649 95.1778 50.1466 94.6264 49.7362 94.1026ZM40.0446 94.2666C42.2702 94.5282 44.4043 91.8198 40.1817 92.5792C39.555 92.6898 38.3711 94.0622 40.0446 94.2666ZM17.8675 49.0351C19.1732 45.3865 17.2916 49.4218 16.6216 50.2354C19.1032 41.3982 16.3233 51.4165 14.7749 51.5454C14.9174 52.5778 15.1853 54.6037 16.1375 52.807C16.5179 52.021 15.9837 52.1788 16.0028 52.131C16.5923 50.6233 17.2229 51.0004 17.8675 49.0351ZM66.0953 95.4818C65.9546 95.4925 66.1299 96.0226 65.6785 96.0878C65.2212 96.1517 64.2427 95.7106 64.1171 96.0166C63.9906 96.3242 65.9953 96.7361 66.6326 96.5594C67.2752 96.3805 67.3798 95.392 66.0953 95.4818ZM51.8993 92.977C49.9888 93.1555 52.8626 95.3478 53.2718 95.3751C56.8576 95.6135 51.7286 93.5687 51.8993 92.977ZM17.4801 58.5535C19.179 53.6296 15.9447 56.5184 13.6177 57.6121C13.5432 58.0074 13.4681 58.3859 13.3593 58.7801C13.5861 56.9381 13.9723 54.7696 12.0613 57.7602C11.7302 58.1727 11.3549 58.6748 10.9493 59.2816C11.7997 58.4811 12.2481 58.1887 12.4242 58.1325C12.5099 58.113 12.5332 58.1529 12.517 58.2278C12.4318 58.506 11.8474 59.2716 11.8686 59.309C12.3403 59.9516 13.0082 59.7983 13.7327 59.4753C15.124 58.9134 16.4656 57.1581 17.4775 58.5574C17.4783 58.5561 17.4792 58.5548 17.4801 58.5535ZM72.0174 96.5888C72.8525 96.6803 74.3028 96.7825 75.3857 96.8105C76.9257 96.8639 78.0791 96.6009 76.7259 95.8825C76.2998 95.9351 75.9039 95.9842 75.533 96.0275C74.3693 96.1684 73.2022 96.3719 72.0174 96.5888ZM73.6735 20.1951C75.3695 20.3755 76.773 20.0419 78.68 19.5816C76.8009 19.1563 77.9086 18.8124 78.4286 18.491C79.2568 17.9971 77.1296 18.4936 77.0972 18.4457C76.9778 17.6728 78.2995 17.244 75.1887 17.9729C75.9262 17.5235 76.59 17.0915 77.3264 16.65C74.9328 17.1506 74.2587 16.7877 72.5984 16.5389C74.4016 17.6787 72.2626 17.1982 70.6956 18.3626C69.9153 18.9437 72.8307 20.0944 73.6793 20.1938C73.6774 20.1942 73.6755 20.1947 73.6735 20.1951ZM20.0461 53.9805C19.9469 53.417 19.7237 52.8837 19.5551 52.3556C19.67 51.8687 19.7802 51.3906 19.8885 50.9136C20.138 50.9244 20.3955 50.9481 20.6387 50.9474C20.8846 50.3628 20.4918 50.5024 20.5151 50.3132C20.5164 50.3136 20.5176 50.314 20.5189 50.3144C20.863 47.66 21.3617 46.6284 22.9564 45.2979C22.3119 44.9279 21.6673 44.5579 21.0228 44.1879C20.8475 44.635 20.67 45.1186 20.5274 45.5706C20.7721 45.9806 21.0293 46.3766 21.2974 46.7576C20.8815 47.1529 20.4818 47.5643 20.0867 48.0072C20.0735 48.4626 20.0488 49.0149 20.0689 49.4166C17.41 50.9098 20.3083 46.5364 19.6292 46.1968C19.0191 45.9133 17.4174 50.9561 17.6332 51.7267C17.6533 51.8457 19.4636 51.2297 18.1393 52.7889C17.9016 53.0576 14.8058 52.0091 16.594 54.7467C16.8184 55.1781 19.1679 55.0802 20.0461 53.9805ZM29.1818 40.0371C25.6547 40.1053 34.9805 35.6307 30.4589 36.8911C30.8751 35.3539 30.7085 35.4867 29.1496 35.5707C29.0086 35.5782 29.5614 34.8219 29.4832 34.8393C28.2161 35.1737 27.1925 36.3516 26.6278 35.6865C26.3854 35.95 26.1642 36.1942 25.9392 36.4537C27.551 36.1502 26.2036 38.0333 26.1022 39.1204C26.0534 39.6046 26.7366 39.0845 26.701 39.5003C26.6908 39.6409 25.6912 40.3528 25.8733 40.5886C26.277 41.1153 27.4133 41.1833 28.6079 40.7369C28.6083 40.7373 28.6088 40.7378 28.6092 40.7383C28.8101 40.4951 28.9845 40.2691 29.1818 40.0371ZM20.7216 84.7823C20.7591 86.0294 22.5738 87.028 18.788 86.326C18.8805 86.6093 18.9844 86.8933 19.0877 87.1775C19.7254 87.3828 20.315 87.5555 20.954 87.7322C21.3335 87.3757 21.6993 87.1432 22.0504 87.002C24.3194 86.0335 25.9665 89.2245 24.6114 86.6558C24.444 86.3355 22.9274 86.2369 24.5359 85.9137C24.5342 85.9125 24.5324 85.9114 24.5307 85.9103C23.5427 85.7598 22.9508 85.752 22.4352 85.6622C21.8794 85.5626 21.4113 85.3687 20.7216 84.7823ZM9.55508 78.2897C7.38447 76.8728 7.65031 78.49 9.02831 80.2166C10.3886 81.9083 12.6755 82.9503 12.1006 82.113C12.0537 82.0396 10.9669 81.3348 10.1878 80.423C9.37912 79.5072 8.94596 78.4458 9.55508 78.2897ZM44.5783 88.2939C42.4872 87.9783 42.1595 89.2805 42.3072 89.7912C42.4571 90.303 43.9846 90.0123 44.1659 90.1116C44.7532 90.4415 43.4167 90.4364 44.178 90.8832C44.4308 91.0361 48.0765 91.9556 48.2622 91.9118C49.2438 91.6982 47.9851 90.4421 48.2701 90.3462C49.1942 90.0326 50.3212 90.7324 50.6394 90.1728C51.3182 88.9805 48.9621 90.0577 48.5842 90.0346C47.441 89.9657 47.6286 89.2739 46.8012 89.0335C45.9721 88.7919 45.3993 88.9652 44.6617 88.8205C44.4166 88.7722 44.6846 88.3121 44.5783 88.2939ZM37.1979 90.0854C39.5561 89.4448 34.4013 87.4684 33.7439 87.5636C31.7498 87.9094 36.0426 90.406 37.1979 90.0854ZM22.2534 42.8657C21.741 44.9082 24.8072 41.4969 25.5745 40.4473C25.1819 40.3545 22.4111 42.0915 22.2534 42.8657ZM16.6213 59.6792C17.6314 58.0291 15.2966 58.9404 14.0363 59.7868C13.9016 59.8817 13.7792 59.9846 13.6747 60.0934C13.794 61.2714 14.1194 60.9297 14.6472 60.4137C14.7697 60.2946 14.8984 60.166 15.0319 60.0388C15.8105 59.2654 15.6587 61.0577 16.6213 59.6792ZM67.5258 91.7098C67.1115 91.651 60.5069 92.0182 64.2311 92.6984C64.4947 92.7449 69.1163 92.9762 69.4613 92.8481C70.2002 92.5762 68.5639 91.8465 67.5258 91.7098ZM12.5656 67.1945C12.1508 66.0043 12.6895 65.2299 11.2939 65.3449C11.2933 65.3459 11.2926 65.347 11.2919 65.348C12.3263 63.1551 14.2527 64.5292 14.4905 64.1288C15.4487 62.7416 13.1702 62.9106 13.5136 61.7193C12.1686 64.0515 11.8122 62.7808 10.5678 64.4506C10.2768 64.8294 9.94049 66.7577 10.2221 67.1537C10.4793 67.548 11.9447 67.317 12.5656 67.1945ZM76.8046 92.5916C76.5855 92.5169 76.3856 92.4657 76.2086 92.435C74.251 92.1129 72.7983 93.1681 75.5084 93.7983C75.6585 93.8365 75.8023 93.8599 75.9386 93.8706C77.0384 93.935 77.9799 92.9535 76.8046 92.5916ZM125.127 13.8306C124.749 13.4719 124.357 13.1164 123.948 12.7647C124.745 12.5722 125.549 12.3758 126.349 12.1786C125.728 12.3822 125.08 12.5863 124.463 12.786C125.989 12.7441 126.801 13.38 125.131 13.8301C125.13 13.8302 125.128 13.8304 125.127 13.8306ZM178.045 14.112C178.575 14.6548 180.158 13.8829 180.03 13.748C179.019 12.709 177.293 13.3538 178.045 14.112ZM26.8265 42.9201C28.4572 41.4215 26.0012 41.136 24.937 42.1849C25.775 41.7755 25.9447 43.7932 26.8265 42.9201ZM159.634 10.5526C159.435 10.3623 159.234 10.173 159.004 9.98236C159.751 10.2908 159.866 10.4657 159.634 10.5526ZM66.6243 89.9089C66.2548 89.7268 63.3726 89.3671 62.9839 89.5209C62.1477 89.8423 64.2985 91.0945 65.6412 90.8744C65.7958 90.8514 66.9952 90.0899 66.6183 89.9084C66.6203 89.9086 66.6223 89.9087 66.6243 89.9089ZM128.66 14.1483C128.653 14.1304 128.653 14.1125 128.659 14.0952C128.659 14.1128 128.662 14.1305 128.66 14.1483ZM221.686 47.3174C221.697 47.2858 221.713 47.2591 221.734 47.2399C221.719 47.2638 221.706 47.2929 221.686 47.3174ZM46.7468 86.3921C46.0407 84.4425 43.7872 85.1445 45.3604 86.2702C45.4502 86.3306 46.5177 86.3615 46.7468 86.3921Z" fill="#E8DCCD"/>
<path d="M99.3811 52.9092C99.3029 53.8623 99.0217 54.7139 98.5373 55.4639C98.0529 56.1982 97.4123 56.8232 96.6154 57.3389C96.0842 57.667 95.5139 57.9639 94.9045 58.2295C94.2951 58.4951 93.6857 58.6982 93.0764 58.8389C92.5295 58.9639 91.9904 59.0186 91.4592 59.0029C90.9436 58.9873 90.4201 58.9482 89.8889 58.8857C89.7639 59.0264 89.6076 59.1201 89.4201 59.167C89.2482 59.2295 89.0764 59.2373 88.9045 59.1904C88.5451 59.0967 88.3264 58.8701 88.2482 58.5107C88.0607 58.3232 87.967 58.0967 87.967 57.8311C87.967 57.4873 88.1232 57.2139 88.4357 57.0107C88.5295 56.3857 88.5998 55.7607 88.6467 55.1357C88.7092 54.5107 88.7561 53.8779 88.7873 53.2373C88.8342 52.4873 88.8732 51.7451 88.9045 51.0107C88.9357 50.2764 88.9436 49.5342 88.9279 48.7842C88.9279 48.3154 88.9123 47.8311 88.8811 47.3311C88.8498 46.8311 88.8342 46.3389 88.8342 45.8545C88.8342 45.3545 88.8576 44.8623 88.9045 44.3779C88.967 43.8936 89.0842 43.4248 89.2561 42.9717C89.1779 42.7217 89.1936 42.4639 89.3029 42.1982C89.4123 41.9326 89.6232 41.7686 89.9357 41.7061C90.1232 41.5029 90.342 41.4092 90.592 41.4248C90.8576 41.4404 91.0764 41.5264 91.2482 41.6826C92.0139 41.7451 92.7561 41.8936 93.4748 42.1279C94.2092 42.3467 94.8811 42.7061 95.4904 43.2061C96.2404 43.7998 96.842 44.5186 97.2951 45.3623C97.7482 46.1904 98.1154 47.0498 98.3967 47.9404C98.5217 48.3311 98.6467 48.7295 98.7717 49.1357C98.9123 49.542 99.0295 49.9561 99.1232 50.3779C99.2326 50.7998 99.3107 51.2217 99.3576 51.6436C99.4045 52.0654 99.4123 52.4873 99.3811 52.9092ZM95.467 55.8389C95.6701 55.7139 95.8498 55.5889 96.0061 55.4639C96.1779 55.3389 96.3498 55.1904 96.5217 55.0186C96.6623 54.8623 96.7717 54.7373 96.8498 54.6436C96.9279 54.5498 97.0217 54.4092 97.1311 54.2217C97.3967 53.6748 97.5217 53.0576 97.5061 52.3701C97.5061 51.9795 97.4748 51.6201 97.4123 51.292C97.3498 50.9482 97.2561 50.5654 97.1311 50.1436C97.0061 49.7061 96.8732 49.2764 96.7326 48.8545C96.6076 48.417 96.4592 47.9951 96.2873 47.5889C96.1623 47.2451 95.9904 46.8779 95.7717 46.4873C95.5686 46.0811 95.3576 45.7451 95.1389 45.4795C94.592 44.8232 93.9748 44.3545 93.2873 44.0732C92.5998 43.7764 91.8498 43.6045 91.0373 43.5576C90.8654 43.9951 90.7561 44.4561 90.7092 44.9404C90.6779 45.4092 90.6701 45.8857 90.6857 46.3701C90.7014 46.8545 90.7248 47.3389 90.7561 47.8232C90.8029 48.3076 90.8186 48.7764 90.8029 49.2295C90.7404 50.5576 90.6779 51.8701 90.6154 53.167C90.5686 54.4639 90.4592 55.7686 90.2873 57.0811C90.5686 57.1123 90.8498 57.1357 91.1311 57.1514C91.4279 57.167 91.717 57.1592 91.9982 57.1279C92.592 57.0654 93.1857 56.917 93.7795 56.6826C94.3889 56.4326 94.9514 56.1514 95.467 55.8389ZM103.984 58.4639C104.109 57.7139 104.25 56.9795 104.406 56.2607C104.578 55.5264 104.703 54.7842 104.781 54.0342C104.844 53.2998 104.851 52.5811 104.804 51.8779C104.773 51.1592 104.82 50.4326 104.945 49.6982C104.976 49.4482 105.117 49.2607 105.367 49.1357C105.633 49.0107 105.875 48.9795 106.094 49.042C106.359 49.1201 106.539 49.2686 106.633 49.4873C106.742 49.7061 106.781 49.9404 106.75 50.1904C106.687 50.5498 106.656 50.917 106.656 51.292C106.672 51.667 106.687 52.042 106.703 52.417C106.703 53.1357 106.656 53.8545 106.562 54.5732C106.469 55.3232 106.344 56.0576 106.187 56.7764C106.047 57.4951 105.914 58.2217 105.789 58.9561C105.742 59.2061 105.594 59.3936 105.344 59.5186C105.094 59.6436 104.859 59.6748 104.64 59.6123C104.375 59.5342 104.187 59.3857 104.078 59.167C103.969 58.9482 103.937 58.7139 103.984 58.4639ZM105.109 47.6826C105 47.6514 104.89 47.6045 104.781 47.542C104.672 47.4639 104.594 47.3701 104.547 47.2607C104.5 47.1357 104.461 47.0264 104.429 46.9326C104.398 46.8389 104.383 46.7295 104.383 46.6045C104.383 46.4639 104.406 46.3232 104.453 46.1826C104.515 45.9014 104.64 45.6982 104.828 45.5732C104.89 45.4795 104.976 45.4092 105.086 45.3623C105.258 45.2529 105.453 45.1982 105.672 45.1982C105.89 45.1826 106.086 45.2373 106.258 45.3623C106.336 45.4248 106.414 45.4951 106.492 45.5732C106.57 45.6357 106.633 45.7217 106.679 45.8311C106.711 45.9092 106.742 45.9951 106.773 46.0889C106.82 46.1826 106.836 46.2764 106.82 46.3701C106.804 46.4795 106.789 46.5811 106.773 46.6748C106.758 46.7686 106.719 46.8545 106.656 46.9326C106.578 47.042 106.515 47.1201 106.469 47.167C106.422 47.2139 106.344 47.2764 106.234 47.3545C106.172 47.417 106.078 47.4639 105.953 47.4951C105.625 47.6826 105.344 47.7451 105.109 47.6826ZM113.181 40.2998C113.462 40.2998 113.681 40.3936 113.837 40.5811C113.994 40.7686 114.087 40.9873 114.119 41.2373C114.275 42.7217 114.361 44.2061 114.376 45.6904C114.392 47.1748 114.369 48.6592 114.306 50.1436C114.259 51.6279 114.181 53.1123 114.072 54.5967C113.962 56.0811 113.853 57.5576 113.744 59.0264C113.712 59.292 113.611 59.5107 113.439 59.6826C113.283 59.8701 113.072 59.9639 112.806 59.9639C112.572 59.9639 112.353 59.8701 112.15 59.6826C111.947 59.5107 111.853 59.292 111.869 59.0264C111.978 57.5576 112.087 56.0811 112.197 54.5967C112.322 53.1123 112.408 51.6279 112.454 50.1436C112.517 48.6592 112.54 47.1748 112.525 45.6904C112.509 44.2061 112.423 42.7217 112.267 41.2373C112.236 40.9873 112.322 40.7686 112.525 40.5811C112.728 40.3936 112.947 40.2998 113.181 40.2998ZM120.62 40.2998C120.901 40.2998 121.12 40.3936 121.276 40.5811C121.433 40.7686 121.526 40.9873 121.558 41.2373C121.714 42.7217 121.8 44.2061 121.815 45.6904C121.831 47.1748 121.808 48.6592 121.745 50.1436C121.698 51.6279 121.62 53.1123 121.511 54.5967C121.401 56.0811 121.292 57.5576 121.183 59.0264C121.151 59.292 121.05 59.5107 120.878 59.6826C120.722 59.8701 120.511 59.9639 120.245 59.9639C120.011 59.9639 119.792 59.8701 119.589 59.6826C119.386 59.5107 119.292 59.292 119.308 59.0264C119.417 57.5576 119.526 56.0811 119.636 54.5967C119.761 53.1123 119.847 51.6279 119.894 50.1436C119.956 48.6592 119.979 47.1748 119.964 45.6904C119.948 44.2061 119.862 42.7217 119.706 41.2373C119.675 40.9873 119.761 40.7686 119.964 40.5811C120.167 40.3936 120.386 40.2998 120.62 40.2998ZM126.653 58.4639C126.778 57.7139 126.919 56.9795 127.075 56.2607C127.247 55.5264 127.372 54.7842 127.45 54.0342C127.512 53.2998 127.52 52.5811 127.473 51.8779C127.442 51.1592 127.489 50.4326 127.614 49.6982C127.645 49.4482 127.786 49.2607 128.036 49.1357C128.301 49.0107 128.544 48.9795 128.762 49.042C129.028 49.1201 129.208 49.2686 129.301 49.4873C129.411 49.7061 129.45 49.9404 129.419 50.1904C129.356 50.5498 129.325 50.917 129.325 51.292C129.34 51.667 129.356 52.042 129.372 52.417C129.372 53.1357 129.325 53.8545 129.231 54.5732C129.137 55.3232 129.012 56.0576 128.856 56.7764C128.715 57.4951 128.583 58.2217 128.458 58.9561C128.411 59.2061 128.262 59.3936 128.012 59.5186C127.762 59.6436 127.528 59.6748 127.309 59.6123C127.044 59.5342 126.856 59.3857 126.747 59.167C126.637 58.9482 126.606 58.7139 126.653 58.4639ZM127.778 47.6826C127.669 47.6514 127.559 47.6045 127.45 47.542C127.34 47.4639 127.262 47.3701 127.215 47.2607C127.169 47.1357 127.129 47.0264 127.098 46.9326C127.067 46.8389 127.051 46.7295 127.051 46.6045C127.051 46.4639 127.075 46.3232 127.122 46.1826C127.184 45.9014 127.309 45.6982 127.497 45.5732C127.559 45.4795 127.645 45.4092 127.754 45.3623C127.926 45.2529 128.122 45.1982 128.34 45.1982C128.559 45.1826 128.754 45.2373 128.926 45.3623C129.004 45.4248 129.083 45.4951 129.161 45.5732C129.239 45.6357 129.301 45.7217 129.348 45.8311C129.379 45.9092 129.411 45.9951 129.442 46.0889C129.489 46.1826 129.504 46.2764 129.489 46.3701C129.473 46.4795 129.458 46.5811 129.442 46.6748C129.426 46.7686 129.387 46.8545 129.325 46.9326C129.247 47.042 129.184 47.1201 129.137 47.167C129.09 47.2139 129.012 47.2764 128.903 47.3545C128.84 47.417 128.747 47.4639 128.622 47.4951C128.294 47.6826 128.012 47.7451 127.778 47.6826ZM134.561 56.4482C134.561 55.7764 134.608 55.0967 134.701 54.4092C134.811 53.5811 134.92 52.7607 135.029 51.9482C135.139 51.1201 135.186 50.2842 135.17 49.4404C135.17 49.1436 135.264 48.917 135.451 48.7607C135.639 48.6045 135.85 48.5264 136.084 48.5264C136.319 48.5264 136.537 48.6045 136.74 48.7607C136.944 48.917 137.045 49.1436 137.045 49.4404C137.654 49.3936 138.233 49.3701 138.779 49.3701C139.404 49.3857 139.936 49.5654 140.373 49.9092C140.811 50.2529 141.139 50.7139 141.358 51.292C141.545 51.8232 141.654 52.3701 141.686 52.9326C141.717 53.4951 141.74 54.0576 141.756 54.6201C141.772 55.417 141.795 56.2139 141.826 57.0107C141.858 57.792 141.873 58.5811 141.873 59.3779C141.873 59.6904 141.772 59.917 141.569 60.0576C141.381 60.2139 141.17 60.292 140.936 60.292C140.717 60.292 140.506 60.2139 140.303 60.0576C140.115 59.917 140.022 59.6904 140.022 59.3779C140.022 58.6279 140.006 57.8936 139.975 57.1748C139.959 56.4561 139.936 55.7217 139.904 54.9717C139.873 54.5654 139.858 54.1514 139.858 53.7295C139.873 53.292 139.842 52.8936 139.764 52.5342C139.717 52.3154 139.67 52.1279 139.623 51.9717C139.576 51.7998 139.49 51.6357 139.365 51.4795C139.334 51.417 139.264 51.3623 139.154 51.3154C139.061 51.2686 138.975 51.2451 138.897 51.2451C138.662 51.2451 138.444 51.2607 138.24 51.292C138.037 51.3232 137.826 51.3701 137.608 51.4326C137.514 51.4639 137.42 51.4951 137.326 51.5264C137.233 51.5576 137.147 51.5967 137.069 51.6436C136.912 52.2061 136.795 52.7451 136.717 53.2607C136.654 53.7607 136.592 54.2686 136.529 54.7842C136.483 55.1592 136.451 55.542 136.436 55.9326C136.436 56.3076 136.42 56.6826 136.389 57.0576C136.373 57.4326 136.326 57.8076 136.248 58.1826C136.186 58.5576 136.069 58.917 135.897 59.2607C135.756 59.5264 135.569 59.6748 135.334 59.7061C135.1 59.7529 134.881 59.7139 134.678 59.5889C134.49 59.4795 134.342 59.3076 134.233 59.0732C134.139 58.8389 134.154 58.5889 134.279 58.3232C134.42 58.042 134.498 57.7373 134.514 57.4092C134.529 57.0811 134.545 56.7607 134.561 56.4482ZM146.734 64.6982C147.078 65.0264 147.476 65.2529 147.93 65.3779C148.383 65.5186 148.836 65.5654 149.289 65.5186C149.742 65.4717 150.172 65.3389 150.578 65.1201C150.984 64.9014 151.32 64.5967 151.586 64.2061C152.148 63.4092 152.508 62.5264 152.664 61.5576C152.836 60.6045 152.906 59.6436 152.875 58.6748C152.125 58.7998 151.351 58.8232 150.555 58.7451C149.773 58.6826 149.031 58.5186 148.328 58.2529C147.969 58.1123 147.625 57.9482 147.297 57.7607C146.984 57.5576 146.734 57.2764 146.547 56.917C146.219 56.3076 146.078 55.6357 146.125 54.9014C146.156 54.1982 146.273 53.5186 146.476 52.8623C146.695 52.1904 146.937 51.5264 147.203 50.8701C147.344 50.5576 147.492 50.2295 147.648 49.8857C147.82 49.5264 148.039 49.2061 148.305 48.9248C148.57 48.6279 148.875 48.4014 149.219 48.2451C149.562 48.0889 149.93 47.9951 150.32 47.9639C150.258 47.7451 150.258 47.542 150.32 47.3545C150.383 47.1514 150.515 46.9873 150.719 46.8623C150.922 46.7373 151.156 46.7061 151.422 46.7686C151.703 46.8311 151.898 46.9717 152.008 47.1904C152.07 47.3311 152.125 47.4717 152.172 47.6123C152.234 47.7529 152.289 47.8936 152.336 48.0342C152.648 48.8779 152.93 49.7295 153.18 50.5889C153.445 51.4482 153.695 52.3154 153.93 53.1904C154.211 54.2217 154.422 55.2686 154.562 56.3311C154.703 57.3936 154.758 58.4717 154.726 59.5654C154.711 60.1748 154.656 60.7998 154.562 61.4404C154.484 62.0811 154.344 62.6982 154.14 63.292C153.937 63.8857 153.672 64.4482 153.344 64.9795C153.015 65.5264 152.594 65.9951 152.078 66.3857C151.594 66.7607 151.055 67.0264 150.461 67.1826C149.883 67.3545 149.289 67.4248 148.68 67.3936C148.086 67.3623 147.5 67.2295 146.922 66.9951C146.359 66.7607 145.859 66.4326 145.422 66.0107C145.203 65.8076 145.109 65.5811 145.14 65.3311C145.172 65.0967 145.273 64.8936 145.445 64.7217C145.601 64.5654 145.797 64.4717 146.031 64.4404C146.281 64.4092 146.515 64.4951 146.734 64.6982ZM149.336 56.6123C149.883 56.7529 150.445 56.8545 151.023 56.917C151.617 56.9639 152.187 56.9248 152.734 56.7998C152.64 56.0029 152.5 55.2373 152.312 54.5029C152.14 53.7686 151.945 53.0264 151.726 52.2764C151.601 51.8389 151.469 51.4092 151.328 50.9873C151.203 50.5654 151.07 50.1436 150.93 49.7217C150.883 49.7529 150.828 49.7764 150.765 49.792C150.703 49.792 150.633 49.7998 150.555 49.8154C150.086 49.8154 149.726 50.0264 149.476 50.4482C149.305 50.7139 149.164 50.9951 149.055 51.292C149.023 51.3701 148.992 51.4482 148.961 51.5264C148.93 51.5889 148.898 51.6592 148.867 51.7373C148.633 52.2998 148.43 52.8467 148.258 53.3779C148.101 53.8936 148.008 54.4014 147.976 54.9014V55.3232C147.992 55.4326 148.008 55.5186 148.023 55.5811C148.055 55.7217 148.07 55.8076 148.07 55.8389C148.086 55.8701 148.133 55.9482 148.211 56.0732C148.305 56.1514 148.39 56.2139 148.469 56.2607C148.547 56.3076 148.594 56.3389 148.609 56.3545C148.734 56.4014 148.851 56.4482 148.961 56.4951C149.086 56.542 149.211 56.5811 149.336 56.6123Z" fill="#4A2F2C"/>
</svg>
