<svg width="400" height="104" viewBox="0 0 400 104" fill="none" xmlns="http://www.w3.org/2000/svg">
<path d="M321.544 90.5831C305.922 94.4328 276.662 94.7708 276.662 94.7708C276.662 94.7708 155.67 96.9494 136.288 94.352C123.863 92.687 89.4958 92.6769 60.8479 86.8142C32.1999 80.9514 37.9295 67.5507 49.3887 59.5941C60.8479 51.6375 49.3887 44.0684 80.5138 30.9966C101.523 22.1733 149.211 15.7463 149.211 15.7463C149.211 15.7463 209.181 11.4355 222.231 9.76041C246.678 6.41024 252.08 7.46743 269.978 9.76041C290.535 12.394 300.115 16.7685 314.86 23.5798C326.682 29.0409 329.42 33.1752 339.688 39.4931C360 51.9906 360 58.9226 360 58.9226C360 58.9226 359.313 69.5714 352.102 76.7637C345.202 83.6454 336.489 86.9004 321.544 90.5831Z" fill="#E8DCCD"/>
<path d="M61.5441 57.5269C59.8585 60.9234 56.7673 64.1347 53.8867 66.0721C51.5897 67.6626 49.5288 69.6635 48.5598 71.2962C48.0679 72.0962 47.9284 72.7107 47.937 72.8341C47.9623 72.969 47.8726 72.7411 48.0526 73.0559C48.9417 74.8511 56.1134 77.8468 62.4516 78.9774C74.0188 81.3251 85.9632 82.6841 97.5418 83.7669C100.977 84.0813 100.708 84.592 101.668 84.7363C104.298 85.126 105.947 84.6012 107.867 84.7739C117.295 85.6502 125.99 85.9899 135.828 87.1793C136.338 87.2471 136.804 87.3181 137.221 87.3902C140.446 87.9297 141.719 88.4017 141.942 88.9047C142.286 89.3982 142.024 89.8688 143.598 90.1474C149.952 91.2373 144.592 88.8164 147.149 88.436C154.538 88.849 161.979 89.1902 169.46 89.503C167.639 89.6894 165.834 89.8684 163.966 90.0318C167.313 90.1218 171.812 90.4989 166.45 91.0129C167.624 91.1831 168.738 91.3778 169.985 91.5421C170.369 90.7548 176.077 90.731 176.64 90.2615C177.169 89.7943 173.908 89.8838 173.936 89.8422C174.167 89.2682 187.442 90.1118 188.423 90.1683C190.969 90.3419 188.739 91.3257 190.892 91.2614C194.599 91.149 192.137 89.1533 197.164 91.8017C199.16 90.9321 199.338 91.3804 201.875 91.4307C202.208 91.4368 201.948 90.9376 202.094 90.9239C205.925 90.5364 202.983 91.4793 203.003 91.5296C203.355 92.3847 207.468 91.9844 208.338 92.0611C219.24 93.0209 227.203 93.6429 238.713 93.7527C241.212 93.7761 248.718 93.337 251.173 93.4492C253.515 93.5619 252.223 94.1959 253.508 94.4749C255.517 92.9636 257.425 92.7744 261.838 93.6875C263.573 92.5792 263.265 93.4575 266.504 93.1914C269.007 92.9737 273.882 91.5966 276.624 92.6543C273.437 92.609 273.658 93.1369 269.943 93.5182C268.704 93.648 255.563 93.8636 256.578 94.9534C257.013 95.5244 261.48 94.9307 261.561 95.0355C262.513 95.6412 260.242 96.4364 258.009 96.201C258.561 96.0681 259.214 95.9319 259.784 95.7987C254.842 95.0942 258.325 98.0204 254.609 95.4718C254.146 95.1591 254.322 94.8242 253.553 94.4957C253.397 94.638 254.338 94.9728 253.533 95.0459C252.678 95.1202 251.236 94.4795 251 95.0385C250.679 95.8514 253.946 95.4894 254.236 95.5325C254.238 95.5276 254.241 95.5227 254.244 95.5177C256.494 95.9164 251.788 96.0292 251.622 96.1076C250.212 96.6298 251.2 97.005 249.036 97.4489C247.757 97.7026 244.748 97.6001 243.546 97.6909C242.381 97.7833 244.199 98.144 243.416 98.2355C242.613 98.3272 241.71 98.0472 240.804 98.1529C240.421 98.1993 240.445 98.6256 240.259 98.6426C238.249 98.8297 239.564 97.9276 237.722 98.0023C236.555 98.0515 232.628 98.9201 235.347 99.1376C234.048 99.2373 232.749 99.3137 231.442 99.394C232.261 99.5126 233.134 99.5899 233.937 99.7307C231.45 99.5535 230.383 100.294 228.844 100.363C227.31 100.432 225.892 99.569 224.228 100.011C220.627 100.952 229.577 100.452 230.669 100.602C231.099 100.662 229.458 101.364 229.201 101.386C228.069 101.483 226.708 101.005 225.824 101.035C222.73 101.145 220.755 101.809 217.799 101.962C207.625 102.485 194.985 102.899 185.326 103.025C181.764 103.073 179.541 102.335 177.962 102.349C174.146 102.379 173.736 103.01 170.404 103.017C165.554 103.031 158.541 102.376 154.438 102.154C151.658 102.008 148.929 102.532 148.245 102.522C144.215 102.445 140.045 102.385 135.285 101.838C129.281 101.156 122.268 100.87 117.099 100.549C113.117 100.321 111.255 99.5148 110.436 99.4847C106.884 99.3483 107.786 99.9968 104.916 99.746C103.349 99.6077 103.111 99.0219 102.901 98.9852C101.067 98.6677 100.664 99.3789 99.2172 99.2939C90.9441 98.8014 83.0055 97.5514 74.799 96.3554C74.2035 96.2676 74.3017 95.9502 73.9137 95.9128C72.2448 95.7561 72.9413 96.3791 71.2004 96.1585C67.5766 95.6942 63.8755 94.9789 60.0548 94.145C59.8207 94.0938 59.6984 93.9025 59.4341 93.7222C59.2578 93.6087 59.025 93.4985 58.6768 93.4242C57.7443 93.2222 57.0563 93.4834 55.5672 93.0895C51.8054 92.0578 48.2967 90.5044 44.1794 88.324C43.5352 87.9767 42.384 87.9128 41.3822 87.2415C38.1246 85.4075 33.3271 79.1587 33.3246 74.1851C33.4072 62.4059 40.3809 58.0383 45.4383 53.9047C46.5599 53.0896 47.2871 52.3578 47.8402 51.5617C48.3419 50.861 49.2333 50.0053 49.5788 49.2017C50.3851 47.3144 49.3211 48.6842 50.2609 46.4654C56.2953 33.1594 68.3766 29.0884 77.8785 24.7218C85.35 21.6843 92.6693 19.7806 100.026 17.9528C106.963 16.2489 115.325 14.0736 122.067 12.9616C124.863 12.5018 125.491 13.0162 127.46 12.6741C130.966 12.0709 131.503 11.1808 135.21 10.4938C138.182 9.94784 141.689 10.1976 144.796 9.69401C146.199 9.46676 147.252 9.14904 148.278 8.82283L148.71 8.77822C149.912 8.46472 151.256 8.11228 153.2 7.91973C156.117 7.63189 160.237 7.675 163.407 7.38217C182.813 5.54282 202.481 3.94445 221.232 1.97245L221.165 1.98127C230.833 0.722805 240.841 -0.495603 251.446 0.205094C258.032 0.63951 264.552 1.62537 270.9 2.56404C275.602 3.26635 280.318 4.19699 284.838 5.50673C285.858 5.81128 284.123 6.15338 287.463 6.78365C289.251 7.14031 291.917 7.13852 295.996 8.42647C303.584 10.8245 310.742 14.2507 317.627 17.5898C327.428 21.9187 335.315 29.7531 342.819 34.4051C349.11 38.4844 355.244 42.6484 360.806 48.7157C361.773 49.8059 362.74 51.0008 363.635 52.3831C364.091 53.0924 364.529 53.845 364.943 54.7369C365.144 55.1746 365.35 55.6715 365.534 56.2295C365.626 56.5122 365.716 56.8195 365.799 57.1741C365.842 57.363 365.88 57.541 365.919 57.7776C365.935 57.8745 365.957 58.0239 365.973 58.1656C365.981 58.2354 365.988 58.2992 365.998 58.4225C366.006 58.5428 366.015 58.5761 366.019 58.9226L366.006 59.31C365.265 67.5623 362.847 75.0055 356.907 81.5815C347.242 92.0123 334.168 95.461 323.457 98.3435C306.701 102.105 291.714 101.514 277.58 98.6066C276.001 98.2549 276.828 96.3961 277.745 95.854C278.615 96.2122 279.436 96.6382 280.356 97.0367C281.415 94.694 281.236 95.3173 285.465 95.3609C288.061 95.3798 285.961 94.4817 287.312 94.1416C289.1 93.725 297.374 92.0614 295.871 93.6826C296.372 93.3825 296.838 93.0948 297.319 92.7994C303.344 92.119 309.185 91.1595 314.879 89.7833C315.874 89.5384 315.817 89.0621 316.829 88.7986C318.266 88.4155 319.597 88.1749 320.886 87.9126C322.048 87.6725 323.202 87.4383 324.492 87.0786C326.01 86.651 326.077 86.0643 328.057 85.5444C330.021 85.0118 330.219 85.7507 332.6 84.1295C330.622 83.8204 338.375 81.9351 340.705 80.5406C341.087 80.3678 343.468 78.1201 344.82 77.2451C346.009 76.5226 347.856 75.5875 349.345 73.9999C349.592 73.7371 349.817 73.4595 350.026 73.1559C350.662 72.2121 350.545 71.2859 351.164 70.283C351.594 69.5776 352.618 68.9754 353.128 67.9716C353.664 66.9866 354.052 64.5216 354.153 64.0962C354.584 62.5457 354.475 64.3674 354.802 63.3107C355.25 61.8275 355.65 59.9934 355.8 58.6517L355.792 58.9226C355.794 59.1289 355.798 59.1275 355.801 59.1741C355.804 59.2153 355.807 59.2401 355.809 59.2562C355.813 59.2913 355.818 59.3224 355.821 59.3339C355.827 59.3651 355.83 59.3743 355.831 59.3746C355.834 59.3744 355.828 59.3381 355.817 59.2955C355.794 59.2019 355.75 59.0675 355.688 58.9119C355.567 58.6079 355.379 58.2351 355.165 57.8702C354.723 57.1179 354.148 56.3382 353.504 55.5795C352.21 54.059 350.663 52.6421 349.1 51.4259C348.546 50.9966 348.967 51.9925 348.882 51.9425C344.901 49.4012 347.226 50.5334 346.48 49.3763C345.865 48.2108 337.916 43.1751 337.382 43.9279C337.442 43.7215 337.404 43.5389 337.299 43.3761C336.826 42.6894 335.267 42.3168 334.847 42.0698C332.878 40.9125 333.762 40.4098 331.805 39.388C331.09 39.0084 332.015 40.4153 331.317 39.9007C329.593 38.6279 328.659 36.6854 326.553 35.0024C326.046 34.5989 325.615 34.8253 324.706 34.1533C323.811 33.4423 320.22 30.4862 321.509 32.4227C319.546 30.3049 318.841 30.354 315.949 28.8234C315.29 28.4829 314.689 27.5376 313.304 26.9468C313.143 26.878 312.973 26.8135 312.793 26.7547C312.184 26.5558 311.925 27.1895 311.051 26.7929C309.07 25.8977 307.517 24.4024 305.028 23.2732C300.376 21.1583 295.255 19.6589 290.345 18.0118C289.002 17.5657 289.538 16.9949 287.546 16.439C287.246 16.3533 284.696 16.314 283.319 15.9544C282.502 15.7128 278.187 14.4284 277.296 14.2587C275.82 13.9483 275.454 14.5672 274.662 14.3088C272.375 13.5795 274.402 12.8865 271.367 13.8075C270.921 13.3372 270.218 13.0795 269.59 12.7857C269.054 12.5387 268.598 12.2668 268.407 11.8226C267.29 12.6895 266.132 11.5675 264.182 11.6564C262.226 11.7444 260.458 13.4863 260.238 11.3577C259.319 11.4946 255.53 11.5319 254.908 11.5233C253.057 11.4609 254.088 10.9627 252.688 10.9423C252.442 10.9415 252.672 11.3426 251.108 11.2212C250.088 11.0584 242.546 11.083 242.08 11.1202C236.869 10.7833 244.893 10.5593 245.999 10.1919C246.198 10.3026 246.397 10.4144 246.608 10.5251C248.887 10.7242 247.597 9.81951 246.554 9.61209C245.509 9.40166 243.549 9.84716 242.679 9.59366C242.236 9.46632 242.46 8.37893 243.793 8.46585C242.354 8.18254 244.296 7.7718 243.721 7.48027C243.092 7.11378 236.617 7.42616 236.652 8.04692C237.832 7.96651 239.351 7.83501 240.548 7.79132C242.153 8.72921 237.682 12.4545 233.242 11.535C229.985 10.8776 235.094 9.46919 227.71 11.1978C228.852 11.0974 229.866 11.0731 230.893 10.9995C231.095 11.7491 229.302 11.1051 228.46 11.4557C228.054 11.6249 230.7 11.8536 228.485 12.3037C226.596 11.5324 225.338 12.5151 222.682 13.0495L222.654 13.0533C222.397 13.1038 222.112 13.15 221.791 13.1895C222.089 13.091 222.37 12.9935 222.634 12.8968L222.661 12.8933C223.272 12.6751 223.871 12.4599 224.457 12.2472C219.173 12.1967 230.241 10.4365 222.412 11.0772L222.401 11.0787C221.991 11.1075 221.409 11.1537 220.812 11.1967C221.325 11.1238 221.921 11.0456 222.388 10.9786L222.398 10.9772C223.178 10.8603 223.933 10.7487 224.682 10.6175C224.008 10.2999 224.848 8.99496 224.258 8.82072C223.626 8.63122 222.886 8.63805 222.09 8.7286C221.076 8.83249 219.85 9.09157 218.793 9.16895C218.021 9.22545 218.464 8.85762 218.4 8.8625C217.321 8.93842 217.562 9.38435 216.655 9.50493C215.424 9.66731 211.978 9.53075 211.415 9.63242C209.957 9.89772 212.486 10.5965 212.34 10.6786C211.461 11.2095 209.528 11.0095 209.686 11.5832C214.185 10.8169 227.399 9.93045 215.568 12.1281C218.951 12.7435 218.155 14.1471 213.407 14.6962C209.549 15.1357 211.963 14.3902 209.92 13.9968C209.647 13.9515 204.396 14.1309 204.179 14.5551C204.311 13.6047 202.535 12.9232 203.598 11.864C203.762 11.7082 205.874 11.5838 205.072 10.873C204.675 10.5157 203.538 9.76055 203.667 9.25125C203.257 9.6325 202.827 10.0586 202.404 10.4557C199.234 10.8228 198.736 10.4893 196.932 9.99134C197.035 10.2526 198.752 11.2453 196.256 11.1048C196.129 11.0945 195.991 10.6993 194.728 10.5999C192.162 10.4031 191.64 10.3186 193.475 8.97694C188.309 10.073 187.081 8.8387 181.755 9.64293C182.938 11.0854 184.794 10.563 189.673 9.87999C189.914 10.2259 190.041 10.5771 190.291 10.926C183.701 10.6209 186.932 10.4492 183.291 11.4756C182.398 11.7274 177.555 11.9071 179.246 12.8099C179.647 13.0223 182.643 12.762 182.329 13.1696C182.271 13.2474 178.63 13.7148 178.308 13.6402C174.174 12.7341 181.326 11.3385 170.242 12.6264C169.937 12.6625 169.862 13.1149 169.275 13.2214C168.173 13.4204 168.092 12.909 167.103 13.1028C166.137 13.2951 164.745 14.0954 163.217 13.5658C160.345 12.6081 166.825 11.452 169.774 11.8498C170.816 10.2742 150.843 11.6987 148.938 11.9498L148.703 11.9741C148.701 11.9767 148.671 11.9831 148.64 11.9898C145.718 12.7008 146.858 12.5902 148.756 12.3707L148.967 12.349C150.591 12.2706 152.822 12.1397 153.091 12.3212C153.288 12.4864 153.363 14.7584 155.605 13.1163C156.254 12.6308 153.362 12.2659 155.041 11.9014C156.761 11.5337 156.142 12.2496 156.266 12.2874C156.702 12.4157 158.553 12.0306 158.797 12.1076C162.629 13.2667 162.404 15.4646 157.267 12.6229C155.209 13.5025 160.186 14.2961 157.553 14.9843C154.379 15.8187 151.92 14.959 151.529 14.9407C148.125 14.7978 149.884 15.3059 149.2 15.597C148.968 15.7306 148.184 15.8687 146.422 15.9793C143.087 16.1949 151.179 14.2655 143.701 15.4638C137.424 16.507 140.905 16.5108 140.632 17.7611C140.562 18.0555 137.166 18.9328 141.83 18.0815C141.919 17.7525 142.114 17.3069 142.367 16.9775C143.502 17.0334 145.733 18.2787 146.282 18.2547C148.248 18.1388 148.818 17.7766 149.478 17.7288L149.354 17.7416C149.338 17.7485 149.578 17.7429 149.613 17.7599C149.694 17.7735 149.798 17.7934 149.934 17.8207C150.194 17.8761 150.37 17.9767 150.746 18.1171C149.371 17.1708 151.493 17.6474 152.26 17.3706C155.106 16.3488 151.289 16.3266 157.8 16.8942C156.956 16.4661 156.111 16.0469 155.288 15.6189C156.032 15.5475 156.86 15.4693 157.596 15.3983C158.882 16.3836 162.915 15.9466 159.298 17.3017C163.772 17.2794 165.573 16.9082 166.5 15.9988C166.671 15.8256 167.325 15.7124 168.12 15.6372C167.952 15.4136 167.706 14.7022 167.824 14.6037C168.907 13.7351 170.694 14.9602 170.155 15.5201C170.707 15.5032 171.151 15.4987 171.308 15.4995C172.304 15.5047 170.401 16.1182 171.213 16.2177C171.501 16.2484 174.214 15.9402 174.295 16.1247C174.71 17.316 170.132 16.785 179.277 16.7949C179.416 15.6707 175.198 16.2391 176.196 14.9795C177.273 13.6264 179.77 15.1389 180.175 13.5481C180.389 13.788 180.491 13.9939 180.681 14.2711C184.304 13.3108 184.46 14.5963 185.605 14.7936C187.836 15.1809 197.874 14.2937 188.766 13.895C190.072 13.6792 191.421 13.5197 192.721 13.316C193.204 15.6049 192.337 14.7529 198.687 14.5888C200.066 14.5537 200.635 15.5309 201.888 14.2093C201.794 15.4118 205.848 14.3474 206.26 14.4554C208.811 15.1807 199.749 17.2638 198.407 15.2585C196.926 16.2016 196.839 15.1228 195.131 15.4054C192.643 15.8143 192.327 16.0513 189.302 15.4904C186.476 16.8471 200.748 15.0689 192.185 17.2553C187.128 18.5531 167.361 20.7429 149.693 22.4482L150.108 22.4053C138.262 24.3541 127.162 26.5562 122.541 27.5303C105.742 31.1637 95.1477 33.7174 83.5766 38.2895C80.869 39.4382 78.1294 40.6747 75.3489 42.1316C74.6255 42.5029 71.3937 44.2907 69.1567 45.828C66.8751 47.3483 65.5056 48.5933 65.7158 47.3826C65.6428 47.0537 69.1641 43.4242 65.2373 45.4666C66.2506 45.3301 64.7754 47.2929 64.755 47.4725C63.9265 49.5663 64.271 50.1022 64.1457 50.8352C64.0968 51.2143 63.9965 51.5972 63.7036 52.4118C63.3704 53.2425 63.0489 54.5078 61.5441 57.5269ZM37.2207 77.4893C35.5948 73.2205 36.5945 70.5667 36.7622 69.416C37.0461 68.2052 37.0004 68.0443 36.6984 68.2217C36.0962 68.5044 34.7952 70.8051 34.3494 68.6096C33.6373 71.0044 33.4623 73.9419 34.2363 76.6803C34.1555 75.9288 34.1384 75.193 34.1781 74.4601C34.1778 74.457 34.1774 74.4539 34.1771 74.4508C35.0521 75.7123 36.1094 76.7465 37.2207 77.4893ZM237.451 100.366C236.98 100.63 236.518 100.894 236.006 101.152C234.402 101.089 232.744 101.028 231.128 100.964C231.318 100.786 231.501 100.607 231.69 100.43C233.641 100.417 235.557 100.405 237.451 100.366ZM171.476 11.4361C173.793 11.9807 173.524 10.7157 176.594 11.0666C176.147 10.1519 175.663 9.2607 175.201 8.35645C172.894 8.67301 172.421 9.06985 169.863 9.03143C170.178 9.31258 170.503 9.59486 170.815 9.87808C171.236 9.78074 171.674 9.67316 172.07 9.58512C172.79 10.384 168.752 10.8172 171.468 11.4387C171.47 11.4378 171.473 11.437 171.476 11.4361ZM194.898 9.22431C196.121 9.24995 201.062 9.30679 201.679 8.86038C203.835 7.3507 190.138 9.32636 200.183 7.31257C200.121 7.13064 200.153 6.94472 200.137 6.76076C198.277 6.8501 196.427 6.94534 194.574 7.04315C194.733 7.76794 194.725 8.49689 194.898 9.22431ZM61.1675 37.342C62.8141 35.8433 70.8345 30.5804 67.6984 31.4039C66.7458 31.6162 63.6232 34.9257 62.2573 35.9288C61.3518 36.5697 61.9747 35.2363 60.3432 36.8381C60.6031 37.0016 60.853 37.214 61.1709 37.3367C61.1698 37.3385 61.1686 37.3402 61.1675 37.342ZM60.9428 42.7135C62.2162 41.229 63.6869 39.8425 65.249 38.5918C63.5812 38.8002 61.6557 41.0645 60.8366 40.4192C61.1844 39.9893 61.6054 39.5187 61.9683 39.1162C62.446 39.0221 62.9319 38.9322 63.415 38.8538C64.4534 37.3788 63.4301 37.6916 66.2671 36.0289C63.7843 35.8223 62.6399 35.1193 59.3011 40.3928C59.5781 38.9767 56.591 37.6288 55.7944 41.8315C55.6693 42.5732 57.6197 40.5779 57.6993 40.6327C58.5127 40.837 57.9053 42.2292 58.7199 42.369C59.0657 42.4359 60.1173 41.3134 60.5853 41.488C60.7926 41.5756 60.2853 42.9768 60.9428 42.7135ZM55.3471 43.6742C55.4011 42.7831 53.0028 44.387 52.3167 46.4728C51.3392 49.5502 54.1925 45.3034 55.3471 43.6742ZM237.462 100.365C237.458 100.365 237.455 100.365 237.451 100.366C237.453 100.365 237.455 100.364 237.457 100.363C237.458 100.363 237.46 100.364 237.462 100.365ZM188.51 9.21406C189.925 8.71853 192.082 8.60163 191.873 8.00847C192.585 8.07117 193.306 8.13111 194.024 8.19285C194.003 8.0112 193.975 7.8297 193.953 7.64991C191.821 7.70812 189.699 7.76292 187.569 7.81514C187.874 8.28156 188.159 8.75139 188.51 9.21406ZM211.642 7.70246C214.257 7.52338 211.997 6.90113 212.531 6.45076C213.112 5.99705 215.437 6.10147 215.136 5.55411C213.601 5.68024 211.974 5.80828 210.363 5.93285C210.848 6.51506 211.2 7.12059 211.647 7.70197C211.646 7.70214 211.644 7.7023 211.642 7.70246ZM86.5445 95.0256C84.7324 94.6533 85.5544 94.117 81.8649 94.4409C81.8676 94.4412 81.8703 94.4415 81.873 94.4418C85.2429 95.3567 89.6302 96.2616 93.4614 96.0916C91.2104 95.2249 89.3878 95.599 86.5445 95.0256ZM164.994 10.0566C164.275 10.612 167.842 10.7636 168.621 10.2387C169.83 9.39337 166.112 9.21147 164.994 10.0566ZM160.123 95.3756C162.94 93.878 157.722 92.0856 152.263 92.6826C151.784 92.7366 155.251 93.3144 154.212 93.5887C154.089 93.616 152.224 93.5313 151.719 93.7303C151.215 93.9305 151.72 94.4438 150.904 94.6288C149.49 94.9551 146.403 94.165 145.358 94.5953C145.208 94.6542 147.124 95.4009 147.267 95.4302C149.238 95.9093 151.164 95.0927 151.505 95.0968C153.102 95.1119 152.809 95.7857 153.208 95.9569C153.938 96.2781 155.294 96.0077 155.392 96.0321C157.824 96.686 152.268 96.3887 151.559 96.6088C149.476 97.2081 151.365 97.9002 146.512 98.0961C146.027 98.1137 140.605 97.8382 147.488 98.8941C133.649 99.8754 154.349 100.111 156.504 99.7036C157.494 99.5614 156.014 98.8797 156.618 98.5993C157.983 97.9587 160.418 97.8823 160.219 96.9341C159.737 94.9409 156.713 96.1887 154.453 95.7993C154.692 95.3737 154.789 94.9555 155.226 94.5435C154.601 95.1003 159.884 95.4915 160.123 95.3795C160.123 95.3782 160.123 95.3769 160.123 95.3756ZM126.011 95.6888C123.039 94.9008 123.178 96.1677 120.454 95.2887C117.952 96.2697 122.771 96.4756 123.311 96.5736C125.847 97.0138 125.696 98.2275 128.318 98.0303C127.495 97.2465 126.795 96.4668 126.011 95.6888ZM152.285 97.9918C150.266 98.5709 153.831 98.6582 153.987 98.7811C155.593 100.121 144.607 99.5477 152.285 97.9918ZM72.9888 33.0082C73.9368 32.5872 73.0716 32.335 73.8385 31.7631C74.5816 31.1894 77.7095 30.3484 77.4551 30.0557C77.2741 29.7048 71.4767 31.273 76.7665 28.6389C76.5032 28.5226 76.4988 28.3512 76.3354 28.2134C74.821 28.8787 73.3796 29.5383 71.8744 30.2773C72.9466 30.4288 74.0796 30.6013 75.0666 30.7952C74.4762 31.6071 73.7534 31.2637 73.7029 31.2876C73.7032 31.2881 73.7035 31.2887 73.7038 31.2893C72.1631 32.0832 70.9028 33.9606 72.9888 33.0082ZM61.257 90.1578C61.5561 89.4457 61.0296 89.3829 60.2996 89.4932C59.5226 89.5976 58.5448 89.87 58.0246 89.8466C56.996 89.8066 55.6948 88.8854 56.0671 89.6576C57.0928 90.2256 58.883 90.347 60.1324 90.3102C60.7776 90.2828 61.2337 90.2133 61.2573 90.1558C61.2572 90.1565 61.2571 90.1571 61.257 90.1578ZM109.604 94.7089C107.057 94.9168 107.428 95.3394 104.347 94.6778C104.44 95.0528 104.537 95.436 104.633 95.8056C107.109 95.9802 107.006 94.9042 109.824 95.5124C110.289 95.6121 109.239 96.4019 111.363 96.2581C110.781 95.7666 110.188 95.224 109.604 94.7089ZM96.9251 95.1772C99.8508 95.3531 102.383 92.5643 96.9189 93.4818C96.1078 93.617 94.7259 95.0403 96.9251 95.1772ZM54.0887 52.0771C56.0331 47.5925 53.5098 52.681 52.5259 53.3148C56.6103 43.0367 52.2468 55.1305 50.267 54.1764C50.0038 55.2426 48.8689 57.5852 50.9354 55.9745C51.7411 55.2531 51.1205 55.2462 51.1685 55.2014C52.4175 53.7518 52.9377 54.3765 54.0887 52.0771ZM131.221 95.9888C131.034 95.996 131.285 96.5314 130.683 96.586C130.095 96.6404 128.784 96.1842 128.629 96.4898C128.475 96.7945 131.145 97.2389 131.939 97.0814C132.795 96.9243 132.873 95.9292 131.221 95.9888ZM112.371 93.535C109.876 93.7536 113.819 95.8889 114.342 95.9098C119.084 96.0897 112.202 94.1274 112.371 93.535ZM48.8196 62.5032C49.4926 61.7562 49.9508 61.2004 50.2062 60.7715C50.852 59.7645 50.3398 59.5039 49.3735 59.5723C48.2578 59.6278 46.4446 60.2528 44.8514 61.105C44.6027 61.6043 44.3581 62.1186 44.1444 62.6193C44.5197 61.3496 45.377 59.8123 45.3171 59.4462C45.3069 59.126 44.017 59.6979 41.2781 63.7521C44.9857 60.0043 42.2724 63.5055 42.3336 63.5639C43.5822 65.2839 48.0519 59.755 48.8157 62.5063C48.817 62.5052 48.8183 62.5042 48.8196 62.5032ZM139.111 97.3388C141.821 97.5717 148.575 97.4354 145.466 96.3185C143.43 96.6916 141.362 97.0511 139.111 97.3388ZM130.992 20.4825C133.201 20.6771 135.083 20.3516 137.666 19.8971C135.233 19.4575 136.741 19.1167 137.475 18.7943C138.59 18.3071 135.768 18.7879 135.724 18.7404C135.668 17.9588 137.451 17.5372 133.289 18.2472C134.304 17.8008 135.236 17.3689 136.256 16.9289C133.052 17.4166 132.233 17.0413 130.08 16.778C132.313 17.9408 129.565 17.4392 127.345 18.6038C126.242 19.1846 129.907 20.3728 131.001 20.4811C130.998 20.4815 130.995 20.482 130.992 20.4825ZM54.0588 58.6046C54.3309 57.9029 54.4505 57.1633 54.5708 56.4546C54.9582 55.8599 55.3029 55.245 55.6053 54.6167C55.8597 54.6554 56.1181 54.7095 56.3726 54.7254C56.8599 53.9181 56.3868 54.0969 56.4781 53.8373C56.4793 53.8378 56.4805 53.8384 56.4817 53.8389C57.6187 50.175 58.0312 48.8276 60.0642 47.028C59.4394 46.6255 58.8146 46.2231 58.1899 45.8207C57.9053 46.3928 57.6382 46.9942 57.4028 47.5979C57.601 48.0828 57.8143 48.5558 58.0373 49.0213C57.5396 49.5648 57.056 50.152 56.5742 50.748C56.4823 51.3517 56.3534 52.0715 56.2724 52.6112C53.2025 54.5036 57.0862 48.8813 56.3586 48.4748C55.7811 48.2496 53.3891 54.4537 52.9616 55.2293C52.9056 55.3763 55.0876 55.0883 52.9027 56.6122C52.4645 56.8704 50.2293 54.6235 50.1203 58.2498C50.0471 58.7804 52.4348 59.6436 54.0588 58.6046ZM68.7933 40.7207C64.4897 40.747 77.3111 35.9617 71.3888 37.2711C72.3752 35.6177 72.1545 35.7434 70.1977 35.8234C70.0252 35.8278 70.9618 35.0046 70.8493 35.0288C69.1549 35.3884 67.5979 36.6344 67.1193 35.9052C66.752 36.1862 66.4468 36.4277 66.076 36.7237C68.0955 36.4134 65.8693 38.472 65.4002 39.6986C65.1713 40.2522 66.1812 39.6464 65.9915 40.1217C65.9037 40.2977 64.5394 41.072 64.6572 41.358C64.9715 41.948 66.2461 42.0319 67.8529 41.5119C67.8533 41.5124 67.8537 41.5129 67.854 41.5135C68.1566 41.2539 68.4601 40.9893 68.7933 40.7207ZM70.0374 86.8508C70.4811 88.1167 73.0042 88.8742 67.9794 88.6413C68.1849 88.9122 68.3988 89.1821 68.6062 89.4525C69.4437 89.5698 70.2533 89.6784 71.1055 89.7912C74.1586 86.7452 78.2248 91.254 75.602 88.4032C75.3156 88.0932 73.3081 88.1114 75.3507 87.6632C75.3481 87.6622 75.3456 87.6612 75.3431 87.6602C72.605 87.4978 72.1959 87.8574 70.0374 86.8508ZM52.1212 83.6246C48.7222 83.6352 50.6258 84.8348 53.2159 85.6335C55.7925 86.4328 59.012 86.7016 57.8398 86.087C57.6143 86.0568 51.1904 84.6583 52.1212 83.6246ZM102.278 89.0345C99.4715 88.7859 99.1671 90.1043 99.4173 90.61C99.6683 91.1168 101.669 90.7748 101.911 90.8682C102.712 91.1791 100.962 91.2185 102.001 91.6405C102.356 91.7831 107.259 92.5987 107.488 92.552C108.775 92.3135 106.997 91.0872 107.367 90.9841C108.58 90.6468 110.11 91.3206 110.499 90.754C111.306 89.5447 108.269 90.6771 107.759 90.6642C106.243 90.6249 106.431 89.9275 105.306 89.7093C104.182 89.4907 103.442 89.6817 102.441 89.5594C102.109 89.5186 102.422 89.0494 102.278 89.0345ZM92.707 91.1081C95.7461 90.3619 88.668 88.6096 87.8027 88.7452C85.2264 89.1949 91.2347 91.4755 92.707 91.1081ZM59.8434 44.1273C58.7658 46.5874 63.036 42.3486 64.3505 41.2012C63.9161 41.0691 60.1834 43.1586 59.8434 44.1273ZM47.6236 63.4939C49.2877 61.8067 45.7448 62.4853 44.3231 64.1012C44.3358 65.7264 44.8994 64.7184 45.862 63.8385C46.8415 62.9707 46.3921 64.8521 47.6236 63.4939ZM133.01 92.2493C132.457 92.1442 123.679 92.4503 128.661 93.1673C129.049 93.2026 135.128 93.5545 135.617 93.4875C136.603 93.2652 134.396 92.4153 133.01 92.2493ZM43.64 72.3149C42.7802 71.4133 43.1998 70.2583 41.8335 70.9329C41.8331 70.9344 41.8327 70.9359 41.8323 70.9373C42.4525 68.0032 44.7763 69.1182 44.9663 68.617C46.0263 66.8204 43.5278 67.5155 43.9767 66.0414C42.3951 69.1205 41.9905 67.7072 40.9119 70.1893C40.6174 70.7874 41.0204 73.1869 41.5343 73.3832C41.9532 73.6037 43.1025 72.6054 43.64 72.3149ZM145.105 93.0316C142.174 92.5347 139.497 93.8928 143.494 94.3665C145.51 94.588 146.82 93.3256 145.105 93.0316ZM199.546 14.2485C199.071 13.8851 198.581 13.5246 198.069 13.1679C199.134 12.983 200.211 12.7946 201.282 12.6058C200.444 12.8032 199.58 13.0003 198.745 13.1945C200.771 13.1677 201.781 13.8156 199.551 14.248C199.549 14.2482 199.547 14.2483 199.546 14.2485ZM270.912 12.5638C271.736 13.0619 273.66 12.1347 273.448 12.01C271.883 11.073 269.747 11.8695 270.912 12.5638ZM65.021 44.0226C67.4177 42.2767 64.6216 41.9596 63.0695 43.2113C64.1542 42.7204 63.7254 45.0615 65.021 44.0226ZM245.999 10.1919C245.706 10.0269 245.407 9.86327 245.07 9.70161C246.12 9.9177 246.294 10.0779 245.999 10.1919ZM131.761 90.4166C131.219 90.214 127.405 89.8184 126.875 89.9739C125.787 90.2928 128.671 91.5518 130.472 91.3614C130.643 91.3374 132.277 90.6085 131.753 90.4159C131.755 90.4162 131.758 90.4164 131.761 90.4166ZM204.175 14.6083C204.168 14.5903 204.17 14.5723 204.179 14.5551C204.177 14.5727 204.179 14.5905 204.175 14.6083ZM337.36 44.0187C337.358 43.9823 337.365 43.9511 337.382 43.9279C337.374 43.9561 337.372 43.9897 337.36 44.0187ZM104.99 87.0653C103.877 85.1326 100.898 85.9038 103.127 86.9837C103.254 87.0414 104.691 87.0415 104.99 87.0653Z" fill="#E8DCCD"/>
<path d="M119.283 52.8369C119.205 53.79 118.923 54.6416 118.439 55.3916C117.955 56.126 117.314 56.751 116.517 57.2666C115.986 57.5947 115.416 57.8916 114.806 58.1572C114.197 58.4229 113.588 58.626 112.978 58.7666C112.431 58.8916 111.892 58.9463 111.361 58.9307C110.845 58.915 110.322 58.876 109.791 58.8135C109.666 58.9541 109.509 59.0479 109.322 59.0947C109.15 59.1572 108.978 59.165 108.806 59.1182C108.447 59.0244 108.228 58.7979 108.15 58.4385C107.963 58.251 107.869 58.0244 107.869 57.7588C107.869 57.415 108.025 57.1416 108.338 56.9385C108.431 56.3135 108.502 55.6885 108.548 55.0635C108.611 54.4385 108.658 53.8057 108.689 53.165C108.736 52.415 108.775 51.6729 108.806 50.9385C108.838 50.2041 108.845 49.4619 108.83 48.7119C108.83 48.2432 108.814 47.7588 108.783 47.2588C108.752 46.7588 108.736 46.2666 108.736 45.7822C108.736 45.2822 108.759 44.79 108.806 44.3057C108.869 43.8213 108.986 43.3525 109.158 42.8994C109.08 42.6494 109.095 42.3916 109.205 42.126C109.314 41.8604 109.525 41.6963 109.838 41.6338C110.025 41.4307 110.244 41.3369 110.494 41.3525C110.759 41.3682 110.978 41.4541 111.15 41.6104C111.916 41.6729 112.658 41.8213 113.377 42.0557C114.111 42.2744 114.783 42.6338 115.392 43.1338C116.142 43.7275 116.744 44.4463 117.197 45.29C117.65 46.1182 118.017 46.9775 118.298 47.8682C118.423 48.2588 118.548 48.6572 118.673 49.0635C118.814 49.4697 118.931 49.8838 119.025 50.3057C119.134 50.7275 119.213 51.1494 119.259 51.5713C119.306 51.9932 119.314 52.415 119.283 52.8369ZM115.369 55.7666C115.572 55.6416 115.752 55.5166 115.908 55.3916C116.08 55.2666 116.252 55.1182 116.423 54.9463C116.564 54.79 116.673 54.665 116.752 54.5713C116.83 54.4775 116.923 54.3369 117.033 54.1494C117.298 53.6025 117.423 52.9854 117.408 52.2979C117.408 51.9072 117.377 51.5479 117.314 51.2197C117.252 50.876 117.158 50.4932 117.033 50.0713C116.908 49.6338 116.775 49.2041 116.634 48.7822C116.509 48.3447 116.361 47.9229 116.189 47.5166C116.064 47.1729 115.892 46.8057 115.673 46.415C115.47 46.0088 115.259 45.6729 115.041 45.4072C114.494 44.751 113.877 44.2822 113.189 44.001C112.502 43.7041 111.752 43.5322 110.939 43.4854C110.767 43.9229 110.658 44.3838 110.611 44.8682C110.58 45.3369 110.572 45.8135 110.588 46.2979C110.603 46.7822 110.627 47.2666 110.658 47.751C110.705 48.2354 110.72 48.7041 110.705 49.1572C110.642 50.4854 110.58 51.7979 110.517 53.0947C110.47 54.3916 110.361 55.6963 110.189 57.0088C110.47 57.04 110.752 57.0635 111.033 57.0791C111.33 57.0947 111.619 57.0869 111.9 57.0557C112.494 56.9932 113.088 56.8447 113.681 56.6104C114.291 56.3604 114.853 56.0791 115.369 55.7666ZM124.167 49.0869C124.183 48.79 124.292 48.5713 124.495 48.4307C124.698 48.2744 124.917 48.1963 125.152 48.1963C125.386 48.1963 125.589 48.2744 125.761 48.4307C125.948 48.5713 126.034 48.79 126.019 49.0869C126.019 49.1807 126.011 49.2822 125.995 49.3916C125.995 49.4854 125.995 49.5791 125.995 49.6729C126.495 49.4229 127.019 49.2119 127.566 49.04C128.128 48.8525 128.683 48.7354 129.23 48.6885C129.792 48.6416 130.331 48.6885 130.847 48.8291C131.378 48.9541 131.863 49.2041 132.3 49.5791C132.519 49.7822 132.613 50.001 132.581 50.2354C132.566 50.4697 132.472 50.6729 132.3 50.8447C132.144 51.001 131.941 51.1025 131.691 51.1494C131.441 51.1807 131.198 51.1025 130.964 50.915C130.792 50.7744 130.597 50.6729 130.378 50.6104C130.175 50.5479 129.948 50.5244 129.698 50.54C129.464 50.54 129.222 50.5635 128.972 50.6104C128.738 50.6572 128.511 50.7119 128.292 50.7744C127.464 51.04 126.691 51.3916 125.972 51.8291C126.003 52.5947 126.05 53.3604 126.113 54.126C126.175 54.7666 126.23 55.4307 126.277 56.1182C126.323 56.79 126.456 57.4307 126.675 58.04C126.769 58.3213 126.745 58.5557 126.605 58.7432C126.48 58.9463 126.3 59.0791 126.066 59.1416C125.847 59.2041 125.613 59.1885 125.363 59.0947C125.128 59.001 124.964 58.8135 124.87 58.5322C124.745 58.1729 124.659 57.8057 124.613 57.4307C124.566 57.0557 124.519 56.6807 124.472 56.3057C124.441 55.9463 124.402 55.5869 124.355 55.2275C124.323 54.8525 124.292 54.4854 124.261 54.126C124.183 53.2822 124.128 52.4463 124.097 51.6182C124.081 50.7744 124.105 49.9307 124.167 49.0869ZM136.762 49.5322C137.059 49.126 137.411 48.7666 137.817 48.4541C138.239 48.1416 138.684 47.8994 139.153 47.7275C139.622 47.54 140.106 47.4463 140.606 47.4463C141.106 47.4307 141.606 47.5244 142.106 47.7275C142.591 47.915 143.028 48.1729 143.419 48.501C143.809 48.8135 144.114 49.2197 144.333 49.7197C144.505 50.0947 144.606 50.501 144.637 50.9385C144.669 51.376 144.552 51.7744 144.286 52.1338C144.052 52.4619 143.762 52.7119 143.419 52.8838C143.091 53.0557 142.731 53.1807 142.341 53.2588C141.966 53.3369 141.575 53.376 141.169 53.376C140.778 53.376 140.403 53.3682 140.044 53.3525C139.637 53.3369 139.231 53.3057 138.825 53.2588C138.434 53.2119 138.036 53.165 137.63 53.1182C137.755 53.8213 138.005 54.4463 138.38 54.9932C138.755 55.54 139.262 55.9541 139.903 56.2354C140.075 56.2979 140.208 56.3447 140.302 56.376C140.348 56.3916 140.387 56.4072 140.419 56.4229C140.466 56.4229 140.512 56.4229 140.559 56.4229C140.684 56.4385 140.786 56.4541 140.864 56.4697C140.958 56.4697 141.044 56.4619 141.122 56.4463C141.231 56.4307 141.302 56.4229 141.333 56.4229C141.38 56.4072 141.427 56.3916 141.473 56.376C141.645 56.3291 141.794 56.2744 141.919 56.2119C142.059 56.1494 142.223 56.0479 142.411 55.9072C142.505 55.8291 142.63 55.7119 142.786 55.5557C142.942 55.3994 143.075 55.2588 143.184 55.1338C143.341 54.915 143.528 54.7666 143.747 54.6885C143.981 54.6104 144.216 54.6416 144.45 54.7822C144.653 54.9072 144.794 55.1025 144.872 55.3682C144.966 55.6182 144.934 55.8525 144.778 56.0713C144.325 56.6807 143.786 57.2041 143.161 57.6416C142.552 58.0635 141.848 58.29 141.052 58.3213C140.411 58.3525 139.794 58.2432 139.2 57.9932C138.606 57.7275 138.083 57.376 137.63 56.9385C137.067 56.3916 136.622 55.7588 136.294 55.04C135.966 54.3213 135.786 53.5869 135.755 52.8369C135.614 52.7275 135.505 52.5947 135.427 52.4385C135.364 52.2666 135.341 52.0947 135.356 51.9229C135.387 51.751 135.45 51.5947 135.544 51.4541C135.637 51.2979 135.778 51.1963 135.966 51.1494C136.137 50.5713 136.403 50.0322 136.762 49.5322ZM142.387 50.0947C142.216 49.876 141.95 49.6807 141.591 49.5088C141.294 49.3838 140.942 49.3213 140.536 49.3213C140.145 49.3213 139.809 49.3916 139.528 49.5322C139.169 49.7041 138.848 49.9463 138.567 50.2588C138.286 50.5557 138.059 50.8916 137.887 51.2666C138.262 51.3135 138.637 51.3604 139.012 51.4072C139.387 51.4541 139.762 51.4854 140.137 51.501C140.341 51.501 140.544 51.501 140.747 51.501C140.95 51.501 141.153 51.4932 141.356 51.4775C141.419 51.4775 141.473 51.4775 141.52 51.4775C141.583 51.4619 141.645 51.4541 141.708 51.4541C141.848 51.4229 141.95 51.4072 142.012 51.4072C142.091 51.3916 142.169 51.3682 142.247 51.3369C142.309 51.3213 142.387 51.2979 142.481 51.2666C142.559 51.2354 142.606 51.2119 142.622 51.1963C142.637 51.1807 142.661 51.165 142.692 51.1494L142.762 50.8682C142.731 50.8057 142.708 50.751 142.692 50.7041C142.692 50.6416 142.677 50.5869 142.645 50.54C142.63 50.4932 142.591 50.4229 142.528 50.3291C142.481 50.2354 142.434 50.1572 142.387 50.0947ZM149.147 56.376C149.147 55.7041 149.194 55.0244 149.288 54.3369C149.397 53.5088 149.506 52.6885 149.616 51.876C149.725 51.0479 149.772 50.2119 149.756 49.3682C149.756 49.0713 149.85 48.8447 150.038 48.6885C150.225 48.5322 150.436 48.4541 150.67 48.4541C150.905 48.4541 151.123 48.5322 151.327 48.6885C151.53 48.8447 151.631 49.0713 151.631 49.3682C152.241 49.3213 152.819 49.2979 153.366 49.2979C153.991 49.3135 154.522 49.4932 154.959 49.8369C155.397 50.1807 155.725 50.6416 155.944 51.2197C156.131 51.751 156.241 52.2979 156.272 52.8604C156.303 53.4229 156.327 53.9854 156.342 54.5479C156.358 55.3447 156.381 56.1416 156.413 56.9385C156.444 57.7197 156.459 58.5088 156.459 59.3057C156.459 59.6182 156.358 59.8447 156.155 59.9854C155.967 60.1416 155.756 60.2197 155.522 60.2197C155.303 60.2197 155.092 60.1416 154.889 59.9854C154.702 59.8447 154.608 59.6182 154.608 59.3057C154.608 58.5557 154.592 57.8213 154.561 57.1025C154.545 56.3838 154.522 55.6494 154.491 54.8994C154.459 54.4932 154.444 54.0791 154.444 53.6572C154.459 53.2197 154.428 52.8213 154.35 52.4619C154.303 52.2432 154.256 52.0557 154.209 51.8994C154.163 51.7275 154.077 51.5635 153.952 51.4072C153.92 51.3447 153.85 51.29 153.741 51.2432C153.647 51.1963 153.561 51.1729 153.483 51.1729C153.248 51.1729 153.03 51.1885 152.827 51.2197C152.623 51.251 152.413 51.2979 152.194 51.3604C152.1 51.3916 152.006 51.4229 151.913 51.4541C151.819 51.4854 151.733 51.5244 151.655 51.5713C151.498 52.1338 151.381 52.6729 151.303 53.1885C151.241 53.6885 151.178 54.1963 151.116 54.7119C151.069 55.0869 151.038 55.4697 151.022 55.8604C151.022 56.2354 151.006 56.6104 150.975 56.9854C150.959 57.3604 150.913 57.7354 150.834 58.1104C150.772 58.4854 150.655 58.8447 150.483 59.1885C150.342 59.4541 150.155 59.6025 149.92 59.6338C149.686 59.6807 149.467 59.6416 149.264 59.5166C149.077 59.4072 148.928 59.2354 148.819 59.001C148.725 58.7666 148.741 58.5166 148.866 58.251C149.006 57.9697 149.084 57.665 149.1 57.3369C149.116 57.0088 149.131 56.6885 149.147 56.376ZM161.32 64.626C161.664 64.9541 162.062 65.1807 162.516 65.3057C162.969 65.4463 163.422 65.4932 163.875 65.4463C164.328 65.3994 164.758 65.2666 165.164 65.0479C165.57 64.8291 165.906 64.5244 166.172 64.1338C166.734 63.3369 167.094 62.4541 167.25 61.4854C167.422 60.5322 167.492 59.5713 167.461 58.6025C166.711 58.7275 165.938 58.751 165.141 58.6729C164.359 58.6104 163.617 58.4463 162.914 58.1807C162.555 58.04 162.211 57.876 161.883 57.6885C161.57 57.4854 161.32 57.2041 161.133 56.8447C160.805 56.2354 160.664 55.5635 160.711 54.8291C160.742 54.126 160.859 53.4463 161.062 52.79C161.281 52.1182 161.523 51.4541 161.789 50.7979C161.93 50.4854 162.078 50.1572 162.234 49.8135C162.406 49.4541 162.625 49.1338 162.891 48.8525C163.156 48.5557 163.461 48.3291 163.805 48.1729C164.148 48.0166 164.516 47.9229 164.906 47.8916C164.844 47.6729 164.844 47.4697 164.906 47.2822C164.969 47.0791 165.102 46.915 165.305 46.79C165.508 46.665 165.742 46.6338 166.008 46.6963C166.289 46.7588 166.484 46.8994 166.594 47.1182C166.656 47.2588 166.711 47.3994 166.758 47.54C166.82 47.6807 166.875 47.8213 166.922 47.9619C167.234 48.8057 167.516 49.6572 167.766 50.5166C168.031 51.376 168.281 52.2432 168.516 53.1182C168.797 54.1494 169.008 55.1963 169.148 56.2588C169.289 57.3213 169.344 58.3994 169.312 59.4932C169.297 60.1025 169.242 60.7275 169.148 61.3682C169.07 62.0088 168.93 62.626 168.727 63.2197C168.523 63.8135 168.258 64.376 167.93 64.9072C167.602 65.4541 167.18 65.9229 166.664 66.3135C166.18 66.6885 165.641 66.9541 165.047 67.1104C164.469 67.2822 163.875 67.3525 163.266 67.3213C162.672 67.29 162.086 67.1572 161.508 66.9229C160.945 66.6885 160.445 66.3604 160.008 65.9385C159.789 65.7354 159.695 65.5088 159.727 65.2588C159.758 65.0244 159.859 64.8213 160.031 64.6494C160.188 64.4932 160.383 64.3994 160.617 64.3682C160.867 64.3369 161.102 64.4229 161.32 64.626ZM163.922 56.54C164.469 56.6807 165.031 56.7822 165.609 56.8447C166.203 56.8916 166.773 56.8525 167.32 56.7275C167.227 55.9307 167.086 55.165 166.898 54.4307C166.727 53.6963 166.531 52.9541 166.312 52.2041C166.188 51.7666 166.055 51.3369 165.914 50.915C165.789 50.4932 165.656 50.0713 165.516 49.6494C165.469 49.6807 165.414 49.7041 165.352 49.7197C165.289 49.7197 165.219 49.7275 165.141 49.7432C164.672 49.7432 164.312 49.9541 164.062 50.376C163.891 50.6416 163.75 50.9229 163.641 51.2197C163.609 51.2979 163.578 51.376 163.547 51.4541C163.516 51.5166 163.484 51.5869 163.453 51.665C163.219 52.2275 163.016 52.7744 162.844 53.3057C162.688 53.8213 162.594 54.3291 162.562 54.8291V55.251C162.578 55.3604 162.594 55.4463 162.609 55.5088C162.641 55.6494 162.656 55.7354 162.656 55.7666C162.672 55.7979 162.719 55.876 162.797 56.001C162.891 56.0791 162.977 56.1416 163.055 56.1885C163.133 56.2354 163.18 56.2666 163.195 56.2822C163.32 56.3291 163.438 56.376 163.547 56.4229C163.672 56.4697 163.797 56.5088 163.922 56.54ZM187.777 60.5479C187.308 60.6729 186.878 60.6885 186.488 60.5947C186.097 60.5166 185.745 60.3525 185.433 60.1025C185.136 59.8682 184.878 59.5713 184.659 59.2119C184.441 58.8682 184.261 58.4932 184.12 58.0869C183.855 57.29 183.667 56.4775 183.558 55.6494C183.464 54.8213 183.394 53.9932 183.347 53.165C183.3 52.4775 183.253 51.7979 183.206 51.126C183.159 50.4385 183.128 49.751 183.113 49.0635C183.097 48.2197 183.12 47.3057 183.183 46.3213C183.261 45.3213 183.441 44.3682 183.722 43.4619C184.019 42.54 184.448 41.7275 185.011 41.0244C185.589 40.3213 186.37 39.8369 187.355 39.5713C187.652 39.4932 187.894 39.5322 188.081 39.6885C188.284 39.8291 188.417 40.0166 188.48 40.251C188.542 40.4697 188.527 40.6963 188.433 40.9307C188.339 41.1494 188.152 41.2979 187.87 41.376C187.417 41.501 187.034 41.6963 186.722 41.9619C186.425 42.2119 186.167 42.5557 185.948 42.9932C185.558 43.7432 185.3 44.5635 185.175 45.4541C185.066 46.3447 185.003 47.2275 184.988 48.1025C184.972 48.8213 184.988 49.5322 185.034 50.2354C185.081 50.9385 185.128 51.6494 185.175 52.3682C185.206 53.1963 185.253 53.9775 185.316 54.7119C185.378 55.4463 185.519 56.2041 185.738 56.9854C185.769 57.0947 185.8 57.1963 185.831 57.29C185.863 57.3838 185.894 57.4854 185.925 57.5947C185.972 57.7354 185.995 57.8135 185.995 57.8291C186.011 57.8291 186.019 57.8369 186.019 57.8525C186.066 57.9619 186.105 58.0479 186.136 58.1104C186.183 58.1729 186.23 58.2354 186.277 58.2979C186.37 58.4385 186.417 58.5088 186.417 58.5088L186.628 58.7197C186.769 58.7666 186.847 58.79 186.863 58.79C186.878 58.8057 186.894 58.8135 186.909 58.8135C187.081 58.7979 187.175 58.7822 187.191 58.7666C187.206 58.7666 187.23 58.7666 187.261 58.7666C187.558 58.6885 187.8 58.7197 187.988 58.8604C188.191 59.0166 188.323 59.2041 188.386 59.4229C188.448 59.6416 188.433 59.8604 188.339 60.0791C188.245 60.3135 188.058 60.4697 187.777 60.5479ZM200.583 45.0088C200.536 45.6963 200.45 46.3838 200.325 47.0713C200.216 47.7432 200.177 48.4229 200.208 49.1104C200.239 49.8604 200.27 50.6104 200.302 51.3604C200.333 52.1104 200.341 52.8682 200.325 53.6338C200.294 54.4307 200.27 55.2275 200.255 56.0244C200.239 56.8213 200.239 57.6182 200.255 58.415C200.255 58.7119 200.153 58.9307 199.95 59.0713C199.763 59.2275 199.552 59.3057 199.317 59.3057C199.083 59.3057 198.864 59.2275 198.661 59.0713C198.473 58.9307 198.38 58.7119 198.38 58.415C198.364 57.29 198.38 56.1729 198.427 55.0635C198.473 53.9541 198.489 52.8369 198.473 51.7119C197.38 52.0244 196.223 52.0791 195.005 51.876C194.723 51.8291 194.427 51.7822 194.114 51.7354C193.802 51.6729 193.497 51.5947 193.2 51.501C192.903 51.4072 192.622 51.2822 192.356 51.126C192.091 50.9697 191.864 50.7666 191.677 50.5166C191.505 50.2666 191.388 49.9854 191.325 49.6729C191.278 49.3604 191.27 49.0479 191.302 48.7354C191.348 48.4072 191.411 48.0869 191.489 47.7744C191.583 47.4619 191.684 47.1729 191.794 46.9072C192.091 46.1729 192.45 45.4775 192.872 44.8213C193.294 44.165 193.778 43.5635 194.325 43.0166C194.731 42.6104 195.177 42.251 195.661 41.9385C196.145 41.626 196.661 41.3838 197.208 41.2119C197.567 41.0869 197.942 41.0166 198.333 41.001C198.723 40.9854 199.083 41.0791 199.411 41.2822C199.723 41.4697 199.966 41.7119 200.138 42.0088C200.309 42.29 200.427 42.6025 200.489 42.9463C200.567 43.29 200.606 43.6416 200.606 44.001C200.606 44.3447 200.598 44.6807 200.583 45.0088ZM198.755 44.4932C198.755 44.3369 198.755 44.1807 198.755 44.0244C198.755 43.8682 198.747 43.7119 198.731 43.5557C198.716 43.5557 198.7 43.5166 198.684 43.4385C198.684 43.3447 198.677 43.2822 198.661 43.251C198.598 43.0635 198.552 42.9619 198.52 42.9463L198.192 42.876C197.692 42.9854 197.247 43.1572 196.856 43.3916C196.466 43.626 196.098 43.9072 195.755 44.2354C194.864 45.1104 194.169 46.1025 193.669 47.2119C193.559 47.4463 193.458 47.6885 193.364 47.9385C193.286 48.1885 193.231 48.4385 193.2 48.6885C193.2 48.7979 193.192 48.9072 193.177 49.0166C193.177 49.1104 193.184 49.2041 193.2 49.2979L193.388 49.5557C193.544 49.6182 193.645 49.6572 193.692 49.6729C193.739 49.6885 193.786 49.7041 193.833 49.7197C194.395 49.8604 194.958 49.9775 195.52 50.0713C196.552 50.2432 197.505 50.1494 198.38 49.79C198.364 49.5557 198.348 49.3213 198.333 49.0869C198.333 48.8369 198.341 48.5947 198.356 48.3604C198.388 48.0791 198.419 47.7979 198.45 47.5166C198.481 47.2354 198.513 46.9619 198.544 46.6963C198.591 46.3369 198.63 45.9775 198.661 45.6182C198.708 45.2432 198.739 44.8682 198.755 44.4932ZM216.038 56.7979C216.1 57.0166 216.069 57.2588 215.944 57.5244C215.834 57.7744 215.647 57.9229 215.381 57.9697C213.741 58.1885 212.084 58.2432 210.413 58.1338C208.741 58.0244 207.1 57.7588 205.491 57.3369C205.272 57.29 205.108 57.1963 204.998 57.0557C204.905 56.915 204.85 56.7588 204.834 56.5869C204.819 56.415 204.842 56.2432 204.905 56.0713C204.983 55.8994 205.1 55.751 205.256 55.626C206.084 55.0322 206.889 54.415 207.67 53.7744C208.467 53.1338 209.233 52.4541 209.967 51.7354C210.295 51.4229 210.616 51.0947 210.928 50.751C211.241 50.4072 211.53 50.0557 211.795 49.6963C212.077 49.3369 212.358 48.9541 212.639 48.5479C212.92 48.1416 213.123 47.7119 213.248 47.2588C213.342 46.915 213.373 46.5791 213.342 46.251C213.311 45.9072 213.225 45.5869 213.084 45.29C212.944 44.9932 212.741 44.7354 212.475 44.5166C212.225 44.2979 211.92 44.1338 211.561 44.0244C211.155 43.8994 210.748 43.8369 210.342 43.8369C209.936 43.8369 209.522 43.8838 209.1 43.9775C208.694 44.0557 208.288 44.165 207.881 44.3057C207.491 44.4307 207.108 44.5635 206.733 44.7041C206.452 44.7979 206.209 44.7822 206.006 44.6572C205.819 44.5166 205.694 44.3369 205.631 44.1182C205.569 43.8838 205.584 43.6494 205.678 43.415C205.772 43.165 205.959 42.9932 206.241 42.8994C206.741 42.7275 207.248 42.5635 207.764 42.4072C208.295 42.251 208.827 42.1338 209.358 42.0557C209.889 41.9775 210.42 41.9619 210.952 42.0088C211.483 42.0557 212.006 42.1885 212.522 42.4072C213.459 42.8135 214.178 43.4541 214.678 44.3291C215.178 45.1885 215.35 46.1338 215.194 47.165C215.1 47.7588 214.913 48.3135 214.631 48.8291C214.35 49.3291 214.03 49.8135 213.67 50.2822C213.045 51.1729 212.366 51.9854 211.631 52.7197C211.038 53.3135 210.428 53.876 209.803 54.4072C209.194 54.9385 208.561 55.4541 207.905 55.9541C209.061 56.1729 210.225 56.3057 211.397 56.3525C212.584 56.3838 213.748 56.3213 214.889 56.165C215.155 56.1338 215.389 56.165 215.592 56.2588C215.811 56.3525 215.959 56.5322 216.038 56.7979ZM228.867 50.751C229.164 50.7666 229.391 50.876 229.547 51.0791C229.703 51.2666 229.781 51.4775 229.781 51.7119C229.781 51.9463 229.703 52.1572 229.547 52.3447C229.391 52.5322 229.164 52.626 228.867 52.626C228.195 52.6104 227.516 52.5791 226.828 52.5322C226.156 52.4854 225.477 52.4541 224.789 52.4385C224.117 52.4072 223.438 52.4072 222.75 52.4385C222.078 52.4697 221.406 52.54 220.734 52.6494C220.469 52.6963 220.227 52.6729 220.008 52.5791C219.805 52.4697 219.664 52.2822 219.586 52.0166C219.508 51.7822 219.531 51.54 219.656 51.29C219.781 51.04 219.977 50.8994 220.242 50.8682C220.961 50.7432 221.68 50.665 222.398 50.6338C223.117 50.5869 223.836 50.5713 224.555 50.5869C225.273 50.6025 225.992 50.6338 226.711 50.6807C227.43 50.7119 228.148 50.7354 228.867 50.751ZM234.994 58.5322C234.728 58.4541 234.541 58.3057 234.431 58.0869C234.337 57.8682 234.314 57.6338 234.361 57.3838C234.595 56.1182 234.759 54.8525 234.853 53.5869C234.947 52.3213 235.002 51.0557 235.017 49.79C235.033 48.5088 235.025 47.2275 234.994 45.9463C234.978 44.665 234.97 43.3916 234.97 42.126C234.97 41.8291 235.064 41.6104 235.252 41.4697C235.455 41.3135 235.673 41.2354 235.908 41.2354C236.142 41.2354 236.353 41.3135 236.541 41.4697C236.744 41.6104 236.845 41.8291 236.845 42.126C236.845 43.4385 236.853 44.7588 236.869 46.0869C236.9 47.3994 236.9 48.7119 236.869 50.0244C236.853 51.3369 236.791 52.6494 236.681 53.9619C236.572 55.2744 236.392 56.5791 236.142 57.876C236.095 58.126 235.947 58.3135 235.697 58.4385C235.462 58.5635 235.228 58.5947 234.994 58.5322ZM253.261 56.7979C253.323 57.0166 253.292 57.2588 253.167 57.5244C253.058 57.7744 252.87 57.9229 252.605 57.9697C250.964 58.1885 249.308 58.2432 247.636 58.1338C245.964 58.0244 244.323 57.7588 242.714 57.3369C242.495 57.29 242.331 57.1963 242.222 57.0557C242.128 56.915 242.073 56.7588 242.058 56.5869C242.042 56.415 242.066 56.2432 242.128 56.0713C242.206 55.8994 242.323 55.751 242.48 55.626C243.308 55.0322 244.112 54.415 244.894 53.7744C245.691 53.1338 246.456 52.4541 247.191 51.7354C247.519 51.4229 247.839 51.0947 248.152 50.751C248.464 50.4072 248.753 50.0557 249.019 49.6963C249.3 49.3369 249.581 48.9541 249.862 48.5479C250.144 48.1416 250.347 47.7119 250.472 47.2588C250.566 46.915 250.597 46.5791 250.566 46.251C250.534 45.9072 250.448 45.5869 250.308 45.29C250.167 44.9932 249.964 44.7354 249.698 44.5166C249.448 44.2979 249.144 44.1338 248.784 44.0244C248.378 43.8994 247.972 43.8369 247.566 43.8369C247.159 43.8369 246.745 43.8838 246.323 43.9775C245.917 44.0557 245.511 44.165 245.105 44.3057C244.714 44.4307 244.331 44.5635 243.956 44.7041C243.675 44.7979 243.433 44.7822 243.23 44.6572C243.042 44.5166 242.917 44.3369 242.855 44.1182C242.792 43.8838 242.808 43.6494 242.902 43.415C242.995 43.165 243.183 42.9932 243.464 42.8994C243.964 42.7275 244.472 42.5635 244.987 42.4072C245.519 42.251 246.05 42.1338 246.581 42.0557C247.112 41.9775 247.644 41.9619 248.175 42.0088C248.706 42.0557 249.23 42.1885 249.745 42.4072C250.683 42.8135 251.402 43.4541 251.902 44.3291C252.402 45.1885 252.573 46.1338 252.417 47.165C252.323 47.7588 252.136 48.3135 251.855 48.8291C251.573 49.3291 251.253 49.8135 250.894 50.2822C250.269 51.1729 249.589 51.9854 248.855 52.7197C248.261 53.3135 247.652 53.876 247.027 54.4072C246.417 54.9385 245.784 55.4541 245.128 55.9541C246.284 56.1729 247.448 56.3057 248.62 56.3525C249.808 56.3838 250.972 56.3213 252.112 56.165C252.378 56.1338 252.612 56.165 252.816 56.2588C253.034 56.3525 253.183 56.5322 253.261 56.7979ZM263.817 59.3291C263.38 59.4385 262.919 59.4932 262.434 59.4932C261.966 59.5088 261.497 59.4697 261.028 59.376C260.575 59.2822 260.138 59.126 259.716 58.9072C259.294 58.6885 258.934 58.3994 258.638 58.04C258.278 57.6182 258.013 57.1729 257.841 56.7041C257.684 56.2197 257.606 55.7354 257.606 55.251C257.606 54.751 257.669 54.251 257.794 53.751C257.934 53.2354 258.114 52.7432 258.333 52.2744C258.645 51.6025 259.005 50.9619 259.411 50.3525C259.817 49.7432 260.247 49.1416 260.7 48.5479C260.388 48.3291 260.083 48.1104 259.786 47.8916C259.489 47.6729 259.2 47.4307 258.919 47.165C258.591 46.8525 258.278 46.501 257.981 46.1104C257.684 45.7041 257.52 45.251 257.489 44.751C257.473 44.3135 257.575 43.9463 257.794 43.6494C258.013 43.3525 258.286 43.1025 258.614 42.8994C258.958 42.6963 259.325 42.54 259.716 42.4307C260.122 42.3057 260.497 42.2119 260.841 42.1494C261.513 42.0244 262.177 41.9385 262.833 41.8916C263.505 41.8447 264.177 41.8057 264.848 41.7744C264.895 41.6025 264.934 41.4307 264.966 41.2588C265.013 41.0869 265.059 40.915 265.106 40.7432C265.184 40.4619 265.333 40.2744 265.552 40.1807C265.786 40.0869 266.013 40.0713 266.231 40.1338C266.466 40.1963 266.653 40.3291 266.794 40.5322C266.95 40.7197 266.989 40.9541 266.911 41.2354L266.77 41.7979C266.958 41.8916 267.083 42.04 267.145 42.2432C267.223 42.4307 267.239 42.626 267.192 42.8291C267.161 43.0166 267.067 43.1885 266.911 43.3447C266.77 43.501 266.575 43.5791 266.325 43.5791C266.184 43.9541 266.036 44.29 265.88 44.5869C265.583 45.2744 265.208 45.915 264.755 46.5088C264.317 47.0869 263.856 47.665 263.372 48.2432C263.466 48.29 263.552 48.3525 263.63 48.4307C264.098 48.8369 264.505 49.2979 264.848 49.8135C265.208 50.3135 265.536 50.8369 265.833 51.3838C266.145 51.9463 266.411 52.54 266.63 53.165C266.864 53.79 266.997 54.4307 267.028 55.0869C267.075 56.1182 266.802 57.0244 266.208 57.8057C265.63 58.5713 264.833 59.0791 263.817 59.3291ZM259.645 45.2197C259.817 45.4229 259.989 45.6104 260.161 45.7822C260.348 45.9385 260.552 46.1025 260.77 46.2744C261.145 46.5713 261.513 46.8447 261.872 47.0947C261.919 47.0479 261.966 47.001 262.013 46.9541C262.059 46.9072 262.098 46.8525 262.13 46.79C262.473 46.3838 262.809 45.9697 263.138 45.5479C263.481 45.126 263.778 44.6729 264.028 44.1885C264.059 44.1104 264.098 44.0244 264.145 43.9307C264.192 43.8369 264.231 43.751 264.263 43.6729C263.638 43.6885 263.02 43.7354 262.411 43.8135C262.036 43.8447 261.645 43.8994 261.239 43.9775C260.833 44.0557 260.434 44.165 260.044 44.3057C259.903 44.3682 259.809 44.4072 259.763 44.4229C259.731 44.4229 259.7 44.4385 259.669 44.4697C259.544 44.5479 259.473 44.5869 259.458 44.5869L259.388 44.8213C259.419 44.8994 259.458 44.9775 259.505 45.0557C259.552 45.1182 259.598 45.1729 259.645 45.2197ZM260.255 57.0322C260.895 57.4541 261.598 57.6572 262.364 57.6416C262.723 57.6416 263.075 57.6025 263.419 57.5244C263.763 57.4307 264.091 57.2744 264.403 57.0557C264.481 56.9775 264.567 56.8916 264.661 56.7979C264.77 56.6885 264.856 56.5635 264.919 56.4229C265.028 56.1729 265.091 55.9932 265.106 55.8838C265.153 55.6807 265.177 55.4619 265.177 55.2275C265.145 54.6338 265.013 54.0557 264.778 53.4932C264.544 52.9307 264.278 52.3994 263.981 51.8994C263.841 51.6494 263.692 51.3916 263.536 51.126C263.38 50.8604 263.192 50.6182 262.973 50.3994C262.848 50.2744 262.723 50.1494 262.598 50.0244C262.473 49.8994 262.341 49.7822 262.2 49.6729C262.169 49.7197 262.13 49.7666 262.083 49.8135C262.036 49.8604 261.997 49.9072 261.966 49.9541C261.684 50.3291 261.388 50.7354 261.075 51.1729C260.778 51.5947 260.505 52.0322 260.255 52.4854C260.005 52.9385 259.802 53.4072 259.645 53.8916C259.489 54.3604 259.419 54.8291 259.434 55.2979C259.45 55.626 259.528 55.9541 259.669 56.2822C259.825 56.6104 260.02 56.8604 260.255 57.0322ZM271.35 39.5713C271.819 39.4463 272.241 39.4307 272.616 39.5244C273.006 39.6025 273.35 39.7666 273.647 40.0166C273.959 40.251 274.225 40.5479 274.444 40.9072C274.678 41.2666 274.866 41.6416 275.006 42.0322C275.272 42.8291 275.452 43.6416 275.545 44.4697C275.639 45.2979 275.717 46.126 275.78 46.9541C275.811 47.6416 275.85 48.3291 275.897 49.0166C275.944 49.6885 275.975 50.3682 275.991 51.0557C276.006 51.8994 275.975 52.8213 275.897 53.8213C275.834 54.8057 275.663 55.7588 275.381 56.6807C275.1 57.5869 274.67 58.3916 274.092 59.0947C273.514 59.8135 272.733 60.2979 271.748 60.5479C271.467 60.626 271.225 60.5869 271.022 60.4307C270.819 60.29 270.686 60.1104 270.623 59.8916C270.561 59.6729 270.577 59.4463 270.67 59.2119C270.764 58.9932 270.959 58.8447 271.256 58.7666C271.709 58.6416 272.084 58.4463 272.381 58.1807C272.678 57.915 272.944 57.5635 273.178 57.126C273.569 56.376 273.819 55.5557 273.928 54.665C274.053 53.7744 274.123 52.8916 274.139 52.0166C274.155 51.2979 274.131 50.5869 274.069 49.8838C274.022 49.1807 273.983 48.4697 273.952 47.751C273.905 46.9229 273.85 46.1416 273.788 45.4072C273.741 44.6729 273.608 43.915 273.389 43.1338C273.358 43.04 273.327 42.9463 273.295 42.8525C273.264 42.7432 273.233 42.6416 273.202 42.5479C273.139 42.3916 273.1 42.3057 273.084 42.29C273.084 42.2588 273.077 42.2354 273.061 42.2197C273.014 42.0635 272.944 41.9307 272.85 41.8213L272.709 41.6104C272.584 41.4854 272.514 41.4229 272.498 41.4229C272.358 41.3604 272.272 41.3291 272.241 41.3291C272.225 41.3135 272.209 41.3057 272.194 41.3057C272.022 41.3213 271.905 41.3447 271.842 41.376C271.561 41.4541 271.319 41.4229 271.116 41.2822C270.928 41.126 270.803 40.9385 270.741 40.7197C270.678 40.4854 270.694 40.2588 270.788 40.04C270.881 39.8057 271.069 39.6494 271.35 39.5713Z" fill="#4A2F2C"/>
</svg>
