<svg width="40" height="40" viewBox="0 0 40 40" fill="none" xmlns="http://www.w3.org/2000/svg">
<path d="M25 15.5C25.0438 14.7258 26 14 24.9095 12.5719C24.8441 12.4862 24.2879 12.3905 24.2302 12.3807C24.0009 12.35 23.5109 12.238 22.7141 12.1472C21.7743 12.1525 20.7104 11.9112 20.5 12C19.9652 12.2258 19.3618 12.0179 18.5 12.2654C17.6305 12.5152 17.4873 13.4185 17.3348 13.7349C17.1389 14.141 17.2962 15.4166 17.2925 15.7535C17.2846 16.462 17.3127 17.0157 17.3348 17.4487C17.4087 18.8998 17.7182 19.4038 17.5102 19.6691C17.4718 19.7179 17.3917 19.7563 17.1641 19.7555C16.0791 19.7518 14.9164 19.2409 14.8566 19.717C14.8249 19.9691 14.9524 20.286 14.9574 21.2749C14.9644 22.679 14.9261 23.7357 15.0576 23.7365C15.6686 23.7404 16.9508 23.5697 17.1625 23.8994C17.2057 23.9668 17.2113 24.0792 17.2497 24.8458L17.251 24.8728C17.2906 25.6638 17.3624 27.0884 17.4023 27.8353C17.4421 28.5822 17.4522 28.6494 17.4537 29.1289C17.458 30.474 17.4716 31.4853 17.3367 31.569C17.2782 31.6054 17.1907 31.5925 17.1237 31.5562C16.839 31.4016 16.136 31.0804 14.8623 30.524C14.1911 30.2307 13.815 30.0391 13.5851 29.8991C13.1074 29.6082 12.6061 29.3816 12.3319 29.2089C11.975 28.9843 11.0698 28.0509 10.4762 27.2131C10.2719 26.9248 10.0468 26.6528 9.85669 26.4017C9.39489 25.7919 8.79812 24.9403 8.66852 24.3024C8.51265 23.5352 8.45499 22.6408 8.38403 21.9947C8.35145 21.6982 8.33558 21.3588 8.20245 20.8315C8.06489 20.2867 7.9425 19.5101 8.02877 18.6264C8.09808 17.9163 8.2419 17.3964 8.3919 16.9241C8.56566 16.377 8.75947 15.7529 9.1076 15.1797C9.45777 14.6033 9.70421 14.2497 9.95955 13.7349C10.1416 13.3678 11.0042 11.6616 11.2928 11.3645C11.7993 10.8433 12.2287 10.3598 12.5741 10.2267C13.1747 9.99511 13.6661 9.53268 14.9716 8.95135C15.4731 8.728 16.1906 8.44803 16.7559 8.26541C17.3212 8.08279 17.7221 8.00003 18.8273 8C19.9324 7.99997 21.6886 8.08024 22.7506 8.17984C23.8125 8.27945 24.1775 8.37782 24.527 8.55345C25.232 8.90771 25.8009 9.02137 26.9329 9.85547C27.3474 10.1609 27.8353 10.5534 28.2588 10.986C29.2914 12.0407 29.3611 12.5719 29.7336 13.2492C29.9952 13.7247 30.6106 14.3925 30.7729 14.8601C31.1122 15.8376 31.3375 16.9627 31.4034 17.3965C31.4555 17.7403 31.6232 18.0848 31.8328 19.1016C31.9402 19.6229 32.0831 20.4267 31.9392 21.2789C31.7933 22.1434 31.3515 23.3088 31.0583 23.8561C30.7674 24.399 30.5412 24.6065 29.975 25.6494C29.4341 26.6456 29.0681 27.3796 28.7021 27.8037C28.0427 28.5676 27.5514 29.1132 27.0566 29.4571C26.6575 29.7345 25.9821 30.2218 25.3729 30.556C24.2858 31.1523 23.723 31.4458 23.5028 31.4877C22.8333 31.6152 21.5828 32.3195 21.4227 31.8277C21.3431 31.5831 21.2713 31.1162 21.2856 29.5308C21.2965 28.3219 21.331 26.0883 21.3964 24.9584C21.4618 23.8284 21.5548 23.8001 21.6413 23.785C21.803 23.7569 22.1695 23.5514 22.89 23.5143C24.4142 23.4358 24.692 23.4193 24.9962 23.3564C25.0692 23.3413 25.129 23.3242 25.1593 23.1801C25.1896 23.036 25.2036 22.7709 25.1227 22.2438C24.923 20.9432 24.8103 20.0549 24.721 19.9266C24.6846 19.8744 24.6301 19.8651 24.003 19.8584C23.376 19.8517 22.6063 19.7813 22 19.7555C21.3937 19.7297 21.0263 19.0542 21 19C20.9495 18.8959 21 18.5 21.0555 17.4844C21.0993 16.6825 21.7367 16.7509 22.2407 16.6817C22.7449 16.6124 24.5 17.5 25 16C25.0738 15.7786 24.9907 15.6646 25 15.5Z" fill="#F6F3EE" stroke="#F6F3EE" stroke-width="1.5" stroke-linecap="round"/>
</svg>
