<svg width="40" height="40" viewBox="0 0 40 40" fill="none" xmlns="http://www.w3.org/2000/svg">
<path d="M8.38384 8.68113L7.65058 8.52356L8.38384 8.68113ZM13.5414 7.89971L13.3517 8.62532L13.5414 7.89971ZM14.1084 8.04794L13.9186 8.77354L14.1084 8.04794ZM14.6753 8.19616L14.865 7.47055L14.6753 8.19616ZM16.9611 7.95317L16.7947 7.22187L16.9611 7.95317ZM18.6729 7.88948L18.629 8.63819L18.6729 7.88948ZM20.3807 8.00872L20.3117 8.75554L20.3807 8.00872ZM23.2251 8.29838L23.1386 9.04338L23.2251 8.29838ZM23.7938 8.3644L23.7073 9.1094L23.7938 8.3644ZM24.9338 8.37368L24.8597 7.62735L24.9338 8.37368ZM26.0766 8.26021L26.0025 7.51388L26.0766 8.26021ZM30.6293 8.6455L30.4324 9.3692L30.6293 8.6455ZM31.2436 9.22784L31.989 9.14505L31.2436 9.22784ZM31.3387 10.0841L30.5933 10.1669L31.3387 10.0841ZM31.4213 10.9744L32.1691 10.9177L31.4213 10.9744ZM31.4914 11.8987L30.7436 11.9555L31.4914 11.8987ZM31.1592 12.799L30.5845 12.3172L31.1592 12.799ZM30.792 13.2371L30.2172 12.7552L30.792 13.2371ZM30.4247 13.6752L30.9995 14.157L30.4247 13.6752ZM29.769 14.6284L30.4234 14.9948L29.769 14.6284ZM28.4333 16.511L27.9963 15.9015L28.4333 16.511ZM27.9629 16.8483L27.5259 16.2388L27.9629 16.8483ZM27.4925 17.1856L27.9295 17.7951L27.4925 17.1856ZM26.5522 17.8606L26.99 18.4696L26.5522 17.8606ZM25.6125 18.5363L25.1747 17.9273L25.6125 18.5363ZM25.0265 19.4415L25.7613 19.5919L25.0265 19.4415ZM24.9104 20.0088L24.1756 19.8584L24.9104 20.0088ZM24.7942 20.5762L24.0595 20.4258L24.7942 20.5762ZM24.6789 21.7136L25.4289 21.7125L24.6789 21.7136ZM24.6806 22.8536L23.9306 22.8547L24.6806 22.8536ZM25.0523 26.2736L24.3037 26.2285L25.0523 26.2736ZM24.9836 27.4136L25.7323 27.4587L24.9836 27.4136ZM24.2481 28.8044L23.6778 28.3173L24.2481 28.8044ZM23.8976 29.2149L24.4678 29.702L23.8976 29.2149ZM22.9787 29.7248L23.108 30.4635L22.9787 29.7248ZM21.8421 29.9237L21.9714 30.6625L21.8421 29.9237ZM20.7413 30.2277L20.4724 29.5276L20.7413 30.2277ZM19.6763 30.6368L19.9452 31.3369L19.6763 30.6368ZM18.6124 31.0489L18.3395 30.3503L18.6124 31.0489ZM18.081 31.2565L18.3539 31.9551L18.081 31.2565ZM17.5495 31.4641L17.8224 32.1627L17.5495 31.4641ZM16.823 31.4816L17.3465 30.9445L16.823 31.4816ZM16.628 31.2915L16.1045 31.8286L16.628 31.2915ZM16.433 31.1014L15.9095 31.6385L16.433 31.1014ZM16.1862 30.3413L15.4393 30.409L16.1862 30.3413ZM16.0829 29.2013L16.8298 29.1335L16.0829 29.2013ZM15.9089 28.0613L15.1756 28.2186L15.9089 28.0613ZM15.7866 27.4913L15.0533 27.6486L15.7866 27.4913ZM15.6643 26.9213L16.3976 26.764L15.6643 26.9213ZM15.5476 24.6413L14.7976 24.6388L15.5476 24.6413ZM15.5294 23.5013L14.7799 23.5276L15.5294 23.5013ZM15.4893 22.3613L16.2388 22.3349L15.4893 22.3613ZM15.4578 21.2837L14.708 21.3006L15.4578 21.2837ZM15.4349 20.2686L16.1848 20.2517L15.4349 20.2686ZM15.115 19.2646L14.478 19.6605L15.115 19.2646ZM14.8065 18.7681L15.4435 18.3723L14.8065 18.7681ZM13.6683 17.4868L14.0315 16.8306L13.6683 17.4868ZM13.1473 17.1985L12.7841 17.8547L13.1473 17.1985ZM11.7641 16.1572L12.3687 15.7134L11.7641 16.1572ZM11.4231 15.6928L10.8186 16.1367L11.4231 15.6928ZM10.0805 13.8137L9.46472 14.2418L10.0805 13.8137ZM9.20001 12.7726L9.48642 12.0795L9.20001 12.7726ZM8.98008 12.6817L8.69367 13.3749L8.98008 12.6817ZM8.76014 12.5909L9.04655 11.8977L8.76014 12.5909ZM8.28283 11.4244L9.01224 11.2499L8.88355 10.7121L8.15415 10.8866L7.42474 11.0612L7.55343 11.599L8.28283 11.4244ZM8.15415 10.8866L8.88355 10.7121C8.8246 10.4657 8.82141 10.2147 8.87818 9.95052L8.14492 9.79295L7.41166 9.63538C7.30915 10.1124 7.31211 10.5905 7.42474 11.0612L8.15415 10.8866ZM8.14492 9.79295L8.87818 9.95052L8.99764 9.39461L8.26438 9.23704L7.53112 9.07947L7.41166 9.63538L8.14492 9.79295ZM8.26438 9.23704L8.99764 9.39461L9.1171 8.8387L8.38384 8.68113L7.65058 8.52356L7.53112 9.07947L8.26438 9.23704ZM8.38384 8.68113L9.1171 8.8387C9.12484 8.80269 9.13145 8.79324 9.12763 8.80019C9.12279 8.80902 9.10816 8.83126 9.07955 8.85426C9.05054 8.87757 9.02218 8.88956 9.00439 8.89453C8.98893 8.89886 8.99091 8.89531 9.01852 8.89641L9.04847 8.14701L9.07841 7.39761C8.76768 7.38519 8.42778 7.45369 8.13991 7.68504C7.85597 7.91323 7.71447 8.22624 7.65058 8.52356L8.38384 8.68113ZM9.04847 8.14701L9.01852 8.89641L9.56368 8.9182L9.59363 8.16879L9.62358 7.41939L9.07841 7.39761L9.04847 8.14701ZM9.59363 8.16879L9.56368 8.9182L10.1088 8.93998L10.1388 8.19058L10.1687 7.44118L9.62358 7.41939L9.59363 8.16879ZM10.1388 8.19058L10.1088 8.93998C10.536 8.95705 10.9684 8.92017 11.4045 8.83241L11.2566 8.09715L11.1087 7.36188C10.7813 7.42775 10.4685 7.45316 10.1687 7.44118L10.1388 8.19058ZM11.2566 8.09715L11.4045 8.83241L11.9772 8.71719L11.8292 7.98193L11.6813 7.24666L11.1087 7.36188L11.2566 8.09715ZM11.8292 7.98193L11.9772 8.71719L12.5498 8.60197L12.4019 7.86671L12.254 7.13144L11.6813 7.24666L11.8292 7.98193ZM12.4019 7.86671L12.5498 8.60197C12.8194 8.54773 13.0838 8.55526 13.3517 8.62532L13.5414 7.89971L13.7312 7.1741C13.2432 7.04653 12.7479 7.03205 12.254 7.13144L12.4019 7.86671ZM13.5414 7.89971L13.3517 8.62532L13.9186 8.77354L14.1084 8.04794L14.2981 7.32233L13.7312 7.1741L13.5414 7.89971ZM14.1084 8.04794L13.9186 8.77354L14.4855 8.92177L14.6753 8.19616L14.865 7.47055L14.2981 7.32233L14.1084 8.04794ZM14.6753 8.19616L14.4855 8.92177C14.9804 9.05115 15.4825 9.05887 15.9816 8.94528L15.8151 8.21398L15.6487 7.48268C15.3838 7.54297 15.126 7.53881 14.865 7.47055L14.6753 8.19616ZM15.8151 8.21398L15.9816 8.94528L16.5546 8.81488L16.3881 8.08358L16.2217 7.35228L15.6487 7.48268L15.8151 8.21398ZM16.3881 8.08358L16.5546 8.81488L17.1275 8.68447L16.9611 7.95317L16.7947 7.22187L16.2217 7.35228L16.3881 8.08358ZM16.9611 7.95317L17.1275 8.68447C17.4427 8.61274 17.7527 8.58686 18.0596 8.60484L18.1035 7.85612L18.1473 7.1074C17.695 7.08091 17.2435 7.11973 16.7947 7.22187L16.9611 7.95317ZM18.1035 7.85612L18.0596 8.60484L18.629 8.63819L18.6729 7.88948L18.7167 7.14076L18.1473 7.1074L18.1035 7.85612ZM18.6729 7.88948L18.629 8.63819L19.1984 8.67155L19.2423 7.92283L19.2861 7.17411L18.7167 7.14076L18.6729 7.88948ZM19.2423 7.92283L19.1984 8.67155C19.5696 8.69329 19.9407 8.72129 20.3117 8.75554L20.3807 8.00872L20.4496 7.2619C20.062 7.2261 19.6741 7.19684 19.2861 7.17411L19.2423 7.92283ZM20.3807 8.00872L20.3117 8.75554L20.8807 8.80808L20.9497 8.06126L21.0186 7.31444L20.4496 7.2619L20.3807 8.00872ZM20.9497 8.06126L20.8807 8.80808L21.4497 8.86062L21.5187 8.1138L21.5876 7.36697L21.0186 7.31444L20.9497 8.06126ZM21.5187 8.1138L21.4497 8.86062C21.8232 8.8951 22.1966 8.93402 22.5699 8.97735L22.6564 8.23236L22.7429 7.48736C22.3579 7.44267 21.9728 7.40254 21.5876 7.36697L21.5187 8.1138ZM22.6564 8.23236L22.5699 8.97735L23.1386 9.04338L23.2251 8.29838L23.3115 7.55338L22.7429 7.48736L22.6564 8.23236ZM23.2251 8.29838L23.1386 9.04338L23.7073 9.1094L23.7938 8.3644L23.8802 7.6194L23.3115 7.55338L23.2251 8.29838ZM23.7938 8.3644L23.7073 9.1094C24.1399 9.15962 24.5738 9.16313 25.0079 9.12001L24.9338 8.37368L24.8597 7.62735C24.5321 7.65989 24.2059 7.65721 23.8802 7.6194L23.7938 8.3644ZM24.9338 8.37368L25.0079 9.12001L25.5793 9.06327L25.5052 8.31695L25.4311 7.57062L24.8597 7.62735L24.9338 8.37368ZM25.5052 8.31695L25.5793 9.06327L26.1507 9.00654L26.0766 8.26021L26.0025 7.51388L25.4311 7.57062L25.5052 8.31695ZM26.0766 8.26021L26.1507 9.00654C26.5094 8.97092 26.8674 8.95152 27.2249 8.9483L27.2182 8.19833L27.2114 7.44836C26.8086 7.45199 26.4056 7.47384 26.0025 7.51388L26.0766 8.26021ZM27.2182 8.19833L27.2249 8.9483L27.7952 8.94317L27.7884 8.1932L27.7817 7.44323L27.2114 7.44836L27.2182 8.19833ZM27.7884 8.1932L27.7952 8.94317L28.3654 8.93804L28.3587 8.18807L28.3519 7.4381L27.7817 7.44323L27.7884 8.1932ZM28.3587 8.18807L28.3654 8.93804C28.6748 8.93525 28.9853 8.97553 29.2988 9.06082L29.4957 8.33712L29.6926 7.61342C29.2504 7.49313 28.8029 7.43404 28.3519 7.4381L28.3587 8.18807ZM29.4957 8.33712L29.2988 9.06082L29.8656 9.21501L30.0625 8.49131L30.2594 7.76761L29.6926 7.61342L29.4957 8.33712ZM30.0625 8.49131L29.8656 9.21501L30.4324 9.3692L30.6293 8.6455L30.8261 7.9218L30.2594 7.76761L30.0625 8.49131ZM30.6293 8.6455L30.4324 9.3692C30.4866 9.38394 30.5206 9.39825 30.5397 9.40795C30.5583 9.41745 30.5588 9.4206 30.5503 9.41249C30.5407 9.40339 30.5265 9.38656 30.5147 9.36259C30.503 9.33879 30.4991 9.31937 30.4982 9.31062L31.2436 9.22784L31.989 9.14505C31.954 8.82966 31.8157 8.54519 31.5822 8.32386C31.3618 8.11496 31.0907 7.99377 30.8261 7.9218L30.6293 8.6455ZM31.2436 9.22784L30.4982 9.31062L30.5457 9.73877L31.2911 9.65598L32.0365 9.5732L31.989 9.14505L31.2436 9.22784ZM31.2911 9.65598L30.5457 9.73877L30.5933 10.1669L31.3387 10.0841L32.0841 10.0014L32.0365 9.5732L31.2911 9.65598ZM31.3387 10.0841L30.5933 10.1669C30.6239 10.4431 30.6507 10.7311 30.6734 11.0312L31.4213 10.9744L32.1691 10.9177C32.1452 10.6015 32.1168 10.2961 32.0841 10.0014L31.3387 10.0841ZM31.4213 10.9744L30.6734 11.0312L30.7085 11.4933L31.4564 11.4366L32.2042 11.3798L32.1691 10.9177L31.4213 10.9744ZM31.4564 11.4366L30.7085 11.4933L30.7436 11.9555L31.4914 11.8987L32.2393 11.842L32.2042 11.3798L31.4564 11.4366ZM31.4914 11.8987L30.7436 11.9555C30.7488 12.0249 30.7346 12.1381 30.5845 12.3172L31.1592 12.799L31.734 13.2808C32.0736 12.8757 32.2807 12.3887 32.2393 11.842L31.4914 11.8987ZM31.1592 12.799L30.5845 12.3172L30.2172 12.7552L30.792 13.2371L31.3667 13.7189L31.734 13.2808L31.1592 12.799ZM30.792 13.2371L30.2172 12.7552L29.85 13.1933L30.4247 13.6752L30.9995 14.157L31.3667 13.7189L30.792 13.2371ZM30.4247 13.6752L29.85 13.1933C29.5741 13.5225 29.3291 13.879 29.1146 14.262L29.769 14.6284L30.4234 14.9948C30.5936 14.6909 30.7857 14.412 30.9995 14.157L30.4247 13.6752ZM29.769 14.6284L29.1146 14.262L28.8262 14.7771L29.4806 15.1435L30.135 15.5099L30.4234 14.9948L29.769 14.6284ZM29.4806 15.1435L28.8262 14.7771L28.5377 15.2922L29.1921 15.6586L29.8465 16.0251L30.135 15.5099L29.4806 15.1435ZM29.1921 15.6586L28.5377 15.2922C28.3981 15.5416 28.2186 15.7421 27.9963 15.9015L28.4333 16.511L28.8703 17.1206C29.2751 16.8303 29.6016 16.4625 29.8465 16.0251L29.1921 15.6586ZM28.4333 16.511L27.9963 15.9015L27.5259 16.2388L27.9629 16.8483L28.3999 17.4578L28.8703 17.1206L28.4333 16.511ZM27.9629 16.8483L27.5259 16.2388L27.0555 16.576L27.4925 17.1856L27.9295 17.7951L28.3999 17.4578L27.9629 16.8483ZM27.4925 17.1856L27.0555 16.576C26.7416 16.8011 26.4279 17.0263 26.1144 17.2517L26.5522 17.8606L26.99 18.4696C27.303 18.2446 27.6161 18.0197 27.9295 17.7951L27.4925 17.1856ZM26.5522 17.8606L26.1144 17.2517L25.6446 17.5895L26.0824 18.1984L26.5202 18.8074L26.99 18.4696L26.5522 17.8606ZM26.0824 18.1984L25.6446 17.5895L25.1747 17.9273L25.6125 18.5363L26.0504 19.1452L26.5202 18.8074L26.0824 18.1984ZM25.6125 18.5363L25.1747 17.9273C24.7082 18.2627 24.407 18.7282 24.2918 19.291L25.0265 19.4415L25.7613 19.5919C25.801 19.3982 25.8904 19.2602 26.0504 19.1452L25.6125 18.5363ZM25.0265 19.4415L24.2918 19.291L24.1756 19.8584L24.9104 20.0088L25.6451 20.1593L25.7613 19.5919L25.0265 19.4415ZM24.9104 20.0088L24.1756 19.8584L24.0595 20.4258L24.7942 20.5762L25.529 20.7266L25.6451 20.1593L24.9104 20.0088ZM24.7942 20.5762L24.0595 20.4258C23.972 20.8531 23.9283 21.283 23.9289 21.7147L24.6789 21.7136L25.4289 21.7125C25.4284 21.3842 25.4616 21.0558 25.529 20.7266L24.7942 20.5762ZM24.6789 21.7136L23.9289 21.7147L23.9298 22.2847L24.6798 22.2836L25.4298 22.2825L25.4289 21.7125L24.6789 21.7136ZM24.6798 22.2836L23.9298 22.2847L23.9306 22.8547L24.6806 22.8536L25.4306 22.8525L25.4298 22.2825L24.6798 22.2836ZM24.6806 22.8536L23.9306 22.8547C23.9312 23.279 23.9693 23.7025 24.0443 24.1248L24.7827 23.9936L25.5212 23.8624C25.4611 23.5246 25.4311 23.1882 25.4306 22.8525L24.6806 22.8536ZM24.7827 23.9936L24.0443 24.1248L24.1456 24.6948L24.884 24.5636L25.6225 24.4324L25.5212 23.8624L24.7827 23.9936ZM24.884 24.5636L24.1456 24.6948L24.2469 25.2648L24.9854 25.1336L25.7238 25.0024L25.6225 24.4324L24.884 24.5636ZM24.9854 25.1336L24.2469 25.2648C24.3043 25.5875 24.323 25.9083 24.3037 26.2285L25.0523 26.2736L25.8009 26.3187C25.8275 25.8789 25.8015 25.4397 25.7238 25.0024L24.9854 25.1336ZM25.0523 26.2736L24.3037 26.2285L24.2693 26.7985L25.018 26.8436L25.7666 26.8887L25.8009 26.3187L25.0523 26.2736ZM25.018 26.8436L24.2693 26.7985L24.235 27.3685L24.9836 27.4136L25.7323 27.4587L25.7666 26.8887L25.018 26.8436ZM24.9836 27.4136L24.235 27.3685C24.2213 27.5957 24.1498 27.7648 24.0284 27.9069L24.5987 28.394L25.169 28.8811C25.515 28.476 25.7001 27.9914 25.7323 27.4587L24.9836 27.4136ZM24.5987 28.394L24.0284 27.9069L23.6778 28.3173L24.2481 28.8044L24.8184 29.2915L25.169 28.8811L24.5987 28.394ZM24.2481 28.8044L23.6778 28.3173L23.3273 28.7277L23.8976 29.2149L24.4678 29.702L24.8184 29.2915L24.2481 28.8044ZM23.8976 29.2149L23.3273 28.7277C23.215 28.8592 23.0692 28.9475 22.8494 28.986L22.9787 29.7248L23.108 30.4635C23.6459 30.3694 24.1127 30.1177 24.4678 29.702L23.8976 29.2149ZM22.9787 29.7248L22.8494 28.986L22.2811 29.0855L22.4104 29.8242L22.5397 30.563L23.108 30.4635L22.9787 29.7248ZM22.4104 29.8242L22.2811 29.0855L21.7128 29.185L21.8421 29.9237L21.9714 30.6625L22.5397 30.563L22.4104 29.8242ZM21.8421 29.9237L21.7128 29.185C21.2868 29.2595 20.8731 29.3737 20.4724 29.5276L20.7413 30.2277L21.0102 30.9279C21.3195 30.8091 21.6397 30.7206 21.9714 30.6625L21.8421 29.9237ZM20.7413 30.2277L20.4724 29.5276L19.9399 29.7321L20.2088 30.4323L20.4777 31.1324L21.0102 30.9279L20.7413 30.2277ZM20.2088 30.4323L19.9399 29.7321L19.4074 29.9366L19.6763 30.6368L19.9452 31.3369L20.4777 31.1324L20.2088 30.4323ZM19.6763 30.6368L19.4074 29.9366C19.0511 30.0735 18.6951 30.2114 18.3395 30.3503L18.6124 31.0489L18.8853 31.7475C19.2383 31.6096 19.5916 31.4727 19.9452 31.3369L19.6763 30.6368ZM18.6124 31.0489L18.3395 30.3503L17.8081 30.5579L18.081 31.2565L18.3539 31.9551L18.8853 31.7475L18.6124 31.0489ZM18.081 31.2565L17.8081 30.5579L17.2766 30.7655L17.5495 31.4641L17.8224 32.1627L18.3539 31.9551L18.081 31.2565ZM17.5495 31.4641L17.2766 30.7655C17.2124 30.7906 17.1636 30.8056 17.1285 30.8141C17.0928 30.8227 17.0794 30.8226 17.0841 30.8225C17.0889 30.8224 17.1227 30.822 17.1733 30.8385C17.2276 30.8561 17.2903 30.8897 17.3465 30.9445L16.823 31.4816L16.2995 32.0187C16.5525 32.2652 16.8672 32.3282 17.1202 32.3221C17.3638 32.3162 17.6049 32.2477 17.8224 32.1627L17.5495 31.4641ZM16.823 31.4816L17.3465 30.9445L17.1515 30.7544L16.628 31.2915L16.1045 31.8286L16.2995 32.0187L16.823 31.4816ZM16.628 31.2915L17.1515 30.7544L16.9565 30.5643L16.433 31.1014L15.9095 31.6385L16.1045 31.8286L16.628 31.2915ZM16.433 31.1014L16.9565 30.5643C17.0098 30.6163 17.0069 30.6458 16.9871 30.5848C16.9689 30.5286 16.9473 30.4296 16.9332 30.2735L16.1862 30.3413L15.4393 30.409C15.4596 30.6329 15.4964 30.8506 15.5604 31.0479C15.6228 31.2402 15.7261 31.4597 15.9095 31.6385L16.433 31.1014ZM16.1862 30.3413L16.9332 30.2735L16.8815 29.7035L16.1346 29.7713L15.3876 29.839L15.4393 30.409L16.1862 30.3413ZM16.1346 29.7713L16.8815 29.7035L16.8298 29.1335L16.0829 29.2013L15.3359 29.269L15.3876 29.839L16.1346 29.7713ZM16.0829 29.2013L16.8298 29.1335C16.7926 28.7229 16.73 28.313 16.6422 27.904L15.9089 28.0613L15.1756 28.2186C15.2509 28.5696 15.3043 28.9197 15.3359 29.269L16.0829 29.2013ZM15.9089 28.0613L16.6422 27.904L16.5199 27.334L15.7866 27.4913L15.0533 27.6486L15.1756 28.2186L15.9089 28.0613ZM15.7866 27.4913L16.5199 27.334L16.3976 26.764L15.6643 26.9213L14.931 27.0786L15.0533 27.6486L15.7866 27.4913ZM15.6643 26.9213L16.3976 26.764C16.3271 26.4353 16.2928 26.1088 16.2939 25.7837L15.5439 25.7813L14.7939 25.7788C14.7925 26.2137 14.8385 26.6473 14.931 27.0786L15.6643 26.9213ZM15.5439 25.7813L16.2939 25.7837L16.2957 25.2137L15.5457 25.2113L14.7957 25.2088L14.7939 25.7788L15.5439 25.7813ZM15.5457 25.2113L16.2957 25.2137L16.2976 24.6437L15.5476 24.6413L14.7976 24.6388L14.7957 25.2088L15.5457 25.2113ZM15.5476 24.6413L16.2976 24.6437C16.2988 24.2541 16.2926 23.8645 16.2789 23.4749L15.5294 23.5013L14.7799 23.5276C14.7929 23.8981 14.7988 24.2685 14.7976 24.6388L15.5476 24.6413ZM15.5294 23.5013L16.2789 23.4749L16.2589 22.9049L15.5093 22.9313L14.7598 22.9576L14.7799 23.5276L15.5294 23.5013ZM15.5093 22.9313L16.2589 22.9049L16.2388 22.3349L15.4893 22.3613L14.7397 22.3876L14.7598 22.9576L15.5093 22.9313ZM15.4893 22.3613L16.2388 22.3349C16.2255 21.9577 16.2152 21.6017 16.2076 21.2668L15.4578 21.2837L14.708 21.3006C14.7157 21.6425 14.7263 22.0049 14.7397 22.3876L15.4893 22.3613ZM15.4578 21.2837L16.2076 21.2668L16.1962 20.7593L15.4464 20.7762L14.6966 20.793L14.708 21.3006L15.4578 21.2837ZM15.4464 20.7762L16.1962 20.7593L16.1848 20.2517L15.4349 20.2686L14.6851 20.2855L14.6966 20.793L15.4464 20.7762ZM15.4349 20.2686L16.1848 20.2517C16.1737 19.76 16.0176 19.2961 15.752 18.8687L15.115 19.2646L14.478 19.6605C14.6237 19.895 14.681 20.1005 14.6851 20.2855L15.4349 20.2686ZM15.115 19.2646L15.752 18.8687L15.4435 18.3723L14.8065 18.7681L14.1695 19.164L14.478 19.6605L15.115 19.2646ZM14.8065 18.7681L15.4435 18.3723L15.135 17.8758L14.4979 18.2717L13.8609 18.6676L14.1695 19.164L14.8065 18.7681ZM14.4979 18.2717L15.135 17.8758C14.8604 17.434 14.4887 17.0837 14.0315 16.8306L13.6683 17.4868L13.3052 18.143C13.5428 18.2745 13.7241 18.4474 13.8609 18.6676L14.4979 18.2717ZM13.6683 17.4868L14.0315 16.8306L13.5105 16.5423L13.1473 17.1985L12.7841 17.8547L13.3052 18.143L13.6683 17.4868ZM13.1473 17.1985L13.5105 16.5423L12.9894 16.2539L12.6262 16.9101L12.263 17.5663L12.7841 17.8547L13.1473 17.1985ZM12.6262 16.9101L12.9894 16.2539C12.7336 16.1123 12.5297 15.9326 12.3687 15.7134L11.7641 16.1572L11.1596 16.6011C11.4533 17.0011 11.8241 17.3233 12.263 17.5663L12.6262 16.9101ZM11.7641 16.1572L12.3687 15.7134L12.0277 15.2489L11.4231 15.6928L10.8186 16.1367L11.1596 16.6011L11.7641 16.1572ZM11.4231 15.6928L12.0277 15.2489L11.6867 14.7845L11.0821 15.2284L10.4776 15.6722L10.8186 16.1367L11.4231 15.6928ZM11.0821 15.2284L11.6867 14.7845C11.4632 14.4801 11.2432 14.1722 11.0266 13.8607L10.4108 14.2888L9.79501 14.7169C10.0189 15.039 10.2464 15.3574 10.4776 15.6722L11.0821 15.2284ZM10.4108 14.2888L11.0266 13.8607L10.6963 13.3856L10.0805 13.8137L9.46472 14.2418L9.79501 14.7169L10.4108 14.2888ZM10.0805 13.8137L10.6963 13.3856L10.366 12.9105L9.75023 13.3386L9.13442 13.7667L9.46472 14.2418L10.0805 13.8137ZM9.75023 13.3386L10.366 12.9105C10.2423 12.7325 10.1154 12.5706 9.98529 12.4368C9.8632 12.3112 9.69654 12.1663 9.48642 12.0795L9.20001 12.7726L8.9136 13.4658C8.87656 13.4505 8.86009 13.437 8.86488 13.4406C8.86876 13.4435 8.88374 13.4556 8.90977 13.4823C8.96309 13.5372 9.03799 13.628 9.13442 13.7667L9.75023 13.3386ZM9.20001 12.7726L9.48642 12.0795L9.26648 11.9886L8.98008 12.6817L8.69367 13.3749L8.9136 13.4658L9.20001 12.7726ZM8.98008 12.6817L9.26648 11.9886L9.04655 11.8977L8.76014 12.5909L8.47374 13.284L8.69367 13.3749L8.98008 12.6817ZM8.76014 12.5909L9.04655 11.8977C9.12034 11.9282 9.1682 11.9686 9.19343 11.9945C9.21746 12.0192 9.22402 12.0337 9.21892 12.0245C9.21417 12.016 9.20302 11.9935 9.18822 11.9519C9.17363 11.9108 9.15748 11.8568 9.14093 11.7877L8.41152 11.9622L7.68212 12.1368C7.73331 12.3507 7.80339 12.5649 7.90712 12.752C8.00743 12.9329 8.18116 13.1631 8.47374 13.284L8.76014 12.5909ZM8.41152 11.9622L9.14093 11.7877L9.01224 11.2499L8.28283 11.4244L7.55343 11.599L7.68212 12.1368L8.41152 11.9622Z" fill="#4A2F2C"/>
</svg>
