<svg width="40" height="40" viewBox="0 0 40 40" fill="none" xmlns="http://www.w3.org/2000/svg">
<path d="M18.7833 12.0102C18.7489 11.8935 18.5324 11.4537 18.2625 10.9694C17.7446 10.0403 17.0787 8.39976 16.9502 8.12011C16.7394 7.66111 15.7702 8.62778 14.6858 9.16786C13.7754 9.62131 12.1503 10.4721 11.1825 10.9938C9.94216 11.6624 9.25958 12.1895 8.511 12.7587C8.19036 13.0025 8.01209 13.1834 8.00102 13.4146C7.97529 13.9516 8.44192 14.3811 8.79221 14.9764C9.91269 16.8803 10.0396 17.2427 10.1375 18.5022C10.2154 19.5054 10.1919 21.421 10.2889 23.0287C10.386 24.6363 10.5464 25.8807 10.6942 26.538C10.8421 27.1953 10.9725 27.2278 11.717 27.7741C12.4615 28.3203 13.8161 29.3793 14.7044 30.0528C15.9582 31.0033 16.8865 31.4743 17.7649 31.8479C18.2941 32.0729 18.7995 32.0364 19.5194 31.8164C19.9394 31.688 20.4353 31.4222 21.6019 30.763C22.7684 30.1038 24.5816 29.0329 25.6777 28.4048C27.4885 27.3673 27.7517 27.2791 27.8368 27.1166C27.9682 26.8656 27.6672 25.4153 27.3869 23.4818C27.286 22.6879 27.2767 22.336 27.2853 21.8858C27.2988 21.6815 27.3307 21.5266 27.3912 21.3488" stroke="#4A2F2C" stroke-width="1.5" stroke-linecap="round"/>
<path d="M18.4222 22.4968C18.4222 22.9685 18.4006 24.0962 18.3508 25.3702C18.3226 26.4913 18.2885 28.576 18.2746 29.6915C18.2607 30.8069 18.2681 30.8898 18.2911 31.0193" stroke="#4A2F2C" stroke-width="1.5" stroke-linecap="round"/>
<path d="M10.6406 17.5669C10.7533 17.585 11.6798 17.9732 13.6038 19.0553C14.8341 19.7472 16.4893 20.8856 17.4225 21.5023C18.3557 22.119 18.4936 22.2196 18.6262 22.2449C18.7587 22.2702 18.8818 22.2171 19.908 21.4512C20.9342 20.6853 22.8598 19.2082 24.1795 18.243C26.1214 16.8226 27.0854 16.3209 27.3267 16.0865C27.9148 15.5155 26.0849 15.5992 25.0368 15.1756C24.2696 14.8346 23.4984 14.3902 23.3461 14.2692C23.2735 14.211 23.2106 14.1595 23.1106 14.0793" stroke="#4A2F2C" stroke-width="1.5" stroke-linecap="round"/>
<path d="M10.897 16.7953C10.9812 16.7623 11.9693 16.1992 12.6091 15.7865C12.9783 15.5484 13.4843 15.2073 14.2211 14.7635C14.3758 14.668 14.451 14.621 14.5207 14.5633C14.5903 14.5055 14.6521 14.4383 14.7936 14.3333" stroke="#4A2F2C" stroke-width="1.5" stroke-linecap="round"/>
<path d="M27.6403 16.877C27.766 16.877 28.4178 16.9483 31.2347 17.5715C31.8192 17.7008 31.9451 17.6944 31.9859 17.7299C32.0648 17.7986 31.8025 17.9929 31.2457 18.4413C30.0661 19.3914 29.2557 20.1942 28.9433 20.4595C28.4701 20.8614 28.0268 21.1072 27.5197 21.4164C26.4402 22.0747 25.3965 22.6384 24.8548 22.873C24.5776 22.993 24.0503 22.9971 22.9899 22.9413C21.5991 22.7699 20.6559 22.6119 20.3996 22.5329C20.2883 22.4939 20.2151 22.4569 20.0068 22.3717" stroke="#4A2F2C" stroke-width="1.5" stroke-linecap="round"/>
<path d="M18.5244 13.8867C18.5244 13.7389 18.6007 13.2655 18.933 12.7937C19.6097 11.8329 20.3701 11.5504 20.9852 11.3571C21.6689 11.1422 22.0074 11.46 22.2624 11.6393C22.574 11.8585 22.6998 12.2896 22.7753 12.8473C22.8219 13.1922 22.7542 13.4699 22.1834 14.439C21.6607 15.3264 20.5957 16.975 20.0292 17.8775C19.4628 18.78 19.4095 18.8758 19.3458 18.9358C19.2821 18.9958 19.2096 19.0171 19.1325 18.9947C18.7309 18.8776 18.2373 18.0896 17.3902 17.3054C16.5165 16.4966 15.8797 15.758 15.6395 15.4411C15.2228 14.8913 15.1716 13.6865 15.2868 12.9121C15.382 12.2721 15.7346 11.9307 15.994 11.6931C16.2519 11.4569 16.8325 11.5297 17.3256 11.6307C17.7354 11.7146 17.9857 12.0607 18.3037 12.6253C18.411 12.9054 18.4799 13.2573 18.5241 13.631C18.5401 13.7847 18.5432 13.8655 18.5618 14.0894" stroke="#4A2F2C" stroke-width="1.5" stroke-linecap="round"/>
</svg>
