<svg width="72" height="64" viewBox="0 0 72 64" fill="none" xmlns="http://www.w3.org/2000/svg">
<path d="M33.1611 13.357C33.0809 13.0848 32.5756 12.0586 31.9459 10.9287C30.7375 8.76072 29.1836 4.93278 28.8839 4.28026C28.392 3.20926 26.1306 5.46482 23.6003 6.72501C21.4759 7.78305 17.684 9.7682 15.4258 10.9855C12.5317 12.5455 10.939 13.7756 9.19234 15.1036C8.44418 15.6724 8.02822 16.0947 8.00238 16.634C7.94235 17.8871 9.03114 18.8893 9.84849 20.2782C12.4629 24.7207 12.7591 25.5662 12.9875 28.5051C13.1694 30.846 13.1144 35.3158 13.3409 39.0669C13.5674 42.8179 13.9416 45.7216 14.2866 47.2554C14.6315 48.7891 14.9358 48.8649 16.673 50.1395C18.4101 51.4141 21.5708 53.8852 23.6437 55.4565C26.5692 57.6743 28.7353 58.7734 30.7849 59.645C32.0197 60.1701 33.199 60.085 34.8787 59.5716C35.8586 59.2721 37.0158 58.6518 39.7378 57.1137C42.4597 55.5756 46.6905 53.0767 49.2482 51.6112C53.4734 49.1903 54.0875 48.9846 54.286 48.6053C54.5925 48.0197 53.8903 44.6357 53.2362 40.1242C53.0007 38.2717 52.9792 37.4507 52.9992 36.4001C53.0306 35.9236 53.1052 35.5621 53.2463 35.1472" stroke="#4A2F2C" stroke-width="2" stroke-linecap="round"/>
<path d="M32.3187 37.8262C32.3187 38.9268 32.2684 41.5581 32.1523 44.5306C32.0865 47.1465 32.0068 52.011 31.9744 54.6137C31.9419 57.2164 31.9592 57.4099 32.013 57.712" stroke="#4A2F2C" stroke-width="2" stroke-linecap="round"/>
<path d="M14.1611 26.3231C14.424 26.3654 16.5858 27.2712 21.0753 29.7961C23.946 31.4106 27.808 34.0668 29.9855 35.5058C32.163 36.9449 32.4848 37.1795 32.7942 37.2385C33.1035 37.2975 33.3906 37.1738 35.785 35.3867C38.1795 33.5995 42.6726 30.1529 45.7518 27.9007C50.2831 24.5865 52.5323 23.4158 53.0955 22.869C54.4678 21.5365 50.1978 21.7318 47.7522 20.7435C45.9622 19.9477 44.1627 18.9109 43.8072 18.6285C43.6379 18.4928 43.4911 18.3725 43.2579 18.1855" stroke="#4A2F2C" stroke-width="2" stroke-linecap="round"/>
<path d="M14.7598 24.5221C14.9562 24.4451 17.2618 23.1312 18.7548 22.1683C19.6162 21.6127 20.797 20.8169 22.5161 19.7812C22.8771 19.5583 23.0525 19.4488 23.2151 19.314C23.3776 19.1793 23.5218 19.0225 23.8519 18.7773" stroke="#4A2F2C" stroke-width="2" stroke-linecap="round"/>
<path d="M53.828 24.7129C54.1214 24.7129 55.6423 24.8795 62.2149 26.3334C63.579 26.6351 63.8725 26.6202 63.9679 26.7032C64.1519 26.8633 63.5399 27.3168 62.2408 28.3631C59.4882 30.5799 57.5973 32.453 56.8684 33.0721C55.7642 34.01 54.73 34.5834 53.5466 35.305C51.0279 36.8409 48.5926 38.1562 47.3285 38.7036C46.6818 38.9837 45.4513 38.9931 42.9771 38.863C39.7318 38.4631 37.5311 38.0944 36.9331 37.9102C36.6734 37.819 36.5026 37.7327 36.0166 37.5339" stroke="#4A2F2C" stroke-width="2" stroke-linecap="round"/>
<path d="M32.5576 17.7352C32.5576 17.3904 32.7354 16.2858 33.5108 15.1849C35.0898 12.9432 36.8641 12.284 38.2993 11.8329C39.8946 11.3316 40.6846 12.0731 41.2794 12.4915C42.0066 13.0029 42.3002 14.0087 42.4762 15.3101C42.5851 16.1147 42.4269 16.7628 41.095 19.024C39.8754 21.0945 37.3904 24.9413 36.0687 27.0472C34.747 29.1531 34.6227 29.3764 34.4741 29.5164C34.3255 29.6564 34.1563 29.7063 33.9764 29.6539C33.0392 29.3807 31.8876 27.5421 29.9109 25.7122C27.8722 23.825 26.3864 22.1016 25.826 21.3623C24.8536 20.0794 24.7343 17.2681 25.003 15.4613C25.2251 13.9679 26.0479 13.1713 26.6531 12.617C27.2549 12.0657 28.6097 12.2356 29.7602 12.4713C30.7164 12.6671 31.3005 13.4746 32.0426 14.792C32.2928 15.4456 32.4537 16.2668 32.5566 17.1386C32.594 17.4973 32.6013 17.6859 32.6447 18.2083" stroke="#4A2F2C" stroke-width="2" stroke-linecap="round"/>
</svg>
