<svg width="40" height="40" viewBox="0 0 40 40" fill="none" xmlns="http://www.w3.org/2000/svg">
<path d="M20.5735 8C19.8515 8.00185 17.9557 8.0561 17.2424 8.1512C16.8305 8.20611 15.9863 8.54313 14.6839 9.10333C11.915 10.2943 10.5911 11.7159 10.0877 12.2819C9.73898 12.6741 9.53001 13.2446 9.12175 14.6868C8.79984 15.824 8.39578 17.8251 8.16105 18.9203C7.73753 20.8964 8.20933 23.1106 8.87964 24.6638C9.50739 26.1183 10.7835 27.2109 11.9138 28.5415C12.4393 29.1602 12.9729 29.5341 13.5058 29.8467C14.3358 30.3336 15.6457 30.8402 17.2619 31.3636C18.9773 31.9191 20.8363 32.0057 22.3201 31.9997C23.7647 31.9939 24.6959 31.1962 25.2462 30.6777C25.8482 30.1106 27.7156 29.1027 29.2586 26.8957C30.0514 25.7617 30.8152 23.4051 31.3574 22.0708C32.0392 20.3929 32.0874 19.078 31.9165 17.127C31.724 14.9288 30.8343 13.5062 30.2731 12.6532C29.4354 11.3798 28.4552 10.4473 27.851 9.91506C27.333 9.45876 26.5258 9.07327 25.3272 8.6723C22.4945 8.2219 21.2215 8.11025 20.5723 8.05603C20.3217 8.0489 19.9602 8.0432 19.5876 8.03733" stroke="#F6F3EE" stroke-width="1.5" stroke-linecap="round"/>
<path d="M17.7492 8.49316C17.2108 9.1728 15.7866 11.4654 15.335 14.1715C15.0882 15.6507 15.1587 18.1489 15.1455 19.7666C15.1199 22.9054 15.6059 23.8454 15.9616 24.5986C16.268 25.2477 16.2634 25.8681 16.5276 26.6755C17.4202 28.3634 18.3374 29.8119 19.0443 30.9133C19.2112 31.1479 19.3249 31.2796 19.5427 31.5388" stroke="#F6F3EE" stroke-width="1.5" stroke-linecap="round"/>
<path d="M21.1615 31.6667C21.693 31.3144 22.5525 29.7777 23.0691 29.1358C23.5822 28.4984 24.0039 27.1836 24.4762 25.8683C24.7532 25.0969 24.9764 24.1286 25.1194 22.1968C25.3285 19.3729 25.2196 17.5385 25.1612 17.1412C25.0707 16.5245 24.3481 14.3867 23.3511 11.6099C22.6056 10.1055 22.1403 9.64488 21.275 8.90258C21.0846 8.73181 20.3784 8.12401 20.1865 8" stroke="#F6F3EE" stroke-width="1.5" stroke-linecap="round"/>
<path d="M8.97461 15.9764C8.96456 15.9764 11.248 15.9548 14.6063 15.9764C16.2718 15.9871 17.8584 16.0413 19.2555 16.1498C20.6526 16.2582 21.812 16.4305 23.1313 16.5193C25.89 16.7049 27.4996 16.5942 27.9116 16.5628C28.6757 16.5245 29.4856 16.4456 30.0443 16.3484C30.2765 16.3087 31.5416 16.1707 31.6734 16.1498" stroke="#F6F3EE" stroke-width="1.5" stroke-linecap="round"/>
<path d="M8.77344 24.481C8.8048 24.481 9.44906 24.4645 11.253 24.2299C12.4387 24.0756 14.1334 23.5922 15.5159 23.3233C17.8923 22.8612 19.2267 22.8303 19.9207 22.7846C20.8773 22.7215 22.4113 22.6116 24.3758 22.7247C27.6883 22.9154 28.5973 23.6868 29.2957 23.9685C29.5668 24.0352 29.8059 24.0738 30.0443 24.1283C30.1643 24.1613 30.2823 24.205 30.6068 24.0783" stroke="#F6F3EE" stroke-width="1.5" stroke-linecap="round"/>
</svg>
