<svg width="40" height="40" viewBox="0 0 40 40" fill="none" xmlns="http://www.w3.org/2000/svg">
<path d="M21.9451 10.8663C21.3067 11.8493 20.8001 15.1246 20.0854 13.9236C19.9115 13.6316 19.8435 13.2717 19.8114 13.0977C19.7752 12.8352 19.7619 12.6518 19.7161 12.3892C19.523 11.6368 19.462 11.079 19.1212 10.6319C18.4502 9.75132 18.2215 9.3088 17.7029 8.95614C16.7268 8.29226 16.0998 7.86982 14.8468 8.03637C13.8831 8.16448 13.1341 8.15645 12.1977 8.32847C11.4906 8.4584 10.2992 9.15246 9.6689 10.0935C9.06044 11.0021 8.38068 12.2254 8.20309 13.7081C8.08896 14.661 7.91774 15.4827 8.04508 16.298C8.23421 17.5089 8.53936 18.6322 9.32976 20.2124C9.82888 21.2102 10.2074 21.9768 10.5823 22.6377C11.1512 23.6407 11.8254 24.7285 12.7298 25.7991C13.2543 26.4199 13.938 27.1589 14.3123 27.6088C14.7882 28.1807 15.1878 28.5312 15.881 29.2104C16.9011 30.2097 17.7751 31.0081 18.3897 31.2558C19.3164 31.6291 19.8214 32.1073 20.2703 31.9786C20.999 31.7696 21.4759 31.1683 21.8928 30.8546C22.1605 30.6531 23.2839 29.7952 24.7701 28.4379C25.6775 27.6093 26.6035 26.6514 27.4205 25.4176C27.9152 24.6704 28.527 23.7655 29.1579 22.6611C29.525 22.0186 30.0305 21.3839 30.2803 20.482C30.6 19.3284 31.063 18.5909 31.3824 17.8542C31.8089 16.8707 32.1032 15.1629 31.966 14.0591C31.8328 12.9875 31.697 12.4095 31.3824 11.9891C30.906 11.3524 30.6681 10.6933 30.2674 10.2739C29.9705 9.96326 29.4978 9.41608 28.4669 9.05989C27.5764 8.75221 25.9311 8.5588 25.2215 8.59953C24.7121 8.62878 24.2443 8.59827 23.8166 8.85777C23.2121 9.22459 22.4492 10.0901 21.9451 10.8663Z" stroke="#4A2F2C" stroke-width="1.5" stroke-linecap="round"/>
</svg>
