<svg width="40" height="40" viewBox="0 0 40 40" fill="none" xmlns="http://www.w3.org/2000/svg">
<path d="M21.4518 8.03745C23.0649 8.01763 24.071 8.01596 24.0943 8.01596C24.3694 8.06727 25.2741 7.96176 25.4165 8.01597C25.7267 8.14956 26.245 8.05446 27.2182 8.33498C29.0342 8.64223 28.9758 9.03157 29.6205 9.79966C30.091 10.3603 30.7553 11.6724 31.1042 12.3339C31.2001 12.5158 31.7655 13.3932 31.9439 15.4334C32.0496 16.6434 31.9898 18.2175 31.8974 19.3211C31.753 21.0443 31.645 21.8549 31.5835 22.1765C31.5547 22.3269 31.5983 23.4524 31.6623 25.105L31.6642 25.1532C31.698 26.0268 31.7462 26.7888 31.4498 27.5882C31.2362 28.1645 31.0952 28.4859 30.9491 28.747C30.7045 29.1839 30.202 29.9395 29.5034 30.6091C29.1039 30.9921 28.8699 31.1734 28.3731 31.3851C27.3312 31.8292 26.5381 32.0539 25.4684 31.989C24.5365 31.9325 22.86 31.8505 21.8106 31.8318C20.7611 31.8131 20.3512 31.8564 19.0964 31.8918C17.8417 31.9272 15.804 31.9538 14.2811 31.8019C12.7582 31.6499 11.7798 31.3291 11.222 31.1357C10.6643 30.9422 10.5241 30.889 10.3745 30.7862C9.77021 30.3711 8.77707 29.5718 8.39443 28.4599C8.2354 27.9978 8.0947 27.4416 8.0427 26.5311C8.00872 25.9361 7.98558 25.0855 8.0104 23.7786C8.03521 22.4717 8.0795 20.7584 8.1638 19.803C8.26568 18.6481 8.39185 17.5813 8.5378 16.2679C8.6009 15.7001 8.55683 14.8277 8.64058 13.5746C8.69118 12.8174 8.74618 12.2796 8.96283 11.7608C9.40946 10.6914 9.82924 10.125 10.0765 9.8792C10.4712 9.48672 11.2026 8.73072 12.3836 8.64658C14.0573 8.52733 15.1837 8.4208 15.4756 8.40505C16.0149 8.37594 16.6697 8.29549 17.4347 8.27138C18.4383 8.23975 19.1995 8.16257 19.6378 8.14608C20.1365 8.12733 20.6179 8.0477 21.4518 8.03745Z" fill="#4A2F2C" stroke="#4A2F2C" stroke-linecap="round"/>
<path d="M25.6632 12.7573C26.1681 12.744 26.6985 12.9957 26.894 13.1002C26.9665 13.1506 27.0733 13.3298 27.1425 13.4018C27.2116 13.4737 27.2775 13.5659 27.3104 13.6724C27.3435 13.8961 27.3726 14.1471 27.2539 14.3286C27.1924 14.4224 27.097 14.5259 26.9799 14.5535C26.5073 14.6649 25.6799 14.6695 25.1523 14.1753C24.9266 13.9638 24.7884 13.7494 24.8212 13.5655C24.8506 13.4011 24.9145 13.2357 25.0584 13.1119C25.2138 12.9781 25.3994 12.7643 25.6632 12.7573Z" fill="#F6F3EE" stroke="#F6F3EE" stroke-linecap="round"/>
<path d="M19.3198 14.0512C20.256 13.9582 20.6945 13.9458 20.6998 13.9458C20.9497 13.9396 20.8658 13.9906 21.517 14.1991C23.0022 14.9423 23.7245 15.4104 24.2559 16.0323C24.9173 16.8062 25.611 17.6616 25.759 18.5811C25.8951 19.4268 26.2737 21.157 25.7621 22.1086C25.3605 22.8555 25.074 23.488 24.8222 23.8139C24.1511 24.6828 23.262 25.4577 22.2237 25.7656C21.2512 26.0539 20.5447 26.2694 20.2112 26.2389C18.795 26.1095 17.4883 25.8843 16.9007 25.4666C16.531 25.2038 15.2418 24.6256 14.6063 23.4583C14.1139 22.554 13.937 21.2272 14.0115 20.1058C14.1033 18.7222 14.1803 17.7729 14.2575 17.6073C14.3654 17.3759 14.6273 16.7834 15.25 16.1289C15.8179 15.532 16.2774 15.1149 16.7447 14.8876C17.3559 14.5903 18.2478 14.1577 19.3198 14.0512Z" fill="#F6F3EE" stroke="#4A2F2C" stroke-linecap="round"/>
<path d="M17.3874 18.7105C18.6377 17.7485 19.5277 17.5556 19.7544 17.5556C20.0141 17.4387 20.7149 17.5828 21.6054 17.7282C22.0821 18.084 22.9487 19.0084 22.9214 19.7135C22.8835 20.6923 22.8126 21.4463 22.5946 21.8432C22.3441 22.2991 22.1447 22.6226 21.403 22.8988C20.3519 23.2901 19.6595 23.3957 19.2367 23.2892C18.8922 23.2024 18.3821 23.0064 17.8841 22.7331C17.2136 22.365 16.8473 22.1023 16.6788 21.5991C16.5315 21.159 16.2153 20.075 16.5713 19.5368C16.6791 19.3738 16.8962 19.0884 17.3874 18.7105Z" fill="#4A2F2C" stroke="#4A2F2C" stroke-linecap="round"/>
</svg>
