<svg width="1444" height="372" viewBox="0 0 1444 372" fill="none" xmlns="http://www.w3.org/2000/svg">
<path d="M88.2981 365.338C50.9436 362.516 9.11923 357.182 1.75 349.894V1.75H1437.26L1441.75 360.388C1440.25 362.029 1423.27 363.915 1403.82 364.64C1384.37 365.364 1347.83 365.113 1292.71 364.576C1237.59 364.039 1166.03 363.688 1128.07 362.542C1085.79 361.266 1106.09 361.748 1057.82 360.332C1028.24 359.465 998.809 369.442 919.892 369.742C840.975 370.042 727.7 361.962 663.308 361.324C598.917 360.685 591.957 359.844 582.935 359.465C563.206 358.638 543.524 356.032 499.358 355.281C464.003 354.679 409.264 357.628 373.531 358.072C337.798 358.517 325.036 358.965 317.288 359.465C295.111 360.897 272.97 364.091 242.918 365.338C210.78 366.672 192.865 368.58 148.559 366.824C129.939 366.087 105.43 366.633 88.2981 365.338Z" fill="#F6F3EE" stroke="#BFD1F4" stroke-width="3.5" stroke-linecap="round"/>
<path d="M1315.07 148.147C1315.07 148.039 1315.07 141.936 1314.99 132.378C1314.91 128.867 1314.75 128.076 1314.65 126.678C1314.56 125.28 1314.54 123.301 1314.18 119.984" stroke="#F4D77A" stroke-width="5.25" stroke-linecap="round"/>
<path d="M1287.61 152.53C1287.31 150.718 1283.74 137.295 1276.88 123.278C1270.07 112.78 1268.87 109.722 1268.4 107.587C1268.19 106.431 1268.03 105.129 1267.87 102.75" stroke="#F4D77A" stroke-width="5.25" stroke-linecap="round"/>
<path d="M1266.71 169.025C1265.66 168.373 1260.85 165.635 1254.84 160.856C1248.38 153.354 1246.06 147.893 1244.38 141.81C1243.77 139.43 1243.67 138.487 1243.57 137.515" stroke="#F4D77A" stroke-width="5.25" stroke-linecap="round"/>
<path d="M1237.31 184.653C1235.13 184.784 1225.65 183.104 1215.93 178.486C1210.67 174.02 1203.31 166.314 1199.26 162.337C1198.4 161.544 1197.32 160.621 1196.22 159.67" stroke="#F4D77A" stroke-width="5.25" stroke-linecap="round"/>
<path d="M1226.24 221.04C1226.21 221.04 1226.18 221.04 1222.41 221.04C1218.64 221.04 1211.12 221.04 1206.32 220.925C1201.51 220.811 1199.64 220.581 1197.72 220.345" stroke="#F4D77A" stroke-width="5.25" stroke-linecap="round"/>
<path d="M1227.42 255.144C1220.22 255.292 1203.51 256.068 1193.2 260.44C1190.17 261.907 1187.26 263.468 1185.16 264.491C1183.05 265.513 1181.85 265.948 1180.29 266.567" stroke="#F4D77A" stroke-width="5.25" stroke-linecap="round"/>
<path d="M1247.41 281.771C1246.36 282.407 1243 285.398 1228.86 295.729C1224.72 298.999 1223.19 300.784 1222.13 302.304C1221.58 303.021 1221 303.628 1220.16 304.383" stroke="#F4D77A" stroke-width="5.25" stroke-linecap="round"/>
<path d="M1278.11 300.862C1278.11 300.964 1275.98 306.303 1272.54 314.995C1270.82 319.764 1269.3 323.751 1267.52 328.085C1266.84 329.836 1266.6 330.677 1266.16 333.433" stroke="#F4D77A" stroke-width="5.25" stroke-linecap="round"/>
<path d="M1321.07 300.143C1321.07 300.251 1321.1 310.43 1321.21 326.393C1321.28 332.231 1321.41 333.476 1321.57 334.709C1321.74 335.941 1321.95 337.123 1322.17 338.777" stroke="#F4D77A" stroke-width="5.25" stroke-linecap="round"/>
<path d="M1354.51 286.023C1354.67 286.099 1354.89 287.786 1355.58 291.276C1356.12 293.117 1357.05 295.102 1359.1 298.59C1361.16 302.079 1364.32 307.01 1367.58 312.091" stroke="#F4D77A" stroke-width="5.25" stroke-linecap="round"/>
<path d="M1379.85 257.115C1381.79 257.316 1387.28 258.035 1391.4 259.876C1392.5 260.484 1393.57 261.198 1396.67 263.969C1399.78 266.741 1404.89 271.548 1410.16 276.501" stroke="#F4D77A" stroke-width="5.25" stroke-linecap="round"/>
<path d="M1395.91 222.721C1395.96 222.721 1396.02 222.721 1399.6 222.729C1403.18 222.738 1410.29 222.755 1415.93 223.215C1421.58 223.675 1425.54 224.577 1431.05 226.151" stroke="#F4D77A" stroke-width="5.25" stroke-linecap="round"/>
<path d="M1387.2 187.644C1387.27 187.644 1388.5 187.625 1395.61 185.644C1412.13 179.781 1425.11 175.367 1428.64 174.77C1430.11 174.565 1430.94 174.56 1431.78 174.555" stroke="#F4D77A" stroke-width="5.25" stroke-linecap="round"/>
<path d="M1359.08 159.357C1359.08 158.377 1359.38 154.558 1367.14 140.874C1369.94 136.55 1371.45 134.263 1372.59 132.338C1373.15 131.452 1373.65 130.749 1374.17 130.025" stroke="#F4D77A" stroke-width="5.25" stroke-linecap="round"/>
<path d="M1305.32 209.046C1302.85 209.189 1295.06 210.494 1289.77 213.401C1287.4 214.706 1285.75 217.192 1284.43 219.955C1283.13 222.688 1283.61 225.801 1284.09 228.284C1284.32 229.515 1285.52 230.392 1287.11 230.943C1290.73 232.202 1294.51 231.645 1297.28 231.157C1303.54 230.057 1307.98 223.338 1310.89 218.226C1312.72 214.991 1312.2 210.498 1311.69 206.835C1311.46 205.175 1310.36 204.115 1309.16 203.425C1306.71 202.006 1302.62 202.495 1298.45 203.271C1295.13 203.888 1293.04 206.568 1291.07 209.018C1288.91 211.69 1288.23 215.299 1288.34 218.512C1288.4 219.982 1289.19 221.05 1290.78 221.753C1294.69 223.477 1299.48 222.886 1303.25 222.321C1310.68 221.209 1314.79 214.601 1317.79 208.332C1318.51 206.828 1318.28 205.293 1317.71 204.146C1317.13 202.999 1315.92 202.181 1314.19 201.759C1306.76 199.941 1300.52 205.206 1295.39 209.866C1290.6 214.211 1289.74 221.755 1291.06 230.171C1292.8 241.295 1309.9 233.568 1316.09 231.145C1318.52 230.194 1320.13 227.028 1321.66 223.342C1323.02 220.065 1323.01 213.604 1322.51 205.867C1322.3 202.706 1320.58 201.31 1319.23 200.456C1311.36 195.475 1296.76 200.507 1292.2 202.937C1285.71 206.401 1282.11 218.722 1282.28 226.352C1282.33 228.376 1284.06 230.233 1285.7 231.642C1292.95 237.837 1312.36 236.035 1325.28 234.254C1333.23 233.157 1336.77 225.637 1340.03 218.714C1346.3 205.372 1343.83 200.414 1343 197.951C1340.82 191.437 1321.29 192.184 1307.47 193.482C1299.2 194.257 1293.21 200.704 1280.91 214.725C1273.69 222.956 1272.46 232.644 1272.44 240.84C1272.43 244.185 1275.13 247.234 1278.94 250.671C1288.15 258.994 1309.3 260.153 1322.58 259.897C1326.26 259.826 1328.55 257.007 1330.18 254.924C1333.47 250.706 1333.47 243.967 1333.59 233.517C1333.7 224.435 1325.08 213.052 1318.91 204.864C1316.95 202.275 1313.52 200.732 1308.86 199.517C1298.31 196.764 1288.17 205.576 1280.93 211.611C1276.66 215.17 1275.19 222.569 1274.97 235.745C1274.92 238.795 1276.77 240.701 1278.18 242.056C1283.5 247.178 1293.21 247.583 1306.5 247.75C1315.81 247.867 1322.34 239.778 1327.4 234.522C1333.77 227.9 1335.39 215.587 1335.61 207.097C1335.81 199.192 1327.93 195.272 1321.11 191.587C1314.34 187.934 1300.17 188.759 1289.84 192.06C1275.23 196.727 1273.33 212.062 1270.85 218.41C1269.51 221.847 1269.52 225.605 1269.89 229.216C1270.91 239.178 1281.57 245.855 1290.4 251.886C1298.75 257.585 1309.08 256.299 1317.82 255.207C1326.17 254.163 1335.59 242.992 1341.54 235.362C1346.54 228.951 1345.28 220.013 1343.71 212.667C1341.73 203.433 1330.9 196.21 1325.35 192.342C1320.55 188.997 1308.61 189.197 1298.61 190.437C1289.23 191.602 1283.69 198.164 1276.17 205.779C1270.53 211.478 1268.77 220.672 1268.65 230.774C1268.52 241.268 1280.21 247.727 1289.76 253.75C1298.1 259.012 1310.38 257.773 1320.29 253.915C1343.8 244.769 1343.25 233.335 1345.53 228.76C1348.13 223.546 1347.34 212.851 1345.39 203.05C1343.65 194.288 1334.2 186.457 1328.01 180.953C1324.79 178.09 1318.17 177.557 1311.44 177.608C1299.53 177.698 1279.36 196.225 1267.09 208.807C1261.28 214.763 1260.85 221.899 1261.13 230.392C1261.45 239.767 1275.97 251.142 1285.78 258.813C1292.64 264.179 1305.4 262.423 1313.19 261.816C1318.24 261.422 1328.94 251.781 1339.64 241.082C1344.85 235.867 1345.98 229.051 1346.64 222.273C1347.39 214.489 1341.41 205.847 1333.97 196.733C1326.5 187.583 1314.07 186.112 1296.01 186.418C1288.88 186.539 1283.71 190.96 1277.55 196.395C1258.01 213.632 1252.51 231.794 1251.82 242.021C1251.42 248.144 1266.83 256.109 1278.92 261.592C1287.94 265.681 1296.59 262.707 1303.47 258.308C1311.23 253.347 1315.69 239.945 1319.42 230.139C1323.74 218.762 1320.99 209.367 1318.49 203.587C1316.14 198.12 1311.24 194.983 1304.71 191.859C1300.31 189.756 1295.48 191.613 1291.64 193.419C1286.14 196.011 1283.12 200.995 1281.4 203.872C1277.77 209.947 1279.28 224.697 1282.58 234.879C1286.08 245.687 1302.66 247.581 1321.11 250.002C1327.11 250.79 1330.69 250.022 1333.33 249.265C1338.22 247.859 1340.81 242.133 1343.24 237.393C1344.4 235.129 1344.75 232.596 1345.1 229.883C1345.53 226.549 1343.97 222.628 1341.33 219.22C1337.67 214.479 1327.62 215.165 1320.87 215.962C1312.86 216.91 1308.13 229.797 1305.8 234.735C1304.22 238.102 1303.98 242.587 1304.5 246.453C1304.92 249.494 1309.03 249.95 1311.88 250.286C1318.32 251.044 1324.49 247.15 1329.02 242.767C1334.18 237.767 1333.4 219.639 1331.82 209.131C1331.4 206.322 1327.67 204.516 1322.15 202.845C1305.28 197.733 1296.98 205.952 1290.23 210.564C1283.62 215.08 1280.15 222.063 1276.43 230.716C1275.18 233.621 1275.24 237.971 1275.29 243.189C1275.34 249.33 1283.21 254.815 1291.26 259.372C1295.23 261.625 1299.79 261.841 1303.76 262.137C1311.34 262.702 1327.05 248.028 1342.45 229.619C1346.11 225.249 1346.6 221.68 1346.46 218.573C1346.14 211.968 1338.62 206.009 1328.92 199.605C1323.02 195.706 1304.09 195.587 1291.9 196.277C1286.91 196.559 1282.97 199.691 1280.38 201.602C1275.44 205.245 1274.16 227.484 1275.55 243.133C1276.3 251.656 1286.13 257.289 1294.72 262.307C1307.22 269.601 1332.7 267.373 1342.35 265.684C1347.55 264.773 1351.53 255.924 1355.17 247.765C1356.71 244.311 1356.38 240.079 1356.16 236.053C1355.51 224.51 1341.65 211.468 1336 207.981C1327.66 202.834 1318.67 204.204 1311.3 204.958C1303.55 205.75 1292.59 218.409 1285.32 227.534C1279.23 235.183 1283.98 248.303 1288.38 256.522C1294.64 268.211 1300.78 270.222 1305.57 272.207C1308.16 273.282 1314.32 273.354 1322 273.306C1333.59 273.233 1342.61 257.721 1347.32 249.402C1351.34 242.279 1351.77 223.392 1350.49 212.602C1349.44 203.675 1335.87 199.654 1328.51 197.107C1319.3 193.921 1304.35 196.251 1293.64 199.266C1283.74 202.052 1277.24 207.321 1274.74 209.682C1270.35 213.814 1269.82 220.043 1269.51 234.467C1269.26 246.406 1278.21 256.656 1283.12 260.187C1286.13 262.36 1296.88 262.022 1310.33 261.73C1317.41 261.576 1329.18 253.382 1345.4 242.45C1354.41 236.375 1357.06 231.646 1358.67 228.614C1360.16 225.818 1359.9 221.323 1359.53 216.32C1358.87 207.395 1341.71 194.268 1329.32 185.259C1325.78 182.684 1319.55 182.674 1313.11 182.534C1304.06 182.338 1290.36 193.938 1277.35 208.543C1264.73 222.711 1267.14 247.178 1268.07 258.658C1268.41 262.844 1271.93 266.329 1274.5 269.09C1279.44 274.404 1294.24 273.822 1304.05 272.631C1310.59 271.837 1326.95 253.424 1340.9 237.135C1346.36 230.75 1346.79 220.589 1346.55 204.317C1346.42 195.287 1340.56 189.328 1336.1 184.952C1328.28 182.598 1317.65 182.76 1311 184.773C1306.95 186.293 1301.54 188.823 1295.97 191.431" stroke="#F4D77A" stroke-width="5.25" stroke-linecap="round"/>
</svg>
