<svg width="1447" height="372" viewBox="0 0 1447 372" fill="none" xmlns="http://www.w3.org/2000/svg">
<path d="M88.4784 365.338C51.0461 362.516 9.13458 357.182 1.75 349.894V1.75H1440.25L1444.75 360.388C1443.25 362.029 1426.23 363.915 1406.74 364.64C1387.25 365.364 1350.63 365.113 1295.4 364.576C1240.16 364.039 1168.46 363.688 1130.42 362.542C1088.05 361.266 1108.39 361.748 1060.02 360.332C1030.38 359.465 1000.89 369.442 921.805 369.742C842.724 370.042 729.212 361.962 664.686 361.324C600.161 360.685 593.187 359.844 584.146 359.465C564.376 358.638 544.653 356.032 500.395 355.281C464.966 354.679 410.113 357.628 374.305 358.072C338.498 358.517 325.709 358.965 317.945 359.465C295.723 360.897 273.535 364.091 243.42 365.338C211.216 366.672 193.263 368.58 148.864 366.824C130.206 366.087 105.646 366.633 88.4784 365.338Z" fill="#F6F3EE" stroke="#E9ACC8" stroke-width="3.5" stroke-linecap="round"/>
<path d="M1180.51 289.16C1177.47 289.115 1170.7 289.277 1169.18 289.961C1167.54 290.694 1166.86 292.305 1166.38 294.074C1165.71 296.568 1166.61 298.889 1167.81 300.248C1168.99 301.587 1171.37 301.782 1173.64 301.819C1179.14 301.909 1184.52 295.464 1188.38 289.643C1191.13 285.51 1190.27 282.627 1189.9 281.545C1189.56 280.514 1187.61 280.108 1185.36 279.8C1182.78 279.445 1179.92 279.917 1177.28 280.76C1174.72 281.576 1173.22 283.596 1172.04 285.513C1170.8 287.541 1170.73 289.989 1170.78 292.239C1170.83 294.384 1172.59 296.203 1174.68 297.688C1176.84 299.232 1180.29 299.483 1183.8 299.584C1187.49 299.691 1190.96 298.231 1193.91 296.481C1196.82 294.751 1198.18 291.943 1199.17 289.459C1200.11 287.08 1199.47 284.588 1198.54 282.44C1197.63 280.346 1194.67 279.377 1191.7 278.786C1188.45 278.14 1184.78 278.851 1181.28 279.828C1177.73 280.822 1175.22 283.531 1173.1 286.135C1171.05 288.645 1170.79 291.671 1170.71 294.274C1170.63 296.655 1172.16 298.569 1174.08 299.943C1177.95 302.723 1183.42 301.672 1187.19 300.618C1191.8 299.325 1191.64 292.546 1191.75 288.522C1191.77 287.598 1191.24 286.736 1190.68 286.046C1189.62 284.721 1186.07 284.267 1181.61 284.312C1178.4 284.344 1176.1 286.239 1174.04 288.052C1172.18 289.689 1171.36 291.475 1170.93 293.046C1170.47 294.688 1171 296.374 1172.12 297.784C1175.12 301.549 1184.69 300.144 1191.55 297.847C1195.19 296.63 1196.01 292.336 1196.95 288.85C1197.88 285.413 1197.21 282.246 1196.14 279.849C1195.14 277.59 1191.66 276.797 1188.33 276.323C1184.71 275.808 1180.92 276.599 1177.54 277.712C1174.11 278.838 1172.21 281.675 1170.76 283.974C1169.43 286.096 1169.68 288.421 1169.87 290.223C1169.96 291.062 1170.58 291.677 1171.36 292.229C1173.03 293.413 1175.69 293.8 1178.62 293.832C1181.75 293.866 1184.61 292.698 1186.89 291.487C1188.92 290.411 1190.01 288.627 1190.92 286.895C1191.81 285.174 1191.58 283.319 1190.89 281.692C1190.14 279.941 1187.47 279.04 1184.67 278.429C1181.59 277.755 1177.94 278.583 1174.42 279.774C1167.67 282.059 1165.06 288.236 1164.14 292.885C1163.69 295.192 1165.62 297.576 1168.21 299.855C1171.25 302.536 1176.32 303.752 1181.17 304.811C1185.88 305.841 1190.42 305.286 1194.08 304.453C1197.43 303.69 1199.44 301.202 1200.92 298.944C1202.36 296.744 1202.08 293.95 1201.56 291.178C1201.01 288.221 1198.14 285.782 1195.21 283.833C1192.52 282.041 1188.92 281.904 1185.58 282.146C1177.95 282.7 1173.67 290.893 1172.02 295.726C1171.25 298.003 1172.48 300.193 1174.12 301.74C1178.23 305.615 1187.49 303.424 1193.4 301.314C1195.95 300.406 1196.71 297.92 1197.36 295.834C1198.03 293.666 1197.54 291.49 1196.62 289.686C1195.72 287.922 1193.11 287.068 1190.47 286.41C1187.7 285.72 1185 285.916 1182.86 286.284C1180.84 286.633 1179.22 288.313 1177.68 290.269C1176.08 292.295 1175.88 294.868 1175.84 297.239C1175.8 299.517 1176.84 301.409 1178.3 302.8C1181.42 305.773 1185.99 304.767 1187.78 304.275C1191.73 303.186 1191.99 296.969 1192.02 292.492C1192.03 290.738 1190.51 289.453 1188.96 288.5C1187.43 287.555 1185.31 287.529 1183.34 287.628C1179.3 287.831 1176.88 291.405 1175.7 293.601C1175.39 294.18 1175.66 295.001 1176.09 295.687C1178.14 299.04 1186.18 299.704 1192.38 299.892C1194.77 299.964 1196.31 298.49 1197.3 297.206C1198.29 295.932 1198.43 294.181 1198.38 292.322C1198.32 290.402 1196.57 288.711 1194.24 287.308C1191.64 285.735 1187.79 285.488 1184.05 285.393C1180.44 285.3 1177.35 286.647 1174.99 288.044C1172.91 289.275 1171.99 291.023 1171.4 292.537C1170.82 294.04 1171.13 295.691 1171.79 297.306C1172.54 299.143 1175.17 300.374 1177.85 301.377C1180.48 302.358 1183.46 302.244 1186.13 302.079C1188.63 301.925 1190.49 300.663 1191.82 299.36C1194.37 296.866 1194.27 293.196 1193.23 290.056C1191.85 285.913 1182.2 285.602 1173.05 285.435C1171.32 285.404 1170.66 285.746 1170.2 286.057C1166.82 288.32 1169.43 295.764 1171.4 298.103C1173.96 301.144 1182.37 299.492 1189.91 296.951C1196.85 294.61 1198.57 288.999 1199.33 284.821C1199.69 282.833 1197.74 280.886 1195.69 279.007C1193.49 276.999 1190.28 275.831 1187 275.024C1183.67 274.204 1180.05 274.843 1176.63 275.95C1172.91 277.157 1170.06 280.373 1167.27 283.601C1164.49 286.806 1163.24 290.6 1162.22 294.084C1161.27 297.355 1161.34 300.361 1161.68 302.862C1162 305.223 1164.78 306.974 1168.33 308.357C1172.49 309.98 1178.42 309.925 1184.65 310.015C1190.7 310.103 1195.97 309.03 1200.11 307.561C1203.9 306.221 1206.13 303.533 1207.82 301.032C1211.38 295.775 1209.77 289.491 1206.81 285.15C1205.31 282.955 1201.54 282.727 1198.51 282.493C1191.68 281.966 1185.61 288.093 1181.8 292.378C1180.21 294.16 1179.96 296.305 1179.87 298.181C1179.78 300.002 1181.25 301.665 1183.32 303.119C1188.42 306.698 1197.36 305.489 1203.05 303.927C1205.66 303.213 1206.6 300.354 1207.58 297.972C1208.57 295.539 1207.77 292.692 1206.49 289.898C1205.11 286.891 1201.15 284.854 1197.08 283.101C1192.83 281.27 1187.38 281.148 1181.92 281.112C1176.5 281.076 1171.91 282.744 1168.52 284.361C1165.6 285.751 1164.1 287.891 1163.02 289.668C1161.98 291.368 1162.28 293.403 1162.82 295.253C1164.04 299.362 1173.23 300.332 1182.08 300.84C1186 301.065 1189.04 299.994 1191.25 298.988C1193.3 298.052 1194.39 296.509 1195.06 295.147C1196.26 292.749 1195.51 291.015 1194.93 290.251C1194.33 289.468 1192.58 289.614 1190.72 289.999C1188.26 290.51 1185.52 293.179 1182.19 296.348C1176.02 302.213 1173.99 307.692 1173.52 311.547C1173.42 312.363 1173.93 313.048 1174.52 313.61C1177.11 316.113 1184.58 315.974 1188.84 315.499C1191.73 315.176 1191.82 311.177 1191.99 308.802C1192.03 308.256 1191.62 307.77 1191.09 307.366C1189.94 306.486 1187.85 306.283 1185.6 306.226C1183.34 306.168 1181.02 306.975 1178.77 308.369C1173.79 311.455 1173.92 317.053 1173.9 320.721C1173.9 321.549 1174.27 322.282 1174.88 322.909C1178.13 326.209 1188.85 324.79 1197.32 322.427C1201 321.402 1202.97 318.188 1204.8 315.4C1206.61 312.634 1206.35 309.482 1205.75 306.892C1205.2 304.47 1202.37 302.933 1199.4 301.819C1196.17 300.61 1191.93 300.853 1187.59 301.175C1183.14 301.506 1178.99 303.913 1175.12 306.616C1168 311.583 1166.9 317.242 1166.41 320.487C1166.31 321.165 1166.75 321.73 1167.37 322.207C1170.79 324.826 1179.43 323.679 1186.75 321.893C1193.64 320.214 1195.94 313.694 1197.38 309.633C1198.01 307.86 1197.6 306.202 1197.07 304.889C1196.54 303.553 1194.42 302.784 1192.05 302.128C1189.39 301.391 1185.99 301.719 1182.46 302.272C1178.86 302.836 1176.23 304.885 1174.26 306.666C1170.61 309.962 1170.85 314.951 1172.23 318.969C1172.96 321.108 1176.05 322.186 1178.78 323.088C1181.63 324.032 1185.23 323.564 1189.08 322.554C1197.87 320.243 1201.29 313.495 1203.28 308.611C1204.18 306.397 1203.2 304.378 1201.74 302.887C1200.09 301.193 1196.84 300.698 1193.56 300.359C1189.93 299.986 1185.78 301.338 1181.54 303.371C1173.11 307.42 1170 314.178 1168.34 318.522C1167.99 319.443 1168.15 320.334 1168.39 321.103C1168.62 321.871 1169.1 322.523 1170 323.033C1174.58 325.642 1183.16 324.13 1190.62 321.574C1197.12 319.344 1198.25 313.367 1198.84 309.52C1198.96 308.721 1198.63 308.084 1198.19 307.538C1197.28 306.404 1193.63 306.172 1188.73 306.691C1181.23 307.486 1178.47 314.227 1176.59 319.077C1175.73 321.296 1176.65 323.41 1178.03 324.995C1179.53 326.726 1182.78 326.983 1185.56 327.319C1188.35 327.655 1191.17 326.959 1193.72 325.639C1196.51 324.197 1197.8 320.942 1199.2 317.775C1202.08 311.265 1200.86 304.983 1198.6 301.065C1197.59 299.33 1194.58 299.139 1192.21 298.886C1189.84 298.634 1187.67 299.527 1185.93 300.684C1182.25 303.133 1182.43 307.778 1182.94 311.224C1183.18 312.836 1185.93 313.78 1188.67 314.671C1191.6 315.623 1195.04 315.433 1198.11 315.227C1200.77 315.049 1202.57 313.733 1203.74 312.45C1204.81 311.293 1205.05 310.068 1205.06 309.1C1205.08 308.077 1203.91 307.226 1202.65 306.593C1201.35 305.939 1199.36 306.082 1197.2 306.295C1192.15 306.794 1189.31 312.659 1187.36 316.63C1186.55 318.26 1186.68 319.724 1187.09 320.763C1187.62 322.095 1190.37 322.183 1192.47 322.206C1194.41 322.227 1195.93 321.429 1197.06 320.618C1198.11 319.864 1198.53 318.826 1198.71 317.838C1198.89 316.784 1197.96 315.626 1196.41 314.492C1192.28 311.467 1184.38 312.282 1177.77 312.922C1174.91 313.198 1173.06 314.837 1171.83 315.912C1171.29 316.382 1171.13 316.845 1171.14 317.421C1171.15 317.997 1171.4 318.708 1171.94 319.216C1174.57 321.67 1182.6 320.147 1191.13 317.147C1195.24 315.7 1197.51 313.081 1199.16 311.282C1200.62 309.69 1201 307.826 1201 306.066C1200.99 304.253 1199.21 302.752 1197.08 301.653C1192.01 299.046 1184.08 301.066 1178.43 303.141C1176.05 304.019 1174.91 305.932 1174.05 307.476C1173.25 308.908 1173.41 310.421 1173.65 311.727C1173.9 313.066 1175.57 314.15 1177.71 315.058C1180.14 316.083 1183.71 315.855 1187.77 315.302C1192.31 314.682 1196.23 312.151 1199.57 309.72C1202.76 307.389 1204.53 304.055 1205.98 300.711C1208.88 294.041 1207.34 287.538 1205.98 282.673C1205.41 280.627 1203.65 279.28 1202.38 278.188C1201.24 277.213 1199.54 276.866 1197.79 276.661C1196.02 276.455 1194.35 276.859 1192.91 277.559C1191.37 278.305 1190.57 279.613 1189.97 280.696C1189.36 281.824 1189.68 283.279 1190.23 284.676C1190.82 286.169 1193.46 286.961 1196.43 287.631C1199.75 288.38 1203.74 287.848 1207.76 286.966C1215.96 285.167 1219.91 278.606 1222.14 273.575C1223.2 271.184 1222.69 268.626 1222.32 266.264C1221.93 263.749 1219.77 261.686 1217.48 260.156C1215.29 258.687 1211.97 258.725 1208.75 258.824C1205.36 258.929 1202 260.95 1198.66 263.621C1194.95 266.585 1192.74 270.981 1190.69 275.229C1188.72 279.302 1188.37 283.432 1188.16 286.939C1187.98 289.943 1189.13 292.231 1191.11 293.841C1193.41 295.717 1197.82 295.866 1202.31 295.898C1207.08 295.932 1211.69 293.671 1215.91 291.06C1220.21 288.399 1222.73 284.365 1224.75 280.783C1228.06 274.926 1226.6 269.783 1224.25 265.938C1223.06 263.99 1219.75 263.38 1216.88 262.685C1214.04 261.997 1211.03 262.402 1208.11 263.402C1204.55 264.621 1201.93 268.738 1199.1 273.116C1196.37 277.33 1195.33 281.524 1194.77 285.055C1194.26 288.315 1195.13 290.966 1196.93 292.794C1199.07 294.965 1204.27 295.013 1209.62 295.154C1215.36 295.305 1221.39 292.689 1227.38 289.34C1233.59 285.869 1237.49 280.713 1240.39 276.201C1243.03 272.098 1243.19 267.656 1243 263.711C1242.8 259.864 1239.7 256.662 1236.37 254.094C1233.12 251.584 1228.34 250.981 1223.73 250.766C1218.9 250.541 1213.98 252.752 1209.25 255.461C1204.44 258.213 1201.29 262.127 1198.65 265.625C1193.73 272.138 1194.31 278.957 1195.93 283.955C1196.62 286.08 1200.7 286.354 1204.44 286.55C1208.71 286.775 1213.93 284.753 1219.85 281.866C1226.37 278.686 1230.94 274.306 1234.25 271.111C1236.9 268.551 1238.08 265.658 1238.97 262.914C1239.79 260.385 1238.74 257.93 1236.94 255.835C1234.96 253.544 1230.92 252.746 1226.89 252.253C1222.65 251.735 1218.12 252.94 1213.74 254.65C1209.16 256.434 1205.9 260.082 1202.99 263.679C1200.03 267.329 1199.06 271.845 1198.29 276.076C1197.57 280.073 1198.21 283.629 1199.52 286.497C1200.82 289.336 1204.92 290.888 1209.18 292.17C1213.82 293.568 1219.7 292.585 1225.58 290.695C1231.52 288.785 1235 284.526 1237.59 281.324C1241.96 275.927 1241.3 271.253 1240.8 269.085C1240.32 267.011 1237.19 265.728 1233.97 264.593C1230.65 263.42 1226.7 263.719 1222.99 264.327C1216.01 265.473 1212.89 271.072 1210.98 275.724C1210.03 278.038 1210.6 280.266 1211.17 281.954C1211.72 283.567 1213.71 284.628 1215.9 285.451C1218.26 286.338 1221.35 285.611 1224.37 284.347C1230.66 281.707 1233.16 275.128 1234.81 268.349C1235.69 264.733 1234.96 261.421 1234.32 259.036C1233.8 257.125 1231.85 256.079 1229.98 255.365C1227.95 254.592 1225.01 255.412 1221.73 256.952C1217.84 258.778 1213.3 264.119 1208.14 270.006C1203.11 275.729 1203.55 278.993 1203.79 280.225C1203.91 280.827 1204.55 281.269 1205.47 281.66C1211.84 284.342 1221.81 282.481 1225.73 280.775C1229.26 279.243 1229.03 273.839 1228.07 268.802C1227.58 266.245 1224.57 264.711 1222.01 263.632C1219.45 262.55 1216.02 262.933 1212.39 263.61C1208.22 264.385 1204.53 267.561 1201.02 270.849C1197.71 273.958 1196.26 277.378 1195.39 280.187C1194.56 282.878 1195.25 285.442 1196.55 287.386C1197.9 289.406 1202.51 289.481 1207.18 289.727C1211.97 289.98 1216.19 289.095 1219.54 287.898C1222.95 286.677 1225.38 283.975 1227.62 281.365C1229.89 278.726 1230.63 275.027 1231.45 270.755C1232.44 265.618 1231.7 261.717 1230.66 259.969C1229.68 258.301 1226.94 257.76 1224.24 257.372C1221.33 256.956 1218.19 257.667 1215.17 258.958C1208.61 261.766 1207.19 268.093 1206.23 273.009C1205.78 275.284 1206.97 277.282 1208.54 278.835C1212.24 282.476 1221.19 281.711 1228.65 280.551C1231.97 280.036 1233.92 277.803 1235.46 276.26C1236.96 274.753 1237.16 272.413 1237.22 269.926C1237.27 267.278 1235.63 264.786 1233.84 262.687C1232.14 260.687 1229.21 259.834 1226.4 259.281C1223.5 258.709 1220.12 259.658 1216.57 261.146C1212.54 262.838 1209.49 266.513 1206.57 269.982C1201.8 275.649 1201.99 281.443 1203.64 284.891C1205.77 289.374 1217.14 287.935 1225.71 286.829C1229.58 286.33 1232.05 283.931 1234.01 282.07C1236.01 280.179 1236.67 277.309 1237.02 274.068C1237.41 270.416 1236.09 266.335 1234.4 262.451C1232.89 258.992 1230.07 256.779 1227.66 255.119C1225.29 253.485 1222.28 252.933 1219.43 252.72C1216.55 252.505 1213.33 253.624 1209.65 255.507C1205.2 257.782 1201.71 261.334 1198.67 264.25C1193.88 268.838 1192.92 273.158 1193.32 275.989C1193.76 279.118 1201.72 279.368 1209.68 279.568C1213.76 279.671 1217.53 277.953 1220.9 276.09C1224.15 274.292 1225.87 271.606 1226.9 269.175C1227.86 266.89 1227.58 264.662 1227.17 262.83C1226.77 261.09 1225.13 259.94 1223.53 259.19C1221.93 258.443 1219.8 258.576 1217.66 258.778C1212.71 259.244 1209.22 264.573 1206.76 269.672C1205.5 272.295 1205.84 275.209 1206.06 277.742C1206.25 280.073 1208.31 281.799 1210.62 283.002C1212.91 284.191 1215.92 284.017 1218.91 283.491C1222.44 282.867 1225.68 279.51 1229.13 275.793C1232.59 272.066 1234.42 267.961 1235.72 264.594C1236.82 261.758 1236.71 259.446 1236.47 257.844C1236.35 257.106 1235.93 256.567 1235.28 256.11C1233.86 255.109 1231.34 254.819 1228.58 254.727C1225.75 254.634 1222.98 255.914 1220.49 257.429C1216.08 260.104 1215.45 264.524 1215.28 267.784C1215.24 268.477 1215.66 269.028 1216.23 269.515C1217.46 270.574 1219.82 271.035 1222.59 271.283C1229.29 271.885 1235.52 266.042 1238.65 262.096C1239.96 260.446 1239.64 258.475 1239.09 256.939C1238.53 255.359 1235.81 254.714 1233.08 254.296C1230.2 253.853 1227.06 254.865 1224 256.599C1220.45 258.607 1218.57 262.11 1216.89 265.09C1213.55 271.001 1213.99 276.495 1214.98 279.626C1215.42 281.019 1217.51 281.542 1219.2 281.918C1220.03 282.102 1220.83 282.104 1221.57 281.96C1223.03 281.674 1224.28 280.392 1225.47 278.809C1226.67 277.201 1226.92 275.253 1227.03 273.499C1227.14 271.909 1226.38 270.735 1225.35 270.038C1224.17 269.241 1222 269.64 1219.73 270.423C1214.12 272.363 1212.48 278.354 1211.37 282.607C1211.14 283.525 1211.3 284.296 1211.62 284.912C1212.24 286.117 1214.3 286.637 1216.61 286.907C1218.88 287.174 1221.09 286.629 1223 285.865C1224.89 285.11 1225.88 283.616 1226.63 282.437C1227.35 281.313 1227.26 279.929 1226.97 278.596C1226.67 277.223 1224.77 276.355 1222.7 275.748C1220.49 275.1 1217.9 275.519 1215.55 276.186C1211.08 277.452 1210.05 281.992 1209.56 284.41C1209.46 284.891 1209.69 285.3 1210.07 285.596C1210.89 286.254 1213 286.174 1215.8 285.681C1223.22 284.375 1227.51 277.55 1229.78 272.539C1230.82 270.247 1230 268.066 1228.82 266.503C1227.56 264.833 1224.65 264.488 1222.15 264.39C1216.74 264.177 1213.06 270.202 1210.87 274.409C1209.2 277.606 1210.16 279.721 1210.73 280.604C1211.33 281.536 1213.31 281.664 1215.29 281.692C1220.17 281.76 1224.31 275.761 1227.05 271.268C1228.3 269.216 1228.01 267.133 1227.77 265.772C1227.66 265.168 1227.16 264.818 1226.46 264.543C1224.86 263.916 1222.5 263.942 1219.96 264.212C1214.31 264.811 1211.26 269.794 1209.42 272.785C1209.03 273.411 1209.01 274.005 1209.2 274.526C1209.39 275.046 1209.91 275.512 1210.73 275.79C1214.87 277.202 1220.8 274.658 1224.9 272.345C1226.51 271.441 1227.01 270.172 1227.26 269.319C1227.38 268.908 1227.25 268.505 1226.91 268.113C1225.14 266.042 1219.85 266.502 1215.38 267.39C1210.28 268.405 1208.47 273.413 1207.26 276.545C1206.96 277.308 1206.94 278.149 1207 278.739C1207.06 279.33 1207.32 279.668 1207.98 279.655C1212.83 279.56 1217.3 274.717 1220.1 271.079C1222.79 267.594 1222.64 265.216 1222.28 264.671C1221.59 263.647 1216.67 267.748 1211.38 272.131C1206.42 276.241 1205.43 279.916 1205.39 282.195C1205.38 282.679 1205.73 283.071 1206.23 283.434C1208.89 285.379 1214.59 285.151 1219.61 284.328C1221.92 283.949 1223.39 282.242 1224.55 280.787C1225.13 280.067 1225.32 279.213 1225.14 278.362C1224.77 276.545 1221.99 274.839 1218.18 273.159C1213.82 271.24 1208.07 270.974 1202.69 270.741C1198.03 270.54 1194.16 271.659 1190.95 273.422C1187.5 275.315 1185.95 279.073 1184.71 282.629C1183.52 286.05 1183.59 290.001 1183.86 293.402C1183.96 294.71 1184.59 295.113 1185.38 295.384C1189.83 296.914 1197.16 292.056 1203.67 287.712C1207.05 285.457 1210.24 282.769 1213.6 279.655C1220.58 273.19 1224.31 268.173 1225.16 266.013C1225.55 265.049 1225.48 264.27 1225.17 263.665C1223.82 261.015 1217.98 260.822 1212.99 261.132C1207.41 261.479 1205.52 269.652 1204.22 275.582C1203.62 278.328 1204.25 280.897 1205.04 282.926C1205.75 284.739 1208.49 285.498 1211.27 285.945C1214.32 286.438 1218.09 284.836 1222.14 282.683C1230.4 278.282 1233.5 272.594 1234.14 269.733C1234.26 269.195 1233.39 268.86 1232.45 268.633C1230.24 268.098 1226.83 268.297 1222.65 268.72C1217.94 269.197 1213.4 271.777 1209.26 274.738C1201.96 279.97 1201.55 286.303 1201.38 289.831C1201.35 290.499 1201.83 290.933 1202.44 291.284C1203.81 292.071 1205.97 292.196 1208.17 292.086C1210.43 291.974 1212.16 290.41 1213.55 288.992C1216.19 286.29 1215.69 283.48 1215.24 282.385C1214.81 281.333 1212.43 281.226 1209.88 281.17C1207.01 281.107 1203.6 282.358 1199.75 284.53C1190.82 289.563 1188.18 296.49 1187 300.02C1186.77 300.704 1186.98 301.283 1187.28 301.732C1187.87 302.633 1189.83 302.997 1192.52 303.233C1195.73 303.515 1199.67 302.71 1203.96 301.086C1208.67 299.303 1212.34 295.356 1215.86 291.408C1222.24 284.253 1221.73 278.908 1221.47 276.799C1221.35 275.851 1220.56 275.255 1219.58 274.872C1214.99 273.088 1209.71 274.576 1205.46 276.733C1200.27 279.367 1199.21 287.521 1198.65 290.921C1198.31 293.03 1213.14 289.467 1220.69 287.489C1221.37 287.311 1221.64 286.935 1221.82 286.379C1221.99 285.824 1222 284.978 1221.81 284.303C1221.62 283.629 1221.23 283.151 1220.57 282.756C1219.12 281.889 1216.79 281.673 1214.27 281.71C1211.72 281.747 1209.52 283.168 1207.75 284.616C1204.77 287.036 1205.09 289.229 1205.32 290.017C1205.57 290.843 1207.59 291.07 1210.09 291.169C1213.17 291.291 1217.28 289.604 1222.07 287.215C1231.43 282.553 1234.65 277.141 1235.6 274.674C1235.77 274.233 1234.87 273.932 1234.13 273.776C1232.56 273.442 1230.52 273.979 1228.35 274.945C1223.4 277.151 1222.21 282.273 1221.44 285.829C1221.26 286.637 1221.41 287.396 1221.68 288.067C1221.96 288.738 1222.47 289.309 1223.36 289.775C1225.37 290.816 1228.92 291.117 1233.61 291.383C1239.28 291.705 1245.86 290.769 1252.17 289.347C1257.58 288.131 1261.14 286.073 1263.59 284.612C1265.75 283.332 1266.63 281.54 1266.95 279.796C1267.31 277.845 1266.2 275.578 1264.49 273.3C1262.65 270.863 1258.79 269.626 1254.63 268.707C1245.29 266.644 1236.82 269.246 1232.48 271.989C1230.33 273.35 1230.25 275.926 1229.98 277.76C1229.74 279.372 1230.75 280.884 1232.39 282.207C1234.32 283.752 1238.14 283.828 1242.39 283.872C1247.22 283.922 1252.48 282.362 1257.53 280.399C1262.29 278.548 1265.35 275.625 1267.51 273.227C1269.44 271.089 1269.66 268.598 1269.6 266.581C1269.57 265.616 1269.03 264.806 1268.22 264.113C1264.2 260.695 1254.47 261.579 1246.84 262.657C1243.23 263.168 1240.7 265.968 1238.49 268.344C1234.22 272.953 1235.66 279.676 1237 284.584C1237.63 286.866 1241.34 287.943 1244.96 288.923C1248.97 290.011 1253.77 289.566 1258.47 288.844C1267.35 287.481 1271.09 282.414 1272.64 279.287C1273 278.56 1272.84 277.783 1272.52 277.063C1271.82 275.536 1269.27 274.359 1265.79 273.316C1261.71 272.092 1256.02 272.425 1249.71 273C1243.32 273.582 1238.23 275.978 1234.62 277.861C1231.82 279.322 1230.4 281.05 1229.6 282.514C1228.88 283.826 1229.31 285.251 1230.12 286.51C1232.38 290.067 1242.28 289.755 1251.85 288.578C1261.61 287.377 1266 281.107 1268.22 277.087C1268.76 276.095 1268.53 274.93 1268.12 273.807C1267.25 271.44 1264.13 269.48 1259.78 267.841C1254.44 265.834 1247.31 266.413 1240.76 267.151C1235.08 267.794 1230.84 270.559 1227.26 272.814C1224.04 274.838 1222.3 277.133 1221.37 278.959C1220.58 280.515 1220.9 281.98 1221.39 283.088C1222.57 285.764 1230.16 285.368 1237.25 284.577C1243.64 283.864 1248.24 279.238 1252.48 274.516C1256.17 270.396 1256.12 266.063 1256.09 263.567C1256.09 263.066 1255.57 262.717 1254.99 262.427C1250.54 260.216 1240.99 262.445 1235.6 265.603C1229.86 268.962 1229.97 276.492 1229.98 282.595C1229.98 285.192 1231.77 287.176 1233.77 288.642C1238.03 291.762 1245.48 290.442 1252.71 288.508C1259.5 286.693 1263.3 282.499 1265.46 278.944C1266.59 277.064 1265.86 274.567 1265.02 272.139C1264.11 269.526 1261.26 267.706 1258.65 266.342C1254.03 263.922 1248.49 264.857 1244.09 266.56C1238.71 268.642 1238.77 275.207 1238.7 280.601C1238.68 281.671 1239.38 282.094 1240.27 282.431C1242.35 283.223 1246.07 283.235 1250.9 283.028C1256.39 282.794 1261.64 280.959 1266.04 279.2C1269.83 277.687 1272.31 275.566 1274.09 273.708C1275.67 272.065 1275.82 270.019 1275.72 268.277C1275.68 267.422 1275.08 266.674 1274.31 266.038C1270.79 263.161 1263.3 263.829 1255.44 265.591C1246.93 267.501 1244.2 274.25 1242.72 278.198C1242.07 279.908 1242.63 281.433 1243.33 282.488C1244.1 283.65 1246.51 283.815 1248.94 283.95C1254.93 284.284 1261.93 279.747 1267.05 276.267C1268.98 274.959 1269.82 273.406 1270.26 272.052C1270.72 270.658 1269.98 268.995 1268.55 267.263C1264.98 262.926 1255.93 263.065 1248.89 263.501C1245.51 263.711 1243.01 266.265 1241.02 268.424C1237.84 271.871 1238.74 275.9 1239.82 278.456C1240.38 279.768 1243.33 279.774 1246.3 279.818C1249.82 279.871 1254.15 278.361 1258.85 276.391C1267.08 272.937 1270.01 269.17 1270.53 266.947C1271.34 263.426 1257.39 266.106 1251.1 269.101C1244.59 272.201 1244.65 279.181 1244.52 283.65C1244.46 285.651 1245.66 287.264 1247.3 288.371C1251.26 291.036 1259.68 288.213 1266.64 284.813C1269.39 283.471 1270.87 281.733 1271.88 280.166C1272.45 279.293 1272.3 277.983 1271.98 276.95C1271.37 275.007 1268.95 273.651 1266.26 272.474C1263.46 271.251 1259.81 271.285 1255.99 271.604C1251.69 271.963 1247.63 274.91 1243.86 277.885C1237.9 282.597 1236.84 287.348 1236.82 290.266C1236.82 290.864 1237.59 291.23 1238.49 291.505C1240.61 292.146 1243.93 291.834 1247.92 291.061C1252.45 290.185 1256.64 287.286 1260.6 284.574C1266.56 280.494 1268.37 276.93 1269.25 274.121C1269.45 273.466 1269.35 272.828 1269.17 272.273C1268.98 271.719 1268.59 271.251 1267.96 270.861C1266.57 270.012 1264.38 269.785 1261.9 269.824C1256.07 269.914 1251.97 274.181 1249.74 276.666C1249.32 277.14 1249.27 277.614 1249.42 278.132C1249.57 278.651 1250.01 279.25 1250.77 279.678C1255.52 282.334 1264.14 280.51 1267.26 279.385C1268.33 279 1268.56 278.005 1268.7 277.116C1268.88 275.991 1268.25 274.725 1267.29 273.612C1264.84 270.768 1256.17 272.219 1248.55 274.316C1242.49 275.984 1241.5 279.354 1241.27 280.346C1241.15 280.864 1241.7 281.442 1242.37 281.792C1243.82 282.548 1246.15 282.381 1248.54 282.243C1254.64 281.891 1259.17 276.788 1260.53 274.813C1261.13 273.927 1261.12 272.928 1261.16 272.064C1261.18 271.62 1261.05 271.167 1260.51 270.891C1259.19 270.21 1257.15 270.705 1255.39 271.409C1251.28 273.045 1249.5 276.532 1248.58 278.591C1248.39 279.023 1248.48 279.446 1248.59 279.818C1248.8 280.553 1249.86 281.158 1251.45 281.674C1253.31 282.278 1255.82 282.085 1258.47 281.719C1265.03 280.816 1269.32 275.604 1270.48 272.967C1272.52 268.354 1271.31 266.132 1270.96 265.257C1270.8 264.851 1270.27 264.669 1269.59 264.531C1265.42 263.68 1259.5 267.04 1252.99 271.717C1248.55 274.901 1242.41 280.267 1239.05 283.155C1235.69 286.044 1235.44 286.428 1235.31 286.82C1235.19 287.212 1235.21 287.6 1235.84 287.968C1236.47 288.335 1237.72 288.67 1242.61 288.851C1247.5 289.033 1255.99 289.05 1260.82 288.971C1265.65 288.893 1266.58 288.718 1267.16 288.242C1267.74 287.767 1267.95 286.995 1267.62 286.248C1266.87 284.595 1263.72 283.527 1259.82 282.591C1255.33 281.513 1249.75 282.165 1244.07 283.234C1238.44 284.295 1234.18 287.488 1230.83 290.217C1228.02 292.512 1226.96 295.041 1226.42 297.075C1225.92 298.964 1226.48 300.654 1227.55 301.974C1228.8 303.531 1232.52 303.912 1238.83 304.279C1243.08 304.526 1249.5 304.275 1254.52 303.897C1263.06 303.256 1268.89 301.395 1273.03 299.871C1276.17 298.717 1277.93 297.246 1279.02 295.998C1280.06 294.815 1279.83 293.137 1279.35 291.519C1278.13 287.447 1270.61 285.358 1263.66 284.365C1260.23 283.875 1257.16 284.806 1254.89 285.639C1252.96 286.347 1252.1 287.736 1251.55 288.91C1250.95 290.206 1251.4 291.79 1252.2 293.26C1253.05 294.845 1255.82 295.553 1258.82 296.121C1262.17 296.756 1266.33 296.176 1270.91 295.178C1275.91 294.086 1279.99 291.316 1283.35 289.105C1286.15 287.257 1287.89 285.183 1289.08 283.209C1290.2 281.351 1289.88 279.23 1289.19 277.294C1288.43 275.186 1285.35 273.921 1281.93 273.039C1278.1 272.051 1273.2 272.901 1268.03 274.18C1262.56 275.534 1258.5 278.806 1255.35 281.394C1252.7 283.57 1251.64 286.099 1250.97 288.269C1250.35 290.295 1251.13 292.292 1252.7 294.005C1254.56 296.039 1259.06 296.571 1263.87 297.301C1269.08 298.091 1274.48 297.577 1279.33 296.623C1287.96 294.928 1292.05 290.216 1294.4 287.239C1295.38 285.995 1294.97 284.486 1294.24 283.235C1292.2 279.716 1282.28 280.311 1273.5 281.368C1266.19 282.248 1262.93 289.041 1261.34 293.768C1260.6 295.977 1261.88 298.267 1263.43 300.178C1265.14 302.275 1269.29 302.735 1273.48 303.229C1278.03 303.766 1282.95 303.136 1287.68 302.057C1296.2 300.112 1299.42 295.493 1300.76 292.621C1301.08 291.932 1300.54 291.139 1299.81 290.376C1298.14 288.648 1294.48 287.543 1288.47 286.646C1279.2 285.262 1271.37 286.265 1267.65 287.086C1264.41 287.802 1262.42 289.323 1261.19 290.458C1260.11 291.463 1260 292.959 1260.01 294.412C1260.02 295.142 1260.37 295.841 1261.08 296.499C1262.67 297.971 1266.17 298.766 1270.6 299.443C1275.52 300.195 1281.16 299.44 1286.67 298.2C1291.84 297.037 1295.26 294.479 1297.53 292.597C1299.44 291.016 1299.89 289.124 1299.81 287.529C1299.72 285.663 1296.76 283.865 1293.32 281.968C1289.56 279.898 1284.28 279.283 1278.74 278.9C1273.02 278.505 1267.23 280.214 1262.04 282.221C1257.38 284.022 1254.57 286.617 1252.65 288.591C1250.87 290.421 1250.47 292.553 1250.37 294.196C1250.32 294.954 1250.66 295.558 1251.36 296.082C1252.97 297.286 1257.17 297.763 1263 298.251C1269.3 298.777 1275 298.226 1279.38 297.279C1283.4 296.413 1286.31 294.269 1288.67 292.485C1290.76 290.903 1291.56 288.645 1292.1 286.377C1292.67 283.997 1291.97 281.52 1290.78 279.297C1289.57 277.059 1286.64 275.817 1283.81 274.845C1280.77 273.802 1276.76 274.088 1272.44 274.521C1263.26 275.44 1257.93 281.456 1255.11 285.664C1253.88 287.501 1254.57 289.59 1255.39 291.283C1256.32 293.227 1259.87 294.255 1263.85 295.195C1268.25 296.235 1273.45 295.976 1278.47 295.634C1286.74 295.07 1290.96 291.246 1292.72 289.339C1293.42 288.585 1293.08 287.286 1292.79 285.897C1292.47 284.327 1290.69 282.961 1288.67 281.773C1286.6 280.558 1283.65 280.462 1280.61 280.53C1273.89 280.681 1269.39 285.356 1266.97 288.492C1265.98 289.772 1266.3 291.351 1266.67 292.671C1266.86 293.334 1267.54 293.855 1268.59 294.279C1271.01 295.262 1275.01 295.352 1279.83 295.283C1290.11 295.137 1297.14 290.848 1300.65 288.277C1301.33 287.776 1301.4 287.062 1301.39 286.398C1301.36 285 1299.71 283.468 1297.03 281.946C1293.88 280.151 1288.87 279.997 1283.45 280.242C1277.72 280.501 1272.44 283.656 1267.77 286.913C1260.2 292.205 1258.53 298.86 1258.62 303.304C1258.66 305.175 1262.72 305.88 1266.77 306.489C1271.31 307.172 1276.29 306.473 1280.91 305.46C1285.28 304.5 1288.32 302.077 1290.66 300.048C1292.84 298.155 1293.67 295.735 1294 293.571C1294.32 291.454 1291.79 289.424 1288.63 287.628C1284.98 285.563 1279.46 285.426 1274.05 285.253C1269.01 285.091 1264.72 286.033 1261.25 287.304C1257.75 288.581 1255.52 291.149 1253.91 293.361C1250.78 297.655 1252.74 302.216 1253.52 302.905C1254.48 303.756 1256.94 303.371 1259.87 302.725C1267.81 300.972 1273.39 294.255 1276.51 290.014C1277.78 288.285 1277.16 286.351 1276.24 285.013C1273.73 281.38 1263.13 282.81 1253.51 284.411C1243.89 286.012 1240.44 292.268 1238.48 295.403C1238.07 296.07 1238.1 296.739 1238.2 297.32C1238.31 297.9 1238.62 298.422 1239.24 298.883C1242.24 301.116 1247.91 300.508 1253.4 299.044C1256.16 298.309 1257.72 296.364 1258.95 295.043C1260.01 293.899 1260.15 292.556 1259.74 291.322C1259.27 289.882 1256.12 289.231 1252.24 288.764C1247.8 288.23 1242.7 289.36 1237.67 291.189C1228.24 294.611 1225.46 301.124 1224.44 304.26C1224.25 304.854 1224.83 305.354 1225.56 305.749C1227.25 306.668 1230.49 306.813 1234.62 306.751C1239.3 306.681 1244.11 305.052 1248.5 303.249C1255.71 300.291 1258.28 295.932 1259.06 292.584C1259.26 291.748 1258.49 290.909 1257.52 290.124C1255.34 288.357 1250.38 287.486 1243.44 286.987C1239.65 286.716 1235.28 287.103 1231.21 287.696C1223.39 288.836 1217.45 291.493 1213.23 293.926C1209.64 295.998 1207.54 298.322 1206.25 300.277C1205.1 302.014 1205.49 303.806 1206.32 305.138C1207.27 306.671 1210.9 307.141 1215.26 307.746C1220.28 308.442 1225.97 307.951 1231.38 307.161C1239.94 305.911 1243.99 302.633 1245.74 300.724C1246.51 299.889 1246.04 298.575 1245.32 297.33C1243.22 293.692 1233.78 293.544 1223.6 294.144C1214.22 294.697 1209.74 300.394 1208.05 303.231C1207.7 303.823 1207.94 304.491 1208.19 305.042C1209.42 307.652 1218.08 307.554 1229.58 306.323C1236.39 305.594 1242.06 302.448 1246.58 300.323C1250.2 298.622 1252.46 296.753 1253.95 295.204C1255.2 293.911 1255.22 292.398 1254.91 291.227C1254.58 289.98 1251.38 289.552 1247.1 289.366C1241.9 289.14 1235.94 290.887 1230.1 293.114C1220.05 296.949 1216.25 302.791 1215.03 306.387C1214.78 307.126 1215.38 307.789 1216.19 308.318C1218.08 309.546 1222.11 309.906 1227.24 310.269C1232.76 310.661 1238.19 309.919 1242.76 308.818C1246.76 307.855 1249.27 305.843 1250.97 304.397C1252.36 303.215 1252.69 301.807 1252.65 300.622C1252.63 300.027 1252.13 299.49 1251.37 299.028C1249.66 297.988 1246.73 297.689 1243.29 297.627C1239.44 297.558 1235.16 299.466 1230.87 301.683C1223.55 305.468 1221.25 309.921 1220.7 312.265C1220.58 312.762 1221.3 313.171 1222.28 313.487C1224.67 314.259 1228.96 314.275 1234.51 314.246C1240.58 314.215 1246.28 312.993 1250.78 311.626C1254.51 310.495 1256.71 308.55 1258.21 307.049C1259.53 305.719 1259.47 303.962 1258.98 302.454C1257.81 298.822 1247.85 298.956 1238.46 299.83C1234.32 300.216 1231.53 302.36 1229.42 303.992C1227.45 305.516 1226.64 307.379 1226.23 308.918C1225.86 310.32 1226.24 311.696 1227.04 312.942C1227.92 314.33 1230.66 314.781 1233.77 315.089C1237.31 315.44 1241.3 314.613 1245.27 313.178C1249.4 311.683 1252.15 308.44 1254.45 305.538C1256.61 302.807 1256.98 299.727 1256.7 296.977C1256.4 294.008 1252.49 291.527 1248.1 289.293C1243.3 286.846 1236.4 286.666 1229.5 286.598C1222.92 286.532 1217.66 288.536 1214.02 290.341C1211.06 291.812 1209.7 293.821 1208.85 295.358C1208.45 296.096 1208.4 296.849 1208.5 297.53C1208.6 298.21 1208.94 298.821 1209.65 299.33C1213.38 301.996 1221.15 301.312 1227.02 300.847C1229.4 300.658 1230.86 299.507 1231.69 298.719C1232.07 298.354 1232.17 297.931 1232.13 297.513C1232.09 297.095 1231.86 296.662 1231.3 296.266C1228.12 294.049 1221.24 294.746 1215.83 295.795C1213.45 296.254 1212.38 298.05 1211.73 299.338C1211.4 300.01 1211.5 300.841 1211.76 301.362C1212.02 301.883 1212.56 302.101 1213.44 302.231C1218.62 302.992 1226.88 298.764 1234.02 294.372C1238.84 291.405 1239.39 289.119 1239.39 288.374C1239.4 288.019 1238.84 287.787 1238.06 287.623C1236.19 287.231 1233.15 287.766 1229.26 289.043C1224.71 290.539 1221.08 293.633 1217.95 296.268C1215.13 298.65 1213.44 301.123 1212.32 303.051C1211.46 304.524 1211.64 305.847 1212.18 306.887C1212.84 308.171 1216.05 308.508 1219.99 308.874C1224.61 309.304 1230.04 308.358 1235.62 306.706C1241.26 305.034 1245.31 301.883 1248.34 299.547C1250.8 297.648 1251.63 295.318 1251.87 293.276C1251.98 292.263 1251.36 291.285 1250.39 290.407C1248.27 288.485 1244.12 287.611 1239.31 286.97C1234.12 286.278 1228.58 287.112 1223.41 288.698C1218.27 290.278 1214.97 294.384 1212.09 297.927C1207.26 303.869 1207.38 309.993 1208.13 314.225C1208.5 316.34 1212.66 317.215 1216.8 318.004C1221.35 318.871 1226.69 318.483 1232.35 317.84C1238.4 317.153 1243.77 314.357 1248.23 311.871C1251.89 309.834 1253.79 307.45 1254.9 305.555C1255.41 304.674 1255.48 303.831 1255.24 303.059C1254.75 301.469 1252.21 300.199 1248.87 299.045C1245.19 297.769 1240.56 297.88 1235.86 298.206C1226.36 298.866 1221 305.154 1217.78 309.295C1216.46 311 1216.81 313.101 1217.06 314.9C1217.18 315.791 1217.75 316.574 1218.57 317.237C1222.54 320.414 1231.68 319.502 1239.89 317.694C1247.05 316.115 1249.81 310.958 1251.31 306.805C1252.07 304.682 1250.97 302.635 1249.56 301.14C1248.03 299.519 1244.65 299.318 1241.11 299.219C1237.05 299.104 1232.4 300.742 1227.72 302.715C1219.75 306.074 1217.27 310.978 1216.59 313.961C1216.44 314.6 1216.91 315.159 1217.5 315.603C1218.78 316.585 1221.57 316.872 1226.01 317.113C1232.7 317.477 1238.15 316.69 1240.76 315.803C1243.11 315.009 1244.39 313.509 1245.13 312.093C1245.93 310.571 1245.21 308.559 1243.81 306.52C1242.23 304.228 1238.48 303.188 1234.51 302.481C1230.1 301.697 1224.92 302.615 1219.63 304.174C1214.09 305.807 1210.01 309.641 1206.56 312.902C1203.54 315.756 1202.45 318.755 1201.89 321.052C1201.4 323.078 1202.12 324.855 1203.59 326.252C1205.43 328.001 1213.23 328.112 1223.3 328.28C1230.63 328.402 1235.7 326.978 1239.56 325.452C1243.16 324.032 1245.16 321.409 1246.33 318.97C1248.82 313.765 1242.48 306.861 1237.57 302.442C1235.68 300.737 1233.01 300.398 1230.8 300.246C1228.68 300.1 1226.85 301.24 1225.37 302.556C1222.27 305.303 1221.83 309.321 1222.22 312.391C1222.65 315.745 1232.78 315.404 1240.12 315.114C1243.28 314.989 1245.64 313.121 1247.49 311.652C1249.12 310.358 1249.5 308.489 1249.58 306.73C1249.65 304.886 1247.78 303.144 1245.33 301.676C1242.6 300.042 1238.32 300.146 1234 300.386C1229.47 300.639 1225.3 303.13 1221.59 305.951C1214.74 311.154 1214.18 317.799 1213.77 322.103C1213.69 322.975 1213.83 323.641 1214.11 324.167C1214.38 324.693 1214.87 325.062 1215.7 325.325C1217.6 325.928 1220.71 325.567 1224.79 324.588C1229.79 323.392 1234.41 320.702 1238.47 318.402C1244.67 314.891 1246.29 312.044 1246.62 310.864C1246.77 310.321 1246.51 309.846 1246.04 309.432C1243.45 307.182 1236.62 307.709 1228.89 309.12C1222.37 310.308 1219.04 314.622 1217.62 316.326C1216.35 317.853 1215.94 319.422 1215.85 320.744C1215.8 321.393 1216.09 321.997 1216.58 322.532C1219.01 325.208 1227.17 324.697 1234.62 323.339C1238.04 322.717 1240.17 320.456 1241.85 318.999C1243.18 317.843 1243.37 316.328 1243.23 314.743C1243.05 312.787 1240.9 310.719 1238.16 308.695C1235.28 306.564 1230.77 305.985 1226.1 305.619C1221.2 305.236 1216.42 306.08 1212.29 307.184C1208.44 308.214 1205.87 310.553 1204 312.547C1200.29 316.489 1202.13 321.563 1202.88 322.742C1204.85 325.83 1213.95 324.544 1222.61 322.64C1230.59 320.884 1233.74 315.367 1235.64 311.414C1236.58 309.441 1236.03 307.346 1235.39 305.639C1234.75 303.948 1232.47 302.986 1230.27 302.29C1228.18 301.63 1225.96 302.008 1223.91 302.758C1218.8 304.633 1217.31 311.107 1216.27 318.047C1216.06 319.452 1216.52 320.137 1217.15 320.669C1220.46 323.464 1229.73 321.726 1238.92 318.562C1244.22 316.738 1247.89 312.205 1251.45 308.382C1254.64 304.953 1255.75 301.456 1256.34 298.797C1256.86 296.413 1255.74 294.337 1254.36 292.775C1251.82 289.892 1246.74 289.877 1242.9 290.228C1241.14 290.389 1240.09 291.935 1239.2 293.089C1238.43 294.089 1238.34 295.253 1238.49 296.357C1238.65 297.57 1241.01 298.504 1244.13 299.431C1247.77 300.512 1254.3 300.779 1261.72 300.973C1266.47 301.097 1269.27 300.172 1271.26 299.324C1272.94 298.602 1273.82 297.54 1274.31 296.535C1274.87 295.4 1274.53 293.845 1273.91 292.229C1272.68 289.042 1268.25 287.997 1265.13 287.428C1263.65 287.157 1262.13 287.695 1260.78 288.401C1259.36 289.147 1258.72 290.541 1258.16 291.633C1257.66 292.609 1257.74 293.628 1258.15 294.583C1258.66 295.767 1261.43 296.426 1265.87 297.189C1272.61 298.345 1278.51 297.874 1281.68 297.128C1284.62 296.437 1286.23 294.593 1287.1 293.031C1287.91 291.571 1287.78 290.058 1287.34 288.808C1286.88 287.475 1284.42 286.894 1281.67 286.468C1274.93 285.425 1267.25 289.341 1262.18 293.509C1260.09 295.226 1259.64 297.377 1259.34 298.884C1259.21 299.58 1259.46 300.168 1259.96 300.699C1262.72 303.603 1271.75 303.342 1281.4 302.938C1291.13 302.531 1297.03 297.245 1300.05 294.389C1300.63 293.836 1300.73 293.21 1300.76 292.655C1300.79 292.101 1300.61 291.556 1299.96 290.933C1298.43 289.45 1294.94 288.155 1290.37 286.784C1285.38 285.29 1279.48 285.289 1273.68 285.61C1268 285.923 1263.3 288.615 1259.57 291.387C1256.15 293.929 1254.77 297.051 1253.91 299.483C1253.1 301.754 1253.69 304.164 1254.63 306.344C1255.55 308.467 1258.72 309.418 1262.01 310.043C1269.67 311.496 1277.63 308.094 1283.01 304.874C1285.03 303.67 1285.85 301.994 1286.39 300.487C1286.95 298.92 1286.21 297.1 1284.68 295.245C1282.84 293.006 1278.85 291.841 1274.5 290.951C1269.79 289.988 1264.61 290.917 1259.99 292.048C1255.88 293.058 1253.38 295.236 1251.71 296.812C1250.27 298.173 1249.89 299.779 1249.89 301.209C1249.89 302.706 1254.18 304.827 1260.81 307.235C1266.56 309.321 1272.75 309.392 1278.4 309.624C1283.29 309.825 1287.01 309.001 1289.6 308.016C1291.95 307.124 1293.11 305.101 1293.9 302.081C1295.21 297.038 1294.19 292.355 1293.21 289.782C1292.33 287.458 1289.58 286.338 1286.99 285.692C1284.17 284.989 1280.6 285.757 1276.78 287.048C1268.14 289.96 1265.3 297.156 1264.34 302.291C1264.11 303.492 1264.72 304.577 1265.52 305.505C1269.22 309.843 1278.48 310.232 1285.67 310.453C1289.06 310.557 1291.9 308.346 1294.34 305.84C1297.06 303.044 1298.28 299.483 1299.28 296.349C1300.24 293.342 1299.91 290.263 1299.55 287.581C1299.25 285.308 1297.03 283.591 1294.44 282.065C1291.62 280.408 1287.43 279.985 1282.77 279.862C1277.69 279.728 1272.43 281.604 1267.48 283.893C1262.67 286.117 1259.81 289.517 1257.89 292.176C1256.3 294.375 1256.3 296.832 1256.51 299.114C1256.62 300.261 1257.26 301.332 1258.23 302.255C1260.24 304.192 1264.31 305.16 1269.13 306.02C1274.34 306.948 1279.81 306.684 1284.63 306.266C1288.83 305.901 1291.79 304.224 1293.85 302.679C1295.76 301.242 1296.35 299.131 1296.51 297.107C1296.67 294.958 1294.63 292.64 1291.86 290.237C1288.76 287.542 1284.04 286.203 1279.36 285.316C1274.62 284.416 1269.78 285.315 1265.62 286.4C1261.81 287.395 1259.5 289.972 1257.7 292.205C1255.9 294.433 1255.53 297.097 1255.38 299.314C1255.31 300.343 1255.71 301.181 1256.38 301.976C1259.61 305.803 1268.37 306.172 1276.07 306.198C1283.04 306.221 1287.38 301.513 1290.19 298.206C1292.74 295.212 1291.81 292.134 1291 290.672C1290.16 289.165 1287.32 288.58 1282.93 288.092C1275.68 287.285 1269.35 288.364 1266.13 289.318C1263.36 290.14 1261.76 291.661 1260.73 292.713C1259.89 293.573 1259.91 294.69 1260.1 295.741C1260.59 298.495 1267.53 299.453 1274.74 300.098C1280.66 300.627 1283.12 299.017 1284.16 298.281C1285.35 297.434 1285.48 295.308 1285.36 293.018C1285.27 291.137 1283.72 289.856 1282.35 288.946C1281.11 288.12 1278.97 288.045 1276.24 288.159C1272.92 288.296 1269.2 290.394 1264.86 293.282C1259.52 296.828 1256.64 299.996 1255.84 301.232C1255.45 301.835 1255.58 302.559 1255.91 303.05C1257.53 305.421 1264.65 304.928 1270.12 304.514C1272.34 304.347 1273.88 302.899 1275.21 301.802C1277.73 299.722 1277.53 295.515 1276.71 291.488C1276.32 289.547 1273.51 288.508 1270.75 287.743C1267.82 286.931 1264.62 287.214 1261.71 287.706C1258.68 288.218 1256.28 290.656 1254.2 293.235C1250.46 297.861 1251.55 302.082 1252.11 304.199C1252.37 305.205 1253.36 305.884 1254.66 306.427C1257.56 307.638 1262.07 307.783 1267.32 307.871C1272.96 307.965 1278.31 306.853 1282.8 305.67C1286.74 304.629 1289.57 302.986 1291.61 301.778C1293.09 300.896 1293.53 299.752 1293.59 298.679C1293.76 295.898 1288.66 293.078 1283.12 290.544C1277.28 287.877 1269.3 289.679 1262.57 292.396C1259.61 293.591 1258.3 295.875 1257.36 297.645C1256.46 299.334 1256.58 301.104 1257.13 302.611C1257.72 304.235 1260.72 305.025 1263.91 305.738C1267.23 306.483 1270.7 306.194 1273.89 305.347C1280.93 303.48 1283.42 297.281 1285.06 293.663C1285.8 292.035 1285.26 290.307 1284.55 288.77C1283.78 287.098 1281.61 285.896 1279.48 284.773C1277.34 283.644 1274.45 283.475 1271.37 283.553C1267.94 283.639 1264.64 285.692 1261.69 287.913C1256.23 292.016 1256.22 297.076 1256.13 299.372C1256.09 300.43 1256.71 301.252 1257.66 302.004C1262.52 305.812 1271.5 305.653 1278.29 304.654C1285.49 303.595 1287.76 295.503 1289.31 291.108C1289.95 289.298 1289.61 287.679 1289.25 286.395C1288.86 284.993 1286.93 283.902 1284.77 282.91C1279.69 280.571 1271.51 282.017 1265 283.768C1262.16 284.534 1260.44 286.84 1258.89 288.816C1256.15 292.318 1257.54 295.399 1258.28 296.897C1260.13 300.619 1269.11 300.392 1275.29 300.045C1277.95 299.895 1279.78 297.761 1281.22 295.885C1282.57 294.124 1282.52 291.879 1282.4 289.799C1282.27 287.739 1280.19 286.088 1277.82 284.774C1275.3 283.375 1271.59 283.199 1267.53 283.225C1263.02 283.253 1258.1 285.385 1253.16 287.873C1244.81 292.088 1241.81 296.688 1241.12 298.71C1240.82 299.578 1243.65 299.592 1245.98 299.421C1250.39 299.096 1253.11 296.684 1254.38 295.185C1254.95 294.506 1254.57 293.575 1254.1 292.92C1253.53 292.103 1251.08 292.285 1248.05 292.565C1244.33 292.909 1240.13 295.292 1235.54 298.159C1226.56 303.766 1223.4 309.733 1222.18 312.651C1221.96 313.171 1222.5 313.616 1223.03 313.83C1224.2 314.301 1226.12 313.65 1228.23 312.632C1233.07 310.296 1234.15 306.753 1234.66 305.197C1234.89 304.499 1234.73 303.928 1234.25 303.57C1231.36 301.418 1224.01 303.335 1218.28 305.843C1213.27 308.032 1213.56 312.484 1213.37 314.85C1213.33 315.367 1213.53 315.801 1213.9 316.169C1215.99 318.24 1223.47 317.624 1231.57 315.978C1235.69 315.143 1237.98 312.421 1239.54 310.784C1240.86 309.4 1240.81 307.608 1240.56 306.12C1240.06 303.118 1232.8 302.757 1226.89 302.743C1220.65 302.729 1216.44 306.826 1213.69 309.352C1211.59 311.27 1212.3 313.955 1213.25 316.355C1214.72 320.057 1224.8 320.726 1233.58 321.535C1237.22 321.871 1240.31 321.073 1242.78 319.929C1245.28 318.77 1246.12 316.102 1246.67 313.649C1247.24 311.159 1246.43 308.487 1245.08 305.855C1243.66 303.07 1240.7 301.152 1238.11 299.637C1235.67 298.205 1232.28 298.07 1228.78 298.089C1225.08 298.108 1221.39 299.784 1217.86 301.698C1210.99 305.419 1208.26 311.487 1206.45 316.476C1204.93 320.638 1205.65 322.961 1206.13 323.91C1206.67 324.966 1209.16 325.214 1212 325.481C1215.2 325.78 1218.9 324.886 1222.88 323.213C1227.44 321.294 1230.62 317.545 1233.37 314.384C1238.12 308.924 1238.01 302.525 1236.65 298.184C1235.91 295.845 1232.31 294.677 1229.14 293.676C1222.25 291.504 1215.1 293.619 1211.2 295.457C1209.7 296.163 1209.32 297.421 1209.31 298.388C1209.31 298.954 1210.01 299.603 1210.96 300.04C1215.75 302.265 1223.24 300.314 1228.56 297.855C1233.02 295.794 1232.93 292.44 1233.01 291.017C1233.05 290.345 1232.68 289.778 1232.1 289.371C1229.1 287.249 1222.29 288.755 1217.19 290.634C1215 291.443 1214.13 293 1213.91 294.079C1213.8 294.656 1214.5 295.302 1215.29 295.716C1216.98 296.595 1219.84 296.483 1223.28 296.273C1227.39 296.023 1234.93 292.654 1243.35 288.853C1246.38 287.487 1246.8 287.149 1246.67 286.749C1246.55 286.348 1245.85 285.865 1244.91 285.603C1240.47 284.366 1234.84 287.131 1231.15 289.211C1230.43 289.614 1230.06 290.052 1229.78 290.506C1229.5 290.96 1229.39 291.48 1229.51 291.897C1230.07 293.859 1239.17 294.901 1248.87 295.512C1251.36 295.669 1252.63 294.95 1253.41 294.325C1254.15 293.732 1254.3 292.671 1254.42 291.495C1254.54 290.256 1254.01 288.964 1253.03 287.736C1251.97 286.396 1249.87 285.899 1247.85 285.841C1243.04 285.702 1239.96 291.115 1238.09 294.379C1237.72 295.033 1237.75 295.623 1237.94 296.149C1238.13 296.675 1238.58 297.156 1239.12 297.424C1240.16 297.939 1241.72 297.665 1243.33 297.328C1244.97 296.985 1246.03 295.914 1246.7 294.883C1247.39 293.839 1247.27 292.535 1246.81 291.271C1246.26 289.789 1243.44 288.775 1239.91 287.731C1235.76 286.502 1230.23 286.612 1224.22 286.763C1212.56 287.057 1206.29 291.353 1203.77 293.496C1203.33 293.878 1203.34 294.322 1203.65 294.823C1205.38 297.632 1212.45 297.325 1218.5 296.837C1220.94 296.64 1222.48 295.387 1223.45 294.494C1223.9 294.078 1224.03 293.578 1223.98 293.115C1223.94 292.652 1223.66 292.199 1222.92 291.816C1221.13 290.894 1217.61 290.736 1213.06 290.684C1207.98 290.627 1202.63 291.777 1197.72 293.304C1189.74 295.783 1186.32 300.737 1184.65 304.141C1184.01 305.433 1184.53 306.727 1185.35 307.785C1186.35 309.084 1189.59 309.308 1193.58 309.514C1198.32 309.76 1203.77 308.453 1209 306.565C1213.73 304.858 1216.46 302.074 1218.28 299.946C1220.02 297.921 1220.15 295.604 1219.74 293.84C1218.8 289.806 1207.85 289.945 1199.65 290.094C1196.19 290.157 1193.58 291.706 1191.68 292.919C1190.16 293.884 1189.67 295.037 1189.48 295.913C1189.39 296.348 1189.48 296.781 1189.79 297.202C1191.48 299.54 1199.21 299.297 1206.29 298.808C1209.23 298.605 1211.32 297.076 1212.88 295.955C1214.13 295.061 1214.48 293.761 1214.52 292.406C1214.57 290.88 1212.85 289.449 1210.51 288.195C1207.76 286.725 1203.66 286.311 1197.54 286.005C1193.59 285.807 1187.9 286.079 1183.71 286.393C1176.96 286.899 1171.15 289.07 1165.77 291.414C1162.65 292.774 1161.44 293.899 1160.91 294.99C1160.6 295.636 1160.94 296.634 1161.61 297.359C1165.01 301.081 1177.64 300.607 1184.04 300.158C1187.99 299.881 1187.53 293.136 1187.23 287.969C1187.1 285.6 1185.49 283.658 1183.84 281.937C1180.23 278.177 1173.53 277.432 1167.35 277.293C1164.56 277.23 1162.21 278.354 1160.24 279.606C1156.47 282.002 1155.73 285.785 1155.47 288.775C1155.33 290.267 1156.46 291.774 1158.02 293.27C1159.87 295.036 1163.3 296.184 1167.25 297.459C1171.67 298.885 1178.95 299.294 1186.64 299.56C1190.99 299.711 1193.2 298.812 1194.8 297.921C1197.52 296.403 1198.02 293.253 1198.32 288.384C1198.44 286.445 1197.32 284.93 1196.01 283.516C1192.92 280.185 1185.55 280.041 1177.44 280.552C1173.29 280.814 1169.87 282.82 1166.77 284.689C1163.44 286.693 1160.93 289.631 1158.86 292.592C1155.08 297.996 1155.61 303.37 1156.05 306.788C1156.15 307.527 1156.94 308.026 1157.95 308.452C1160.25 309.427 1164.01 309.584 1168.49 309.705C1173.33 309.837 1177.89 309.112 1181.58 308.164C1184.84 307.325 1187.15 305.109 1189.22 302.897C1191.29 300.679 1191.81 297.563 1192.3 294.347C1192.84 290.914 1192.55 287.366 1192.03 284.057C1191.54 280.92 1189.37 278.378 1187 276.304C1182.22 272.106 1173.31 271.986 1165.43 271.972C1162.18 271.966 1159.75 273.002 1157.99 273.926C1156.47 274.724 1155.57 275.842 1154.99 277.106C1153.06 281.302 1155.69 287.828 1159.26 291.56C1161.23 293.617 1165.67 294.29 1170.76 295.158C1176.39 296.119 1182.01 295.97 1186.7 295.856C1194.11 295.676 1197.18 294.099 1198.18 293.265C1201.18 290.771 1199.31 286.774 1198.83 285.738C1198.31 284.623 1196.37 284.076 1194.09 283.619C1191.25 283.052 1186.65 283.505 1180.68 284.247C1177.57 284.633 1174.44 285.648 1170.45 287.475C1161.43 291.611 1155.74 295.994 1153.64 298.082C1151.86 299.846 1151.31 301.723 1151.14 303.362C1150.95 305.045 1152.02 306.671 1153.61 308.082C1157.54 311.574 1166.41 311.055 1173.56 310.53C1176.78 310.294 1179.33 308.097 1181.6 306.083C1183.72 304.196 1184.43 301.496 1185.05 297.849C1185.99 292.27 1185.34 287.723 1184.59 285.633C1183.89 283.692 1181.85 282.442 1179.77 281.409C1174.74 278.912 1167.3 279.684 1161.27 280.213C1158.93 280.419 1157.34 281.48 1156.19 282.197C1155.2 282.814 1154.95 283.801 1154.81 284.751C1154.64 285.874 1154.95 287.307 1155.56 288.919C1156.21 290.642 1158.22 292.141 1160.55 293.661C1163.08 295.314 1167.01 295.956 1172.29 296.465C1184.98 297.689 1188.14 295.855 1189.26 295.159C1191.46 293.789 1190.63 287.072 1189.14 280.957C1188.55 278.496 1185.99 276.831 1183.84 275.342C1181.63 273.811 1178.69 273.304 1175.91 273.045C1173.08 272.782 1170.02 273.717 1166.86 275.164C1163.35 276.773 1160.59 280.115 1157.65 283.567C1152.19 289.994 1151.51 295.576 1151.5 300.04C1151.5 302.027 1153.1 303.665 1155.2 305.025C1157.6 306.583 1161.4 307.072 1166.08 307.644C1172.24 308.394 1177.62 307.921 1180.96 307.171C1187.01 305.816 1189.65 301.341 1191.4 298.937C1192.05 298.04 1191.92 296.97 1191.75 295.896C1191.28 292.925 1185.68 290.495 1179.47 288.785C1171.94 286.714 1163.96 288.789 1160.44 290.999C1157.04 293.129 1157.11 297.593 1156.95 303.132C1156.92 304.317 1157.34 304.965 1157.93 305.585C1160.73 308.533 1167.06 308.726 1171.9 308.382C1173.97 308.234 1175.3 306.822 1176.23 305.557C1178.38 302.618 1176.17 297.227 1173.3 292.546C1170.85 288.556 1164.75 287.792 1160.05 287.667C1157.53 287.6 1155.34 288.8 1153.65 289.941C1152.1 290.992 1151.43 292.524 1150.95 294C1150.44 295.598 1150.96 297.408 1151.96 299.147C1153.11 301.151 1156.93 302.279 1161.32 303.408C1166.08 304.634 1171.41 304.353 1176.11 304.029C1180.07 303.755 1182.76 302.111 1184.58 300.35C1188.38 296.677 1187.02 290.884 1185.28 286.269C1184.52 284.225 1182.24 283.048 1180.49 282.051C1178.89 281.143 1176.12 281.036 1173.11 281.06C1171.01 281.076 1169.55 282.035 1168.3 282.958C1167.2 283.78 1166.72 284.8 1166.46 285.959C1166.09 287.585 1166.48 289.084 1167.03 290.111C1167.98 291.178 1169.54 292.309 1171.69 293.487C1172.88 294.089 1174.25 294.701 1175.67 295.331" stroke="#BFD1F4" stroke-width="1.75" stroke-linecap="round"/>
<path d="M1279.51 208.16C1276.47 208.115 1269.7 208.277 1268.18 208.961C1266.54 209.694 1265.86 211.305 1265.38 213.074C1264.71 215.568 1265.61 217.889 1266.81 219.248C1267.99 220.587 1270.37 220.782 1272.64 220.819C1278.14 220.909 1283.52 214.464 1287.38 208.643C1290.13 204.51 1289.27 201.627 1288.9 200.545C1288.56 199.514 1286.61 199.108 1284.36 198.8C1281.78 198.445 1278.92 198.917 1276.28 199.76C1273.72 200.576 1272.22 202.596 1271.04 204.513C1269.8 206.541 1269.73 208.989 1269.78 211.239C1269.83 213.384 1271.59 215.203 1273.68 216.688C1275.84 218.232 1279.29 218.483 1282.8 218.584C1286.49 218.691 1289.96 217.231 1292.91 215.481C1295.82 213.751 1297.18 210.943 1298.17 208.459C1299.11 206.08 1298.47 203.588 1297.54 201.44C1296.63 199.346 1293.67 198.377 1290.7 197.786C1287.45 197.14 1283.78 197.851 1280.28 198.828C1276.73 199.822 1274.22 202.531 1272.1 205.135C1270.05 207.645 1269.79 210.671 1269.71 213.274C1269.63 215.655 1271.16 217.569 1273.08 218.943C1276.95 221.723 1282.42 220.672 1286.19 219.618C1290.8 218.325 1290.64 211.546 1290.75 207.522C1290.77 206.598 1290.24 205.736 1289.68 205.046C1288.62 203.721 1285.07 203.267 1280.61 203.312C1277.4 203.344 1275.1 205.239 1273.04 207.052C1271.18 208.689 1270.36 210.475 1269.93 212.046C1269.47 213.688 1270 215.374 1271.12 216.784C1274.12 220.549 1283.69 219.144 1290.55 216.847C1294.19 215.63 1295.01 211.336 1295.95 207.85C1296.88 204.413 1296.21 201.246 1295.14 198.849C1294.14 196.59 1290.66 195.797 1287.33 195.323C1283.71 194.808 1279.92 195.599 1276.54 196.712C1273.11 197.838 1271.21 200.675 1269.76 202.974C1268.43 205.096 1268.68 207.421 1268.87 209.223C1268.96 210.062 1269.58 210.677 1270.36 211.229C1272.03 212.413 1274.69 212.8 1277.62 212.832C1280.75 212.866 1283.61 211.698 1285.89 210.487C1287.92 209.411 1289.01 207.627 1289.92 205.895C1290.81 204.174 1290.58 202.319 1289.89 200.692C1289.14 198.941 1286.47 198.04 1283.67 197.429C1280.59 196.755 1276.94 197.583 1273.42 198.774C1266.67 201.059 1264.06 207.236 1263.14 211.885C1262.69 214.192 1264.62 216.576 1267.21 218.855C1270.25 221.536 1275.32 222.752 1280.17 223.811C1284.88 224.841 1289.42 224.286 1293.08 223.453C1296.43 222.69 1298.44 220.202 1299.92 217.944C1301.36 215.744 1301.08 212.95 1300.56 210.178C1300.01 207.221 1297.14 204.782 1294.21 202.833C1291.52 201.041 1287.92 200.904 1284.58 201.146C1276.95 201.7 1272.67 209.893 1271.02 214.726C1270.25 217.003 1271.48 219.193 1273.12 220.74C1277.23 224.615 1286.49 222.424 1292.4 220.314C1294.95 219.406 1295.71 216.92 1296.36 214.834C1297.03 212.666 1296.54 210.49 1295.62 208.686C1294.72 206.922 1292.11 206.068 1289.47 205.41C1286.7 204.72 1284 204.916 1281.86 205.284C1279.84 205.633 1278.22 207.313 1276.68 209.269C1275.08 211.295 1274.88 213.868 1274.84 216.239C1274.8 218.517 1275.84 220.409 1277.3 221.8C1280.42 224.773 1284.99 223.767 1286.78 223.275C1290.73 222.186 1290.99 215.969 1291.02 211.492C1291.03 209.738 1289.51 208.453 1287.96 207.5C1286.43 206.555 1284.31 206.529 1282.34 206.628C1278.3 206.831 1275.88 210.405 1274.7 212.601C1274.39 213.18 1274.66 214.001 1275.09 214.687C1277.14 218.04 1285.18 218.704 1291.38 218.892C1293.77 218.964 1295.31 217.49 1296.3 216.206C1297.29 214.932 1297.43 213.181 1297.38 211.322C1297.32 209.402 1295.57 207.711 1293.24 206.308C1290.64 204.735 1286.79 204.488 1283.05 204.393C1279.44 204.3 1276.35 205.647 1273.99 207.044C1271.91 208.275 1270.99 210.023 1270.4 211.537C1269.82 213.04 1270.13 214.691 1270.79 216.306C1271.54 218.143 1274.17 219.374 1276.85 220.377C1279.48 221.358 1282.46 221.244 1285.13 221.079C1287.63 220.925 1289.49 219.663 1290.82 218.36C1293.37 215.866 1293.27 212.196 1292.23 209.056C1290.85 204.913 1281.2 204.602 1272.05 204.435C1270.32 204.404 1269.66 204.746 1269.2 205.057C1265.82 207.32 1268.43 214.764 1270.4 217.103C1272.96 220.144 1281.37 218.492 1288.91 215.951C1295.85 213.61 1297.57 207.999 1298.33 203.821C1298.69 201.833 1296.74 199.886 1294.69 198.007C1292.49 195.999 1289.28 194.831 1286 194.024C1282.67 193.204 1279.05 193.843 1275.63 194.95C1271.91 196.157 1269.06 199.373 1266.27 202.601C1263.49 205.806 1262.24 209.6 1261.22 213.084C1260.27 216.355 1260.34 219.361 1260.68 221.862C1261 224.223 1263.78 225.974 1267.33 227.357C1271.49 228.98 1277.42 228.925 1283.65 229.015C1289.7 229.103 1294.97 228.03 1299.11 226.561C1302.9 225.221 1305.13 222.533 1306.82 220.032C1310.38 214.775 1308.77 208.491 1305.81 204.15C1304.31 201.955 1300.54 201.727 1297.51 201.493C1290.68 200.966 1284.61 207.093 1280.8 211.378C1279.21 213.16 1278.96 215.305 1278.87 217.181C1278.78 219.002 1280.25 220.665 1282.32 222.119C1287.42 225.698 1296.36 224.489 1302.05 222.927C1304.66 222.213 1305.6 219.354 1306.58 216.972C1307.57 214.539 1306.77 211.692 1305.49 208.898C1304.11 205.891 1300.15 203.854 1296.08 202.101C1291.83 200.27 1286.38 200.148 1280.92 200.112C1275.5 200.076 1270.91 201.744 1267.52 203.361C1264.6 204.751 1263.1 206.891 1262.02 208.668C1260.98 210.368 1261.28 212.403 1261.82 214.253C1263.04 218.362 1272.23 219.332 1281.08 219.84C1285 220.065 1288.04 218.994 1290.25 217.988C1292.3 217.052 1293.39 215.509 1294.06 214.147C1295.26 211.749 1294.51 210.015 1293.93 209.251C1293.33 208.468 1291.58 208.614 1289.72 208.999C1287.26 209.51 1284.52 212.179 1281.19 215.348C1275.02 221.213 1272.99 226.692 1272.52 230.547C1272.42 231.363 1272.93 232.048 1273.52 232.61C1276.11 235.113 1283.58 234.974 1287.84 234.499C1290.73 234.176 1290.82 230.177 1290.99 227.802C1291.03 227.256 1290.62 226.77 1290.09 226.366C1288.94 225.486 1286.85 225.283 1284.6 225.226C1282.34 225.168 1280.02 225.975 1277.77 227.369C1272.79 230.455 1272.92 236.053 1272.9 239.721C1272.9 240.549 1273.27 241.282 1273.88 241.909C1277.13 245.209 1287.85 243.79 1296.32 241.427C1300 240.402 1301.97 237.188 1303.8 234.4C1305.61 231.634 1305.35 228.482 1304.75 225.892C1304.2 223.47 1301.37 221.933 1298.4 220.819C1295.17 219.61 1290.93 219.853 1286.59 220.175C1282.14 220.506 1277.99 222.913 1274.12 225.616C1267 230.583 1265.9 236.242 1265.41 239.487C1265.31 240.165 1265.75 240.73 1266.37 241.207C1269.79 243.826 1278.43 242.679 1285.75 240.893C1292.64 239.214 1294.94 232.694 1296.38 228.633C1297.01 226.86 1296.6 225.202 1296.07 223.889C1295.54 222.553 1293.42 221.784 1291.05 221.128C1288.39 220.391 1284.99 220.719 1281.46 221.272C1277.86 221.836 1275.23 223.885 1273.26 225.666C1269.61 228.962 1269.85 233.951 1271.23 237.969C1271.96 240.108 1275.05 241.186 1277.78 242.088C1280.63 243.032 1284.23 242.564 1288.08 241.554C1296.87 239.243 1300.29 232.495 1302.28 227.611C1303.18 225.397 1302.2 223.378 1300.74 221.887C1299.09 220.193 1295.84 219.698 1292.56 219.359C1288.93 218.986 1284.78 220.338 1280.54 222.371C1272.11 226.42 1269 233.178 1267.34 237.522C1266.99 238.443 1267.15 239.334 1267.39 240.103C1267.62 240.871 1268.1 241.523 1269 242.033C1273.58 244.642 1282.16 243.13 1289.62 240.574C1296.12 238.344 1297.25 232.367 1297.84 228.52C1297.96 227.721 1297.63 227.084 1297.19 226.538C1296.28 225.404 1292.63 225.172 1287.73 225.691C1280.23 226.486 1277.47 233.227 1275.59 238.077C1274.73 240.296 1275.65 242.41 1277.03 243.995C1278.53 245.726 1281.78 245.983 1284.56 246.319C1287.35 246.655 1290.17 245.959 1292.72 244.639C1295.51 243.197 1296.8 239.942 1298.2 236.775C1301.08 230.265 1299.86 223.983 1297.6 220.065C1296.59 218.33 1293.58 218.139 1291.21 217.886C1288.84 217.634 1286.67 218.527 1284.93 219.684C1281.25 222.133 1281.43 226.778 1281.94 230.224C1282.18 231.836 1284.93 232.78 1287.67 233.671C1290.6 234.623 1294.04 234.433 1297.11 234.227C1299.77 234.049 1301.57 232.733 1302.74 231.45C1303.81 230.293 1304.05 229.068 1304.06 228.1C1304.08 227.077 1302.91 226.226 1301.65 225.593C1300.35 224.939 1298.36 225.082 1296.2 225.295C1291.15 225.794 1288.31 231.659 1286.36 235.63C1285.55 237.26 1285.68 238.724 1286.09 239.763C1286.62 241.095 1289.37 241.183 1291.47 241.206C1293.41 241.227 1294.93 240.429 1296.06 239.618C1297.11 238.864 1297.53 237.826 1297.71 236.838C1297.89 235.784 1296.96 234.626 1295.41 233.492C1291.28 230.467 1283.38 231.282 1276.77 231.922C1273.91 232.198 1272.06 233.837 1270.83 234.912C1270.29 235.382 1270.13 235.845 1270.14 236.421C1270.15 236.997 1270.4 237.708 1270.94 238.216C1273.57 240.67 1281.6 239.147 1290.13 236.147C1294.24 234.7 1296.51 232.081 1298.16 230.282C1299.62 228.69 1300 226.826 1300 225.066C1299.99 223.253 1298.21 221.752 1296.08 220.653C1291.01 218.046 1283.08 220.066 1277.43 222.141C1275.05 223.019 1273.91 224.932 1273.05 226.476C1272.25 227.908 1272.41 229.421 1272.65 230.727C1272.9 232.066 1274.57 233.15 1276.71 234.058C1279.14 235.083 1282.71 234.855 1286.77 234.302C1291.31 233.682 1295.23 231.151 1298.57 228.72C1301.76 226.389 1303.53 223.055 1304.98 219.711C1307.88 213.041 1306.34 206.538 1304.98 201.673C1304.41 199.627 1302.65 198.28 1301.38 197.188C1300.24 196.213 1298.54 195.866 1296.79 195.661C1295.02 195.455 1293.35 195.859 1291.91 196.559C1290.37 197.305 1289.57 198.613 1288.97 199.696C1288.36 200.824 1288.68 202.279 1289.23 203.676C1289.82 205.169 1292.46 205.961 1295.43 206.631C1298.75 207.38 1302.74 206.848 1306.76 205.966C1314.96 204.167 1318.91 197.606 1321.14 192.575C1322.2 190.184 1321.69 187.626 1321.32 185.264C1320.93 182.749 1318.77 180.686 1316.48 179.156C1314.29 177.687 1310.97 177.725 1307.75 177.824C1304.36 177.929 1301 179.95 1297.66 182.621C1293.95 185.585 1291.74 189.981 1289.69 194.229C1287.72 198.302 1287.37 202.432 1287.16 205.939C1286.98 208.943 1288.13 211.231 1290.11 212.841C1292.41 214.717 1296.82 214.866 1301.31 214.898C1306.08 214.932 1310.69 212.671 1314.91 210.06C1319.21 207.399 1321.73 203.365 1323.75 199.783C1327.06 193.926 1325.6 188.783 1323.25 184.938C1322.06 182.99 1318.75 182.38 1315.88 181.685C1313.04 180.997 1310.03 181.402 1307.11 182.402C1303.55 183.621 1300.93 187.738 1298.1 192.116C1295.37 196.33 1294.33 200.524 1293.77 204.055C1293.26 207.315 1294.13 209.966 1295.93 211.794C1298.07 213.965 1303.27 214.013 1308.62 214.154C1314.36 214.305 1320.39 211.689 1326.38 208.34C1332.59 204.869 1336.49 199.713 1339.39 195.201C1342.03 191.098 1342.19 186.656 1342 182.711C1341.8 178.864 1338.7 175.662 1335.37 173.094C1332.12 170.584 1327.34 169.981 1322.73 169.766C1317.9 169.541 1312.98 171.752 1308.25 174.461C1303.44 177.213 1300.29 181.127 1297.65 184.625C1292.73 191.138 1293.31 197.957 1294.93 202.955C1295.62 205.08 1299.7 205.354 1303.44 205.55C1307.71 205.775 1312.93 203.753 1318.85 200.866C1325.37 197.686 1329.94 193.306 1333.25 190.111C1335.9 187.551 1337.08 184.658 1337.97 181.914C1338.79 179.385 1337.74 176.93 1335.94 174.835C1333.96 172.544 1329.92 171.746 1325.89 171.253C1321.65 170.735 1317.12 171.94 1312.74 173.65C1308.16 175.434 1304.9 179.082 1301.99 182.679C1299.03 186.329 1298.06 190.845 1297.29 195.076C1296.57 199.073 1297.21 202.629 1298.52 205.497C1299.82 208.336 1303.92 209.888 1308.18 211.17C1312.82 212.568 1318.7 211.585 1324.58 209.695C1330.52 207.785 1334 203.526 1336.59 200.324C1340.96 194.927 1340.3 190.253 1339.8 188.085C1339.32 186.011 1336.19 184.728 1332.97 183.593C1329.65 182.42 1325.7 182.719 1321.99 183.327C1315.01 184.473 1311.89 190.072 1309.98 194.724C1309.03 197.038 1309.6 199.266 1310.17 200.954C1310.72 202.567 1312.71 203.628 1314.9 204.451C1317.26 205.338 1320.35 204.611 1323.37 203.347C1329.66 200.707 1332.16 194.128 1333.81 187.349C1334.69 183.733 1333.96 180.421 1333.32 178.036C1332.8 176.125 1330.85 175.079 1328.98 174.365C1326.95 173.592 1324.01 174.412 1320.73 175.952C1316.84 177.778 1312.3 183.119 1307.14 189.006C1302.11 194.729 1302.55 197.993 1302.79 199.225C1302.91 199.827 1303.55 200.269 1304.47 200.66C1310.84 203.342 1320.81 201.481 1324.73 199.775C1328.26 198.243 1328.03 192.839 1327.07 187.802C1326.58 185.245 1323.57 183.711 1321.01 182.632C1318.45 181.55 1315.02 181.933 1311.39 182.61C1307.22 183.385 1303.53 186.561 1300.02 189.849C1296.71 192.958 1295.26 196.378 1294.39 199.187C1293.56 201.878 1294.25 204.442 1295.55 206.386C1296.9 208.406 1301.51 208.481 1306.18 208.727C1310.97 208.98 1315.19 208.095 1318.54 206.898C1321.95 205.677 1324.38 202.975 1326.62 200.365C1328.89 197.726 1329.63 194.027 1330.45 189.755C1331.44 184.618 1330.7 180.717 1329.66 178.969C1328.68 177.301 1325.94 176.76 1323.24 176.372C1320.33 175.956 1317.19 176.667 1314.17 177.958C1307.61 180.766 1306.19 187.093 1305.23 192.009C1304.78 194.284 1305.97 196.282 1307.54 197.835C1311.24 201.476 1320.19 200.711 1327.65 199.551C1330.97 199.036 1332.92 196.803 1334.46 195.26C1335.96 193.753 1336.16 191.413 1336.22 188.926C1336.27 186.278 1334.63 183.786 1332.84 181.687C1331.14 179.687 1328.21 178.834 1325.4 178.281C1322.5 177.709 1319.12 178.658 1315.57 180.146C1311.54 181.838 1308.49 185.513 1305.57 188.982C1300.8 194.649 1300.99 200.443 1302.64 203.891C1304.77 208.374 1316.14 206.935 1324.71 205.829C1328.58 205.33 1331.05 202.931 1333.01 201.07C1335.01 199.179 1335.67 196.309 1336.02 193.068C1336.41 189.416 1335.09 185.335 1333.4 181.451C1331.89 177.992 1329.07 175.779 1326.66 174.119C1324.29 172.485 1321.28 171.933 1318.43 171.72C1315.55 171.505 1312.33 172.624 1308.65 174.507C1304.2 176.782 1300.71 180.334 1297.67 183.25C1292.88 187.838 1291.92 192.158 1292.32 194.989C1292.76 198.118 1300.72 198.368 1308.68 198.568C1312.76 198.671 1316.53 196.953 1319.9 195.09C1323.15 193.292 1324.87 190.606 1325.9 188.175C1326.86 185.89 1326.58 183.662 1326.17 181.83C1325.77 180.09 1324.13 178.94 1322.53 178.19C1320.93 177.443 1318.8 177.576 1316.66 177.778C1311.71 178.244 1308.22 183.573 1305.76 188.672C1304.5 191.295 1304.84 194.209 1305.06 196.742C1305.25 199.073 1307.31 200.799 1309.62 202.002C1311.91 203.191 1314.92 203.017 1317.91 202.491C1321.44 201.867 1324.68 198.51 1328.13 194.793C1331.59 191.066 1333.42 186.961 1334.72 183.594C1335.82 180.758 1335.71 178.446 1335.47 176.844C1335.35 176.106 1334.93 175.567 1334.28 175.11C1332.86 174.109 1330.34 173.819 1327.58 173.727C1324.75 173.634 1321.98 174.914 1319.49 176.429C1315.08 179.104 1314.45 183.524 1314.28 186.784C1314.24 187.477 1314.66 188.028 1315.23 188.515C1316.46 189.574 1318.82 190.035 1321.59 190.283C1328.29 190.885 1334.52 185.042 1337.65 181.096C1338.96 179.446 1338.64 177.475 1338.09 175.939C1337.53 174.359 1334.81 173.714 1332.08 173.296C1329.2 172.853 1326.06 173.865 1323 175.599C1319.45 177.607 1317.57 181.11 1315.89 184.09C1312.55 190.001 1312.99 195.495 1313.98 198.626C1314.42 200.019 1316.51 200.542 1318.2 200.918C1319.03 201.102 1319.83 201.104 1320.57 200.96C1322.03 200.674 1323.28 199.392 1324.47 197.809C1325.67 196.201 1325.92 194.253 1326.03 192.499C1326.14 190.909 1325.38 189.735 1324.35 189.038C1323.17 188.241 1321 188.64 1318.73 189.423C1313.12 191.363 1311.48 197.354 1310.37 201.607C1310.14 202.525 1310.3 203.296 1310.62 203.912C1311.24 205.117 1313.3 205.637 1315.61 205.907C1317.88 206.174 1320.09 205.629 1322 204.865C1323.89 204.11 1324.88 202.616 1325.63 201.437C1326.35 200.313 1326.26 198.929 1325.97 197.596C1325.67 196.223 1323.77 195.355 1321.7 194.748C1319.49 194.1 1316.9 194.519 1314.55 195.186C1310.08 196.452 1309.05 200.992 1308.56 203.41C1308.46 203.891 1308.69 204.3 1309.07 204.596C1309.89 205.254 1312 205.174 1314.8 204.681C1322.22 203.375 1326.51 196.55 1328.78 191.539C1329.82 189.247 1329 187.066 1327.82 185.503C1326.56 183.833 1323.65 183.488 1321.15 183.39C1315.74 183.177 1312.06 189.202 1309.87 193.409C1308.2 196.606 1309.16 198.721 1309.73 199.604C1310.33 200.536 1312.31 200.664 1314.29 200.692C1319.17 200.76 1323.31 194.761 1326.05 190.268C1327.3 188.216 1327.01 186.133 1326.77 184.772C1326.66 184.168 1326.16 183.818 1325.46 183.543C1323.86 182.916 1321.5 182.942 1318.96 183.212C1313.31 183.811 1310.26 188.794 1308.42 191.785C1308.03 192.411 1308.01 193.005 1308.2 193.526C1308.39 194.046 1308.91 194.512 1309.73 194.79C1313.87 196.202 1319.8 193.658 1323.9 191.345C1325.51 190.441 1326.01 189.172 1326.26 188.319C1326.38 187.908 1326.25 187.505 1325.91 187.113C1324.14 185.042 1318.85 185.502 1314.38 186.39C1309.28 187.405 1307.47 192.413 1306.26 195.545C1305.96 196.308 1305.94 197.149 1306 197.739C1306.06 198.33 1306.32 198.668 1306.98 198.655C1311.83 198.56 1316.3 193.717 1319.1 190.079C1321.79 186.594 1321.64 184.216 1321.28 183.671C1320.59 182.647 1315.67 186.748 1310.38 191.131C1305.42 195.241 1304.43 198.916 1304.39 201.195C1304.38 201.679 1304.73 202.071 1305.23 202.434C1307.89 204.379 1313.59 204.151 1318.61 203.328C1320.92 202.949 1322.39 201.242 1323.55 199.787C1324.13 199.067 1324.32 198.213 1324.14 197.362C1323.77 195.545 1320.99 193.839 1317.18 192.159C1312.82 190.24 1307.07 189.974 1301.69 189.741C1297.03 189.54 1293.16 190.659 1289.95 192.422C1286.5 194.315 1284.95 198.073 1283.71 201.629C1282.52 205.05 1282.59 209.001 1282.86 212.402C1282.96 213.71 1283.59 214.113 1284.38 214.384C1288.83 215.914 1296.16 211.056 1302.67 206.712C1306.05 204.457 1309.24 201.769 1312.6 198.655C1319.58 192.19 1323.31 187.173 1324.16 185.013C1324.55 184.049 1324.48 183.27 1324.17 182.665C1322.82 180.015 1316.98 179.822 1311.99 180.132C1306.41 180.479 1304.52 188.652 1303.22 194.582C1302.62 197.328 1303.25 199.897 1304.04 201.926C1304.75 203.739 1307.49 204.498 1310.27 204.945C1313.32 205.438 1317.09 203.836 1321.14 201.683C1329.4 197.282 1332.5 191.594 1333.14 188.733C1333.26 188.195 1332.39 187.86 1331.45 187.633C1329.24 187.098 1325.83 187.297 1321.65 187.72C1316.94 188.197 1312.4 190.777 1308.26 193.738C1300.96 198.97 1300.55 205.303 1300.38 208.831C1300.35 209.499 1300.83 209.933 1301.44 210.284C1302.81 211.071 1304.97 211.196 1307.17 211.086C1309.43 210.974 1311.16 209.41 1312.55 207.992C1315.19 205.29 1314.69 202.48 1314.24 201.385C1313.81 200.333 1311.43 200.226 1308.88 200.17C1306.01 200.107 1302.6 201.358 1298.75 203.53C1289.82 208.563 1287.18 215.49 1286 219.02C1285.77 219.704 1285.98 220.283 1286.28 220.732C1286.87 221.633 1288.83 221.997 1291.52 222.233C1294.73 222.515 1298.67 221.71 1302.96 220.086C1307.67 218.303 1311.34 214.356 1314.86 210.408C1321.24 203.253 1320.73 197.908 1320.47 195.799C1320.35 194.851 1319.56 194.255 1318.58 193.872C1313.99 192.088 1308.71 193.576 1304.46 195.733C1299.27 198.367 1298.21 206.521 1297.65 209.921C1297.31 212.03 1312.14 208.467 1319.69 206.489C1320.37 206.311 1320.64 205.935 1320.82 205.379C1320.99 204.824 1321 203.978 1320.81 203.303C1320.62 202.629 1320.23 202.151 1319.57 201.756C1318.12 200.889 1315.79 200.673 1313.27 200.71C1310.72 200.747 1308.52 202.168 1306.75 203.616C1303.77 206.036 1304.09 208.229 1304.32 209.017C1304.57 209.843 1306.59 210.07 1309.09 210.169C1312.17 210.291 1316.28 208.604 1321.07 206.215C1330.43 201.553 1333.65 196.141 1334.6 193.674C1334.77 193.233 1333.87 192.932 1333.13 192.776C1331.56 192.442 1329.52 192.979 1327.35 193.945C1322.4 196.151 1321.21 201.273 1320.44 204.829C1320.26 205.637 1320.41 206.396 1320.68 207.067C1320.96 207.738 1321.47 208.309 1322.36 208.775C1324.37 209.816 1327.92 210.117 1332.61 210.383C1338.28 210.705 1344.86 209.769 1351.17 208.347C1356.58 207.131 1360.14 205.073 1362.59 203.612C1364.75 202.332 1365.63 200.54 1365.95 198.796C1366.31 196.845 1365.2 194.578 1363.49 192.3C1361.65 189.863 1357.79 188.626 1353.63 187.707C1344.29 185.644 1335.82 188.246 1331.48 190.989C1329.33 192.35 1329.25 194.926 1328.98 196.76C1328.74 198.372 1329.75 199.884 1331.39 201.207C1333.32 202.752 1337.14 202.828 1341.39 202.872C1346.22 202.922 1351.48 201.362 1356.53 199.399C1361.29 197.548 1364.35 194.625 1366.51 192.227C1368.44 190.089 1368.66 187.598 1368.6 185.581C1368.57 184.616 1368.03 183.806 1367.22 183.113C1363.2 179.695 1353.47 180.579 1345.84 181.657C1342.23 182.168 1339.7 184.968 1337.49 187.344C1333.22 191.953 1334.66 198.676 1336 203.584C1336.63 205.866 1340.34 206.943 1343.96 207.923C1347.97 209.011 1352.77 208.566 1357.47 207.844C1366.35 206.481 1370.09 201.414 1371.64 198.287C1372 197.56 1371.84 196.783 1371.52 196.063C1370.82 194.536 1368.27 193.359 1364.79 192.316C1360.71 191.092 1355.02 191.425 1348.71 192C1342.32 192.582 1337.23 194.978 1333.62 196.861C1330.82 198.322 1329.4 200.05 1328.6 201.514C1327.88 202.826 1328.31 204.251 1329.12 205.51C1331.38 209.067 1341.28 208.755 1350.85 207.578C1360.61 206.377 1365 200.107 1367.22 196.087C1367.76 195.095 1367.53 193.93 1367.12 192.807C1366.25 190.44 1363.13 188.48 1358.78 186.841C1353.44 184.834 1346.31 185.413 1339.76 186.151C1334.08 186.794 1329.84 189.559 1326.26 191.814C1323.04 193.838 1321.3 196.133 1320.37 197.959C1319.58 199.515 1319.9 200.98 1320.39 202.088C1321.57 204.764 1329.16 204.368 1336.25 203.577C1342.64 202.864 1347.24 198.238 1351.48 193.516C1355.17 189.396 1355.12 185.063 1355.09 182.567C1355.09 182.066 1354.57 181.717 1353.99 181.427C1349.54 179.216 1339.99 181.445 1334.6 184.603C1328.86 187.962 1328.97 195.492 1328.98 201.595C1328.98 204.192 1330.77 206.176 1332.77 207.642C1337.03 210.762 1344.48 209.442 1351.71 207.508C1358.5 205.693 1362.3 201.499 1364.46 197.944C1365.59 196.064 1364.86 193.567 1364.02 191.139C1363.11 188.526 1360.26 186.706 1357.65 185.342C1353.03 182.922 1347.49 183.857 1343.09 185.56C1337.71 187.642 1337.77 194.207 1337.7 199.601C1337.68 200.671 1338.38 201.094 1339.27 201.431C1341.35 202.223 1345.07 202.235 1349.9 202.028C1355.39 201.794 1360.64 199.959 1365.04 198.2C1368.83 196.687 1371.31 194.566 1373.09 192.708C1374.67 191.065 1374.82 189.019 1374.72 187.277C1374.68 186.422 1374.08 185.674 1373.31 185.038C1369.79 182.161 1362.3 182.829 1354.44 184.591C1345.93 186.501 1343.2 193.25 1341.72 197.198C1341.07 198.908 1341.63 200.433 1342.33 201.488C1343.1 202.65 1345.51 202.815 1347.94 202.95C1353.93 203.284 1360.93 198.747 1366.05 195.267C1367.98 193.959 1368.82 192.406 1369.26 191.052C1369.72 189.658 1368.98 187.995 1367.55 186.263C1363.98 181.926 1354.93 182.065 1347.89 182.501C1344.51 182.711 1342.01 185.265 1340.02 187.424C1336.84 190.871 1337.74 194.9 1338.82 197.456C1339.38 198.768 1342.33 198.774 1345.3 198.818C1348.82 198.871 1353.15 197.361 1357.85 195.391C1366.08 191.937 1369.01 188.17 1369.53 185.947C1370.34 182.426 1356.39 185.106 1350.1 188.101C1343.59 191.201 1343.65 198.181 1343.52 202.65C1343.46 204.651 1344.66 206.264 1346.3 207.371C1350.26 210.036 1358.68 207.213 1365.64 203.813C1368.39 202.471 1369.87 200.733 1370.88 199.166C1371.45 198.293 1371.3 196.983 1370.98 195.95C1370.37 194.007 1367.95 192.651 1365.26 191.474C1362.46 190.251 1358.81 190.285 1354.99 190.604C1350.69 190.963 1346.63 193.91 1342.86 196.885C1336.9 201.597 1335.84 206.348 1335.82 209.266C1335.82 209.864 1336.59 210.23 1337.49 210.505C1339.61 211.146 1342.93 210.834 1346.92 210.061C1351.45 209.185 1355.64 206.286 1359.6 203.574C1365.56 199.494 1367.37 195.93 1368.25 193.121C1368.45 192.466 1368.35 191.828 1368.17 191.273C1367.98 190.719 1367.59 190.251 1366.96 189.861C1365.57 189.012 1363.38 188.785 1360.9 188.824C1355.07 188.914 1350.97 193.181 1348.74 195.666C1348.32 196.14 1348.27 196.614 1348.42 197.132C1348.57 197.651 1349.01 198.25 1349.77 198.678C1354.52 201.334 1363.14 199.51 1366.26 198.385C1367.33 198 1367.56 197.005 1367.7 196.116C1367.88 194.991 1367.25 193.725 1366.29 192.612C1363.84 189.768 1355.17 191.219 1347.55 193.316C1341.49 194.984 1340.5 198.354 1340.27 199.346C1340.15 199.864 1340.7 200.442 1341.37 200.792C1342.82 201.548 1345.15 201.381 1347.54 201.243C1353.64 200.891 1358.17 195.788 1359.53 193.813C1360.13 192.927 1360.12 191.928 1360.16 191.064C1360.18 190.62 1360.05 190.167 1359.51 189.891C1358.19 189.21 1356.15 189.705 1354.39 190.409C1350.28 192.045 1348.5 195.532 1347.58 197.591C1347.39 198.023 1347.48 198.446 1347.59 198.818C1347.8 199.553 1348.86 200.158 1350.45 200.674C1352.31 201.278 1354.82 201.085 1357.47 200.719C1364.03 199.816 1368.32 194.604 1369.48 191.967C1371.52 187.354 1370.31 185.132 1369.96 184.257C1369.8 183.851 1369.27 183.669 1368.59 183.531C1364.42 182.68 1358.5 186.04 1351.99 190.717C1347.55 193.901 1341.41 199.267 1338.05 202.155C1334.69 205.044 1334.44 205.428 1334.31 205.82C1334.19 206.212 1334.21 206.6 1334.84 206.968C1335.47 207.335 1336.72 207.67 1341.61 207.851C1346.5 208.033 1354.99 208.05 1359.82 207.971C1364.65 207.893 1365.58 207.718 1366.16 207.242C1366.74 206.767 1366.95 205.995 1366.62 205.248C1365.87 203.595 1362.72 202.527 1358.82 201.591C1354.33 200.513 1348.75 201.165 1343.07 202.234C1337.44 203.295 1333.18 206.488 1329.83 209.217C1327.02 211.512 1325.96 214.041 1325.42 216.075C1324.92 217.964 1325.48 219.654 1326.55 220.974C1327.8 222.531 1331.52 222.912 1337.83 223.279C1342.08 223.526 1348.5 223.275 1353.52 222.897C1362.06 222.256 1367.89 220.395 1372.03 218.871C1375.17 217.717 1376.93 216.246 1378.02 214.998C1379.06 213.815 1378.83 212.137 1378.35 210.519C1377.13 206.447 1369.61 204.358 1362.66 203.365C1359.23 202.875 1356.16 203.806 1353.89 204.639C1351.96 205.347 1351.1 206.736 1350.55 207.91C1349.95 209.206 1350.4 210.79 1351.2 212.26C1352.05 213.845 1354.82 214.553 1357.82 215.121C1361.17 215.756 1365.33 215.176 1369.91 214.178C1374.91 213.086 1378.99 210.316 1382.35 208.105C1385.15 206.257 1386.89 204.183 1388.08 202.209C1389.2 200.351 1388.88 198.23 1388.19 196.294C1387.43 194.186 1384.35 192.921 1380.93 192.039C1377.1 191.051 1372.2 191.901 1367.03 193.18C1361.56 194.534 1357.5 197.806 1354.35 200.394C1351.7 202.57 1350.64 205.099 1349.97 207.269C1349.35 209.295 1350.13 211.292 1351.7 213.005C1353.56 215.039 1358.06 215.571 1362.87 216.301C1368.08 217.091 1373.48 216.577 1378.33 215.623C1386.96 213.928 1391.05 209.216 1393.4 206.239C1394.38 204.995 1393.97 203.486 1393.24 202.235C1391.2 198.716 1381.28 199.311 1372.5 200.368C1365.19 201.248 1361.93 208.041 1360.34 212.768C1359.6 214.977 1360.88 217.267 1362.43 219.178C1364.14 221.275 1368.29 221.735 1372.48 222.229C1377.03 222.766 1381.95 222.136 1386.68 221.057C1395.2 219.112 1398.42 214.493 1399.76 211.621C1400.08 210.932 1399.54 210.139 1398.81 209.376C1397.14 207.648 1393.48 206.543 1387.47 205.646C1378.2 204.262 1370.37 205.265 1366.65 206.086C1363.41 206.802 1361.42 208.323 1360.19 209.458C1359.11 210.463 1359 211.959 1359.01 213.412C1359.02 214.142 1359.37 214.841 1360.08 215.499C1361.67 216.971 1365.17 217.766 1369.6 218.443C1374.52 219.195 1380.16 218.44 1385.67 217.2C1390.84 216.037 1394.26 213.479 1396.53 211.597C1398.44 210.016 1398.89 208.124 1398.81 206.529C1398.72 204.663 1395.76 202.865 1392.32 200.968C1388.56 198.898 1383.28 198.283 1377.74 197.9C1372.02 197.505 1366.23 199.214 1361.04 201.221C1356.38 203.022 1353.57 205.617 1351.65 207.591C1349.87 209.421 1349.47 211.553 1349.37 213.196C1349.32 213.954 1349.66 214.558 1350.36 215.082C1351.97 216.286 1356.17 216.763 1362 217.251C1368.3 217.777 1374 217.226 1378.38 216.279C1382.4 215.413 1385.31 213.269 1387.67 211.485C1389.76 209.903 1390.56 207.645 1391.1 205.377C1391.67 202.997 1390.97 200.52 1389.78 198.297C1388.57 196.059 1385.64 194.817 1382.81 193.845C1379.77 192.802 1375.76 193.088 1371.44 193.521C1362.26 194.44 1356.93 200.456 1354.11 204.664C1352.88 206.501 1353.57 208.59 1354.39 210.283C1355.32 212.227 1358.87 213.255 1362.85 214.195C1367.25 215.235 1372.45 214.976 1377.47 214.634C1385.74 214.07 1389.96 210.246 1391.72 208.339C1392.42 207.585 1392.08 206.286 1391.79 204.897C1391.47 203.327 1389.69 201.961 1387.67 200.773C1385.6 199.558 1382.65 199.462 1379.61 199.53C1372.89 199.681 1368.39 204.356 1365.97 207.492C1364.98 208.772 1365.3 210.351 1365.67 211.671C1365.86 212.334 1366.54 212.855 1367.59 213.279C1370.01 214.262 1374.01 214.352 1378.83 214.283C1389.11 214.137 1396.14 209.848 1399.65 207.277C1400.33 206.776 1400.4 206.062 1400.39 205.398C1400.36 204 1398.71 202.468 1396.03 200.946C1392.88 199.151 1387.87 198.997 1382.45 199.242C1376.72 199.501 1371.44 202.656 1366.77 205.913C1359.2 211.205 1357.53 217.86 1357.62 222.304C1357.66 224.175 1361.72 224.88 1365.77 225.489C1370.31 226.172 1375.29 225.473 1379.91 224.46C1384.28 223.5 1387.32 221.077 1389.66 219.048C1391.84 217.155 1392.67 214.735 1393 212.571C1393.32 210.454 1390.79 208.424 1387.63 206.628C1383.98 204.563 1378.46 204.426 1373.05 204.253C1368.01 204.091 1363.72 205.033 1360.25 206.304C1356.75 207.581 1354.52 210.149 1352.91 212.361C1349.78 216.655 1351.74 221.216 1352.52 221.905C1353.48 222.756 1355.94 222.371 1358.87 221.725C1366.81 219.972 1372.39 213.255 1375.51 209.014C1376.78 207.285 1376.16 205.351 1375.24 204.013C1372.73 200.38 1362.13 201.81 1352.51 203.411C1342.89 205.012 1339.44 211.268 1337.48 214.403C1337.07 215.07 1337.1 215.739 1337.2 216.32C1337.31 216.9 1337.62 217.422 1338.24 217.883C1341.24 220.116 1346.91 219.508 1352.4 218.044C1355.16 217.309 1356.72 215.364 1357.95 214.043C1359.01 212.899 1359.15 211.556 1358.74 210.322C1358.27 208.882 1355.12 208.231 1351.24 207.764C1346.8 207.23 1341.7 208.36 1336.67 210.189C1327.24 213.611 1324.46 220.124 1323.44 223.26C1323.25 223.854 1323.83 224.354 1324.56 224.749C1326.25 225.668 1329.49 225.813 1333.62 225.751C1338.3 225.681 1343.11 224.052 1347.5 222.249C1354.71 219.291 1357.28 214.932 1358.06 211.584C1358.26 210.748 1357.49 209.909 1356.52 209.124C1354.34 207.357 1349.38 206.486 1342.44 205.987C1338.65 205.716 1334.28 206.103 1330.21 206.696C1322.39 207.836 1316.45 210.493 1312.23 212.926C1308.64 214.998 1306.54 217.322 1305.25 219.277C1304.1 221.014 1304.49 222.806 1305.32 224.138C1306.27 225.671 1309.9 226.141 1314.26 226.746C1319.28 227.442 1324.97 226.951 1330.38 226.161C1338.94 224.911 1342.99 221.633 1344.74 219.724C1345.51 218.889 1345.04 217.575 1344.32 216.33C1342.22 212.692 1332.78 212.544 1322.6 213.144C1313.22 213.697 1308.74 219.394 1307.05 222.231C1306.7 222.823 1306.94 223.491 1307.19 224.042C1308.42 226.652 1317.08 226.554 1328.58 225.323C1335.39 224.594 1341.06 221.448 1345.58 219.323C1349.2 217.622 1351.46 215.753 1352.95 214.204C1354.2 212.911 1354.22 211.398 1353.91 210.227C1353.58 208.98 1350.38 208.552 1346.1 208.366C1340.9 208.14 1334.94 209.887 1329.1 212.114C1319.05 215.949 1315.25 221.791 1314.03 225.387C1313.78 226.126 1314.38 226.789 1315.19 227.318C1317.08 228.546 1321.11 228.906 1326.24 229.269C1331.76 229.661 1337.19 228.919 1341.76 227.818C1345.76 226.855 1348.27 224.843 1349.97 223.397C1351.36 222.215 1351.69 220.807 1351.65 219.622C1351.63 219.027 1351.13 218.49 1350.37 218.028C1348.66 216.988 1345.73 216.689 1342.29 216.627C1338.44 216.558 1334.16 218.466 1329.87 220.683C1322.55 224.468 1320.25 228.921 1319.7 231.265C1319.58 231.762 1320.3 232.171 1321.28 232.487C1323.67 233.259 1327.96 233.275 1333.51 233.246C1339.58 233.215 1345.28 231.993 1349.78 230.626C1353.51 229.495 1355.71 227.55 1357.21 226.049C1358.53 224.719 1358.47 222.962 1357.98 221.454C1356.81 217.822 1346.85 217.956 1337.46 218.83C1333.32 219.216 1330.53 221.36 1328.42 222.992C1326.45 224.516 1325.64 226.379 1325.23 227.918C1324.86 229.32 1325.24 230.696 1326.04 231.942C1326.92 233.33 1329.66 233.781 1332.77 234.089C1336.31 234.44 1340.3 233.613 1344.27 232.178C1348.4 230.683 1351.15 227.44 1353.45 224.538C1355.61 221.807 1355.98 218.727 1355.7 215.977C1355.4 213.008 1351.49 210.527 1347.1 208.293C1342.3 205.846 1335.4 205.666 1328.5 205.598C1321.92 205.532 1316.66 207.536 1313.02 209.341C1310.06 210.812 1308.7 212.821 1307.85 214.358C1307.45 215.096 1307.4 215.849 1307.5 216.53C1307.6 217.21 1307.94 217.821 1308.65 218.33C1312.38 220.996 1320.15 220.312 1326.02 219.847C1328.4 219.658 1329.86 218.507 1330.69 217.719C1331.07 217.354 1331.17 216.931 1331.13 216.513C1331.09 216.095 1330.86 215.662 1330.3 215.266C1327.12 213.049 1320.24 213.746 1314.83 214.795C1312.45 215.254 1311.38 217.05 1310.73 218.338C1310.4 219.01 1310.5 219.841 1310.76 220.362C1311.02 220.883 1311.56 221.101 1312.44 221.231C1317.62 221.992 1325.88 217.764 1333.02 213.372C1337.84 210.405 1338.39 208.119 1338.39 207.374C1338.4 207.019 1337.84 206.787 1337.06 206.623C1335.19 206.231 1332.15 206.766 1328.26 208.043C1323.71 209.539 1320.08 212.633 1316.95 215.268C1314.13 217.65 1312.44 220.123 1311.32 222.051C1310.46 223.524 1310.64 224.847 1311.18 225.887C1311.84 227.171 1315.05 227.508 1318.99 227.874C1323.61 228.304 1329.04 227.358 1334.62 225.706C1340.26 224.034 1344.31 220.883 1347.34 218.547C1349.8 216.648 1350.63 214.318 1350.87 212.276C1350.98 211.263 1350.36 210.285 1349.39 209.407C1347.27 207.485 1343.12 206.611 1338.31 205.97C1333.12 205.278 1327.58 206.112 1322.41 207.698C1317.27 209.278 1313.97 213.384 1311.09 216.927C1306.26 222.869 1306.38 228.993 1307.13 233.225C1307.5 235.34 1311.66 236.215 1315.8 237.004C1320.35 237.871 1325.69 237.483 1331.35 236.84C1337.4 236.153 1342.77 233.357 1347.23 230.871C1350.89 228.834 1352.79 226.45 1353.9 224.555C1354.41 223.674 1354.48 222.831 1354.24 222.059C1353.75 220.469 1351.21 219.199 1347.87 218.045C1344.19 216.769 1339.56 216.88 1334.86 217.206C1325.36 217.866 1320 224.154 1316.78 228.295C1315.46 230 1315.81 232.101 1316.06 233.9C1316.18 234.791 1316.75 235.574 1317.57 236.237C1321.54 239.414 1330.68 238.502 1338.89 236.694C1346.05 235.115 1348.81 229.958 1350.31 225.805C1351.07 223.682 1349.97 221.635 1348.56 220.14C1347.03 218.519 1343.65 218.318 1340.11 218.219C1336.05 218.104 1331.4 219.742 1326.72 221.715C1318.75 225.074 1316.27 229.978 1315.59 232.961C1315.44 233.6 1315.91 234.159 1316.5 234.603C1317.78 235.585 1320.57 235.872 1325.01 236.113C1331.7 236.477 1337.15 235.69 1339.76 234.803C1342.11 234.009 1343.39 232.509 1344.13 231.093C1344.93 229.571 1344.21 227.559 1342.81 225.52C1341.23 223.228 1337.48 222.188 1333.51 221.481C1329.1 220.697 1323.92 221.615 1318.63 223.174C1313.09 224.807 1309.01 228.641 1305.56 231.902C1302.54 234.756 1301.45 237.755 1300.89 240.052C1300.4 242.078 1301.12 243.855 1302.59 245.252C1304.43 247.001 1312.23 247.112 1322.3 247.28C1329.63 247.402 1334.7 245.978 1338.56 244.452C1342.16 243.032 1344.16 240.409 1345.33 237.97C1347.82 232.765 1341.48 225.861 1336.57 221.442C1334.68 219.737 1332.01 219.398 1329.8 219.246C1327.68 219.1 1325.85 220.24 1324.37 221.556C1321.27 224.303 1320.83 228.321 1321.22 231.391C1321.65 234.745 1331.78 234.404 1339.12 234.114C1342.28 233.989 1344.64 232.121 1346.49 230.652C1348.12 229.358 1348.5 227.489 1348.58 225.73C1348.65 223.886 1346.78 222.144 1344.33 220.676C1341.6 219.042 1337.32 219.146 1333 219.386C1328.47 219.639 1324.3 222.13 1320.59 224.951C1313.74 230.154 1313.18 236.799 1312.77 241.103C1312.69 241.975 1312.83 242.641 1313.11 243.167C1313.38 243.693 1313.87 244.062 1314.7 244.325C1316.6 244.928 1319.71 244.567 1323.79 243.588C1328.79 242.392 1333.41 239.702 1337.47 237.402C1343.67 233.891 1345.29 231.044 1345.62 229.864C1345.77 229.321 1345.51 228.846 1345.04 228.432C1342.45 226.182 1335.62 226.709 1327.89 228.12C1321.37 229.308 1318.04 233.622 1316.62 235.326C1315.35 236.853 1314.94 238.422 1314.85 239.744C1314.8 240.393 1315.09 240.997 1315.58 241.532C1318.01 244.208 1326.17 243.697 1333.62 242.339C1337.04 241.717 1339.17 239.456 1340.85 237.999C1342.18 236.843 1342.37 235.328 1342.23 233.743C1342.05 231.787 1339.9 229.719 1337.16 227.695C1334.28 225.564 1329.77 224.985 1325.1 224.619C1320.2 224.236 1315.42 225.08 1311.29 226.184C1307.44 227.214 1304.87 229.553 1303 231.547C1299.29 235.489 1301.13 240.563 1301.88 241.742C1303.85 244.83 1312.95 243.544 1321.61 241.64C1329.59 239.884 1332.74 234.367 1334.64 230.414C1335.58 228.441 1335.03 226.346 1334.39 224.639C1333.75 222.948 1331.47 221.986 1329.27 221.29C1327.18 220.63 1324.96 221.008 1322.91 221.758C1317.8 223.633 1316.31 230.107 1315.27 237.047C1315.06 238.452 1315.52 239.137 1316.15 239.669C1319.46 242.464 1328.73 240.726 1337.92 237.562C1343.22 235.738 1346.89 231.205 1350.45 227.382C1353.64 223.953 1354.75 220.456 1355.34 217.797C1355.86 215.413 1354.74 213.337 1353.36 211.775C1350.82 208.892 1345.74 208.877 1341.9 209.228C1340.14 209.389 1339.09 210.935 1338.2 212.089C1337.43 213.089 1337.34 214.253 1337.49 215.357C1337.65 216.57 1340.01 217.504 1343.13 218.431C1346.77 219.512 1353.3 219.779 1360.72 219.973C1365.47 220.097 1368.27 219.172 1370.26 218.324C1371.94 217.602 1372.82 216.54 1373.31 215.535C1373.87 214.4 1373.53 212.845 1372.91 211.229C1371.68 208.042 1367.25 206.997 1364.13 206.428C1362.65 206.157 1361.13 206.695 1359.78 207.401C1358.36 208.147 1357.72 209.541 1357.16 210.633C1356.66 211.609 1356.74 212.628 1357.15 213.583C1357.66 214.767 1360.43 215.426 1364.87 216.189C1371.61 217.345 1377.51 216.874 1380.68 216.128C1383.62 215.437 1385.23 213.593 1386.1 212.031C1386.91 210.571 1386.78 209.058 1386.34 207.808C1385.88 206.475 1383.42 205.894 1380.67 205.468C1373.93 204.425 1366.25 208.341 1361.18 212.509C1359.09 214.226 1358.64 216.377 1358.34 217.884C1358.21 218.58 1358.46 219.168 1358.96 219.699C1361.72 222.603 1370.75 222.342 1380.4 221.938C1390.13 221.531 1396.03 216.245 1399.05 213.389C1399.63 212.836 1399.73 212.21 1399.76 211.655C1399.79 211.101 1399.61 210.556 1398.96 209.933C1397.43 208.45 1393.94 207.155 1389.37 205.784C1384.38 204.29 1378.48 204.289 1372.68 204.61C1367 204.923 1362.3 207.615 1358.57 210.387C1355.15 212.929 1353.77 216.051 1352.91 218.483C1352.1 220.754 1352.69 223.164 1353.63 225.344C1354.55 227.467 1357.72 228.418 1361.01 229.043C1368.67 230.496 1376.63 227.094 1382.01 223.874C1384.03 222.67 1384.85 220.994 1385.39 219.487C1385.95 217.92 1385.21 216.1 1383.68 214.245C1381.84 212.006 1377.85 210.841 1373.5 209.951C1368.79 208.988 1363.61 209.917 1358.99 211.048C1354.88 212.058 1352.38 214.236 1350.71 215.812C1349.27 217.173 1348.89 218.779 1348.89 220.209C1348.89 221.706 1353.18 223.827 1359.81 226.235C1365.56 228.321 1371.75 228.392 1377.4 228.624C1382.29 228.825 1386.01 228.001 1388.6 227.016C1390.95 226.124 1392.11 224.101 1392.9 221.081C1394.21 216.038 1393.19 211.355 1392.21 208.782C1391.33 206.458 1388.58 205.338 1385.99 204.692C1383.17 203.989 1379.6 204.757 1375.78 206.048C1367.14 208.96 1364.3 216.156 1363.34 221.291C1363.11 222.492 1363.72 223.577 1364.52 224.505C1368.22 228.843 1377.48 229.232 1384.67 229.453C1388.06 229.557 1390.9 227.346 1393.34 224.84C1396.06 222.044 1397.28 218.483 1398.28 215.349C1399.24 212.342 1398.91 209.263 1398.55 206.581C1398.25 204.308 1396.03 202.591 1393.44 201.065C1390.62 199.408 1386.43 198.985 1381.77 198.862C1376.69 198.728 1371.43 200.604 1366.48 202.893C1361.67 205.117 1358.81 208.517 1356.89 211.176C1355.3 213.375 1355.3 215.832 1355.51 218.114C1355.62 219.261 1356.26 220.332 1357.23 221.255C1359.24 223.192 1363.31 224.16 1368.13 225.02C1373.34 225.948 1378.81 225.684 1383.63 225.266C1387.83 224.901 1390.79 223.224 1392.85 221.679C1394.76 220.242 1395.35 218.131 1395.51 216.107C1395.67 213.958 1393.63 211.64 1390.86 209.237C1387.76 206.542 1383.04 205.203 1378.36 204.316C1373.62 203.416 1368.78 204.315 1364.62 205.4C1360.81 206.395 1358.5 208.972 1356.7 211.205C1354.9 213.433 1354.53 216.097 1354.38 218.314C1354.31 219.343 1354.71 220.181 1355.38 220.976C1358.61 224.803 1367.37 225.172 1375.07 225.198C1382.04 225.221 1386.38 220.513 1389.19 217.206C1391.74 214.212 1390.81 211.134 1390 209.672C1389.16 208.165 1386.32 207.58 1381.93 207.092C1374.68 206.285 1368.35 207.364 1365.13 208.318C1362.36 209.14 1360.76 210.661 1359.73 211.713C1358.89 212.573 1358.91 213.69 1359.1 214.741C1359.59 217.495 1366.53 218.453 1373.74 219.098C1379.66 219.627 1382.12 218.017 1383.16 217.281C1384.35 216.434 1384.48 214.308 1384.36 212.018C1384.27 210.137 1382.72 208.856 1381.35 207.946C1380.11 207.12 1377.97 207.045 1375.24 207.159C1371.92 207.296 1368.2 209.394 1363.86 212.282C1358.52 215.828 1355.64 218.996 1354.84 220.232C1354.45 220.835 1354.58 221.559 1354.91 222.05C1356.53 224.421 1363.65 223.928 1369.12 223.514C1371.34 223.347 1372.88 221.899 1374.21 220.802C1376.73 218.722 1376.53 214.515 1375.71 210.488C1375.32 208.547 1372.51 207.508 1369.75 206.743C1366.82 205.931 1363.62 206.214 1360.71 206.706C1357.68 207.218 1355.28 209.656 1353.2 212.235C1349.46 216.861 1350.55 221.082 1351.11 223.199C1351.37 224.205 1352.36 224.884 1353.66 225.427C1356.56 226.638 1361.07 226.783 1366.32 226.871C1371.96 226.965 1377.31 225.853 1381.8 224.67C1385.74 223.629 1388.57 221.986 1390.61 220.778C1392.09 219.896 1392.53 218.752 1392.59 217.679C1392.76 214.898 1387.66 212.078 1382.12 209.544C1376.28 206.877 1368.3 208.679 1361.57 211.396C1358.61 212.591 1357.3 214.875 1356.36 216.645C1355.46 218.334 1355.58 220.104 1356.13 221.611C1356.72 223.235 1359.72 224.025 1362.91 224.738C1366.23 225.483 1369.7 225.194 1372.89 224.347C1379.93 222.48 1382.42 216.281 1384.06 212.663C1384.8 211.035 1384.26 209.307 1383.55 207.77C1382.78 206.098 1380.61 204.896 1378.48 203.773C1376.34 202.644 1373.45 202.475 1370.37 202.553C1366.94 202.639 1363.64 204.692 1360.69 206.913C1355.23 211.016 1355.22 216.076 1355.13 218.372C1355.09 219.43 1355.71 220.252 1356.66 221.004C1361.52 224.812 1370.5 224.653 1377.29 223.654C1384.49 222.595 1386.76 214.503 1388.31 210.108C1388.95 208.298 1388.61 206.679 1388.25 205.395C1387.86 203.993 1385.93 202.902 1383.77 201.91C1378.69 199.571 1370.51 201.017 1364 202.768C1361.16 203.534 1359.44 205.84 1357.89 207.816C1355.15 211.318 1356.54 214.399 1357.28 215.897C1359.13 219.619 1368.11 219.392 1374.29 219.045C1376.95 218.895 1378.78 216.761 1380.22 214.885C1381.57 213.124 1381.52 210.879 1381.4 208.799C1381.27 206.739 1379.19 205.088 1376.82 203.774C1374.3 202.375 1370.59 202.199 1366.53 202.225C1362.02 202.253 1357.1 204.385 1352.16 206.873C1343.81 211.088 1340.81 215.688 1340.12 217.71C1339.82 218.578 1342.65 218.592 1344.98 218.421C1349.39 218.096 1352.11 215.684 1353.38 214.185C1353.95 213.506 1353.57 212.575 1353.1 211.92C1352.53 211.103 1350.08 211.285 1347.05 211.565C1343.33 211.909 1339.13 214.292 1334.54 217.159C1325.56 222.766 1322.4 228.733 1321.18 231.651C1320.96 232.171 1321.5 232.616 1322.03 232.83C1323.2 233.301 1325.12 232.65 1327.23 231.632C1332.07 229.296 1333.15 225.753 1333.66 224.197C1333.89 223.499 1333.73 222.928 1333.25 222.57C1330.36 220.418 1323.01 222.335 1317.28 224.843C1312.27 227.032 1312.56 231.484 1312.37 233.85C1312.33 234.367 1312.53 234.801 1312.9 235.169C1314.99 237.24 1322.47 236.624 1330.57 234.978C1334.69 234.143 1336.98 231.421 1338.54 229.784C1339.86 228.4 1339.81 226.608 1339.56 225.12C1339.06 222.118 1331.8 221.757 1325.89 221.743C1319.65 221.729 1315.44 225.826 1312.69 228.352C1310.59 230.27 1311.3 232.955 1312.25 235.355C1313.72 239.057 1323.8 239.726 1332.58 240.535C1336.22 240.871 1339.31 240.073 1341.78 238.929C1344.28 237.77 1345.12 235.102 1345.67 232.649C1346.24 230.159 1345.43 227.487 1344.08 224.855C1342.66 222.07 1339.7 220.152 1337.11 218.637C1334.67 217.205 1331.28 217.07 1327.78 217.089C1324.08 217.108 1320.39 218.784 1316.86 220.698C1309.99 224.419 1307.26 230.487 1305.45 235.476C1303.93 239.638 1304.65 241.961 1305.13 242.91C1305.67 243.966 1308.16 244.214 1311 244.481C1314.2 244.78 1317.9 243.886 1321.88 242.213C1326.44 240.294 1329.62 236.545 1332.37 233.384C1337.12 227.924 1337.01 221.525 1335.65 217.184C1334.91 214.845 1331.31 213.677 1328.14 212.676C1321.25 210.504 1314.1 212.619 1310.2 214.457C1308.7 215.163 1308.32 216.421 1308.31 217.388C1308.31 217.954 1309.01 218.603 1309.96 219.04C1314.75 221.265 1322.24 219.314 1327.56 216.855C1332.02 214.794 1331.93 211.44 1332.01 210.017C1332.05 209.345 1331.68 208.778 1331.1 208.371C1328.1 206.249 1321.29 207.755 1316.19 209.634C1314 210.443 1313.13 212 1312.91 213.079C1312.8 213.656 1313.5 214.302 1314.29 214.716C1315.98 215.595 1318.84 215.483 1322.28 215.273C1326.39 215.023 1333.93 211.654 1342.35 207.853C1345.38 206.487 1345.8 206.149 1345.67 205.749C1345.55 205.348 1344.85 204.865 1343.91 204.603C1339.47 203.366 1333.84 206.131 1330.15 208.211C1329.43 208.614 1329.06 209.052 1328.78 209.506C1328.5 209.96 1328.39 210.48 1328.51 210.897C1329.07 212.859 1338.17 213.901 1347.87 214.512C1350.36 214.669 1351.63 213.95 1352.41 213.325C1353.15 212.732 1353.3 211.671 1353.42 210.495C1353.54 209.256 1353.01 207.964 1352.03 206.736C1350.97 205.396 1348.87 204.899 1346.85 204.841C1342.04 204.702 1338.96 210.115 1337.09 213.379C1336.72 214.033 1336.75 214.623 1336.94 215.149C1337.13 215.675 1337.58 216.156 1338.12 216.424C1339.16 216.939 1340.72 216.665 1342.33 216.328C1343.97 215.985 1345.03 214.914 1345.7 213.883C1346.39 212.839 1346.27 211.535 1345.81 210.271C1345.26 208.789 1342.44 207.775 1338.91 206.731C1334.76 205.502 1329.23 205.612 1323.22 205.763C1311.56 206.057 1305.29 210.353 1302.77 212.496C1302.33 212.878 1302.34 213.322 1302.65 213.823C1304.38 216.632 1311.45 216.325 1317.5 215.837C1319.94 215.64 1321.48 214.387 1322.45 213.494C1322.9 213.078 1323.03 212.578 1322.98 212.115C1322.94 211.652 1322.66 211.199 1321.92 210.816C1320.13 209.894 1316.61 209.736 1312.06 209.684C1306.98 209.627 1301.63 210.777 1296.72 212.304C1288.74 214.783 1285.32 219.737 1283.65 223.141C1283.01 224.433 1283.53 225.727 1284.35 226.785C1285.35 228.084 1288.59 228.308 1292.58 228.514C1297.32 228.76 1302.77 227.453 1308 225.565C1312.73 223.858 1315.46 221.074 1317.28 218.946C1319.02 216.921 1319.15 214.604 1318.74 212.84C1317.8 208.806 1306.85 208.945 1298.65 209.094C1295.19 209.157 1292.58 210.706 1290.68 211.919C1289.16 212.884 1288.67 214.037 1288.48 214.913C1288.39 215.348 1288.48 215.781 1288.79 216.202C1290.48 218.54 1298.21 218.297 1305.29 217.808C1308.23 217.605 1310.32 216.076 1311.88 214.955C1313.13 214.061 1313.48 212.761 1313.52 211.406C1313.57 209.88 1311.85 208.449 1309.51 207.195C1306.76 205.725 1302.66 205.311 1296.54 205.005C1292.59 204.807 1286.9 205.079 1282.71 205.393C1275.96 205.899 1270.15 208.07 1264.77 210.414C1261.65 211.774 1260.44 212.899 1259.91 213.99C1259.6 214.636 1259.94 215.634 1260.61 216.359C1264.01 220.081 1276.64 219.607 1283.04 219.158C1286.99 218.881 1286.53 212.136 1286.23 206.969C1286.1 204.6 1284.49 202.658 1282.84 200.937C1279.23 197.177 1272.53 196.432 1266.35 196.293C1263.56 196.23 1261.21 197.354 1259.24 198.606C1255.47 201.002 1254.73 204.785 1254.47 207.775C1254.33 209.267 1255.46 210.774 1257.02 212.27C1258.87 214.036 1262.3 215.184 1266.25 216.459C1270.67 217.885 1277.95 218.294 1285.64 218.56C1289.99 218.711 1292.2 217.812 1293.8 216.921C1296.52 215.403 1297.02 212.253 1297.32 207.384C1297.44 205.445 1296.32 203.93 1295.01 202.516C1291.92 199.185 1284.55 199.041 1276.44 199.552C1272.29 199.814 1268.87 201.82 1265.77 203.689C1262.44 205.693 1259.93 208.631 1257.86 211.592C1254.08 216.996 1254.61 222.37 1255.05 225.788C1255.15 226.527 1255.94 227.026 1256.95 227.452C1259.25 228.427 1263.01 228.584 1267.49 228.705C1272.33 228.837 1276.89 228.112 1280.58 227.164C1283.84 226.325 1286.15 224.109 1288.22 221.897C1290.29 219.679 1290.81 216.563 1291.3 213.347C1291.84 209.914 1291.55 206.366 1291.03 203.057C1290.54 199.92 1288.37 197.378 1286 195.304C1281.22 191.106 1272.31 190.986 1264.43 190.972C1261.18 190.966 1258.75 192.002 1256.99 192.926C1255.47 193.724 1254.57 194.842 1253.99 196.106C1252.06 200.302 1254.69 206.828 1258.26 210.56C1260.23 212.617 1264.67 213.29 1269.76 214.158C1275.39 215.119 1281.01 214.97 1285.7 214.856C1293.11 214.676 1296.18 213.099 1297.18 212.265C1300.18 209.771 1298.31 205.774 1297.83 204.738C1297.31 203.623 1295.37 203.076 1293.09 202.619C1290.25 202.052 1285.65 202.505 1279.68 203.247C1276.57 203.633 1273.44 204.648 1269.45 206.475C1260.43 210.611 1254.74 214.994 1252.64 217.082C1250.86 218.846 1250.31 220.723 1250.14 222.362C1249.95 224.045 1251.02 225.671 1252.61 227.082C1256.54 230.574 1265.41 230.055 1272.56 229.53C1275.78 229.294 1278.33 227.097 1280.6 225.083C1282.72 223.196 1283.43 220.496 1284.05 216.849C1284.99 211.27 1284.34 206.723 1283.59 204.633C1282.89 202.692 1280.85 201.442 1278.77 200.409C1273.74 197.912 1266.3 198.684 1260.27 199.213C1257.93 199.419 1256.34 200.48 1255.19 201.197C1254.2 201.814 1253.95 202.801 1253.81 203.751C1253.64 204.874 1253.95 206.307 1254.56 207.919C1255.21 209.642 1257.22 211.141 1259.55 212.661C1262.08 214.314 1266.01 214.956 1271.29 215.465C1283.98 216.689 1287.14 214.855 1288.26 214.159C1290.46 212.789 1289.63 206.072 1288.14 199.957C1287.55 197.496 1284.99 195.831 1282.84 194.342C1280.63 192.811 1277.69 192.304 1274.91 192.045C1272.08 191.782 1269.02 192.717 1265.86 194.164C1262.35 195.773 1259.59 199.115 1256.65 202.567C1251.19 208.994 1250.51 214.576 1250.5 219.04C1250.5 221.027 1252.1 222.665 1254.2 224.025C1256.6 225.583 1260.4 226.072 1265.08 226.644C1271.24 227.394 1276.62 226.921 1279.96 226.171C1286.01 224.816 1288.65 220.341 1290.4 217.937C1291.05 217.04 1290.92 215.97 1290.75 214.896C1290.28 211.925 1284.68 209.495 1278.47 207.785C1270.94 205.714 1262.96 207.789 1259.44 209.999C1256.04 212.129 1256.11 216.593 1255.95 222.132C1255.92 223.317 1256.34 223.965 1256.93 224.585C1259.73 227.533 1266.06 227.726 1270.9 227.382C1272.97 227.234 1274.3 225.822 1275.23 224.557C1277.38 221.618 1275.17 216.227 1272.3 211.546C1269.85 207.556 1263.75 206.792 1259.05 206.667C1256.53 206.6 1254.34 207.8 1252.65 208.941C1251.1 209.992 1250.43 211.524 1249.95 213C1249.44 214.598 1249.96 216.408 1250.96 218.147C1252.11 220.151 1255.93 221.279 1260.32 222.408C1265.08 223.634 1270.41 223.353 1275.11 223.029C1279.07 222.755 1281.76 221.111 1283.58 219.35C1287.38 215.677 1286.02 209.884 1284.28 205.269C1283.52 203.225 1281.24 202.048 1279.49 201.051C1277.89 200.143 1275.12 200.036 1272.11 200.06C1270.01 200.076 1268.55 201.035 1267.3 201.958C1266.2 202.78 1265.72 203.8 1265.46 204.959C1265.09 206.585 1265.48 208.084 1266.03 209.111C1266.98 210.178 1268.54 211.309 1270.69 212.487C1271.88 213.089 1273.25 213.701 1274.67 214.331" stroke="#BFD1F4" stroke-width="1.75" stroke-linecap="round"/>
</svg>
