<svg width="54" height="42" viewBox="0 0 54 42" fill="none" xmlns="http://www.w3.org/2000/svg">
<g filter="url(#filter0_d_5507_9249)">
<rect x="5.33073" y="5.33073" width="43.3385" height="31.3385" rx="3.63802" fill="#FEB4C7" stroke="#D9D9D9" stroke-width="0.661458"/>
<path d="M22.6528 19.46C23.2466 19.4601 23.7973 19.6598 24.2534 19.999V19.6221H25.8677V25.5039H24.2534V25.1279C23.7973 25.4671 23.2466 25.6669 22.6528 25.667C21.081 25.667 19.8062 24.2773 19.8062 22.5635C19.8062 20.8495 21.081 19.46 22.6528 19.46ZM39.689 19.46C40.283 19.46 40.8343 19.6597 41.2905 19.999V19.6221H42.9048V25.5039H41.2905V25.1279C40.8343 25.4672 40.283 25.667 39.689 25.667C38.1174 25.6667 36.8433 24.2772 36.8433 22.5635C36.8433 20.8497 38.1173 19.4602 39.689 19.46ZM44.6196 23.418C45.1791 23.4181 45.6331 23.9124 45.6333 24.5225C45.6333 25.1326 45.1792 25.6278 44.6196 25.6279C44.06 25.6279 43.606 25.1326 43.606 24.5225C43.6062 23.9123 44.0601 23.418 44.6196 23.418ZM16.2886 17C16.2886 18.8415 15.6312 20.5548 14.4585 21.8281L16.9321 25.5068H14.7212L12.0327 21.5088L12.7271 20.9424C13.8778 20.0024 14.5376 18.5653 14.5376 17H16.2886ZM11.8188 17V25.5059H10.0288V17H11.8188ZM19.145 25.5039H17.4536V17.002H19.145V25.5039ZM28.3667 20.3887C28.6904 19.9293 29.2931 19.6231 29.9487 19.623V21.334C29.9424 21.3339 29.9365 21.334 29.9302 21.334C29.2912 21.334 28.3697 21.8315 28.3696 22.7578V25.5039H26.7124V19.623H28.3667V20.3887ZM33.9731 19.4639C35.2741 19.4639 36.2729 20.3951 36.2729 21.7637V25.5039H34.6597V22.4014C34.6597 21.5435 34.2512 21.0811 33.5415 21.0811C32.8794 21.0812 32.3296 21.5189 32.3296 22.4131V25.5039H30.7017V19.623H32.3101V20.2852C32.7181 19.6829 33.3283 19.464 33.9731 19.4639ZM22.7847 21.0498C21.9767 21.0499 21.3218 21.7278 21.3218 22.5635C21.3219 23.399 21.9767 24.076 22.7847 24.0762C23.5928 24.0762 24.2485 23.3991 24.2485 22.5635C24.2485 21.7278 23.5929 21.0498 22.7847 21.0498ZM39.8218 21.0498C39.0137 21.0499 38.3589 21.7278 38.3589 22.5635C38.359 23.399 39.0137 24.076 39.8218 24.0762C40.6299 24.0762 41.2856 23.3991 41.2856 22.5635C41.2856 21.7278 40.63 21.0498 39.8218 21.0498Z" fill="#17120F"/>
</g>
<defs>
<filter id="filter0_d_5507_9249" x="0" y="0" width="54" height="42" filterUnits="userSpaceOnUse" color-interpolation-filters="sRGB">
<feFlood flood-opacity="0" result="BackgroundImageFix"/>
<feColorMatrix in="SourceAlpha" type="matrix" values="0 0 0 0 0 0 0 0 0 0 0 0 0 0 0 0 0 0 127 0" result="hardAlpha"/>
<feOffset/>
<feGaussianBlur stdDeviation="2.5"/>
<feComposite in2="hardAlpha" operator="out"/>
<feColorMatrix type="matrix" values="0 0 0 0 0 0 0 0 0 0 0 0 0 0 0 0 0 0 0.07 0"/>
<feBlend mode="normal" in2="BackgroundImageFix" result="effect1_dropShadow_5507_9249"/>
<feBlend mode="normal" in="SourceGraphic" in2="effect1_dropShadow_5507_9249" result="shape"/>
</filter>
</defs>
</svg>
