<svg width="242" height="104" viewBox="0 0 242 104" fill="none" xmlns="http://www.w3.org/2000/svg">
<path d="M207.83 90.6554C196.699 94.5051 175.852 94.8431 175.852 94.8431C175.852 94.8431 89.6442 97.0217 75.8345 94.4243C66.9821 92.7593 42.4953 92.7492 22.0836 86.8864C1.67192 81.0236 5.75426 67.623 13.9189 59.6664C22.0836 51.7097 13.9189 44.1406 36.0955 31.0689C51.0647 22.2455 85.0423 15.8186 85.0423 15.8186C85.0423 15.8186 127.771 11.5078 137.069 9.83267C154.487 6.48251 158.336 7.5397 171.089 9.83267C185.736 12.4663 192.561 16.8407 203.067 23.6521C211.49 29.1131 213.441 33.2475 220.757 39.5654C235.229 52.0629 235.229 58.9949 235.229 58.9949C235.229 58.9949 234.74 69.6437 229.602 76.8359C224.686 83.7176 218.478 86.9726 207.83 90.6554Z" fill="#E8DCCD"/>
<path d="M26.2669 52.6537C25.5521 55.5993 23.3641 61.8276 19.435 65.3267C12.8068 73.3852 13.138 75.2377 24.2897 79.2057C29.8721 80.8247 35.6969 81.988 41.473 82.9311C43.9757 83.3323 43.7443 83.8315 44.4413 83.9981C46.3655 84.4474 47.6168 83.9556 49.0375 84.1637C55.9615 85.1752 62.5139 85.711 69.6775 86.551C77.2302 87.5359 73.4685 88.8389 76.1324 89.6249C76.3401 89.6911 76.5294 89.7516 76.703 89.8066C79.9261 90.8368 77.1237 88.3949 78.6656 88.1187C83.688 88.7717 89.4999 89.14 95.0204 89.5023C93.7025 89.6796 92.2448 89.8446 90.9073 89.9951C93.3162 90.1088 96.8381 90.5137 92.7181 90.993C93.6517 91.1724 94.4558 91.373 95.3842 91.5439C95.6652 90.7596 99.9802 90.7622 100.4 90.2938C100.8 89.8288 98.3534 89.9053 98.3776 89.8636C98.5426 89.2943 108.52 90.1789 109.276 90.2345C111.171 90.4133 109.503 91.3927 111.124 91.3326C113.924 91.2268 112.072 89.2272 115.85 91.883C117.357 91.0161 117.498 91.4647 119.401 91.5177C119.652 91.5242 119.455 91.0247 119.566 91.0112C122.455 90.6275 120.237 91.5675 120.252 91.6178C120.518 92.4734 123.624 92.0766 124.277 92.1538C132.486 93.121 138.536 93.7427 147.194 93.85C149.092 93.8727 154.762 93.4302 156.598 93.5413C158.394 93.6522 157.444 94.2865 158.372 94.5655C159.858 93.0535 161.258 92.864 164.662 93.7725C165.865 92.6651 165.8 93.5402 168.15 93.2735C170.105 93.0523 173.677 91.6731 175.798 92.7269C173.406 92.6845 173.534 93.2132 170.757 93.5972C169.837 93.7282 159.893 93.9538 160.704 95.0419C161.069 95.612 164.379 95.0164 164.478 95.1203C165.212 95.725 163.438 96.5233 161.783 96.2887C162.154 96.1564 162.679 96.0191 163.113 95.8853C159.443 95.183 162.054 98.1075 159.189 95.5621C158.828 95.2499 158.96 94.9149 158.404 94.5864C158.294 94.7286 158.971 95.0635 158.395 95.1365C157.809 95.2102 156.644 94.5717 156.478 95.1306C156.244 95.9436 158.736 95.5792 158.904 95.6231C158.905 95.6182 158.907 95.6133 158.909 95.6084C160.604 96.0058 157.133 96.1199 156.966 96.1991C155.893 96.7223 156.616 97.0974 155.013 97.542C154.138 97.7947 151.698 97.6965 150.88 97.7862C150.029 97.8786 151.362 98.2392 150.79 98.3307C150.217 98.4222 149.491 98.1433 148.804 98.2494C148.509 98.296 148.531 98.7222 148.388 98.7393C146.866 98.9271 147.857 98.0246 146.493 98.0994C145.619 98.1489 142.6 99.019 144.689 99.2355C143.675 99.336 142.748 99.4118 141.759 99.4923C142.381 99.6108 143.02 99.6882 143.62 99.829C141.786 99.6515 140.948 100.392 139.776 100.462C138.624 100.531 137.578 99.6675 136.299 100.11C133.582 101.05 140.308 100.552 141.174 100.7C141.503 100.76 140.251 101.463 140.055 101.485C139.192 101.582 138.187 101.103 137.522 101.133C135.138 101.244 133.718 101.907 131.447 102.059C123.76 102.58 114.213 102.983 106.884 103.084C104.201 103.123 102.497 102.378 101.312 102.386C98.3933 102.401 98.1344 103.031 95.5584 103.02C91.8332 103.008 86.5529 102.299 83.3849 102.002C81.17 101.806 79.0397 102.248 78.477 102.208C77.8243 102.163 77.1964 102.112 76.5925 102.051C75.9352 101.984 75.1474 101.884 74.4539 101.765C68.8407 100.989 60.5679 100.571 55.1526 100.039C52.1123 99.7669 50.7158 98.924 50.0943 98.881C47.372 98.6787 48.0342 99.3435 45.8368 99.0296C44.6441 98.8559 44.4924 98.2642 44.3362 98.2229C42.9565 97.8616 42.5806 98.557 41.4769 98.4324C35.1237 97.7016 29.0735 96.1398 22.8053 94.4394C22.3504 94.3147 22.4756 94.0085 22.1762 93.9461C20.8989 93.6823 21.3309 94.3287 20.0376 94.0098C20.0242 94.0064 20.0107 94.0029 19.997 93.9993C17.0054 93.2127 13.8815 91.9981 10.705 90.0797C10.4053 89.8943 10.4506 89.4404 9.73952 88.9825C9.04743 88.5248 8.23477 88.4674 7.13492 87.5415C4.26501 85.1156 1.84964 81.2599 0.908202 76.7359C0.751272 76.0055 0.0903831 75.1344 0.0304556 73.9784C-0.262439 70.2588 1.62279 65.7642 2.77348 63.6106C4.54458 60.0556 6.73121 57.2488 9.15588 54.7788C10.453 53.3582 10.8162 52.5251 11.616 49.8633C11.9631 48.6846 12.8005 47.4721 13.0768 46.6849C13.7332 44.8628 12.7954 46.1165 13.5429 44.1926C17.6772 34.3839 25.7181 29.3886 32.6387 25.2042C38.3435 21.9497 43.9317 19.9298 49.5426 17.9966C54.7338 16.2287 60.9494 13.9958 66.0335 12.8352C68.1522 12.3529 68.6858 12.8569 70.1562 12.5047C72.8053 11.8767 73.1164 10.9952 75.9071 10.2868C78.1455 9.72459 80.8247 9.95553 83.2343 9.43217C83.3276 9.4118 83.4125 9.39183 83.5323 9.36403C83.5844 9.35165 83.6287 9.34053 83.6655 9.33059C83.6713 9.32657 83.8187 9.29524 83.8082 9.29389L84.3758 9.21173C86.2475 8.87552 87.3546 8.11172 89.7698 7.77837C91.9443 7.47901 95.0547 7.50288 97.4394 7.19481C110.314 5.49002 123.66 3.948 135.676 2.10003L135.585 2.11699C144.288 0.38833 155.162 -1.09241 164.935 1.09763C167.466 1.57293 169.916 2.07134 172.397 2.55524C178.342 3.69555 184.736 5.52031 190.226 8.55963C190.96 8.97408 189.507 9.09561 191.986 10.0975C193.302 10.6453 195.407 10.9901 198.218 12.6018C201.2 14.3167 203.997 16.158 206.738 17.9896C214.407 22.7602 219.597 30.3717 224.757 34.9332C230.46 40.3234 236.12 45.5805 240.009 54.1792C240.242 54.7554 240.469 55.379 240.669 56.067C240.769 56.4116 240.865 56.7836 240.948 57.1834C240.992 57.3964 241.032 57.6141 241.067 57.8513C241.085 57.9728 241.104 58.1181 241.119 58.2572C241.137 58.4663 241.152 58.4717 241.162 58.9949L241.155 59.2672C240.665 66.7026 239.644 73.559 235.195 80.8315C229.396 90.4672 218.524 95.4684 210.445 98.2159C197.708 102.116 186.935 101.392 176.589 98.6773C175.37 98.3279 175.993 96.4682 176.685 95.9248C177.356 96.2814 177.964 96.7064 178.684 97.102C179.449 94.7568 179.313 95.3827 182.512 95.4113C184.482 95.4194 182.85 94.5316 183.878 94.1851C185.211 93.7651 191.377 92.05 190.322 93.6766C190.683 93.3736 191.016 93.0833 191.369 92.7841C195.866 92.0557 200.221 91.0304 204.292 89.5269C204.991 89.2617 204.895 88.7915 205.592 88.5065C206.042 88.318 206.501 88.1497 206.913 88.006C208.305 87.5208 209.639 87.2243 211.141 86.6077C212.221 86.158 212.17 85.5885 213.568 85.0364C214.945 84.4724 215.266 85.1682 216.707 83.5449C215.165 83.3165 220.52 81.2647 221.91 79.8793C222.156 79.6985 223.296 77.5847 224.13 76.7621C224.72 76.2113 225.634 75.5343 226.417 74.5606C226.764 74.136 227.073 73.6372 227.283 73.0744C227.585 72.2559 227.232 71.502 227.576 70.6535C227.816 70.0565 228.658 69.5338 228.969 68.7201C229.295 67.9116 229.348 65.9621 229.415 65.6221C229.682 64.3956 229.755 65.8397 229.975 65.0062C230.475 63.0762 230.921 60.7471 231.079 58.8041L231.075 58.9949C231.077 59.1569 231.079 59.1303 231.08 59.1651C231.082 59.1912 231.082 59.1958 231.083 59.2049C231.085 59.2213 231.086 59.2246 231.087 59.2241C231.087 59.2214 231.086 59.2046 231.083 59.1778C231.077 59.1288 231.065 59.0553 231.046 58.9698C231.012 58.8079 230.957 58.6021 230.891 58.3995C230.757 57.9813 230.572 57.5306 230.355 57.082C229.916 56.1724 229.357 55.2816 228.735 54.455C228.433 54.0535 228.407 54.8976 228.354 54.8476C226.012 52.4606 227.504 53.5568 227.324 52.5577C227.235 51.5326 222.423 46.6242 221.734 47.2399C222.33 46.3427 220.661 45.8488 220.346 45.6021C219.134 44.6414 219.947 44.1513 218.637 43.3651C218.15 43.0738 218.558 44.2522 218.122 43.8442C217.926 43.6617 217.751 43.4578 217.586 43.2372C216.756 42.1651 216.226 40.778 215.014 39.4971C214.653 39.1132 214.222 39.3117 213.577 38.6478C212.905 37.9703 210.696 34.8804 211.227 36.7768C210.193 34.6299 209.605 34.5667 207.865 32.8348C207.426 32.405 207.334 31.3309 206.2 30.6425C205.813 30.4105 205.388 30.9442 204.88 30.5332C203.726 29.6127 203.006 28.1894 201.385 27.0824C201.261 26.9983 201.135 26.9142 201.007 26.8303C197.841 24.7682 194.323 23.012 191.166 21.0482C190.268 20.4959 190.832 20.0112 189.477 19.2835C189.274 19.1728 187.371 18.8782 186.448 18.405C185.906 18.0926 183.047 16.4722 182.42 16.2371C181.401 15.8152 181.008 16.3913 180.482 16.0808C178.95 15.2043 180.554 14.665 178.172 15.3633C177.708 14.4567 176.494 14.2178 176.329 13.2369C175.376 14.0341 174.699 12.8807 173.23 12.9165C172.047 12.9498 170.843 14.0928 170.454 13.365C170.36 13.1994 170.31 12.9383 170.313 12.5474C169.601 12.6776 166.667 12.5842 166.193 12.5336C164.769 12.3726 165.63 11.9371 164.554 11.8306C164.368 11.813 164.493 12.2312 163.32 11.9992C162.519 11.7846 157.007 11.1262 156.695 11.1351C152.973 10.3836 158.748 10.8007 159.634 10.5526C159.768 10.6804 159.9 10.8089 160.041 10.9373C161.701 11.3343 160.865 10.3255 160.11 10.026C159.354 9.7234 157.879 9.99103 157.259 9.66513C156.948 9.50133 157.204 8.43543 158.191 8.63988C157.151 8.23138 158.634 7.99381 158.236 7.65311C157.804 7.21162 152.874 7.03275 152.875 7.67941C153.785 7.66827 154.912 7.64308 155.827 7.69459C156.905 8.76116 153.487 12.0858 150.304 10.9849C147.896 10.207 151.665 8.95973 146.203 10.4649C147.062 10.391 147.794 10.3989 148.574 10.3584C148.736 11.1124 147.394 10.4109 146.775 10.7402C146.481 10.8969 148.451 11.1987 146.826 11.5854C145.257 10.6844 144.294 11.9362 141.916 12.3526C142.55 12.0454 143.179 11.7441 143.824 11.4444C139.621 11.3136 149.075 9.52294 141.04 10.3801C141.984 10.1798 142.937 10.0309 143.909 9.8261C143.377 9.50056 143.951 8.21384 143.489 8.03237C142.268 7.55644 140.677 8.22658 139.32 8.41557C138.722 8.49991 139.033 8.11851 138.983 8.12569C138.148 8.24315 138.429 8.66764 137.725 8.83046C137.527 8.87635 137.238 8.91464 136.899 8.94957L136.91 8.94763C135.788 9.04623 134.15 9.01286 133.818 9.10117C132.712 9.3929 134.713 10.0409 134.597 10.1258C133.965 10.6731 132.505 10.4993 132.651 11.07C133.721 10.7896 135.567 10.5022 137.148 10.2691C140.445 9.74675 142.948 9.74114 137.376 11.4277L137.357 11.4312C137.306 11.4469 137.252 11.4628 137.197 11.4789C137.258 11.4913 137.317 11.5043 137.373 11.5178L137.393 11.5141C139.244 11.8968 139.353 12.7945 137.78 13.5262L137.736 13.5343C137.261 13.7501 136.561 13.9514 135.734 14.1001C132.738 14.6252 134.623 13.8225 132.993 13.4705C132.778 13.4333 128.796 13.6727 128.659 14.0952C128.701 13.1469 127.323 12.4834 128.06 11.4185C128.161 11.2635 129.78 11.1149 129.118 10.4161C128.77 10.0674 127.89 9.32227 127.952 8.81409C127.669 9.19737 127.371 9.62579 127.074 10.0253C124.693 10.4193 124.307 10.0885 122.906 9.60675C123.002 9.86602 124.351 10.8438 122.462 10.7211C122.365 10.7118 122.242 10.3186 121.277 10.2288C119.331 10.0494 118.933 9.96831 120.24 8.61913C116.402 9.74524 115.4 8.52227 111.422 9.35415C112.39 10.786 113.767 10.2552 117.419 9.54376C117.62 9.88715 117.736 10.2365 117.942 10.5831C112.943 10.3193 115.373 10.1286 112.677 11.1733C112.015 11.4298 108.364 11.6355 109.688 12.5266C110 12.7367 112.254 12.4601 112.037 12.8683C111.994 12.9467 109.273 13.4322 109.017 13.3604C105.853 12.4779 111.179 11.0496 102.874 12.391C102.643 12.4289 102.608 12.8806 102.163 12.9905C101.325 13.1963 101.28 12.682 100.522 12.8824C99.77 13.0824 98.8043 13.8827 97.5951 13.3649C95.406 12.4205 100.228 11.2376 102.478 11.6191C103.21 10.0132 87.5875 11.6182 86.6471 11.8366C82.452 12.8362 89.4975 11.7877 89.8824 12.1719C90.0732 12.3322 90.1785 14.6049 91.837 12.9515C92.3283 12.4615 90.0332 12.1208 91.3478 11.7425C92.6197 11.3686 92.176 12.0868 92.2745 12.1235C92.6231 12.2482 93.9884 11.8567 94.1798 11.932C97.1137 13.0717 97.0965 15.2607 93.0686 12.4514C91.5191 13.3426 95.3325 14.109 93.4017 14.8055C91.0341 15.6541 89.1272 14.8088 88.8358 14.7919C85.0937 14.6219 89.4694 15.6827 85.0268 15.6647L85.0136 15.6666C85.0132 15.6651 85.0058 15.6648 84.9912 15.6659C83.868 15.761 84.4156 15.4346 84.9147 15.1437L84.9734 15.1352C85.1725 15.0346 85.3426 14.941 85.4134 14.8703C85.4755 14.8005 85.2735 14.7704 84.9371 14.7752L84.8474 14.7882C84.4928 14.8282 83.8476 14.9453 82.8694 15.1619C78.1393 16.2308 80.8434 16.2096 80.729 17.4533C80.7284 17.7399 78.2195 18.6257 81.6863 17.762C81.724 17.4357 81.798 17.0005 81.9773 16.6696C82.885 16.712 84.6085 17.9564 85.0681 17.9237C85.2435 17.9052 85.3275 17.9009 85.434 17.8893L85.2539 17.9153C87.149 17.8577 87.0126 17.2049 88.385 17.9659C87.3603 17.0224 88.926 17.4938 89.5018 17.2131C91.5992 16.1805 88.6838 16.1796 93.6832 16.7095C92.9724 16.2918 92.3752 15.8714 91.711 15.4504C92.2942 15.3731 92.8488 15.2982 93.4551 15.2182C94.4032 16.2025 97.5118 15.7385 94.8125 17.1111C98.2185 17.0647 99.5578 16.6857 100.197 15.7756C100.318 15.602 100.826 15.4838 101.418 15.4053C101.282 15.1829 101.063 14.4741 101.146 14.3756C101.884 13.5077 103.341 14.7157 102.949 15.2783C103.375 15.2577 103.699 15.2522 103.817 15.2522C104.557 15.2537 103.173 15.8728 103.783 15.9689C103.977 16.0007 106.055 15.6746 106.108 15.8601C106.495 17.0446 102.975 16.5432 109.914 16.5013C109.956 15.38 106.803 15.9689 107.492 14.7073C108.229 13.3528 110.208 14.8463 110.427 13.2581C110.6 13.4962 110.688 13.701 110.844 13.9765C113.542 12.9976 113.721 14.2792 114.599 14.469C116.302 14.8436 123.867 13.8914 116.943 13.5537C117.93 13.3293 118.926 13.1634 119.909 12.9504C120.402 15.2286 119.69 14.3885 124.497 14.1765C125.535 14.1313 126.033 15.0995 126.9 13.7719C126.887 14.9734 129.928 13.8706 130.24 13.9736C132.231 14.6699 125.446 16.8399 124.323 14.8464C123.241 15.7994 123.134 14.7223 121.846 15.0174C119.993 15.4415 119.748 15.6821 117.436 15.1412C115.37 16.5132 126.082 14.6439 119.713 16.8825C115.746 18.2856 99.5286 20.7436 85.7234 22.5692L86.3034 22.4853C78.3942 24.2974 71.1522 26.2926 68.016 27.2034C55.6553 30.8827 47.8201 33.5958 40.1127 37.8841C38.3411 38.9382 36.5823 40.0523 34.8324 41.3139C34.3309 41.6674 32.2613 43.2597 30.7915 44.554C29.2824 45.8506 28.2654 46.8458 28.2005 45.8309C28.1056 45.5589 30.2544 42.4628 27.3527 44.1722C28.2132 44.0761 27.3651 45.7236 27.3568 45.8813C26.9997 47.6425 27.3371 48.0971 27.3243 48.6866C27.3261 49.3583 27.1497 49.6264 26.2669 52.6537ZM4.58416 67.0359C6.85311 61.9277 7.54618 61.6301 6.9078 61.6032C6.35923 61.6405 4.95528 62.5622 4.76228 61.0183C3.94552 62.29 3.20725 63.6487 2.58625 65.1291C2.86271 64.7844 3.13967 64.4651 3.42692 64.1473C3.42767 64.1457 3.42843 64.1441 3.42918 64.1425C3.75871 65.1443 4.14031 66.1204 4.58416 67.0359ZM146.309 100.463C145.952 100.727 145.598 100.991 145.206 101.25C143.956 101.188 142.76 101.126 141.527 101.062C141.672 100.885 141.811 100.705 141.954 100.528C143.392 100.516 144.855 100.503 146.309 100.463ZM103.735 11.1987C105.541 11.727 105.237 10.4706 107.595 10.8022C107.215 9.89184 106.8 9.00583 106.403 8.10652C104.682 8.43375 104.315 8.8352 102.408 8.80687C102.666 9.08521 102.919 9.36578 103.165 9.64707C103.471 9.54868 103.797 9.43897 104.097 9.34862C104.669 10.1432 101.677 10.5919 103.729 11.2013C103.731 11.2004 103.733 11.1996 103.735 11.1987ZM121.33 8.85592C122.251 8.87429 125.997 8.89206 126.426 8.44229C127.975 6.921 117.736 8.99543 125.211 6.91116C125.154 6.73031 125.167 6.54473 125.145 6.36148C123.745 6.46547 122.363 6.57279 120.965 6.68346C121.125 7.40499 121.159 8.13187 121.33 8.85592ZM21.916 37.0358C22.9927 35.7909 28.4516 30.7315 26.0464 31.5522C25.2748 31.8005 23.463 34.8718 22.5235 35.7686C21.8998 36.3433 22.0869 35.1975 21.0872 36.5877C21.3499 36.733 21.6157 36.9211 21.9177 37.0313C21.9171 37.0328 21.9166 37.0343 21.916 37.0358ZM22.946 41.7113C23.7656 40.4658 24.6856 39.264 25.6941 38.1433C24.3668 38.3266 23.2104 40.3166 22.3443 39.729C22.5568 39.3556 22.786 38.9781 23.0307 38.5973C23.4196 38.5189 23.8083 38.4483 24.2 38.3812C24.7541 37.0376 23.9532 37.3537 25.9311 35.8229C23.8229 35.6043 22.7 35.1594 20.9845 39.6792C20.8959 38.4538 18.0427 37.2865 18.1263 40.7646C18.1603 41.3768 19.5363 39.8065 19.6131 39.8357C20.3886 40.0334 20.1193 41.2047 20.8831 41.3479C21.2198 41.4112 21.9106 40.4969 22.3627 40.6488C22.5675 40.7309 22.4194 41.9172 22.946 41.7113ZM18.0396 42.2481C17.9418 41.5338 16.0077 42.6502 15.5354 44.3051C14.8634 46.7975 17.2888 43.4692 18.0396 42.2481ZM146.317 100.462C146.315 100.462 146.312 100.462 146.309 100.463C146.311 100.462 146.312 100.461 146.313 100.46C146.315 100.46 146.316 100.461 146.317 100.462ZM116.503 8.88712C117.553 8.38362 119.166 8.25432 118.98 7.6637C119.526 7.72108 120.064 7.77717 120.61 7.83388C120.584 7.65292 120.552 7.47214 120.526 7.29302C118.931 7.36405 117.327 7.43255 115.717 7.49784C115.97 7.96135 116.211 8.42801 116.503 8.88712ZM133.847 7.17601C135.8 6.94787 134.03 6.37552 134.404 5.91584C134.812 5.45581 136.492 5.50269 136.173 4.97287C135.121 5.13741 133.957 5.28599 132.764 5.43375C133.138 6.01065 133.478 6.60335 133.851 7.17544C133.849 7.17563 133.848 7.17582 133.847 7.17601ZM32.0994 93.7413C30.7471 93.2927 31.4428 92.8034 28.5627 92.9471C28.5647 92.9475 28.5668 92.9479 28.5688 92.9484C31.053 94.0215 34.3512 95.104 37.3119 95.065C35.6605 94.1252 34.2297 94.4311 32.0994 93.7413ZM98.7798 9.85387C98.251 10.4129 100.989 10.5427 101.515 10.0189C102.393 9.169 99.5623 9.00758 98.7798 9.85387ZM87.8941 95.3025C90.0142 93.8276 86.1431 92.0071 82.069 92.496C81.6941 92.5414 84.3095 93.1843 83.5084 93.4389C83.4132 93.4647 81.9729 93.3424 81.6381 93.5323C81.2529 93.721 81.6081 94.2455 80.9755 94.4101C79.8746 94.7039 77.6857 93.8161 76.8182 94.1616C76.7532 94.1847 77.1035 94.4204 77.443 94.6412C77.7488 94.8586 78.1161 95.0724 78.161 95.0898C79.7308 95.662 81.1166 94.876 81.4155 94.8924C82.5667 94.9393 82.356 95.6071 82.6456 95.786C83.1869 96.1215 84.2859 95.8762 84.3183 95.8997C86.0973 96.589 81.8934 96.2048 81.3886 96.4039C79.7197 96.9378 81.2302 97.7261 77.3875 97.7133C77.0548 97.725 72.5163 97.0395 78.0612 98.5515C76.7806 98.6215 75.627 98.6129 75.0426 98.6343C74.0346 98.7358 74.2177 98.914 74.9538 99.1067C77.6153 99.798 83.9874 99.7574 85.006 99.5835C85.7856 99.4562 84.6476 98.7527 85.1279 98.4815C86.2413 97.8636 88.0638 97.8117 87.9274 96.8614C87.6914 94.8674 85.2061 96.0751 83.6172 95.6521C83.8147 95.2309 83.924 94.8158 84.2527 94.4102C83.6908 94.9568 87.7897 95.4223 87.894 95.3064C87.894 95.3051 87.8941 95.3038 87.8941 95.3025ZM62.1413 95.23C59.9164 94.4462 59.9717 95.7093 57.9399 94.8169C55.9971 95.779 59.6531 96.0178 60.0585 96.113C61.9788 96.5565 61.8292 97.7709 63.8332 97.5572C63.2032 96.7791 62.7286 96.0064 62.1413 95.23ZM81.8544 97.7998C80.3223 98.3362 82.9976 98.4984 83.1447 98.623C84.3113 100.009 75.8837 99.1583 81.8544 97.7998ZM30.7613 32.9302C31.4447 32.5146 30.6814 32.2986 31.1787 31.748C31.6297 31.2154 33.9756 30.3568 33.7115 30.0834C33.5015 29.7519 29.1437 31.3534 32.85 28.7651C32.6105 28.6626 32.5706 28.501 32.4078 28.3755C31.3536 29.0187 30.3032 29.6847 29.2342 30.4106C30.1704 30.5109 31.0852 30.6777 31.9493 30.8242C31.6383 31.605 30.9902 31.2885 30.9585 31.3091C30.9589 31.3096 30.9593 31.3101 30.9596 31.3107C29.8759 32.0905 29.2715 33.8594 30.7613 32.9302ZM13.0786 86.6629C14.0584 85.4808 11.4581 85.9283 10.5921 85.5042C9.75178 85.1406 9.15582 83.8725 9.09242 84.6814C9.94723 86.0744 13.0149 86.8515 13.0796 86.6612C13.0793 86.6618 13.0789 86.6623 13.0786 86.6629ZM49.7362 94.1026C47.783 94.2619 48.0346 94.6913 45.7415 93.9649C45.7886 94.3409 45.8352 94.725 45.8836 95.0954C47.7531 95.3231 47.7438 94.249 49.8559 94.9078C50.2022 95.0151 49.3582 95.7857 50.9812 95.6776C50.5649 95.1778 50.1466 94.6264 49.7362 94.1026ZM40.0446 94.2666C42.2702 94.5282 44.4043 91.8198 40.1817 92.5792C39.555 92.6898 38.3711 94.0622 40.0446 94.2666ZM17.8675 49.0351C19.1732 45.3865 17.2916 49.4218 16.6216 50.2354C19.1032 41.3982 16.3233 51.4165 14.7749 51.5454C14.9174 52.5778 15.1853 54.6037 16.1375 52.807C16.5179 52.021 15.9837 52.1788 16.0028 52.131C16.5923 50.6233 17.2229 51.0004 17.8675 49.0351ZM66.0953 95.4818C65.9546 95.4925 66.1299 96.0226 65.6785 96.0878C65.2212 96.1517 64.2427 95.7106 64.1171 96.0166C63.9906 96.3242 65.9953 96.7361 66.6326 96.5594C67.2752 96.3805 67.3798 95.392 66.0953 95.4818ZM51.8993 92.977C49.9888 93.1555 52.8626 95.3478 53.2718 95.3751C56.8576 95.6135 51.7286 93.5687 51.8993 92.977ZM17.4801 58.5535C19.179 53.6296 15.9447 56.5184 13.6177 57.6121C13.5432 58.0074 13.4681 58.3859 13.3593 58.7801C13.5861 56.9381 13.9723 54.7696 12.0613 57.7602C11.7302 58.1727 11.3549 58.6748 10.9493 59.2816C11.7997 58.4811 12.2481 58.1887 12.4242 58.1325C12.5099 58.113 12.5332 58.1529 12.517 58.2278C12.4318 58.506 11.8474 59.2716 11.8686 59.309C12.3403 59.9516 13.0082 59.7983 13.7327 59.4753C15.124 58.9134 16.4656 57.1581 17.4775 58.5574C17.4783 58.5561 17.4792 58.5548 17.4801 58.5535ZM72.0174 96.5888C72.8525 96.6803 74.3028 96.7825 75.3857 96.8105C76.9257 96.8639 78.0791 96.6009 76.7259 95.8825C76.2998 95.9351 75.9039 95.9842 75.533 96.0275C74.3693 96.1684 73.2022 96.3719 72.0174 96.5888ZM73.6735 20.1951C75.3695 20.3755 76.773 20.0419 78.68 19.5816C76.8009 19.1563 77.9086 18.8124 78.4286 18.491C79.2568 17.9971 77.1296 18.4936 77.0972 18.4457C76.9778 17.6728 78.2995 17.244 75.1887 17.9729C75.9262 17.5235 76.59 17.0915 77.3264 16.65C74.9328 17.1506 74.2587 16.7877 72.5984 16.5389C74.4016 17.6787 72.2626 17.1982 70.6956 18.3626C69.9153 18.9437 72.8307 20.0944 73.6793 20.1938C73.6774 20.1942 73.6755 20.1947 73.6735 20.1951ZM20.0461 53.9805C19.9469 53.417 19.7237 52.8837 19.5551 52.3556C19.67 51.8687 19.7802 51.3906 19.8885 50.9136C20.138 50.9244 20.3955 50.9481 20.6387 50.9474C20.8846 50.3628 20.4918 50.5024 20.5151 50.3132C20.5164 50.3136 20.5176 50.314 20.5189 50.3144C20.863 47.66 21.3617 46.6284 22.9564 45.2979C22.3119 44.9279 21.6673 44.5579 21.0228 44.1879C20.8475 44.635 20.67 45.1186 20.5274 45.5706C20.7721 45.9806 21.0293 46.3766 21.2974 46.7576C20.8815 47.1529 20.4818 47.5643 20.0867 48.0072C20.0735 48.4626 20.0488 49.0149 20.0689 49.4166C17.41 50.9098 20.3083 46.5364 19.6292 46.1968C19.0191 45.9133 17.4174 50.9561 17.6332 51.7267C17.6533 51.8457 19.4636 51.2297 18.1393 52.7889C17.9016 53.0576 14.8058 52.0091 16.594 54.7467C16.8184 55.1781 19.1679 55.0802 20.0461 53.9805ZM29.1818 40.0371C25.6547 40.1053 34.9805 35.6307 30.4589 36.8911C30.8751 35.3539 30.7085 35.4867 29.1496 35.5707C29.0086 35.5782 29.5614 34.8219 29.4832 34.8393C28.2161 35.1737 27.1925 36.3516 26.6278 35.6865C26.3854 35.95 26.1642 36.1942 25.9392 36.4537C27.551 36.1502 26.2036 38.0333 26.1022 39.1204C26.0534 39.6046 26.7366 39.0845 26.701 39.5003C26.6908 39.6409 25.6912 40.3528 25.8733 40.5886C26.277 41.1153 27.4133 41.1833 28.6079 40.7369C28.6083 40.7373 28.6088 40.7378 28.6092 40.7383C28.8101 40.4951 28.9845 40.2691 29.1818 40.0371ZM20.7216 84.7823C20.7591 86.0294 22.5738 87.028 18.788 86.326C18.8805 86.6093 18.9844 86.8933 19.0877 87.1775C19.7254 87.3828 20.315 87.5555 20.954 87.7322C21.3335 87.3757 21.6993 87.1432 22.0504 87.002C24.3194 86.0335 25.9665 89.2245 24.6114 86.6558C24.444 86.3355 22.9274 86.2369 24.5359 85.9137C24.5342 85.9125 24.5324 85.9114 24.5307 85.9103C23.5427 85.7598 22.9508 85.752 22.4352 85.6622C21.8794 85.5626 21.4113 85.3687 20.7216 84.7823ZM9.55508 78.2897C7.38447 76.8728 7.65031 78.49 9.02831 80.2166C10.3886 81.9083 12.6755 82.9503 12.1006 82.113C12.0537 82.0396 10.9669 81.3348 10.1878 80.423C9.37912 79.5072 8.94596 78.4458 9.55508 78.2897ZM44.5783 88.2939C42.4872 87.9783 42.1595 89.2805 42.3072 89.7912C42.4571 90.303 43.9846 90.0123 44.1659 90.1116C44.7532 90.4415 43.4167 90.4364 44.178 90.8832C44.4308 91.0361 48.0765 91.9556 48.2622 91.9118C49.2438 91.6982 47.9851 90.4421 48.2701 90.3462C49.1942 90.0326 50.3212 90.7324 50.6394 90.1728C51.3182 88.9805 48.9621 90.0577 48.5842 90.0346C47.441 89.9657 47.6286 89.2739 46.8012 89.0335C45.9721 88.7919 45.3993 88.9652 44.6617 88.8205C44.4166 88.7722 44.6846 88.3121 44.5783 88.2939ZM37.1979 90.0854C39.5561 89.4448 34.4013 87.4684 33.7439 87.5636C31.7498 87.9094 36.0426 90.406 37.1979 90.0854ZM22.2534 42.8657C21.741 44.9082 24.8072 41.4969 25.5745 40.4473C25.1819 40.3545 22.4111 42.0915 22.2534 42.8657ZM16.6213 59.6792C17.6314 58.0291 15.2966 58.9404 14.0363 59.7868C13.9016 59.8817 13.7792 59.9846 13.6747 60.0934C13.794 61.2714 14.1194 60.9297 14.6472 60.4137C14.7697 60.2946 14.8984 60.166 15.0319 60.0388C15.8105 59.2654 15.6587 61.0577 16.6213 59.6792ZM67.5258 91.7098C67.1115 91.651 60.5069 92.0182 64.2311 92.6984C64.4947 92.7449 69.1163 92.9762 69.4613 92.8481C70.2002 92.5762 68.5639 91.8465 67.5258 91.7098ZM12.5656 67.1945C12.1508 66.0043 12.6895 65.2299 11.2939 65.3449C11.2933 65.3459 11.2926 65.347 11.2919 65.348C12.3263 63.1551 14.2527 64.5292 14.4905 64.1288C15.4487 62.7416 13.1702 62.9106 13.5136 61.7193C12.1686 64.0515 11.8122 62.7808 10.5678 64.4506C10.2768 64.8294 9.94049 66.7577 10.2221 67.1537C10.4793 67.548 11.9447 67.317 12.5656 67.1945ZM76.8046 92.5916C76.5855 92.5169 76.3856 92.4657 76.2086 92.435C74.251 92.1129 72.7983 93.1681 75.5084 93.7983C75.6585 93.8365 75.8023 93.8599 75.9386 93.8706C77.0384 93.935 77.9799 92.9535 76.8046 92.5916ZM125.127 13.8306C124.749 13.4719 124.357 13.1164 123.948 12.7647C124.745 12.5722 125.549 12.3758 126.349 12.1786C125.728 12.3822 125.08 12.5863 124.463 12.786C125.989 12.7441 126.801 13.38 125.131 13.8301C125.13 13.8302 125.128 13.8304 125.127 13.8306ZM178.045 14.112C178.575 14.6548 180.158 13.8829 180.03 13.748C179.019 12.709 177.293 13.3538 178.045 14.112ZM26.8265 42.9201C28.4572 41.4215 26.0012 41.136 24.937 42.1849C25.775 41.7755 25.9447 43.7932 26.8265 42.9201ZM159.634 10.5526C159.435 10.3623 159.234 10.173 159.004 9.98236C159.751 10.2908 159.866 10.4657 159.634 10.5526ZM66.6243 89.9089C66.2548 89.7268 63.3726 89.3671 62.9839 89.5209C62.1477 89.8423 64.2985 91.0945 65.6412 90.8744C65.7958 90.8514 66.9952 90.0899 66.6183 89.9084C66.6203 89.9086 66.6223 89.9087 66.6243 89.9089ZM128.66 14.1483C128.653 14.1304 128.653 14.1125 128.659 14.0952C128.659 14.1128 128.662 14.1305 128.66 14.1483ZM221.686 47.3174C221.697 47.2858 221.713 47.2591 221.734 47.2399C221.719 47.2638 221.706 47.2929 221.686 47.3174ZM46.7468 86.3921C46.0407 84.4425 43.7872 85.1445 45.3604 86.2702C45.4502 86.3306 46.5177 86.3615 46.7468 86.3921Z" fill="#E8DCCD"/>
<path d="M51.0764 50.7295C51.0139 49.417 50.9123 48.1201 50.7717 46.8389C50.6311 45.542 50.4748 44.2451 50.3029 42.9482C50.2717 42.6826 50.3029 42.4482 50.3967 42.2451C50.5061 42.0264 50.6936 41.8779 50.9592 41.7998C51.1779 41.7373 51.4123 41.7686 51.6623 41.8936C51.9279 42.0029 52.0764 42.1904 52.1076 42.4561C52.2795 43.7217 52.4357 44.9795 52.5764 46.2295C52.717 47.4795 52.8264 48.7451 52.9045 50.0264C53.0451 49.9795 53.1701 49.9639 53.2795 49.9795C53.9357 49.7451 54.5764 49.4717 55.2014 49.1592C55.8264 48.8311 56.4045 48.4482 56.9357 48.0107C57.3264 47.6826 57.6623 47.3311 57.9436 46.9561C58.2404 46.5811 58.5061 46.167 58.7404 45.7139C58.9592 45.2607 59.1857 44.8154 59.4201 44.3779C59.6701 43.9248 59.967 43.5107 60.3107 43.1357C60.5139 42.917 60.7326 42.8232 60.967 42.8545C61.217 42.8701 61.4201 42.9639 61.5764 43.1357C61.7482 43.292 61.8498 43.4951 61.8811 43.7451C61.9279 43.9951 61.8498 44.2295 61.6467 44.4482C61.2873 44.8545 60.9982 45.2998 60.7795 45.7842C60.5607 46.2686 60.3186 46.7373 60.0529 47.1904C59.5373 48.0654 58.8654 48.8389 58.0373 49.5107C57.6154 49.8389 57.1779 50.1436 56.7248 50.4248C56.2717 50.6904 55.8029 50.9326 55.3186 51.1514C55.6467 51.3389 55.9592 51.5498 56.2561 51.7842C56.5686 52.0029 56.8498 52.2686 57.0998 52.5811C57.3811 52.9404 57.6467 53.3154 57.8967 53.7061C58.1467 54.0811 58.4279 54.4482 58.7404 54.8076C59.0373 55.1201 59.342 55.4248 59.6545 55.7217C59.967 56.0029 60.2795 56.292 60.592 56.5889C60.8107 56.792 60.9045 57.0186 60.8732 57.2686C60.842 57.5029 60.7404 57.7061 60.5686 57.8779C60.4123 58.0342 60.2092 58.1357 59.9592 58.1826C59.7092 58.2139 59.4748 58.1279 59.2561 57.9248C58.9436 57.6279 58.6311 57.3311 58.3186 57.0342C58.0061 56.7373 57.7092 56.4326 57.4279 56.1201C57.1154 55.7764 56.8342 55.4248 56.5842 55.0654C56.3342 54.6904 56.0764 54.3232 55.8107 53.9639C55.467 53.4951 55.0529 53.1279 54.5686 52.8623C54.0842 52.5811 53.5998 52.292 53.1154 51.9951C53.0217 52.417 52.9748 52.8154 52.9748 53.1904C52.9748 53.5654 52.967 53.9404 52.9514 54.3154C52.9357 54.9717 52.9201 55.6201 52.9045 56.2607C52.9045 56.9014 52.9592 57.5498 53.0686 58.2061C53.0998 58.4561 53.0607 58.6904 52.9514 58.9092C52.8576 59.1279 52.6779 59.2764 52.4123 59.3545C52.1936 59.417 51.9592 59.3857 51.7092 59.2607C51.4592 59.1357 51.3107 58.9482 51.2639 58.6982C51.0764 57.5732 50.9982 56.4404 51.0295 55.2998C51.0764 54.1436 51.0998 52.9951 51.0998 51.8545C50.9279 51.5576 50.9201 51.2529 51.0764 50.9404V50.7295ZM69.742 47.8936C70.242 47.8311 70.7654 47.8154 71.3123 47.8467C71.8592 47.8623 72.3826 47.9561 72.8826 48.1279C73.3826 48.2842 73.8357 48.5264 74.242 48.8545C74.6482 49.1826 74.9607 49.6123 75.1795 50.1436C75.3357 50.5186 75.4139 50.9014 75.4139 51.292C75.4295 51.667 75.3748 52.0342 75.2498 52.3936C75.1404 52.7373 74.9686 53.0732 74.7342 53.4014C74.5154 53.7139 74.2576 54.0029 73.9607 54.2686C73.3201 54.8467 72.617 55.3389 71.8514 55.7451C71.0857 56.1514 70.2811 56.4639 69.4373 56.6826C69.0779 56.7764 68.7029 56.8623 68.3123 56.9404C67.9373 57.0029 67.5545 57.0342 67.1639 57.0342C66.7732 57.0342 66.3904 56.9951 66.0154 56.917C65.6404 56.8232 65.2889 56.6748 64.9607 56.4717C64.7264 56.3311 64.5857 56.1436 64.5389 55.9092C64.4451 55.6436 64.3436 55.3936 64.2342 55.1592C64.1248 54.9248 64.0154 54.6826 63.9061 54.4326C63.8123 54.1826 63.7342 53.9326 63.6717 53.6826C63.6092 53.4326 63.5779 53.1748 63.5779 52.9092C63.5779 52.3779 63.6873 51.8779 63.9061 51.4092C64.1404 50.9248 64.4529 50.5029 64.8436 50.1436C65.4998 49.5186 66.2576 49.0186 67.117 48.6436C67.9764 48.2686 68.8514 48.0186 69.742 47.8936ZM72.3904 49.9092C71.9686 49.7529 71.5154 49.6748 71.0311 49.6748C70.5154 49.6592 69.9998 49.7139 69.4842 49.8389C68.9686 49.9482 68.4764 50.1045 68.0076 50.3076C67.5701 50.4795 67.117 50.7217 66.6482 51.0342C66.1951 51.3311 65.8592 51.6982 65.6404 52.1357C65.5154 52.3701 65.4529 52.6123 65.4529 52.8623C65.4686 53.0967 65.5076 53.3389 65.5701 53.5889C65.6482 53.8232 65.742 54.0654 65.8514 54.3154C65.9764 54.5498 66.0857 54.7842 66.1795 55.0186C66.4295 55.0811 66.5857 55.1123 66.6482 55.1123C66.6795 55.1279 66.7186 55.1357 66.7654 55.1357C66.8123 55.1357 66.8514 55.1357 66.8826 55.1357C67.1951 55.167 67.4764 55.1592 67.7264 55.1123C67.8982 55.1123 68.117 55.0811 68.3826 55.0186C68.7889 54.9404 69.1795 54.8389 69.5545 54.7139C69.9295 54.5732 70.2732 54.4248 70.5857 54.2686C70.9451 54.0967 71.2967 53.9092 71.6404 53.7061C71.9842 53.5029 72.2732 53.292 72.5076 53.0732C72.6639 52.9326 72.8123 52.7842 72.9529 52.6279C73.0311 52.5498 73.0857 52.4873 73.117 52.4404C73.1951 52.3311 73.2576 52.2529 73.3045 52.2061C73.3514 52.1436 73.3904 52.0732 73.4217 51.9951C73.4842 51.8857 73.5154 51.7998 73.5154 51.7373C73.5311 51.7061 73.5389 51.667 73.5389 51.6201C73.5545 51.5732 73.5701 51.5342 73.5857 51.5029V51.2451C73.5701 51.1826 73.5623 51.1357 73.5623 51.1045C73.5623 51.0732 73.5545 51.042 73.5389 51.0107C73.492 50.9014 73.4451 50.8232 73.3982 50.7764C73.367 50.7139 73.3279 50.6514 73.2811 50.5889C73.2967 50.6045 73.2732 50.5811 73.2107 50.5186C73.1639 50.4561 73.1326 50.417 73.117 50.4014L72.9295 50.2139C72.8514 50.167 72.7654 50.1123 72.6717 50.0498C72.5779 49.9873 72.4842 49.9404 72.3904 49.9092ZM79.4076 56.4482C79.4076 55.7764 79.4545 55.0967 79.5482 54.4092C79.6576 53.5811 79.767 52.7607 79.8764 51.9482C79.9857 51.1201 80.0326 50.2842 80.017 49.4404C80.017 49.1436 80.1107 48.917 80.2982 48.7607C80.4857 48.6045 80.6967 48.5264 80.9311 48.5264C81.1654 48.5264 81.3842 48.6045 81.5873 48.7607C81.7904 48.917 81.892 49.1436 81.892 49.4404C82.5014 49.3936 83.0795 49.3701 83.6264 49.3701C84.2514 49.3857 84.7826 49.5654 85.2201 49.9092C85.6576 50.2529 85.9857 50.7139 86.2045 51.292C86.392 51.8232 86.5014 52.3701 86.5326 52.9326C86.5639 53.4951 86.5873 54.0576 86.6029 54.6201C86.6186 55.417 86.642 56.2139 86.6732 57.0107C86.7045 57.792 86.7201 58.5811 86.7201 59.3779C86.7201 59.6904 86.6186 59.917 86.4154 60.0576C86.2279 60.2139 86.017 60.292 85.7826 60.292C85.5639 60.292 85.3529 60.2139 85.1498 60.0576C84.9623 59.917 84.8686 59.6904 84.8686 59.3779C84.8686 58.6279 84.8529 57.8936 84.8217 57.1748C84.8061 56.4561 84.7826 55.7217 84.7514 54.9717C84.7201 54.5654 84.7045 54.1514 84.7045 53.7295C84.7201 53.292 84.6889 52.8936 84.6107 52.5342C84.5639 52.3154 84.517 52.1279 84.4701 51.9717C84.4232 51.7998 84.3373 51.6357 84.2123 51.4795C84.1811 51.417 84.1107 51.3623 84.0014 51.3154C83.9076 51.2686 83.8217 51.2451 83.7436 51.2451C83.5092 51.2451 83.2904 51.2607 83.0873 51.292C82.8842 51.3232 82.6732 51.3701 82.4545 51.4326C82.3607 51.4639 82.267 51.4951 82.1732 51.5264C82.0795 51.5576 81.9936 51.5967 81.9154 51.6436C81.7592 52.2061 81.642 52.7451 81.5639 53.2607C81.5014 53.7607 81.4389 54.2686 81.3764 54.7842C81.3295 55.1592 81.2982 55.542 81.2826 55.9326C81.2826 56.3076 81.267 56.6826 81.2357 57.0576C81.2201 57.4326 81.1732 57.8076 81.0951 58.1826C81.0326 58.5576 80.9154 58.917 80.7436 59.2607C80.6029 59.5264 80.4154 59.6748 80.1811 59.7061C79.9467 59.7529 79.7279 59.7139 79.5248 59.5889C79.3373 59.4795 79.1889 59.3076 79.0795 59.0732C78.9857 58.8389 79.0014 58.5889 79.1264 58.3232C79.267 58.042 79.3451 57.7373 79.3607 57.4092C79.3764 57.0811 79.392 56.7607 79.4076 56.4482ZM91.5811 64.6982C91.9248 65.0264 92.3232 65.2529 92.7764 65.3779C93.2295 65.5186 93.6826 65.5654 94.1357 65.5186C94.5889 65.4717 95.0186 65.3389 95.4248 65.1201C95.8311 64.9014 96.167 64.5967 96.4326 64.2061C96.9951 63.4092 97.3545 62.5264 97.5107 61.5576C97.6826 60.6045 97.7529 59.6436 97.7217 58.6748C96.9717 58.7998 96.1982 58.8232 95.4014 58.7451C94.6201 58.6826 93.8779 58.5186 93.1748 58.2529C92.8154 58.1123 92.4717 57.9482 92.1436 57.7607C91.8311 57.5576 91.5811 57.2764 91.3936 56.917C91.0654 56.3076 90.9248 55.6357 90.9717 54.9014C91.0029 54.1982 91.1201 53.5186 91.3232 52.8623C91.542 52.1904 91.7842 51.5264 92.0498 50.8701C92.1904 50.5576 92.3389 50.2295 92.4951 49.8857C92.667 49.5264 92.8857 49.2061 93.1514 48.9248C93.417 48.6279 93.7217 48.4014 94.0654 48.2451C94.4092 48.0889 94.7764 47.9951 95.167 47.9639C95.1045 47.7451 95.1045 47.542 95.167 47.3545C95.2295 47.1514 95.3623 46.9873 95.5654 46.8623C95.7686 46.7373 96.0029 46.7061 96.2686 46.7686C96.5498 46.8311 96.7451 46.9717 96.8545 47.1904C96.917 47.3311 96.9717 47.4717 97.0186 47.6123C97.0811 47.7529 97.1357 47.8936 97.1826 48.0342C97.4951 48.8779 97.7764 49.7295 98.0264 50.5889C98.292 51.4482 98.542 52.3154 98.7764 53.1904C99.0576 54.2217 99.2686 55.2686 99.4092 56.3311C99.5498 57.3936 99.6045 58.4717 99.5732 59.5654C99.5576 60.1748 99.5029 60.7998 99.4092 61.4404C99.3311 62.0811 99.1904 62.6982 98.9873 63.292C98.7842 63.8857 98.5186 64.4482 98.1904 64.9795C97.8623 65.5264 97.4404 65.9951 96.9248 66.3857C96.4404 66.7607 95.9014 67.0264 95.3076 67.1826C94.7295 67.3545 94.1357 67.4248 93.5264 67.3936C92.9326 67.3623 92.3467 67.2295 91.7686 66.9951C91.2061 66.7607 90.7061 66.4326 90.2686 66.0107C90.0498 65.8076 89.9561 65.5811 89.9873 65.3311C90.0186 65.0967 90.1201 64.8936 90.292 64.7217C90.4482 64.5654 90.6436 64.4717 90.8779 64.4404C91.1279 64.4092 91.3623 64.4951 91.5811 64.6982ZM94.1826 56.6123C94.7295 56.7529 95.292 56.8545 95.8701 56.917C96.4639 56.9639 97.0342 56.9248 97.5811 56.7998C97.4873 56.0029 97.3467 55.2373 97.1592 54.5029C96.9873 53.7686 96.792 53.0264 96.5732 52.2764C96.4482 51.8389 96.3154 51.4092 96.1748 50.9873C96.0498 50.5654 95.917 50.1436 95.7764 49.7217C95.7295 49.7529 95.6748 49.7764 95.6123 49.792C95.5498 49.792 95.4795 49.7998 95.4014 49.8154C94.9326 49.8154 94.5732 50.0264 94.3232 50.4482C94.1514 50.7139 94.0107 50.9951 93.9014 51.292C93.8701 51.3701 93.8389 51.4482 93.8076 51.5264C93.7764 51.5889 93.7451 51.6592 93.7139 51.7373C93.4795 52.2998 93.2764 52.8467 93.1045 53.3779C92.9482 53.8936 92.8545 54.4014 92.8232 54.9014V55.3232C92.8389 55.4326 92.8545 55.5186 92.8701 55.5811C92.9014 55.7217 92.917 55.8076 92.917 55.8389C92.9326 55.8701 92.9795 55.9482 93.0576 56.0732C93.1514 56.1514 93.2373 56.2139 93.3154 56.2607C93.3936 56.3076 93.4404 56.3389 93.4561 56.3545C93.5811 56.4014 93.6982 56.4482 93.8076 56.4951C93.9326 56.542 94.0576 56.5811 94.1826 56.6123ZM104.34 49.6045C104.637 49.1982 104.989 48.8389 105.395 48.5264C105.817 48.2139 106.262 47.9717 106.731 47.7998C107.2 47.6123 107.684 47.5186 108.184 47.5186C108.684 47.5029 109.184 47.5967 109.684 47.7998C110.169 47.9873 110.606 48.2451 110.997 48.5732C111.387 48.8857 111.692 49.292 111.911 49.792C112.083 50.167 112.184 50.5732 112.215 51.0107C112.247 51.4482 112.129 51.8467 111.864 52.2061C111.629 52.5342 111.34 52.7842 110.997 52.9561C110.669 53.1279 110.309 53.2529 109.919 53.3311C109.544 53.4092 109.153 53.4482 108.747 53.4482C108.356 53.4482 107.981 53.4404 107.622 53.4248C107.215 53.4092 106.809 53.3779 106.403 53.3311C106.012 53.2842 105.614 53.2373 105.208 53.1904C105.333 53.8936 105.583 54.5186 105.958 55.0654C106.333 55.6123 106.84 56.0264 107.481 56.3076C107.653 56.3701 107.786 56.417 107.879 56.4482C107.926 56.4639 107.965 56.4795 107.997 56.4951C108.044 56.4951 108.09 56.4951 108.137 56.4951C108.262 56.5107 108.364 56.5264 108.442 56.542C108.536 56.542 108.622 56.5342 108.7 56.5186C108.809 56.5029 108.879 56.4951 108.911 56.4951C108.958 56.4795 109.004 56.4639 109.051 56.4482C109.223 56.4014 109.372 56.3467 109.497 56.2842C109.637 56.2217 109.801 56.1201 109.989 55.9795C110.083 55.9014 110.208 55.7842 110.364 55.6279C110.52 55.4717 110.653 55.3311 110.762 55.2061C110.919 54.9873 111.106 54.8389 111.325 54.7607C111.559 54.6826 111.794 54.7139 112.028 54.8545C112.231 54.9795 112.372 55.1748 112.45 55.4404C112.544 55.6904 112.512 55.9248 112.356 56.1436C111.903 56.7529 111.364 57.2764 110.739 57.7139C110.129 58.1357 109.426 58.3623 108.629 58.3936C107.989 58.4248 107.372 58.3154 106.778 58.0654C106.184 57.7998 105.661 57.4482 105.208 57.0107C104.645 56.4639 104.2 55.8311 103.872 55.1123C103.544 54.3936 103.364 53.6592 103.333 52.9092C103.192 52.7998 103.083 52.667 103.004 52.5107C102.942 52.3389 102.919 52.167 102.934 51.9951C102.965 51.8232 103.028 51.667 103.122 51.5264C103.215 51.3701 103.356 51.2686 103.544 51.2217C103.715 50.6436 103.981 50.1045 104.34 49.6045ZM109.965 50.167C109.794 49.9482 109.528 49.7529 109.169 49.5811C108.872 49.4561 108.52 49.3936 108.114 49.3936C107.723 49.3936 107.387 49.4639 107.106 49.6045C106.747 49.7764 106.426 50.0186 106.145 50.3311C105.864 50.6279 105.637 50.9639 105.465 51.3389C105.84 51.3857 106.215 51.4326 106.59 51.4795C106.965 51.5264 107.34 51.5576 107.715 51.5732C107.919 51.5732 108.122 51.5732 108.325 51.5732C108.528 51.5732 108.731 51.5654 108.934 51.5498C108.997 51.5498 109.051 51.5498 109.098 51.5498C109.161 51.5342 109.223 51.5264 109.286 51.5264C109.426 51.4951 109.528 51.4795 109.59 51.4795C109.669 51.4639 109.747 51.4404 109.825 51.4092C109.887 51.3936 109.965 51.3701 110.059 51.3389C110.137 51.3076 110.184 51.2842 110.2 51.2686C110.215 51.2529 110.239 51.2373 110.27 51.2217L110.34 50.9404C110.309 50.8779 110.286 50.8232 110.27 50.7764C110.27 50.7139 110.254 50.6592 110.223 50.6123C110.208 50.5654 110.169 50.4951 110.106 50.4014C110.059 50.3076 110.012 50.2295 109.965 50.167ZM117.451 53.4951C117.045 53.1982 116.756 52.8311 116.584 52.3936C116.412 51.9404 116.404 51.4639 116.561 50.9639C116.717 50.5107 116.959 50.1045 117.287 49.7451C117.615 49.3857 117.99 49.0967 118.412 48.8779C118.881 48.6279 119.381 48.4326 119.912 48.292C120.444 48.1514 120.983 48.0732 121.529 48.0576C122.076 48.042 122.615 48.0967 123.147 48.2217C123.694 48.3311 124.209 48.5107 124.694 48.7607C124.959 48.9014 125.108 49.0889 125.139 49.3232C125.17 49.5576 125.123 49.7764 124.998 49.9795C124.889 50.1826 124.717 50.3311 124.483 50.4248C124.248 50.5186 123.998 50.4951 123.733 50.3545C123.358 50.1514 122.936 50.0186 122.467 49.9561C121.998 49.8936 121.522 49.8936 121.037 49.9561C120.569 50.0029 120.123 50.1201 119.701 50.3076C119.279 50.4951 118.928 50.7373 118.647 51.0342C118.569 51.1123 118.514 51.167 118.483 51.1982C118.467 51.2295 118.436 51.2998 118.389 51.4092L118.342 51.667C118.389 51.8076 118.428 51.8936 118.459 51.9248C118.772 52.1279 119.092 52.2607 119.42 52.3232C119.764 52.3701 120.108 52.4014 120.451 52.417C120.936 52.4482 121.428 52.4795 121.928 52.5107C122.444 52.5264 122.936 52.5889 123.404 52.6982C123.889 52.8076 124.334 52.9873 124.74 53.2373C125.147 53.4873 125.49 53.8545 125.772 54.3389C126.084 54.8857 126.225 55.4561 126.194 56.0498C126.178 56.6279 125.951 57.1514 125.514 57.6201C125.076 58.0889 124.569 58.417 123.99 58.6045C123.412 58.7764 122.826 58.9014 122.233 58.9795C121.701 59.042 121.147 59.0576 120.569 59.0264C120.006 58.9951 119.459 58.9014 118.928 58.7451C118.412 58.6045 117.928 58.3857 117.475 58.0889C117.022 57.7764 116.647 57.3701 116.35 56.8701C116.209 56.6201 116.186 56.3857 116.279 56.167C116.373 55.9326 116.514 55.7607 116.701 55.6514C116.904 55.5264 117.123 55.4795 117.358 55.5107C117.608 55.542 117.811 55.6826 117.967 55.9326C118.186 56.292 118.49 56.5654 118.881 56.7529C119.272 56.9404 119.694 57.0732 120.147 57.1514C120.615 57.2139 121.084 57.2295 121.553 57.1982C122.022 57.1514 122.444 57.0889 122.819 57.0107C123.022 56.9639 123.225 56.9014 123.428 56.8232C123.647 56.7295 123.826 56.6201 123.967 56.4951C124.123 56.3701 124.233 56.2295 124.295 56.0732C124.358 55.9014 124.35 55.7139 124.272 55.5107C124.115 55.1201 123.85 54.8389 123.475 54.667C123.115 54.4951 122.733 54.3936 122.326 54.3623C121.92 54.3311 121.506 54.3154 121.084 54.3154C120.662 54.3154 120.24 54.2998 119.819 54.2686C119.397 54.2217 118.983 54.1436 118.576 54.0342C118.17 53.9248 117.795 53.7451 117.451 53.4951ZM144.751 52.2764C144.376 51.8857 143.978 51.5264 143.556 51.1982C143.134 50.8545 142.712 50.5186 142.29 50.1904C141.884 49.8467 141.486 49.4951 141.095 49.1357C140.704 48.7607 140.345 48.3545 140.017 47.917C139.673 47.4639 139.4 46.9717 139.197 46.4404C139.009 45.8936 138.978 45.3311 139.103 44.7529C139.228 44.1279 139.533 43.5811 140.017 43.1123C140.501 42.6436 141.025 42.2764 141.587 42.0107C142.197 41.7451 142.814 41.5654 143.439 41.4717C144.064 41.3623 144.697 41.2998 145.337 41.2842C145.978 41.2529 146.619 41.2529 147.259 41.2842C147.915 41.2998 148.564 41.292 149.204 41.2607C149.501 41.2451 149.72 41.3311 149.861 41.5186C150.017 41.7061 150.095 41.917 150.095 42.1514C150.095 42.3857 150.017 42.6045 149.861 42.8076C149.72 42.9951 149.501 43.0967 149.204 43.1123C148.751 43.1436 148.298 43.1592 147.845 43.1592C147.408 43.1436 146.962 43.1279 146.509 43.1123C145.9 43.0967 145.283 43.1045 144.658 43.1357C144.048 43.167 143.447 43.292 142.853 43.5107C142.65 43.5889 142.431 43.6904 142.197 43.8154C141.962 43.9248 141.744 44.0654 141.54 44.2373C141.353 44.4092 141.197 44.5967 141.072 44.7998C140.947 45.0029 140.892 45.2217 140.908 45.4561C140.923 45.6748 140.978 45.8936 141.072 46.1123C141.165 46.3154 141.283 46.5186 141.423 46.7217C141.579 46.9248 141.744 47.1201 141.915 47.3076C142.087 47.4951 142.251 47.667 142.408 47.8232C142.767 48.1826 143.142 48.5107 143.533 48.8076C143.923 49.1045 144.314 49.4092 144.704 49.7217C145.111 50.0498 145.517 50.417 145.923 50.8232C146.345 51.2139 146.704 51.6436 147.001 52.1123C147.314 52.5654 147.54 53.0498 147.681 53.5654C147.837 54.0811 147.861 54.6279 147.751 55.2061C147.642 55.7529 147.431 56.2217 147.119 56.6123C146.822 56.9873 146.462 57.3311 146.04 57.6436C145.634 57.9404 145.197 58.2139 144.728 58.4639C144.275 58.6982 143.837 58.9404 143.415 59.1904C143.15 59.3467 142.9 59.3779 142.665 59.2842C142.447 59.1904 142.275 59.042 142.15 58.8389C142.04 58.6357 141.994 58.417 142.009 58.1826C142.04 57.9326 142.189 57.7295 142.454 57.5732C142.829 57.3545 143.204 57.1514 143.579 56.9639C143.954 56.7764 144.322 56.5654 144.681 56.3311C145.025 56.1123 145.322 55.8545 145.572 55.5576C145.837 55.2451 145.97 54.8857 145.97 54.4795C145.954 54.0732 145.822 53.6826 145.572 53.3076C145.337 52.9326 145.064 52.5889 144.751 52.2764ZM153.925 40.2998C154.206 40.2998 154.425 40.3936 154.581 40.5811C154.737 40.7686 154.831 40.9873 154.862 41.2373C155.019 42.7217 155.104 44.2061 155.12 45.6904C155.136 47.1748 155.112 48.6592 155.05 50.1436C155.003 51.6279 154.925 53.1123 154.815 54.5967C154.706 56.0811 154.597 57.5576 154.487 59.0264C154.456 59.292 154.354 59.5107 154.183 59.6826C154.026 59.8701 153.815 59.9639 153.55 59.9639C153.315 59.9639 153.097 59.8701 152.894 59.6826C152.69 59.5107 152.597 59.292 152.612 59.0264C152.722 57.5576 152.831 56.0811 152.94 54.5967C153.065 53.1123 153.151 51.6279 153.198 50.1436C153.261 48.6592 153.284 47.1748 153.269 45.6904C153.253 44.2061 153.167 42.7217 153.011 41.2373C152.979 40.9873 153.065 40.7686 153.269 40.5811C153.472 40.3936 153.69 40.2998 153.925 40.2998ZM167.95 47.917C168.622 48.042 169.239 48.2764 169.801 48.6201C170.364 48.9639 170.786 49.4717 171.067 50.1436C171.223 50.5186 171.301 50.9014 171.301 51.292C171.317 51.667 171.262 52.0342 171.137 52.3936C171.028 52.7373 170.856 53.0732 170.622 53.4014C170.403 53.7139 170.145 54.0029 169.848 54.2686C169.208 54.8467 168.504 55.3389 167.739 55.7451C166.973 56.1514 166.169 56.4639 165.325 56.6826C165.137 56.7295 164.942 56.7764 164.739 56.8232C164.536 56.8701 164.325 56.9092 164.106 56.9404C163.762 57.5498 163.379 58.1279 162.958 58.6748C162.536 59.2061 162.036 59.6748 161.458 60.0811C161.239 60.2217 160.997 60.2529 160.731 60.1748C160.481 60.0967 160.294 59.9482 160.169 59.7295C160.044 59.4951 160.012 59.2607 160.075 59.0264C160.153 58.8076 160.301 58.6201 160.52 58.4639C160.801 58.2607 161.059 58.0264 161.294 57.7607C161.528 57.4951 161.747 57.2139 161.95 56.917C161.559 56.8232 161.192 56.6748 160.848 56.4717C160.614 56.3311 160.473 56.1436 160.426 55.9092C160.333 55.6436 160.231 55.3936 160.122 55.1592C160.012 54.9248 159.903 54.6826 159.794 54.4326C159.7 54.1826 159.622 53.9326 159.559 53.6826C159.497 53.4326 159.465 53.1748 159.465 52.9092C159.465 52.3779 159.575 51.8779 159.794 51.4092C160.028 50.9248 160.34 50.5029 160.731 50.1436C161.387 49.5186 162.145 49.0186 163.004 48.6436C163.864 48.2686 164.739 48.0186 165.629 47.8936C165.676 47.8936 165.723 47.8936 165.77 47.8936C165.817 47.8779 165.872 47.8701 165.934 47.8701C166.153 47.3232 166.395 46.7998 166.661 46.2998C166.942 45.7998 167.286 45.3467 167.692 44.9404C167.895 44.7217 168.114 44.6279 168.348 44.6592C168.598 44.6904 168.801 44.792 168.958 44.9639C169.129 45.1201 169.231 45.3232 169.262 45.5732C169.294 45.8076 169.208 46.0342 169.004 46.2529C168.77 46.4873 168.567 46.7451 168.395 47.0264C168.223 47.3076 168.075 47.6045 167.95 47.917ZM162.934 55.1592C163.2 54.6279 163.45 54.0967 163.684 53.5654C163.919 53.0342 164.161 52.5107 164.411 51.9951C164.567 51.6514 164.708 51.2998 164.833 50.9404C164.973 50.5811 165.106 50.2217 165.231 49.8623C164.997 49.9248 164.77 49.9951 164.551 50.0732C164.333 50.1357 164.114 50.2139 163.895 50.3076C163.458 50.4795 163.004 50.7217 162.536 51.0342C162.083 51.3311 161.747 51.6982 161.528 52.1357C161.403 52.3701 161.34 52.6123 161.34 52.8623C161.356 53.0967 161.395 53.3389 161.458 53.5889C161.536 53.8232 161.629 54.0654 161.739 54.3154C161.864 54.5498 161.973 54.7842 162.067 55.0186C162.317 55.0811 162.473 55.1123 162.536 55.1123C162.567 55.1279 162.606 55.1357 162.653 55.1357C162.7 55.1357 162.739 55.1357 162.77 55.1357L162.934 55.1592ZM169.473 51.2451C169.458 51.1826 169.45 51.1357 169.45 51.1045C169.45 51.0732 169.442 51.042 169.426 51.0107C169.379 50.9014 169.333 50.8232 169.286 50.7764C169.254 50.7139 169.215 50.6514 169.169 50.5889C169.184 50.6045 169.161 50.5811 169.098 50.5186C169.051 50.4561 169.02 50.417 169.004 50.4014L168.817 50.2139C168.739 50.167 168.653 50.1123 168.559 50.0498C168.465 49.9873 168.372 49.9404 168.278 49.9092C167.981 49.7998 167.653 49.7217 167.294 49.6748C167.059 50.3467 166.817 50.9873 166.567 51.5967C166.333 52.1904 166.075 52.792 165.794 53.4014C165.7 53.6201 165.598 53.8467 165.489 54.0811C165.395 54.3154 165.294 54.5498 165.184 54.7842C165.419 54.7061 165.645 54.6279 165.864 54.5498C166.083 54.4561 166.286 54.3623 166.473 54.2686C166.833 54.0967 167.184 53.9092 167.528 53.7061C167.872 53.5029 168.161 53.292 168.395 53.0732C168.551 52.9326 168.7 52.7842 168.84 52.6279C168.919 52.5498 168.973 52.4873 169.004 52.4404C169.083 52.3311 169.145 52.2529 169.192 52.2061C169.239 52.1436 169.278 52.0732 169.309 51.9951C169.372 51.8857 169.403 51.7998 169.403 51.7373C169.419 51.7061 169.426 51.667 169.426 51.6201C169.442 51.5732 169.458 51.5342 169.473 51.5029V51.2451ZM169.108 65.4014C168.873 65.1982 168.772 64.9795 168.803 64.7451C168.834 64.5107 168.936 64.3076 169.108 64.1357C169.264 63.9795 169.467 63.8779 169.717 63.8311C169.967 63.7998 170.201 63.8857 170.42 64.0889C171.045 64.6357 171.787 65.0732 172.647 65.4014C173.49 65.7295 174.334 65.8545 175.178 65.7764C175.49 65.7451 175.795 65.667 176.092 65.542C176.404 65.417 176.647 65.2217 176.819 64.9561C177.037 64.6436 177.178 64.3076 177.24 63.9482C177.319 63.5889 177.365 63.2217 177.381 62.8467C177.397 61.7998 177.272 60.7607 177.006 59.7295C176.756 58.7139 176.514 57.6982 176.279 56.6826C176.014 55.5732 175.795 54.4561 175.623 53.3311C175.451 52.2061 175.428 51.0811 175.553 49.9561C175.584 49.6904 175.678 49.4717 175.834 49.2998C175.99 49.1123 176.209 49.0186 176.49 49.0186C176.725 49.0186 176.944 49.1123 177.147 49.2998C177.365 49.4717 177.459 49.6904 177.428 49.9561C177.303 51.2217 177.35 52.4717 177.569 53.7061C177.803 54.9404 178.069 56.1748 178.365 57.4092C178.506 57.9561 178.639 58.5186 178.764 59.0967C178.904 59.6748 179.014 60.2529 179.092 60.8311C179.186 61.4248 179.233 62.0107 179.233 62.5889C179.248 63.1826 179.194 63.7607 179.069 64.3232C178.959 64.8232 178.779 65.2842 178.529 65.7061C178.295 66.1436 177.975 66.5186 177.569 66.8311C177.178 67.1279 176.733 67.3389 176.233 67.4639C175.748 67.6045 175.264 67.6748 174.779 67.6748C173.733 67.6592 172.717 67.4482 171.733 67.042C170.748 66.6357 169.873 66.0889 169.108 65.4014ZM176.069 46.3467C175.897 46.2373 175.772 46.0967 175.694 45.9248C175.615 45.7529 175.592 45.5732 175.623 45.3857C175.592 44.9951 175.67 44.7139 175.858 44.542C176.061 44.3545 176.287 44.2607 176.537 44.2607C176.615 44.2607 176.686 44.2607 176.748 44.2607C176.826 44.2607 176.904 44.2764 176.983 44.3076C177.029 44.3232 177.069 44.3389 177.1 44.3545C177.147 44.3701 177.194 44.3857 177.24 44.4014C177.522 44.4951 177.709 44.6436 177.803 44.8467C177.865 44.9404 177.904 45.0576 177.92 45.1982C177.951 45.3232 177.944 45.4404 177.897 45.5498C177.85 45.6904 177.803 45.8076 177.756 45.9014C177.678 46.1045 177.537 46.2607 177.334 46.3701C177.131 46.4795 176.92 46.5107 176.701 46.4639C176.451 46.4951 176.24 46.4561 176.069 46.3467ZM185.453 50.1436C186.015 49.7998 186.617 49.5029 187.258 49.2529C187.914 49.0029 188.578 48.8857 189.25 48.9014C189.187 47.5732 189.133 46.2529 189.086 44.9404C189.054 43.6279 189.031 42.3076 189.015 40.9795C189.015 40.6826 189.109 40.4639 189.297 40.3232C189.484 40.167 189.695 40.0889 189.929 40.0889C190.164 40.0889 190.375 40.167 190.562 40.3232C190.765 40.4639 190.867 40.6826 190.867 40.9795C190.883 42.5264 190.922 44.0811 190.984 45.6436C191.047 47.1904 191.109 48.7373 191.172 50.2842C191.234 51.8311 191.281 53.3857 191.312 54.9482C191.344 56.4951 191.336 58.042 191.289 59.5889C191.273 59.8857 191.164 60.1123 190.961 60.2686C190.758 60.4248 190.539 60.5029 190.304 60.5029C190.07 60.5029 189.859 60.4248 189.672 60.2686C189.484 60.1279 189.398 59.9014 189.414 59.5889C189.414 59.4795 189.414 59.3701 189.414 59.2607C189.414 59.1514 189.422 59.042 189.437 58.9326C189.281 58.917 189.125 58.9014 188.969 58.8857C188.828 58.8857 188.687 58.8857 188.547 58.8857C188.359 58.8857 188.172 58.8857 187.984 58.8857C187.797 58.8857 187.617 58.8779 187.445 58.8623C187.039 58.8311 186.633 58.792 186.226 58.7451C185.82 58.6982 185.422 58.6045 185.031 58.4639C184.64 58.3076 184.273 58.1201 183.929 57.9014C183.586 57.667 183.304 57.3623 183.086 56.9873C182.836 56.5967 182.625 56.1748 182.453 55.7217C182.297 55.2686 182.234 54.7998 182.265 54.3154C182.297 53.8311 182.406 53.3857 182.594 52.9795C182.781 52.5732 183.015 52.1982 183.297 51.8545C183.594 51.5107 183.922 51.1982 184.281 50.917C184.656 50.6357 185.047 50.3779 185.453 50.1436ZM189.461 57.0811C189.461 54.9873 189.414 52.8857 189.32 50.7764C188.804 50.7451 188.289 50.8389 187.773 51.0576C187.273 51.2607 186.812 51.4951 186.39 51.7607C186.156 51.9014 185.898 52.0654 185.617 52.2529C185.351 52.4248 185.101 52.6279 184.867 52.8623C184.648 53.0811 184.469 53.3232 184.328 53.5889C184.187 53.8545 184.117 54.1436 184.117 54.4561C184.133 54.7373 184.195 55.042 184.304 55.3701C184.414 55.6826 184.562 55.9404 184.75 56.1436C184.937 56.3467 185.148 56.5029 185.383 56.6123C185.617 56.7061 185.867 56.7842 186.133 56.8467C186.445 56.9092 186.742 56.9482 187.023 56.9639C187.32 56.9795 187.625 56.9951 187.937 57.0107C188.187 57.0107 188.437 57.0264 188.687 57.0576C188.937 57.0732 189.195 57.0811 189.461 57.0811Z" fill="#4A2F2C"/>
</svg>
