<svg width="40" height="40" viewBox="0 0 40 40" fill="none" xmlns="http://www.w3.org/2000/svg">
<path d="M8.97558 20.6523C8.97558 20.6523 8 20.7432 8 19.6951C8 18.6469 8.74144 18.6469 8.74144 18.6469L13 18M8.97558 20.6523H12.3316M8.97558 20.6523C8.97558 20.6523 9.01939 21.5617 9.14445 22.1269C9.27525 22.7182 9.64084 23.5924 9.64084 23.5924M31.1407 20.6523C31.1407 20.6523 31.9602 20.7432 31.9992 19.6951C32.0383 18.6469 30.5554 18.6469 30.5554 18.6469L27.5 18.3928L23 18M31.1407 20.6523C31.1407 20.6523 31.3149 22.1203 31.1407 23.0676M31.1407 20.6523L28.3727 20.6523M14.0876 32C15.3061 32 18.087 32 18.087 32M14.0876 32C12.8691 32 11.2312 30.5804 10.9658 29.4479C10.7003 28.3153 10.5618 27.6627 10.5618 27.6627M14.0876 32C14.0431 31.4227 14.1742 30.8664 14.0876 30.3264C13.9726 29.609 14.1743 28.9206 14.0192 28.2509M27.7282 32C29.096 32 28.9104 30.9973 29.3133 29.6633C29.7162 28.3294 29.9041 27.6627 29.9041 27.6627M27.7282 32C26.3604 32 26 32 26 32M27.7282 32L26 32M31.1407 23.0676C30.8775 25.0782 29.9041 27.6627 29.9041 27.6627M31.1407 23.0676C30.1313 23.1404 28.3419 23.2064 27.5 23.2658M9.64084 23.5924C10.6664 23.6162 12.1468 23.6869 13 23.7054M9.64084 23.5924C9.64084 23.5924 9.76218 24.9344 9.95847 25.7701C10.1361 26.5264 10.5618 27.6627 10.5618 27.6627M10.5618 27.6627C11.484 27.9142 13.0071 28.1074 14.0192 28.2509M29.9041 27.6627C29.1739 27.7733 27.5921 27.8989 26.7994 28M12.3316 20.6523C12.2421 21.6918 12.8547 22.7301 13 23.7054M12.3316 20.6523L14.0192 20.5H15.5L17.3525 20.6523M18.087 32H21.2789M18.087 32C17.7494 31.2205 18.0343 29.7239 17.873 28.2509M17.3525 20.6523C17.3525 21.6902 17.3247 22.6993 17.3525 23.7054M17.3525 20.6523C17.9033 20.6523 17.4216 20.6523 17.873 20.6523C18.9825 20.6523 20.6459 20.5 22 20.5M22 20.5L25.0921 20.6523C25.0921 20.6523 26.2863 20.4681 27.033 20.4637C27.7553 20.4594 28.3727 20.6523 28.3727 20.6523M22 20.5C22.1473 20.0004 22.3874 18.8089 23 18M22 20.5C22.0136 21.5862 21.989 22.7697 22 23.7054M21.2789 32H23.6093L26 32M21.2789 32C21.3407 31.8378 22.2514 30.4004 22.2431 28.2509M26 32C26.2155 31.4157 25.8375 30.9546 26 30.3264C26.1807 29.6282 26.6561 28.7743 26.7994 28M28.3727 20.6523C28.2133 21.5745 27.628 22.4434 27.5 23.2658M13 18C13 18 16.9066 18.1986 18.7181 18.2052C20.4168 18.2114 23 18 23 18M13 18C13.5378 16.9664 14.1686 16.5279 14.5293 15.4262C14.8019 14.5934 15.3562 13.7756 15.6755 12.826C16.401 10.6683 17.958 8.50513 18.7181 8.08399C19.4783 7.66285 22.0264 8.94509 22.6087 9.28558C23.191 9.62607 25.4038 10.8265 25.6392 11.2898C26.0671 12.1318 25.7496 13.0972 25.3285 14.1075C25.0715 14.7244 24.8911 15.7188 24.4824 16.3362C23.8582 17.279 23.6096 17.1951 23 18M13 23.7054C13.2262 25.2239 13.6505 26.66 14.0192 28.2509M13 23.7054C13.565 23.7177 13.4 23.871 14.0192 23.9103C14.9617 23.9701 16.6251 23.6978 17.3525 23.7054M17.3525 23.7054C17.4011 25.4661 17.7176 26.8318 17.873 28.2509M17.3525 23.7054C18.2704 23.715 18.1989 23.5997 18.9922 23.5924C19.787 23.5851 21.218 23.7324 22 23.7054M22 23.7054C23.0773 23.6683 23.5008 23.5855 24.8075 23.5052C25.2908 23.4754 25.7445 23.3022 26.2868 23.2658C26.9152 23.2237 26.7709 23.3174 27.5 23.2658M22 23.7054C22.0106 24.6044 21.9926 25.2448 22 26C22.0088 26.902 22.2404 27.5549 22.2431 28.2509M22.2431 28.2509C23.1466 28.2045 23.4208 28.4197 24.4315 28.3294C25.5244 28.2319 25.7762 28.1305 26.7994 28M22.2431 28.2509C21.4213 28.2931 19.721 28.3843 18.9004 28.3778C18.3876 28.3737 18.379 28.2776 17.873 28.2509M17.873 28.2509C16.8976 28.1993 15.0806 28.4014 14.0192 28.2509M26.7994 28C26.965 27.1057 27.3417 26.0289 27.5 25C27.5904 24.4124 27.4003 23.9064 27.5 23.2658" stroke="#4A2F2C" stroke-width="1.5" stroke-linecap="round"/>
</svg>
