<svg width="423" height="87" viewBox="0 0 423 87" fill="none" xmlns="http://www.w3.org/2000/svg">
<g filter="url(#filter0_d_5884_21073)">
<path d="M14.7102 19.2118C15.0383 17.025 16.9555 11.2399 18.4431 8.71014C19.0975 7.59731 29.6151 8.82041 34.9759 8.71003C49.893 8.5479 53.6026 8.9038 55.7224 8.70976C57.7898 8.54546 64.4988 8.81805 69.1458 8.71003C71.7889 8.64859 79.7354 8.71009 92.9616 7.78497C99.4883 7.32845 105.99 7.35629 111.359 7.47281C122.216 7.70843 127.933 7.86832 130.438 7.78524C135.642 7.61267 144.767 7.78524 149.175 7.78524C154.883 7.78524 160.082 8.52471 167.115 8.71016C171.96 8.83793 184.588 8.48342 199.466 8.97664C205.555 9.1785 212.104 9.7399 222.676 9.1115C239.519 8.11038 248.075 9.00829 254.985 8.71016C257.713 8.59246 267.882 8.51524 284.744 8.71016C292.901 8.80444 296.868 8.71016 301.277 8.71016C309.284 8.71016 313.439 9.93115 321.507 10.0216C330.405 10.1213 338.799 10.0638 356.02 10.8934C363.126 11.2358 371.115 11.5268 375.31 11.7719C380.938 12.1008 383.553 11.7611 387.247 11.7611C391.453 11.7611 400.137 11.2698 403.78 12.258C409.276 13.749 407.78 16.4318 408.189 18.2218C408.699 20.4548 409.276 23.1916 409.276 25.1795V32.6342C409.276 35.616 411.194 40.0796 411.194 41.0828C411.194 44.0647 411.657 44.1893 411.194 50.5254C410.811 55.7751 411.56 59.4687 411.194 63.8822C410.868 67.8189 411.013 68.6571 409.276 69.8356L409.256 69.849C408.852 70.1243 408.435 70.4079 403.184 70.5293C397.848 70.6528 387.823 70.61 372.7 70.5185C357.577 70.427 337.945 70.3673 327.53 70.1721C315.931 69.9546 321.5 70.0367 308.256 69.7956C300.142 69.6479 292.067 71.3474 270.416 71.3985C248.764 71.4497 217.687 70.0732 200.02 69.9645C182.354 69.8557 180.445 69.7124 177.97 69.6479C172.557 69.5069 167.157 69.063 155.04 68.935C145.34 68.8325 130.322 69.3348 120.518 69.4106C110.715 69.4864 107.214 69.5627 105.088 69.6479C99.0036 69.8917 92.9289 70.4359 84.684 70.6483C75.867 70.8755 70.9518 71.2006 58.796 70.9015C53.6877 70.7758 46.9634 70.8688 42.2633 70.6483C32.0148 70.1675 23.3401 70.2539 21.3183 69.0124C19.5544 67.9292 19.3669 66.5279 18.4431 64.1844C17.8583 62.701 17.0629 61.3947 16.7543 59.2949C16.5071 57.6131 15.6884 55.9746 15.3057 54.2311C14.7511 51.704 14.1668 48.3925 12.6868 46.6907C11.5263 45.3563 11.4522 43.4991 11.4028 41.5798C11.3574 39.8162 11.8474 37.8801 12.7571 32.2532C13.7053 26.3874 14.4651 20.8452 14.7102 19.2118Z" fill="#4A2F2C" stroke="#4A2F2C" stroke-width="2" stroke-linecap="round"/>
<path d="M151.803 46.5874C151.553 46.5874 151.35 46.5249 151.194 46.3999C151.053 46.2593 150.959 46.103 150.912 45.9312C150.866 45.7437 150.866 45.5562 150.912 45.3687C150.975 45.1812 151.084 45.0249 151.241 44.8999C151.366 44.3687 151.397 43.8374 151.334 43.3062C151.272 42.7593 151.209 42.2202 151.147 41.689C151.069 41.0327 151.045 40.3921 151.076 39.7671C151.108 39.1265 151.17 38.478 151.264 37.8218C151.358 37.1655 151.459 36.5171 151.569 35.8765C151.678 35.2202 151.772 34.564 151.85 33.9077C151.928 33.2046 151.991 32.5093 152.037 31.8218C152.1 31.1343 152.147 30.439 152.178 29.7358C152.178 29.439 152.28 29.2124 152.483 29.0562C152.686 28.8999 152.905 28.8218 153.139 28.8218C153.373 28.8218 153.584 28.8999 153.772 29.0562C153.959 29.2124 154.045 29.439 154.03 29.7358C153.998 30.4702 153.951 31.1968 153.889 31.9155C153.842 32.6343 153.78 33.3687 153.701 34.1187C153.623 34.8062 153.522 35.478 153.397 36.1343C153.287 36.7905 153.186 37.4624 153.092 38.1499C152.998 38.8062 152.951 39.4546 152.951 40.0952C152.951 40.7202 152.991 41.3608 153.069 42.0171C153.116 42.4702 153.155 42.9233 153.186 43.3765C153.233 43.8296 153.225 44.2827 153.162 44.7358C154.334 44.7671 155.506 44.8296 156.678 44.9233C157.85 45.0015 159.022 45.064 160.194 45.1108C160.491 45.1265 160.709 45.2358 160.85 45.439C161.006 45.6421 161.084 45.8608 161.084 46.0952C161.084 46.3296 161.006 46.5405 160.85 46.728C160.709 46.9155 160.491 47.0015 160.194 46.9858C158.772 46.9233 157.366 46.8374 155.975 46.728C154.6 46.6343 153.209 46.5874 151.803 46.5874ZM180.594 43.8452C180.141 44.4546 179.601 44.978 178.976 45.4155C178.367 45.8374 177.664 46.064 176.867 46.0952C176.226 46.1265 175.609 46.0171 175.016 45.7671C174.422 45.5015 173.898 45.1499 173.445 44.7124C173.195 44.4624 172.984 44.2202 172.812 43.9858C172.812 44.2671 172.812 44.5483 172.812 44.8296C172.812 45.0952 172.82 45.3687 172.836 45.6499C172.851 45.9468 172.758 46.1733 172.555 46.3296C172.367 46.4702 172.156 46.5405 171.922 46.5405C171.687 46.5405 171.469 46.4702 171.266 46.3296C171.078 46.1733 170.976 45.9468 170.961 45.6499C170.07 46.0249 169.125 46.2437 168.125 46.3062C167.125 46.353 166.172 46.1733 165.266 45.7671C164.734 45.5327 164.312 45.2124 164 44.8062C163.703 44.3843 163.492 43.9233 163.367 43.4233C163.258 42.9233 163.226 42.4077 163.273 41.8765C163.32 41.3296 163.43 40.8062 163.601 40.3062C163.742 39.9155 163.898 39.5093 164.07 39.0874C164.258 38.6655 164.476 38.2749 164.726 37.9155C164.976 37.5562 165.273 37.2515 165.617 37.0015C165.961 36.7358 166.367 36.564 166.836 36.4858C167.32 36.4077 167.805 36.3843 168.289 36.4155C168.789 36.4312 169.281 36.478 169.766 36.5562C169.984 36.5874 170.195 36.6421 170.398 36.7202C170.601 36.7827 170.805 36.853 171.008 36.9312C171.023 36.6968 171.125 36.5015 171.312 36.3452C171.516 36.189 171.726 36.1108 171.945 36.1108C172.211 36.1108 172.422 36.1968 172.578 36.3687C172.734 36.5249 172.828 36.7202 172.859 36.9546C173.172 36.5952 173.523 36.2827 173.914 36.0171C174.305 35.7515 174.719 35.5562 175.156 35.4312C175.609 35.2905 176.07 35.2202 176.539 35.2202C177.008 35.2202 177.476 35.314 177.945 35.5015C178.414 35.689 178.844 35.9468 179.234 36.2749C179.625 36.5874 179.93 36.9937 180.148 37.4937C180.32 37.8687 180.422 38.2749 180.453 38.7124C180.484 39.1499 180.367 39.5483 180.101 39.9077C179.867 40.2358 179.578 40.4858 179.234 40.6577C178.906 40.8296 178.547 40.9546 178.156 41.0327C177.781 41.1108 177.391 41.1499 176.984 41.1499C176.594 41.1499 176.219 41.1421 175.859 41.1265C175.453 41.1108 175.047 41.0796 174.641 41.0327C174.25 40.9858 173.851 40.939 173.445 40.8921C173.57 41.5952 173.82 42.2202 174.195 42.7671C174.586 43.314 175.094 43.728 175.719 44.0093C175.891 44.0718 176.023 44.1187 176.117 44.1499C176.164 44.1655 176.203 44.1812 176.234 44.1968C176.281 44.1968 176.328 44.1968 176.375 44.1968C176.5 44.2124 176.609 44.228 176.703 44.2437C176.797 44.2437 176.883 44.2358 176.961 44.2202C177.133 44.189 177.242 44.1655 177.289 44.1499C177.461 44.103 177.609 44.0483 177.734 43.9858C177.875 43.9233 178.039 43.8218 178.226 43.6812C178.32 43.603 178.445 43.4858 178.601 43.3296C178.758 43.1733 178.891 43.0327 179 42.9077C179.156 42.689 179.344 42.5405 179.562 42.4624C179.797 42.3843 180.031 42.4155 180.266 42.5562C180.469 42.6812 180.617 42.8765 180.711 43.1421C180.805 43.3921 180.766 43.6265 180.594 43.8452ZM175.344 37.3062C174.984 37.478 174.664 37.7202 174.383 38.0327C174.101 38.3296 173.875 38.6655 173.703 39.0405C174.078 39.0874 174.453 39.1343 174.828 39.1812C175.203 39.228 175.578 39.2593 175.953 39.2749C176.172 39.2749 176.375 39.2749 176.562 39.2749C176.766 39.2749 176.969 39.2671 177.172 39.2515C177.234 39.2515 177.289 39.2515 177.336 39.2515C177.398 39.2358 177.461 39.228 177.523 39.228C177.664 39.1968 177.766 39.1812 177.828 39.1812C177.906 39.1655 177.984 39.1421 178.062 39.1108C178.125 39.0952 178.203 39.0718 178.297 39.0405C178.375 39.0093 178.422 38.9858 178.437 38.9702C178.469 38.9546 178.5 38.939 178.531 38.9233L178.578 38.6421C178.547 38.5796 178.523 38.5249 178.508 38.478C178.508 38.4155 178.5 38.3608 178.484 38.314C178.453 38.2671 178.406 38.1968 178.344 38.103C178.297 38.0093 178.25 37.9312 178.203 37.8687C178.125 37.7593 178.016 37.6577 177.875 37.564C177.734 37.4546 177.578 37.3608 177.406 37.2827C177.125 37.1577 176.781 37.0952 176.375 37.0952C175.984 37.0952 175.641 37.1655 175.344 37.3062ZM170.961 43.4937C170.992 42.7437 171.023 42.0093 171.055 41.2905C171.101 40.5718 171.117 39.8452 171.101 39.1108C170.836 38.939 170.562 38.7905 170.281 38.6655C170.016 38.5249 169.719 38.4312 169.391 38.3843C169.062 38.3374 168.711 38.3062 168.336 38.2905C167.976 38.2593 167.625 38.2593 167.281 38.2905C167.25 38.2905 167.164 38.314 167.023 38.3608C166.898 38.3921 166.828 38.4155 166.812 38.4312C166.656 38.5093 166.516 38.6343 166.391 38.8062C166.187 39.0874 166.008 39.3921 165.851 39.7202C165.695 40.0327 165.555 40.353 165.43 40.6812C165.336 40.9624 165.25 41.2827 165.172 41.6421C165.094 42.0015 165.07 42.3452 165.101 42.6733C165.133 43.0015 165.234 43.3062 165.406 43.5874C165.578 43.853 165.859 44.0405 166.25 44.1499C167.047 44.3999 167.844 44.4702 168.641 44.3608C169.453 44.2515 170.211 43.9702 170.914 43.5171L170.961 43.4937ZM184.986 52.3999C185.33 52.728 185.728 52.9546 186.181 53.0796C186.634 53.2202 187.087 53.2671 187.541 53.2202C187.994 53.1733 188.423 53.0405 188.83 52.8218C189.236 52.603 189.572 52.2983 189.837 51.9077C190.4 51.1108 190.759 50.228 190.916 49.2593C191.087 48.3062 191.158 47.3452 191.126 46.3765C190.376 46.5015 189.603 46.5249 188.806 46.4468C188.025 46.3843 187.283 46.2202 186.58 45.9546C186.22 45.814 185.876 45.6499 185.548 45.4624C185.236 45.2593 184.986 44.978 184.798 44.6187C184.47 44.0093 184.33 43.3374 184.376 42.603C184.408 41.8999 184.525 41.2202 184.728 40.564C184.947 39.8921 185.189 39.228 185.455 38.5718C185.595 38.2593 185.744 37.9312 185.9 37.5874C186.072 37.228 186.291 36.9077 186.556 36.6265C186.822 36.3296 187.126 36.103 187.47 35.9468C187.814 35.7905 188.181 35.6968 188.572 35.6655C188.509 35.4468 188.509 35.2437 188.572 35.0562C188.634 34.853 188.767 34.689 188.97 34.564C189.173 34.439 189.408 34.4077 189.673 34.4702C189.955 34.5327 190.15 34.6733 190.259 34.8921C190.322 35.0327 190.376 35.1733 190.423 35.314C190.486 35.4546 190.541 35.5952 190.587 35.7358C190.9 36.5796 191.181 37.4312 191.431 38.2905C191.697 39.1499 191.947 40.0171 192.181 40.8921C192.462 41.9233 192.673 42.9702 192.814 44.0327C192.955 45.0952 193.009 46.1733 192.978 47.2671C192.962 47.8765 192.908 48.5015 192.814 49.1421C192.736 49.7827 192.595 50.3999 192.392 50.9937C192.189 51.5874 191.923 52.1499 191.595 52.6812C191.267 53.228 190.845 53.6968 190.33 54.0874C189.845 54.4624 189.306 54.728 188.712 54.8843C188.134 55.0562 187.541 55.1265 186.931 55.0952C186.337 55.064 185.751 54.9312 185.173 54.6968C184.611 54.4624 184.111 54.1343 183.673 53.7124C183.455 53.5093 183.361 53.2827 183.392 53.0327C183.423 52.7983 183.525 52.5952 183.697 52.4233C183.853 52.2671 184.048 52.1733 184.283 52.1421C184.533 52.1108 184.767 52.1968 184.986 52.3999ZM187.587 44.314C188.134 44.4546 188.697 44.5562 189.275 44.6187C189.869 44.6655 190.439 44.6265 190.986 44.5015C190.892 43.7046 190.751 42.939 190.564 42.2046C190.392 41.4702 190.197 40.728 189.978 39.978C189.853 39.5405 189.72 39.1108 189.58 38.689C189.455 38.2671 189.322 37.8452 189.181 37.4233C189.134 37.4546 189.08 37.478 189.017 37.4937C188.955 37.4937 188.884 37.5015 188.806 37.5171C188.337 37.5171 187.978 37.728 187.728 38.1499C187.556 38.4155 187.416 38.6968 187.306 38.9937C187.275 39.0718 187.244 39.1499 187.212 39.228C187.181 39.2905 187.15 39.3608 187.119 39.439C186.884 40.0015 186.681 40.5483 186.509 41.0796C186.353 41.5952 186.259 42.103 186.228 42.603V43.0249C186.244 43.1343 186.259 43.2202 186.275 43.2827C186.306 43.4233 186.322 43.5093 186.322 43.5405C186.337 43.5718 186.384 43.6499 186.462 43.7749C186.556 43.853 186.642 43.9155 186.72 43.9624C186.798 44.0093 186.845 44.0405 186.861 44.0562C186.986 44.103 187.103 44.1499 187.212 44.1968C187.337 44.2437 187.462 44.2827 187.587 44.314ZM206.919 46.1655C207.044 45.4155 207.184 44.6812 207.341 43.9624C207.512 43.228 207.637 42.4858 207.716 41.7358C207.778 41.0015 207.786 40.2827 207.739 39.5796C207.708 38.8608 207.755 38.1343 207.88 37.3999C207.911 37.1499 208.051 36.9624 208.301 36.8374C208.567 36.7124 208.809 36.6812 209.028 36.7437C209.294 36.8218 209.473 36.9702 209.567 37.189C209.676 37.4077 209.716 37.6421 209.684 37.8921C209.622 38.2515 209.591 38.6187 209.591 38.9937C209.606 39.3687 209.622 39.7437 209.637 40.1187C209.637 40.8374 209.591 41.5562 209.497 42.2749C209.403 43.0249 209.278 43.7593 209.122 44.478C208.981 45.1968 208.848 45.9233 208.723 46.6577C208.676 46.9077 208.528 47.0952 208.278 47.2202C208.028 47.3452 207.794 47.3765 207.575 47.314C207.309 47.2358 207.122 47.0874 207.012 46.8687C206.903 46.6499 206.872 46.4155 206.919 46.1655ZM208.044 35.3843C207.934 35.353 207.825 35.3062 207.716 35.2437C207.606 35.1655 207.528 35.0718 207.481 34.9624C207.434 34.8374 207.395 34.728 207.364 34.6343C207.333 34.5405 207.317 34.4312 207.317 34.3062C207.317 34.1655 207.341 34.0249 207.387 33.8843C207.45 33.603 207.575 33.3999 207.762 33.2749C207.825 33.1812 207.911 33.1108 208.02 33.064C208.192 32.9546 208.387 32.8999 208.606 32.8999C208.825 32.8843 209.02 32.939 209.192 33.064C209.27 33.1265 209.348 33.1968 209.426 33.2749C209.505 33.3374 209.567 33.4233 209.614 33.5327C209.645 33.6108 209.676 33.6968 209.708 33.7905C209.755 33.8843 209.77 33.978 209.755 34.0718C209.739 34.1812 209.723 34.2827 209.708 34.3765C209.692 34.4702 209.653 34.5562 209.591 34.6343C209.512 34.7437 209.45 34.8218 209.403 34.8687C209.356 34.9155 209.278 34.978 209.169 35.0562C209.106 35.1187 209.012 35.1655 208.887 35.1968C208.559 35.3843 208.278 35.4468 208.044 35.3843ZM224.961 41.3374C224.898 41.1499 224.891 40.9546 224.937 40.7515C224.828 38.8608 224.711 36.9858 224.586 35.1265C224.461 33.2515 224.469 31.3687 224.609 29.478C224.641 29.2124 224.734 28.9937 224.891 28.8218C225.062 28.6343 225.281 28.5405 225.547 28.5405C225.797 28.5405 226.023 28.6343 226.226 28.8218C226.43 28.9937 226.516 29.2124 226.484 29.478C226.359 31.1812 226.344 32.8687 226.437 34.5405C226.531 36.1968 226.633 37.8765 226.742 39.5796C227.617 39.0327 228.492 38.5015 229.367 37.9858C230.258 37.4702 231.125 36.9233 231.969 36.3452C232.219 36.1733 232.453 36.1343 232.672 36.228C232.906 36.3062 233.078 36.4468 233.187 36.6499C233.312 36.853 233.359 37.0796 233.328 37.3296C233.297 37.5796 233.156 37.7905 232.906 37.9624C232.062 38.5405 231.203 39.0874 230.328 39.603C229.469 40.103 228.601 40.6187 227.726 41.1499C228.773 41.853 229.812 42.564 230.844 43.2827C231.875 44.0015 232.883 44.7593 233.867 45.5562C234.07 45.728 234.164 45.9546 234.148 46.2358C234.133 46.5015 234.039 46.7202 233.867 46.8921C233.664 47.0796 233.437 47.1655 233.187 47.1499C232.953 47.1343 232.734 47.0483 232.531 46.8921C231.625 46.1577 230.703 45.4624 229.766 44.8062C228.828 44.1499 227.875 43.4937 226.906 42.8374C226.922 43.4312 226.922 44.0327 226.906 44.6421C226.906 45.2515 226.891 45.853 226.859 46.4468C226.844 46.7593 226.734 46.9858 226.531 47.1265C226.344 47.2827 226.133 47.3608 225.898 47.3608C225.664 47.3608 225.453 47.2827 225.266 47.1265C225.078 46.9858 224.992 46.7593 225.008 46.4468C225.039 45.603 225.047 44.7593 225.031 43.9155C225.031 43.0562 225.008 42.1968 224.961 41.3374ZM247.376 38.1265C247.392 39.4702 247.486 40.814 247.658 42.1577C247.83 43.5015 248.056 44.8296 248.337 46.1421C248.4 46.439 248.345 46.6812 248.173 46.8687C248.017 47.0718 247.83 47.2046 247.611 47.2671C247.392 47.3296 247.173 47.314 246.955 47.2202C246.736 47.1265 246.595 46.9312 246.533 46.6343C246.345 45.7437 246.181 44.8687 246.041 44.0093C245.978 44.0874 245.923 44.1655 245.876 44.2437C245.83 44.3062 245.775 44.3765 245.712 44.4546C245.4 44.8296 245.041 45.1577 244.634 45.439C244.228 45.7046 243.791 45.9155 243.322 46.0718C242.869 46.2124 242.4 46.2905 241.916 46.3062C241.431 46.3218 240.955 46.2671 240.486 46.1421C239.658 45.9077 239.025 45.5015 238.587 44.9233C238.15 44.3452 237.837 43.689 237.65 42.9546C237.462 42.2046 237.353 41.4312 237.322 40.6343C237.291 39.8218 237.267 39.0718 237.251 38.3843C237.251 38.0874 237.345 37.8687 237.533 37.728C237.72 37.5718 237.931 37.4937 238.166 37.4937C238.4 37.4937 238.611 37.5718 238.798 37.728C239.001 37.8687 239.111 38.0874 239.126 38.3843C239.142 39.0093 239.15 39.6421 239.15 40.2827C239.166 40.9233 239.236 41.5249 239.361 42.0874C239.423 42.3999 239.494 42.6733 239.572 42.9077C239.65 43.1265 239.775 43.3608 239.947 43.6108C240.025 43.7202 240.064 43.7827 240.064 43.7983C240.08 43.814 240.103 43.8296 240.134 43.8452C240.369 44.0327 240.525 44.1499 240.603 44.1968C240.681 44.228 240.775 44.2593 240.884 44.2905C241.541 44.478 242.205 44.4624 242.876 44.2437C243.548 44.0093 244.087 43.5952 244.494 43.0015C244.728 42.6265 244.9 42.2358 245.009 41.8296C245.134 41.4233 245.22 41.0171 245.267 40.6108C245.314 40.189 245.345 39.7671 245.361 39.3452C245.392 38.9077 245.439 38.478 245.501 38.0562C245.501 37.5874 245.619 37.2827 245.853 37.1421C246.103 36.9858 246.361 36.9312 246.626 36.978C246.783 37.0249 246.908 37.0796 247.001 37.1421L247.189 37.3062C247.361 37.5874 247.423 37.8608 247.376 38.1265ZM252.847 36.8608C252.862 36.564 252.972 36.3452 253.175 36.2046C253.378 36.0483 253.597 35.9702 253.831 35.9702C254.066 35.9702 254.269 36.0483 254.441 36.2046C254.628 36.3452 254.714 36.564 254.698 36.8608C254.698 36.9546 254.691 37.0562 254.675 37.1655C254.675 37.2593 254.675 37.353 254.675 37.4468C255.175 37.1968 255.698 36.9858 256.245 36.814C256.808 36.6265 257.362 36.5093 257.909 36.4624C258.472 36.4155 259.011 36.4624 259.526 36.603C260.058 36.728 260.542 36.978 260.98 37.353C261.198 37.5562 261.292 37.7749 261.261 38.0093C261.245 38.2437 261.151 38.4468 260.98 38.6187C260.823 38.7749 260.62 38.8765 260.37 38.9233C260.12 38.9546 259.878 38.8765 259.644 38.689C259.472 38.5483 259.276 38.4468 259.058 38.3843C258.855 38.3218 258.628 38.2983 258.378 38.314C258.144 38.314 257.901 38.3374 257.651 38.3843C257.417 38.4312 257.191 38.4858 256.972 38.5483C256.144 38.814 255.37 39.1655 254.651 39.603C254.683 40.3687 254.73 41.1343 254.792 41.8999C254.855 42.5405 254.909 43.2046 254.956 43.8921C255.003 44.564 255.136 45.2046 255.355 45.814C255.448 46.0952 255.425 46.3296 255.284 46.5171C255.159 46.7202 254.98 46.853 254.745 46.9155C254.526 46.978 254.292 46.9624 254.042 46.8687C253.808 46.7749 253.644 46.5874 253.55 46.3062C253.425 45.9468 253.339 45.5796 253.292 45.2046C253.245 44.8296 253.198 44.4546 253.151 44.0796C253.12 43.7202 253.081 43.3608 253.034 43.0015C253.003 42.6265 252.972 42.2593 252.941 41.8999C252.862 41.0562 252.808 40.2202 252.776 39.3921C252.761 38.5483 252.784 37.7046 252.847 36.8608ZM266.286 43.0015C266.161 42.5952 266.044 42.1812 265.934 41.7593C265.841 41.3374 265.731 40.9233 265.606 40.5171C265.434 39.8452 265.176 39.1733 264.833 38.5015C264.661 38.1577 264.489 37.814 264.317 37.4702C264.145 37.1108 264.02 36.7437 263.942 36.3687C263.88 36.0718 263.926 35.8296 264.083 35.6421C264.255 35.439 264.45 35.3062 264.669 35.2437C264.887 35.1812 265.106 35.1968 265.325 35.2905C265.544 35.3843 265.684 35.5796 265.747 35.8765C265.825 36.2515 265.95 36.603 266.122 36.9312C266.309 37.2593 266.489 37.5952 266.661 37.939C266.833 38.2983 266.981 38.6655 267.106 39.0405C267.231 39.4155 267.348 39.7905 267.458 40.1655C267.583 40.5718 267.692 40.9937 267.786 41.4312C267.895 41.853 268.02 42.2671 268.161 42.6733C268.208 42.8296 268.255 42.9858 268.301 43.1421C268.364 43.2827 268.426 43.4312 268.489 43.5874C268.645 43.1343 268.77 42.7437 268.864 42.4155C268.958 42.0718 269.067 41.7437 269.192 41.4312C269.364 40.9624 269.528 40.5015 269.684 40.0483C269.841 39.5796 269.981 39.103 270.106 38.6187C270.231 38.1655 270.325 37.7124 270.387 37.2593C270.45 36.7905 270.544 36.3296 270.669 35.8765C270.747 35.5952 270.903 35.4077 271.137 35.314C271.372 35.2202 271.598 35.2046 271.817 35.2671C272.036 35.3296 272.216 35.4624 272.356 35.6655C272.512 35.853 272.551 36.0874 272.473 36.3687C272.317 36.8843 272.208 37.4077 272.145 37.939C272.083 38.4546 271.973 38.9624 271.817 39.4624C271.676 39.9624 271.512 40.4624 271.325 40.9624C271.153 41.4468 270.981 41.939 270.809 42.439C270.7 42.7827 270.591 43.1421 270.481 43.5171C270.372 43.8765 270.239 44.228 270.083 44.5718C269.942 44.9155 269.762 45.2358 269.544 45.5327C269.325 45.8296 269.051 46.0796 268.723 46.2827C268.426 46.4546 268.153 46.4702 267.903 46.3296C267.653 46.189 267.466 45.9858 267.341 45.7202C267.153 45.2671 266.966 44.814 266.778 44.3608C266.606 43.9077 266.442 43.4546 266.286 43.0015Z" fill="#F6F3EE"/>
</g>
<defs>
<filter id="filter0_d_5884_21073" x="-9.72748e-05" y="-9.72748e-05" width="422.798" height="86.8" filterUnits="userSpaceOnUse" color-interpolation-filters="sRGB">
<feFlood flood-opacity="0" result="BackgroundImageFix"/>
<feColorMatrix in="SourceAlpha" type="matrix" values="0 0 0 0 0 0 0 0 0 0 0 0 0 0 0 0 0 0 127 0" result="hardAlpha"/>
<feOffset dy="4"/>
<feGaussianBlur stdDeviation="5.2"/>
<feComposite in2="hardAlpha" operator="out"/>
<feColorMatrix type="matrix" values="0 0 0 0 0 0 0 0 0 0 0 0 0 0 0 0 0 0 0.08 0"/>
<feBlend mode="normal" in2="BackgroundImageFix" result="effect1_dropShadow_5884_21073"/>
<feBlend mode="normal" in="SourceGraphic" in2="effect1_dropShadow_5884_21073" result="shape"/>
</filter>
</defs>
</svg>
