<svg width="40" height="40" viewBox="0 0 40 40" fill="none" xmlns="http://www.w3.org/2000/svg">
<path d="M24.3626 13.4264C24.3672 13.4264 24.3718 13.4264 24.9481 13.4264C25.5243 13.4264 26.672 13.4264 27.3876 13.4015C28.958 13.3467 29.7172 13.1827 29.8095 13.2006C30.0234 13.2419 29.9299 13.9538 30.1548 14.5732C30.5324 15.6135 30.8975 16.4901 31.1024 17.2029C31.4381 18.3705 31.6244 19.2226 31.7038 19.5762C31.8501 20.2278 31.9838 20.7129 31.9952 21.9617C32.0058 23.1132 31.9991 25.3164 31.9722 26.4594C31.9453 27.6023 31.8915 27.6183 31.4194 27.6266C30.0587 27.6504 29.1057 27.5558 29.0491 27.2899C28.8712 26.4542 28.875 25.8846 28.6641 25.42C28.3447 24.7161 27.87 24.5151 27.5505 24.3767C26.7248 24.0189 25.501 24.4658 25.2156 24.7565C24.96 25.0169 24.853 25.9552 24.7052 26.8027C24.5084 27.9302 24.623 28.8673 24.6307 28.9592C24.6581 29.283 24.1985 28.5918 22.3541 28.4002C21.7147 28.3338 21.0078 28.2765 20.5062 28.1555C19.617 27.9408 18.6448 27.8912 18.682 27.7045C18.7859 27.1831 18.5029 26.5149 18.2881 25.9667C18.0703 25.411 17.5359 25.0218 16.7752 24.633C16.1141 24.295 15.3293 24.6399 14.8663 24.9827C14.4637 25.2807 14.2504 26.2109 14.2 26.7202C14.1804 26.9176 14.1954 27.2165 14.1855 27.4135C14.1757 27.6106 14.156 27.6996 13.9998 27.7476C13.207 27.9911 12.9498 27.8738 11.8841 27.9263C11.6567 27.9375 11.598 27.8675 11.5412 27.7947C11.3073 27.4948 11.1049 26.7908 10.8362 25.4495C10.7626 24.7944 10.6735 23.719 10.6238 22.5262C10.5741 21.3334 10.5664 20.0559 10.6345 18.5394" stroke="#4A2F2C" stroke-width="1.5" stroke-linecap="round"/>
<path d="M13.8301 28.5336C13.8301 28.6867 13.9329 29.5302 14.0911 30.2444C14.2059 30.763 14.7191 31.2097 15.1186 31.4766C15.7451 31.8951 16.5542 31.5682 17.398 30.6649C17.6351 30.3474 17.7831 30.0122 17.9463 29.7304C18.1094 29.4487 18.3877 28.165 18.4945 27.8616" stroke="#4A2F2C" stroke-width="1.5" stroke-linecap="round"/>
<path d="M24.502 29.6281C24.502 29.7816 24.5389 30.2953 24.7182 30.8209C24.9249 31.4265 25.3407 31.7022 25.7936 31.8743C26.8126 32.2616 27.2185 31.6619 27.5956 31.3104C28.1009 30.8395 28.2794 30.0316 28.5226 29.3125C28.5891 29.0713 28.6242 28.8277 28.6432 28.465C28.6496 28.2474 28.6496 27.9618 28.6303 27.5686" stroke="#4A2F2C" stroke-width="1.5" stroke-linecap="round"/>
<path d="M23.4085 27.2172C23.4085 27.2138 23.4085 27.2104 23.4085 26.6357C23.4085 26.0609 23.4085 24.9149 23.4158 21.8075C23.4231 18.7001 23.4377 13.666 23.4278 11.0346C23.4179 8.40315 23.3829 8.32684 23.2917 8.25932C23.0635 8.09057 22.602 8.04653 21.5643 8.00875C20.8276 7.98193 19.6635 8.01932 17.678 8.08594C15.6925 8.15257 12.9207 8.26769 11.4002 8.3062C9.42691 8.26028 9.11006 8.22544 8.737 8.16723C8.52486 8.14386 8.26635 8.13301 8 8.12183" stroke="#4A2F2C" stroke-width="1.5" stroke-linecap="round"/>
<path d="M9.47656 13.6906C9.47656 13.6869 9.47656 13.6831 10.2234 13.6793C10.9703 13.6756 12.464 13.6718 13.9976 13.668" stroke="#4A2F2C" stroke-width="1.5" stroke-linecap="round"/>
</svg>
