<svg width="72" height="64" viewBox="0 0 72 64" fill="none" xmlns="http://www.w3.org/2000/svg">
<path d="M46.1791 16.662C46.1899 16.662 46.2006 16.662 47.5451 16.662C48.8896 16.662 51.5676 16.662 53.2375 16.6037C56.9017 16.476 58.6731 16.0934 58.8885 16.135C59.3875 16.2314 59.1694 17.8924 59.6941 19.3377C60.5753 21.7651 61.427 23.8105 61.9052 25.4737C62.6885 28.1982 63.1232 30.1863 63.3085 31.0115C63.6499 32.5318 63.9618 33.6638 63.9885 36.5776C64.0132 39.2644 63.9976 44.4053 63.9348 47.0722C63.872 49.7391 63.7464 49.7765 62.6449 49.7957C59.4699 49.8513 57.2462 49.6305 57.1142 49.0102C56.6991 47.0602 56.7079 45.7311 56.2159 44.6471C55.4706 43.0045 54.3629 42.5357 53.6174 42.2126C51.6908 41.3777 48.8353 42.4205 48.1694 43.0989C47.5731 43.7064 47.3234 45.8957 46.9784 47.8732C46.5193 50.5042 46.7866 52.6907 46.8047 52.9051C46.8685 53.6606 45.7962 52.0478 41.4926 51.6007C40.0006 51.4458 38.3513 51.3123 37.1809 51.0298C35.1059 50.529 32.8376 50.4132 32.9244 49.9775C33.1668 48.7609 32.5063 47.2016 32.0051 45.9227C31.4969 44.626 30.2501 43.7179 28.4752 42.8106C26.9326 42.022 25.1015 42.8268 24.0209 43.6266C23.0816 44.3219 22.584 46.4925 22.4663 47.6807C22.4207 48.1415 22.4555 48.8388 22.4326 49.2986C22.4096 49.7584 22.3638 49.966 21.9992 50.078C20.1493 50.6462 19.5491 50.3724 17.0625 50.495C16.532 50.5211 16.3949 50.3577 16.2625 50.1879C15.7166 49.4882 15.2444 47.8455 14.6174 44.7158C14.4457 43.1872 14.2379 40.6779 14.1219 37.8948C14.0059 35.1117 13.9879 32.1307 14.1469 28.5923" stroke="#4A2F2C" stroke-width="2" stroke-linecap="round"/>
<path d="M21.6035 51.9119C21.6035 52.2691 21.8435 54.2373 22.2125 55.9038C22.4805 57.1136 23.6778 58.156 24.6101 58.7788C26.0719 59.7553 27.9597 58.9924 29.9287 56.8847C30.482 56.144 30.8273 55.3619 31.208 54.7044C31.5886 54.0469 32.2378 51.0516 32.4872 50.3438" stroke="#4A2F2C" stroke-width="2" stroke-linecap="round"/>
<path d="M46.5049 54.4657C46.5049 54.8238 46.591 56.0225 47.0095 57.2487C47.4918 58.662 48.462 59.3053 49.5188 59.7069C51.8963 60.6104 52.8434 59.2112 53.7234 58.391C54.9023 57.2923 55.319 55.407 55.8863 53.7292C56.0415 53.1664 56.1235 52.5979 56.1677 51.7517C56.1828 51.244 56.1828 50.5777 56.1378 49.6602" stroke="#4A2F2C" stroke-width="2" stroke-linecap="round"/>
<path d="M43.953 48.8401C43.953 48.8322 43.953 48.8243 43.953 47.4832C43.953 46.1421 43.953 43.468 43.9701 36.2174C43.9872 28.9668 44.0213 17.2207 43.9982 11.0807C43.975 4.94068 43.8935 4.76263 43.6805 4.60509C43.1482 4.21133 42.0714 4.10856 39.6501 4.02042C37.931 3.95784 35.2148 4.04507 30.582 4.20054C25.9492 4.356 19.4815 4.62462 15.9337 4.71448C11.3295 4.60732 10.5901 4.52603 9.71967 4.3902C9.22466 4.33567 8.62147 4.31036 8 4.28427" stroke="#4A2F2C" stroke-width="2" stroke-linecap="round"/>
<path d="M11.4453 17.2784C11.4453 17.2697 11.4453 17.261 13.188 17.2521C14.9306 17.2433 18.4159 17.2346 21.9944 17.2256" stroke="#4A2F2C" stroke-width="2" stroke-linecap="round"/>
</svg>
