<svg width="40" height="40" viewBox="0 0 40 40" fill="none" xmlns="http://www.w3.org/2000/svg">
<rect width="40" height="40" rx="20" fill="#F6F3EE"/>
<path d="M21.3094 14.2276C20.8846 14.8682 20.5475 17.0026 20.0719 16.22C19.9563 16.0297 19.911 15.7952 19.8896 15.6817C19.8656 15.5107 19.8567 15.3912 19.8262 15.22C19.6977 14.7297 19.5476 14.0111 19.3208 13.7197C18.8743 13.1459 18.6244 12.9295 18.2793 12.6997C17.6298 12.2671 17.03 11.9112 16.1963 12.0197C15.555 12.1032 15.0835 12.2476 14.4605 12.3597C13.9899 12.4444 13.144 13.1064 12.7246 13.7197C12.3198 14.3118 12.1785 15.1335 12.0603 16.0998C11.9844 16.7207 11.9756 17.236 12.0603 17.7673C12.1861 18.5564 12.3892 19.2884 12.9151 20.3182C13.2472 20.9685 13.4991 21.4681 13.7485 21.8988C14.1271 22.5524 14.5757 23.2613 15.1776 23.959C15.5266 24.3636 15.9815 24.8452 16.2305 25.1383C16.5472 25.511 16.8131 25.7395 17.2744 26.1821C17.9531 26.8333 18.5347 27.3536 18.9437 27.515C19.5603 27.7583 19.8963 28.0699 20.195 27.986C20.6799 27.8499 20.9972 27.458 21.2747 27.2535C21.4528 27.1223 22.2003 26.5632 23.1892 25.6787C23.793 25.1386 24.4092 24.5144 24.9528 23.7104C25.282 23.2234 25.689 22.6337 26.1088 21.9141C26.3531 21.4953 26.6895 21.0817 26.8557 20.494C27.0684 19.7422 27.3765 19.2616 27.5891 18.7815C27.8728 18.1406 28.0687 17.0276 27.9774 16.3083C27.8887 15.6099 27.7984 15.2333 27.5891 14.9593C27.2721 14.5444 27.1138 14.1149 26.8471 13.8416C26.6496 13.6391 26.335 13.2825 25.6491 13.0504C25.0565 12.8499 23.9617 12.7238 23.4896 12.7504C23.1506 12.7694 22.8393 12.7496 22.5548 12.9187C22.1525 13.1577 21.6449 13.7218 21.3094 14.2276Z" fill="#4A2F2C" stroke="#4A2F2C" stroke-width="1.5" stroke-linecap="round"/>
</svg>
