<svg width="64" height="64" viewBox="0 0 64 64" fill="none" xmlns="http://www.w3.org/2000/svg">
<rect width="64" height="64" rx="32" fill="#F6F3EE"/>
<path d="M34.6189 20.4552C33.7693 21.7364 33.095 26.0053 32.1439 24.44C31.9126 24.0594 31.8221 23.5903 31.7793 23.3635C31.7312 23.0213 31.7134 22.7824 31.6525 22.44C31.3955 21.4594 31.0951 20.0222 30.6416 19.4394C29.7486 18.2918 29.2487 17.8591 28.5586 17.3994C27.2596 16.5341 26.0601 15.8223 24.3926 16.0394C23.11 16.2064 22.167 16.4952 20.9209 16.7194C19.9798 16.8887 18.288 18.2129 17.4493 19.4395C16.6395 20.6236 16.3569 22.267 16.1206 24.1996C15.9687 25.4415 15.9511 26.4721 16.1206 27.5347C16.3723 29.1129 16.7784 30.5769 17.8303 32.6365C18.4945 33.937 18.9982 34.9361 19.4971 35.7975C20.2542 37.1049 21.1514 38.5226 22.3551 39.918C23.0531 40.7271 23.9629 41.6904 24.4611 42.2767C25.0944 43.0221 25.6262 43.4789 26.5488 44.3641C27.9062 45.6666 29.0693 46.7072 29.8873 47.03C31.1205 47.5166 31.7926 48.1399 32.3901 47.9721C33.3598 47.6997 33.9944 46.916 34.5493 46.5071C34.9055 46.2445 36.4005 45.1264 38.3784 43.3574C39.586 42.2773 40.8184 41.0289 41.9055 39.4208C42.564 38.4469 43.3781 37.2674 44.2177 35.8281C44.7062 34.9906 45.3789 34.1634 45.7115 32.9879C46.1368 31.4844 46.753 30.5232 47.1781 29.563C47.7457 28.2812 48.1373 26.0552 47.9547 24.6165C47.7774 23.2199 47.5967 22.4666 47.1781 21.9186C46.5441 21.0887 46.2275 20.2298 45.6942 19.6831C45.2991 19.2782 44.6701 18.565 43.2981 18.1008C42.113 17.6998 39.9235 17.4477 38.9792 17.5008C38.3012 17.5389 37.6787 17.4991 37.1095 17.8374C36.305 18.3155 35.2897 19.4436 34.6189 20.4552Z" fill="#B8474F" stroke="#4A2F2C" stroke-width="1.5" stroke-linecap="round"/>
</svg>
