<svg width="242" height="104" viewBox="0 0 242 104" fill="none" xmlns="http://www.w3.org/2000/svg">
<path d="M207.83 90.6554C196.699 94.5051 175.852 94.8431 175.852 94.8431C175.852 94.8431 89.6442 97.0217 75.8345 94.4243C66.9821 92.7593 42.4953 92.7492 22.0836 86.8864C1.67192 81.0236 5.75426 67.623 13.9189 59.6664C22.0836 51.7097 13.9189 44.1406 36.0955 31.0689C51.0647 22.2455 85.0423 15.8186 85.0423 15.8186C85.0423 15.8186 127.771 11.5078 137.069 9.83267C154.487 6.48251 158.336 7.5397 171.089 9.83267C185.736 12.4663 192.561 16.8407 203.067 23.6521C211.49 29.1131 213.441 33.2475 220.757 39.5654C235.229 52.0629 235.229 58.9949 235.229 58.9949C235.229 58.9949 234.74 69.6437 229.602 76.8359C224.686 83.7176 218.478 86.9726 207.83 90.6554Z" fill="#E8DCCD"/>
<path d="M26.2669 52.6537C25.5521 55.5993 23.3641 61.8276 19.435 65.3267C12.8068 73.3852 13.138 75.2377 24.2897 79.2057C29.8721 80.8247 35.6969 81.988 41.473 82.9311C43.9757 83.3323 43.7443 83.8315 44.4413 83.9981C46.3655 84.4474 47.6168 83.9556 49.0375 84.1637C55.9615 85.1752 62.5139 85.711 69.6775 86.551C77.2302 87.5359 73.4685 88.8389 76.1324 89.6249C76.3401 89.6911 76.5294 89.7516 76.703 89.8066C79.9261 90.8368 77.1237 88.3949 78.6656 88.1187C83.688 88.7717 89.4999 89.14 95.0204 89.5023C93.7025 89.6796 92.2448 89.8446 90.9073 89.9951C93.3162 90.1088 96.8381 90.5137 92.7181 90.993C93.6517 91.1724 94.4558 91.373 95.3842 91.5439C95.6652 90.7596 99.9802 90.7622 100.4 90.2938C100.8 89.8288 98.3534 89.9053 98.3776 89.8636C98.5426 89.2943 108.52 90.1789 109.276 90.2345C111.171 90.4133 109.503 91.3927 111.124 91.3326C113.924 91.2268 112.072 89.2272 115.85 91.883C117.357 91.0161 117.498 91.4647 119.401 91.5177C119.652 91.5242 119.455 91.0247 119.566 91.0112C122.455 90.6275 120.237 91.5675 120.252 91.6178C120.518 92.4734 123.624 92.0766 124.277 92.1538C132.486 93.121 138.536 93.7427 147.194 93.85C149.092 93.8727 154.762 93.4302 156.598 93.5413C158.394 93.6522 157.444 94.2865 158.372 94.5655C159.858 93.0535 161.258 92.864 164.662 93.7725C165.865 92.6651 165.8 93.5402 168.15 93.2735C170.105 93.0523 173.677 91.6731 175.798 92.7269C173.406 92.6845 173.534 93.2132 170.757 93.5972C169.837 93.7282 159.893 93.9538 160.704 95.0419C161.069 95.612 164.379 95.0164 164.478 95.1203C165.212 95.725 163.438 96.5233 161.783 96.2887C162.154 96.1564 162.679 96.0191 163.113 95.8853C159.443 95.183 162.054 98.1075 159.189 95.5621C158.828 95.2499 158.96 94.9149 158.404 94.5864C158.294 94.7286 158.971 95.0635 158.395 95.1365C157.809 95.2102 156.644 94.5717 156.478 95.1306C156.244 95.9436 158.736 95.5792 158.904 95.6231C158.905 95.6182 158.907 95.6133 158.909 95.6084C160.604 96.0058 157.133 96.1199 156.966 96.1991C155.893 96.7223 156.616 97.0974 155.013 97.542C154.138 97.7947 151.698 97.6965 150.88 97.7862C150.029 97.8786 151.362 98.2392 150.79 98.3307C150.217 98.4222 149.491 98.1433 148.804 98.2494C148.509 98.296 148.531 98.7222 148.388 98.7393C146.866 98.9271 147.857 98.0246 146.493 98.0994C145.619 98.1489 142.6 99.019 144.689 99.2355C143.675 99.336 142.748 99.4118 141.759 99.4923C142.381 99.6108 143.02 99.6882 143.62 99.829C141.786 99.6515 140.948 100.392 139.776 100.462C138.624 100.531 137.578 99.6675 136.299 100.11C133.582 101.05 140.308 100.552 141.174 100.7C141.503 100.76 140.251 101.463 140.055 101.485C139.192 101.582 138.187 101.103 137.522 101.133C135.138 101.244 133.718 101.907 131.447 102.059C123.76 102.58 114.213 102.983 106.884 103.084C104.201 103.123 102.497 102.378 101.312 102.386C98.3933 102.401 98.1344 103.031 95.5584 103.02C91.8332 103.008 86.5529 102.299 83.3849 102.002C81.17 101.806 79.0397 102.248 78.477 102.208C77.8243 102.163 77.1964 102.112 76.5925 102.051C75.9352 101.984 75.1474 101.884 74.4539 101.765C68.8407 100.989 60.5679 100.571 55.1526 100.039C52.1123 99.7669 50.7158 98.924 50.0943 98.881C47.372 98.6787 48.0342 99.3435 45.8368 99.0296C44.6441 98.8559 44.4924 98.2642 44.3362 98.2229C42.9565 97.8616 42.5806 98.557 41.4769 98.4324C35.1237 97.7016 29.0735 96.1398 22.8053 94.4394C22.3504 94.3147 22.4756 94.0085 22.1762 93.9461C20.8989 93.6823 21.3309 94.3287 20.0376 94.0098C20.0242 94.0064 20.0107 94.0029 19.997 93.9993C17.0054 93.2127 13.8815 91.9981 10.705 90.0797C10.4053 89.8943 10.4506 89.4404 9.73952 88.9825C9.04743 88.5248 8.23477 88.4674 7.13492 87.5415C4.26501 85.1156 1.84964 81.2599 0.908202 76.7359C0.751272 76.0055 0.0903831 75.1344 0.0304556 73.9784C-0.262439 70.2588 1.62279 65.7642 2.77348 63.6106C4.54458 60.0556 6.73121 57.2488 9.15588 54.7788C10.453 53.3582 10.8162 52.5251 11.616 49.8633C11.9631 48.6846 12.8005 47.4721 13.0768 46.6849C13.7332 44.8628 12.7954 46.1165 13.5429 44.1926C17.6772 34.3839 25.7181 29.3886 32.6387 25.2042C38.3435 21.9497 43.9317 19.9298 49.5426 17.9966C54.7338 16.2287 60.9494 13.9958 66.0335 12.8352C68.1522 12.3529 68.6858 12.8569 70.1562 12.5047C72.8053 11.8767 73.1164 10.9952 75.9071 10.2868C78.1455 9.72459 80.8247 9.95553 83.2343 9.43217C83.3276 9.4118 83.4125 9.39183 83.5323 9.36403C83.5844 9.35165 83.6287 9.34053 83.6655 9.33059C83.6713 9.32657 83.8187 9.29524 83.8082 9.29389L84.3758 9.21173C86.2475 8.87552 87.3546 8.11172 89.7698 7.77837C91.9443 7.47901 95.0547 7.50288 97.4394 7.19481C110.314 5.49002 123.66 3.948 135.676 2.10003L135.585 2.11699C144.288 0.38833 155.162 -1.09241 164.935 1.09763C167.466 1.57293 169.916 2.07134 172.397 2.55524C178.342 3.69555 184.736 5.52031 190.226 8.55963C190.96 8.97408 189.507 9.09561 191.986 10.0975C193.302 10.6453 195.407 10.9901 198.218 12.6018C201.2 14.3167 203.997 16.158 206.738 17.9896C214.407 22.7602 219.597 30.3717 224.757 34.9332C230.46 40.3234 236.12 45.5805 240.009 54.1792C240.242 54.7554 240.469 55.379 240.669 56.067C240.769 56.4116 240.865 56.7836 240.948 57.1834C240.992 57.3964 241.032 57.6141 241.067 57.8513C241.085 57.9728 241.104 58.1181 241.119 58.2572C241.137 58.4663 241.152 58.4717 241.162 58.9949L241.155 59.2672C240.665 66.7026 239.644 73.559 235.195 80.8315C229.396 90.4672 218.524 95.4684 210.445 98.2159C197.708 102.116 186.935 101.392 176.589 98.6773C175.37 98.3279 175.993 96.4682 176.685 95.9248C177.356 96.2814 177.964 96.7064 178.684 97.102C179.449 94.7568 179.313 95.3827 182.512 95.4113C184.482 95.4194 182.85 94.5316 183.878 94.1851C185.211 93.7651 191.377 92.05 190.322 93.6766C190.683 93.3736 191.016 93.0833 191.369 92.7841C195.866 92.0557 200.221 91.0304 204.292 89.5269C204.991 89.2617 204.895 88.7915 205.592 88.5065C206.042 88.318 206.501 88.1497 206.913 88.006C208.305 87.5208 209.639 87.2243 211.141 86.6077C212.221 86.158 212.17 85.5885 213.568 85.0364C214.945 84.4724 215.266 85.1682 216.707 83.5449C215.165 83.3165 220.52 81.2647 221.91 79.8793C222.156 79.6985 223.296 77.5847 224.13 76.7621C224.72 76.2113 225.634 75.5343 226.417 74.5606C226.764 74.136 227.073 73.6372 227.283 73.0744C227.585 72.2559 227.232 71.502 227.576 70.6535C227.816 70.0565 228.658 69.5338 228.969 68.7201C229.295 67.9116 229.348 65.9621 229.415 65.6221C229.682 64.3956 229.755 65.8397 229.975 65.0062C230.475 63.0762 230.921 60.7471 231.079 58.8041L231.075 58.9949C231.077 59.1569 231.079 59.1303 231.08 59.1651C231.082 59.1912 231.082 59.1958 231.083 59.2049C231.085 59.2213 231.086 59.2246 231.087 59.2241C231.087 59.2214 231.086 59.2046 231.083 59.1778C231.077 59.1288 231.065 59.0553 231.046 58.9698C231.012 58.8079 230.957 58.6021 230.891 58.3995C230.757 57.9813 230.572 57.5306 230.355 57.082C229.916 56.1724 229.357 55.2816 228.735 54.455C228.433 54.0535 228.407 54.8976 228.354 54.8476C226.012 52.4606 227.504 53.5568 227.324 52.5577C227.235 51.5326 222.423 46.6242 221.734 47.2399C222.33 46.3427 220.661 45.8488 220.346 45.6021C219.134 44.6414 219.947 44.1513 218.637 43.3651C218.15 43.0738 218.558 44.2522 218.122 43.8442C217.926 43.6617 217.751 43.4578 217.586 43.2372C216.756 42.1651 216.226 40.778 215.014 39.4971C214.653 39.1132 214.222 39.3117 213.577 38.6478C212.905 37.9703 210.696 34.8804 211.227 36.7768C210.193 34.6299 209.605 34.5667 207.865 32.8348C207.426 32.405 207.334 31.3309 206.2 30.6425C205.813 30.4105 205.388 30.9442 204.88 30.5332C203.726 29.6127 203.006 28.1894 201.385 27.0824C201.261 26.9983 201.135 26.9142 201.007 26.8303C197.841 24.7682 194.323 23.012 191.166 21.0482C190.268 20.4959 190.832 20.0112 189.477 19.2835C189.274 19.1728 187.371 18.8782 186.448 18.405C185.906 18.0926 183.047 16.4722 182.42 16.2371C181.401 15.8152 181.008 16.3913 180.482 16.0808C178.95 15.2043 180.554 14.665 178.172 15.3633C177.708 14.4567 176.494 14.2178 176.329 13.2369C175.376 14.0341 174.699 12.8807 173.23 12.9165C172.047 12.9498 170.843 14.0928 170.454 13.365C170.36 13.1994 170.31 12.9383 170.313 12.5474C169.601 12.6776 166.667 12.5842 166.193 12.5336C164.769 12.3726 165.63 11.9371 164.554 11.8306C164.368 11.813 164.493 12.2312 163.32 11.9992C162.519 11.7846 157.007 11.1262 156.695 11.1351C152.973 10.3836 158.748 10.8007 159.634 10.5526C159.768 10.6804 159.9 10.8089 160.041 10.9373C161.701 11.3343 160.865 10.3255 160.11 10.026C159.354 9.7234 157.879 9.99103 157.259 9.66513C156.948 9.50133 157.204 8.43543 158.191 8.63988C157.151 8.23138 158.634 7.99381 158.236 7.65311C157.804 7.21162 152.874 7.03275 152.875 7.67941C153.785 7.66827 154.912 7.64308 155.827 7.69459C156.905 8.76116 153.487 12.0858 150.304 10.9849C147.896 10.207 151.665 8.95973 146.203 10.4649C147.062 10.391 147.794 10.3989 148.574 10.3584C148.736 11.1124 147.394 10.4109 146.775 10.7402C146.481 10.8969 148.451 11.1987 146.826 11.5854C145.257 10.6844 144.294 11.9362 141.916 12.3526C142.55 12.0454 143.179 11.7441 143.824 11.4444C139.621 11.3136 149.075 9.52294 141.04 10.3801C141.984 10.1798 142.937 10.0309 143.909 9.8261C143.377 9.50056 143.951 8.21384 143.489 8.03237C142.268 7.55644 140.677 8.22658 139.32 8.41557C138.722 8.49991 139.033 8.11851 138.983 8.12569C138.148 8.24315 138.429 8.66764 137.725 8.83046C137.527 8.87635 137.238 8.91464 136.899 8.94957L136.91 8.94763C135.788 9.04623 134.15 9.01286 133.818 9.10117C132.712 9.3929 134.713 10.0409 134.597 10.1258C133.965 10.6731 132.505 10.4993 132.651 11.07C133.721 10.7896 135.567 10.5022 137.148 10.2691C140.445 9.74675 142.948 9.74114 137.376 11.4277L137.357 11.4312C137.306 11.4469 137.252 11.4628 137.197 11.4789C137.258 11.4913 137.317 11.5043 137.373 11.5178L137.393 11.5141C139.244 11.8968 139.353 12.7945 137.78 13.5262L137.736 13.5343C137.261 13.7501 136.561 13.9514 135.734 14.1001C132.738 14.6252 134.623 13.8225 132.993 13.4705C132.778 13.4333 128.796 13.6727 128.659 14.0952C128.701 13.1469 127.323 12.4834 128.06 11.4185C128.161 11.2635 129.78 11.1149 129.118 10.4161C128.77 10.0674 127.89 9.32227 127.952 8.81409C127.669 9.19737 127.371 9.62579 127.074 10.0253C124.693 10.4193 124.307 10.0885 122.906 9.60675C123.002 9.86602 124.351 10.8438 122.462 10.7211C122.365 10.7118 122.242 10.3186 121.277 10.2288C119.331 10.0494 118.933 9.96831 120.24 8.61913C116.402 9.74524 115.4 8.52227 111.422 9.35415C112.39 10.786 113.767 10.2552 117.419 9.54376C117.62 9.88715 117.736 10.2365 117.942 10.5831C112.943 10.3193 115.373 10.1286 112.677 11.1733C112.015 11.4298 108.364 11.6355 109.688 12.5266C110 12.7367 112.254 12.4601 112.037 12.8683C111.994 12.9467 109.273 13.4322 109.017 13.3604C105.853 12.4779 111.179 11.0496 102.874 12.391C102.643 12.4289 102.608 12.8806 102.163 12.9905C101.325 13.1963 101.28 12.682 100.522 12.8824C99.77 13.0824 98.8043 13.8827 97.5951 13.3649C95.406 12.4205 100.228 11.2376 102.478 11.6191C103.21 10.0132 87.5875 11.6182 86.6471 11.8366C82.452 12.8362 89.4975 11.7877 89.8824 12.1719C90.0732 12.3322 90.1785 14.6049 91.837 12.9515C92.3283 12.4615 90.0332 12.1208 91.3478 11.7425C92.6197 11.3686 92.176 12.0868 92.2745 12.1235C92.6231 12.2482 93.9884 11.8567 94.1798 11.932C97.1137 13.0717 97.0965 15.2607 93.0686 12.4514C91.5191 13.3426 95.3325 14.109 93.4017 14.8055C91.0341 15.6541 89.1272 14.8088 88.8358 14.7919C85.0937 14.6219 89.4694 15.6827 85.0268 15.6647L85.0136 15.6666C85.0132 15.6651 85.0058 15.6648 84.9912 15.6659C83.868 15.761 84.4156 15.4346 84.9147 15.1437L84.9734 15.1352C85.1725 15.0346 85.3426 14.941 85.4134 14.8703C85.4755 14.8005 85.2735 14.7704 84.9371 14.7752L84.8474 14.7882C84.4928 14.8282 83.8476 14.9453 82.8694 15.1619C78.1393 16.2308 80.8434 16.2096 80.729 17.4533C80.7284 17.7399 78.2195 18.6257 81.6863 17.762C81.724 17.4357 81.798 17.0005 81.9773 16.6696C82.885 16.712 84.6085 17.9564 85.0681 17.9237C85.2435 17.9052 85.3275 17.9009 85.434 17.8893L85.2539 17.9153C87.149 17.8577 87.0126 17.2049 88.385 17.9659C87.3603 17.0224 88.926 17.4938 89.5018 17.2131C91.5992 16.1805 88.6838 16.1796 93.6832 16.7095C92.9724 16.2918 92.3752 15.8714 91.711 15.4504C92.2942 15.3731 92.8488 15.2982 93.4551 15.2182C94.4032 16.2025 97.5118 15.7385 94.8125 17.1111C98.2185 17.0647 99.5578 16.6857 100.197 15.7756C100.318 15.602 100.826 15.4838 101.418 15.4053C101.282 15.1829 101.063 14.4741 101.146 14.3756C101.884 13.5077 103.341 14.7157 102.949 15.2783C103.375 15.2577 103.699 15.2522 103.817 15.2522C104.557 15.2537 103.173 15.8728 103.783 15.9689C103.977 16.0007 106.055 15.6746 106.108 15.8601C106.495 17.0446 102.975 16.5432 109.914 16.5013C109.956 15.38 106.803 15.9689 107.492 14.7073C108.229 13.3528 110.208 14.8463 110.427 13.2581C110.6 13.4962 110.688 13.701 110.844 13.9765C113.542 12.9976 113.721 14.2792 114.599 14.469C116.302 14.8436 123.867 13.8914 116.943 13.5537C117.93 13.3293 118.926 13.1634 119.909 12.9504C120.402 15.2286 119.69 14.3885 124.497 14.1765C125.535 14.1313 126.033 15.0995 126.9 13.7719C126.887 14.9734 129.928 13.8706 130.24 13.9736C132.231 14.6699 125.446 16.8399 124.323 14.8464C123.241 15.7994 123.134 14.7223 121.846 15.0174C119.993 15.4415 119.748 15.6821 117.436 15.1412C115.37 16.5132 126.082 14.6439 119.713 16.8825C115.746 18.2856 99.5286 20.7436 85.7234 22.5692L86.3034 22.4853C78.3942 24.2974 71.1522 26.2926 68.016 27.2034C55.6553 30.8827 47.8201 33.5958 40.1127 37.8841C38.3411 38.9382 36.5823 40.0523 34.8324 41.3139C34.3309 41.6674 32.2613 43.2597 30.7915 44.554C29.2824 45.8506 28.2654 46.8458 28.2005 45.8309C28.1056 45.5589 30.2544 42.4628 27.3527 44.1722C28.2132 44.0761 27.3651 45.7236 27.3568 45.8813C26.9997 47.6425 27.3371 48.0971 27.3243 48.6866C27.3261 49.3583 27.1497 49.6264 26.2669 52.6537ZM4.58416 67.0359C6.85311 61.9277 7.54618 61.6301 6.9078 61.6032C6.35923 61.6405 4.95528 62.5622 4.76228 61.0183C3.94552 62.29 3.20725 63.6487 2.58625 65.1291C2.86271 64.7844 3.13967 64.4651 3.42692 64.1473C3.42767 64.1457 3.42843 64.1441 3.42918 64.1425C3.75871 65.1443 4.14031 66.1204 4.58416 67.0359ZM146.309 100.463C145.952 100.727 145.598 100.991 145.206 101.25C143.956 101.188 142.76 101.126 141.527 101.062C141.672 100.885 141.811 100.705 141.954 100.528C143.392 100.516 144.855 100.503 146.309 100.463ZM103.735 11.1987C105.541 11.727 105.237 10.4706 107.595 10.8022C107.215 9.89184 106.8 9.00583 106.403 8.10652C104.682 8.43375 104.315 8.8352 102.408 8.80687C102.666 9.08521 102.919 9.36578 103.165 9.64707C103.471 9.54868 103.797 9.43897 104.097 9.34862C104.669 10.1432 101.677 10.5919 103.729 11.2013C103.731 11.2004 103.733 11.1996 103.735 11.1987ZM121.33 8.85592C122.251 8.87429 125.997 8.89206 126.426 8.44229C127.975 6.921 117.736 8.99543 125.211 6.91116C125.154 6.73031 125.167 6.54473 125.145 6.36148C123.745 6.46547 122.363 6.57279 120.965 6.68346C121.125 7.40499 121.159 8.13187 121.33 8.85592ZM21.916 37.0358C22.9927 35.7909 28.4516 30.7315 26.0464 31.5522C25.2748 31.8005 23.463 34.8718 22.5235 35.7686C21.8998 36.3433 22.0869 35.1975 21.0872 36.5877C21.3499 36.733 21.6157 36.9211 21.9177 37.0313C21.9171 37.0328 21.9166 37.0343 21.916 37.0358ZM22.946 41.7113C23.7656 40.4658 24.6856 39.264 25.6941 38.1433C24.3668 38.3266 23.2104 40.3166 22.3443 39.729C22.5568 39.3556 22.786 38.9781 23.0307 38.5973C23.4196 38.5189 23.8083 38.4483 24.2 38.3812C24.7541 37.0376 23.9532 37.3537 25.9311 35.8229C23.8229 35.6043 22.7 35.1594 20.9845 39.6792C20.8959 38.4538 18.0427 37.2865 18.1263 40.7646C18.1603 41.3768 19.5363 39.8065 19.6131 39.8357C20.3886 40.0334 20.1193 41.2047 20.8831 41.3479C21.2198 41.4112 21.9106 40.4969 22.3627 40.6488C22.5675 40.7309 22.4194 41.9172 22.946 41.7113ZM18.0396 42.2481C17.9418 41.5338 16.0077 42.6502 15.5354 44.3051C14.8634 46.7975 17.2888 43.4692 18.0396 42.2481ZM146.317 100.462C146.315 100.462 146.312 100.462 146.309 100.463C146.311 100.462 146.312 100.461 146.313 100.46C146.315 100.46 146.316 100.461 146.317 100.462ZM116.503 8.88712C117.553 8.38362 119.166 8.25432 118.98 7.6637C119.526 7.72108 120.064 7.77717 120.61 7.83388C120.584 7.65292 120.552 7.47214 120.526 7.29302C118.931 7.36405 117.327 7.43255 115.717 7.49784C115.97 7.96135 116.211 8.42801 116.503 8.88712ZM133.847 7.17601C135.8 6.94787 134.03 6.37552 134.404 5.91584C134.812 5.45581 136.492 5.50269 136.173 4.97287C135.121 5.13741 133.957 5.28599 132.764 5.43375C133.138 6.01065 133.478 6.60335 133.851 7.17544C133.849 7.17563 133.848 7.17582 133.847 7.17601ZM32.0994 93.7413C30.7471 93.2927 31.4428 92.8034 28.5627 92.9471C28.5647 92.9475 28.5668 92.9479 28.5688 92.9484C31.053 94.0215 34.3512 95.104 37.3119 95.065C35.6605 94.1252 34.2297 94.4311 32.0994 93.7413ZM98.7798 9.85387C98.251 10.4129 100.989 10.5427 101.515 10.0189C102.393 9.169 99.5623 9.00758 98.7798 9.85387ZM87.8941 95.3025C90.0142 93.8276 86.1431 92.0071 82.069 92.496C81.6941 92.5414 84.3095 93.1843 83.5084 93.4389C83.4132 93.4647 81.9729 93.3424 81.6381 93.5323C81.2529 93.721 81.6081 94.2455 80.9755 94.4101C79.8746 94.7039 77.6857 93.8161 76.8182 94.1616C76.7532 94.1847 77.1035 94.4204 77.443 94.6412C77.7488 94.8586 78.1161 95.0724 78.161 95.0898C79.7308 95.662 81.1166 94.876 81.4155 94.8924C82.5667 94.9393 82.356 95.6071 82.6456 95.786C83.1869 96.1215 84.2859 95.8762 84.3183 95.8997C86.0973 96.589 81.8934 96.2048 81.3886 96.4039C79.7197 96.9378 81.2302 97.7261 77.3875 97.7133C77.0548 97.725 72.5163 97.0395 78.0612 98.5515C76.7806 98.6215 75.627 98.6129 75.0426 98.6343C74.0346 98.7358 74.2177 98.914 74.9538 99.1067C77.6153 99.798 83.9874 99.7574 85.006 99.5835C85.7856 99.4562 84.6476 98.7527 85.1279 98.4815C86.2413 97.8636 88.0638 97.8117 87.9274 96.8614C87.6914 94.8674 85.2061 96.0751 83.6172 95.6521C83.8147 95.2309 83.924 94.8158 84.2527 94.4102C83.6908 94.9568 87.7897 95.4223 87.894 95.3064C87.894 95.3051 87.8941 95.3038 87.8941 95.3025ZM62.1413 95.23C59.9164 94.4462 59.9717 95.7093 57.9399 94.8169C55.9971 95.779 59.6531 96.0178 60.0585 96.113C61.9788 96.5565 61.8292 97.7709 63.8332 97.5572C63.2032 96.7791 62.7286 96.0064 62.1413 95.23ZM81.8544 97.7998C80.3223 98.3362 82.9976 98.4984 83.1447 98.623C84.3113 100.009 75.8837 99.1583 81.8544 97.7998ZM30.7613 32.9302C31.4447 32.5146 30.6814 32.2986 31.1787 31.748C31.6297 31.2154 33.9756 30.3568 33.7115 30.0834C33.5015 29.7519 29.1437 31.3534 32.85 28.7651C32.6105 28.6626 32.5706 28.501 32.4078 28.3755C31.3536 29.0187 30.3032 29.6847 29.2342 30.4106C30.1704 30.5109 31.0852 30.6777 31.9493 30.8242C31.6383 31.605 30.9902 31.2885 30.9585 31.3091C30.9589 31.3096 30.9593 31.3101 30.9596 31.3107C29.8759 32.0905 29.2715 33.8594 30.7613 32.9302ZM13.0786 86.6629C14.0584 85.4808 11.4581 85.9283 10.5921 85.5042C9.75178 85.1406 9.15582 83.8725 9.09242 84.6814C9.94723 86.0744 13.0149 86.8515 13.0796 86.6612C13.0793 86.6618 13.0789 86.6623 13.0786 86.6629ZM49.7362 94.1026C47.783 94.2619 48.0346 94.6913 45.7415 93.9649C45.7886 94.3409 45.8352 94.725 45.8836 95.0954C47.7531 95.3231 47.7438 94.249 49.8559 94.9078C50.2022 95.0151 49.3582 95.7857 50.9812 95.6776C50.5649 95.1778 50.1466 94.6264 49.7362 94.1026ZM40.0446 94.2666C42.2702 94.5282 44.4043 91.8198 40.1817 92.5792C39.555 92.6898 38.3711 94.0622 40.0446 94.2666ZM17.8675 49.0351C19.1732 45.3865 17.2916 49.4218 16.6216 50.2354C19.1032 41.3982 16.3233 51.4165 14.7749 51.5454C14.9174 52.5778 15.1853 54.6037 16.1375 52.807C16.5179 52.021 15.9837 52.1788 16.0028 52.131C16.5923 50.6233 17.2229 51.0004 17.8675 49.0351ZM66.0953 95.4818C65.9546 95.4925 66.1299 96.0226 65.6785 96.0878C65.2212 96.1517 64.2427 95.7106 64.1171 96.0166C63.9906 96.3242 65.9953 96.7361 66.6326 96.5594C67.2752 96.3805 67.3798 95.392 66.0953 95.4818ZM51.8993 92.977C49.9888 93.1555 52.8626 95.3478 53.2718 95.3751C56.8576 95.6135 51.7286 93.5687 51.8993 92.977ZM17.4801 58.5535C19.179 53.6296 15.9447 56.5184 13.6177 57.6121C13.5432 58.0074 13.4681 58.3859 13.3593 58.7801C13.5861 56.9381 13.9723 54.7696 12.0613 57.7602C11.7302 58.1727 11.3549 58.6748 10.9493 59.2816C11.7997 58.4811 12.2481 58.1887 12.4242 58.1325C12.5099 58.113 12.5332 58.1529 12.517 58.2278C12.4318 58.506 11.8474 59.2716 11.8686 59.309C12.3403 59.9516 13.0082 59.7983 13.7327 59.4753C15.124 58.9134 16.4656 57.1581 17.4775 58.5574C17.4783 58.5561 17.4792 58.5548 17.4801 58.5535ZM72.0174 96.5888C72.8525 96.6803 74.3028 96.7825 75.3857 96.8105C76.9257 96.8639 78.0791 96.6009 76.7259 95.8825C76.2998 95.9351 75.9039 95.9842 75.533 96.0275C74.3693 96.1684 73.2022 96.3719 72.0174 96.5888ZM73.6735 20.1951C75.3695 20.3755 76.773 20.0419 78.68 19.5816C76.8009 19.1563 77.9086 18.8124 78.4286 18.491C79.2568 17.9971 77.1296 18.4936 77.0972 18.4457C76.9778 17.6728 78.2995 17.244 75.1887 17.9729C75.9262 17.5235 76.59 17.0915 77.3264 16.65C74.9328 17.1506 74.2587 16.7877 72.5984 16.5389C74.4016 17.6787 72.2626 17.1982 70.6956 18.3626C69.9153 18.9437 72.8307 20.0944 73.6793 20.1938C73.6774 20.1942 73.6755 20.1947 73.6735 20.1951ZM20.0461 53.9805C19.9469 53.417 19.7237 52.8837 19.5551 52.3556C19.67 51.8687 19.7802 51.3906 19.8885 50.9136C20.138 50.9244 20.3955 50.9481 20.6387 50.9474C20.8846 50.3628 20.4918 50.5024 20.5151 50.3132C20.5164 50.3136 20.5176 50.314 20.5189 50.3144C20.863 47.66 21.3617 46.6284 22.9564 45.2979C22.3119 44.9279 21.6673 44.5579 21.0228 44.1879C20.8475 44.635 20.67 45.1186 20.5274 45.5706C20.7721 45.9806 21.0293 46.3766 21.2974 46.7576C20.8815 47.1529 20.4818 47.5643 20.0867 48.0072C20.0735 48.4626 20.0488 49.0149 20.0689 49.4166C17.41 50.9098 20.3083 46.5364 19.6292 46.1968C19.0191 45.9133 17.4174 50.9561 17.6332 51.7267C17.6533 51.8457 19.4636 51.2297 18.1393 52.7889C17.9016 53.0576 14.8058 52.0091 16.594 54.7467C16.8184 55.1781 19.1679 55.0802 20.0461 53.9805ZM29.1818 40.0371C25.6547 40.1053 34.9805 35.6307 30.4589 36.8911C30.8751 35.3539 30.7085 35.4867 29.1496 35.5707C29.0086 35.5782 29.5614 34.8219 29.4832 34.8393C28.2161 35.1737 27.1925 36.3516 26.6278 35.6865C26.3854 35.95 26.1642 36.1942 25.9392 36.4537C27.551 36.1502 26.2036 38.0333 26.1022 39.1204C26.0534 39.6046 26.7366 39.0845 26.701 39.5003C26.6908 39.6409 25.6912 40.3528 25.8733 40.5886C26.277 41.1153 27.4133 41.1833 28.6079 40.7369C28.6083 40.7373 28.6088 40.7378 28.6092 40.7383C28.8101 40.4951 28.9845 40.2691 29.1818 40.0371ZM20.7216 84.7823C20.7591 86.0294 22.5738 87.028 18.788 86.326C18.8805 86.6093 18.9844 86.8933 19.0877 87.1775C19.7254 87.3828 20.315 87.5555 20.954 87.7322C21.3335 87.3757 21.6993 87.1432 22.0504 87.002C24.3194 86.0335 25.9665 89.2245 24.6114 86.6558C24.444 86.3355 22.9274 86.2369 24.5359 85.9137C24.5342 85.9125 24.5324 85.9114 24.5307 85.9103C23.5427 85.7598 22.9508 85.752 22.4352 85.6622C21.8794 85.5626 21.4113 85.3687 20.7216 84.7823ZM9.55508 78.2897C7.38447 76.8728 7.65031 78.49 9.02831 80.2166C10.3886 81.9083 12.6755 82.9503 12.1006 82.113C12.0537 82.0396 10.9669 81.3348 10.1878 80.423C9.37912 79.5072 8.94596 78.4458 9.55508 78.2897ZM44.5783 88.2939C42.4872 87.9783 42.1595 89.2805 42.3072 89.7912C42.4571 90.303 43.9846 90.0123 44.1659 90.1116C44.7532 90.4415 43.4167 90.4364 44.178 90.8832C44.4308 91.0361 48.0765 91.9556 48.2622 91.9118C49.2438 91.6982 47.9851 90.4421 48.2701 90.3462C49.1942 90.0326 50.3212 90.7324 50.6394 90.1728C51.3182 88.9805 48.9621 90.0577 48.5842 90.0346C47.441 89.9657 47.6286 89.2739 46.8012 89.0335C45.9721 88.7919 45.3993 88.9652 44.6617 88.8205C44.4166 88.7722 44.6846 88.3121 44.5783 88.2939ZM37.1979 90.0854C39.5561 89.4448 34.4013 87.4684 33.7439 87.5636C31.7498 87.9094 36.0426 90.406 37.1979 90.0854ZM22.2534 42.8657C21.741 44.9082 24.8072 41.4969 25.5745 40.4473C25.1819 40.3545 22.4111 42.0915 22.2534 42.8657ZM16.6213 59.6792C17.6314 58.0291 15.2966 58.9404 14.0363 59.7868C13.9016 59.8817 13.7792 59.9846 13.6747 60.0934C13.794 61.2714 14.1194 60.9297 14.6472 60.4137C14.7697 60.2946 14.8984 60.166 15.0319 60.0388C15.8105 59.2654 15.6587 61.0577 16.6213 59.6792ZM67.5258 91.7098C67.1115 91.651 60.5069 92.0182 64.2311 92.6984C64.4947 92.7449 69.1163 92.9762 69.4613 92.8481C70.2002 92.5762 68.5639 91.8465 67.5258 91.7098ZM12.5656 67.1945C12.1508 66.0043 12.6895 65.2299 11.2939 65.3449C11.2933 65.3459 11.2926 65.347 11.2919 65.348C12.3263 63.1551 14.2527 64.5292 14.4905 64.1288C15.4487 62.7416 13.1702 62.9106 13.5136 61.7193C12.1686 64.0515 11.8122 62.7808 10.5678 64.4506C10.2768 64.8294 9.94049 66.7577 10.2221 67.1537C10.4793 67.548 11.9447 67.317 12.5656 67.1945ZM76.8046 92.5916C76.5855 92.5169 76.3856 92.4657 76.2086 92.435C74.251 92.1129 72.7983 93.1681 75.5084 93.7983C75.6585 93.8365 75.8023 93.8599 75.9386 93.8706C77.0384 93.935 77.9799 92.9535 76.8046 92.5916ZM125.127 13.8306C124.749 13.4719 124.357 13.1164 123.948 12.7647C124.745 12.5722 125.549 12.3758 126.349 12.1786C125.728 12.3822 125.08 12.5863 124.463 12.786C125.989 12.7441 126.801 13.38 125.131 13.8301C125.13 13.8302 125.128 13.8304 125.127 13.8306ZM178.045 14.112C178.575 14.6548 180.158 13.8829 180.03 13.748C179.019 12.709 177.293 13.3538 178.045 14.112ZM26.8265 42.9201C28.4572 41.4215 26.0012 41.136 24.937 42.1849C25.775 41.7755 25.9447 43.7932 26.8265 42.9201ZM159.634 10.5526C159.435 10.3623 159.234 10.173 159.004 9.98236C159.751 10.2908 159.866 10.4657 159.634 10.5526ZM66.6243 89.9089C66.2548 89.7268 63.3726 89.3671 62.9839 89.5209C62.1477 89.8423 64.2985 91.0945 65.6412 90.8744C65.7958 90.8514 66.9952 90.0899 66.6183 89.9084C66.6203 89.9086 66.6223 89.9087 66.6243 89.9089ZM128.66 14.1483C128.653 14.1304 128.653 14.1125 128.659 14.0952C128.659 14.1128 128.662 14.1305 128.66 14.1483ZM221.686 47.3174C221.697 47.2858 221.713 47.2591 221.734 47.2399C221.719 47.2638 221.706 47.2929 221.686 47.3174ZM46.7468 86.3921C46.0407 84.4425 43.7872 85.1445 45.3604 86.2702C45.4502 86.3306 46.5177 86.3615 46.7468 86.3921Z" fill="#E8DCCD"/>
<path d="M57.0764 58.8857C56.8264 58.8857 56.6232 58.8232 56.467 58.6982C56.3264 58.5576 56.2326 58.4014 56.1857 58.2295C56.1389 58.042 56.1389 57.8545 56.1857 57.667C56.2482 57.4795 56.3576 57.3232 56.5139 57.1982C56.6389 56.667 56.6701 56.1357 56.6076 55.6045C56.5451 55.0576 56.4826 54.5186 56.4201 53.9873C56.342 53.3311 56.3186 52.6904 56.3498 52.0654C56.3811 51.4248 56.4436 50.7764 56.5373 50.1201C56.6311 49.4639 56.7326 48.8154 56.842 48.1748C56.9514 47.5186 57.0451 46.8623 57.1232 46.2061C57.2014 45.5029 57.2639 44.8076 57.3107 44.1201C57.3732 43.4326 57.4201 42.7373 57.4514 42.0342C57.4514 41.7373 57.5529 41.5107 57.7561 41.3545C57.9592 41.1982 58.1779 41.1201 58.4123 41.1201C58.6467 41.1201 58.8576 41.1982 59.0451 41.3545C59.2326 41.5107 59.3186 41.7373 59.3029 42.0342C59.2717 42.7686 59.2248 43.4951 59.1623 44.2139C59.1154 44.9326 59.0529 45.667 58.9748 46.417C58.8967 47.1045 58.7951 47.7764 58.6701 48.4326C58.5607 49.0889 58.4592 49.7607 58.3654 50.4482C58.2717 51.1045 58.2248 51.7529 58.2248 52.3936C58.2248 53.0186 58.2639 53.6592 58.342 54.3154C58.3889 54.7686 58.4279 55.2217 58.4592 55.6748C58.5061 56.1279 58.4982 56.5811 58.4357 57.0342C59.6076 57.0654 60.7795 57.1279 61.9514 57.2217C63.1232 57.2998 64.2951 57.3623 65.467 57.4092C65.7639 57.4248 65.9826 57.5342 66.1232 57.7373C66.2795 57.9404 66.3576 58.1592 66.3576 58.3936C66.3576 58.6279 66.2795 58.8389 66.1232 59.0264C65.9826 59.2139 65.7639 59.2998 65.467 59.2842C64.0451 59.2217 62.6389 59.1357 61.2482 59.0264C59.8732 58.9326 58.4826 58.8857 57.0764 58.8857ZM70.0936 58.4639C70.2186 57.7139 70.3592 56.9795 70.5154 56.2607C70.6873 55.5264 70.8123 54.7842 70.8904 54.0342C70.9529 53.2998 70.9607 52.5811 70.9139 51.8779C70.8826 51.1592 70.9295 50.4326 71.0545 49.6982C71.0857 49.4482 71.2264 49.2607 71.4764 49.1357C71.742 49.0107 71.9842 48.9795 72.2029 49.042C72.4686 49.1201 72.6482 49.2686 72.742 49.4873C72.8514 49.7061 72.8904 49.9404 72.8592 50.1904C72.7967 50.5498 72.7654 50.917 72.7654 51.292C72.7811 51.667 72.7967 52.042 72.8123 52.417C72.8123 53.1357 72.7654 53.8545 72.6717 54.5732C72.5779 55.3232 72.4529 56.0576 72.2967 56.7764C72.1561 57.4951 72.0232 58.2217 71.8982 58.9561C71.8514 59.2061 71.7029 59.3936 71.4529 59.5186C71.2029 59.6436 70.9686 59.6748 70.7498 59.6123C70.4842 59.5342 70.2967 59.3857 70.1873 59.167C70.0779 58.9482 70.0467 58.7139 70.0936 58.4639ZM71.2186 47.6826C71.1092 47.6514 70.9998 47.6045 70.8904 47.542C70.7811 47.4639 70.7029 47.3701 70.6561 47.2607C70.6092 47.1357 70.5701 47.0264 70.5389 46.9326C70.5076 46.8389 70.492 46.7295 70.492 46.6045C70.492 46.4639 70.5154 46.3232 70.5623 46.1826C70.6248 45.9014 70.7498 45.6982 70.9373 45.5732C70.9998 45.4795 71.0857 45.4092 71.1951 45.3623C71.367 45.2529 71.5623 45.1982 71.7811 45.1982C71.9998 45.1826 72.1951 45.2373 72.367 45.3623C72.4451 45.4248 72.5232 45.4951 72.6014 45.5732C72.6795 45.6357 72.742 45.7217 72.7889 45.8311C72.8201 45.9092 72.8514 45.9951 72.8826 46.0889C72.9295 46.1826 72.9451 46.2764 72.9295 46.3701C72.9139 46.4795 72.8982 46.5811 72.8826 46.6748C72.867 46.7686 72.8279 46.8545 72.7654 46.9326C72.6873 47.042 72.6248 47.1201 72.5779 47.167C72.5311 47.2139 72.4529 47.2764 72.3436 47.3545C72.2811 47.417 72.1873 47.4639 72.0623 47.4951C71.7342 47.6826 71.4529 47.7451 71.2186 47.6826ZM79.2904 40.2998C79.5717 40.2998 79.7904 40.3936 79.9467 40.5811C80.1029 40.7686 80.1967 40.9873 80.2279 41.2373C80.3842 42.7217 80.4701 44.2061 80.4857 45.6904C80.5014 47.1748 80.4779 48.6592 80.4154 50.1436C80.3686 51.6279 80.2904 53.1123 80.1811 54.5967C80.0717 56.0811 79.9623 57.5576 79.8529 59.0264C79.8217 59.292 79.7201 59.5107 79.5482 59.6826C79.392 59.8701 79.1811 59.9639 78.9154 59.9639C78.6811 59.9639 78.4623 59.8701 78.2592 59.6826C78.0561 59.5107 77.9623 59.292 77.9779 59.0264C78.0873 57.5576 78.1967 56.0811 78.3061 54.5967C78.4311 53.1123 78.517 51.6279 78.5639 50.1436C78.6264 48.6592 78.6498 47.1748 78.6342 45.6904C78.6186 44.2061 78.5326 42.7217 78.3764 41.2373C78.3451 40.9873 78.4311 40.7686 78.6342 40.5811C78.8373 40.3936 79.0561 40.2998 79.2904 40.2998ZM91.8389 41.3545C92.042 41.1982 92.2607 41.1123 92.4951 41.0967C92.7295 41.0654 92.9482 41.1514 93.1514 41.3545C93.3232 41.5264 93.417 41.7529 93.4326 42.0342C93.4482 42.2998 93.3545 42.5186 93.1514 42.6904C92.0264 43.5498 90.8545 44.292 89.6357 44.917C89.3701 45.0576 89.1201 45.0811 88.8857 44.9873C88.6514 44.8779 88.4717 44.7217 88.3467 44.5186C88.2373 44.3154 88.1982 44.0967 88.2295 43.8623C88.2607 43.6279 88.4092 43.4404 88.6748 43.2998C89.2373 43.0186 89.7764 42.7217 90.292 42.4092C90.8232 42.0967 91.3389 41.7451 91.8389 41.3545ZM112.225 58.3936C112.225 58.6904 112.123 58.9092 111.92 59.0498C111.733 59.2061 111.522 59.2842 111.287 59.2842C111.053 59.2842 110.842 59.2061 110.654 59.0498C110.467 58.9092 110.373 58.6904 110.373 58.3936C110.373 57.1748 110.514 56.0029 110.795 54.8779C111.076 53.7529 111.428 52.6357 111.85 51.5264C111.74 51.3232 111.709 51.0967 111.756 50.8467C111.85 50.5186 112.053 50.3154 112.365 50.2373C112.678 49.4873 112.998 48.7451 113.326 48.0107C113.67 47.2607 113.998 46.5107 114.311 45.7607C114.623 45.0107 114.912 44.2529 115.178 43.4873C115.444 42.7217 115.662 41.9404 115.834 41.1436C115.881 40.9092 115.975 40.7061 116.115 40.5342C116.272 40.3623 116.483 40.2764 116.748 40.2764C116.998 40.2764 117.225 40.3701 117.428 40.5576C117.631 40.7295 117.717 40.9482 117.686 41.2139C117.639 42.1201 117.654 42.9561 117.733 43.7217C117.811 44.4717 117.928 45.2217 118.084 45.9717C118.24 46.7061 118.412 47.4482 118.6 48.1982C118.803 48.9326 118.99 49.667 119.162 50.4014C119.334 51.1045 119.49 51.8076 119.631 52.5107C119.772 53.2139 119.998 53.8936 120.311 54.5498C120.467 54.8779 120.631 55.1982 120.803 55.5107C120.975 55.8076 121.162 56.1123 121.365 56.4248C121.553 56.7061 121.725 57.0029 121.881 57.3154C122.037 57.6123 122.147 57.9404 122.209 58.2998C122.24 58.5498 122.201 58.7842 122.092 59.0029C121.998 59.2217 121.819 59.3701 121.553 59.4482C121.334 59.5107 121.1 59.4795 120.85 59.3545C120.6 59.2295 120.451 59.042 120.404 58.792C120.342 58.4326 120.217 58.1123 120.029 57.8311C119.858 57.5498 119.678 57.2607 119.49 56.9639C119.272 56.6201 119.069 56.2764 118.881 55.9326C118.709 55.5732 118.553 55.2061 118.412 54.8311C118.256 54.4404 118.123 54.0498 118.014 53.6592C117.904 53.2529 117.803 52.8467 117.709 52.4404C117.006 52.3936 116.311 52.3623 115.623 52.3467C114.951 52.3154 114.272 52.2607 113.584 52.1826C113.209 53.1826 112.889 54.1982 112.623 55.2295C112.373 56.2607 112.24 57.3154 112.225 58.3936ZM114.428 50.0967C114.397 50.1436 114.373 50.1982 114.358 50.2607C114.358 50.3076 114.342 50.3545 114.311 50.4014C114.811 50.4482 115.303 50.4795 115.787 50.4951C116.272 50.4951 116.764 50.5107 117.264 50.542C117.092 49.792 116.904 49.0498 116.701 48.3154C116.514 47.5654 116.342 46.8076 116.186 46.042C115.904 46.7295 115.615 47.4092 115.319 48.0811C115.022 48.7373 114.725 49.4092 114.428 50.0967ZM132.929 50.5186C133.226 50.5186 133.445 50.6123 133.586 50.7998C133.742 50.9873 133.82 51.1982 133.82 51.4326C133.82 51.667 133.742 51.8857 133.586 52.0889C133.445 52.2764 133.226 52.3701 132.929 52.3701C132.554 52.3857 132.179 52.3857 131.804 52.3701C131.445 52.3389 131.086 52.3076 130.726 52.2764C130.742 53.5107 130.719 54.7451 130.656 55.9795C130.609 57.2139 130.484 58.4404 130.281 59.6592C130.25 59.9248 130.109 60.1201 129.859 60.2451C129.609 60.3701 129.367 60.3936 129.133 60.3154C128.867 60.2373 128.679 60.0889 128.57 59.8701C128.476 59.667 128.453 59.4326 128.5 59.167C128.687 57.9795 128.789 56.792 128.804 55.6045C128.836 54.417 128.836 53.2217 128.804 52.0186C128.211 51.9248 127.609 51.8311 127 51.7373C126.39 51.6279 125.789 51.5342 125.195 51.4561C124.929 51.4248 124.742 51.2842 124.633 51.0342C124.508 50.7686 124.476 50.5264 124.539 50.3076C124.617 50.042 124.765 49.8623 124.984 49.7686C125.203 49.6592 125.437 49.6201 125.687 49.6514C126.203 49.7295 126.719 49.8154 127.234 49.9092C127.75 49.9873 128.273 50.0654 128.804 50.1436C128.789 50.0654 128.781 49.9482 128.781 49.792C128.781 48.3857 128.773 46.9951 128.758 45.6201C128.758 44.2451 128.828 42.8545 128.969 41.4482C129 41.1982 129.094 40.9795 129.25 40.792C129.422 40.6045 129.64 40.5107 129.906 40.5107C130.14 40.5107 130.359 40.6045 130.562 40.792C130.781 40.9795 130.875 41.1982 130.844 41.4482C130.687 42.9482 130.609 44.4404 130.609 45.9248C130.625 47.3936 130.648 48.8857 130.679 50.4014C131.054 50.4326 131.429 50.4639 131.804 50.4951C132.179 50.5107 132.554 50.5186 132.929 50.5186ZM138.236 49.6045C138.533 49.1982 138.884 48.8389 139.29 48.5264C139.712 48.2139 140.158 47.9717 140.626 47.7998C141.095 47.6123 141.579 47.5186 142.079 47.5186C142.579 47.5029 143.079 47.5967 143.579 47.7998C144.064 47.9873 144.501 48.2451 144.892 48.5732C145.283 48.8857 145.587 49.292 145.806 49.792C145.978 50.167 146.079 50.5732 146.111 51.0107C146.142 51.4482 146.025 51.8467 145.759 52.2061C145.525 52.5342 145.236 52.7842 144.892 52.9561C144.564 53.1279 144.204 53.2529 143.814 53.3311C143.439 53.4092 143.048 53.4482 142.642 53.4482C142.251 53.4482 141.876 53.4404 141.517 53.4248C141.111 53.4092 140.704 53.3779 140.298 53.3311C139.908 53.2842 139.509 53.2373 139.103 53.1904C139.228 53.8936 139.478 54.5186 139.853 55.0654C140.228 55.6123 140.736 56.0264 141.376 56.3076C141.548 56.3701 141.681 56.417 141.775 56.4482C141.822 56.4639 141.861 56.4795 141.892 56.4951C141.939 56.4951 141.986 56.4951 142.033 56.4951C142.158 56.5107 142.259 56.5264 142.337 56.542C142.431 56.542 142.517 56.5342 142.595 56.5186C142.704 56.5029 142.775 56.4951 142.806 56.4951C142.853 56.4795 142.9 56.4639 142.947 56.4482C143.119 56.4014 143.267 56.3467 143.392 56.2842C143.533 56.2217 143.697 56.1201 143.884 55.9795C143.978 55.9014 144.103 55.7842 144.259 55.6279C144.415 55.4717 144.548 55.3311 144.658 55.2061C144.814 54.9873 145.001 54.8389 145.22 54.7607C145.454 54.6826 145.689 54.7139 145.923 54.8545C146.126 54.9795 146.267 55.1748 146.345 55.4404C146.439 55.6904 146.408 55.9248 146.251 56.1436C145.798 56.7529 145.259 57.2764 144.634 57.7139C144.025 58.1357 143.322 58.3623 142.525 58.3936C141.884 58.4248 141.267 58.3154 140.673 58.0654C140.079 57.7998 139.556 57.4482 139.103 57.0107C138.54 56.4639 138.095 55.8311 137.767 55.1123C137.439 54.3936 137.259 53.6592 137.228 52.9092C137.087 52.7998 136.978 52.667 136.9 52.5107C136.837 52.3389 136.814 52.167 136.829 51.9951C136.861 51.8232 136.923 51.667 137.017 51.5264C137.111 51.3701 137.251 51.2686 137.439 51.2217C137.611 50.6436 137.876 50.1045 138.236 49.6045ZM143.861 50.167C143.689 49.9482 143.423 49.7529 143.064 49.5811C142.767 49.4561 142.415 49.3936 142.009 49.3936C141.619 49.3936 141.283 49.4639 141.001 49.6045C140.642 49.7764 140.322 50.0186 140.04 50.3311C139.759 50.6279 139.533 50.9639 139.361 51.3389C139.736 51.3857 140.111 51.4326 140.486 51.4795C140.861 51.5264 141.236 51.5576 141.611 51.5732C141.814 51.5732 142.017 51.5732 142.22 51.5732C142.423 51.5732 142.626 51.5654 142.829 51.5498C142.892 51.5498 142.947 51.5498 142.994 51.5498C143.056 51.5342 143.119 51.5264 143.181 51.5264C143.322 51.4951 143.423 51.4795 143.486 51.4795C143.564 51.4639 143.642 51.4404 143.72 51.4092C143.783 51.3936 143.861 51.3701 143.954 51.3389C144.033 51.3076 144.079 51.2842 144.095 51.2686C144.111 51.2529 144.134 51.2373 144.165 51.2217L144.236 50.9404C144.204 50.8779 144.181 50.8232 144.165 50.7764C144.165 50.7139 144.15 50.6592 144.119 50.6123C144.103 50.5654 144.064 50.4951 144.001 50.4014C143.954 50.3076 143.908 50.2295 143.861 50.167ZM151.909 40.2998C152.19 40.2998 152.409 40.3936 152.565 40.5811C152.722 40.7686 152.815 40.9873 152.847 41.2373C153.003 42.7217 153.089 44.2061 153.104 45.6904C153.12 47.1748 153.097 48.6592 153.034 50.1436C152.987 51.6279 152.909 53.1123 152.8 54.5967C152.69 56.0811 152.581 57.5576 152.472 59.0264C152.44 59.292 152.339 59.5107 152.167 59.6826C152.011 59.8701 151.8 59.9639 151.534 59.9639C151.3 59.9639 151.081 59.8701 150.878 59.6826C150.675 59.5107 150.581 59.292 150.597 59.0264C150.706 57.5576 150.815 56.0811 150.925 54.5967C151.05 53.1123 151.136 51.6279 151.183 50.1436C151.245 48.6592 151.269 47.1748 151.253 45.6904C151.237 44.2061 151.151 42.7217 150.995 41.2373C150.964 40.9873 151.05 40.7686 151.253 40.5811C151.456 40.3936 151.675 40.2998 151.909 40.2998ZM157.942 58.4639C158.067 57.7139 158.208 56.9795 158.364 56.2607C158.536 55.5264 158.661 54.7842 158.739 54.0342C158.801 53.2998 158.809 52.5811 158.762 51.8779C158.731 51.1592 158.778 50.4326 158.903 49.6982C158.934 49.4482 159.075 49.2607 159.325 49.1357C159.59 49.0107 159.833 48.9795 160.051 49.042C160.317 49.1201 160.497 49.2686 160.59 49.4873C160.7 49.7061 160.739 49.9404 160.708 50.1904C160.645 50.5498 160.614 50.917 160.614 51.292C160.629 51.667 160.645 52.042 160.661 52.417C160.661 53.1357 160.614 53.8545 160.52 54.5732C160.426 55.3232 160.301 56.0576 160.145 56.7764C160.004 57.4951 159.872 58.2217 159.747 58.9561C159.7 59.2061 159.551 59.3936 159.301 59.5186C159.051 59.6436 158.817 59.6748 158.598 59.6123C158.333 59.5342 158.145 59.3857 158.036 59.167C157.926 58.9482 157.895 58.7139 157.942 58.4639ZM159.067 47.6826C158.958 47.6514 158.848 47.6045 158.739 47.542C158.629 47.4639 158.551 47.3701 158.504 47.2607C158.458 47.1357 158.419 47.0264 158.387 46.9326C158.356 46.8389 158.34 46.7295 158.34 46.6045C158.34 46.4639 158.364 46.3232 158.411 46.1826C158.473 45.9014 158.598 45.6982 158.786 45.5732C158.848 45.4795 158.934 45.4092 159.044 45.3623C159.215 45.2529 159.411 45.1982 159.629 45.1982C159.848 45.1826 160.044 45.2373 160.215 45.3623C160.294 45.4248 160.372 45.4951 160.45 45.5732C160.528 45.6357 160.59 45.7217 160.637 45.8311C160.669 45.9092 160.7 45.9951 160.731 46.0889C160.778 46.1826 160.794 46.2764 160.778 46.3701C160.762 46.4795 160.747 46.5811 160.731 46.6748C160.715 46.7686 160.676 46.8545 160.614 46.9326C160.536 47.042 160.473 47.1201 160.426 47.167C160.379 47.2139 160.301 47.2764 160.192 47.3545C160.129 47.417 160.036 47.4639 159.911 47.4951C159.583 47.6826 159.301 47.7451 159.067 47.6826ZM166.389 49.6045C166.686 49.1982 167.037 48.8389 167.444 48.5264C167.865 48.2139 168.311 47.9717 168.779 47.7998C169.248 47.6123 169.733 47.5186 170.233 47.5186C170.733 47.5029 171.233 47.5967 171.733 47.7998C172.217 47.9873 172.654 48.2451 173.045 48.5732C173.436 48.8857 173.74 49.292 173.959 49.792C174.131 50.167 174.233 50.5732 174.264 51.0107C174.295 51.4482 174.178 51.8467 173.912 52.2061C173.678 52.5342 173.389 52.7842 173.045 52.9561C172.717 53.1279 172.358 53.2529 171.967 53.3311C171.592 53.4092 171.201 53.4482 170.795 53.4482C170.404 53.4482 170.029 53.4404 169.67 53.4248C169.264 53.4092 168.858 53.3779 168.451 53.3311C168.061 53.2842 167.662 53.2373 167.256 53.1904C167.381 53.8936 167.631 54.5186 168.006 55.0654C168.381 55.6123 168.889 56.0264 169.529 56.3076C169.701 56.3701 169.834 56.417 169.928 56.4482C169.975 56.4639 170.014 56.4795 170.045 56.4951C170.092 56.4951 170.139 56.4951 170.186 56.4951C170.311 56.5107 170.412 56.5264 170.49 56.542C170.584 56.542 170.67 56.5342 170.748 56.5186C170.858 56.5029 170.928 56.4951 170.959 56.4951C171.006 56.4795 171.053 56.4639 171.1 56.4482C171.272 56.4014 171.42 56.3467 171.545 56.2842C171.686 56.2217 171.85 56.1201 172.037 55.9795C172.131 55.9014 172.256 55.7842 172.412 55.6279C172.569 55.4717 172.701 55.3311 172.811 55.2061C172.967 54.9873 173.154 54.8389 173.373 54.7607C173.608 54.6826 173.842 54.7139 174.076 54.8545C174.279 54.9795 174.42 55.1748 174.498 55.4404C174.592 55.6904 174.561 55.9248 174.404 56.1436C173.951 56.7529 173.412 57.2764 172.787 57.7139C172.178 58.1357 171.475 58.3623 170.678 58.3936C170.037 58.4248 169.42 58.3154 168.826 58.0654C168.233 57.7998 167.709 57.4482 167.256 57.0107C166.694 56.4639 166.248 55.8311 165.92 55.1123C165.592 54.3936 165.412 53.6592 165.381 52.9092C165.24 52.7998 165.131 52.667 165.053 52.5107C164.99 52.3389 164.967 52.167 164.983 51.9951C165.014 51.8232 165.076 51.667 165.17 51.5264C165.264 51.3701 165.404 51.2686 165.592 51.2217C165.764 50.6436 166.029 50.1045 166.389 49.6045ZM172.014 50.167C171.842 49.9482 171.576 49.7529 171.217 49.5811C170.92 49.4561 170.569 49.3936 170.162 49.3936C169.772 49.3936 169.436 49.4639 169.154 49.6045C168.795 49.7764 168.475 50.0186 168.194 50.3311C167.912 50.6279 167.686 50.9639 167.514 51.3389C167.889 51.3857 168.264 51.4326 168.639 51.4795C169.014 51.5264 169.389 51.5576 169.764 51.5732C169.967 51.5732 170.17 51.5732 170.373 51.5732C170.576 51.5732 170.779 51.5654 170.983 51.5498C171.045 51.5498 171.1 51.5498 171.147 51.5498C171.209 51.5342 171.272 51.5264 171.334 51.5264C171.475 51.4951 171.576 51.4795 171.639 51.4795C171.717 51.4639 171.795 51.4404 171.873 51.4092C171.936 51.3936 172.014 51.3701 172.108 51.3389C172.186 51.3076 172.233 51.2842 172.248 51.2686C172.264 51.2529 172.287 51.2373 172.319 51.2217L172.389 50.9404C172.358 50.8779 172.334 50.8232 172.319 50.7764C172.319 50.7139 172.303 50.6592 172.272 50.6123C172.256 50.5654 172.217 50.4951 172.154 50.4014C172.108 50.3076 172.061 50.2295 172.014 50.167ZM178.937 49.1592C178.953 48.8623 179.062 48.6436 179.265 48.5029C179.469 48.3467 179.687 48.2686 179.922 48.2686C180.156 48.2686 180.359 48.3467 180.531 48.5029C180.719 48.6436 180.805 48.8623 180.789 49.1592C180.789 49.2529 180.781 49.3545 180.765 49.4639C180.765 49.5576 180.765 49.6514 180.765 49.7451C181.265 49.4951 181.789 49.2842 182.336 49.1123C182.898 48.9248 183.453 48.8076 184 48.7607C184.562 48.7139 185.101 48.7607 185.617 48.9014C186.148 49.0264 186.633 49.2764 187.07 49.6514C187.289 49.8545 187.383 50.0732 187.351 50.3076C187.336 50.542 187.242 50.7451 187.07 50.917C186.914 51.0732 186.711 51.1748 186.461 51.2217C186.211 51.2529 185.969 51.1748 185.734 50.9873C185.562 50.8467 185.367 50.7451 185.148 50.6826C184.945 50.6201 184.719 50.5967 184.469 50.6123C184.234 50.6123 183.992 50.6357 183.742 50.6826C183.508 50.7295 183.281 50.7842 183.062 50.8467C182.234 51.1123 181.461 51.4639 180.742 51.9014C180.773 52.667 180.82 53.4326 180.883 54.1982C180.945 54.8389 181 55.5029 181.047 56.1904C181.094 56.8623 181.226 57.5029 181.445 58.1123C181.539 58.3936 181.515 58.6279 181.375 58.8154C181.25 59.0186 181.07 59.1514 180.836 59.2139C180.617 59.2764 180.383 59.2607 180.133 59.167C179.898 59.0732 179.734 58.8857 179.64 58.6045C179.515 58.2451 179.43 57.8779 179.383 57.5029C179.336 57.1279 179.289 56.7529 179.242 56.3779C179.211 56.0186 179.172 55.6592 179.125 55.2998C179.094 54.9248 179.062 54.5576 179.031 54.1982C178.953 53.3545 178.898 52.5186 178.867 51.6904C178.851 50.8467 178.875 50.0029 178.937 49.1592Z" fill="#4A2F2C"/>
</svg>
