<svg width="242" height="104" viewBox="0 0 242 104" fill="none" xmlns="http://www.w3.org/2000/svg">
<path d="M207.83 90.6554C196.699 94.5051 175.852 94.8431 175.852 94.8431C175.852 94.8431 89.6442 97.0217 75.8345 94.4243C66.9821 92.7593 42.4953 92.7492 22.0836 86.8864C1.67192 81.0236 5.75426 67.623 13.9189 59.6664C22.0836 51.7097 13.9189 44.1406 36.0955 31.0689C51.0647 22.2455 85.0423 15.8186 85.0423 15.8186C85.0423 15.8186 127.771 11.5078 137.069 9.83267C154.487 6.48251 158.336 7.5397 171.089 9.83267C185.736 12.4663 192.561 16.8407 203.067 23.6521C211.49 29.1131 213.441 33.2475 220.757 39.5654C235.229 52.0629 235.229 58.9949 235.229 58.9949C235.229 58.9949 234.74 69.6437 229.602 76.8359C224.686 83.7176 218.478 86.9726 207.83 90.6554Z" fill="#E8DCCD"/>
<path d="M26.2669 52.6537C25.5521 55.5993 23.3641 61.8276 19.435 65.3267C12.8068 73.3852 13.138 75.2377 24.2897 79.2057C29.8721 80.8247 35.6969 81.988 41.473 82.9311C43.9757 83.3323 43.7443 83.8315 44.4413 83.9981C46.3655 84.4474 47.6168 83.9556 49.0375 84.1637C55.9615 85.1752 62.5139 85.711 69.6775 86.551C77.2302 87.5359 73.4685 88.8389 76.1324 89.6249C76.3401 89.6911 76.5294 89.7516 76.703 89.8066C79.9261 90.8368 77.1237 88.3949 78.6656 88.1187C83.688 88.7717 89.4999 89.14 95.0204 89.5023C93.7025 89.6796 92.2448 89.8446 90.9073 89.9951C93.3162 90.1088 96.8381 90.5137 92.7181 90.993C93.6517 91.1724 94.4558 91.373 95.3842 91.5439C95.6652 90.7596 99.9802 90.7622 100.4 90.2938C100.8 89.8288 98.3534 89.9053 98.3776 89.8636C98.5426 89.2943 108.52 90.1789 109.276 90.2345C111.171 90.4133 109.503 91.3927 111.124 91.3326C113.924 91.2268 112.072 89.2272 115.85 91.883C117.357 91.0161 117.498 91.4647 119.401 91.5177C119.652 91.5242 119.455 91.0247 119.566 91.0112C122.455 90.6275 120.237 91.5675 120.252 91.6178C120.518 92.4734 123.624 92.0766 124.277 92.1538C132.486 93.121 138.536 93.7427 147.194 93.85C149.092 93.8727 154.762 93.4302 156.598 93.5413C158.394 93.6522 157.444 94.2865 158.372 94.5655C159.858 93.0535 161.258 92.864 164.662 93.7725C165.865 92.6651 165.8 93.5402 168.15 93.2735C170.105 93.0523 173.677 91.6731 175.798 92.7269C173.406 92.6845 173.534 93.2132 170.757 93.5972C169.837 93.7282 159.893 93.9538 160.704 95.0419C161.069 95.612 164.379 95.0164 164.478 95.1203C165.212 95.725 163.438 96.5233 161.783 96.2887C162.154 96.1564 162.679 96.0191 163.113 95.8853C159.443 95.183 162.054 98.1075 159.189 95.5621C158.828 95.2499 158.96 94.9149 158.404 94.5864C158.294 94.7286 158.971 95.0635 158.395 95.1365C157.809 95.2102 156.644 94.5717 156.478 95.1306C156.244 95.9436 158.736 95.5792 158.904 95.6231C158.905 95.6182 158.907 95.6133 158.909 95.6084C160.604 96.0058 157.133 96.1199 156.966 96.1991C155.893 96.7223 156.616 97.0974 155.013 97.542C154.138 97.7947 151.698 97.6965 150.88 97.7862C150.029 97.8786 151.362 98.2392 150.79 98.3307C150.217 98.4222 149.491 98.1433 148.804 98.2494C148.509 98.296 148.531 98.7222 148.388 98.7393C146.866 98.9271 147.857 98.0246 146.493 98.0994C145.619 98.1489 142.6 99.019 144.689 99.2355C143.675 99.336 142.748 99.4118 141.759 99.4923C142.381 99.6108 143.02 99.6882 143.62 99.829C141.786 99.6515 140.948 100.392 139.776 100.462C138.624 100.531 137.578 99.6675 136.299 100.11C133.582 101.05 140.308 100.552 141.174 100.7C141.503 100.76 140.251 101.463 140.055 101.485C139.192 101.582 138.187 101.103 137.522 101.133C135.138 101.244 133.718 101.907 131.447 102.059C123.76 102.58 114.213 102.983 106.884 103.084C104.201 103.123 102.497 102.378 101.312 102.386C98.3933 102.401 98.1344 103.031 95.5584 103.02C91.8332 103.008 86.5529 102.299 83.3849 102.002C81.17 101.806 79.0397 102.248 78.477 102.208C77.8243 102.163 77.1964 102.112 76.5925 102.051C75.9352 101.984 75.1474 101.884 74.4539 101.765C68.8407 100.989 60.5679 100.571 55.1526 100.039C52.1123 99.7669 50.7158 98.924 50.0943 98.881C47.372 98.6787 48.0342 99.3435 45.8368 99.0296C44.6441 98.8559 44.4924 98.2642 44.3362 98.2229C42.9565 97.8616 42.5806 98.557 41.4769 98.4324C35.1237 97.7016 29.0735 96.1398 22.8053 94.4394C22.3504 94.3147 22.4756 94.0085 22.1762 93.9461C20.8989 93.6823 21.3309 94.3287 20.0376 94.0098C20.0242 94.0064 20.0107 94.0029 19.997 93.9993C17.0054 93.2127 13.8815 91.9981 10.705 90.0797C10.4053 89.8943 10.4506 89.4404 9.73952 88.9825C9.04743 88.5248 8.23477 88.4674 7.13492 87.5415C4.26501 85.1156 1.84964 81.2599 0.908202 76.7359C0.751272 76.0055 0.0903831 75.1344 0.0304556 73.9784C-0.262439 70.2588 1.62279 65.7642 2.77348 63.6106C4.54458 60.0556 6.73121 57.2488 9.15588 54.7788C10.453 53.3582 10.8162 52.5251 11.616 49.8633C11.9631 48.6846 12.8005 47.4721 13.0768 46.6849C13.7332 44.8628 12.7954 46.1165 13.5429 44.1926C17.6772 34.3839 25.7181 29.3886 32.6387 25.2042C38.3435 21.9497 43.9317 19.9298 49.5426 17.9966C54.7338 16.2287 60.9494 13.9958 66.0335 12.8352C68.1522 12.3529 68.6858 12.8569 70.1562 12.5047C72.8053 11.8767 73.1164 10.9952 75.9071 10.2868C78.1455 9.72459 80.8247 9.95553 83.2343 9.43217C83.3276 9.4118 83.4125 9.39183 83.5323 9.36403C83.5844 9.35165 83.6287 9.34053 83.6655 9.33059C83.6713 9.32657 83.8187 9.29524 83.8082 9.29389L84.3758 9.21173C86.2475 8.87552 87.3546 8.11172 89.7698 7.77837C91.9443 7.47901 95.0547 7.50288 97.4394 7.19481C110.314 5.49002 123.66 3.948 135.676 2.10003L135.585 2.11699C144.288 0.38833 155.162 -1.09241 164.935 1.09763C167.466 1.57293 169.916 2.07134 172.397 2.55524C178.342 3.69555 184.736 5.52031 190.226 8.55963C190.96 8.97408 189.507 9.09561 191.986 10.0975C193.302 10.6453 195.407 10.9901 198.218 12.6018C201.2 14.3167 203.997 16.158 206.738 17.9896C214.407 22.7602 219.597 30.3717 224.757 34.9332C230.46 40.3234 236.12 45.5805 240.009 54.1792C240.242 54.7554 240.469 55.379 240.669 56.067C240.769 56.4116 240.865 56.7836 240.948 57.1834C240.992 57.3964 241.032 57.6141 241.067 57.8513C241.085 57.9728 241.104 58.1181 241.119 58.2572C241.137 58.4663 241.152 58.4717 241.162 58.9949L241.155 59.2672C240.665 66.7026 239.644 73.559 235.195 80.8315C229.396 90.4672 218.524 95.4684 210.445 98.2159C197.708 102.116 186.935 101.392 176.589 98.6773C175.37 98.3279 175.993 96.4682 176.685 95.9248C177.356 96.2814 177.964 96.7064 178.684 97.102C179.449 94.7568 179.313 95.3827 182.512 95.4113C184.482 95.4194 182.85 94.5316 183.878 94.1851C185.211 93.7651 191.377 92.05 190.322 93.6766C190.683 93.3736 191.016 93.0833 191.369 92.7841C195.866 92.0557 200.221 91.0304 204.292 89.5269C204.991 89.2617 204.895 88.7915 205.592 88.5065C206.042 88.318 206.501 88.1497 206.913 88.006C208.305 87.5208 209.639 87.2243 211.141 86.6077C212.221 86.158 212.17 85.5885 213.568 85.0364C214.945 84.4724 215.266 85.1682 216.707 83.5449C215.165 83.3165 220.52 81.2647 221.91 79.8793C222.156 79.6985 223.296 77.5847 224.13 76.7621C224.72 76.2113 225.634 75.5343 226.417 74.5606C226.764 74.136 227.073 73.6372 227.283 73.0744C227.585 72.2559 227.232 71.502 227.576 70.6535C227.816 70.0565 228.658 69.5338 228.969 68.7201C229.295 67.9116 229.348 65.9621 229.415 65.6221C229.682 64.3956 229.755 65.8397 229.975 65.0062C230.475 63.0762 230.921 60.7471 231.079 58.8041L231.075 58.9949C231.077 59.1569 231.079 59.1303 231.08 59.1651C231.082 59.1912 231.082 59.1958 231.083 59.2049C231.085 59.2213 231.086 59.2246 231.087 59.2241C231.087 59.2214 231.086 59.2046 231.083 59.1778C231.077 59.1288 231.065 59.0553 231.046 58.9698C231.012 58.8079 230.957 58.6021 230.891 58.3995C230.757 57.9813 230.572 57.5306 230.355 57.082C229.916 56.1724 229.357 55.2816 228.735 54.455C228.433 54.0535 228.407 54.8976 228.354 54.8476C226.012 52.4606 227.504 53.5568 227.324 52.5577C227.235 51.5326 222.423 46.6242 221.734 47.2399C222.33 46.3427 220.661 45.8488 220.346 45.6021C219.134 44.6414 219.947 44.1513 218.637 43.3651C218.15 43.0738 218.558 44.2522 218.122 43.8442C217.926 43.6617 217.751 43.4578 217.586 43.2372C216.756 42.1651 216.226 40.778 215.014 39.4971C214.653 39.1132 214.222 39.3117 213.577 38.6478C212.905 37.9703 210.696 34.8804 211.227 36.7768C210.193 34.6299 209.605 34.5667 207.865 32.8348C207.426 32.405 207.334 31.3309 206.2 30.6425C205.813 30.4105 205.388 30.9442 204.88 30.5332C203.726 29.6127 203.006 28.1894 201.385 27.0824C201.261 26.9983 201.135 26.9142 201.007 26.8303C197.841 24.7682 194.323 23.012 191.166 21.0482C190.268 20.4959 190.832 20.0112 189.477 19.2835C189.274 19.1728 187.371 18.8782 186.448 18.405C185.906 18.0926 183.047 16.4722 182.42 16.2371C181.401 15.8152 181.008 16.3913 180.482 16.0808C178.95 15.2043 180.554 14.665 178.172 15.3633C177.708 14.4567 176.494 14.2178 176.329 13.2369C175.376 14.0341 174.699 12.8807 173.23 12.9165C172.047 12.9498 170.843 14.0928 170.454 13.365C170.36 13.1994 170.31 12.9383 170.313 12.5474C169.601 12.6776 166.667 12.5842 166.193 12.5336C164.769 12.3726 165.63 11.9371 164.554 11.8306C164.368 11.813 164.493 12.2312 163.32 11.9992C162.519 11.7846 157.007 11.1262 156.695 11.1351C152.973 10.3836 158.748 10.8007 159.634 10.5526C159.768 10.6804 159.9 10.8089 160.041 10.9373C161.701 11.3343 160.865 10.3255 160.11 10.026C159.354 9.7234 157.879 9.99103 157.259 9.66513C156.948 9.50133 157.204 8.43543 158.191 8.63988C157.151 8.23138 158.634 7.99381 158.236 7.65311C157.804 7.21162 152.874 7.03275 152.875 7.67941C153.785 7.66827 154.912 7.64308 155.827 7.69459C156.905 8.76116 153.487 12.0858 150.304 10.9849C147.896 10.207 151.665 8.95973 146.203 10.4649C147.062 10.391 147.794 10.3989 148.574 10.3584C148.736 11.1124 147.394 10.4109 146.775 10.7402C146.481 10.8969 148.451 11.1987 146.826 11.5854C145.257 10.6844 144.294 11.9362 141.916 12.3526C142.55 12.0454 143.179 11.7441 143.824 11.4444C139.621 11.3136 149.075 9.52294 141.04 10.3801C141.984 10.1798 142.937 10.0309 143.909 9.8261C143.377 9.50056 143.951 8.21384 143.489 8.03237C142.268 7.55644 140.677 8.22658 139.32 8.41557C138.722 8.49991 139.033 8.11851 138.983 8.12569C138.148 8.24315 138.429 8.66764 137.725 8.83046C137.527 8.87635 137.238 8.91464 136.899 8.94957L136.91 8.94763C135.788 9.04623 134.15 9.01286 133.818 9.10117C132.712 9.3929 134.713 10.0409 134.597 10.1258C133.965 10.6731 132.505 10.4993 132.651 11.07C133.721 10.7896 135.567 10.5022 137.148 10.2691C140.445 9.74675 142.948 9.74114 137.376 11.4277L137.357 11.4312C137.306 11.4469 137.252 11.4628 137.197 11.4789C137.258 11.4913 137.317 11.5043 137.373 11.5178L137.393 11.5141C139.244 11.8968 139.353 12.7945 137.78 13.5262L137.736 13.5343C137.261 13.7501 136.561 13.9514 135.734 14.1001C132.738 14.6252 134.623 13.8225 132.993 13.4705C132.778 13.4333 128.796 13.6727 128.659 14.0952C128.701 13.1469 127.323 12.4834 128.06 11.4185C128.161 11.2635 129.78 11.1149 129.118 10.4161C128.77 10.0674 127.89 9.32227 127.952 8.81409C127.669 9.19737 127.371 9.62579 127.074 10.0253C124.693 10.4193 124.307 10.0885 122.906 9.60675C123.002 9.86602 124.351 10.8438 122.462 10.7211C122.365 10.7118 122.242 10.3186 121.277 10.2288C119.331 10.0494 118.933 9.96831 120.24 8.61913C116.402 9.74524 115.4 8.52227 111.422 9.35415C112.39 10.786 113.767 10.2552 117.419 9.54376C117.62 9.88715 117.736 10.2365 117.942 10.5831C112.943 10.3193 115.373 10.1286 112.677 11.1733C112.015 11.4298 108.364 11.6355 109.688 12.5266C110 12.7367 112.254 12.4601 112.037 12.8683C111.994 12.9467 109.273 13.4322 109.017 13.3604C105.853 12.4779 111.179 11.0496 102.874 12.391C102.643 12.4289 102.608 12.8806 102.163 12.9905C101.325 13.1963 101.28 12.682 100.522 12.8824C99.77 13.0824 98.8043 13.8827 97.5951 13.3649C95.406 12.4205 100.228 11.2376 102.478 11.6191C103.21 10.0132 87.5875 11.6182 86.6471 11.8366C82.452 12.8362 89.4975 11.7877 89.8824 12.1719C90.0732 12.3322 90.1785 14.6049 91.837 12.9515C92.3283 12.4615 90.0332 12.1208 91.3478 11.7425C92.6197 11.3686 92.176 12.0868 92.2745 12.1235C92.6231 12.2482 93.9884 11.8567 94.1798 11.932C97.1137 13.0717 97.0965 15.2607 93.0686 12.4514C91.5191 13.3426 95.3325 14.109 93.4017 14.8055C91.0341 15.6541 89.1272 14.8088 88.8358 14.7919C85.0937 14.6219 89.4694 15.6827 85.0268 15.6647L85.0136 15.6666C85.0132 15.6651 85.0058 15.6648 84.9912 15.6659C83.868 15.761 84.4156 15.4346 84.9147 15.1437L84.9734 15.1352C85.1725 15.0346 85.3426 14.941 85.4134 14.8703C85.4755 14.8005 85.2735 14.7704 84.9371 14.7752L84.8474 14.7882C84.4928 14.8282 83.8476 14.9453 82.8694 15.1619C78.1393 16.2308 80.8434 16.2096 80.729 17.4533C80.7284 17.7399 78.2195 18.6257 81.6863 17.762C81.724 17.4357 81.798 17.0005 81.9773 16.6696C82.885 16.712 84.6085 17.9564 85.0681 17.9237C85.2435 17.9052 85.3275 17.9009 85.434 17.8893L85.2539 17.9153C87.149 17.8577 87.0126 17.2049 88.385 17.9659C87.3603 17.0224 88.926 17.4938 89.5018 17.2131C91.5992 16.1805 88.6838 16.1796 93.6832 16.7095C92.9724 16.2918 92.3752 15.8714 91.711 15.4504C92.2942 15.3731 92.8488 15.2982 93.4551 15.2182C94.4032 16.2025 97.5118 15.7385 94.8125 17.1111C98.2185 17.0647 99.5578 16.6857 100.197 15.7756C100.318 15.602 100.826 15.4838 101.418 15.4053C101.282 15.1829 101.063 14.4741 101.146 14.3756C101.884 13.5077 103.341 14.7157 102.949 15.2783C103.375 15.2577 103.699 15.2522 103.817 15.2522C104.557 15.2537 103.173 15.8728 103.783 15.9689C103.977 16.0007 106.055 15.6746 106.108 15.8601C106.495 17.0446 102.975 16.5432 109.914 16.5013C109.956 15.38 106.803 15.9689 107.492 14.7073C108.229 13.3528 110.208 14.8463 110.427 13.2581C110.6 13.4962 110.688 13.701 110.844 13.9765C113.542 12.9976 113.721 14.2792 114.599 14.469C116.302 14.8436 123.867 13.8914 116.943 13.5537C117.93 13.3293 118.926 13.1634 119.909 12.9504C120.402 15.2286 119.69 14.3885 124.497 14.1765C125.535 14.1313 126.033 15.0995 126.9 13.7719C126.887 14.9734 129.928 13.8706 130.24 13.9736C132.231 14.6699 125.446 16.8399 124.323 14.8464C123.241 15.7994 123.134 14.7223 121.846 15.0174C119.993 15.4415 119.748 15.6821 117.436 15.1412C115.37 16.5132 126.082 14.6439 119.713 16.8825C115.746 18.2856 99.5286 20.7436 85.7234 22.5692L86.3034 22.4853C78.3942 24.2974 71.1522 26.2926 68.016 27.2034C55.6553 30.8827 47.8201 33.5958 40.1127 37.8841C38.3411 38.9382 36.5823 40.0523 34.8324 41.3139C34.3309 41.6674 32.2613 43.2597 30.7915 44.554C29.2824 45.8506 28.2654 46.8458 28.2005 45.8309C28.1056 45.5589 30.2544 42.4628 27.3527 44.1722C28.2132 44.0761 27.3651 45.7236 27.3568 45.8813C26.9997 47.6425 27.3371 48.0971 27.3243 48.6866C27.3261 49.3583 27.1497 49.6264 26.2669 52.6537ZM4.58416 67.0359C6.85311 61.9277 7.54618 61.6301 6.9078 61.6032C6.35923 61.6405 4.95528 62.5622 4.76228 61.0183C3.94552 62.29 3.20725 63.6487 2.58625 65.1291C2.86271 64.7844 3.13967 64.4651 3.42692 64.1473C3.42767 64.1457 3.42843 64.1441 3.42918 64.1425C3.75871 65.1443 4.14031 66.1204 4.58416 67.0359ZM146.309 100.463C145.952 100.727 145.598 100.991 145.206 101.25C143.956 101.188 142.76 101.126 141.527 101.062C141.672 100.885 141.811 100.705 141.954 100.528C143.392 100.516 144.855 100.503 146.309 100.463ZM103.735 11.1987C105.541 11.727 105.237 10.4706 107.595 10.8022C107.215 9.89184 106.8 9.00583 106.403 8.10652C104.682 8.43375 104.315 8.8352 102.408 8.80687C102.666 9.08521 102.919 9.36578 103.165 9.64707C103.471 9.54868 103.797 9.43897 104.097 9.34862C104.669 10.1432 101.677 10.5919 103.729 11.2013C103.731 11.2004 103.733 11.1996 103.735 11.1987ZM121.33 8.85592C122.251 8.87429 125.997 8.89206 126.426 8.44229C127.975 6.921 117.736 8.99543 125.211 6.91116C125.154 6.73031 125.167 6.54473 125.145 6.36148C123.745 6.46547 122.363 6.57279 120.965 6.68346C121.125 7.40499 121.159 8.13187 121.33 8.85592ZM21.916 37.0358C22.9927 35.7909 28.4516 30.7315 26.0464 31.5522C25.2748 31.8005 23.463 34.8718 22.5235 35.7686C21.8998 36.3433 22.0869 35.1975 21.0872 36.5877C21.3499 36.733 21.6157 36.9211 21.9177 37.0313C21.9171 37.0328 21.9166 37.0343 21.916 37.0358ZM22.946 41.7113C23.7656 40.4658 24.6856 39.264 25.6941 38.1433C24.3668 38.3266 23.2104 40.3166 22.3443 39.729C22.5568 39.3556 22.786 38.9781 23.0307 38.5973C23.4196 38.5189 23.8083 38.4483 24.2 38.3812C24.7541 37.0376 23.9532 37.3537 25.9311 35.8229C23.8229 35.6043 22.7 35.1594 20.9845 39.6792C20.8959 38.4538 18.0427 37.2865 18.1263 40.7646C18.1603 41.3768 19.5363 39.8065 19.6131 39.8357C20.3886 40.0334 20.1193 41.2047 20.8831 41.3479C21.2198 41.4112 21.9106 40.4969 22.3627 40.6488C22.5675 40.7309 22.4194 41.9172 22.946 41.7113ZM18.0396 42.2481C17.9418 41.5338 16.0077 42.6502 15.5354 44.3051C14.8634 46.7975 17.2888 43.4692 18.0396 42.2481ZM146.317 100.462C146.315 100.462 146.312 100.462 146.309 100.463C146.311 100.462 146.312 100.461 146.313 100.46C146.315 100.46 146.316 100.461 146.317 100.462ZM116.503 8.88712C117.553 8.38362 119.166 8.25432 118.98 7.6637C119.526 7.72108 120.064 7.77717 120.61 7.83388C120.584 7.65292 120.552 7.47214 120.526 7.29302C118.931 7.36405 117.327 7.43255 115.717 7.49784C115.97 7.96135 116.211 8.42801 116.503 8.88712ZM133.847 7.17601C135.8 6.94787 134.03 6.37552 134.404 5.91584C134.812 5.45581 136.492 5.50269 136.173 4.97287C135.121 5.13741 133.957 5.28599 132.764 5.43375C133.138 6.01065 133.478 6.60335 133.851 7.17544C133.849 7.17563 133.848 7.17582 133.847 7.17601ZM32.0994 93.7413C30.7471 93.2927 31.4428 92.8034 28.5627 92.9471C28.5647 92.9475 28.5668 92.9479 28.5688 92.9484C31.053 94.0215 34.3512 95.104 37.3119 95.065C35.6605 94.1252 34.2297 94.4311 32.0994 93.7413ZM98.7798 9.85387C98.251 10.4129 100.989 10.5427 101.515 10.0189C102.393 9.169 99.5623 9.00758 98.7798 9.85387ZM87.8941 95.3025C90.0142 93.8276 86.1431 92.0071 82.069 92.496C81.6941 92.5414 84.3095 93.1843 83.5084 93.4389C83.4132 93.4647 81.9729 93.3424 81.6381 93.5323C81.2529 93.721 81.6081 94.2455 80.9755 94.4101C79.8746 94.7039 77.6857 93.8161 76.8182 94.1616C76.7532 94.1847 77.1035 94.4204 77.443 94.6412C77.7488 94.8586 78.1161 95.0724 78.161 95.0898C79.7308 95.662 81.1166 94.876 81.4155 94.8924C82.5667 94.9393 82.356 95.6071 82.6456 95.786C83.1869 96.1215 84.2859 95.8762 84.3183 95.8997C86.0973 96.589 81.8934 96.2048 81.3886 96.4039C79.7197 96.9378 81.2302 97.7261 77.3875 97.7133C77.0548 97.725 72.5163 97.0395 78.0612 98.5515C76.7806 98.6215 75.627 98.6129 75.0426 98.6343C74.0346 98.7358 74.2177 98.914 74.9538 99.1067C77.6153 99.798 83.9874 99.7574 85.006 99.5835C85.7856 99.4562 84.6476 98.7527 85.1279 98.4815C86.2413 97.8636 88.0638 97.8117 87.9274 96.8614C87.6914 94.8674 85.2061 96.0751 83.6172 95.6521C83.8147 95.2309 83.924 94.8158 84.2527 94.4102C83.6908 94.9568 87.7897 95.4223 87.894 95.3064C87.894 95.3051 87.8941 95.3038 87.8941 95.3025ZM62.1413 95.23C59.9164 94.4462 59.9717 95.7093 57.9399 94.8169C55.9971 95.779 59.6531 96.0178 60.0585 96.113C61.9788 96.5565 61.8292 97.7709 63.8332 97.5572C63.2032 96.7791 62.7286 96.0064 62.1413 95.23ZM81.8544 97.7998C80.3223 98.3362 82.9976 98.4984 83.1447 98.623C84.3113 100.009 75.8837 99.1583 81.8544 97.7998ZM30.7613 32.9302C31.4447 32.5146 30.6814 32.2986 31.1787 31.748C31.6297 31.2154 33.9756 30.3568 33.7115 30.0834C33.5015 29.7519 29.1437 31.3534 32.85 28.7651C32.6105 28.6626 32.5706 28.501 32.4078 28.3755C31.3536 29.0187 30.3032 29.6847 29.2342 30.4106C30.1704 30.5109 31.0852 30.6777 31.9493 30.8242C31.6383 31.605 30.9902 31.2885 30.9585 31.3091C30.9589 31.3096 30.9593 31.3101 30.9596 31.3107C29.8759 32.0905 29.2715 33.8594 30.7613 32.9302ZM13.0786 86.6629C14.0584 85.4808 11.4581 85.9283 10.5921 85.5042C9.75178 85.1406 9.15582 83.8725 9.09242 84.6814C9.94723 86.0744 13.0149 86.8515 13.0796 86.6612C13.0793 86.6618 13.0789 86.6623 13.0786 86.6629ZM49.7362 94.1026C47.783 94.2619 48.0346 94.6913 45.7415 93.9649C45.7886 94.3409 45.8352 94.725 45.8836 95.0954C47.7531 95.3231 47.7438 94.249 49.8559 94.9078C50.2022 95.0151 49.3582 95.7857 50.9812 95.6776C50.5649 95.1778 50.1466 94.6264 49.7362 94.1026ZM40.0446 94.2666C42.2702 94.5282 44.4043 91.8198 40.1817 92.5792C39.555 92.6898 38.3711 94.0622 40.0446 94.2666ZM17.8675 49.0351C19.1732 45.3865 17.2916 49.4218 16.6216 50.2354C19.1032 41.3982 16.3233 51.4165 14.7749 51.5454C14.9174 52.5778 15.1853 54.6037 16.1375 52.807C16.5179 52.021 15.9837 52.1788 16.0028 52.131C16.5923 50.6233 17.2229 51.0004 17.8675 49.0351ZM66.0953 95.4818C65.9546 95.4925 66.1299 96.0226 65.6785 96.0878C65.2212 96.1517 64.2427 95.7106 64.1171 96.0166C63.9906 96.3242 65.9953 96.7361 66.6326 96.5594C67.2752 96.3805 67.3798 95.392 66.0953 95.4818ZM51.8993 92.977C49.9888 93.1555 52.8626 95.3478 53.2718 95.3751C56.8576 95.6135 51.7286 93.5687 51.8993 92.977ZM17.4801 58.5535C19.179 53.6296 15.9447 56.5184 13.6177 57.6121C13.5432 58.0074 13.4681 58.3859 13.3593 58.7801C13.5861 56.9381 13.9723 54.7696 12.0613 57.7602C11.7302 58.1727 11.3549 58.6748 10.9493 59.2816C11.7997 58.4811 12.2481 58.1887 12.4242 58.1325C12.5099 58.113 12.5332 58.1529 12.517 58.2278C12.4318 58.506 11.8474 59.2716 11.8686 59.309C12.3403 59.9516 13.0082 59.7983 13.7327 59.4753C15.124 58.9134 16.4656 57.1581 17.4775 58.5574C17.4783 58.5561 17.4792 58.5548 17.4801 58.5535ZM72.0174 96.5888C72.8525 96.6803 74.3028 96.7825 75.3857 96.8105C76.9257 96.8639 78.0791 96.6009 76.7259 95.8825C76.2998 95.9351 75.9039 95.9842 75.533 96.0275C74.3693 96.1684 73.2022 96.3719 72.0174 96.5888ZM73.6735 20.1951C75.3695 20.3755 76.773 20.0419 78.68 19.5816C76.8009 19.1563 77.9086 18.8124 78.4286 18.491C79.2568 17.9971 77.1296 18.4936 77.0972 18.4457C76.9778 17.6728 78.2995 17.244 75.1887 17.9729C75.9262 17.5235 76.59 17.0915 77.3264 16.65C74.9328 17.1506 74.2587 16.7877 72.5984 16.5389C74.4016 17.6787 72.2626 17.1982 70.6956 18.3626C69.9153 18.9437 72.8307 20.0944 73.6793 20.1938C73.6774 20.1942 73.6755 20.1947 73.6735 20.1951ZM20.0461 53.9805C19.9469 53.417 19.7237 52.8837 19.5551 52.3556C19.67 51.8687 19.7802 51.3906 19.8885 50.9136C20.138 50.9244 20.3955 50.9481 20.6387 50.9474C20.8846 50.3628 20.4918 50.5024 20.5151 50.3132C20.5164 50.3136 20.5176 50.314 20.5189 50.3144C20.863 47.66 21.3617 46.6284 22.9564 45.2979C22.3119 44.9279 21.6673 44.5579 21.0228 44.1879C20.8475 44.635 20.67 45.1186 20.5274 45.5706C20.7721 45.9806 21.0293 46.3766 21.2974 46.7576C20.8815 47.1529 20.4818 47.5643 20.0867 48.0072C20.0735 48.4626 20.0488 49.0149 20.0689 49.4166C17.41 50.9098 20.3083 46.5364 19.6292 46.1968C19.0191 45.9133 17.4174 50.9561 17.6332 51.7267C17.6533 51.8457 19.4636 51.2297 18.1393 52.7889C17.9016 53.0576 14.8058 52.0091 16.594 54.7467C16.8184 55.1781 19.1679 55.0802 20.0461 53.9805ZM29.1818 40.0371C25.6547 40.1053 34.9805 35.6307 30.4589 36.8911C30.8751 35.3539 30.7085 35.4867 29.1496 35.5707C29.0086 35.5782 29.5614 34.8219 29.4832 34.8393C28.2161 35.1737 27.1925 36.3516 26.6278 35.6865C26.3854 35.95 26.1642 36.1942 25.9392 36.4537C27.551 36.1502 26.2036 38.0333 26.1022 39.1204C26.0534 39.6046 26.7366 39.0845 26.701 39.5003C26.6908 39.6409 25.6912 40.3528 25.8733 40.5886C26.277 41.1153 27.4133 41.1833 28.6079 40.7369C28.6083 40.7373 28.6088 40.7378 28.6092 40.7383C28.8101 40.4951 28.9845 40.2691 29.1818 40.0371ZM20.7216 84.7823C20.7591 86.0294 22.5738 87.028 18.788 86.326C18.8805 86.6093 18.9844 86.8933 19.0877 87.1775C19.7254 87.3828 20.315 87.5555 20.954 87.7322C21.3335 87.3757 21.6993 87.1432 22.0504 87.002C24.3194 86.0335 25.9665 89.2245 24.6114 86.6558C24.444 86.3355 22.9274 86.2369 24.5359 85.9137C24.5342 85.9125 24.5324 85.9114 24.5307 85.9103C23.5427 85.7598 22.9508 85.752 22.4352 85.6622C21.8794 85.5626 21.4113 85.3687 20.7216 84.7823ZM9.55508 78.2897C7.38447 76.8728 7.65031 78.49 9.02831 80.2166C10.3886 81.9083 12.6755 82.9503 12.1006 82.113C12.0537 82.0396 10.9669 81.3348 10.1878 80.423C9.37912 79.5072 8.94596 78.4458 9.55508 78.2897ZM44.5783 88.2939C42.4872 87.9783 42.1595 89.2805 42.3072 89.7912C42.4571 90.303 43.9846 90.0123 44.1659 90.1116C44.7532 90.4415 43.4167 90.4364 44.178 90.8832C44.4308 91.0361 48.0765 91.9556 48.2622 91.9118C49.2438 91.6982 47.9851 90.4421 48.2701 90.3462C49.1942 90.0326 50.3212 90.7324 50.6394 90.1728C51.3182 88.9805 48.9621 90.0577 48.5842 90.0346C47.441 89.9657 47.6286 89.2739 46.8012 89.0335C45.9721 88.7919 45.3993 88.9652 44.6617 88.8205C44.4166 88.7722 44.6846 88.3121 44.5783 88.2939ZM37.1979 90.0854C39.5561 89.4448 34.4013 87.4684 33.7439 87.5636C31.7498 87.9094 36.0426 90.406 37.1979 90.0854ZM22.2534 42.8657C21.741 44.9082 24.8072 41.4969 25.5745 40.4473C25.1819 40.3545 22.4111 42.0915 22.2534 42.8657ZM16.6213 59.6792C17.6314 58.0291 15.2966 58.9404 14.0363 59.7868C13.9016 59.8817 13.7792 59.9846 13.6747 60.0934C13.794 61.2714 14.1194 60.9297 14.6472 60.4137C14.7697 60.2946 14.8984 60.166 15.0319 60.0388C15.8105 59.2654 15.6587 61.0577 16.6213 59.6792ZM67.5258 91.7098C67.1115 91.651 60.5069 92.0182 64.2311 92.6984C64.4947 92.7449 69.1163 92.9762 69.4613 92.8481C70.2002 92.5762 68.5639 91.8465 67.5258 91.7098ZM12.5656 67.1945C12.1508 66.0043 12.6895 65.2299 11.2939 65.3449C11.2933 65.3459 11.2926 65.347 11.2919 65.348C12.3263 63.1551 14.2527 64.5292 14.4905 64.1288C15.4487 62.7416 13.1702 62.9106 13.5136 61.7193C12.1686 64.0515 11.8122 62.7808 10.5678 64.4506C10.2768 64.8294 9.94049 66.7577 10.2221 67.1537C10.4793 67.548 11.9447 67.317 12.5656 67.1945ZM76.8046 92.5916C76.5855 92.5169 76.3856 92.4657 76.2086 92.435C74.251 92.1129 72.7983 93.1681 75.5084 93.7983C75.6585 93.8365 75.8023 93.8599 75.9386 93.8706C77.0384 93.935 77.9799 92.9535 76.8046 92.5916ZM125.127 13.8306C124.749 13.4719 124.357 13.1164 123.948 12.7647C124.745 12.5722 125.549 12.3758 126.349 12.1786C125.728 12.3822 125.08 12.5863 124.463 12.786C125.989 12.7441 126.801 13.38 125.131 13.8301C125.13 13.8302 125.128 13.8304 125.127 13.8306ZM178.045 14.112C178.575 14.6548 180.158 13.8829 180.03 13.748C179.019 12.709 177.293 13.3538 178.045 14.112ZM26.8265 42.9201C28.4572 41.4215 26.0012 41.136 24.937 42.1849C25.775 41.7755 25.9447 43.7932 26.8265 42.9201ZM159.634 10.5526C159.435 10.3623 159.234 10.173 159.004 9.98236C159.751 10.2908 159.866 10.4657 159.634 10.5526ZM66.6243 89.9089C66.2548 89.7268 63.3726 89.3671 62.9839 89.5209C62.1477 89.8423 64.2985 91.0945 65.6412 90.8744C65.7958 90.8514 66.9952 90.0899 66.6183 89.9084C66.6203 89.9086 66.6223 89.9087 66.6243 89.9089ZM128.66 14.1483C128.653 14.1304 128.653 14.1125 128.659 14.0952C128.659 14.1128 128.662 14.1305 128.66 14.1483ZM221.686 47.3174C221.697 47.2858 221.713 47.2591 221.734 47.2399C221.719 47.2638 221.706 47.2929 221.686 47.3174ZM46.7468 86.3921C46.0407 84.4425 43.7872 85.1445 45.3604 86.2702C45.4502 86.3306 46.5177 86.3615 46.7468 86.3921Z" fill="#E8DCCD"/>
<path d="M80.6545 43.2295C80.6545 43.5264 80.5529 43.7451 80.3498 43.8857C80.1623 44.042 79.9514 44.1201 79.717 44.1201C79.4826 44.1201 79.2639 44.042 79.0607 43.8857C78.8732 43.7451 78.7795 43.5264 78.7795 43.2295C78.7795 40.7295 78.8107 38.2451 78.8732 35.7764C78.9357 33.292 79.0842 30.8076 79.3186 28.3232C79.3498 28.0576 79.4436 27.8467 79.5998 27.6904C79.7717 27.5342 79.9514 27.4482 80.1389 27.4326C80.342 27.4014 80.5373 27.4404 80.7248 27.5498C80.9279 27.6436 81.0764 27.8154 81.1701 28.0654C81.4826 28.9561 81.7717 29.8545 82.0373 30.7607C82.3029 31.6514 82.5607 32.5498 82.8107 33.4561C83.0764 34.3623 83.342 35.2686 83.6076 36.1748C83.8889 37.0654 84.1936 37.9482 84.5217 38.8232C85.3342 36.7764 86.0686 34.7217 86.7248 32.6592C87.3967 30.5967 87.9357 28.4795 88.342 26.3076C88.3889 26.0732 88.4982 25.9014 88.6701 25.792C88.842 25.6826 89.0295 25.6279 89.2326 25.6279C89.4514 25.6279 89.6467 25.6826 89.8186 25.792C89.9904 25.9014 90.0998 26.0732 90.1467 26.3076C90.2717 27.0107 90.3107 27.7061 90.2639 28.3936C90.2326 29.0654 90.217 29.7529 90.217 30.4561C90.217 31.2061 90.2561 31.9404 90.3342 32.6592C90.4279 33.3779 90.5061 34.1045 90.5686 34.8389C90.6936 36.3076 90.7873 37.7764 90.8498 39.2451C90.9123 40.7139 90.967 42.1826 91.0139 43.6514C91.0139 43.9639 90.9201 44.1904 90.7326 44.3311C90.5451 44.4873 90.3342 44.5654 90.0998 44.5654C89.8654 44.5654 89.6467 44.4873 89.4436 44.3311C89.2404 44.1904 89.1389 43.9639 89.1389 43.6514C89.1076 42.1826 89.0529 40.7139 88.9748 39.2451C88.9123 37.7764 88.8186 36.3076 88.6936 34.8389C88.6623 34.5732 88.6311 34.2998 88.5998 34.0186C88.5842 33.7373 88.5607 33.4639 88.5295 33.1982C88.0764 34.6201 87.5842 36.0186 87.0529 37.3936C86.5373 38.7686 85.9982 40.1436 85.4357 41.5186C85.3576 41.7061 85.2404 41.8701 85.0842 42.0107C84.9436 42.1357 84.7639 42.1982 84.5451 42.1982C84.3889 42.1982 84.2326 42.1592 84.0764 42.0811C83.9201 41.9873 83.8029 41.8701 83.7248 41.7295C83.0998 40.3545 82.5686 38.9561 82.1311 37.5342C81.6936 36.1123 81.2639 34.6748 80.842 33.2217C80.7639 34.8936 80.7092 36.5654 80.6779 38.2373C80.6623 39.8936 80.6545 41.5576 80.6545 43.2295ZM97.7029 43.0654C97.1717 42.8311 96.7498 42.5107 96.4373 42.1045C96.1404 41.6826 95.9295 41.2217 95.8045 40.7217C95.6951 40.2217 95.6639 39.7061 95.7107 39.1748C95.7576 38.6279 95.867 38.1045 96.0389 37.6045C96.1795 37.2139 96.3357 36.8076 96.5076 36.3857C96.6951 35.9639 96.9139 35.5732 97.1639 35.2139C97.4139 34.8545 97.7107 34.5498 98.0545 34.2998C98.3982 34.0342 98.8045 33.8623 99.2732 33.7842C99.7576 33.7061 100.242 33.6826 100.726 33.7139C101.226 33.7295 101.719 33.7764 102.203 33.8545C102.422 33.8857 102.633 33.9404 102.836 34.0186C103.039 34.0811 103.242 34.1514 103.445 34.2295C103.461 33.9951 103.562 33.7998 103.75 33.6436C103.953 33.4873 104.164 33.4092 104.383 33.4092C104.648 33.4092 104.859 33.5029 105.015 33.6904C105.187 33.8623 105.289 34.0732 105.32 34.3232C105.398 35.042 105.429 35.7607 105.414 36.4795C105.414 37.1982 105.39 37.917 105.344 38.6357C105.312 39.3545 105.281 40.0732 105.25 40.792C105.234 41.5107 105.242 42.2295 105.273 42.9482C105.289 43.2451 105.195 43.4717 104.992 43.6279C104.804 43.7686 104.594 43.8389 104.359 43.8389C104.125 43.8389 103.906 43.7686 103.703 43.6279C103.515 43.4717 103.414 43.2451 103.398 42.9482C102.508 43.3232 101.562 43.542 100.562 43.6045C99.5623 43.6514 98.6092 43.4717 97.7029 43.0654ZM97.867 37.9795C97.7732 38.2607 97.6873 38.5811 97.6092 38.9404C97.5311 39.2998 97.5076 39.6436 97.5389 39.9717C97.5701 40.2998 97.6717 40.6045 97.8436 40.8857C98.0154 41.1514 98.2967 41.3389 98.6873 41.4482C99.4842 41.6982 100.281 41.7686 101.078 41.6592C101.89 41.5498 102.648 41.2686 103.351 40.8154C103.414 40.0498 103.461 39.3076 103.492 38.5889C103.539 37.8701 103.554 37.1436 103.539 36.4092C103.273 36.2373 103 36.0889 102.719 35.9639C102.453 35.8232 102.156 35.7295 101.828 35.6826C101.5 35.6357 101.148 35.6045 100.773 35.5889C100.414 35.5576 100.062 35.5576 99.7186 35.5889C99.6873 35.5889 99.6014 35.6123 99.4607 35.6592C99.3357 35.6904 99.2654 35.7139 99.2498 35.7295C99.0936 35.8076 98.9529 35.9326 98.8279 36.1045C98.6248 36.3857 98.4451 36.6904 98.2889 37.0186C98.1326 37.3311 97.992 37.6514 97.867 37.9795ZM110.392 34.1592C110.408 33.8623 110.517 33.6436 110.72 33.5029C110.923 33.3467 111.142 33.2686 111.376 33.2686C111.611 33.2686 111.814 33.3467 111.986 33.5029C112.173 33.6436 112.259 33.8623 112.244 34.1592C112.244 34.2529 112.236 34.3545 112.22 34.4639C112.22 34.5576 112.22 34.6514 112.22 34.7451C112.72 34.4951 113.244 34.2842 113.79 34.1123C114.353 33.9248 114.908 33.8076 115.454 33.7607C116.017 33.7139 116.556 33.7607 117.072 33.9014C117.603 34.0264 118.087 34.2764 118.525 34.6514C118.744 34.8545 118.837 35.0732 118.806 35.3076C118.79 35.542 118.697 35.7451 118.525 35.917C118.369 36.0732 118.165 36.1748 117.915 36.2217C117.665 36.2529 117.423 36.1748 117.189 35.9873C117.017 35.8467 116.822 35.7451 116.603 35.6826C116.4 35.6201 116.173 35.5967 115.923 35.6123C115.689 35.6123 115.447 35.6357 115.197 35.6826C114.962 35.7295 114.736 35.7842 114.517 35.8467C113.689 36.1123 112.915 36.4639 112.197 36.9014C112.228 37.667 112.275 38.4326 112.337 39.1982C112.4 39.8389 112.454 40.5029 112.501 41.1904C112.548 41.8623 112.681 42.5029 112.9 43.1123C112.994 43.3936 112.97 43.6279 112.829 43.8154C112.704 44.0186 112.525 44.1514 112.29 44.2139C112.072 44.2764 111.837 44.2607 111.587 44.167C111.353 44.0732 111.189 43.8857 111.095 43.6045C110.97 43.2451 110.884 42.8779 110.837 42.5029C110.79 42.1279 110.744 41.7529 110.697 41.3779C110.665 41.0186 110.626 40.6592 110.579 40.2998C110.548 39.9248 110.517 39.5576 110.486 39.1982C110.408 38.3545 110.353 37.5186 110.322 36.6904C110.306 35.8467 110.329 35.0029 110.392 34.1592ZM124.534 43.2295C124.534 43.5264 124.433 43.7451 124.229 43.8857C124.042 44.042 123.831 44.1201 123.597 44.1201C123.362 44.1201 123.144 44.042 122.94 43.8857C122.753 43.7451 122.659 43.5264 122.659 43.2295C122.659 40.7295 122.69 38.2451 122.753 35.7764C122.815 33.292 122.964 30.8076 123.198 28.3232C123.229 28.0576 123.323 27.8467 123.479 27.6904C123.651 27.5342 123.831 27.4482 124.019 27.4326C124.222 27.4014 124.417 27.4404 124.604 27.5498C124.808 27.6436 124.956 27.8154 125.05 28.0654C125.362 28.9561 125.651 29.8545 125.917 30.7607C126.183 31.6514 126.44 32.5498 126.69 33.4561C126.956 34.3623 127.222 35.2686 127.487 36.1748C127.769 37.0654 128.073 37.9482 128.401 38.8232C129.214 36.7764 129.948 34.7217 130.604 32.6592C131.276 30.5967 131.815 28.4795 132.222 26.3076C132.269 26.0732 132.378 25.9014 132.55 25.792C132.722 25.6826 132.909 25.6279 133.112 25.6279C133.331 25.6279 133.526 25.6826 133.698 25.792C133.87 25.9014 133.979 26.0732 134.026 26.3076C134.151 27.0107 134.19 27.7061 134.144 28.3936C134.112 29.0654 134.097 29.7529 134.097 30.4561C134.097 31.2061 134.136 31.9404 134.214 32.6592C134.308 33.3779 134.386 34.1045 134.448 34.8389C134.573 36.3076 134.667 37.7764 134.729 39.2451C134.792 40.7139 134.847 42.1826 134.894 43.6514C134.894 43.9639 134.8 44.1904 134.612 44.3311C134.425 44.4873 134.214 44.5654 133.979 44.5654C133.745 44.5654 133.526 44.4873 133.323 44.3311C133.12 44.1904 133.019 43.9639 133.019 43.6514C132.987 42.1826 132.933 40.7139 132.854 39.2451C132.792 37.7764 132.698 36.3076 132.573 34.8389C132.542 34.5732 132.511 34.2998 132.479 34.0186C132.464 33.7373 132.44 33.4639 132.409 33.1982C131.956 34.6201 131.464 36.0186 130.933 37.3936C130.417 38.7686 129.878 40.1436 129.315 41.5186C129.237 41.7061 129.12 41.8701 128.964 42.0107C128.823 42.1357 128.644 42.1982 128.425 42.1982C128.269 42.1982 128.112 42.1592 127.956 42.0811C127.8 41.9873 127.683 41.8701 127.604 41.7295C126.979 40.3545 126.448 38.9561 126.011 37.5342C125.573 36.1123 125.144 34.6748 124.722 33.2217C124.644 34.8936 124.589 36.5654 124.558 38.2373C124.542 39.8936 124.534 41.5576 124.534 43.2295ZM141.583 43.0654C141.051 42.8311 140.629 42.5107 140.317 42.1045C140.02 41.6826 139.809 41.2217 139.684 40.7217C139.575 40.2217 139.544 39.7061 139.59 39.1748C139.637 38.6279 139.747 38.1045 139.919 37.6045C140.059 37.2139 140.215 36.8076 140.387 36.3857C140.575 35.9639 140.794 35.5732 141.044 35.2139C141.294 34.8545 141.59 34.5498 141.934 34.2998C142.278 34.0342 142.684 33.8623 143.153 33.7842C143.637 33.7061 144.122 33.6826 144.606 33.7139C145.106 33.7295 145.598 33.7764 146.083 33.8545C146.301 33.8857 146.512 33.9404 146.715 34.0186C146.919 34.0811 147.122 34.1514 147.325 34.2295C147.34 33.9951 147.442 33.7998 147.629 33.6436C147.833 33.4873 148.044 33.4092 148.262 33.4092C148.528 33.4092 148.739 33.5029 148.895 33.6904C149.067 33.8623 149.169 34.0732 149.2 34.3232C149.278 35.042 149.309 35.7607 149.294 36.4795C149.294 37.1982 149.27 37.917 149.223 38.6357C149.192 39.3545 149.161 40.0732 149.129 40.792C149.114 41.5107 149.122 42.2295 149.153 42.9482C149.169 43.2451 149.075 43.4717 148.872 43.6279C148.684 43.7686 148.473 43.8389 148.239 43.8389C148.004 43.8389 147.786 43.7686 147.583 43.6279C147.395 43.4717 147.294 43.2451 147.278 42.9482C146.387 43.3232 145.442 43.542 144.442 43.6045C143.442 43.6514 142.489 43.4717 141.583 43.0654ZM141.747 37.9795C141.653 38.2607 141.567 38.5811 141.489 38.9404C141.411 39.2998 141.387 39.6436 141.419 39.9717C141.45 40.2998 141.551 40.6045 141.723 40.8857C141.895 41.1514 142.176 41.3389 142.567 41.4482C143.364 41.6982 144.161 41.7686 144.958 41.6592C145.77 41.5498 146.528 41.2686 147.231 40.8154C147.294 40.0498 147.34 39.3076 147.372 38.5889C147.419 37.8701 147.434 37.1436 147.419 36.4092C147.153 36.2373 146.879 36.0889 146.598 35.9639C146.333 35.8232 146.036 35.7295 145.708 35.6826C145.379 35.6357 145.028 35.6045 144.653 35.5889C144.294 35.5576 143.942 35.5576 143.598 35.5889C143.567 35.5889 143.481 35.6123 143.34 35.6592C143.215 35.6904 143.145 35.7139 143.129 35.7295C142.973 35.8076 142.833 35.9326 142.708 36.1045C142.504 36.3857 142.325 36.6904 142.169 37.0186C142.012 37.3311 141.872 37.6514 141.747 37.9795ZM154.272 34.1592C154.287 33.8623 154.397 33.6436 154.6 33.5029C154.803 33.3467 155.022 33.2686 155.256 33.2686C155.49 33.2686 155.694 33.3467 155.865 33.5029C156.053 33.6436 156.139 33.8623 156.123 34.1592C156.123 34.2529 156.115 34.3545 156.1 34.4639C156.1 34.5576 156.1 34.6514 156.1 34.7451C156.6 34.4951 157.123 34.2842 157.67 34.1123C158.233 33.9248 158.787 33.8076 159.334 33.7607C159.897 33.7139 160.436 33.7607 160.951 33.9014C161.483 34.0264 161.967 34.2764 162.404 34.6514C162.623 34.8545 162.717 35.0732 162.686 35.3076C162.67 35.542 162.576 35.7451 162.404 35.917C162.248 36.0732 162.045 36.1748 161.795 36.2217C161.545 36.2529 161.303 36.1748 161.069 35.9873C160.897 35.8467 160.701 35.7451 160.483 35.6826C160.279 35.6201 160.053 35.5967 159.803 35.6123C159.569 35.6123 159.326 35.6357 159.076 35.6826C158.842 35.7295 158.615 35.7842 158.397 35.8467C157.569 36.1123 156.795 36.4639 156.076 36.9014C156.108 37.667 156.154 38.4326 156.217 39.1982C156.279 39.8389 156.334 40.5029 156.381 41.1904C156.428 41.8623 156.561 42.5029 156.779 43.1123C156.873 43.3936 156.85 43.6279 156.709 43.8154C156.584 44.0186 156.404 44.1514 156.17 44.2139C155.951 44.2764 155.717 44.2607 155.467 44.167C155.233 44.0732 155.069 43.8857 154.975 43.6045C154.85 43.2451 154.764 42.8779 154.717 42.5029C154.67 42.1279 154.623 41.7529 154.576 41.3779C154.545 41.0186 154.506 40.6592 154.459 40.2998C154.428 39.9248 154.397 39.5576 154.365 39.1982C154.287 38.3545 154.233 37.5186 154.201 36.6904C154.186 35.8467 154.209 35.0029 154.272 34.1592ZM57.0506 69.9014C56.6756 68.9951 56.4178 68.0654 56.2771 67.1123C56.199 66.5654 56.1287 66.0186 56.0662 65.4717C56.0193 64.9092 56.074 64.3545 56.2303 63.8076C56.3084 63.4639 56.41 63.1357 56.535 62.8232C56.66 62.4951 56.785 62.167 56.91 61.8389C57.0037 61.5889 57.0662 61.3389 57.0975 61.0889C57.1443 60.8389 57.2068 60.5811 57.285 60.3154C57.4412 59.7529 57.6756 59.2686 57.9881 58.8623C58.3006 58.4404 58.7146 58.0967 59.2303 57.8311C59.7146 57.5654 60.2146 57.3545 60.7303 57.1982C61.2459 57.042 61.7693 56.917 62.3006 56.8232C62.785 56.7295 63.2693 56.6592 63.7537 56.6123C64.2537 56.5654 64.7537 56.5732 65.2537 56.6357C65.5193 56.667 65.7381 56.7607 65.91 56.917C66.0975 57.0732 66.1912 57.2842 66.1912 57.5498C66.1912 57.7842 66.0975 58.0107 65.91 58.2295C65.7381 58.4326 65.5193 58.5186 65.2537 58.4873C65.2068 58.4873 65.16 58.4873 65.1131 58.4873C65.0662 58.4717 65.0193 58.4639 64.9725 58.4639C64.5037 58.4326 64.0271 58.4482 63.5428 58.5107C63.074 58.5576 62.6131 58.6357 62.16 58.7451C61.8943 58.8232 61.6287 58.9014 61.3631 58.9795C61.0975 59.042 60.8396 59.1279 60.5896 59.2373C60.4178 59.3154 60.2459 59.4014 60.074 59.4951C59.949 59.5576 59.8631 59.6123 59.8162 59.6592C59.5193 59.9092 59.324 60.1436 59.2303 60.3623C59.1365 60.5811 59.0584 60.8154 58.9959 61.0654C58.949 61.2998 58.9021 61.542 58.8553 61.792C58.8084 62.042 58.7459 62.2764 58.6678 62.4951C58.5428 62.8076 58.4178 63.1279 58.2928 63.4561C58.1678 63.7842 58.0662 64.1201 57.9881 64.4639C57.9412 64.6982 57.9256 64.9326 57.9412 65.167C57.9568 65.4014 57.9803 65.6357 58.0115 65.8701C58.0428 66.2764 58.0896 66.6982 58.1521 67.1357C58.2303 67.5732 58.3318 67.9951 58.4568 68.4014C58.5818 68.8076 58.7459 69.1982 58.949 69.5732C59.1678 69.9326 59.4334 70.2529 59.7459 70.5342C60.1365 70.8623 60.5818 71.1045 61.0818 71.2607C61.5818 71.4014 62.0818 71.5029 62.5818 71.5654C63.2068 71.6592 63.8162 71.667 64.41 71.5889C65.0037 71.5107 65.5662 71.292 66.0975 70.9326C66.3475 70.7764 66.5818 70.7451 66.8006 70.8389C67.035 70.917 67.2068 71.0576 67.3162 71.2607C67.4412 71.4482 67.4881 71.6748 67.4568 71.9404C67.4412 72.1904 67.3084 72.3936 67.0584 72.5498C66.3084 73.0498 65.5037 73.3467 64.6443 73.4404C63.8006 73.5186 62.949 73.4951 62.0896 73.3701C61.5115 73.292 60.949 73.1748 60.4021 73.0186C59.8553 72.8467 59.3475 72.5811 58.8787 72.2217C58.0662 71.6279 57.4568 70.8545 57.0506 69.9014ZM76.7709 62.8936C77.2709 62.8311 77.7943 62.8154 78.3412 62.8467C78.8881 62.8623 79.4115 62.9561 79.9115 63.1279C80.4115 63.2842 80.8646 63.5264 81.2709 63.8545C81.6771 64.1826 81.9896 64.6123 82.2084 65.1436C82.3646 65.5186 82.4428 65.9014 82.4428 66.292C82.4584 66.667 82.4037 67.0342 82.2787 67.3936C82.1693 67.7373 81.9975 68.0732 81.7631 68.4014C81.5443 68.7139 81.2865 69.0029 80.9896 69.2686C80.349 69.8467 79.6459 70.3389 78.8803 70.7451C78.1146 71.1514 77.31 71.4639 76.4662 71.6826C76.1068 71.7764 75.7318 71.8623 75.3412 71.9404C74.9662 72.0029 74.5834 72.0342 74.1928 72.0342C73.8021 72.0342 73.4193 71.9951 73.0443 71.917C72.6693 71.8232 72.3178 71.6748 71.9896 71.4717C71.7553 71.3311 71.6146 71.1436 71.5678 70.9092C71.474 70.6436 71.3725 70.3936 71.2631 70.1592C71.1537 69.9248 71.0443 69.6826 70.935 69.4326C70.8412 69.1826 70.7631 68.9326 70.7006 68.6826C70.6381 68.4326 70.6068 68.1748 70.6068 67.9092C70.6068 67.3779 70.7162 66.8779 70.935 66.4092C71.1693 65.9248 71.4818 65.5029 71.8725 65.1436C72.5287 64.5186 73.2865 64.0186 74.1459 63.6436C75.0053 63.2686 75.8803 63.0186 76.7709 62.8936ZM79.4193 64.9092C78.9975 64.7529 78.5443 64.6748 78.06 64.6748C77.5443 64.6592 77.0287 64.7139 76.5131 64.8389C75.9975 64.9482 75.5053 65.1045 75.0365 65.3076C74.599 65.4795 74.1459 65.7217 73.6771 66.0342C73.224 66.3311 72.8881 66.6982 72.6693 67.1357C72.5443 67.3701 72.4818 67.6123 72.4818 67.8623C72.4975 68.0967 72.5365 68.3389 72.599 68.5889C72.6771 68.8232 72.7709 69.0654 72.8803 69.3154C73.0053 69.5498 73.1146 69.7842 73.2084 70.0186C73.4584 70.0811 73.6146 70.1123 73.6771 70.1123C73.7084 70.1279 73.7475 70.1357 73.7943 70.1357C73.8412 70.1357 73.8803 70.1357 73.9115 70.1357C74.224 70.167 74.5053 70.1592 74.7553 70.1123C74.9271 70.1123 75.1459 70.0811 75.4115 70.0186C75.8178 69.9404 76.2084 69.8389 76.5834 69.7139C76.9584 69.5732 77.3021 69.4248 77.6146 69.2686C77.974 69.0967 78.3256 68.9092 78.6693 68.7061C79.0131 68.5029 79.3021 68.292 79.5365 68.0732C79.6928 67.9326 79.8412 67.7842 79.9818 67.6279C80.06 67.5498 80.1146 67.4873 80.1459 67.4404C80.224 67.3311 80.2865 67.2529 80.3334 67.2061C80.3803 67.1436 80.4193 67.0732 80.4506 66.9951C80.5131 66.8857 80.5443 66.7998 80.5443 66.7373C80.56 66.7061 80.5678 66.667 80.5678 66.6201C80.5834 66.5732 80.599 66.5342 80.6146 66.5029V66.2451C80.599 66.1826 80.5912 66.1357 80.5912 66.1045C80.5912 66.0732 80.5834 66.042 80.5678 66.0107C80.5209 65.9014 80.474 65.8232 80.4271 65.7764C80.3959 65.7139 80.3568 65.6514 80.31 65.5889C80.3256 65.6045 80.3021 65.5811 80.2396 65.5186C80.1928 65.4561 80.1615 65.417 80.1459 65.4014L79.9584 65.2139C79.8803 65.167 79.7943 65.1123 79.7006 65.0498C79.6068 64.9873 79.5131 64.9404 79.4193 64.9092ZM88.8271 80.4482C88.8428 80.7451 88.7568 80.9639 88.5693 81.1045C88.3975 81.2607 88.1943 81.3389 87.96 81.3389C87.7256 81.3389 87.5068 81.2607 87.3037 81.1045C87.1006 80.9639 86.9912 80.7451 86.9756 80.4482C86.8037 77.9482 86.7021 75.4561 86.6709 72.9717C86.6396 70.4717 86.5693 67.9717 86.46 65.4717C86.2412 65.1279 86.2256 64.7998 86.4131 64.4873C86.3975 64.3154 86.3818 64.1592 86.3662 64.0186C86.3662 63.8623 86.3584 63.6982 86.3428 63.5264C86.3271 63.2451 86.4053 63.0342 86.5771 62.8936C86.749 62.7373 86.9443 62.6514 87.1631 62.6357C87.3975 62.6201 87.6162 62.6826 87.8193 62.8232C88.0225 62.9482 88.1475 63.1436 88.1943 63.4092C88.46 63.2842 88.71 63.167 88.9443 63.0576C89.1943 62.9482 89.4521 62.8389 89.7178 62.7295C89.9365 62.6357 90.1787 62.5498 90.4443 62.4717C90.71 62.3779 90.9834 62.3076 91.2646 62.2607C91.5459 62.2139 91.8193 62.1904 92.085 62.1904C92.3662 62.1904 92.624 62.2373 92.8584 62.3311C93.3271 62.5186 93.71 62.7998 94.0068 63.1748C94.3193 63.5498 94.5771 63.9639 94.7803 64.417C94.9678 64.8545 95.1475 65.2998 95.3193 65.7529C95.4912 66.1904 95.585 66.6436 95.6006 67.1123C95.6162 67.5967 95.5459 68.0498 95.3896 68.4717C95.2334 68.8936 95.0146 69.2764 94.7334 69.6201C94.4678 69.9639 94.1475 70.2686 93.7725 70.5342C93.3975 70.7998 92.999 71.0264 92.5771 71.2139C92.124 71.417 91.6553 71.5967 91.1709 71.7529C90.6865 71.9092 90.1943 72.0107 89.6943 72.0576C89.4756 72.0889 89.2646 72.0811 89.0615 72.0342C88.874 71.9873 88.6943 71.9248 88.5225 71.8467C88.5537 73.2998 88.585 74.7373 88.6162 76.1592C88.6631 77.5811 88.7334 79.0107 88.8271 80.4482ZM88.335 65.4248C88.3662 66.1436 88.3896 66.8623 88.4053 67.5811C88.4209 68.2842 88.4443 68.9951 88.4756 69.7139C88.5693 69.7764 88.6631 69.8389 88.7568 69.9014C88.8506 69.9482 88.9521 70.0029 89.0615 70.0654C89.1865 70.1436 89.2881 70.1904 89.3662 70.2061C89.4443 70.2061 89.5693 70.1904 89.7412 70.1592C90.085 70.0811 90.4287 70.0029 90.7725 69.9248C91.1162 69.8311 91.4443 69.7061 91.7568 69.5498C92.0537 69.4092 92.335 69.2607 92.6006 69.1045C92.8662 68.9326 93.1084 68.7139 93.3271 68.4482C93.4678 68.2764 93.5771 68.0811 93.6553 67.8623C93.7334 67.6279 93.7568 67.3779 93.7256 67.1123C93.71 66.7998 93.6318 66.4795 93.4912 66.1514C93.3662 65.8232 93.2412 65.5186 93.1162 65.2373C93.0381 65.0967 92.96 64.9561 92.8818 64.8154C92.8193 64.6592 92.7412 64.5186 92.6475 64.3936C92.5068 64.2529 92.3975 64.167 92.3193 64.1357C91.8818 64.1045 91.499 64.1279 91.1709 64.2061C90.8428 64.2842 90.5146 64.3936 90.1865 64.5342C89.874 64.6592 89.5615 64.7998 89.249 64.9561C88.9365 65.1123 88.6318 65.2686 88.335 65.4248ZM100.485 64.6045C100.782 64.1982 101.133 63.8389 101.54 63.5264C101.962 63.2139 102.407 62.9717 102.876 62.7998C103.344 62.6123 103.829 62.5186 104.329 62.5186C104.829 62.5029 105.329 62.5967 105.829 62.7998C106.313 62.9873 106.751 63.2451 107.141 63.5732C107.532 63.8857 107.837 64.292 108.055 64.792C108.227 65.167 108.329 65.5732 108.36 66.0107C108.391 66.4482 108.274 66.8467 108.008 67.2061C107.774 67.5342 107.485 67.7842 107.141 67.9561C106.813 68.1279 106.454 68.2529 106.063 68.3311C105.688 68.4092 105.297 68.4482 104.891 68.4482C104.501 68.4482 104.126 68.4404 103.766 68.4248C103.36 68.4092 102.954 68.3779 102.547 68.3311C102.157 68.2842 101.758 68.2373 101.352 68.1904C101.477 68.8936 101.727 69.5186 102.102 70.0654C102.477 70.6123 102.985 71.0264 103.626 71.3076C103.797 71.3701 103.93 71.417 104.024 71.4482C104.071 71.4639 104.11 71.4795 104.141 71.4951C104.188 71.4951 104.235 71.4951 104.282 71.4951C104.407 71.5107 104.508 71.5264 104.587 71.542C104.68 71.542 104.766 71.5342 104.844 71.5186C104.954 71.5029 105.024 71.4951 105.055 71.4951C105.102 71.4795 105.149 71.4639 105.196 71.4482C105.368 71.4014 105.516 71.3467 105.641 71.2842C105.782 71.2217 105.946 71.1201 106.133 70.9795C106.227 70.9014 106.352 70.7842 106.508 70.6279C106.665 70.4717 106.797 70.3311 106.907 70.2061C107.063 69.9873 107.251 69.8389 107.469 69.7607C107.704 69.6826 107.938 69.7139 108.172 69.8545C108.376 69.9795 108.516 70.1748 108.594 70.4404C108.688 70.6904 108.657 70.9248 108.501 71.1436C108.047 71.7529 107.508 72.2764 106.883 72.7139C106.274 73.1357 105.571 73.3623 104.774 73.3936C104.133 73.4248 103.516 73.3154 102.922 73.0654C102.329 72.7998 101.805 72.4482 101.352 72.0107C100.79 71.4639 100.344 70.8311 100.016 70.1123C99.6881 69.3936 99.5084 68.6592 99.4771 67.9092C99.3365 67.7998 99.2271 67.667 99.149 67.5107C99.0865 67.3389 99.0631 67.167 99.0787 66.9951C99.11 66.8232 99.1725 66.667 99.2662 66.5264C99.36 66.3701 99.5006 66.2686 99.6881 66.2217C99.86 65.6436 100.126 65.1045 100.485 64.6045ZM106.11 65.167C105.938 64.9482 105.672 64.7529 105.313 64.5811C105.016 64.4561 104.665 64.3936 104.258 64.3936C103.868 64.3936 103.532 64.4639 103.251 64.6045C102.891 64.7764 102.571 65.0186 102.29 65.3311C102.008 65.6279 101.782 65.9639 101.61 66.3389C101.985 66.3857 102.36 66.4326 102.735 66.4795C103.11 66.5264 103.485 66.5576 103.86 66.5732C104.063 66.5732 104.266 66.5732 104.469 66.5732C104.672 66.5732 104.876 66.5654 105.079 66.5498C105.141 66.5498 105.196 66.5498 105.243 66.5498C105.305 66.5342 105.368 66.5264 105.43 66.5264C105.571 66.4951 105.672 66.4795 105.735 66.4795C105.813 66.4639 105.891 66.4404 105.969 66.4092C106.032 66.3936 106.11 66.3701 106.204 66.3389C106.282 66.3076 106.329 66.2842 106.344 66.2686C106.36 66.2529 106.383 66.2373 106.415 66.2217L106.485 65.9404C106.454 65.8779 106.43 65.8232 106.415 65.7764C106.415 65.7139 106.399 65.6592 106.368 65.6123C106.352 65.5654 106.313 65.4951 106.251 65.4014C106.204 65.3076 106.157 65.2295 106.11 65.167ZM112.869 71.4482C112.869 70.7764 112.916 70.0967 113.01 69.4092C113.119 68.5811 113.229 67.7607 113.338 66.9482C113.447 66.1201 113.494 65.2842 113.479 64.4404C113.479 64.1436 113.572 63.917 113.76 63.7607C113.947 63.6045 114.158 63.5264 114.393 63.5264C114.627 63.5264 114.846 63.6045 115.049 63.7607C115.252 63.917 115.354 64.1436 115.354 64.4404C115.963 64.3936 116.541 64.3701 117.088 64.3701C117.713 64.3857 118.244 64.5654 118.682 64.9092C119.119 65.2529 119.447 65.7139 119.666 66.292C119.854 66.8232 119.963 67.3701 119.994 67.9326C120.026 68.4951 120.049 69.0576 120.065 69.6201C120.08 70.417 120.104 71.2139 120.135 72.0107C120.166 72.792 120.182 73.5811 120.182 74.3779C120.182 74.6904 120.08 74.917 119.877 75.0576C119.69 75.2139 119.479 75.292 119.244 75.292C119.026 75.292 118.815 75.2139 118.612 75.0576C118.424 74.917 118.33 74.6904 118.33 74.3779C118.33 73.6279 118.315 72.8936 118.283 72.1748C118.268 71.4561 118.244 70.7217 118.213 69.9717C118.182 69.5654 118.166 69.1514 118.166 68.7295C118.182 68.292 118.151 67.8936 118.072 67.5342C118.026 67.3154 117.979 67.1279 117.932 66.9717C117.885 66.7998 117.799 66.6357 117.674 66.4795C117.643 66.417 117.572 66.3623 117.463 66.3154C117.369 66.2686 117.283 66.2451 117.205 66.2451C116.971 66.2451 116.752 66.2607 116.549 66.292C116.346 66.3232 116.135 66.3701 115.916 66.4326C115.822 66.4639 115.729 66.4951 115.635 66.5264C115.541 66.5576 115.455 66.5967 115.377 66.6436C115.221 67.2061 115.104 67.7451 115.026 68.2607C114.963 68.7607 114.901 69.2686 114.838 69.7842C114.791 70.1592 114.76 70.542 114.744 70.9326C114.744 71.3076 114.729 71.6826 114.697 72.0576C114.682 72.4326 114.635 72.8076 114.557 73.1826C114.494 73.5576 114.377 73.917 114.205 74.2607C114.065 74.5264 113.877 74.6748 113.643 74.7061C113.408 74.7529 113.19 74.7139 112.987 74.5889C112.799 74.4795 112.651 74.3076 112.541 74.0732C112.447 73.8389 112.463 73.5889 112.588 73.3232C112.729 73.042 112.807 72.7373 112.822 72.4092C112.838 72.0811 112.854 71.7607 112.869 71.4482ZM125.207 73.2295C124.988 73.1514 124.801 73.0029 124.644 72.7842C124.504 72.5498 124.48 72.3154 124.574 72.0811C124.84 71.3467 125.019 70.6045 125.113 69.8545C125.207 69.1045 125.269 68.3389 125.301 67.5576C125.316 67.3232 125.324 67.0967 125.324 66.8779C125.324 66.6436 125.332 66.4092 125.347 66.1748C125.301 65.9873 125.316 65.8076 125.394 65.6357C125.426 65.1826 125.457 64.7295 125.488 64.2764C125.519 63.8076 125.566 63.3467 125.629 62.8936C125.707 62.2061 125.785 61.5264 125.863 60.8545C125.957 60.167 126.019 59.4717 126.051 58.7686C126.082 58.1279 126.113 57.4951 126.144 56.8701C126.191 56.2295 126.355 55.6201 126.637 55.042C126.777 54.7764 126.965 54.6279 127.199 54.5967C127.433 54.5498 127.652 54.5889 127.855 54.7139C128.058 54.8232 128.207 54.9951 128.301 55.2295C128.41 55.4639 128.394 55.7139 128.254 55.9795C128.129 56.2451 128.043 56.5186 127.996 56.7998C127.949 57.0811 127.918 57.3701 127.902 57.667C127.902 57.9639 127.902 58.2607 127.902 58.5576C127.902 58.8545 127.894 59.1436 127.879 59.4248C127.801 60.1279 127.722 60.8311 127.644 61.5342C127.566 62.2217 127.488 62.917 127.41 63.6201C128.066 63.292 128.793 63.1123 129.59 63.0811C130.215 63.0654 130.847 63.1748 131.488 63.4092C132.144 63.6279 132.676 63.9873 133.082 64.4873C133.316 64.7842 133.504 65.1123 133.644 65.4717C133.785 65.8154 133.894 66.1826 133.972 66.5732C134.066 66.9482 134.129 67.3311 134.16 67.7217C134.191 68.0967 134.222 68.4639 134.254 68.8232C134.301 69.5576 134.316 70.292 134.301 71.0264C134.301 71.7451 134.285 72.4795 134.254 73.2295C134.254 73.5264 134.152 73.7451 133.949 73.8857C133.746 74.042 133.527 74.1201 133.293 74.1201C133.058 74.1201 132.847 74.042 132.66 73.8857C132.472 73.7451 132.387 73.5264 132.402 73.2295C132.418 72.6045 132.433 71.9795 132.449 71.3545C132.465 70.7295 132.457 70.1045 132.426 69.4795C132.394 69.167 132.371 68.8467 132.355 68.5186C132.34 68.1904 132.301 67.8623 132.238 67.5342C132.207 67.3779 132.176 67.2295 132.144 67.0889C132.129 66.9326 132.097 66.7764 132.051 66.6201C132.035 66.4951 131.996 66.3623 131.933 66.2217C131.887 66.0811 131.855 66.0029 131.84 65.9873C131.808 65.9404 131.785 65.9014 131.769 65.8701C131.754 65.8232 131.73 65.7764 131.699 65.7295C131.558 65.5732 131.472 65.4873 131.441 65.4717C131.379 65.4248 131.324 65.3936 131.277 65.3779C131.23 65.3467 131.183 65.3154 131.137 65.2842C130.965 65.1904 130.769 65.1123 130.551 65.0498C130.332 64.9873 130.121 64.9561 129.918 64.9561C129.387 64.9248 128.887 65.0186 128.418 65.2373C127.965 65.4561 127.558 65.792 127.199 66.2451C127.168 67.3232 127.113 68.3936 127.035 69.4561C126.957 70.5029 126.73 71.542 126.355 72.5732C126.277 72.8076 126.129 72.9951 125.91 73.1357C125.707 73.2764 125.472 73.3076 125.207 73.2295ZM140.521 73.0654C139.99 72.8311 139.568 72.5107 139.255 72.1045C138.958 71.6826 138.747 71.2217 138.622 70.7217C138.513 70.2217 138.482 69.7061 138.529 69.1748C138.576 68.6279 138.685 68.1045 138.857 67.6045C138.997 67.2139 139.154 66.8076 139.326 66.3857C139.513 65.9639 139.732 65.5732 139.982 65.2139C140.232 64.8545 140.529 64.5498 140.872 64.2998C141.216 64.0342 141.622 63.8623 142.091 63.7842C142.576 63.7061 143.06 63.6826 143.544 63.7139C144.044 63.7295 144.537 63.7764 145.021 63.8545C145.24 63.8857 145.451 63.9404 145.654 64.0186C145.857 64.0811 146.06 64.1514 146.263 64.2295C146.279 63.9951 146.38 63.7998 146.568 63.6436C146.771 63.4873 146.982 63.4092 147.201 63.4092C147.466 63.4092 147.677 63.5029 147.833 63.6904C148.005 63.8623 148.107 64.0732 148.138 64.3232C148.216 65.042 148.247 65.7607 148.232 66.4795C148.232 67.1982 148.208 67.917 148.162 68.6357C148.13 69.3545 148.099 70.0732 148.068 70.792C148.052 71.5107 148.06 72.2295 148.091 72.9482C148.107 73.2451 148.013 73.4717 147.81 73.6279C147.622 73.7686 147.412 73.8389 147.177 73.8389C146.943 73.8389 146.724 73.7686 146.521 73.6279C146.333 73.4717 146.232 73.2451 146.216 72.9482C145.326 73.3232 144.38 73.542 143.38 73.6045C142.38 73.6514 141.427 73.4717 140.521 73.0654ZM140.685 67.9795C140.591 68.2607 140.505 68.5811 140.427 68.9404C140.349 69.2998 140.326 69.6436 140.357 69.9717C140.388 70.2998 140.49 70.6045 140.662 70.8857C140.833 71.1514 141.115 71.3389 141.505 71.4482C142.302 71.6982 143.099 71.7686 143.896 71.6592C144.708 71.5498 145.466 71.2686 146.169 70.8154C146.232 70.0498 146.279 69.3076 146.31 68.5889C146.357 67.8701 146.372 67.1436 146.357 66.4092C146.091 66.2373 145.818 66.0889 145.537 65.9639C145.271 65.8232 144.974 65.7295 144.646 65.6826C144.318 65.6357 143.966 65.6045 143.591 65.5889C143.232 65.5576 142.88 65.5576 142.537 65.5889C142.505 65.5889 142.419 65.6123 142.279 65.6592C142.154 65.6904 142.083 65.7139 142.068 65.7295C141.912 65.8076 141.771 65.9326 141.646 66.1045C141.443 66.3857 141.263 66.6904 141.107 67.0186C140.951 67.3311 140.81 67.6514 140.685 67.9795ZM153.069 79.6982C153.413 80.0264 153.812 80.2529 154.265 80.3779C154.718 80.5186 155.171 80.5654 155.624 80.5186C156.077 80.4717 156.507 80.3389 156.913 80.1201C157.319 79.9014 157.655 79.5967 157.921 79.2061C158.483 78.4092 158.843 77.5264 158.999 76.5576C159.171 75.6045 159.241 74.6436 159.21 73.6748C158.46 73.7998 157.687 73.8232 156.89 73.7451C156.108 73.6826 155.366 73.5186 154.663 73.2529C154.304 73.1123 153.96 72.9482 153.632 72.7607C153.319 72.5576 153.069 72.2764 152.882 71.917C152.554 71.3076 152.413 70.6357 152.46 69.9014C152.491 69.1982 152.608 68.5186 152.812 67.8623C153.03 67.1904 153.272 66.5264 153.538 65.8701C153.679 65.5576 153.827 65.2295 153.983 64.8857C154.155 64.5264 154.374 64.2061 154.64 63.9248C154.905 63.6279 155.21 63.4014 155.554 63.2451C155.897 63.0889 156.265 62.9951 156.655 62.9639C156.593 62.7451 156.593 62.542 156.655 62.3545C156.718 62.1514 156.851 61.9873 157.054 61.8623C157.257 61.7373 157.491 61.7061 157.757 61.7686C158.038 61.8311 158.233 61.9717 158.343 62.1904C158.405 62.3311 158.46 62.4717 158.507 62.6123C158.569 62.7529 158.624 62.8936 158.671 63.0342C158.983 63.8779 159.265 64.7295 159.515 65.5889C159.78 66.4482 160.03 67.3154 160.265 68.1904C160.546 69.2217 160.757 70.2686 160.897 71.3311C161.038 72.3936 161.093 73.4717 161.062 74.5654C161.046 75.1748 160.991 75.7998 160.897 76.4404C160.819 77.0811 160.679 77.6982 160.476 78.292C160.272 78.8857 160.007 79.4482 159.679 79.9795C159.351 80.5264 158.929 80.9951 158.413 81.3857C157.929 81.7607 157.39 82.0264 156.796 82.1826C156.218 82.3545 155.624 82.4248 155.015 82.3936C154.421 82.3623 153.835 82.2295 153.257 81.9951C152.694 81.7607 152.194 81.4326 151.757 81.0107C151.538 80.8076 151.444 80.5811 151.476 80.3311C151.507 80.0967 151.608 79.8936 151.78 79.7217C151.937 79.5654 152.132 79.4717 152.366 79.4404C152.616 79.4092 152.851 79.4951 153.069 79.6982ZM155.671 71.6123C156.218 71.7529 156.78 71.8545 157.358 71.917C157.952 71.9639 158.522 71.9248 159.069 71.7998C158.976 71.0029 158.835 70.2373 158.647 69.5029C158.476 68.7686 158.28 68.0264 158.062 67.2764C157.937 66.8389 157.804 66.4092 157.663 65.9873C157.538 65.5654 157.405 65.1436 157.265 64.7217C157.218 64.7529 157.163 64.7764 157.101 64.792C157.038 64.792 156.968 64.7998 156.89 64.8154C156.421 64.8154 156.062 65.0264 155.812 65.4482C155.64 65.7139 155.499 65.9951 155.39 66.292C155.358 66.3701 155.327 66.4482 155.296 66.5264C155.265 66.5889 155.233 66.6592 155.202 66.7373C154.968 67.2998 154.765 67.8467 154.593 68.3779C154.437 68.8936 154.343 69.4014 154.312 69.9014V70.3232C154.327 70.4326 154.343 70.5186 154.358 70.5811C154.39 70.7217 154.405 70.8076 154.405 70.8389C154.421 70.8701 154.468 70.9482 154.546 71.0732C154.64 71.1514 154.726 71.2139 154.804 71.2607C154.882 71.3076 154.929 71.3389 154.944 71.3545C155.069 71.4014 155.187 71.4482 155.296 71.4951C155.421 71.542 155.546 71.5811 155.671 71.6123ZM165.829 64.6045C166.126 64.1982 166.477 63.8389 166.883 63.5264C167.305 63.2139 167.751 62.9717 168.219 62.7998C168.688 62.6123 169.172 62.5186 169.672 62.5186C170.172 62.5029 170.672 62.5967 171.172 62.7998C171.657 62.9873 172.094 63.2451 172.485 63.5732C172.876 63.8857 173.18 64.292 173.399 64.792C173.571 65.167 173.672 65.5732 173.704 66.0107C173.735 66.4482 173.618 66.8467 173.352 67.2061C173.118 67.5342 172.829 67.7842 172.485 67.9561C172.157 68.1279 171.797 68.2529 171.407 68.3311C171.032 68.4092 170.641 68.4482 170.235 68.4482C169.844 68.4482 169.469 68.4404 169.11 68.4248C168.704 68.4092 168.297 68.3779 167.891 68.3311C167.501 68.2842 167.102 68.2373 166.696 68.1904C166.821 68.8936 167.071 69.5186 167.446 70.0654C167.821 70.6123 168.329 71.0264 168.969 71.3076C169.141 71.3701 169.274 71.417 169.368 71.4482C169.415 71.4639 169.454 71.4795 169.485 71.4951C169.532 71.4951 169.579 71.4951 169.626 71.4951C169.751 71.5107 169.852 71.5264 169.93 71.542C170.024 71.542 170.11 71.5342 170.188 71.5186C170.297 71.5029 170.368 71.4951 170.399 71.4951C170.446 71.4795 170.493 71.4639 170.54 71.4482C170.712 71.4014 170.86 71.3467 170.985 71.2842C171.126 71.2217 171.29 71.1201 171.477 70.9795C171.571 70.9014 171.696 70.7842 171.852 70.6279C172.008 70.4717 172.141 70.3311 172.251 70.2061C172.407 69.9873 172.594 69.8389 172.813 69.7607C173.047 69.6826 173.282 69.7139 173.516 69.8545C173.719 69.9795 173.86 70.1748 173.938 70.4404C174.032 70.6904 174.001 70.9248 173.844 71.1436C173.391 71.7529 172.852 72.2764 172.227 72.7139C171.618 73.1357 170.915 73.3623 170.118 73.3936C169.477 73.4248 168.86 73.3154 168.266 73.0654C167.672 72.7998 167.149 72.4482 166.696 72.0107C166.133 71.4639 165.688 70.8311 165.36 70.1123C165.032 69.3936 164.852 68.6592 164.821 67.9092C164.68 67.7998 164.571 67.667 164.493 67.5107C164.43 67.3389 164.407 67.167 164.422 66.9951C164.454 66.8232 164.516 66.667 164.61 66.5264C164.704 66.3701 164.844 66.2686 165.032 66.2217C165.204 65.6436 165.469 65.1045 165.829 64.6045ZM171.454 65.167C171.282 64.9482 171.016 64.7529 170.657 64.5811C170.36 64.4561 170.008 64.3936 169.602 64.3936C169.212 64.3936 168.876 64.4639 168.594 64.6045C168.235 64.7764 167.915 65.0186 167.633 65.3311C167.352 65.6279 167.126 65.9639 166.954 66.3389C167.329 66.3857 167.704 66.4326 168.079 66.4795C168.454 66.5264 168.829 66.5576 169.204 66.5732C169.407 66.5732 169.61 66.5732 169.813 66.5732C170.016 66.5732 170.219 66.5654 170.422 66.5498C170.485 66.5498 170.54 66.5498 170.587 66.5498C170.649 66.5342 170.712 66.5264 170.774 66.5264C170.915 66.4951 171.016 66.4795 171.079 66.4795C171.157 66.4639 171.235 66.4404 171.313 66.4092C171.376 66.3936 171.454 66.3701 171.547 66.3389C171.626 66.3076 171.672 66.2842 171.688 66.2686C171.704 66.2529 171.727 66.2373 171.758 66.2217L171.829 65.9404C171.797 65.8779 171.774 65.8232 171.758 65.7764C171.758 65.7139 171.743 65.6592 171.712 65.6123C171.696 65.5654 171.657 65.4951 171.594 65.4014C171.547 65.3076 171.501 65.2295 171.454 65.167ZM178.213 71.4482C178.213 70.7764 178.26 70.0967 178.354 69.4092C178.463 68.5811 178.572 67.7607 178.682 66.9482C178.791 66.1201 178.838 65.2842 178.822 64.4404C178.822 64.1436 178.916 63.917 179.104 63.7607C179.291 63.6045 179.502 63.5264 179.737 63.5264C179.971 63.5264 180.19 63.6045 180.393 63.7607C180.596 63.917 180.697 64.1436 180.697 64.4404C181.307 64.3936 181.885 64.3701 182.432 64.3701C183.057 64.3857 183.588 64.5654 184.026 64.9092C184.463 65.2529 184.791 65.7139 185.01 66.292C185.197 66.8232 185.307 67.3701 185.338 67.9326C185.369 68.4951 185.393 69.0576 185.408 69.6201C185.424 70.417 185.447 71.2139 185.479 72.0107C185.51 72.792 185.526 73.5811 185.526 74.3779C185.526 74.6904 185.424 74.917 185.221 75.0576C185.033 75.2139 184.822 75.292 184.588 75.292C184.369 75.292 184.158 75.2139 183.955 75.0576C183.768 74.917 183.674 74.6904 183.674 74.3779C183.674 73.6279 183.658 72.8936 183.627 72.1748C183.612 71.4561 183.588 70.7217 183.557 69.9717C183.526 69.5654 183.51 69.1514 183.51 68.7295C183.526 68.292 183.494 67.8936 183.416 67.5342C183.369 67.3154 183.322 67.1279 183.276 66.9717C183.229 66.7998 183.143 66.6357 183.018 66.4795C182.987 66.417 182.916 66.3623 182.807 66.3154C182.713 66.2686 182.627 66.2451 182.549 66.2451C182.315 66.2451 182.096 66.2607 181.893 66.292C181.69 66.3232 181.479 66.3701 181.26 66.4326C181.166 66.4639 181.072 66.4951 180.979 66.5264C180.885 66.5576 180.799 66.5967 180.721 66.6436C180.565 67.2061 180.447 67.7451 180.369 68.2607C180.307 68.7607 180.244 69.2686 180.182 69.7842C180.135 70.1592 180.104 70.542 180.088 70.9326C180.088 71.3076 180.072 71.6826 180.041 72.0576C180.026 72.4326 179.979 72.8076 179.901 73.1826C179.838 73.5576 179.721 73.917 179.549 74.2607C179.408 74.5264 179.221 74.6748 178.987 74.7061C178.752 74.7529 178.533 74.7139 178.33 74.5889C178.143 74.4795 177.994 74.3076 177.885 74.0732C177.791 73.8389 177.807 73.5889 177.932 73.3232C178.072 73.042 178.151 72.7373 178.166 72.4092C178.182 72.0811 178.197 71.7607 178.213 71.4482Z" fill="#4A2F2C"/>
</svg>
