<svg width="242" height="104" viewBox="0 0 242 104" fill="none" xmlns="http://www.w3.org/2000/svg">
<path d="M207.83 90.6554C196.699 94.5051 175.852 94.8431 175.852 94.8431C175.852 94.8431 89.6442 97.0217 75.8345 94.4243C66.9821 92.7593 42.4953 92.7492 22.0836 86.8864C1.67192 81.0236 5.75426 67.623 13.9189 59.6664C22.0836 51.7097 13.9189 44.1406 36.0955 31.0689C51.0647 22.2455 85.0423 15.8186 85.0423 15.8186C85.0423 15.8186 127.771 11.5078 137.069 9.83267C154.487 6.48251 158.336 7.5397 171.089 9.83267C185.736 12.4663 192.561 16.8407 203.067 23.6521C211.49 29.1131 213.441 33.2475 220.757 39.5654C235.229 52.0629 235.229 58.9949 235.229 58.9949C235.229 58.9949 234.74 69.6437 229.602 76.8359C224.686 83.7176 218.478 86.9726 207.83 90.6554Z" fill="#E8DCCD"/>
<path d="M26.2669 52.6537C25.5521 55.5993 23.3641 61.8276 19.435 65.3267C12.8068 73.3852 13.138 75.2377 24.2897 79.2057C29.8721 80.8247 35.6969 81.988 41.473 82.9311C43.9757 83.3323 43.7443 83.8315 44.4413 83.9981C46.3655 84.4474 47.6168 83.9556 49.0375 84.1637C55.9615 85.1752 62.5139 85.711 69.6775 86.551C77.2302 87.5359 73.4685 88.8389 76.1324 89.6249C76.3401 89.6911 76.5294 89.7516 76.703 89.8066C79.9261 90.8368 77.1237 88.3949 78.6656 88.1187C83.688 88.7717 89.4999 89.14 95.0204 89.5023C93.7025 89.6796 92.2448 89.8446 90.9073 89.9951C93.3162 90.1088 96.8381 90.5137 92.7181 90.993C93.6517 91.1724 94.4558 91.373 95.3842 91.5439C95.6652 90.7596 99.9802 90.7622 100.4 90.2938C100.8 89.8288 98.3534 89.9053 98.3776 89.8636C98.5426 89.2943 108.52 90.1789 109.276 90.2345C111.171 90.4133 109.503 91.3927 111.124 91.3326C113.924 91.2268 112.072 89.2272 115.85 91.883C117.357 91.0161 117.498 91.4647 119.401 91.5177C119.652 91.5242 119.455 91.0247 119.566 91.0112C122.455 90.6275 120.237 91.5675 120.252 91.6178C120.518 92.4734 123.624 92.0766 124.277 92.1538C132.486 93.121 138.536 93.7427 147.194 93.85C149.092 93.8727 154.762 93.4302 156.598 93.5413C158.394 93.6522 157.444 94.2865 158.372 94.5655C159.858 93.0535 161.258 92.864 164.662 93.7725C165.865 92.6651 165.8 93.5402 168.15 93.2735C170.105 93.0523 173.677 91.6731 175.798 92.7269C173.406 92.6845 173.534 93.2132 170.757 93.5972C169.837 93.7282 159.893 93.9538 160.704 95.0419C161.069 95.612 164.379 95.0164 164.478 95.1203C165.212 95.725 163.438 96.5233 161.783 96.2887C162.154 96.1564 162.679 96.0191 163.113 95.8853C159.443 95.183 162.054 98.1075 159.189 95.5621C158.828 95.2499 158.96 94.9149 158.404 94.5864C158.294 94.7286 158.971 95.0635 158.395 95.1365C157.809 95.2102 156.644 94.5717 156.478 95.1306C156.244 95.9436 158.736 95.5792 158.904 95.6231C158.905 95.6182 158.907 95.6133 158.909 95.6084C160.604 96.0058 157.133 96.1199 156.966 96.1991C155.893 96.7223 156.616 97.0974 155.013 97.542C154.138 97.7947 151.698 97.6965 150.88 97.7862C150.029 97.8786 151.362 98.2392 150.79 98.3307C150.217 98.4222 149.491 98.1433 148.804 98.2494C148.509 98.296 148.531 98.7222 148.388 98.7393C146.866 98.9271 147.857 98.0246 146.493 98.0994C145.619 98.1489 142.6 99.019 144.689 99.2355C143.675 99.336 142.748 99.4118 141.759 99.4923C142.381 99.6108 143.02 99.6882 143.62 99.829C141.786 99.6515 140.948 100.392 139.776 100.462C138.624 100.531 137.578 99.6675 136.299 100.11C133.582 101.05 140.308 100.552 141.174 100.7C141.503 100.76 140.251 101.463 140.055 101.485C139.192 101.582 138.187 101.103 137.522 101.133C135.138 101.244 133.718 101.907 131.447 102.059C123.76 102.58 114.213 102.983 106.884 103.084C104.201 103.123 102.497 102.378 101.312 102.386C98.3933 102.401 98.1344 103.031 95.5584 103.02C91.8332 103.008 86.5529 102.299 83.3849 102.002C81.17 101.806 79.0397 102.248 78.477 102.208C77.8243 102.163 77.1964 102.112 76.5925 102.051C75.9352 101.984 75.1474 101.884 74.4539 101.765C68.8407 100.989 60.5679 100.571 55.1526 100.039C52.1123 99.7669 50.7158 98.924 50.0943 98.881C47.372 98.6787 48.0342 99.3435 45.8368 99.0296C44.6441 98.8559 44.4924 98.2642 44.3362 98.2229C42.9565 97.8616 42.5806 98.557 41.4769 98.4324C35.1237 97.7016 29.0735 96.1398 22.8053 94.4394C22.3504 94.3147 22.4756 94.0085 22.1762 93.9461C20.8989 93.6823 21.3309 94.3287 20.0376 94.0098C20.0242 94.0064 20.0107 94.0029 19.997 93.9993C17.0054 93.2127 13.8815 91.9981 10.705 90.0797C10.4053 89.8943 10.4506 89.4404 9.73952 88.9825C9.04743 88.5248 8.23477 88.4674 7.13492 87.5415C4.26501 85.1156 1.84964 81.2599 0.908202 76.7359C0.751272 76.0055 0.0903831 75.1344 0.0304556 73.9784C-0.262439 70.2588 1.62279 65.7642 2.77348 63.6106C4.54458 60.0556 6.73121 57.2488 9.15588 54.7788C10.453 53.3582 10.8162 52.5251 11.616 49.8633C11.9631 48.6846 12.8005 47.4721 13.0768 46.6849C13.7332 44.8628 12.7954 46.1165 13.5429 44.1926C17.6772 34.3839 25.7181 29.3886 32.6387 25.2042C38.3435 21.9497 43.9317 19.9298 49.5426 17.9966C54.7338 16.2287 60.9494 13.9958 66.0335 12.8352C68.1522 12.3529 68.6858 12.8569 70.1562 12.5047C72.8053 11.8767 73.1164 10.9952 75.9071 10.2868C78.1455 9.72459 80.8247 9.95553 83.2343 9.43217C83.3276 9.4118 83.4125 9.39183 83.5323 9.36403C83.5844 9.35165 83.6287 9.34053 83.6655 9.33059C83.6713 9.32657 83.8187 9.29524 83.8082 9.29389L84.3758 9.21173C86.2475 8.87552 87.3546 8.11172 89.7698 7.77837C91.9443 7.47901 95.0547 7.50288 97.4394 7.19481C110.314 5.49002 123.66 3.948 135.676 2.10003L135.585 2.11699C144.288 0.38833 155.162 -1.09241 164.935 1.09763C167.466 1.57293 169.916 2.07134 172.397 2.55524C178.342 3.69555 184.736 5.52031 190.226 8.55963C190.96 8.97408 189.507 9.09561 191.986 10.0975C193.302 10.6453 195.407 10.9901 198.218 12.6018C201.2 14.3167 203.997 16.158 206.738 17.9896C214.407 22.7602 219.597 30.3717 224.757 34.9332C230.46 40.3234 236.12 45.5805 240.009 54.1792C240.242 54.7554 240.469 55.379 240.669 56.067C240.769 56.4116 240.865 56.7836 240.948 57.1834C240.992 57.3964 241.032 57.6141 241.067 57.8513C241.085 57.9728 241.104 58.1181 241.119 58.2572C241.137 58.4663 241.152 58.4717 241.162 58.9949L241.155 59.2672C240.665 66.7026 239.644 73.559 235.195 80.8315C229.396 90.4672 218.524 95.4684 210.445 98.2159C197.708 102.116 186.935 101.392 176.589 98.6773C175.37 98.3279 175.993 96.4682 176.685 95.9248C177.356 96.2814 177.964 96.7064 178.684 97.102C179.449 94.7568 179.313 95.3827 182.512 95.4113C184.482 95.4194 182.85 94.5316 183.878 94.1851C185.211 93.7651 191.377 92.05 190.322 93.6766C190.683 93.3736 191.016 93.0833 191.369 92.7841C195.866 92.0557 200.221 91.0304 204.292 89.5269C204.991 89.2617 204.895 88.7915 205.592 88.5065C206.042 88.318 206.501 88.1497 206.913 88.006C208.305 87.5208 209.639 87.2243 211.141 86.6077C212.221 86.158 212.17 85.5885 213.568 85.0364C214.945 84.4724 215.266 85.1682 216.707 83.5449C215.165 83.3165 220.52 81.2647 221.91 79.8793C222.156 79.6985 223.296 77.5847 224.13 76.7621C224.72 76.2113 225.634 75.5343 226.417 74.5606C226.764 74.136 227.073 73.6372 227.283 73.0744C227.585 72.2559 227.232 71.502 227.576 70.6535C227.816 70.0565 228.658 69.5338 228.969 68.7201C229.295 67.9116 229.348 65.9621 229.415 65.6221C229.682 64.3956 229.755 65.8397 229.975 65.0062C230.475 63.0762 230.921 60.7471 231.079 58.8041L231.075 58.9949C231.077 59.1569 231.079 59.1303 231.08 59.1651C231.082 59.1912 231.082 59.1958 231.083 59.2049C231.085 59.2213 231.086 59.2246 231.087 59.2241C231.087 59.2214 231.086 59.2046 231.083 59.1778C231.077 59.1288 231.065 59.0553 231.046 58.9698C231.012 58.8079 230.957 58.6021 230.891 58.3995C230.757 57.9813 230.572 57.5306 230.355 57.082C229.916 56.1724 229.357 55.2816 228.735 54.455C228.433 54.0535 228.407 54.8976 228.354 54.8476C226.012 52.4606 227.504 53.5568 227.324 52.5577C227.235 51.5326 222.423 46.6242 221.734 47.2399C222.33 46.3427 220.661 45.8488 220.346 45.6021C219.134 44.6414 219.947 44.1513 218.637 43.3651C218.15 43.0738 218.558 44.2522 218.122 43.8442C217.926 43.6617 217.751 43.4578 217.586 43.2372C216.756 42.1651 216.226 40.778 215.014 39.4971C214.653 39.1132 214.222 39.3117 213.577 38.6478C212.905 37.9703 210.696 34.8804 211.227 36.7768C210.193 34.6299 209.605 34.5667 207.865 32.8348C207.426 32.405 207.334 31.3309 206.2 30.6425C205.813 30.4105 205.388 30.9442 204.88 30.5332C203.726 29.6127 203.006 28.1894 201.385 27.0824C201.261 26.9983 201.135 26.9142 201.007 26.8303C197.841 24.7682 194.323 23.012 191.166 21.0482C190.268 20.4959 190.832 20.0112 189.477 19.2835C189.274 19.1728 187.371 18.8782 186.448 18.405C185.906 18.0926 183.047 16.4722 182.42 16.2371C181.401 15.8152 181.008 16.3913 180.482 16.0808C178.95 15.2043 180.554 14.665 178.172 15.3633C177.708 14.4567 176.494 14.2178 176.329 13.2369C175.376 14.0341 174.699 12.8807 173.23 12.9165C172.047 12.9498 170.843 14.0928 170.454 13.365C170.36 13.1994 170.31 12.9383 170.313 12.5474C169.601 12.6776 166.667 12.5842 166.193 12.5336C164.769 12.3726 165.63 11.9371 164.554 11.8306C164.368 11.813 164.493 12.2312 163.32 11.9992C162.519 11.7846 157.007 11.1262 156.695 11.1351C152.973 10.3836 158.748 10.8007 159.634 10.5526C159.768 10.6804 159.9 10.8089 160.041 10.9373C161.701 11.3343 160.865 10.3255 160.11 10.026C159.354 9.7234 157.879 9.99103 157.259 9.66513C156.948 9.50133 157.204 8.43543 158.191 8.63988C157.151 8.23138 158.634 7.99381 158.236 7.65311C157.804 7.21162 152.874 7.03275 152.875 7.67941C153.785 7.66827 154.912 7.64308 155.827 7.69459C156.905 8.76116 153.487 12.0858 150.304 10.9849C147.896 10.207 151.665 8.95973 146.203 10.4649C147.062 10.391 147.794 10.3989 148.574 10.3584C148.736 11.1124 147.394 10.4109 146.775 10.7402C146.481 10.8969 148.451 11.1987 146.826 11.5854C145.257 10.6844 144.294 11.9362 141.916 12.3526C142.55 12.0454 143.179 11.7441 143.824 11.4444C139.621 11.3136 149.075 9.52294 141.04 10.3801C141.984 10.1798 142.937 10.0309 143.909 9.8261C143.377 9.50056 143.951 8.21384 143.489 8.03237C142.268 7.55644 140.677 8.22658 139.32 8.41557C138.722 8.49991 139.033 8.11851 138.983 8.12569C138.148 8.24315 138.429 8.66764 137.725 8.83046C137.527 8.87635 137.238 8.91464 136.899 8.94957L136.91 8.94763C135.788 9.04623 134.15 9.01286 133.818 9.10117C132.712 9.3929 134.713 10.0409 134.597 10.1258C133.965 10.6731 132.505 10.4993 132.651 11.07C133.721 10.7896 135.567 10.5022 137.148 10.2691C140.445 9.74675 142.948 9.74114 137.376 11.4277L137.357 11.4312C137.306 11.4469 137.252 11.4628 137.197 11.4789C137.258 11.4913 137.317 11.5043 137.373 11.5178L137.393 11.5141C139.244 11.8968 139.353 12.7945 137.78 13.5262L137.736 13.5343C137.261 13.7501 136.561 13.9514 135.734 14.1001C132.738 14.6252 134.623 13.8225 132.993 13.4705C132.778 13.4333 128.796 13.6727 128.659 14.0952C128.701 13.1469 127.323 12.4834 128.06 11.4185C128.161 11.2635 129.78 11.1149 129.118 10.4161C128.77 10.0674 127.89 9.32227 127.952 8.81409C127.669 9.19737 127.371 9.62579 127.074 10.0253C124.693 10.4193 124.307 10.0885 122.906 9.60675C123.002 9.86602 124.351 10.8438 122.462 10.7211C122.365 10.7118 122.242 10.3186 121.277 10.2288C119.331 10.0494 118.933 9.96831 120.24 8.61913C116.402 9.74524 115.4 8.52227 111.422 9.35415C112.39 10.786 113.767 10.2552 117.419 9.54376C117.62 9.88715 117.736 10.2365 117.942 10.5831C112.943 10.3193 115.373 10.1286 112.677 11.1733C112.015 11.4298 108.364 11.6355 109.688 12.5266C110 12.7367 112.254 12.4601 112.037 12.8683C111.994 12.9467 109.273 13.4322 109.017 13.3604C105.853 12.4779 111.179 11.0496 102.874 12.391C102.643 12.4289 102.608 12.8806 102.163 12.9905C101.325 13.1963 101.28 12.682 100.522 12.8824C99.77 13.0824 98.8043 13.8827 97.5951 13.3649C95.406 12.4205 100.228 11.2376 102.478 11.6191C103.21 10.0132 87.5875 11.6182 86.6471 11.8366C82.452 12.8362 89.4975 11.7877 89.8824 12.1719C90.0732 12.3322 90.1785 14.6049 91.837 12.9515C92.3283 12.4615 90.0332 12.1208 91.3478 11.7425C92.6197 11.3686 92.176 12.0868 92.2745 12.1235C92.6231 12.2482 93.9884 11.8567 94.1798 11.932C97.1137 13.0717 97.0965 15.2607 93.0686 12.4514C91.5191 13.3426 95.3325 14.109 93.4017 14.8055C91.0341 15.6541 89.1272 14.8088 88.8358 14.7919C85.0937 14.6219 89.4694 15.6827 85.0268 15.6647L85.0136 15.6666C85.0132 15.6651 85.0058 15.6648 84.9912 15.6659C83.868 15.761 84.4156 15.4346 84.9147 15.1437L84.9734 15.1352C85.1725 15.0346 85.3426 14.941 85.4134 14.8703C85.4755 14.8005 85.2735 14.7704 84.9371 14.7752L84.8474 14.7882C84.4928 14.8282 83.8476 14.9453 82.8694 15.1619C78.1393 16.2308 80.8434 16.2096 80.729 17.4533C80.7284 17.7399 78.2195 18.6257 81.6863 17.762C81.724 17.4357 81.798 17.0005 81.9773 16.6696C82.885 16.712 84.6085 17.9564 85.0681 17.9237C85.2435 17.9052 85.3275 17.9009 85.434 17.8893L85.2539 17.9153C87.149 17.8577 87.0126 17.2049 88.385 17.9659C87.3603 17.0224 88.926 17.4938 89.5018 17.2131C91.5992 16.1805 88.6838 16.1796 93.6832 16.7095C92.9724 16.2918 92.3752 15.8714 91.711 15.4504C92.2942 15.3731 92.8488 15.2982 93.4551 15.2182C94.4032 16.2025 97.5118 15.7385 94.8125 17.1111C98.2185 17.0647 99.5578 16.6857 100.197 15.7756C100.318 15.602 100.826 15.4838 101.418 15.4053C101.282 15.1829 101.063 14.4741 101.146 14.3756C101.884 13.5077 103.341 14.7157 102.949 15.2783C103.375 15.2577 103.699 15.2522 103.817 15.2522C104.557 15.2537 103.173 15.8728 103.783 15.9689C103.977 16.0007 106.055 15.6746 106.108 15.8601C106.495 17.0446 102.975 16.5432 109.914 16.5013C109.956 15.38 106.803 15.9689 107.492 14.7073C108.229 13.3528 110.208 14.8463 110.427 13.2581C110.6 13.4962 110.688 13.701 110.844 13.9765C113.542 12.9976 113.721 14.2792 114.599 14.469C116.302 14.8436 123.867 13.8914 116.943 13.5537C117.93 13.3293 118.926 13.1634 119.909 12.9504C120.402 15.2286 119.69 14.3885 124.497 14.1765C125.535 14.1313 126.033 15.0995 126.9 13.7719C126.887 14.9734 129.928 13.8706 130.24 13.9736C132.231 14.6699 125.446 16.8399 124.323 14.8464C123.241 15.7994 123.134 14.7223 121.846 15.0174C119.993 15.4415 119.748 15.6821 117.436 15.1412C115.37 16.5132 126.082 14.6439 119.713 16.8825C115.746 18.2856 99.5286 20.7436 85.7234 22.5692L86.3034 22.4853C78.3942 24.2974 71.1522 26.2926 68.016 27.2034C55.6553 30.8827 47.8201 33.5958 40.1127 37.8841C38.3411 38.9382 36.5823 40.0523 34.8324 41.3139C34.3309 41.6674 32.2613 43.2597 30.7915 44.554C29.2824 45.8506 28.2654 46.8458 28.2005 45.8309C28.1056 45.5589 30.2544 42.4628 27.3527 44.1722C28.2132 44.0761 27.3651 45.7236 27.3568 45.8813C26.9997 47.6425 27.3371 48.0971 27.3243 48.6866C27.3261 49.3583 27.1497 49.6264 26.2669 52.6537ZM4.58416 67.0359C6.85311 61.9277 7.54618 61.6301 6.9078 61.6032C6.35923 61.6405 4.95528 62.5622 4.76228 61.0183C3.94552 62.29 3.20725 63.6487 2.58625 65.1291C2.86271 64.7844 3.13967 64.4651 3.42692 64.1473C3.42767 64.1457 3.42843 64.1441 3.42918 64.1425C3.75871 65.1443 4.14031 66.1204 4.58416 67.0359ZM146.309 100.463C145.952 100.727 145.598 100.991 145.206 101.25C143.956 101.188 142.76 101.126 141.527 101.062C141.672 100.885 141.811 100.705 141.954 100.528C143.392 100.516 144.855 100.503 146.309 100.463ZM103.735 11.1987C105.541 11.727 105.237 10.4706 107.595 10.8022C107.215 9.89184 106.8 9.00583 106.403 8.10652C104.682 8.43375 104.315 8.8352 102.408 8.80687C102.666 9.08521 102.919 9.36578 103.165 9.64707C103.471 9.54868 103.797 9.43897 104.097 9.34862C104.669 10.1432 101.677 10.5919 103.729 11.2013C103.731 11.2004 103.733 11.1996 103.735 11.1987ZM121.33 8.85592C122.251 8.87429 125.997 8.89206 126.426 8.44229C127.975 6.921 117.736 8.99543 125.211 6.91116C125.154 6.73031 125.167 6.54473 125.145 6.36148C123.745 6.46547 122.363 6.57279 120.965 6.68346C121.125 7.40499 121.159 8.13187 121.33 8.85592ZM21.916 37.0358C22.9927 35.7909 28.4516 30.7315 26.0464 31.5522C25.2748 31.8005 23.463 34.8718 22.5235 35.7686C21.8998 36.3433 22.0869 35.1975 21.0872 36.5877C21.3499 36.733 21.6157 36.9211 21.9177 37.0313C21.9171 37.0328 21.9166 37.0343 21.916 37.0358ZM22.946 41.7113C23.7656 40.4658 24.6856 39.264 25.6941 38.1433C24.3668 38.3266 23.2104 40.3166 22.3443 39.729C22.5568 39.3556 22.786 38.9781 23.0307 38.5973C23.4196 38.5189 23.8083 38.4483 24.2 38.3812C24.7541 37.0376 23.9532 37.3537 25.9311 35.8229C23.8229 35.6043 22.7 35.1594 20.9845 39.6792C20.8959 38.4538 18.0427 37.2865 18.1263 40.7646C18.1603 41.3768 19.5363 39.8065 19.6131 39.8357C20.3886 40.0334 20.1193 41.2047 20.8831 41.3479C21.2198 41.4112 21.9106 40.4969 22.3627 40.6488C22.5675 40.7309 22.4194 41.9172 22.946 41.7113ZM18.0396 42.2481C17.9418 41.5338 16.0077 42.6502 15.5354 44.3051C14.8634 46.7975 17.2888 43.4692 18.0396 42.2481ZM146.317 100.462C146.315 100.462 146.312 100.462 146.309 100.463C146.311 100.462 146.312 100.461 146.313 100.46C146.315 100.46 146.316 100.461 146.317 100.462ZM116.503 8.88712C117.553 8.38362 119.166 8.25432 118.98 7.6637C119.526 7.72108 120.064 7.77717 120.61 7.83388C120.584 7.65292 120.552 7.47214 120.526 7.29302C118.931 7.36405 117.327 7.43255 115.717 7.49784C115.97 7.96135 116.211 8.42801 116.503 8.88712ZM133.847 7.17601C135.8 6.94787 134.03 6.37552 134.404 5.91584C134.812 5.45581 136.492 5.50269 136.173 4.97287C135.121 5.13741 133.957 5.28599 132.764 5.43375C133.138 6.01065 133.478 6.60335 133.851 7.17544C133.849 7.17563 133.848 7.17582 133.847 7.17601ZM32.0994 93.7413C30.7471 93.2927 31.4428 92.8034 28.5627 92.9471C28.5647 92.9475 28.5668 92.9479 28.5688 92.9484C31.053 94.0215 34.3512 95.104 37.3119 95.065C35.6605 94.1252 34.2297 94.4311 32.0994 93.7413ZM98.7798 9.85387C98.251 10.4129 100.989 10.5427 101.515 10.0189C102.393 9.169 99.5623 9.00758 98.7798 9.85387ZM87.8941 95.3025C90.0142 93.8276 86.1431 92.0071 82.069 92.496C81.6941 92.5414 84.3095 93.1843 83.5084 93.4389C83.4132 93.4647 81.9729 93.3424 81.6381 93.5323C81.2529 93.721 81.6081 94.2455 80.9755 94.4101C79.8746 94.7039 77.6857 93.8161 76.8182 94.1616C76.7532 94.1847 77.1035 94.4204 77.443 94.6412C77.7488 94.8586 78.1161 95.0724 78.161 95.0898C79.7308 95.662 81.1166 94.876 81.4155 94.8924C82.5667 94.9393 82.356 95.6071 82.6456 95.786C83.1869 96.1215 84.2859 95.8762 84.3183 95.8997C86.0973 96.589 81.8934 96.2048 81.3886 96.4039C79.7197 96.9378 81.2302 97.7261 77.3875 97.7133C77.0548 97.725 72.5163 97.0395 78.0612 98.5515C76.7806 98.6215 75.627 98.6129 75.0426 98.6343C74.0346 98.7358 74.2177 98.914 74.9538 99.1067C77.6153 99.798 83.9874 99.7574 85.006 99.5835C85.7856 99.4562 84.6476 98.7527 85.1279 98.4815C86.2413 97.8636 88.0638 97.8117 87.9274 96.8614C87.6914 94.8674 85.2061 96.0751 83.6172 95.6521C83.8147 95.2309 83.924 94.8158 84.2527 94.4102C83.6908 94.9568 87.7897 95.4223 87.894 95.3064C87.894 95.3051 87.8941 95.3038 87.8941 95.3025ZM62.1413 95.23C59.9164 94.4462 59.9717 95.7093 57.9399 94.8169C55.9971 95.779 59.6531 96.0178 60.0585 96.113C61.9788 96.5565 61.8292 97.7709 63.8332 97.5572C63.2032 96.7791 62.7286 96.0064 62.1413 95.23ZM81.8544 97.7998C80.3223 98.3362 82.9976 98.4984 83.1447 98.623C84.3113 100.009 75.8837 99.1583 81.8544 97.7998ZM30.7613 32.9302C31.4447 32.5146 30.6814 32.2986 31.1787 31.748C31.6297 31.2154 33.9756 30.3568 33.7115 30.0834C33.5015 29.7519 29.1437 31.3534 32.85 28.7651C32.6105 28.6626 32.5706 28.501 32.4078 28.3755C31.3536 29.0187 30.3032 29.6847 29.2342 30.4106C30.1704 30.5109 31.0852 30.6777 31.9493 30.8242C31.6383 31.605 30.9902 31.2885 30.9585 31.3091C30.9589 31.3096 30.9593 31.3101 30.9596 31.3107C29.8759 32.0905 29.2715 33.8594 30.7613 32.9302ZM13.0786 86.6629C14.0584 85.4808 11.4581 85.9283 10.5921 85.5042C9.75178 85.1406 9.15582 83.8725 9.09242 84.6814C9.94723 86.0744 13.0149 86.8515 13.0796 86.6612C13.0793 86.6618 13.0789 86.6623 13.0786 86.6629ZM49.7362 94.1026C47.783 94.2619 48.0346 94.6913 45.7415 93.9649C45.7886 94.3409 45.8352 94.725 45.8836 95.0954C47.7531 95.3231 47.7438 94.249 49.8559 94.9078C50.2022 95.0151 49.3582 95.7857 50.9812 95.6776C50.5649 95.1778 50.1466 94.6264 49.7362 94.1026ZM40.0446 94.2666C42.2702 94.5282 44.4043 91.8198 40.1817 92.5792C39.555 92.6898 38.3711 94.0622 40.0446 94.2666ZM17.8675 49.0351C19.1732 45.3865 17.2916 49.4218 16.6216 50.2354C19.1032 41.3982 16.3233 51.4165 14.7749 51.5454C14.9174 52.5778 15.1853 54.6037 16.1375 52.807C16.5179 52.021 15.9837 52.1788 16.0028 52.131C16.5923 50.6233 17.2229 51.0004 17.8675 49.0351ZM66.0953 95.4818C65.9546 95.4925 66.1299 96.0226 65.6785 96.0878C65.2212 96.1517 64.2427 95.7106 64.1171 96.0166C63.9906 96.3242 65.9953 96.7361 66.6326 96.5594C67.2752 96.3805 67.3798 95.392 66.0953 95.4818ZM51.8993 92.977C49.9888 93.1555 52.8626 95.3478 53.2718 95.3751C56.8576 95.6135 51.7286 93.5687 51.8993 92.977ZM17.4801 58.5535C19.179 53.6296 15.9447 56.5184 13.6177 57.6121C13.5432 58.0074 13.4681 58.3859 13.3593 58.7801C13.5861 56.9381 13.9723 54.7696 12.0613 57.7602C11.7302 58.1727 11.3549 58.6748 10.9493 59.2816C11.7997 58.4811 12.2481 58.1887 12.4242 58.1325C12.5099 58.113 12.5332 58.1529 12.517 58.2278C12.4318 58.506 11.8474 59.2716 11.8686 59.309C12.3403 59.9516 13.0082 59.7983 13.7327 59.4753C15.124 58.9134 16.4656 57.1581 17.4775 58.5574C17.4783 58.5561 17.4792 58.5548 17.4801 58.5535ZM72.0174 96.5888C72.8525 96.6803 74.3028 96.7825 75.3857 96.8105C76.9257 96.8639 78.0791 96.6009 76.7259 95.8825C76.2998 95.9351 75.9039 95.9842 75.533 96.0275C74.3693 96.1684 73.2022 96.3719 72.0174 96.5888ZM73.6735 20.1951C75.3695 20.3755 76.773 20.0419 78.68 19.5816C76.8009 19.1563 77.9086 18.8124 78.4286 18.491C79.2568 17.9971 77.1296 18.4936 77.0972 18.4457C76.9778 17.6728 78.2995 17.244 75.1887 17.9729C75.9262 17.5235 76.59 17.0915 77.3264 16.65C74.9328 17.1506 74.2587 16.7877 72.5984 16.5389C74.4016 17.6787 72.2626 17.1982 70.6956 18.3626C69.9153 18.9437 72.8307 20.0944 73.6793 20.1938C73.6774 20.1942 73.6755 20.1947 73.6735 20.1951ZM20.0461 53.9805C19.9469 53.417 19.7237 52.8837 19.5551 52.3556C19.67 51.8687 19.7802 51.3906 19.8885 50.9136C20.138 50.9244 20.3955 50.9481 20.6387 50.9474C20.8846 50.3628 20.4918 50.5024 20.5151 50.3132C20.5164 50.3136 20.5176 50.314 20.5189 50.3144C20.863 47.66 21.3617 46.6284 22.9564 45.2979C22.3119 44.9279 21.6673 44.5579 21.0228 44.1879C20.8475 44.635 20.67 45.1186 20.5274 45.5706C20.7721 45.9806 21.0293 46.3766 21.2974 46.7576C20.8815 47.1529 20.4818 47.5643 20.0867 48.0072C20.0735 48.4626 20.0488 49.0149 20.0689 49.4166C17.41 50.9098 20.3083 46.5364 19.6292 46.1968C19.0191 45.9133 17.4174 50.9561 17.6332 51.7267C17.6533 51.8457 19.4636 51.2297 18.1393 52.7889C17.9016 53.0576 14.8058 52.0091 16.594 54.7467C16.8184 55.1781 19.1679 55.0802 20.0461 53.9805ZM29.1818 40.0371C25.6547 40.1053 34.9805 35.6307 30.4589 36.8911C30.8751 35.3539 30.7085 35.4867 29.1496 35.5707C29.0086 35.5782 29.5614 34.8219 29.4832 34.8393C28.2161 35.1737 27.1925 36.3516 26.6278 35.6865C26.3854 35.95 26.1642 36.1942 25.9392 36.4537C27.551 36.1502 26.2036 38.0333 26.1022 39.1204C26.0534 39.6046 26.7366 39.0845 26.701 39.5003C26.6908 39.6409 25.6912 40.3528 25.8733 40.5886C26.277 41.1153 27.4133 41.1833 28.6079 40.7369C28.6083 40.7373 28.6088 40.7378 28.6092 40.7383C28.8101 40.4951 28.9845 40.2691 29.1818 40.0371ZM20.7216 84.7823C20.7591 86.0294 22.5738 87.028 18.788 86.326C18.8805 86.6093 18.9844 86.8933 19.0877 87.1775C19.7254 87.3828 20.315 87.5555 20.954 87.7322C21.3335 87.3757 21.6993 87.1432 22.0504 87.002C24.3194 86.0335 25.9665 89.2245 24.6114 86.6558C24.444 86.3355 22.9274 86.2369 24.5359 85.9137C24.5342 85.9125 24.5324 85.9114 24.5307 85.9103C23.5427 85.7598 22.9508 85.752 22.4352 85.6622C21.8794 85.5626 21.4113 85.3687 20.7216 84.7823ZM9.55508 78.2897C7.38447 76.8728 7.65031 78.49 9.02831 80.2166C10.3886 81.9083 12.6755 82.9503 12.1006 82.113C12.0537 82.0396 10.9669 81.3348 10.1878 80.423C9.37912 79.5072 8.94596 78.4458 9.55508 78.2897ZM44.5783 88.2939C42.4872 87.9783 42.1595 89.2805 42.3072 89.7912C42.4571 90.303 43.9846 90.0123 44.1659 90.1116C44.7532 90.4415 43.4167 90.4364 44.178 90.8832C44.4308 91.0361 48.0765 91.9556 48.2622 91.9118C49.2438 91.6982 47.9851 90.4421 48.2701 90.3462C49.1942 90.0326 50.3212 90.7324 50.6394 90.1728C51.3182 88.9805 48.9621 90.0577 48.5842 90.0346C47.441 89.9657 47.6286 89.2739 46.8012 89.0335C45.9721 88.7919 45.3993 88.9652 44.6617 88.8205C44.4166 88.7722 44.6846 88.3121 44.5783 88.2939ZM37.1979 90.0854C39.5561 89.4448 34.4013 87.4684 33.7439 87.5636C31.7498 87.9094 36.0426 90.406 37.1979 90.0854ZM22.2534 42.8657C21.741 44.9082 24.8072 41.4969 25.5745 40.4473C25.1819 40.3545 22.4111 42.0915 22.2534 42.8657ZM16.6213 59.6792C17.6314 58.0291 15.2966 58.9404 14.0363 59.7868C13.9016 59.8817 13.7792 59.9846 13.6747 60.0934C13.794 61.2714 14.1194 60.9297 14.6472 60.4137C14.7697 60.2946 14.8984 60.166 15.0319 60.0388C15.8105 59.2654 15.6587 61.0577 16.6213 59.6792ZM67.5258 91.7098C67.1115 91.651 60.5069 92.0182 64.2311 92.6984C64.4947 92.7449 69.1163 92.9762 69.4613 92.8481C70.2002 92.5762 68.5639 91.8465 67.5258 91.7098ZM12.5656 67.1945C12.1508 66.0043 12.6895 65.2299 11.2939 65.3449C11.2933 65.3459 11.2926 65.347 11.2919 65.348C12.3263 63.1551 14.2527 64.5292 14.4905 64.1288C15.4487 62.7416 13.1702 62.9106 13.5136 61.7193C12.1686 64.0515 11.8122 62.7808 10.5678 64.4506C10.2768 64.8294 9.94049 66.7577 10.2221 67.1537C10.4793 67.548 11.9447 67.317 12.5656 67.1945ZM76.8046 92.5916C76.5855 92.5169 76.3856 92.4657 76.2086 92.435C74.251 92.1129 72.7983 93.1681 75.5084 93.7983C75.6585 93.8365 75.8023 93.8599 75.9386 93.8706C77.0384 93.935 77.9799 92.9535 76.8046 92.5916ZM125.127 13.8306C124.749 13.4719 124.357 13.1164 123.948 12.7647C124.745 12.5722 125.549 12.3758 126.349 12.1786C125.728 12.3822 125.08 12.5863 124.463 12.786C125.989 12.7441 126.801 13.38 125.131 13.8301C125.13 13.8302 125.128 13.8304 125.127 13.8306ZM178.045 14.112C178.575 14.6548 180.158 13.8829 180.03 13.748C179.019 12.709 177.293 13.3538 178.045 14.112ZM26.8265 42.9201C28.4572 41.4215 26.0012 41.136 24.937 42.1849C25.775 41.7755 25.9447 43.7932 26.8265 42.9201ZM159.634 10.5526C159.435 10.3623 159.234 10.173 159.004 9.98236C159.751 10.2908 159.866 10.4657 159.634 10.5526ZM66.6243 89.9089C66.2548 89.7268 63.3726 89.3671 62.9839 89.5209C62.1477 89.8423 64.2985 91.0945 65.6412 90.8744C65.7958 90.8514 66.9952 90.0899 66.6183 89.9084C66.6203 89.9086 66.6223 89.9087 66.6243 89.9089ZM128.66 14.1483C128.653 14.1304 128.653 14.1125 128.659 14.0952C128.659 14.1128 128.662 14.1305 128.66 14.1483ZM221.686 47.3174C221.697 47.2858 221.713 47.2591 221.734 47.2399C221.719 47.2638 221.706 47.2929 221.686 47.3174ZM46.7468 86.3921C46.0407 84.4425 43.7872 85.1445 45.3604 86.2702C45.4502 86.3306 46.5177 86.3615 46.7468 86.3921Z" fill="#E8DCCD"/>
<path d="M63.7959 58.2295C63.7959 58.5264 63.6943 58.7451 63.4912 58.8857C63.3037 59.042 63.0928 59.1201 62.8584 59.1201C62.624 59.1201 62.4053 59.042 62.2021 58.8857C62.0146 58.7451 61.9209 58.5264 61.9209 58.2295C61.9209 55.7295 61.9521 53.2451 62.0146 50.7764C62.0771 48.292 62.2256 45.8076 62.46 43.3232C62.4912 43.0576 62.585 42.8467 62.7412 42.6904C62.9131 42.5342 63.0928 42.4482 63.2803 42.4326C63.4834 42.4014 63.6787 42.4404 63.8662 42.5498C64.0693 42.6436 64.2178 42.8154 64.3115 43.0654C64.624 43.9561 64.9131 44.8545 65.1787 45.7607C65.4443 46.6514 65.7021 47.5498 65.9521 48.4561C66.2178 49.3623 66.4834 50.2686 66.749 51.1748C67.0303 52.0654 67.335 52.9482 67.6631 53.8232C68.4756 51.7764 69.21 49.7217 69.8662 47.6592C70.5381 45.5967 71.0771 43.4795 71.4834 41.3076C71.5303 41.0732 71.6396 40.9014 71.8115 40.792C71.9834 40.6826 72.1709 40.6279 72.374 40.6279C72.5928 40.6279 72.7881 40.6826 72.96 40.792C73.1318 40.9014 73.2412 41.0732 73.2881 41.3076C73.4131 42.0107 73.4521 42.7061 73.4053 43.3936C73.374 44.0654 73.3584 44.7529 73.3584 45.4561C73.3584 46.2061 73.3975 46.9404 73.4756 47.6592C73.5693 48.3779 73.6475 49.1045 73.71 49.8389C73.835 51.3076 73.9287 52.7764 73.9912 54.2451C74.0537 55.7139 74.1084 57.1826 74.1553 58.6514C74.1553 58.9639 74.0615 59.1904 73.874 59.3311C73.6865 59.4873 73.4756 59.5654 73.2412 59.5654C73.0068 59.5654 72.7881 59.4873 72.585 59.3311C72.3818 59.1904 72.2803 58.9639 72.2803 58.6514C72.249 57.1826 72.1943 55.7139 72.1162 54.2451C72.0537 52.7764 71.96 51.3076 71.835 49.8389C71.8037 49.5732 71.7725 49.2998 71.7412 49.0186C71.7256 48.7373 71.7021 48.4639 71.6709 48.1982C71.2178 49.6201 70.7256 51.0186 70.1943 52.3936C69.6787 53.7686 69.1396 55.1436 68.5771 56.5186C68.499 56.7061 68.3818 56.8701 68.2256 57.0107C68.085 57.1357 67.9053 57.1982 67.6865 57.1982C67.5303 57.1982 67.374 57.1592 67.2178 57.0811C67.0615 56.9873 66.9443 56.8701 66.8662 56.7295C66.2412 55.3545 65.71 53.9561 65.2725 52.5342C64.835 51.1123 64.4053 49.6748 63.9834 48.2217C63.9053 49.8936 63.8506 51.5654 63.8193 53.2373C63.8037 54.8936 63.7959 56.5576 63.7959 58.2295ZM79.2037 58.4639C79.3287 57.7139 79.4693 56.9795 79.6256 56.2607C79.7975 55.5264 79.9225 54.7842 80.0006 54.0342C80.0631 53.2998 80.0709 52.5811 80.024 51.8779C79.9928 51.1592 80.0396 50.4326 80.1646 49.6982C80.1959 49.4482 80.3365 49.2607 80.5865 49.1357C80.8521 49.0107 81.0943 48.9795 81.3131 49.042C81.5787 49.1201 81.7584 49.2686 81.8521 49.4873C81.9615 49.7061 82.0006 49.9404 81.9693 50.1904C81.9068 50.5498 81.8756 50.917 81.8756 51.292C81.8912 51.667 81.9068 52.042 81.9225 52.417C81.9225 53.1357 81.8756 53.8545 81.7818 54.5732C81.6881 55.3232 81.5631 56.0576 81.4068 56.7764C81.2662 57.4951 81.1334 58.2217 81.0084 58.9561C80.9615 59.2061 80.8131 59.3936 80.5631 59.5186C80.3131 59.6436 80.0787 59.6748 79.86 59.6123C79.5943 59.5342 79.4068 59.3857 79.2975 59.167C79.1881 58.9482 79.1568 58.7139 79.2037 58.4639ZM80.3287 47.6826C80.2193 47.6514 80.11 47.6045 80.0006 47.542C79.8912 47.4639 79.8131 47.3701 79.7662 47.2607C79.7193 47.1357 79.6803 47.0264 79.649 46.9326C79.6178 46.8389 79.6021 46.7295 79.6021 46.6045C79.6021 46.4639 79.6256 46.3232 79.6725 46.1826C79.735 45.9014 79.86 45.6982 80.0475 45.5732C80.11 45.4795 80.1959 45.4092 80.3053 45.3623C80.4771 45.2529 80.6725 45.1982 80.8912 45.1982C81.11 45.1826 81.3053 45.2373 81.4771 45.3623C81.5553 45.4248 81.6334 45.4951 81.7115 45.5732C81.7896 45.6357 81.8521 45.7217 81.899 45.8311C81.9303 45.9092 81.9615 45.9951 81.9928 46.0889C82.0396 46.1826 82.0553 46.2764 82.0396 46.3701C82.024 46.4795 82.0084 46.5811 81.9928 46.6748C81.9771 46.7686 81.9381 46.8545 81.8756 46.9326C81.7975 47.042 81.735 47.1201 81.6881 47.167C81.6412 47.2139 81.5631 47.2764 81.4537 47.3545C81.3912 47.417 81.2975 47.4639 81.1725 47.4951C80.8443 47.6826 80.5631 47.7451 80.3287 47.6826ZM87.1115 56.4482C87.1115 55.7764 87.1584 55.0967 87.2522 54.4092C87.3615 53.5811 87.4709 52.7607 87.5803 51.9482C87.6897 51.1201 87.7365 50.2842 87.7209 49.4404C87.7209 49.1436 87.8147 48.917 88.0022 48.7607C88.1897 48.6045 88.4006 48.5264 88.635 48.5264C88.8693 48.5264 89.0881 48.6045 89.2912 48.7607C89.4943 48.917 89.5959 49.1436 89.5959 49.4404C90.2053 49.3936 90.7834 49.3701 91.3303 49.3701C91.9553 49.3857 92.4865 49.5654 92.924 49.9092C93.3615 50.2529 93.6897 50.7139 93.9084 51.292C94.0959 51.8232 94.2053 52.3701 94.2365 52.9326C94.2678 53.4951 94.2912 54.0576 94.3068 54.6201C94.3225 55.417 94.3459 56.2139 94.3772 57.0107C94.4084 57.792 94.424 58.5811 94.424 59.3779C94.424 59.6904 94.3225 59.917 94.1193 60.0576C93.9318 60.2139 93.7209 60.292 93.4865 60.292C93.2678 60.292 93.0568 60.2139 92.8537 60.0576C92.6662 59.917 92.5725 59.6904 92.5725 59.3779C92.5725 58.6279 92.5568 57.8936 92.5256 57.1748C92.51 56.4561 92.4865 55.7217 92.4553 54.9717C92.424 54.5654 92.4084 54.1514 92.4084 53.7295C92.424 53.292 92.3928 52.8936 92.3147 52.5342C92.2678 52.3154 92.2209 52.1279 92.174 51.9717C92.1272 51.7998 92.0412 51.6357 91.9162 51.4795C91.885 51.417 91.8147 51.3623 91.7053 51.3154C91.6115 51.2686 91.5256 51.2451 91.4475 51.2451C91.2131 51.2451 90.9943 51.2607 90.7912 51.292C90.5881 51.3232 90.3772 51.3701 90.1584 51.4326C90.0647 51.4639 89.9709 51.4951 89.8772 51.5264C89.7834 51.5576 89.6975 51.5967 89.6193 51.6436C89.4631 52.2061 89.3459 52.7451 89.2678 53.2607C89.2053 53.7607 89.1428 54.2686 89.0803 54.7842C89.0334 55.1592 89.0022 55.542 88.9865 55.9326C88.9865 56.3076 88.9709 56.6826 88.9397 57.0576C88.924 57.4326 88.8772 57.8076 88.799 58.1826C88.7365 58.5576 88.6193 58.917 88.4475 59.2607C88.3068 59.5264 88.1193 59.6748 87.885 59.7061C87.6506 59.7529 87.4318 59.7139 87.2287 59.5889C87.0412 59.4795 86.8928 59.3076 86.7834 59.0732C86.6897 58.8389 86.7053 58.5889 86.8303 58.3232C86.9709 58.042 87.049 57.7373 87.0647 57.4092C87.0803 57.0811 87.0959 56.7607 87.1115 56.4482ZM99.1443 58.4639C99.2693 57.7139 99.41 56.9795 99.5662 56.2607C99.7381 55.5264 99.8631 54.7842 99.9412 54.0342C100.004 53.2998 100.012 52.5811 99.9646 51.8779C99.9334 51.1592 99.9803 50.4326 100.105 49.6982C100.137 49.4482 100.277 49.2607 100.527 49.1357C100.793 49.0107 101.035 48.9795 101.254 49.042C101.519 49.1201 101.699 49.2686 101.793 49.4873C101.902 49.7061 101.941 49.9404 101.91 50.1904C101.847 50.5498 101.816 50.917 101.816 51.292C101.832 51.667 101.847 52.042 101.863 52.417C101.863 53.1357 101.816 53.8545 101.722 54.5732C101.629 55.3232 101.504 56.0576 101.347 56.7764C101.207 57.4951 101.074 58.2217 100.949 58.9561C100.902 59.2061 100.754 59.3936 100.504 59.5186C100.254 59.6436 100.019 59.6748 99.8006 59.6123C99.535 59.5342 99.3475 59.3857 99.2381 59.167C99.1287 58.9482 99.0975 58.7139 99.1443 58.4639ZM100.269 47.6826C100.16 47.6514 100.051 47.6045 99.9412 47.542C99.8318 47.4639 99.7537 47.3701 99.7068 47.2607C99.66 47.1357 99.6209 47.0264 99.5896 46.9326C99.5584 46.8389 99.5428 46.7295 99.5428 46.6045C99.5428 46.4639 99.5662 46.3232 99.6131 46.1826C99.6756 45.9014 99.8006 45.6982 99.9881 45.5732C100.051 45.4795 100.137 45.4092 100.246 45.3623C100.418 45.2529 100.613 45.1982 100.832 45.1982C101.051 45.1826 101.246 45.2373 101.418 45.3623C101.496 45.4248 101.574 45.4951 101.652 45.5732C101.73 45.6357 101.793 45.7217 101.84 45.8311C101.871 45.9092 101.902 45.9951 101.933 46.0889C101.98 46.1826 101.996 46.2764 101.98 46.3701C101.965 46.4795 101.949 46.5811 101.933 46.6748C101.918 46.7686 101.879 46.8545 101.816 46.9326C101.738 47.042 101.676 47.1201 101.629 47.167C101.582 47.2139 101.504 47.2764 101.394 47.3545C101.332 47.417 101.238 47.4639 101.113 47.4951C100.785 47.6826 100.504 47.7451 100.269 47.6826ZM125.835 58.1123C125.71 58.3311 125.515 58.4795 125.249 58.5576C124.999 58.6357 124.765 58.5967 124.546 58.4404C124.124 58.1279 123.718 57.8076 123.327 57.4795C122.937 57.1357 122.515 56.8311 122.062 56.5654C121.655 56.3154 121.249 56.0889 120.843 55.8857C120.437 55.667 120.046 55.417 119.671 55.1357C119.218 54.792 118.796 54.417 118.405 54.0107C118.39 54.792 118.397 55.5732 118.429 56.3545C118.46 57.1201 118.507 57.8936 118.569 58.6748C118.601 58.9404 118.515 59.1592 118.312 59.3311C118.108 59.5186 117.89 59.6123 117.655 59.6123C117.374 59.6123 117.155 59.5186 116.999 59.3311C116.843 59.1592 116.749 58.9404 116.718 58.6748C116.624 57.5498 116.569 56.4482 116.554 55.3701C116.538 54.2764 116.562 53.1748 116.624 52.0654C116.499 51.8936 116.374 51.7217 116.249 51.5498C116.124 51.3623 116.007 51.1748 115.897 50.9873C115.804 50.7998 115.765 50.6201 115.78 50.4482C115.812 50.2764 115.874 50.1279 115.968 50.0029C116.077 49.8779 116.202 49.7764 116.343 49.6982C116.499 49.6201 116.663 49.5889 116.835 49.6045C116.866 49.2451 116.905 48.8857 116.952 48.5264C116.999 48.1514 117.046 47.7842 117.093 47.4248C117.14 47.1748 117.179 46.9326 117.21 46.6982C117.257 46.4482 117.296 46.1982 117.327 45.9482C117.358 45.8232 117.374 45.7061 117.374 45.5967C117.39 45.4873 117.413 45.3701 117.444 45.2451C117.444 45.1826 117.46 45.1045 117.491 45.0107C117.507 44.8076 117.515 44.6123 117.515 44.4248C117.515 44.2217 117.522 44.0186 117.538 43.8154C117.554 43.5654 117.577 43.2998 117.608 43.0186C117.655 42.7217 117.718 42.4404 117.796 42.1748C117.89 41.8936 118.015 41.6357 118.171 41.4014C118.327 41.167 118.538 40.9873 118.804 40.8623C119.054 40.7529 119.304 40.6904 119.554 40.6748C119.819 40.6592 120.077 40.6748 120.327 40.7217C120.593 40.7686 120.851 40.8389 121.101 40.9326C121.351 41.0107 121.593 41.0967 121.827 41.1904C122.374 41.3936 122.913 41.6279 123.444 41.8936C123.991 42.1436 124.476 42.4717 124.897 42.8779C125.304 43.2842 125.655 43.7686 125.952 44.3311C126.249 44.8779 126.382 45.4482 126.351 46.042C126.319 46.4014 126.241 46.7217 126.116 47.0029C126.007 47.2686 125.851 47.542 125.647 47.8232C125.147 48.5264 124.608 49.1982 124.03 49.8389C123.452 50.4795 122.835 51.0654 122.179 51.5967C121.866 51.8467 121.522 52.0967 121.147 52.3467C120.788 52.5967 120.405 52.8076 119.999 52.9795C120.14 53.1045 120.28 53.2295 120.421 53.3545C120.562 53.4795 120.71 53.5889 120.866 53.6826C121.272 53.9482 121.679 54.1982 122.085 54.4326C122.507 54.6514 122.913 54.8936 123.304 55.1592C123.679 55.4248 124.046 55.7061 124.405 56.0029C124.765 56.2998 125.124 56.5811 125.483 56.8467C125.702 56.9873 125.843 57.1748 125.905 57.4092C125.983 57.6436 125.96 57.8779 125.835 58.1123ZM119.507 51.1514C119.882 50.9482 120.218 50.7373 120.515 50.5186C120.827 50.2842 121.132 50.0342 121.429 49.7686C121.741 49.4873 122.046 49.1904 122.343 48.8779C122.64 48.5654 122.929 48.2529 123.21 47.9404C123.319 47.7998 123.421 47.6748 123.515 47.5654C123.608 47.4561 123.694 47.3545 123.772 47.2607C123.851 47.1514 123.929 47.042 124.007 46.9326C124.101 46.8076 124.194 46.667 124.288 46.5107C124.319 46.4639 124.351 46.417 124.382 46.3701C124.413 46.3232 124.444 46.2764 124.476 46.2295C124.491 45.792 124.397 45.3857 124.194 45.0107C123.929 44.5576 123.593 44.1904 123.187 43.9092C122.796 43.6279 122.358 43.3936 121.874 43.2061C121.593 43.0811 121.312 42.9717 121.03 42.8779C120.749 42.7842 120.452 42.6982 120.14 42.6201C120.062 42.5889 119.944 42.5576 119.788 42.5264C119.694 42.5576 119.632 42.6045 119.601 42.667C119.538 42.8701 119.507 43.0107 119.507 43.0889C119.491 43.1357 119.468 43.2217 119.437 43.3467C119.421 43.5029 119.405 43.6279 119.39 43.7217C119.39 43.7998 119.39 43.8857 119.39 43.9795C119.343 45.0576 119.226 46.1201 119.038 47.167C118.866 48.2139 118.726 49.2764 118.616 50.3545C118.585 50.5264 118.562 50.7061 118.546 50.8936C118.546 51.0654 118.538 51.2373 118.522 51.4092C118.663 51.4248 118.741 51.4248 118.757 51.4092C118.929 51.3779 119.062 51.3467 119.155 51.3154C119.265 51.2686 119.382 51.2139 119.507 51.1514ZM135.032 47.8936C135.532 47.8311 136.055 47.8154 136.602 47.8467C137.149 47.8623 137.672 47.9561 138.172 48.1279C138.672 48.2842 139.126 48.5264 139.532 48.8545C139.938 49.1826 140.251 49.6123 140.469 50.1436C140.626 50.5186 140.704 50.9014 140.704 51.292C140.719 51.667 140.665 52.0342 140.54 52.3936C140.43 52.7373 140.258 53.0732 140.024 53.4014C139.805 53.7139 139.547 54.0029 139.251 54.2686C138.61 54.8467 137.907 55.3389 137.141 55.7451C136.376 56.1514 135.571 56.4639 134.727 56.6826C134.368 56.7764 133.993 56.8623 133.602 56.9404C133.227 57.0029 132.844 57.0342 132.454 57.0342C132.063 57.0342 131.68 56.9951 131.305 56.917C130.93 56.8232 130.579 56.6748 130.251 56.4717C130.016 56.3311 129.876 56.1436 129.829 55.9092C129.735 55.6436 129.633 55.3936 129.524 55.1592C129.415 54.9248 129.305 54.6826 129.196 54.4326C129.102 54.1826 129.024 53.9326 128.962 53.6826C128.899 53.4326 128.868 53.1748 128.868 52.9092C128.868 52.3779 128.977 51.8779 129.196 51.4092C129.43 50.9248 129.743 50.5029 130.133 50.1436C130.79 49.5186 131.547 49.0186 132.407 48.6436C133.266 48.2686 134.141 48.0186 135.032 47.8936ZM137.68 49.9092C137.258 49.7529 136.805 49.6748 136.321 49.6748C135.805 49.6592 135.29 49.7139 134.774 49.8389C134.258 49.9482 133.766 50.1045 133.297 50.3076C132.86 50.4795 132.407 50.7217 131.938 51.0342C131.485 51.3311 131.149 51.6982 130.93 52.1357C130.805 52.3701 130.743 52.6123 130.743 52.8623C130.758 53.0967 130.797 53.3389 130.86 53.5889C130.938 53.8232 131.032 54.0654 131.141 54.3154C131.266 54.5498 131.376 54.7842 131.469 55.0186C131.719 55.0811 131.876 55.1123 131.938 55.1123C131.969 55.1279 132.008 55.1357 132.055 55.1357C132.102 55.1357 132.141 55.1357 132.172 55.1357C132.485 55.167 132.766 55.1592 133.016 55.1123C133.188 55.1123 133.407 55.0811 133.672 55.0186C134.079 54.9404 134.469 54.8389 134.844 54.7139C135.219 54.5732 135.563 54.4248 135.876 54.2686C136.235 54.0967 136.587 53.9092 136.93 53.7061C137.274 53.5029 137.563 53.292 137.797 53.0732C137.954 52.9326 138.102 52.7842 138.243 52.6279C138.321 52.5498 138.376 52.4873 138.407 52.4404C138.485 52.3311 138.547 52.2529 138.594 52.2061C138.641 52.1436 138.68 52.0732 138.712 51.9951C138.774 51.8857 138.805 51.7998 138.805 51.7373C138.821 51.7061 138.829 51.667 138.829 51.6201C138.844 51.5732 138.86 51.5342 138.876 51.5029V51.2451C138.86 51.1826 138.852 51.1357 138.852 51.1045C138.852 51.0732 138.844 51.042 138.829 51.0107C138.782 50.9014 138.735 50.8232 138.688 50.7764C138.657 50.7139 138.618 50.6514 138.571 50.5889C138.587 50.6045 138.563 50.5811 138.501 50.5186C138.454 50.4561 138.422 50.417 138.407 50.4014L138.219 50.2139C138.141 50.167 138.055 50.1123 137.962 50.0498C137.868 49.9873 137.774 49.9404 137.68 49.9092ZM147.041 50.1436C147.604 49.7998 148.205 49.5029 148.846 49.2529C149.502 49.0029 150.166 48.8857 150.838 48.9014C150.776 47.5732 150.721 46.2529 150.674 44.9404C150.643 43.6279 150.619 42.3076 150.604 40.9795C150.604 40.6826 150.697 40.4639 150.885 40.3232C151.072 40.167 151.283 40.0889 151.518 40.0889C151.752 40.0889 151.963 40.167 152.151 40.3232C152.354 40.4639 152.455 40.6826 152.455 40.9795C152.471 42.5264 152.51 44.0811 152.572 45.6436C152.635 47.1904 152.697 48.7373 152.76 50.2842C152.822 51.8311 152.869 53.3857 152.901 54.9482C152.932 56.4951 152.924 58.042 152.877 59.5889C152.862 59.8857 152.752 60.1123 152.549 60.2686C152.346 60.4248 152.127 60.5029 151.893 60.5029C151.658 60.5029 151.447 60.4248 151.26 60.2686C151.072 60.1279 150.987 59.9014 151.002 59.5889C151.002 59.4795 151.002 59.3701 151.002 59.2607C151.002 59.1514 151.01 59.042 151.026 58.9326C150.869 58.917 150.713 58.9014 150.557 58.8857C150.416 58.8857 150.276 58.8857 150.135 58.8857C149.947 58.8857 149.76 58.8857 149.572 58.8857C149.385 58.8857 149.205 58.8779 149.033 58.8623C148.627 58.8311 148.221 58.792 147.815 58.7451C147.408 58.6982 147.01 58.6045 146.619 58.4639C146.229 58.3076 145.862 58.1201 145.518 57.9014C145.174 57.667 144.893 57.3623 144.674 56.9873C144.424 56.5967 144.213 56.1748 144.041 55.7217C143.885 55.2686 143.822 54.7998 143.854 54.3154C143.885 53.8311 143.994 53.3857 144.182 52.9795C144.369 52.5732 144.604 52.1982 144.885 51.8545C145.182 51.5107 145.51 51.1982 145.869 50.917C146.244 50.6357 146.635 50.3779 147.041 50.1436ZM151.049 57.0811C151.049 54.9873 151.002 52.8857 150.908 50.7764C150.393 50.7451 149.877 50.8389 149.362 51.0576C148.862 51.2607 148.401 51.4951 147.979 51.7607C147.744 51.9014 147.487 52.0654 147.205 52.2529C146.94 52.4248 146.69 52.6279 146.455 52.8623C146.237 53.0811 146.057 53.3232 145.916 53.5889C145.776 53.8545 145.705 54.1436 145.705 54.4561C145.721 54.7373 145.783 55.042 145.893 55.3701C146.002 55.6826 146.151 55.9404 146.338 56.1436C146.526 56.3467 146.737 56.5029 146.971 56.6123C147.205 56.7061 147.455 56.7842 147.721 56.8467C148.033 56.9092 148.33 56.9482 148.612 56.9639C148.908 56.9795 149.213 56.9951 149.526 57.0107C149.776 57.0107 150.026 57.0264 150.276 57.0576C150.526 57.0732 150.783 57.0811 151.049 57.0811ZM157.738 58.4639C157.863 57.7139 158.004 56.9795 158.16 56.2607C158.332 55.5264 158.457 54.7842 158.535 54.0342C158.597 53.2998 158.605 52.5811 158.558 51.8779C158.527 51.1592 158.574 50.4326 158.699 49.6982C158.73 49.4482 158.871 49.2607 159.121 49.1357C159.387 49.0107 159.629 48.9795 159.847 49.042C160.113 49.1201 160.293 49.2686 160.387 49.4873C160.496 49.7061 160.535 49.9404 160.504 50.1904C160.441 50.5498 160.41 50.917 160.41 51.292C160.426 51.667 160.441 52.042 160.457 52.417C160.457 53.1357 160.41 53.8545 160.316 54.5732C160.222 55.3232 160.097 56.0576 159.941 56.7764C159.801 57.4951 159.668 58.2217 159.543 58.9561C159.496 59.2061 159.347 59.3936 159.097 59.5186C158.847 59.6436 158.613 59.6748 158.394 59.6123C158.129 59.5342 157.941 59.3857 157.832 59.167C157.722 58.9482 157.691 58.7139 157.738 58.4639ZM158.863 47.6826C158.754 47.6514 158.644 47.6045 158.535 47.542C158.426 47.4639 158.347 47.3701 158.301 47.2607C158.254 47.1357 158.215 47.0264 158.183 46.9326C158.152 46.8389 158.137 46.7295 158.137 46.6045C158.137 46.4639 158.16 46.3232 158.207 46.1826C158.269 45.9014 158.394 45.6982 158.582 45.5732C158.644 45.4795 158.73 45.4092 158.84 45.3623C159.012 45.2529 159.207 45.1982 159.426 45.1982C159.644 45.1826 159.84 45.2373 160.012 45.3623C160.09 45.4248 160.168 45.4951 160.246 45.5732C160.324 45.6357 160.387 45.7217 160.433 45.8311C160.465 45.9092 160.496 45.9951 160.527 46.0889C160.574 46.1826 160.59 46.2764 160.574 46.3701C160.558 46.4795 160.543 46.5811 160.527 46.6748C160.512 46.7686 160.472 46.8545 160.41 46.9326C160.332 47.042 160.269 47.1201 160.222 47.167C160.176 47.2139 160.097 47.2764 159.988 47.3545C159.926 47.417 159.832 47.4639 159.707 47.4951C159.379 47.6826 159.097 47.7451 158.863 47.6826ZM165.646 56.4482C165.646 55.7764 165.693 55.0967 165.787 54.4092C165.896 53.5811 166.005 52.7607 166.115 51.9482C166.224 51.1201 166.271 50.2842 166.255 49.4404C166.255 49.1436 166.349 48.917 166.537 48.7607C166.724 48.6045 166.935 48.5264 167.169 48.5264C167.404 48.5264 167.622 48.6045 167.826 48.7607C168.029 48.917 168.13 49.1436 168.13 49.4404C168.74 49.3936 169.318 49.3701 169.865 49.3701C170.49 49.3857 171.021 49.5654 171.458 49.9092C171.896 50.2529 172.224 50.7139 172.443 51.292C172.63 51.8232 172.74 52.3701 172.771 52.9326C172.802 53.4951 172.826 54.0576 172.841 54.6201C172.857 55.417 172.88 56.2139 172.912 57.0107C172.943 57.792 172.958 58.5811 172.958 59.3779C172.958 59.6904 172.857 59.917 172.654 60.0576C172.466 60.2139 172.255 60.292 172.021 60.292C171.802 60.292 171.591 60.2139 171.388 60.0576C171.201 59.917 171.107 59.6904 171.107 59.3779C171.107 58.6279 171.091 57.8936 171.06 57.1748C171.044 56.4561 171.021 55.7217 170.99 54.9717C170.958 54.5654 170.943 54.1514 170.943 53.7295C170.958 53.292 170.927 52.8936 170.849 52.5342C170.802 52.3154 170.755 52.1279 170.708 51.9717C170.662 51.7998 170.576 51.6357 170.451 51.4795C170.419 51.417 170.349 51.3623 170.24 51.3154C170.146 51.2686 170.06 51.2451 169.982 51.2451C169.747 51.2451 169.529 51.2607 169.326 51.292C169.122 51.3232 168.912 51.3701 168.693 51.4326C168.599 51.4639 168.505 51.4951 168.412 51.5264C168.318 51.5576 168.232 51.5967 168.154 51.6436C167.997 52.2061 167.88 52.7451 167.802 53.2607C167.74 53.7607 167.677 54.2686 167.615 54.7842C167.568 55.1592 167.537 55.542 167.521 55.9326C167.521 56.3076 167.505 56.6826 167.474 57.0576C167.458 57.4326 167.412 57.8076 167.333 58.1826C167.271 58.5576 167.154 58.917 166.982 59.2607C166.841 59.5264 166.654 59.6748 166.419 59.7061C166.185 59.7529 165.966 59.7139 165.763 59.5889C165.576 59.4795 165.427 59.3076 165.318 59.0732C165.224 58.8389 165.24 58.5889 165.365 58.3232C165.505 58.042 165.583 57.7373 165.599 57.4092C165.615 57.0811 165.63 56.7607 165.646 56.4482ZM177.679 58.4639C177.804 57.7139 177.944 56.9795 178.101 56.2607C178.272 55.5264 178.397 54.7842 178.476 54.0342C178.538 53.2998 178.546 52.5811 178.499 51.8779C178.468 51.1592 178.515 50.4326 178.64 49.6982C178.671 49.4482 178.812 49.2607 179.062 49.1357C179.327 49.0107 179.569 48.9795 179.788 49.042C180.054 49.1201 180.233 49.2686 180.327 49.4873C180.437 49.7061 180.476 49.9404 180.444 50.1904C180.382 50.5498 180.351 50.917 180.351 51.292C180.366 51.667 180.382 52.042 180.397 52.417C180.397 53.1357 180.351 53.8545 180.257 54.5732C180.163 55.3232 180.038 56.0576 179.882 56.7764C179.741 57.4951 179.608 58.2217 179.483 58.9561C179.437 59.2061 179.288 59.3936 179.038 59.5186C178.788 59.6436 178.554 59.6748 178.335 59.6123C178.069 59.5342 177.882 59.3857 177.772 59.167C177.663 58.9482 177.632 58.7139 177.679 58.4639ZM178.804 47.6826C178.694 47.6514 178.585 47.6045 178.476 47.542C178.366 47.4639 178.288 47.3701 178.241 47.2607C178.194 47.1357 178.155 47.0264 178.124 46.9326C178.093 46.8389 178.077 46.7295 178.077 46.6045C178.077 46.4639 178.101 46.3232 178.147 46.1826C178.21 45.9014 178.335 45.6982 178.522 45.5732C178.585 45.4795 178.671 45.4092 178.78 45.3623C178.952 45.2529 179.147 45.1982 179.366 45.1982C179.585 45.1826 179.78 45.2373 179.952 45.3623C180.03 45.4248 180.108 45.4951 180.187 45.5732C180.265 45.6357 180.327 45.7217 180.374 45.8311C180.405 45.9092 180.437 45.9951 180.468 46.0889C180.515 46.1826 180.53 46.2764 180.515 46.3701C180.499 46.4795 180.483 46.5811 180.468 46.6748C180.452 46.7686 180.413 46.8545 180.351 46.9326C180.272 47.042 180.21 47.1201 180.163 47.167C180.116 47.2139 180.038 47.2764 179.929 47.3545C179.866 47.417 179.772 47.4639 179.647 47.4951C179.319 47.6826 179.038 47.7451 178.804 47.6826Z" fill="#4A2F2C"/>
</svg>
