<svg width="371" height="85" viewBox="0 0 371 85" fill="none" xmlns="http://www.w3.org/2000/svg">
<g filter="url(#filter0_d_3049_22519)">
<path d="M14.2804 18.8427C14.5658 16.7242 16.2337 11.1199 17.528 8.66919C18.0973 7.59114 27.2476 8.77602 31.9115 8.66909C44.8894 8.51203 48.1167 8.8568 49.9609 8.66883C51.7596 8.50966 57.5964 8.77374 61.6393 8.66909C63.9388 8.60957 70.8523 8.66915 82.3591 7.77294C88.0373 7.33069 93.6935 7.35765 98.3648 7.47053C107.811 7.69879 112.784 7.85369 114.964 7.7732C119.491 7.60603 127.429 7.7732 131.265 7.7732C136.23 7.7732 140.754 8.48956 146.872 8.66921C151.087 8.79299 162.074 8.44956 175.018 8.92737C180.315 9.12292 186.013 9.66677 195.211 9.05801C209.864 8.08818 217.307 8.95803 223.319 8.66921C225.693 8.55519 234.54 8.48039 249.21 8.66921C256.306 8.76055 259.758 8.66921 263.593 8.66921C270.56 8.66921 274.175 9.85205 281.193 9.93965C288.934 10.0363 296.238 9.98057 311.22 10.7843C317.402 11.1159 324.352 11.3978 328.002 11.6353C332.898 11.9539 335.174 11.6248 338.388 11.6248C342.047 11.6248 349.602 11.1488 352.771 12.1062C357.552 13.5506 356.251 16.1496 356.607 17.8836C357.05 20.0468 357.552 22.6981 357.552 24.6239V31.8456C357.552 34.7343 359.221 39.0584 359.221 40.0302C359.221 42.9189 359.624 43.0396 359.221 49.1777C358.888 54.2634 359.54 57.8415 359.221 62.1171C358.937 65.9308 359.063 66.7428 357.552 67.8845L357.535 67.8975C357.183 68.1642 356.821 68.4389 352.253 68.5565C347.61 68.6761 338.888 68.6347 325.731 68.546C312.574 68.4574 295.495 68.3996 286.434 68.2104C276.342 67.9998 281.188 68.0793 269.665 67.8457C262.606 67.7026 255.581 69.349 236.744 69.3986C217.907 69.4481 190.87 68.1147 175.5 68.0093C160.131 67.9039 158.469 67.7651 156.316 67.7026C151.607 67.5661 146.909 67.136 136.367 67.012C127.928 66.9128 114.863 67.3993 106.334 67.4727C97.8044 67.5462 94.7583 67.6201 92.9089 67.7026C87.6156 67.9389 82.3306 68.466 75.1576 68.6718C67.4867 68.8919 63.2106 69.2068 52.635 68.9171C48.1907 68.7953 42.3407 68.8854 38.2515 68.6718C29.3354 68.206 21.7883 68.2897 20.0294 67.087C18.4948 66.0377 18.3317 64.6802 17.528 62.4099C17.0192 60.9728 16.3272 59.7073 16.0587 57.6732C15.8437 56.0439 15.1314 54.4567 14.7984 52.7676C14.3159 50.3195 13.8076 47.1115 12.52 45.4628C11.5104 44.1702 11.4459 42.371 11.4029 40.5117C11.3634 38.8032 11.7898 36.9276 12.5811 31.4765C13.4061 25.794 14.0671 20.4251 14.2804 18.8427Z" fill="#E8DCCD" stroke="#E8DCCD" stroke-width="2" stroke-linecap="round"/>
<path d="M114.896 38.978C114.521 38.5874 114.122 38.228 113.7 37.8999C113.279 37.5562 112.857 37.2202 112.435 36.8921C112.029 36.5483 111.63 36.1968 111.239 35.8374C110.849 35.4624 110.489 35.0562 110.161 34.6187C109.818 34.1655 109.544 33.6733 109.341 33.1421C109.154 32.5952 109.122 32.0327 109.247 31.4546C109.372 30.8296 109.677 30.2827 110.161 29.814C110.646 29.3452 111.169 28.978 111.732 28.7124C112.341 28.4468 112.958 28.2671 113.583 28.1733C114.208 28.064 114.841 28.0015 115.482 27.9858C116.122 27.9546 116.763 27.9546 117.404 27.9858C118.06 28.0015 118.708 27.9937 119.349 27.9624C119.646 27.9468 119.864 28.0327 120.005 28.2202C120.161 28.4077 120.239 28.6187 120.239 28.853C120.239 29.0874 120.161 29.3062 120.005 29.5093C119.864 29.6968 119.646 29.7983 119.349 29.814C118.896 29.8452 118.443 29.8608 117.989 29.8608C117.552 29.8452 117.107 29.8296 116.654 29.814C116.044 29.7983 115.427 29.8062 114.802 29.8374C114.193 29.8687 113.591 29.9937 112.997 30.2124C112.794 30.2905 112.575 30.3921 112.341 30.5171C112.107 30.6265 111.888 30.7671 111.685 30.939C111.497 31.1108 111.341 31.2983 111.216 31.5015C111.091 31.7046 111.036 31.9233 111.052 32.1577C111.068 32.3765 111.122 32.5952 111.216 32.814C111.31 33.0171 111.427 33.2202 111.568 33.4233C111.724 33.6265 111.888 33.8218 112.06 34.0093C112.232 34.1968 112.396 34.3687 112.552 34.5249C112.911 34.8843 113.286 35.2124 113.677 35.5093C114.068 35.8062 114.458 36.1108 114.849 36.4233C115.255 36.7515 115.661 37.1187 116.068 37.5249C116.489 37.9155 116.849 38.3452 117.146 38.814C117.458 39.2671 117.685 39.7515 117.825 40.2671C117.982 40.7827 118.005 41.3296 117.896 41.9077C117.786 42.4546 117.575 42.9233 117.263 43.314C116.966 43.689 116.607 44.0327 116.185 44.3452C115.779 44.6421 115.341 44.9155 114.872 45.1655C114.419 45.3999 113.982 45.6421 113.56 45.8921C113.294 46.0483 113.044 46.0796 112.81 45.9858C112.591 45.8921 112.419 45.7437 112.294 45.5405C112.185 45.3374 112.138 45.1187 112.154 44.8843C112.185 44.6343 112.333 44.4312 112.599 44.2749C112.974 44.0562 113.349 43.853 113.724 43.6655C114.099 43.478 114.466 43.2671 114.825 43.0327C115.169 42.814 115.466 42.5562 115.716 42.2593C115.982 41.9468 116.114 41.5874 116.114 41.1812C116.099 40.7749 115.966 40.3843 115.716 40.0093C115.482 39.6343 115.208 39.2905 114.896 38.978ZM122.968 44.9312C122.749 44.853 122.561 44.7046 122.405 44.4858C122.264 44.2515 122.241 44.0171 122.335 43.7827C122.6 43.0483 122.78 42.3062 122.874 41.5562C122.968 40.8062 123.03 40.0405 123.061 39.2593C123.077 39.0249 123.085 38.7983 123.085 38.5796C123.085 38.3452 123.093 38.1108 123.108 37.8765C123.061 37.689 123.077 37.5093 123.155 37.3374C123.186 36.8843 123.218 36.4312 123.249 35.978C123.28 35.5093 123.327 35.0483 123.389 34.5952C123.468 33.9077 123.546 33.228 123.624 32.5562C123.718 31.8687 123.78 31.1733 123.811 30.4702C123.843 29.8296 123.874 29.1968 123.905 28.5718C123.952 27.9312 124.116 27.3218 124.397 26.7437C124.538 26.478 124.725 26.3296 124.96 26.2983C125.194 26.2515 125.413 26.2905 125.616 26.4155C125.819 26.5249 125.968 26.6968 126.061 26.9312C126.171 27.1655 126.155 27.4155 126.014 27.6812C125.889 27.9468 125.804 28.2202 125.757 28.5015C125.71 28.7827 125.679 29.0718 125.663 29.3687C125.663 29.6655 125.663 29.9624 125.663 30.2593C125.663 30.5562 125.655 30.8452 125.639 31.1265C125.561 31.8296 125.483 32.5327 125.405 33.2358C125.327 33.9233 125.249 34.6187 125.171 35.3218C125.827 34.9937 126.554 34.814 127.35 34.7827C127.975 34.7671 128.608 34.8765 129.249 35.1108C129.905 35.3296 130.436 35.689 130.843 36.189C131.077 36.4858 131.264 36.814 131.405 37.1733C131.546 37.5171 131.655 37.8843 131.733 38.2749C131.827 38.6499 131.889 39.0327 131.921 39.4233C131.952 39.7983 131.983 40.1655 132.014 40.5249C132.061 41.2593 132.077 41.9937 132.061 42.728C132.061 43.4468 132.046 44.1812 132.014 44.9312C132.014 45.228 131.913 45.4468 131.71 45.5874C131.507 45.7437 131.288 45.8218 131.054 45.8218C130.819 45.8218 130.608 45.7437 130.421 45.5874C130.233 45.4468 130.147 45.228 130.163 44.9312C130.179 44.3062 130.194 43.6812 130.21 43.0562C130.225 42.4312 130.218 41.8062 130.186 41.1812C130.155 40.8687 130.132 40.5483 130.116 40.2202C130.1 39.8921 130.061 39.564 129.999 39.2358C129.968 39.0796 129.936 38.9312 129.905 38.7905C129.889 38.6343 129.858 38.478 129.811 38.3218C129.796 38.1968 129.757 38.064 129.694 37.9233C129.647 37.7827 129.616 37.7046 129.6 37.689C129.569 37.6421 129.546 37.603 129.53 37.5718C129.514 37.5249 129.491 37.478 129.46 37.4312C129.319 37.2749 129.233 37.189 129.202 37.1733C129.139 37.1265 129.085 37.0952 129.038 37.0796C128.991 37.0483 128.944 37.0171 128.897 36.9858C128.725 36.8921 128.53 36.814 128.311 36.7515C128.093 36.689 127.882 36.6577 127.679 36.6577C127.147 36.6265 126.647 36.7202 126.179 36.939C125.725 37.1577 125.319 37.4937 124.96 37.9468C124.929 39.0249 124.874 40.0952 124.796 41.1577C124.718 42.2046 124.491 43.2437 124.116 44.2749C124.038 44.5093 123.889 44.6968 123.671 44.8374C123.468 44.978 123.233 45.0093 122.968 44.9312ZM142.313 34.5952C142.813 34.5327 143.336 34.5171 143.883 34.5483C144.43 34.564 144.954 34.6577 145.454 34.8296C145.954 34.9858 146.407 35.228 146.813 35.5562C147.219 35.8843 147.532 36.314 147.75 36.8452C147.907 37.2202 147.985 37.603 147.985 37.9937C148 38.3687 147.946 38.7358 147.821 39.0952C147.711 39.439 147.539 39.7749 147.305 40.103C147.086 40.4155 146.829 40.7046 146.532 40.9702C145.891 41.5483 145.188 42.0405 144.422 42.4468C143.657 42.853 142.852 43.1655 142.008 43.3843C141.649 43.478 141.274 43.564 140.883 43.6421C140.508 43.7046 140.125 43.7358 139.735 43.7358C139.344 43.7358 138.961 43.6968 138.586 43.6187C138.211 43.5249 137.86 43.3765 137.532 43.1733C137.297 43.0327 137.157 42.8452 137.11 42.6108C137.016 42.3452 136.914 42.0952 136.805 41.8608C136.696 41.6265 136.586 41.3843 136.477 41.1343C136.383 40.8843 136.305 40.6343 136.243 40.3843C136.18 40.1343 136.149 39.8765 136.149 39.6108C136.149 39.0796 136.258 38.5796 136.477 38.1108C136.711 37.6265 137.024 37.2046 137.414 36.8452C138.071 36.2202 138.829 35.7202 139.688 35.3452C140.547 34.9702 141.422 34.7202 142.313 34.5952ZM144.961 36.6108C144.539 36.4546 144.086 36.3765 143.602 36.3765C143.086 36.3608 142.571 36.4155 142.055 36.5405C141.539 36.6499 141.047 36.8062 140.579 37.0093C140.141 37.1812 139.688 37.4233 139.219 37.7358C138.766 38.0327 138.43 38.3999 138.211 38.8374C138.086 39.0718 138.024 39.314 138.024 39.564C138.039 39.7983 138.079 40.0405 138.141 40.2905C138.219 40.5249 138.313 40.7671 138.422 41.0171C138.547 41.2515 138.657 41.4858 138.75 41.7202C139 41.7827 139.157 41.814 139.219 41.814C139.25 41.8296 139.289 41.8374 139.336 41.8374C139.383 41.8374 139.422 41.8374 139.454 41.8374C139.766 41.8687 140.047 41.8608 140.297 41.814C140.469 41.814 140.688 41.7827 140.954 41.7202C141.36 41.6421 141.75 41.5405 142.125 41.4155C142.5 41.2749 142.844 41.1265 143.157 40.9702C143.516 40.7983 143.868 40.6108 144.211 40.4077C144.555 40.2046 144.844 39.9937 145.079 39.7749C145.235 39.6343 145.383 39.4858 145.524 39.3296C145.602 39.2515 145.657 39.189 145.688 39.1421C145.766 39.0327 145.829 38.9546 145.875 38.9077C145.922 38.8452 145.961 38.7749 145.993 38.6968C146.055 38.5874 146.086 38.5015 146.086 38.439C146.102 38.4077 146.11 38.3687 146.11 38.3218C146.125 38.2749 146.141 38.2358 146.157 38.2046V37.9468C146.141 37.8843 146.133 37.8374 146.133 37.8062C146.133 37.7749 146.125 37.7437 146.11 37.7124C146.063 37.603 146.016 37.5249 145.969 37.478C145.938 37.4155 145.899 37.353 145.852 37.2905C145.868 37.3062 145.844 37.2827 145.782 37.2202C145.735 37.1577 145.704 37.1187 145.688 37.103L145.5 36.9155C145.422 36.8687 145.336 36.814 145.243 36.7515C145.149 36.689 145.055 36.6421 144.961 36.6108ZM154.369 52.1499C154.385 52.4468 154.299 52.6655 154.111 52.8062C153.939 52.9624 153.736 53.0405 153.502 53.0405C153.268 53.0405 153.049 52.9624 152.846 52.8062C152.643 52.6655 152.533 52.4468 152.518 52.1499C152.346 49.6499 152.244 47.1577 152.213 44.6733C152.182 42.1733 152.111 39.6733 152.002 37.1733C151.783 36.8296 151.768 36.5015 151.955 36.189C151.939 36.0171 151.924 35.8608 151.908 35.7202C151.908 35.564 151.9 35.3999 151.885 35.228C151.869 34.9468 151.947 34.7358 152.119 34.5952C152.291 34.439 152.486 34.353 152.705 34.3374C152.939 34.3218 153.158 34.3843 153.361 34.5249C153.564 34.6499 153.689 34.8452 153.736 35.1108C154.002 34.9858 154.252 34.8687 154.486 34.7593C154.736 34.6499 154.994 34.5405 155.26 34.4312C155.479 34.3374 155.721 34.2515 155.986 34.1733C156.252 34.0796 156.525 34.0093 156.807 33.9624C157.088 33.9155 157.361 33.8921 157.627 33.8921C157.908 33.8921 158.166 33.939 158.4 34.0327C158.869 34.2202 159.252 34.5015 159.549 34.8765C159.861 35.2515 160.119 35.6655 160.322 36.1187C160.51 36.5562 160.689 37.0015 160.861 37.4546C161.033 37.8921 161.127 38.3452 161.143 38.814C161.158 39.2983 161.088 39.7515 160.932 40.1733C160.775 40.5952 160.557 40.978 160.275 41.3218C160.01 41.6655 159.689 41.9702 159.314 42.2358C158.939 42.5015 158.541 42.728 158.119 42.9155C157.666 43.1187 157.197 43.2983 156.713 43.4546C156.229 43.6108 155.736 43.7124 155.236 43.7593C155.018 43.7905 154.807 43.7827 154.604 43.7358C154.416 43.689 154.236 43.6265 154.064 43.5483C154.096 45.0015 154.127 46.439 154.158 47.8608C154.205 49.2827 154.275 50.7124 154.369 52.1499ZM153.877 37.1265C153.908 37.8452 153.932 38.564 153.947 39.2827C153.963 39.9858 153.986 40.6968 154.018 41.4155C154.111 41.478 154.205 41.5405 154.299 41.603C154.393 41.6499 154.494 41.7046 154.604 41.7671C154.729 41.8452 154.83 41.8921 154.908 41.9077C154.986 41.9077 155.111 41.8921 155.283 41.8608C155.627 41.7827 155.971 41.7046 156.314 41.6265C156.658 41.5327 156.986 41.4077 157.299 41.2515C157.596 41.1108 157.877 40.9624 158.143 40.8062C158.408 40.6343 158.65 40.4155 158.869 40.1499C159.01 39.978 159.119 39.7827 159.197 39.564C159.275 39.3296 159.299 39.0796 159.268 38.814C159.252 38.5015 159.174 38.1812 159.033 37.853C158.908 37.5249 158.783 37.2202 158.658 36.939C158.58 36.7983 158.502 36.6577 158.424 36.5171C158.361 36.3608 158.283 36.2202 158.189 36.0952C158.049 35.9546 157.939 35.8687 157.861 35.8374C157.424 35.8062 157.041 35.8296 156.713 35.9077C156.385 35.9858 156.057 36.0952 155.729 36.2358C155.416 36.3608 155.104 36.5015 154.791 36.6577C154.479 36.814 154.174 36.9702 153.877 37.1265ZM175.318 43.1499C175.318 42.478 175.364 41.7983 175.458 41.1108C175.568 40.2827 175.677 39.4624 175.786 38.6499C175.896 37.8218 175.943 36.9858 175.927 36.1421C175.927 35.8452 176.021 35.6187 176.208 35.4624C176.396 35.3062 176.607 35.228 176.841 35.228C177.075 35.228 177.294 35.3062 177.497 35.4624C177.7 35.6187 177.802 35.8452 177.802 36.1421C178.411 36.0952 178.989 36.0718 179.536 36.0718C180.161 36.0874 180.693 36.2671 181.13 36.6108C181.568 36.9546 181.896 37.4155 182.114 37.9937C182.302 38.5249 182.411 39.0718 182.443 39.6343C182.474 40.1968 182.497 40.7593 182.513 41.3218C182.529 42.1187 182.552 42.9155 182.583 43.7124C182.614 44.4937 182.63 45.2827 182.63 46.0796C182.63 46.3921 182.529 46.6187 182.325 46.7593C182.138 46.9155 181.927 46.9937 181.693 46.9937C181.474 46.9937 181.263 46.9155 181.06 46.7593C180.872 46.6187 180.779 46.3921 180.779 46.0796C180.779 45.3296 180.763 44.5952 180.732 43.8765C180.716 43.1577 180.693 42.4233 180.661 41.6733C180.63 41.2671 180.614 40.853 180.614 40.4312C180.63 39.9937 180.599 39.5952 180.521 39.2358C180.474 39.0171 180.427 38.8296 180.38 38.6733C180.333 38.5015 180.247 38.3374 180.122 38.1812C180.091 38.1187 180.021 38.064 179.911 38.0171C179.818 37.9702 179.732 37.9468 179.654 37.9468C179.419 37.9468 179.2 37.9624 178.997 37.9937C178.794 38.0249 178.583 38.0718 178.364 38.1343C178.271 38.1655 178.177 38.1968 178.083 38.228C177.989 38.2593 177.904 38.2983 177.825 38.3452C177.669 38.9077 177.552 39.4468 177.474 39.9624C177.411 40.4624 177.349 40.9702 177.286 41.4858C177.239 41.8608 177.208 42.2437 177.193 42.6343C177.193 43.0093 177.177 43.3843 177.146 43.7593C177.13 44.1343 177.083 44.5093 177.005 44.8843C176.943 45.2593 176.825 45.6187 176.654 45.9624C176.513 46.228 176.325 46.3765 176.091 46.4077C175.857 46.4546 175.638 46.4155 175.435 46.2905C175.247 46.1812 175.099 46.0093 174.989 45.7749C174.896 45.5405 174.911 45.2905 175.036 45.0249C175.177 44.7437 175.255 44.439 175.271 44.1108C175.286 43.7827 175.302 43.4624 175.318 43.1499ZM195.718 34.853C195.936 34.978 196.085 35.1655 196.163 35.4155C196.241 35.6655 196.202 35.8999 196.046 36.1187C195.655 36.6812 195.358 37.2983 195.155 37.9702C194.968 38.6421 194.749 39.2983 194.499 39.939C194.233 40.6265 193.936 41.2905 193.608 41.9312C193.296 42.5718 192.96 43.2202 192.6 43.8765C192.569 43.9546 192.53 44.0249 192.483 44.0874C192.452 44.1343 192.421 44.1968 192.389 44.2749C192.452 44.5249 192.413 44.7515 192.272 44.9546C192.147 45.1421 191.975 45.2749 191.757 45.353C191.116 46.4468 190.468 47.5249 189.811 48.5874C189.171 49.6655 188.53 50.7515 187.889 51.8452C187.733 52.1108 187.53 52.2593 187.28 52.2905C187.046 52.3218 186.827 52.2749 186.624 52.1499C186.421 52.0405 186.272 51.8687 186.179 51.6343C186.085 51.4155 186.116 51.1733 186.272 50.9077C186.929 49.7827 187.593 48.6655 188.264 47.5562C188.936 46.4624 189.6 45.353 190.257 44.228C189.554 42.9624 188.882 41.689 188.241 40.4077C187.6 39.1108 186.944 37.8218 186.272 36.5405C186.132 36.2749 186.108 36.0327 186.202 35.814C186.311 35.5796 186.46 35.4077 186.647 35.2983C186.85 35.1733 187.069 35.1265 187.304 35.1577C187.554 35.189 187.749 35.3374 187.889 35.603C188.468 36.728 189.038 37.853 189.6 38.978C190.163 40.0874 190.741 41.1968 191.335 42.3062C191.913 41.2437 192.429 40.1265 192.882 38.9546C193.116 38.314 193.335 37.6655 193.538 37.0093C193.757 36.3374 194.061 35.728 194.452 35.1812C194.593 34.9624 194.78 34.8218 195.014 34.7593C195.249 34.6812 195.483 34.7124 195.718 34.853ZM200.11 44.9312C199.891 44.853 199.704 44.7046 199.547 44.4858C199.407 44.2515 199.383 44.0171 199.477 43.7827C199.743 43.0483 199.922 42.3062 200.016 41.5562C200.11 40.8062 200.172 40.0405 200.204 39.2593C200.219 39.0249 200.227 38.7983 200.227 38.5796C200.227 38.3452 200.235 38.1108 200.25 37.8765C200.204 37.689 200.219 37.5093 200.297 37.3374C200.329 36.8843 200.36 36.4312 200.391 35.978C200.422 35.5093 200.469 35.0483 200.532 34.5952C200.61 33.9077 200.688 33.228 200.766 32.5562C200.86 31.8687 200.922 31.1733 200.954 30.4702C200.985 29.8296 201.016 29.1968 201.047 28.5718C201.094 27.9312 201.258 27.3218 201.539 26.7437C201.68 26.478 201.868 26.3296 202.102 26.2983C202.336 26.2515 202.555 26.2905 202.758 26.4155C202.961 26.5249 203.11 26.6968 203.204 26.9312C203.313 27.1655 203.297 27.4155 203.157 27.6812C203.032 27.9468 202.946 28.2202 202.899 28.5015C202.852 28.7827 202.821 29.0718 202.805 29.3687C202.805 29.6655 202.805 29.9624 202.805 30.2593C202.805 30.5562 202.797 30.8452 202.782 31.1265C202.704 31.8296 202.625 32.5327 202.547 33.2358C202.469 33.9233 202.391 34.6187 202.313 35.3218C202.969 34.9937 203.696 34.814 204.493 34.7827C205.118 34.7671 205.75 34.8765 206.391 35.1108C207.047 35.3296 207.579 35.689 207.985 36.189C208.219 36.4858 208.407 36.814 208.547 37.1733C208.688 37.5171 208.797 37.8843 208.875 38.2749C208.969 38.6499 209.032 39.0327 209.063 39.4233C209.094 39.7983 209.125 40.1655 209.157 40.5249C209.204 41.2593 209.219 41.9937 209.204 42.728C209.204 43.4468 209.188 44.1812 209.157 44.9312C209.157 45.228 209.055 45.4468 208.852 45.5874C208.649 45.7437 208.43 45.8218 208.196 45.8218C207.961 45.8218 207.75 45.7437 207.563 45.5874C207.375 45.4468 207.289 45.228 207.305 44.9312C207.321 44.3062 207.336 43.6812 207.352 43.0562C207.368 42.4312 207.36 41.8062 207.329 41.1812C207.297 40.8687 207.274 40.5483 207.258 40.2202C207.243 39.8921 207.204 39.564 207.141 39.2358C207.11 39.0796 207.079 38.9312 207.047 38.7905C207.032 38.6343 207 38.478 206.954 38.3218C206.938 38.1968 206.899 38.064 206.836 37.9233C206.789 37.7827 206.758 37.7046 206.743 37.689C206.711 37.6421 206.688 37.603 206.672 37.5718C206.657 37.5249 206.633 37.478 206.602 37.4312C206.461 37.2749 206.375 37.189 206.344 37.1733C206.282 37.1265 206.227 37.0952 206.18 37.0796C206.133 37.0483 206.086 37.0171 206.039 36.9858C205.868 36.8921 205.672 36.814 205.454 36.7515C205.235 36.689 205.024 36.6577 204.821 36.6577C204.289 36.6265 203.789 36.7202 203.321 36.939C202.868 37.1577 202.461 37.4937 202.102 37.9468C202.071 39.0249 202.016 40.0952 201.938 41.1577C201.86 42.2046 201.633 43.2437 201.258 44.2749C201.18 44.5093 201.032 44.6968 200.813 44.8374C200.61 44.978 200.375 45.0093 200.11 44.9312ZM214.439 36.3062C214.736 35.8999 215.088 35.5405 215.494 35.228C215.916 34.9155 216.361 34.6733 216.83 34.5015C217.299 34.314 217.783 34.2202 218.283 34.2202C218.783 34.2046 219.283 34.2983 219.783 34.5015C220.268 34.689 220.705 34.9468 221.096 35.2749C221.486 35.5874 221.791 35.9937 222.01 36.4937C222.182 36.8687 222.283 37.2749 222.314 37.7124C222.346 38.1499 222.229 38.5483 221.963 38.9077C221.729 39.2358 221.439 39.4858 221.096 39.6577C220.768 39.8296 220.408 39.9546 220.018 40.0327C219.643 40.1108 219.252 40.1499 218.846 40.1499C218.455 40.1499 218.08 40.1421 217.721 40.1265C217.314 40.1108 216.908 40.0796 216.502 40.0327C216.111 39.9858 215.713 39.939 215.307 39.8921C215.432 40.5952 215.682 41.2202 216.057 41.7671C216.432 42.314 216.939 42.728 217.58 43.0093C217.752 43.0718 217.885 43.1187 217.979 43.1499C218.025 43.1655 218.064 43.1812 218.096 43.1968C218.143 43.1968 218.189 43.1968 218.236 43.1968C218.361 43.2124 218.463 43.228 218.541 43.2437C218.635 43.2437 218.721 43.2358 218.799 43.2202C218.908 43.2046 218.979 43.1968 219.01 43.1968C219.057 43.1812 219.104 43.1655 219.15 43.1499C219.322 43.103 219.471 43.0483 219.596 42.9858C219.736 42.9233 219.9 42.8218 220.088 42.6812C220.182 42.603 220.307 42.4858 220.463 42.3296C220.619 42.1733 220.752 42.0327 220.861 41.9077C221.018 41.689 221.205 41.5405 221.424 41.4624C221.658 41.3843 221.893 41.4155 222.127 41.5562C222.33 41.6812 222.471 41.8765 222.549 42.1421C222.643 42.3921 222.611 42.6265 222.455 42.8452C222.002 43.4546 221.463 43.978 220.838 44.4155C220.229 44.8374 219.525 45.064 218.729 45.0952C218.088 45.1265 217.471 45.0171 216.877 44.7671C216.283 44.5015 215.76 44.1499 215.307 43.7124C214.744 43.1655 214.299 42.5327 213.971 41.814C213.643 41.0952 213.463 40.3608 213.432 39.6108C213.291 39.5015 213.182 39.3687 213.104 39.2124C213.041 39.0405 213.018 38.8687 213.033 38.6968C213.064 38.5249 213.127 38.3687 213.221 38.228C213.314 38.0718 213.455 37.9702 213.643 37.9233C213.814 37.3452 214.08 36.8062 214.439 36.3062ZM220.064 36.8687C219.893 36.6499 219.627 36.4546 219.268 36.2827C218.971 36.1577 218.619 36.0952 218.213 36.0952C217.822 36.0952 217.486 36.1655 217.205 36.3062C216.846 36.478 216.525 36.7202 216.244 37.0327C215.963 37.3296 215.736 37.6655 215.564 38.0405C215.939 38.0874 216.314 38.1343 216.689 38.1812C217.064 38.228 217.439 38.2593 217.814 38.2749C218.018 38.2749 218.221 38.2749 218.424 38.2749C218.627 38.2749 218.83 38.2671 219.033 38.2515C219.096 38.2515 219.15 38.2515 219.197 38.2515C219.26 38.2358 219.322 38.228 219.385 38.228C219.525 38.1968 219.627 38.1812 219.689 38.1812C219.768 38.1655 219.846 38.1421 219.924 38.1108C219.986 38.0952 220.064 38.0718 220.158 38.0405C220.236 38.0093 220.283 37.9858 220.299 37.9702C220.314 37.9546 220.338 37.939 220.369 37.9233L220.439 37.6421C220.408 37.5796 220.385 37.5249 220.369 37.478C220.369 37.4155 220.354 37.3608 220.322 37.314C220.307 37.2671 220.268 37.1968 220.205 37.103C220.158 37.0093 220.111 36.9312 220.064 36.8687ZM229.168 36.8452C229.73 36.5015 230.332 36.2046 230.972 35.9546C231.629 35.7046 232.293 35.5874 232.964 35.603C232.902 34.2749 232.847 32.9546 232.8 31.6421C232.769 30.3296 232.746 29.0093 232.73 27.6812C232.73 27.3843 232.824 27.1655 233.011 27.0249C233.199 26.8687 233.41 26.7905 233.644 26.7905C233.879 26.7905 234.089 26.8687 234.277 27.0249C234.48 27.1655 234.582 27.3843 234.582 27.6812C234.597 29.228 234.636 30.7827 234.699 32.3452C234.761 33.8921 234.824 35.439 234.886 36.9858C234.949 38.5327 234.996 40.0874 235.027 41.6499C235.058 43.1968 235.05 44.7437 235.004 46.2905C234.988 46.5874 234.879 46.814 234.675 46.9702C234.472 47.1265 234.254 47.2046 234.019 47.2046C233.785 47.2046 233.574 47.1265 233.386 46.9702C233.199 46.8296 233.113 46.603 233.129 46.2905C233.129 46.1812 233.129 46.0718 233.129 45.9624C233.129 45.853 233.136 45.7437 233.152 45.6343C232.996 45.6187 232.839 45.603 232.683 45.5874C232.543 45.5874 232.402 45.5874 232.261 45.5874C232.074 45.5874 231.886 45.5874 231.699 45.5874C231.511 45.5874 231.332 45.5796 231.16 45.564C230.754 45.5327 230.347 45.4937 229.941 45.4468C229.535 45.3999 229.136 45.3062 228.746 45.1655C228.355 45.0093 227.988 44.8218 227.644 44.603C227.3 44.3687 227.019 44.064 226.8 43.689C226.55 43.2983 226.339 42.8765 226.168 42.4233C226.011 41.9702 225.949 41.5015 225.98 41.0171C226.011 40.5327 226.121 40.0874 226.308 39.6812C226.496 39.2749 226.73 38.8999 227.011 38.5562C227.308 38.2124 227.636 37.8999 227.996 37.6187C228.371 37.3374 228.761 37.0796 229.168 36.8452ZM233.175 43.7827C233.175 41.689 233.129 39.5874 233.035 37.478C232.519 37.4468 232.004 37.5405 231.488 37.7593C230.988 37.9624 230.527 38.1968 230.105 38.4624C229.871 38.603 229.613 38.7671 229.332 38.9546C229.066 39.1265 228.816 39.3296 228.582 39.564C228.363 39.7827 228.183 40.0249 228.043 40.2905C227.902 40.5562 227.832 40.8452 227.832 41.1577C227.847 41.439 227.91 41.7437 228.019 42.0718C228.129 42.3843 228.277 42.6421 228.464 42.8452C228.652 43.0483 228.863 43.2046 229.097 43.314C229.332 43.4077 229.582 43.4858 229.847 43.5483C230.16 43.6108 230.457 43.6499 230.738 43.6655C231.035 43.6812 231.339 43.6968 231.652 43.7124C231.902 43.7124 232.152 43.728 232.402 43.7593C232.652 43.7749 232.91 43.7827 233.175 43.7827ZM240.521 36.3062C240.818 35.8999 241.169 35.5405 241.575 35.228C241.997 34.9155 242.443 34.6733 242.911 34.5015C243.38 34.314 243.864 34.2202 244.364 34.2202C244.864 34.2046 245.364 34.2983 245.864 34.5015C246.349 34.689 246.786 34.9468 247.177 35.2749C247.568 35.5874 247.872 35.9937 248.091 36.4937C248.263 36.8687 248.364 37.2749 248.396 37.7124C248.427 38.1499 248.31 38.5483 248.044 38.9077C247.81 39.2358 247.521 39.4858 247.177 39.6577C246.849 39.8296 246.489 39.9546 246.099 40.0327C245.724 40.1108 245.333 40.1499 244.927 40.1499C244.536 40.1499 244.161 40.1421 243.802 40.1265C243.396 40.1108 242.989 40.0796 242.583 40.0327C242.193 39.9858 241.794 39.939 241.388 39.8921C241.513 40.5952 241.763 41.2202 242.138 41.7671C242.513 42.314 243.021 42.728 243.661 43.0093C243.833 43.0718 243.966 43.1187 244.06 43.1499C244.107 43.1655 244.146 43.1812 244.177 43.1968C244.224 43.1968 244.271 43.1968 244.318 43.1968C244.443 43.2124 244.544 43.228 244.622 43.2437C244.716 43.2437 244.802 43.2358 244.88 43.2202C244.989 43.2046 245.06 43.1968 245.091 43.1968C245.138 43.1812 245.185 43.1655 245.232 43.1499C245.404 43.103 245.552 43.0483 245.677 42.9858C245.818 42.9233 245.982 42.8218 246.169 42.6812C246.263 42.603 246.388 42.4858 246.544 42.3296C246.7 42.1733 246.833 42.0327 246.943 41.9077C247.099 41.689 247.286 41.5405 247.505 41.4624C247.739 41.3843 247.974 41.4155 248.208 41.5562C248.411 41.6812 248.552 41.8765 248.63 42.1421C248.724 42.3921 248.693 42.6265 248.536 42.8452C248.083 43.4546 247.544 43.978 246.919 44.4155C246.31 44.8374 245.607 45.064 244.81 45.0952C244.169 45.1265 243.552 45.0171 242.958 44.7671C242.364 44.5015 241.841 44.1499 241.388 43.7124C240.825 43.1655 240.38 42.5327 240.052 41.814C239.724 41.0952 239.544 40.3608 239.513 39.6108C239.372 39.5015 239.263 39.3687 239.185 39.2124C239.122 39.0405 239.099 38.8687 239.114 38.6968C239.146 38.5249 239.208 38.3687 239.302 38.228C239.396 38.0718 239.536 37.9702 239.724 37.9233C239.896 37.3452 240.161 36.8062 240.521 36.3062ZM246.146 36.8687C245.974 36.6499 245.708 36.4546 245.349 36.2827C245.052 36.1577 244.7 36.0952 244.294 36.0952C243.904 36.0952 243.568 36.1655 243.286 36.3062C242.927 36.478 242.607 36.7202 242.325 37.0327C242.044 37.3296 241.818 37.6655 241.646 38.0405C242.021 38.0874 242.396 38.1343 242.771 38.1812C243.146 38.228 243.521 38.2593 243.896 38.2749C244.099 38.2749 244.302 38.2749 244.505 38.2749C244.708 38.2749 244.911 38.2671 245.114 38.2515C245.177 38.2515 245.232 38.2515 245.279 38.2515C245.341 38.2358 245.404 38.228 245.466 38.228C245.607 38.1968 245.708 38.1812 245.771 38.1812C245.849 38.1655 245.927 38.1421 246.005 38.1108C246.068 38.0952 246.146 38.0718 246.239 38.0405C246.318 38.0093 246.364 37.9858 246.38 37.9702C246.396 37.9546 246.419 37.939 246.45 37.9233L246.521 37.6421C246.489 37.5796 246.466 37.5249 246.45 37.478C246.45 37.4155 246.435 37.3608 246.404 37.314C246.388 37.2671 246.349 37.1968 246.286 37.103C246.239 37.0093 246.193 36.9312 246.146 36.8687ZM253.069 35.8608C253.085 35.564 253.194 35.3452 253.397 35.2046C253.6 35.0483 253.819 34.9702 254.054 34.9702C254.288 34.9702 254.491 35.0483 254.663 35.2046C254.85 35.3452 254.936 35.564 254.921 35.8608C254.921 35.9546 254.913 36.0562 254.897 36.1655C254.897 36.2593 254.897 36.353 254.897 36.4468C255.397 36.1968 255.921 35.9858 256.468 35.814C257.03 35.6265 257.585 35.5093 258.132 35.4624C258.694 35.4155 259.233 35.4624 259.749 35.603C260.28 35.728 260.764 35.978 261.202 36.353C261.421 36.5562 261.514 36.7749 261.483 37.0093C261.468 37.2437 261.374 37.4468 261.202 37.6187C261.046 37.7749 260.843 37.8765 260.593 37.9233C260.343 37.9546 260.1 37.8765 259.866 37.689C259.694 37.5483 259.499 37.4468 259.28 37.3843C259.077 37.3218 258.85 37.2983 258.6 37.314C258.366 37.314 258.124 37.3374 257.874 37.3843C257.639 37.4312 257.413 37.4858 257.194 37.5483C256.366 37.814 255.593 38.1655 254.874 38.603C254.905 39.3687 254.952 40.1343 255.014 40.8999C255.077 41.5405 255.132 42.2046 255.179 42.8921C255.225 43.564 255.358 44.2046 255.577 44.814C255.671 45.0952 255.647 45.3296 255.507 45.5171C255.382 45.7202 255.202 45.853 254.968 45.9155C254.749 45.978 254.514 45.9624 254.264 45.8687C254.03 45.7749 253.866 45.5874 253.772 45.3062C253.647 44.9468 253.561 44.5796 253.514 44.2046C253.468 43.8296 253.421 43.4546 253.374 43.0796C253.343 42.7202 253.304 42.3608 253.257 42.0015C253.225 41.6265 253.194 41.2593 253.163 40.8999C253.085 40.0562 253.03 39.2202 252.999 38.3921C252.983 37.5483 253.007 36.7046 253.069 35.8608Z" fill="#4A2F2C"/>
</g>
<defs>
<filter id="filter0_d_3049_22519" x="0.000391006" y="-9.72748e-05" width="370.798" height="84.8" filterUnits="userSpaceOnUse" color-interpolation-filters="sRGB">
<feFlood flood-opacity="0" result="BackgroundImageFix"/>
<feColorMatrix in="SourceAlpha" type="matrix" values="0 0 0 0 0 0 0 0 0 0 0 0 0 0 0 0 0 0 127 0" result="hardAlpha"/>
<feOffset dy="4"/>
<feGaussianBlur stdDeviation="5.2"/>
<feComposite in2="hardAlpha" operator="out"/>
<feColorMatrix type="matrix" values="0 0 0 0 0 0 0 0 0 0 0 0 0 0 0 0 0 0 0.08 0"/>
<feBlend mode="normal" in2="BackgroundImageFix" result="effect1_dropShadow_3049_22519"/>
<feBlend mode="normal" in="SourceGraphic" in2="effect1_dropShadow_3049_22519" result="shape"/>
</filter>
</defs>
</svg>
