<svg width="106" height="38" viewBox="0 0 106 38" fill="none" xmlns="http://www.w3.org/2000/svg">
<path d="M1.86068 7.64422C1.94599 6.41411 2.44444 3.16 2.83123 1.73701C3.00138 1.11104 5.73596 1.79904 7.12976 1.73695C11.0082 1.64575 11.9727 1.84594 12.5238 1.73679C13.0614 1.64438 14.8057 1.79771 16.0139 1.73695C16.7011 1.70238 18.7672 1.73698 22.2061 1.2166C23.903 0.95981 25.5934 0.975468 26.9894 1.04101C29.8123 1.17355 31.2986 1.26349 31.9499 1.21675C33.3028 1.11968 35.6753 1.21675 36.8216 1.21675C38.3055 1.21675 39.6574 1.6327 41.4858 1.73702C42.7456 1.80889 46.0289 1.60948 49.8971 1.88691C51.4803 2.00046 53.183 2.31625 55.9318 1.96277C60.311 1.39964 62.5354 1.90472 64.3321 1.73702C65.0414 1.67081 67.6854 1.62738 72.0695 1.73702C74.1903 1.79005 75.2217 1.73702 76.368 1.73702C78.45 1.73702 79.5302 2.42383 81.6278 2.47469C83.9412 2.53079 86.1238 2.49845 90.6012 2.96512C92.4488 3.15768 94.5258 3.32135 95.6166 3.45926C97.0799 3.64426 97.7599 3.45316 98.7203 3.45316C99.8138 3.45316 102.072 3.1768 103.019 3.73271C104.448 4.57136 104.059 6.08045 104.165 7.08731C104.298 8.34338 104.448 9.88282 104.448 11.001V15.1943C104.448 16.8716 104.947 19.3823 104.947 19.9466C104.947 21.6239 105.067 21.694 104.947 25.2581C104.847 28.2111 105.042 30.2887 104.947 32.7713C104.862 34.9857 104.899 35.4572 104.448 36.1201L104.443 36.1276C104.337 36.2825 104.229 36.442 102.864 36.5103C101.477 36.5797 98.8699 36.5557 94.9379 36.5042C91.006 36.4527 85.9017 36.4192 83.1939 36.3093C80.178 36.187 81.6261 36.2332 78.1825 36.0976C76.0729 36.0145 73.9734 36.9705 68.3441 36.9992C62.7148 37.028 54.6345 36.2537 50.0413 36.1926C45.4481 36.1314 44.9517 36.0508 44.3081 36.0145C42.9008 35.9352 41.4969 35.6855 38.3464 35.6135C35.8244 35.5559 31.9198 35.8384 29.3708 35.881C26.8219 35.9236 25.9115 35.9666 25.3589 36.0145C23.777 36.1517 22.1975 36.4577 20.0539 36.5772C17.7614 36.705 16.4835 36.8879 13.323 36.7197C11.9948 36.649 10.2465 36.7013 9.02447 36.5772C6.35988 36.3068 4.10444 36.3554 3.57878 35.657C3.12018 35.0478 3.07143 34.2595 2.83123 32.9413C2.67919 32.1069 2.47237 31.3721 2.39214 30.191C2.32788 29.2449 2.115 28.3233 2.01551 27.3425C1.8713 25.9211 1.71939 24.0583 1.33459 23.1011C1.03287 22.3505 1.0136 21.3058 1.00075 20.2262C0.988946 19.2342 1.11636 18.1451 1.35286 14.98C1.5994 11.6804 1.79695 8.563 1.86068 7.64422Z" fill="#F6F3EE" stroke="#4A2F2C" stroke-width="2" stroke-linecap="round"/>
<path d="M32.0344 14.8438C32.0135 14.8229 31.9927 14.8021 31.9719 14.7812C31.9615 14.7604 31.9458 14.7396 31.925 14.7188C31.8 14.5938 31.7375 14.4635 31.7375 14.3281C31.7479 14.1823 31.7896 14.0573 31.8625 13.9531C31.9458 13.8385 32.05 13.7552 32.175 13.7031C32.3104 13.6406 32.4458 13.6354 32.5812 13.6875C32.7479 13.6667 32.9042 13.7083 33.05 13.8125C33.2062 13.9062 33.2844 14.0625 33.2844 14.2812C33.8156 14.9167 34.3156 15.5417 34.7844 16.1562C35.2531 16.7708 35.6802 17.4219 36.0656 18.1094C36.2427 18.4219 36.4042 18.7448 36.55 19.0781C36.7062 19.401 36.8521 19.7292 36.9875 20.0625C36.9875 19.6354 37.0031 19.2135 37.0344 18.7969C37.076 18.3802 37.1229 17.9531 37.175 17.5156C37.2896 16.6198 37.399 15.7292 37.5031 14.8438C37.6177 13.9479 37.6802 13.0417 37.6906 12.125C37.6906 11.9271 37.7531 11.7812 37.8781 11.6875C38.0135 11.5833 38.1594 11.5312 38.3156 11.5312C38.4719 11.5312 38.6125 11.5833 38.7375 11.6875C38.8729 11.7812 38.9406 11.9271 38.9406 12.125C38.9302 13.0625 38.8625 13.9896 38.7375 14.9062C38.6229 15.8125 38.5083 16.724 38.3937 17.6406C38.3417 18.1094 38.3 18.5729 38.2687 19.0312C38.2375 19.4792 38.2271 19.9375 38.2375 20.4062C38.2479 20.8542 38.2583 21.2969 38.2687 21.7344C38.2896 22.1719 38.2896 22.6146 38.2687 23.0625C38.2583 23.2188 38.2062 23.349 38.1125 23.4531C38.0292 23.5469 37.925 23.6094 37.8 23.6406C37.675 23.6719 37.55 23.6667 37.425 23.625C37.3 23.5833 37.1958 23.5 37.1125 23.375C36.8729 23.0104 36.6698 22.6302 36.5031 22.2344C36.3365 21.8281 36.1802 21.4271 36.0344 21.0312C35.8885 20.6458 35.7375 20.276 35.5812 19.9219C35.425 19.5573 35.2479 19.1979 35.05 18.8438C34.7896 18.375 34.5083 17.9271 34.2062 17.5C33.9146 17.0729 33.6021 16.6562 33.2687 16.25C33.2687 16.6771 33.2687 17.099 33.2687 17.5156C33.2687 17.9219 33.2792 18.3385 33.3 18.7656C33.3208 19.5156 33.3729 20.2604 33.4562 21C33.5396 21.7292 33.6281 22.4635 33.7219 23.2031C33.7427 23.3802 33.6802 23.5312 33.5344 23.6562C33.399 23.7708 33.2583 23.8281 33.1125 23.8281C32.925 23.8281 32.7792 23.7708 32.675 23.6562C32.5708 23.5312 32.5083 23.3802 32.4875 23.2031C32.3833 22.4635 32.2896 21.7292 32.2062 21C32.1229 20.2604 32.0708 19.5156 32.05 18.7656C32.0292 18.1094 32.0187 17.4583 32.0187 16.8125C32.0292 16.1562 32.0344 15.5 32.0344 14.8438ZM47.5562 16.9688C47.7021 17.0521 47.801 17.1771 47.8531 17.3438C47.9052 17.5104 47.8792 17.6667 47.775 17.8125C47.5146 18.1875 47.3167 18.599 47.1812 19.0469C47.0562 19.4948 46.9104 19.9323 46.7437 20.3594C46.5667 20.8177 46.3687 21.2604 46.15 21.6875C45.9417 22.1146 45.7177 22.5469 45.4781 22.9844C45.4573 23.0365 45.4312 23.0833 45.4 23.125C45.3792 23.1562 45.3583 23.1979 45.3375 23.25C45.3792 23.4167 45.3531 23.5677 45.2594 23.7031C45.176 23.8281 45.0615 23.9167 44.9156 23.9688C44.4885 24.6979 44.0562 25.4167 43.6187 26.125C43.1917 26.8438 42.7646 27.5677 42.3375 28.2969C42.2333 28.474 42.0979 28.5729 41.9312 28.5938C41.775 28.6146 41.6292 28.5833 41.4937 28.5C41.3583 28.4271 41.2594 28.3125 41.1969 28.1562C41.1344 28.0104 41.1552 27.849 41.2594 27.6719C41.6969 26.9219 42.1396 26.1771 42.5875 25.4375C43.0354 24.7083 43.4781 23.9688 43.9156 23.2188C43.4469 22.375 42.999 21.526 42.5719 20.6719C42.1448 19.8073 41.7073 18.9479 41.2594 18.0938C41.1656 17.9167 41.15 17.7552 41.2125 17.6094C41.2854 17.4531 41.3844 17.3385 41.5094 17.2656C41.6448 17.1823 41.7906 17.151 41.9469 17.1719C42.1135 17.1927 42.2437 17.2917 42.3375 17.4688C42.7229 18.2188 43.1031 18.9688 43.4781 19.7188C43.8531 20.4583 44.2385 21.1979 44.6344 21.9375C45.0198 21.2292 45.3635 20.4844 45.6656 19.7031C45.8219 19.276 45.9677 18.8438 46.1031 18.4062C46.249 17.9583 46.4521 17.5521 46.7125 17.1875C46.8062 17.0417 46.9312 16.9479 47.0875 16.9062C47.2437 16.8542 47.4 16.875 47.5562 16.9688ZM50.4844 23.6875C50.3385 23.6354 50.2135 23.5365 50.1094 23.3906C50.0156 23.2344 50 23.0781 50.0625 22.9219C50.2396 22.4323 50.3594 21.9375 50.4219 21.4375C50.4844 20.9375 50.526 20.4271 50.5469 19.9062C50.5573 19.75 50.5625 19.599 50.5625 19.4531C50.5625 19.2969 50.5677 19.1406 50.5781 18.9844C50.5469 18.8594 50.5573 18.7396 50.6094 18.625C50.6302 18.3229 50.651 18.0208 50.6719 17.7188C50.6927 17.4062 50.724 17.099 50.7656 16.7969C50.8177 16.3385 50.8698 15.8854 50.9219 15.4375C50.9844 14.9792 51.026 14.5156 51.0469 14.0469C51.0677 13.6198 51.0885 13.1979 51.1094 12.7812C51.1406 12.3542 51.25 11.9479 51.4375 11.5625C51.5312 11.3854 51.6562 11.2865 51.8125 11.2656C51.9688 11.2344 52.1146 11.2604 52.25 11.3438C52.3854 11.4167 52.4844 11.5312 52.5469 11.6875C52.6198 11.8438 52.6094 12.0104 52.5156 12.1875C52.4323 12.3646 52.375 12.5469 52.3438 12.7344C52.3125 12.9219 52.2917 13.1146 52.2812 13.3125C52.2812 13.5104 52.2812 13.7083 52.2812 13.9062C52.2812 14.1042 52.276 14.2969 52.2656 14.4844C52.2135 14.9531 52.1615 15.4219 52.1094 15.8906C52.0573 16.349 52.0052 16.8125 51.9531 17.2812C52.3906 17.0625 52.875 16.9427 53.4062 16.9219C53.8229 16.9115 54.2448 16.9844 54.6719 17.1406C55.1094 17.2865 55.4635 17.526 55.7344 17.8594C55.8906 18.0573 56.0156 18.276 56.1094 18.5156C56.2031 18.7448 56.276 18.9896 56.3281 19.25C56.3906 19.5 56.4323 19.7552 56.4531 20.0156C56.474 20.2656 56.4948 20.5104 56.5156 20.75C56.5469 21.2396 56.5573 21.7292 56.5469 22.2188C56.5469 22.6979 56.5365 23.1875 56.5156 23.6875C56.5156 23.8854 56.4479 24.0312 56.3125 24.125C56.1771 24.2292 56.0312 24.2812 55.875 24.2812C55.7188 24.2812 55.5781 24.2292 55.4531 24.125C55.3281 24.0312 55.2708 23.8854 55.2812 23.6875C55.2917 23.2708 55.3021 22.8542 55.3125 22.4375C55.3229 22.0208 55.3177 21.6042 55.2969 21.1875C55.276 20.9792 55.2604 20.7656 55.25 20.5469C55.2396 20.3281 55.2135 20.1094 55.1719 19.8906C55.151 19.7865 55.1302 19.6875 55.1094 19.5938C55.099 19.4896 55.0781 19.3854 55.0469 19.2812C55.0365 19.1979 55.0104 19.1094 54.9688 19.0156C54.9375 18.9219 54.9167 18.8698 54.9062 18.8594C54.8854 18.8281 54.8698 18.8021 54.8594 18.7812C54.849 18.75 54.8333 18.7188 54.8125 18.6875C54.7188 18.5833 54.6615 18.526 54.6406 18.5156C54.599 18.4844 54.5625 18.4635 54.5312 18.4531C54.5 18.4323 54.4688 18.4115 54.4375 18.3906C54.3229 18.3281 54.1927 18.276 54.0469 18.2344C53.901 18.1927 53.7604 18.1719 53.625 18.1719C53.2708 18.151 52.9375 18.2135 52.625 18.3594C52.3229 18.5052 52.0521 18.7292 51.8125 19.0312C51.7917 19.75 51.7552 20.4635 51.7031 21.1719C51.651 21.8698 51.5 22.5625 51.25 23.25C51.1979 23.4062 51.099 23.5312 50.9531 23.625C50.8177 23.7188 50.6615 23.7396 50.4844 23.6875ZM60.0375 17.9375C60.2354 17.6667 60.4698 17.4271 60.7406 17.2188C61.0219 17.0104 61.3187 16.849 61.6312 16.7344C61.9437 16.6094 62.2667 16.5469 62.6 16.5469C62.9333 16.5365 63.2667 16.599 63.6 16.7344C63.9229 16.8594 64.2146 17.0312 64.475 17.25C64.7354 17.4583 64.9385 17.7292 65.0844 18.0625C65.199 18.3125 65.2667 18.5833 65.2875 18.875C65.3083 19.1667 65.2302 19.4323 65.0531 19.6719C64.8969 19.8906 64.7042 20.0573 64.475 20.1719C64.2562 20.2865 64.0167 20.3698 63.7562 20.4219C63.5062 20.474 63.2458 20.5 62.975 20.5C62.7146 20.5 62.4646 20.4948 62.225 20.4844C61.9542 20.474 61.6833 20.4531 61.4125 20.4219C61.1521 20.3906 60.8865 20.3594 60.6156 20.3281C60.699 20.7969 60.8656 21.2135 61.1156 21.5781C61.3656 21.9427 61.7042 22.2188 62.1312 22.4062C62.2458 22.4479 62.3344 22.4792 62.3969 22.5C62.4281 22.5104 62.4542 22.5208 62.475 22.5312C62.5062 22.5312 62.5375 22.5312 62.5687 22.5312C62.6521 22.5417 62.7198 22.5521 62.7719 22.5625C62.8344 22.5625 62.8917 22.5573 62.9437 22.5469C63.0167 22.5365 63.0635 22.5312 63.0844 22.5312C63.1156 22.5208 63.1469 22.5104 63.1781 22.5C63.2927 22.4688 63.3917 22.4323 63.475 22.3906C63.5687 22.349 63.6781 22.2812 63.8031 22.1875C63.8656 22.1354 63.949 22.0573 64.0531 21.9531C64.1573 21.849 64.2458 21.7552 64.3187 21.6719C64.4229 21.526 64.5479 21.4271 64.6937 21.375C64.85 21.3229 65.0062 21.3438 65.1625 21.4375C65.2979 21.5208 65.3917 21.651 65.4437 21.8281C65.5062 21.9948 65.4854 22.151 65.3812 22.2969C65.0792 22.7031 64.7198 23.0521 64.3031 23.3438C63.8969 23.625 63.4281 23.776 62.8969 23.7969C62.4698 23.8177 62.0583 23.7448 61.6625 23.5781C61.2667 23.401 60.9177 23.1667 60.6156 22.875C60.2406 22.5104 59.9437 22.0885 59.725 21.6094C59.5062 21.1302 59.3865 20.6406 59.3656 20.1406C59.2719 20.0677 59.199 19.9792 59.1469 19.875C59.1052 19.7604 59.0896 19.6458 59.1 19.5312C59.1208 19.4167 59.1625 19.3125 59.225 19.2188C59.2875 19.1146 59.3812 19.0469 59.5062 19.0156C59.6208 18.6302 59.7979 18.2708 60.0375 17.9375ZM63.7875 18.3125C63.6729 18.1667 63.4958 18.0365 63.2562 17.9219C63.0583 17.8385 62.824 17.7969 62.5531 17.7969C62.2927 17.7969 62.0687 17.8438 61.8812 17.9375C61.6417 18.0521 61.4281 18.2135 61.2406 18.4219C61.0531 18.6198 60.9021 18.8438 60.7875 19.0938C61.0375 19.125 61.2875 19.1562 61.5375 19.1875C61.7875 19.2188 62.0375 19.2396 62.2875 19.25C62.4229 19.25 62.5583 19.25 62.6937 19.25C62.8292 19.25 62.9646 19.2448 63.1 19.2344C63.1417 19.2344 63.1781 19.2344 63.2094 19.2344C63.251 19.224 63.2927 19.2188 63.3344 19.2188C63.4281 19.1979 63.4958 19.1875 63.5375 19.1875C63.5896 19.1771 63.6417 19.1615 63.6937 19.1406C63.7354 19.1302 63.7875 19.1146 63.85 19.0938C63.9021 19.0729 63.9333 19.0573 63.9437 19.0469C63.9542 19.0365 63.9698 19.026 63.9906 19.0156L64.0375 18.8281C64.0167 18.7865 64.001 18.75 63.9906 18.7188C63.9906 18.6771 63.9802 18.6406 63.9594 18.6094C63.949 18.5781 63.9229 18.5312 63.8812 18.4688C63.85 18.4062 63.8187 18.3542 63.7875 18.3125ZM69.8563 18.2969C70.2313 18.0677 70.6323 17.8698 71.0594 17.7031C71.4969 17.5365 71.9396 17.4583 72.3875 17.4688C72.3458 16.5833 72.3094 15.7031 72.2781 14.8281C72.2573 13.9531 72.2417 13.0729 72.2313 12.1875C72.2313 11.9896 72.2938 11.8438 72.4188 11.75C72.5438 11.6458 72.6844 11.5938 72.8406 11.5938C72.9969 11.5938 73.1375 11.6458 73.2625 11.75C73.3979 11.8438 73.4656 11.9896 73.4656 12.1875C73.476 13.2188 73.5021 14.2552 73.5438 15.2969C73.5854 16.3281 73.6271 17.3594 73.6688 18.3906C73.7104 19.4219 73.7417 20.4583 73.7625 21.5C73.7833 22.5312 73.7781 23.5625 73.7469 24.5938C73.7365 24.7917 73.6635 24.9427 73.5281 25.0469C73.3927 25.151 73.2469 25.2031 73.0906 25.2031C72.9344 25.2031 72.7938 25.151 72.6688 25.0469C72.5438 24.9531 72.4865 24.8021 72.4969 24.5938C72.4969 24.5208 72.4969 24.4479 72.4969 24.375C72.4969 24.3021 72.5021 24.2292 72.5125 24.1562C72.4083 24.1458 72.3042 24.1354 72.2 24.125C72.1063 24.125 72.0125 24.125 71.9188 24.125C71.7938 24.125 71.6688 24.125 71.5438 24.125C71.4188 24.125 71.299 24.1198 71.1844 24.1094C70.9135 24.0885 70.6427 24.0625 70.3719 24.0312C70.101 24 69.8354 23.9375 69.575 23.8438C69.3146 23.7396 69.0698 23.6146 68.8406 23.4688C68.6115 23.3125 68.424 23.1094 68.2781 22.8594C68.1115 22.599 67.9708 22.3177 67.8563 22.0156C67.7521 21.7135 67.7104 21.401 67.7313 21.0781C67.7521 20.7552 67.825 20.4583 67.95 20.1875C68.075 19.9167 68.2313 19.6667 68.4188 19.4375C68.6167 19.2083 68.8354 19 69.075 18.8125C69.325 18.625 69.5854 18.4531 69.8563 18.2969ZM72.5281 22.9219C72.5281 21.526 72.4969 20.125 72.4344 18.7188C72.0906 18.6979 71.7469 18.7604 71.4031 18.9062C71.0698 19.0417 70.7625 19.1979 70.4813 19.375C70.325 19.4688 70.1531 19.5781 69.9656 19.7031C69.7885 19.8177 69.6219 19.9531 69.4656 20.1094C69.3198 20.2552 69.2 20.4167 69.1063 20.5938C69.0125 20.7708 68.9656 20.9635 68.9656 21.1719C68.976 21.3594 69.0177 21.5625 69.0906 21.7812C69.1635 21.9896 69.2625 22.1615 69.3875 22.2969C69.5125 22.4323 69.6531 22.5365 69.8094 22.6094C69.9656 22.6719 70.1323 22.724 70.3094 22.7656C70.5177 22.8073 70.7156 22.8333 70.9031 22.8438C71.101 22.8542 71.3042 22.8646 71.5125 22.875C71.6792 22.875 71.8458 22.8854 72.0125 22.9062C72.1792 22.9167 72.351 22.9219 72.5281 22.9219Z" fill="#4A2F2C"/>
</svg>
