<svg width="54" height="42" viewBox="0 0 54 42" fill="none" xmlns="http://www.w3.org/2000/svg">
<g filter="url(#filter0_d_5507_9239)">
<rect x="5.33073" y="5.33073" width="43.3385" height="31.3385" rx="3.63802" fill="white" stroke="#D9D9D9" stroke-width="0.661458"/>
<path fill-rule="evenodd" clip-rule="evenodd" d="M17.4459 25.3213H15.4902C15.3564 25.3213 15.2426 25.4244 15.2217 25.5645L14.4308 30.8833C14.415 30.9882 14.4917 31.0828 14.592 31.0828H15.5257C15.6595 31.0828 15.7733 30.9797 15.7942 30.8393L16.0075 29.4048C16.0281 29.2643 16.1422 29.1613 16.2758 29.1613H16.8948C18.1831 29.1613 18.9265 28.5001 19.1208 27.1899C19.2082 26.6167 19.1245 26.1663 18.8713 25.8508C18.5934 25.5046 18.1004 25.3213 17.4459 25.3213ZM17.6715 27.2639C17.5646 28.0082 17.0284 28.0082 16.5099 28.0082H16.2148L16.4219 26.6181C16.4342 26.5342 16.5028 26.4723 16.5829 26.4723H16.7181C17.0713 26.4723 17.4044 26.4723 17.5766 26.6858C17.6792 26.8132 17.7107 27.0024 17.6715 27.2639ZM23.2917 27.24H22.3552C22.2754 27.24 22.2065 27.3019 22.1942 27.386L22.1527 27.6638L22.0872 27.5631C21.8845 27.251 21.4325 27.1467 20.9812 27.1467C19.9463 27.1467 19.0624 27.978 18.8903 29.1442C18.8008 29.7258 18.928 30.282 19.2391 30.6699C19.5245 31.0266 19.9329 31.1752 20.4187 31.1752C21.2525 31.1752 21.715 30.6065 21.715 30.6065L21.6732 30.8826C21.6574 30.9881 21.7341 31.0827 21.8338 31.0827H22.6774C22.8116 31.0827 22.9248 30.9795 22.9459 30.8392L23.4521 27.4396C23.4681 27.335 23.3918 27.24 23.2917 27.24ZM21.9863 29.1732C21.8959 29.7407 21.4712 30.1216 20.9297 30.1216C20.6578 30.1216 20.4404 30.0291 20.3009 29.8538C20.1625 29.6798 20.1098 29.4319 20.1539 29.156C20.2383 28.5933 20.6701 28.2 21.2034 28.2C21.4693 28.2 21.6855 28.2936 21.8279 28.4705C21.9705 28.6492 22.0272 28.8984 21.9863 29.1732ZM27.3383 27.2399H28.2794C28.4112 27.2399 28.4881 27.3967 28.4132 27.5113L25.2832 32.3032C25.2325 32.3808 25.149 32.427 25.0598 32.427H24.1199C23.9875 32.427 23.9102 32.269 23.9869 32.154L24.9615 30.6949L23.9249 27.4685C23.8891 27.3564 23.9671 27.2399 24.0796 27.2399H25.0044C25.1245 27.2399 25.2305 27.3235 25.2652 27.4455L25.8153 29.3941L27.1133 27.3663C27.1641 27.2872 27.2486 27.2399 27.3383 27.2399Z" fill="#253B80"/>
<path fill-rule="evenodd" clip-rule="evenodd" d="M37.5418 30.8835L38.3444 25.4675C38.3567 25.3835 38.4254 25.3216 38.5052 25.3213H39.4087C39.5085 25.3213 39.5851 25.4162 39.5694 25.5211L38.7779 30.8396C38.7573 30.98 38.6435 31.0831 38.5094 31.0831H37.7025C37.6027 31.0831 37.5261 30.9885 37.5418 30.8835ZM31.3952 25.3216H29.4392C29.3056 25.3216 29.1918 25.4247 29.1709 25.5648L28.38 30.8835C28.3642 30.9885 28.4409 31.0831 28.5408 31.0831H29.5444C29.6377 31.0831 29.7175 31.011 29.732 30.9127L29.9564 29.4051C29.9771 29.2646 30.0912 29.1616 30.2247 29.1616H30.8435C32.132 29.1616 32.8753 28.5004 33.0697 27.1902C33.1574 26.617 33.0731 26.1666 32.8201 25.8511C32.5423 25.5049 32.0497 25.3216 31.3952 25.3216ZM31.6208 27.2642C31.5141 28.0085 30.9779 28.0085 30.4592 28.0085H30.1643L30.3717 26.6184C30.384 26.5345 30.452 26.4726 30.5324 26.4726H30.6676C31.0205 26.4726 31.354 26.4726 31.526 26.6861C31.6287 26.8135 31.6599 27.0027 31.6208 27.2642ZM37.2405 27.2403H36.3046C36.2242 27.2403 36.1559 27.3022 36.1439 27.3863L36.1024 27.664L36.0367 27.5634C35.8339 27.2513 35.3822 27.147 34.9309 27.147C33.8959 27.147 33.0124 27.9783 32.8402 29.1445C32.751 29.7261 32.8777 30.2823 33.1888 30.6702C33.4747 31.0268 33.8826 31.1755 34.3684 31.1755C35.2022 31.1755 35.6646 30.6068 35.6646 30.6068L35.6229 30.8828C35.6071 30.9884 35.6837 31.083 35.7842 31.083H36.6274C36.7609 31.083 36.8747 30.9798 36.8956 30.8395L37.4021 27.4399C37.4175 27.3353 37.3409 27.2403 37.2405 27.2403ZM35.9352 29.1735C35.8453 29.7409 35.4201 30.1219 34.8785 30.1219C34.6071 30.1219 34.3893 30.0294 34.2497 29.8541C34.1112 29.68 34.0592 29.4322 34.1028 29.1562C34.1876 28.5936 34.6189 28.2003 35.1522 28.2003C35.4182 28.2003 35.6342 28.2939 35.7768 28.4708C35.92 28.6494 35.9766 28.8987 35.9352 29.1735Z" fill="#179BD7"/>
<path d="M24.6835 23.4184L24.9239 21.7988L24.3884 21.7856H21.8311L23.6083 9.83379C23.6137 9.79771 23.6317 9.76407 23.6579 9.74018C23.6841 9.71629 23.7177 9.70312 23.7526 9.70312H28.0646C29.4962 9.70312 30.4841 10.0191 30.9999 10.6427C31.2417 10.9352 31.3957 11.2409 31.4702 11.5773C31.5483 11.9303 31.5497 12.3521 31.4734 12.8665L31.4678 12.904V13.2336L31.7097 13.3789C31.9134 13.4935 32.0751 13.6246 32.1992 13.7748C32.4062 14.0249 32.54 14.3428 32.5965 14.7197C32.6548 15.1073 32.6355 15.5686 32.54 16.0908C32.4296 16.6914 32.2512 17.2146 32.0104 17.6427C31.7887 18.0371 31.5064 18.3642 31.1714 18.6178C30.8514 18.8587 30.4712 19.0416 30.0414 19.1586C29.6248 19.2736 29.15 19.3317 28.6292 19.3317H28.2936C28.0537 19.3317 27.8205 19.4233 27.6376 19.5877C27.4542 19.7554 27.3327 19.9844 27.2955 20.2351L27.2703 20.3809L26.8455 23.2355L26.8262 23.3404C26.8211 23.3736 26.8124 23.3902 26.7996 23.4014C26.788 23.4115 26.7715 23.4184 26.7554 23.4184H24.6835Z" fill="#253B80"/>
<path d="M31.9385 12.9424C31.9257 13.0297 31.911 13.1189 31.8944 13.2105C31.3257 16.3071 29.3803 17.3768 26.8955 17.3768H25.6304C25.3266 17.3768 25.0705 17.6108 25.0232 17.9287L24.3754 22.2857L24.192 23.5207C24.1611 23.7294 24.3129 23.9176 24.5114 23.9176H26.7554C27.0211 23.9176 27.2467 23.7128 27.2885 23.4349L27.3106 23.3139L27.7332 20.4704L27.7603 20.3145C27.8016 20.0356 28.0277 19.8308 28.2934 19.8308H28.629C30.803 19.8308 32.5049 18.8947 33.0023 16.1857C33.2101 15.054 33.1025 14.1091 32.5527 13.4446C32.3863 13.2442 32.1799 13.0779 31.9385 12.9424Z" fill="#179BD7"/>
<path d="M31.3435 12.6911C31.2567 12.6643 31.167 12.6399 31.075 12.6179C30.9826 12.5965 30.8879 12.5775 30.7905 12.5609C30.4493 12.5024 30.0756 12.4746 29.6752 12.4746H26.2954C26.2122 12.4746 26.1332 12.4946 26.0624 12.5307C25.9065 12.6101 25.7907 12.7667 25.7627 12.9583L25.0436 17.7881L25.0229 17.929C25.0703 17.6111 25.3264 17.3771 25.6302 17.3771H26.8953C29.3801 17.3771 31.3256 16.3069 31.8942 13.2108C31.9112 13.1192 31.9255 13.03 31.9383 12.9427C31.7945 12.8617 31.6386 12.7925 31.4708 12.7335C31.4295 12.7189 31.3868 12.7047 31.3435 12.6911Z" fill="#222D65"/>
<path d="M25.7623 12.9579C25.7904 12.7663 25.9063 12.6098 26.0621 12.5308C26.1334 12.4947 26.212 12.4747 26.2951 12.4747H29.675C30.0754 12.4747 30.4491 12.5025 30.7901 12.561C30.8877 12.5776 30.9824 12.5966 31.0748 12.618C31.1667 12.64 31.2563 12.6644 31.3433 12.6912C31.3864 12.7048 31.4292 12.719 31.471 12.7331C31.6388 12.7921 31.7947 12.8618 31.9385 12.9423C32.1078 11.798 31.9372 11.0188 31.3539 10.3133C30.7107 9.53662 29.5499 9.2041 28.0646 9.2041H23.7525C23.4491 9.2041 23.1904 9.43812 23.1434 9.75651L21.3474 21.8311C21.3119 22.07 21.4857 22.2856 21.7127 22.2856H24.375L25.0434 17.7877L25.7623 12.9579Z" fill="#253B80"/>
</g>
<defs>
<filter id="filter0_d_5507_9239" x="0" y="0" width="54" height="42" filterUnits="userSpaceOnUse" color-interpolation-filters="sRGB">
<feFlood flood-opacity="0" result="BackgroundImageFix"/>
<feColorMatrix in="SourceAlpha" type="matrix" values="0 0 0 0 0 0 0 0 0 0 0 0 0 0 0 0 0 0 127 0" result="hardAlpha"/>
<feOffset/>
<feGaussianBlur stdDeviation="2.5"/>
<feComposite in2="hardAlpha" operator="out"/>
<feColorMatrix type="matrix" values="0 0 0 0 0 0 0 0 0 0 0 0 0 0 0 0 0 0 0.07 0"/>
<feBlend mode="normal" in2="BackgroundImageFix" result="effect1_dropShadow_5507_9239"/>
<feBlend mode="normal" in="SourceGraphic" in2="effect1_dropShadow_5507_9239" result="shape"/>
</filter>
</defs>
</svg>
