<svg width="400" height="104" viewBox="0 0 400 104" fill="none" xmlns="http://www.w3.org/2000/svg">
<path d="M321.544 90.5831C305.922 94.4328 276.662 94.7708 276.662 94.7708C276.662 94.7708 155.67 96.9494 136.288 94.352C123.863 92.687 89.4958 92.6769 60.8479 86.8142C32.1999 80.9514 37.9295 67.5507 49.3887 59.5941C60.8479 51.6375 49.3887 44.0684 80.5138 30.9966C101.523 22.1733 149.211 15.7463 149.211 15.7463C149.211 15.7463 209.181 11.4355 222.231 9.76041C246.678 6.41024 252.08 7.46743 269.978 9.76041C290.535 12.394 300.115 16.7685 314.86 23.5798C326.682 29.0409 329.42 33.1752 339.688 39.4931C360 51.9906 360 58.9226 360 58.9226C360 58.9226 359.313 69.5714 352.102 76.7637C345.202 83.6454 336.489 86.9004 321.544 90.5831Z" fill="#E8DCCD"/>
<path d="M61.5441 57.5269C59.8585 60.9234 56.7673 64.1347 53.8867 66.0721C51.5897 67.6626 49.5288 69.6635 48.5598 71.2962C48.0679 72.0962 47.9284 72.7107 47.937 72.8341C47.9623 72.969 47.8726 72.7411 48.0526 73.0559C48.9417 74.8511 56.1134 77.8468 62.4516 78.9774C74.0188 81.3251 85.9632 82.6841 97.5418 83.7669C100.977 84.0813 100.708 84.592 101.668 84.7363C104.298 85.126 105.947 84.6012 107.867 84.7739C117.295 85.6502 125.99 85.9899 135.828 87.1793C136.338 87.2471 136.804 87.3181 137.221 87.3902C140.446 87.9297 141.719 88.4017 141.942 88.9047C142.286 89.3982 142.024 89.8688 143.598 90.1474C149.952 91.2373 144.592 88.8164 147.149 88.436C154.538 88.849 161.979 89.1902 169.46 89.503C167.639 89.6894 165.834 89.8684 163.966 90.0318C167.313 90.1218 171.812 90.4989 166.45 91.0129C167.624 91.1831 168.738 91.3778 169.985 91.5421C170.369 90.7548 176.077 90.731 176.64 90.2615C177.169 89.7943 173.908 89.8838 173.936 89.8422C174.167 89.2682 187.442 90.1118 188.423 90.1683C190.969 90.3419 188.739 91.3257 190.892 91.2614C194.599 91.149 192.137 89.1533 197.164 91.8017C199.16 90.9321 199.338 91.3804 201.875 91.4307C202.208 91.4368 201.948 90.9376 202.094 90.9239C205.925 90.5364 202.983 91.4793 203.003 91.5296C203.355 92.3847 207.468 91.9844 208.338 92.0611C219.24 93.0209 227.203 93.6429 238.713 93.7527C241.212 93.7761 248.718 93.337 251.173 93.4492C253.515 93.5619 252.223 94.1959 253.508 94.4749C255.517 92.9636 257.425 92.7744 261.838 93.6875C263.573 92.5792 263.265 93.4575 266.504 93.1914C269.007 92.9737 273.882 91.5966 276.624 92.6543C273.437 92.609 273.658 93.1369 269.943 93.5182C268.704 93.648 255.563 93.8636 256.578 94.9534C257.013 95.5244 261.48 94.9307 261.561 95.0355C262.513 95.6412 260.242 96.4364 258.009 96.201C258.561 96.0681 259.214 95.9319 259.784 95.7987C254.842 95.0942 258.325 98.0204 254.609 95.4718C254.146 95.1591 254.322 94.8242 253.553 94.4957C253.397 94.638 254.338 94.9728 253.533 95.0459C252.678 95.1202 251.236 94.4795 251 95.0385C250.679 95.8514 253.946 95.4894 254.236 95.5325C254.238 95.5276 254.241 95.5227 254.244 95.5177C256.494 95.9164 251.788 96.0292 251.622 96.1076C250.212 96.6298 251.2 97.005 249.036 97.4489C247.757 97.7026 244.748 97.6001 243.546 97.6909C242.381 97.7833 244.199 98.144 243.416 98.2355C242.613 98.3272 241.71 98.0472 240.804 98.1529C240.421 98.1993 240.445 98.6256 240.259 98.6426C238.249 98.8297 239.564 97.9276 237.722 98.0023C236.555 98.0515 232.628 98.9201 235.347 99.1376C234.048 99.2373 232.749 99.3137 231.442 99.394C232.261 99.5126 233.134 99.5899 233.937 99.7307C231.45 99.5535 230.383 100.294 228.844 100.363C227.31 100.432 225.892 99.569 224.228 100.011C220.627 100.952 229.577 100.452 230.669 100.602C231.099 100.662 229.458 101.364 229.201 101.386C228.069 101.483 226.708 101.005 225.824 101.035C222.73 101.145 220.755 101.809 217.799 101.962C207.625 102.485 194.985 102.899 185.326 103.025C181.764 103.073 179.541 102.335 177.962 102.349C174.146 102.379 173.736 103.01 170.404 103.017C165.554 103.031 158.541 102.376 154.438 102.154C151.658 102.008 148.929 102.532 148.245 102.522C144.215 102.445 140.045 102.385 135.285 101.838C129.281 101.156 122.268 100.87 117.099 100.549C113.117 100.321 111.255 99.5148 110.436 99.4847C106.884 99.3483 107.786 99.9968 104.916 99.746C103.349 99.6077 103.111 99.0219 102.901 98.9852C101.067 98.6677 100.664 99.3789 99.2172 99.2939C90.9441 98.8014 83.0055 97.5514 74.799 96.3554C74.2035 96.2676 74.3017 95.9502 73.9137 95.9128C72.2448 95.7561 72.9413 96.3791 71.2004 96.1585C67.5766 95.6942 63.8755 94.9789 60.0548 94.145C59.8207 94.0938 59.6984 93.9025 59.4341 93.7222C59.2578 93.6087 59.025 93.4985 58.6768 93.4242C57.7443 93.2222 57.0563 93.4834 55.5672 93.0895C51.8054 92.0578 48.2967 90.5044 44.1794 88.324C43.5352 87.9767 42.384 87.9128 41.3822 87.2415C38.1246 85.4075 33.3271 79.1587 33.3246 74.1851C33.4072 62.4059 40.3809 58.0383 45.4383 53.9047C46.5599 53.0896 47.2871 52.3578 47.8402 51.5617C48.3419 50.861 49.2333 50.0053 49.5788 49.2017C50.3851 47.3144 49.3211 48.6842 50.2609 46.4654C56.2953 33.1594 68.3766 29.0884 77.8785 24.7218C85.35 21.6843 92.6693 19.7806 100.026 17.9528C106.963 16.2489 115.325 14.0736 122.067 12.9616C124.863 12.5018 125.491 13.0162 127.46 12.6741C130.966 12.0709 131.503 11.1808 135.21 10.4938C138.182 9.94784 141.689 10.1976 144.796 9.69401C146.199 9.46676 147.252 9.14904 148.278 8.82283L148.71 8.77822C149.912 8.46472 151.256 8.11228 153.2 7.91973C156.117 7.63189 160.237 7.675 163.407 7.38217C182.813 5.54282 202.481 3.94445 221.232 1.97245L221.165 1.98127C230.833 0.722805 240.841 -0.495603 251.446 0.205094C258.032 0.63951 264.552 1.62537 270.9 2.56404C275.602 3.26635 280.318 4.19699 284.838 5.50673C285.858 5.81128 284.123 6.15338 287.463 6.78365C289.251 7.14031 291.917 7.13852 295.996 8.42647C303.584 10.8245 310.742 14.2507 317.627 17.5898C327.428 21.9187 335.315 29.7531 342.819 34.4051C349.11 38.4844 355.244 42.6484 360.806 48.7157C361.773 49.8059 362.74 51.0008 363.635 52.3831C364.091 53.0924 364.529 53.845 364.943 54.7369C365.144 55.1746 365.35 55.6715 365.534 56.2295C365.626 56.5122 365.716 56.8195 365.799 57.1741C365.842 57.363 365.88 57.541 365.919 57.7776C365.935 57.8745 365.957 58.0239 365.973 58.1656C365.981 58.2354 365.988 58.2992 365.998 58.4225C366.006 58.5428 366.015 58.5761 366.019 58.9226L366.006 59.31C365.265 67.5623 362.847 75.0055 356.907 81.5815C347.242 92.0123 334.168 95.461 323.457 98.3435C306.701 102.105 291.714 101.514 277.58 98.6066C276.001 98.2549 276.828 96.3961 277.745 95.854C278.615 96.2122 279.436 96.6382 280.356 97.0367C281.415 94.694 281.236 95.3173 285.465 95.3609C288.061 95.3798 285.961 94.4817 287.312 94.1416C289.1 93.725 297.374 92.0614 295.871 93.6826C296.372 93.3825 296.838 93.0948 297.319 92.7994C303.344 92.119 309.185 91.1595 314.879 89.7833C315.874 89.5384 315.817 89.0621 316.829 88.7986C318.266 88.4155 319.597 88.1749 320.886 87.9126C322.048 87.6725 323.202 87.4383 324.492 87.0786C326.01 86.651 326.077 86.0643 328.057 85.5444C330.021 85.0118 330.219 85.7507 332.6 84.1295C330.622 83.8204 338.375 81.9351 340.705 80.5406C341.087 80.3678 343.468 78.1201 344.82 77.2451C346.009 76.5226 347.856 75.5875 349.345 73.9999C349.592 73.7371 349.817 73.4595 350.026 73.1559C350.662 72.2121 350.545 71.2859 351.164 70.283C351.594 69.5776 352.618 68.9754 353.128 67.9716C353.664 66.9866 354.052 64.5216 354.153 64.0962C354.584 62.5457 354.475 64.3674 354.802 63.3107C355.25 61.8275 355.65 59.9934 355.8 58.6517L355.792 58.9226C355.794 59.1289 355.798 59.1275 355.801 59.1741C355.804 59.2153 355.807 59.2401 355.809 59.2562C355.813 59.2913 355.818 59.3224 355.821 59.3339C355.827 59.3651 355.83 59.3743 355.831 59.3746C355.834 59.3744 355.828 59.3381 355.817 59.2955C355.794 59.2019 355.75 59.0675 355.688 58.9119C355.567 58.6079 355.379 58.2351 355.165 57.8702C354.723 57.1179 354.148 56.3382 353.504 55.5795C352.21 54.059 350.663 52.6421 349.1 51.4259C348.546 50.9966 348.967 51.9925 348.882 51.9425C344.901 49.4012 347.226 50.5334 346.48 49.3763C345.865 48.2108 337.916 43.1751 337.382 43.9279C337.442 43.7215 337.404 43.5389 337.299 43.3761C336.826 42.6894 335.267 42.3168 334.847 42.0698C332.878 40.9125 333.762 40.4098 331.805 39.388C331.09 39.0084 332.015 40.4153 331.317 39.9007C329.593 38.6279 328.659 36.6854 326.553 35.0024C326.046 34.5989 325.615 34.8253 324.706 34.1533C323.811 33.4423 320.22 30.4862 321.509 32.4227C319.546 30.3049 318.841 30.354 315.949 28.8234C315.29 28.4829 314.689 27.5376 313.304 26.9468C313.143 26.878 312.973 26.8135 312.793 26.7547C312.184 26.5558 311.925 27.1895 311.051 26.7929C309.07 25.8977 307.517 24.4024 305.028 23.2732C300.376 21.1583 295.255 19.6589 290.345 18.0118C289.002 17.5657 289.538 16.9949 287.546 16.439C287.246 16.3533 284.696 16.314 283.319 15.9544C282.502 15.7128 278.187 14.4284 277.296 14.2587C275.82 13.9483 275.454 14.5672 274.662 14.3088C272.375 13.5795 274.402 12.8865 271.367 13.8075C270.921 13.3372 270.218 13.0795 269.59 12.7857C269.054 12.5387 268.598 12.2668 268.407 11.8226C267.29 12.6895 266.132 11.5675 264.182 11.6564C262.226 11.7444 260.458 13.4863 260.238 11.3577C259.319 11.4946 255.53 11.5319 254.908 11.5233C253.057 11.4609 254.088 10.9627 252.688 10.9423C252.442 10.9415 252.672 11.3426 251.108 11.2212C250.088 11.0584 242.546 11.083 242.08 11.1202C236.869 10.7833 244.893 10.5593 245.999 10.1919C246.198 10.3026 246.397 10.4144 246.608 10.5251C248.887 10.7242 247.597 9.81951 246.554 9.61209C245.509 9.40166 243.549 9.84716 242.679 9.59366C242.236 9.46632 242.46 8.37893 243.793 8.46585C242.354 8.18254 244.296 7.7718 243.721 7.48027C243.092 7.11378 236.617 7.42616 236.652 8.04692C237.832 7.96651 239.351 7.83501 240.548 7.79132C242.153 8.72921 237.682 12.4545 233.242 11.535C229.985 10.8776 235.094 9.46919 227.71 11.1978C228.852 11.0974 229.866 11.0731 230.893 10.9995C231.095 11.7491 229.302 11.1051 228.46 11.4557C228.054 11.6249 230.7 11.8536 228.485 12.3037C226.596 11.5324 225.338 12.5151 222.682 13.0495L222.654 13.0533C222.397 13.1038 222.112 13.15 221.791 13.1895C222.089 13.091 222.37 12.9935 222.634 12.8968L222.661 12.8933C223.272 12.6751 223.871 12.4599 224.457 12.2472C219.173 12.1967 230.241 10.4365 222.412 11.0772L222.401 11.0787C221.991 11.1075 221.409 11.1537 220.812 11.1967C221.325 11.1238 221.921 11.0456 222.388 10.9786L222.398 10.9772C223.178 10.8603 223.933 10.7487 224.682 10.6175C224.008 10.2999 224.848 8.99496 224.258 8.82072C223.626 8.63122 222.886 8.63805 222.09 8.7286C221.076 8.83249 219.85 9.09157 218.793 9.16895C218.021 9.22545 218.464 8.85762 218.4 8.8625C217.321 8.93842 217.562 9.38435 216.655 9.50493C215.424 9.66731 211.978 9.53075 211.415 9.63242C209.957 9.89772 212.486 10.5965 212.34 10.6786C211.461 11.2095 209.528 11.0095 209.686 11.5832C214.185 10.8169 227.399 9.93045 215.568 12.1281C218.951 12.7435 218.155 14.1471 213.407 14.6962C209.549 15.1357 211.963 14.3902 209.92 13.9968C209.647 13.9515 204.396 14.1309 204.179 14.5551C204.311 13.6047 202.535 12.9232 203.598 11.864C203.762 11.7082 205.874 11.5838 205.072 10.873C204.675 10.5157 203.538 9.76055 203.667 9.25125C203.257 9.6325 202.827 10.0586 202.404 10.4557C199.234 10.8228 198.736 10.4893 196.932 9.99134C197.035 10.2526 198.752 11.2453 196.256 11.1048C196.129 11.0945 195.991 10.6993 194.728 10.5999C192.162 10.4031 191.64 10.3186 193.475 8.97694C188.309 10.073 187.081 8.8387 181.755 9.64293C182.938 11.0854 184.794 10.563 189.673 9.87999C189.914 10.2259 190.041 10.5771 190.291 10.926C183.701 10.6209 186.932 10.4492 183.291 11.4756C182.398 11.7274 177.555 11.9071 179.246 12.8099C179.647 13.0223 182.643 12.762 182.329 13.1696C182.271 13.2474 178.63 13.7148 178.308 13.6402C174.174 12.7341 181.326 11.3385 170.242 12.6264C169.937 12.6625 169.862 13.1149 169.275 13.2214C168.173 13.4204 168.092 12.909 167.103 13.1028C166.137 13.2951 164.745 14.0954 163.217 13.5658C160.345 12.6081 166.825 11.452 169.774 11.8498C170.816 10.2742 150.843 11.6987 148.938 11.9498L148.703 11.9741C148.701 11.9767 148.671 11.9831 148.64 11.9898C145.718 12.7008 146.858 12.5902 148.756 12.3707L148.967 12.349C150.591 12.2706 152.822 12.1397 153.091 12.3212C153.288 12.4864 153.363 14.7584 155.605 13.1163C156.254 12.6308 153.362 12.2659 155.041 11.9014C156.761 11.5337 156.142 12.2496 156.266 12.2874C156.702 12.4157 158.553 12.0306 158.797 12.1076C162.629 13.2667 162.404 15.4646 157.267 12.6229C155.209 13.5025 160.186 14.2961 157.553 14.9843C154.379 15.8187 151.92 14.959 151.529 14.9407C148.125 14.7978 149.884 15.3059 149.2 15.597C148.968 15.7306 148.184 15.8687 146.422 15.9793C143.087 16.1949 151.179 14.2655 143.701 15.4638C137.424 16.507 140.905 16.5108 140.632 17.7611C140.562 18.0555 137.166 18.9328 141.83 18.0815C141.919 17.7525 142.114 17.3069 142.367 16.9775C143.502 17.0334 145.733 18.2787 146.282 18.2547C148.248 18.1388 148.818 17.7766 149.478 17.7288L149.354 17.7416C149.338 17.7485 149.578 17.7429 149.613 17.7599C149.694 17.7735 149.798 17.7934 149.934 17.8207C150.194 17.8761 150.37 17.9767 150.746 18.1171C149.371 17.1708 151.493 17.6474 152.26 17.3706C155.106 16.3488 151.289 16.3266 157.8 16.8942C156.956 16.4661 156.111 16.0469 155.288 15.6189C156.032 15.5475 156.86 15.4693 157.596 15.3983C158.882 16.3836 162.915 15.9466 159.298 17.3017C163.772 17.2794 165.573 16.9082 166.5 15.9988C166.671 15.8256 167.325 15.7124 168.12 15.6372C167.952 15.4136 167.706 14.7022 167.824 14.6037C168.907 13.7351 170.694 14.9602 170.155 15.5201C170.707 15.5032 171.151 15.4987 171.308 15.4995C172.304 15.5047 170.401 16.1182 171.213 16.2177C171.501 16.2484 174.214 15.9402 174.295 16.1247C174.71 17.316 170.132 16.785 179.277 16.7949C179.416 15.6707 175.198 16.2391 176.196 14.9795C177.273 13.6264 179.77 15.1389 180.175 13.5481C180.389 13.788 180.491 13.9939 180.681 14.2711C184.304 13.3108 184.46 14.5963 185.605 14.7936C187.836 15.1809 197.874 14.2937 188.766 13.895C190.072 13.6792 191.421 13.5197 192.721 13.316C193.204 15.6049 192.337 14.7529 198.687 14.5888C200.066 14.5537 200.635 15.5309 201.888 14.2093C201.794 15.4118 205.848 14.3474 206.26 14.4554C208.811 15.1807 199.749 17.2638 198.407 15.2585C196.926 16.2016 196.839 15.1228 195.131 15.4054C192.643 15.8143 192.327 16.0513 189.302 15.4904C186.476 16.8471 200.748 15.0689 192.185 17.2553C187.128 18.5531 167.361 20.7429 149.693 22.4482L150.108 22.4053C138.262 24.3541 127.162 26.5562 122.541 27.5303C105.742 31.1637 95.1477 33.7174 83.5766 38.2895C80.869 39.4382 78.1294 40.6747 75.3489 42.1316C74.6255 42.5029 71.3937 44.2907 69.1567 45.828C66.8751 47.3483 65.5056 48.5933 65.7158 47.3826C65.6428 47.0537 69.1641 43.4242 65.2373 45.4666C66.2506 45.3301 64.7754 47.2929 64.755 47.4725C63.9265 49.5663 64.271 50.1022 64.1457 50.8352C64.0968 51.2143 63.9965 51.5972 63.7036 52.4118C63.3704 53.2425 63.0489 54.5078 61.5441 57.5269ZM37.2207 77.4893C35.5948 73.2205 36.5945 70.5667 36.7622 69.416C37.0461 68.2052 37.0004 68.0443 36.6984 68.2217C36.0962 68.5044 34.7952 70.8051 34.3494 68.6096C33.6373 71.0044 33.4623 73.9419 34.2363 76.6803C34.1555 75.9288 34.1384 75.193 34.1781 74.4601C34.1778 74.457 34.1774 74.4539 34.1771 74.4508C35.0521 75.7123 36.1094 76.7465 37.2207 77.4893ZM237.451 100.366C236.98 100.63 236.518 100.894 236.006 101.152C234.402 101.089 232.744 101.028 231.128 100.964C231.318 100.786 231.501 100.607 231.69 100.43C233.641 100.417 235.557 100.405 237.451 100.366ZM171.476 11.4361C173.793 11.9807 173.524 10.7157 176.594 11.0666C176.147 10.1519 175.663 9.2607 175.201 8.35645C172.894 8.67301 172.421 9.06985 169.863 9.03143C170.178 9.31258 170.503 9.59486 170.815 9.87808C171.236 9.78074 171.674 9.67316 172.07 9.58512C172.79 10.384 168.752 10.8172 171.468 11.4387C171.47 11.4378 171.473 11.437 171.476 11.4361ZM194.898 9.22431C196.121 9.24995 201.062 9.30679 201.679 8.86038C203.835 7.3507 190.138 9.32636 200.183 7.31257C200.121 7.13064 200.153 6.94472 200.137 6.76076C198.277 6.8501 196.427 6.94534 194.574 7.04315C194.733 7.76794 194.725 8.49689 194.898 9.22431ZM61.1675 37.342C62.8141 35.8433 70.8345 30.5804 67.6984 31.4039C66.7458 31.6162 63.6232 34.9257 62.2573 35.9288C61.3518 36.5697 61.9747 35.2363 60.3432 36.8381C60.6031 37.0016 60.853 37.214 61.1709 37.3367C61.1698 37.3385 61.1686 37.3402 61.1675 37.342ZM60.9428 42.7135C62.2162 41.229 63.6869 39.8425 65.249 38.5918C63.5812 38.8002 61.6557 41.0645 60.8366 40.4192C61.1844 39.9893 61.6054 39.5187 61.9683 39.1162C62.446 39.0221 62.9319 38.9322 63.415 38.8538C64.4534 37.3788 63.4301 37.6916 66.2671 36.0289C63.7843 35.8223 62.6399 35.1193 59.3011 40.3928C59.5781 38.9767 56.591 37.6288 55.7944 41.8315C55.6693 42.5732 57.6197 40.5779 57.6993 40.6327C58.5127 40.837 57.9053 42.2292 58.7199 42.369C59.0657 42.4359 60.1173 41.3134 60.5853 41.488C60.7926 41.5756 60.2853 42.9768 60.9428 42.7135ZM55.3471 43.6742C55.4011 42.7831 53.0028 44.387 52.3167 46.4728C51.3392 49.5502 54.1925 45.3034 55.3471 43.6742ZM237.462 100.365C237.458 100.365 237.455 100.365 237.451 100.366C237.453 100.365 237.455 100.364 237.457 100.363C237.458 100.363 237.46 100.364 237.462 100.365ZM188.51 9.21406C189.925 8.71853 192.082 8.60163 191.873 8.00847C192.585 8.07117 193.306 8.13111 194.024 8.19285C194.003 8.0112 193.975 7.8297 193.953 7.64991C191.821 7.70812 189.699 7.76292 187.569 7.81514C187.874 8.28156 188.159 8.75139 188.51 9.21406ZM211.642 7.70246C214.257 7.52338 211.997 6.90113 212.531 6.45076C213.112 5.99705 215.437 6.10147 215.136 5.55411C213.601 5.68024 211.974 5.80828 210.363 5.93285C210.848 6.51506 211.2 7.12059 211.647 7.70197C211.646 7.70214 211.644 7.7023 211.642 7.70246ZM86.5445 95.0256C84.7324 94.6533 85.5544 94.117 81.8649 94.4409C81.8676 94.4412 81.8703 94.4415 81.873 94.4418C85.2429 95.3567 89.6302 96.2616 93.4614 96.0916C91.2104 95.2249 89.3878 95.599 86.5445 95.0256ZM164.994 10.0566C164.275 10.612 167.842 10.7636 168.621 10.2387C169.83 9.39337 166.112 9.21147 164.994 10.0566ZM160.123 95.3756C162.94 93.878 157.722 92.0856 152.263 92.6826C151.784 92.7366 155.251 93.3144 154.212 93.5887C154.089 93.616 152.224 93.5313 151.719 93.7303C151.215 93.9305 151.72 94.4438 150.904 94.6288C149.49 94.9551 146.403 94.165 145.358 94.5953C145.208 94.6542 147.124 95.4009 147.267 95.4302C149.238 95.9093 151.164 95.0927 151.505 95.0968C153.102 95.1119 152.809 95.7857 153.208 95.9569C153.938 96.2781 155.294 96.0077 155.392 96.0321C157.824 96.686 152.268 96.3887 151.559 96.6088C149.476 97.2081 151.365 97.9002 146.512 98.0961C146.027 98.1137 140.605 97.8382 147.488 98.8941C133.649 99.8754 154.349 100.111 156.504 99.7036C157.494 99.5614 156.014 98.8797 156.618 98.5993C157.983 97.9587 160.418 97.8823 160.219 96.9341C159.737 94.9409 156.713 96.1887 154.453 95.7993C154.692 95.3737 154.789 94.9555 155.226 94.5435C154.601 95.1003 159.884 95.4915 160.123 95.3795C160.123 95.3782 160.123 95.3769 160.123 95.3756ZM126.011 95.6888C123.039 94.9008 123.178 96.1677 120.454 95.2887C117.952 96.2697 122.771 96.4756 123.311 96.5736C125.847 97.0138 125.696 98.2275 128.318 98.0303C127.495 97.2465 126.795 96.4668 126.011 95.6888ZM152.285 97.9918C150.266 98.5709 153.831 98.6582 153.987 98.7811C155.593 100.121 144.607 99.5477 152.285 97.9918ZM72.9888 33.0082C73.9368 32.5872 73.0716 32.335 73.8385 31.7631C74.5816 31.1894 77.7095 30.3484 77.4551 30.0557C77.2741 29.7048 71.4767 31.273 76.7665 28.6389C76.5032 28.5226 76.4988 28.3512 76.3354 28.2134C74.821 28.8787 73.3796 29.5383 71.8744 30.2773C72.9466 30.4288 74.0796 30.6013 75.0666 30.7952C74.4762 31.6071 73.7534 31.2637 73.7029 31.2876C73.7032 31.2881 73.7035 31.2887 73.7038 31.2893C72.1631 32.0832 70.9028 33.9606 72.9888 33.0082ZM61.257 90.1578C61.5561 89.4457 61.0296 89.3829 60.2996 89.4932C59.5226 89.5976 58.5448 89.87 58.0246 89.8466C56.996 89.8066 55.6948 88.8854 56.0671 89.6576C57.0928 90.2256 58.883 90.347 60.1324 90.3102C60.7776 90.2828 61.2337 90.2133 61.2573 90.1558C61.2572 90.1565 61.2571 90.1571 61.257 90.1578ZM109.604 94.7089C107.057 94.9168 107.428 95.3394 104.347 94.6778C104.44 95.0528 104.537 95.436 104.633 95.8056C107.109 95.9802 107.006 94.9042 109.824 95.5124C110.289 95.6121 109.239 96.4019 111.363 96.2581C110.781 95.7666 110.188 95.224 109.604 94.7089ZM96.9251 95.1772C99.8508 95.3531 102.383 92.5643 96.9189 93.4818C96.1078 93.617 94.7259 95.0403 96.9251 95.1772ZM54.0887 52.0771C56.0331 47.5925 53.5098 52.681 52.5259 53.3148C56.6103 43.0367 52.2468 55.1305 50.267 54.1764C50.0038 55.2426 48.8689 57.5852 50.9354 55.9745C51.7411 55.2531 51.1205 55.2462 51.1685 55.2014C52.4175 53.7518 52.9377 54.3765 54.0887 52.0771ZM131.221 95.9888C131.034 95.996 131.285 96.5314 130.683 96.586C130.095 96.6404 128.784 96.1842 128.629 96.4898C128.475 96.7945 131.145 97.2389 131.939 97.0814C132.795 96.9243 132.873 95.9292 131.221 95.9888ZM112.371 93.535C109.876 93.7536 113.819 95.8889 114.342 95.9098C119.084 96.0897 112.202 94.1274 112.371 93.535ZM48.8196 62.5032C49.4926 61.7562 49.9508 61.2004 50.2062 60.7715C50.852 59.7645 50.3398 59.5039 49.3735 59.5723C48.2578 59.6278 46.4446 60.2528 44.8514 61.105C44.6027 61.6043 44.3581 62.1186 44.1444 62.6193C44.5197 61.3496 45.377 59.8123 45.3171 59.4462C45.3069 59.126 44.017 59.6979 41.2781 63.7521C44.9857 60.0043 42.2724 63.5055 42.3336 63.5639C43.5822 65.2839 48.0519 59.755 48.8157 62.5063C48.817 62.5052 48.8183 62.5042 48.8196 62.5032ZM139.111 97.3388C141.821 97.5717 148.575 97.4354 145.466 96.3185C143.43 96.6916 141.362 97.0511 139.111 97.3388ZM130.992 20.4825C133.201 20.6771 135.083 20.3516 137.666 19.8971C135.233 19.4575 136.741 19.1167 137.475 18.7943C138.59 18.3071 135.768 18.7879 135.724 18.7404C135.668 17.9588 137.451 17.5372 133.289 18.2472C134.304 17.8008 135.236 17.3689 136.256 16.9289C133.052 17.4166 132.233 17.0413 130.08 16.778C132.313 17.9408 129.565 17.4392 127.345 18.6038C126.242 19.1846 129.907 20.3728 131.001 20.4811C130.998 20.4815 130.995 20.482 130.992 20.4825ZM54.0588 58.6046C54.3309 57.9029 54.4505 57.1633 54.5708 56.4546C54.9582 55.8599 55.3029 55.245 55.6053 54.6167C55.8597 54.6554 56.1181 54.7095 56.3726 54.7254C56.8599 53.9181 56.3868 54.0969 56.4781 53.8373C56.4793 53.8378 56.4805 53.8384 56.4817 53.8389C57.6187 50.175 58.0312 48.8276 60.0642 47.028C59.4394 46.6255 58.8146 46.2231 58.1899 45.8207C57.9053 46.3928 57.6382 46.9942 57.4028 47.5979C57.601 48.0828 57.8143 48.5558 58.0373 49.0213C57.5396 49.5648 57.056 50.152 56.5742 50.748C56.4823 51.3517 56.3534 52.0715 56.2724 52.6112C53.2025 54.5036 57.0862 48.8813 56.3586 48.4748C55.7811 48.2496 53.3891 54.4537 52.9616 55.2293C52.9056 55.3763 55.0876 55.0883 52.9027 56.6122C52.4645 56.8704 50.2293 54.6235 50.1203 58.2498C50.0471 58.7804 52.4348 59.6436 54.0588 58.6046ZM68.7933 40.7207C64.4897 40.747 77.3111 35.9617 71.3888 37.2711C72.3752 35.6177 72.1545 35.7434 70.1977 35.8234C70.0252 35.8278 70.9618 35.0046 70.8493 35.0288C69.1549 35.3884 67.5979 36.6344 67.1193 35.9052C66.752 36.1862 66.4468 36.4277 66.076 36.7237C68.0955 36.4134 65.8693 38.472 65.4002 39.6986C65.1713 40.2522 66.1812 39.6464 65.9915 40.1217C65.9037 40.2977 64.5394 41.072 64.6572 41.358C64.9715 41.948 66.2461 42.0319 67.8529 41.5119C67.8533 41.5124 67.8537 41.5129 67.854 41.5135C68.1566 41.2539 68.4601 40.9893 68.7933 40.7207ZM70.0374 86.8508C70.4811 88.1167 73.0042 88.8742 67.9794 88.6413C68.1849 88.9122 68.3988 89.1821 68.6062 89.4525C69.4437 89.5698 70.2533 89.6784 71.1055 89.7912C74.1586 86.7452 78.2248 91.254 75.602 88.4032C75.3156 88.0932 73.3081 88.1114 75.3507 87.6632C75.3481 87.6622 75.3456 87.6612 75.3431 87.6602C72.605 87.4978 72.1959 87.8574 70.0374 86.8508ZM52.1212 83.6246C48.7222 83.6352 50.6258 84.8348 53.2159 85.6335C55.7925 86.4328 59.012 86.7016 57.8398 86.087C57.6143 86.0568 51.1904 84.6583 52.1212 83.6246ZM102.278 89.0345C99.4715 88.7859 99.1671 90.1043 99.4173 90.61C99.6683 91.1168 101.669 90.7748 101.911 90.8682C102.712 91.1791 100.962 91.2185 102.001 91.6405C102.356 91.7831 107.259 92.5987 107.488 92.552C108.775 92.3135 106.997 91.0872 107.367 90.9841C108.58 90.6468 110.11 91.3206 110.499 90.754C111.306 89.5447 108.269 90.6771 107.759 90.6642C106.243 90.6249 106.431 89.9275 105.306 89.7093C104.182 89.4907 103.442 89.6817 102.441 89.5594C102.109 89.5186 102.422 89.0494 102.278 89.0345ZM92.707 91.1081C95.7461 90.3619 88.668 88.6096 87.8027 88.7452C85.2264 89.1949 91.2347 91.4755 92.707 91.1081ZM59.8434 44.1273C58.7658 46.5874 63.036 42.3486 64.3505 41.2012C63.9161 41.0691 60.1834 43.1586 59.8434 44.1273ZM47.6236 63.4939C49.2877 61.8067 45.7448 62.4853 44.3231 64.1012C44.3358 65.7264 44.8994 64.7184 45.862 63.8385C46.8415 62.9707 46.3921 64.8521 47.6236 63.4939ZM133.01 92.2493C132.457 92.1442 123.679 92.4503 128.661 93.1673C129.049 93.2026 135.128 93.5545 135.617 93.4875C136.603 93.2652 134.396 92.4153 133.01 92.2493ZM43.64 72.3149C42.7802 71.4133 43.1998 70.2583 41.8335 70.9329C41.8331 70.9344 41.8327 70.9359 41.8323 70.9373C42.4525 68.0032 44.7763 69.1182 44.9663 68.617C46.0263 66.8204 43.5278 67.5155 43.9767 66.0414C42.3951 69.1205 41.9905 67.7072 40.9119 70.1893C40.6174 70.7874 41.0204 73.1869 41.5343 73.3832C41.9532 73.6037 43.1025 72.6054 43.64 72.3149ZM145.105 93.0316C142.174 92.5347 139.497 93.8928 143.494 94.3665C145.51 94.588 146.82 93.3256 145.105 93.0316ZM199.546 14.2485C199.071 13.8851 198.581 13.5246 198.069 13.1679C199.134 12.983 200.211 12.7946 201.282 12.6058C200.444 12.8032 199.58 13.0003 198.745 13.1945C200.771 13.1677 201.781 13.8156 199.551 14.248C199.549 14.2482 199.547 14.2483 199.546 14.2485ZM270.912 12.5638C271.736 13.0619 273.66 12.1347 273.448 12.01C271.883 11.073 269.747 11.8695 270.912 12.5638ZM65.021 44.0226C67.4177 42.2767 64.6216 41.9596 63.0695 43.2113C64.1542 42.7204 63.7254 45.0615 65.021 44.0226ZM245.999 10.1919C245.706 10.0269 245.407 9.86327 245.07 9.70161C246.12 9.9177 246.294 10.0779 245.999 10.1919ZM131.761 90.4166C131.219 90.214 127.405 89.8184 126.875 89.9739C125.787 90.2928 128.671 91.5518 130.472 91.3614C130.643 91.3374 132.277 90.6085 131.753 90.4159C131.755 90.4162 131.758 90.4164 131.761 90.4166ZM204.175 14.6083C204.168 14.5903 204.17 14.5723 204.179 14.5551C204.177 14.5727 204.179 14.5905 204.175 14.6083ZM337.36 44.0187C337.358 43.9823 337.365 43.9511 337.382 43.9279C337.374 43.9561 337.372 43.9897 337.36 44.0187ZM104.99 87.0653C103.877 85.1326 100.898 85.9038 103.127 86.9837C103.254 87.0414 104.691 87.0415 104.99 87.0653Z" fill="#E8DCCD"/>
<path d="M118.385 45.0557C118.354 44.8057 118.315 44.5635 118.268 44.3291C118.237 44.0947 118.213 43.8604 118.198 43.626C118.166 43.3447 118.159 43.0479 118.174 42.7354C118.205 42.4229 118.268 42.126 118.362 41.8447C118.471 41.5635 118.62 41.3135 118.807 41.0947C118.995 40.876 119.252 40.7197 119.58 40.626C120.08 40.4854 120.588 40.5088 121.104 40.6963C121.62 40.8682 122.104 41.0635 122.557 41.2822C122.995 41.501 123.424 41.7354 123.846 41.9854C124.268 42.2354 124.705 42.4697 125.159 42.6885C125.393 42.7979 125.627 42.915 125.862 43.04C126.096 43.165 126.299 43.3135 126.471 43.4854C126.659 43.6416 126.807 43.8369 126.916 44.0713C127.041 44.29 127.112 44.5479 127.127 44.8447C127.143 45.1572 127.088 45.4619 126.963 45.7588C126.854 46.0557 126.737 46.3447 126.612 46.626C125.909 48.1885 125.01 49.6494 123.916 51.0088C123.51 51.5088 123.049 51.9775 122.534 52.415C122.034 52.8369 121.463 53.1104 120.823 53.2354C120.963 54.126 121.12 55.001 121.291 55.8604C121.479 56.7197 121.69 57.5869 121.924 58.4619C122.002 58.7588 121.963 59.001 121.807 59.1885C121.666 59.3916 121.487 59.5244 121.268 59.5869C121.049 59.6494 120.823 59.6338 120.588 59.54C120.354 59.4463 120.198 59.251 120.12 58.9541C119.62 57.0479 119.237 55.1416 118.971 53.2354C118.705 51.3135 118.534 49.3604 118.455 47.376C118.44 47.1104 118.432 46.8525 118.432 46.6025C118.432 46.3525 118.424 46.0947 118.409 45.8291C118.409 45.7197 118.409 45.6182 118.409 45.5244C118.409 45.415 118.401 45.3135 118.385 45.2197V45.0557ZM120.049 42.7822C120.034 43.126 120.049 43.4932 120.096 43.8838C120.112 44.0557 120.12 44.165 120.12 44.2119C120.135 44.2588 120.143 44.2979 120.143 44.3291L120.213 44.751C120.26 45.2197 120.284 45.6963 120.284 46.1807C120.315 46.8682 120.338 47.5557 120.354 48.2432C120.385 48.915 120.432 49.5947 120.495 50.2822C120.51 50.4697 120.518 50.6572 120.518 50.8447C120.534 51.0322 120.557 51.2119 120.588 51.3838C120.745 51.3369 120.854 51.2979 120.916 51.2666C120.979 51.2197 121.041 51.1807 121.104 51.1494C121.198 51.0869 121.268 51.0322 121.315 50.9854C121.705 50.6729 122.034 50.3604 122.299 50.0479C122.565 49.7354 122.815 49.415 123.049 49.0869C123.565 48.3682 124.026 47.626 124.432 46.8604C124.51 46.6885 124.588 46.5322 124.666 46.3916C124.745 46.2354 124.823 46.0713 124.901 45.8994C124.932 45.8213 124.963 45.751 124.995 45.6885C125.026 45.626 125.057 45.5557 125.088 45.4775C125.166 45.29 125.221 45.1338 125.252 45.0088C125.252 44.8994 125.229 44.8213 125.182 44.7744C124.963 44.6494 124.799 44.5635 124.69 44.5166C124.237 44.2979 123.799 44.0791 123.377 43.8604C122.955 43.626 122.518 43.3838 122.065 43.1338C121.846 43.0088 121.62 42.8916 121.385 42.7822C121.166 42.6729 120.932 42.5791 120.682 42.501C120.635 42.4854 120.58 42.4697 120.518 42.4541C120.471 42.4385 120.424 42.4307 120.377 42.4307C120.268 42.415 120.205 42.415 120.19 42.4307C120.174 42.4307 120.159 42.4307 120.143 42.4307C120.112 42.4775 120.088 42.5244 120.073 42.5713C120.073 42.6182 120.065 42.6572 120.049 42.6885V42.7822ZM130.277 58.3916C130.402 57.6416 130.543 56.9072 130.699 56.1885C130.871 55.4541 130.996 54.7119 131.074 53.9619C131.137 53.2275 131.145 52.5088 131.098 51.8057C131.066 51.0869 131.113 50.3604 131.238 49.626C131.27 49.376 131.41 49.1885 131.66 49.0635C131.926 48.9385 132.168 48.9072 132.387 48.9697C132.652 49.0479 132.832 49.1963 132.926 49.415C133.035 49.6338 133.074 49.8682 133.043 50.1182C132.98 50.4775 132.949 50.8447 132.949 51.2197C132.965 51.5947 132.98 51.9697 132.996 52.3447C132.996 53.0635 132.949 53.7822 132.855 54.501C132.762 55.251 132.637 55.9854 132.48 56.7041C132.34 57.4229 132.207 58.1494 132.082 58.8838C132.035 59.1338 131.887 59.3213 131.637 59.4463C131.387 59.5713 131.152 59.6025 130.934 59.54C130.668 59.4619 130.48 59.3135 130.371 59.0947C130.262 58.876 130.23 58.6416 130.277 58.3916ZM131.402 47.6104C131.293 47.5791 131.184 47.5322 131.074 47.4697C130.965 47.3916 130.887 47.2979 130.84 47.1885C130.793 47.0635 130.754 46.9541 130.723 46.8604C130.691 46.7666 130.676 46.6572 130.676 46.5322C130.676 46.3916 130.699 46.251 130.746 46.1104C130.809 45.8291 130.934 45.626 131.121 45.501C131.184 45.4072 131.27 45.3369 131.379 45.29C131.551 45.1807 131.746 45.126 131.965 45.126C132.184 45.1104 132.379 45.165 132.551 45.29C132.629 45.3525 132.707 45.4229 132.785 45.501C132.863 45.5635 132.926 45.6494 132.973 45.7588C133.004 45.8369 133.035 45.9229 133.066 46.0166C133.113 46.1104 133.129 46.2041 133.113 46.2979C133.098 46.4072 133.082 46.5088 133.066 46.6025C133.051 46.6963 133.012 46.7822 132.949 46.8604C132.871 46.9697 132.809 47.0479 132.762 47.0947C132.715 47.1416 132.637 47.2041 132.527 47.2822C132.465 47.3447 132.371 47.3916 132.246 47.4229C131.918 47.6104 131.637 47.6729 131.402 47.6104ZM138.209 64.626C138.552 64.9541 138.951 65.1807 139.404 65.3057C139.857 65.4463 140.31 65.4932 140.763 65.4463C141.216 65.3994 141.646 65.2666 142.052 65.0479C142.459 64.8291 142.795 64.5244 143.06 64.1338C143.623 63.3369 143.982 62.4541 144.138 61.4854C144.31 60.5322 144.38 59.5713 144.349 58.6025C143.599 58.7275 142.826 58.751 142.029 58.6729C141.248 58.6104 140.505 58.4463 139.802 58.1807C139.443 58.04 139.099 57.876 138.771 57.6885C138.459 57.4854 138.209 57.2041 138.021 56.8447C137.693 56.2354 137.552 55.5635 137.599 54.8291C137.63 54.126 137.748 53.4463 137.951 52.79C138.17 52.1182 138.412 51.4541 138.677 50.7979C138.818 50.4854 138.966 50.1572 139.123 49.8135C139.295 49.4541 139.513 49.1338 139.779 48.8525C140.045 48.5557 140.349 48.3291 140.693 48.1729C141.037 48.0166 141.404 47.9229 141.795 47.8916C141.732 47.6729 141.732 47.4697 141.795 47.2822C141.857 47.0791 141.99 46.915 142.193 46.79C142.396 46.665 142.63 46.6338 142.896 46.6963C143.177 46.7588 143.373 46.8994 143.482 47.1182C143.545 47.2588 143.599 47.3994 143.646 47.54C143.709 47.6807 143.763 47.8213 143.81 47.9619C144.123 48.8057 144.404 49.6572 144.654 50.5166C144.92 51.376 145.17 52.2432 145.404 53.1182C145.685 54.1494 145.896 55.1963 146.037 56.2588C146.177 57.3213 146.232 58.3994 146.201 59.4932C146.185 60.1025 146.13 60.7275 146.037 61.3682C145.959 62.0088 145.818 62.626 145.615 63.2197C145.412 63.8135 145.146 64.376 144.818 64.9072C144.49 65.4541 144.068 65.9229 143.552 66.3135C143.068 66.6885 142.529 66.9541 141.935 67.1104C141.357 67.2822 140.763 67.3525 140.154 67.3213C139.56 67.29 138.974 67.1572 138.396 66.9229C137.834 66.6885 137.334 66.3604 136.896 65.9385C136.677 65.7354 136.584 65.5088 136.615 65.2588C136.646 65.0244 136.748 64.8213 136.92 64.6494C137.076 64.4932 137.271 64.3994 137.505 64.3682C137.755 64.3369 137.99 64.4229 138.209 64.626ZM140.81 56.54C141.357 56.6807 141.92 56.7822 142.498 56.8447C143.091 56.8916 143.662 56.8525 144.209 56.7275C144.115 55.9307 143.974 55.165 143.787 54.4307C143.615 53.6963 143.42 52.9541 143.201 52.2041C143.076 51.7666 142.943 51.3369 142.802 50.915C142.677 50.4932 142.545 50.0713 142.404 49.6494C142.357 49.6807 142.302 49.7041 142.24 49.7197C142.177 49.7197 142.107 49.7275 142.029 49.7432C141.56 49.7432 141.201 49.9541 140.951 50.376C140.779 50.6416 140.638 50.9229 140.529 51.2197C140.498 51.2979 140.466 51.376 140.435 51.4541C140.404 51.5166 140.373 51.5869 140.341 51.665C140.107 52.2275 139.904 52.7744 139.732 53.3057C139.576 53.8213 139.482 54.3291 139.451 54.8291V55.251C139.466 55.3604 139.482 55.4463 139.498 55.5088C139.529 55.6494 139.545 55.7354 139.545 55.7666C139.56 55.7979 139.607 55.876 139.685 56.001C139.779 56.0791 139.865 56.1416 139.943 56.1885C140.021 56.2354 140.068 56.2666 140.084 56.2822C140.209 56.3291 140.326 56.376 140.435 56.4229C140.56 56.4697 140.685 56.5088 140.81 56.54ZM150.968 49.5322C151.265 49.126 151.616 48.7666 152.023 48.4541C152.445 48.1416 152.89 47.8994 153.359 47.7275C153.827 47.54 154.312 47.4463 154.812 47.4463C155.312 47.4307 155.812 47.5244 156.312 47.7275C156.796 47.915 157.234 48.1729 157.624 48.501C158.015 48.8135 158.32 49.2197 158.538 49.7197C158.71 50.0947 158.812 50.501 158.843 50.9385C158.874 51.376 158.757 51.7744 158.491 52.1338C158.257 52.4619 157.968 52.7119 157.624 52.8838C157.296 53.0557 156.937 53.1807 156.546 53.2588C156.171 53.3369 155.78 53.376 155.374 53.376C154.984 53.376 154.609 53.3682 154.249 53.3525C153.843 53.3369 153.437 53.3057 153.03 53.2588C152.64 53.2119 152.241 53.165 151.835 53.1182C151.96 53.8213 152.21 54.4463 152.585 54.9932C152.96 55.54 153.468 55.9541 154.109 56.2354C154.28 56.2979 154.413 56.3447 154.507 56.376C154.554 56.3916 154.593 56.4072 154.624 56.4229C154.671 56.4229 154.718 56.4229 154.765 56.4229C154.89 56.4385 154.991 56.4541 155.07 56.4697C155.163 56.4697 155.249 56.4619 155.327 56.4463C155.437 56.4307 155.507 56.4229 155.538 56.4229C155.585 56.4072 155.632 56.3916 155.679 56.376C155.851 56.3291 155.999 56.2744 156.124 56.2119C156.265 56.1494 156.429 56.0479 156.616 55.9072C156.71 55.8291 156.835 55.7119 156.991 55.5557C157.148 55.3994 157.28 55.2588 157.39 55.1338C157.546 54.915 157.734 54.7666 157.952 54.6885C158.187 54.6104 158.421 54.6416 158.655 54.7822C158.859 54.9072 158.999 55.1025 159.077 55.3682C159.171 55.6182 159.14 55.8525 158.984 56.0713C158.53 56.6807 157.991 57.2041 157.366 57.6416C156.757 58.0635 156.054 58.29 155.257 58.3213C154.616 58.3525 153.999 58.2432 153.405 57.9932C152.812 57.7275 152.288 57.376 151.835 56.9385C151.273 56.3916 150.827 55.7588 150.499 55.04C150.171 54.3213 149.991 53.5869 149.96 52.8369C149.82 52.7275 149.71 52.5947 149.632 52.4385C149.57 52.2666 149.546 52.0947 149.562 51.9229C149.593 51.751 149.655 51.5947 149.749 51.4541C149.843 51.2979 149.984 51.1963 150.171 51.1494C150.343 50.5713 150.609 50.0322 150.968 49.5322ZM156.593 50.0947C156.421 49.876 156.155 49.6807 155.796 49.5088C155.499 49.3838 155.148 49.3213 154.741 49.3213C154.351 49.3213 154.015 49.3916 153.734 49.5322C153.374 49.7041 153.054 49.9463 152.773 50.2588C152.491 50.5557 152.265 50.8916 152.093 51.2666C152.468 51.3135 152.843 51.3604 153.218 51.4072C153.593 51.4541 153.968 51.4854 154.343 51.501C154.546 51.501 154.749 51.501 154.952 51.501C155.155 51.501 155.359 51.4932 155.562 51.4775C155.624 51.4775 155.679 51.4775 155.726 51.4775C155.788 51.4619 155.851 51.4541 155.913 51.4541C156.054 51.4229 156.155 51.4072 156.218 51.4072C156.296 51.3916 156.374 51.3682 156.452 51.3369C156.515 51.3213 156.593 51.2979 156.687 51.2666C156.765 51.2354 156.812 51.2119 156.827 51.1963C156.843 51.1807 156.866 51.165 156.898 51.1494L156.968 50.8682C156.937 50.8057 156.913 50.751 156.898 50.7041C156.898 50.6416 156.882 50.5869 156.851 50.54C156.835 50.4932 156.796 50.4229 156.734 50.3291C156.687 50.2354 156.64 50.1572 156.593 50.0947ZM177.588 60.5479C177.12 60.6729 176.69 60.6885 176.299 60.5947C175.909 60.5166 175.557 60.3525 175.245 60.1025C174.948 59.8682 174.69 59.5713 174.471 59.2119C174.252 58.8682 174.073 58.4932 173.932 58.0869C173.666 57.29 173.479 56.4775 173.37 55.6494C173.276 54.8213 173.205 53.9932 173.159 53.165C173.112 52.4775 173.065 51.7979 173.018 51.126C172.971 50.4385 172.94 49.751 172.924 49.0635C172.909 48.2197 172.932 47.3057 172.995 46.3213C173.073 45.3213 173.252 44.3682 173.534 43.4619C173.83 42.54 174.26 41.7275 174.823 41.0244C175.401 40.3213 176.182 39.8369 177.166 39.5713C177.463 39.4932 177.705 39.5322 177.893 39.6885C178.096 39.8291 178.229 40.0166 178.291 40.251C178.354 40.4697 178.338 40.6963 178.245 40.9307C178.151 41.1494 177.963 41.2979 177.682 41.376C177.229 41.501 176.846 41.6963 176.534 41.9619C176.237 42.2119 175.979 42.5557 175.76 42.9932C175.37 43.7432 175.112 44.5635 174.987 45.4541C174.877 46.3447 174.815 47.2275 174.799 48.1025C174.784 48.8213 174.799 49.5322 174.846 50.2354C174.893 50.9385 174.94 51.6494 174.987 52.3682C175.018 53.1963 175.065 53.9775 175.127 54.7119C175.19 55.4463 175.33 56.2041 175.549 56.9854C175.58 57.0947 175.612 57.1963 175.643 57.29C175.674 57.3838 175.705 57.4854 175.737 57.5947C175.784 57.7354 175.807 57.8135 175.807 57.8291C175.823 57.8291 175.83 57.8369 175.83 57.8525C175.877 57.9619 175.916 58.0479 175.948 58.1104C175.995 58.1729 176.041 58.2354 176.088 58.2979C176.182 58.4385 176.229 58.5088 176.229 58.5088L176.44 58.7197C176.58 58.7666 176.659 58.79 176.674 58.79C176.69 58.8057 176.705 58.8135 176.721 58.8135C176.893 58.7979 176.987 58.7822 177.002 58.7666C177.018 58.7666 177.041 58.7666 177.073 58.7666C177.37 58.6885 177.612 58.7197 177.799 58.8604C178.002 59.0166 178.135 59.2041 178.198 59.4229C178.26 59.6416 178.245 59.8604 178.151 60.0791C178.057 60.3135 177.87 60.4697 177.588 60.5479ZM190.395 45.0088C190.348 45.6963 190.262 46.3838 190.137 47.0713C190.027 47.7432 189.988 48.4229 190.02 49.1104C190.051 49.8604 190.082 50.6104 190.113 51.3604C190.145 52.1104 190.152 52.8682 190.137 53.6338C190.105 54.4307 190.082 55.2275 190.066 56.0244C190.051 56.8213 190.051 57.6182 190.066 58.415C190.066 58.7119 189.965 58.9307 189.762 59.0713C189.574 59.2275 189.363 59.3057 189.129 59.3057C188.895 59.3057 188.676 59.2275 188.473 59.0713C188.285 58.9307 188.191 58.7119 188.191 58.415C188.176 57.29 188.191 56.1729 188.238 55.0635C188.285 53.9541 188.301 52.8369 188.285 51.7119C187.191 52.0244 186.035 52.0791 184.816 51.876C184.535 51.8291 184.238 51.7822 183.926 51.7354C183.613 51.6729 183.309 51.5947 183.012 51.501C182.715 51.4072 182.434 51.2822 182.168 51.126C181.902 50.9697 181.676 50.7666 181.488 50.5166C181.316 50.2666 181.199 49.9854 181.137 49.6729C181.09 49.3604 181.082 49.0479 181.113 48.7354C181.16 48.4072 181.223 48.0869 181.301 47.7744C181.395 47.4619 181.496 47.1729 181.605 46.9072C181.902 46.1729 182.262 45.4775 182.684 44.8213C183.105 44.165 183.59 43.5635 184.137 43.0166C184.543 42.6104 184.988 42.251 185.473 41.9385C185.957 41.626 186.473 41.3838 187.02 41.2119C187.379 41.0869 187.754 41.0166 188.145 41.001C188.535 40.9854 188.895 41.0791 189.223 41.2822C189.535 41.4697 189.777 41.7119 189.949 42.0088C190.121 42.29 190.238 42.6025 190.301 42.9463C190.379 43.29 190.418 43.6416 190.418 44.001C190.418 44.3447 190.41 44.6807 190.395 45.0088ZM188.566 44.4932C188.566 44.3369 188.566 44.1807 188.566 44.0244C188.566 43.8682 188.559 43.7119 188.543 43.5557C188.527 43.5557 188.512 43.5166 188.496 43.4385C188.496 43.3447 188.488 43.2822 188.473 43.251C188.41 43.0635 188.363 42.9619 188.332 42.9463L188.004 42.876C187.504 42.9854 187.059 43.1572 186.668 43.3916C186.277 43.626 185.91 43.9072 185.566 44.2354C184.676 45.1104 183.98 46.1025 183.48 47.2119C183.371 47.4463 183.27 47.6885 183.176 47.9385C183.098 48.1885 183.043 48.4385 183.012 48.6885C183.012 48.7979 183.004 48.9072 182.988 49.0166C182.988 49.1104 182.996 49.2041 183.012 49.2979L183.199 49.5557C183.355 49.6182 183.457 49.6572 183.504 49.6729C183.551 49.6885 183.598 49.7041 183.645 49.7197C184.207 49.8604 184.77 49.9775 185.332 50.0713C186.363 50.2432 187.316 50.1494 188.191 49.79C188.176 49.5557 188.16 49.3213 188.145 49.0869C188.145 48.8369 188.152 48.5947 188.168 48.3604C188.199 48.0791 188.23 47.7979 188.262 47.5166C188.293 47.2354 188.324 46.9619 188.355 46.6963C188.402 46.3369 188.441 45.9775 188.473 45.6182C188.52 45.2432 188.551 44.8682 188.566 44.4932ZM205.849 56.7979C205.912 57.0166 205.88 57.2588 205.755 57.5244C205.646 57.7744 205.459 57.9229 205.193 57.9697C203.552 58.1885 201.896 58.2432 200.224 58.1338C198.552 58.0244 196.912 57.7588 195.302 57.3369C195.084 57.29 194.92 57.1963 194.81 57.0557C194.716 56.915 194.662 56.7588 194.646 56.5869C194.63 56.415 194.654 56.2432 194.716 56.0713C194.795 55.8994 194.912 55.751 195.068 55.626C195.896 55.0322 196.701 54.415 197.482 53.7744C198.279 53.1338 199.045 52.4541 199.779 51.7354C200.107 51.4229 200.427 51.0947 200.74 50.751C201.052 50.4072 201.341 50.0557 201.607 49.6963C201.888 49.3369 202.17 48.9541 202.451 48.5479C202.732 48.1416 202.935 47.7119 203.06 47.2588C203.154 46.915 203.185 46.5791 203.154 46.251C203.123 45.9072 203.037 45.5869 202.896 45.29C202.755 44.9932 202.552 44.7354 202.287 44.5166C202.037 44.2979 201.732 44.1338 201.373 44.0244C200.966 43.8994 200.56 43.8369 200.154 43.8369C199.748 43.8369 199.334 43.8838 198.912 43.9775C198.505 44.0557 198.099 44.165 197.693 44.3057C197.302 44.4307 196.92 44.5635 196.545 44.7041C196.263 44.7979 196.021 44.7822 195.818 44.6572C195.63 44.5166 195.505 44.3369 195.443 44.1182C195.38 43.8838 195.396 43.6494 195.49 43.415C195.584 43.165 195.771 42.9932 196.052 42.8994C196.552 42.7275 197.06 42.5635 197.576 42.4072C198.107 42.251 198.638 42.1338 199.17 42.0557C199.701 41.9775 200.232 41.9619 200.763 42.0088C201.295 42.0557 201.818 42.1885 202.334 42.4072C203.271 42.8135 203.99 43.4541 204.49 44.3291C204.99 45.1885 205.162 46.1338 205.005 47.165C204.912 47.7588 204.724 48.3135 204.443 48.8291C204.162 49.3291 203.841 49.8135 203.482 50.2822C202.857 51.1729 202.177 51.9854 201.443 52.7197C200.849 53.3135 200.24 53.876 199.615 54.4072C199.005 54.9385 198.373 55.4541 197.716 55.9541C198.873 56.1729 200.037 56.3057 201.209 56.3525C202.396 56.3838 203.56 56.3213 204.701 56.165C204.966 56.1338 205.201 56.165 205.404 56.2588C205.623 56.3525 205.771 56.5322 205.849 56.7979ZM218.679 50.751C218.976 50.7666 219.202 50.876 219.359 51.0791C219.515 51.2666 219.593 51.4775 219.593 51.7119C219.593 51.9463 219.515 52.1572 219.359 52.3447C219.202 52.5322 218.976 52.626 218.679 52.626C218.007 52.6104 217.327 52.5791 216.64 52.5322C215.968 52.4854 215.288 52.4541 214.601 52.4385C213.929 52.4072 213.249 52.4072 212.562 52.4385C211.89 52.4697 211.218 52.54 210.546 52.6494C210.28 52.6963 210.038 52.6729 209.82 52.5791C209.616 52.4697 209.476 52.2822 209.398 52.0166C209.32 51.7822 209.343 51.54 209.468 51.29C209.593 51.04 209.788 50.8994 210.054 50.8682C210.773 50.7432 211.491 50.665 212.21 50.6338C212.929 50.5869 213.648 50.5713 214.366 50.5869C215.085 50.6025 215.804 50.6338 216.523 50.6807C217.241 50.7119 217.96 50.7354 218.679 50.751ZM224.805 58.5322C224.54 58.4541 224.352 58.3057 224.243 58.0869C224.149 57.8682 224.126 57.6338 224.173 57.3838C224.407 56.1182 224.571 54.8525 224.665 53.5869C224.759 52.3213 224.813 51.0557 224.829 49.79C224.845 48.5088 224.837 47.2275 224.805 45.9463C224.79 44.665 224.782 43.3916 224.782 42.126C224.782 41.8291 224.876 41.6104 225.063 41.4697C225.266 41.3135 225.485 41.2354 225.72 41.2354C225.954 41.2354 226.165 41.3135 226.352 41.4697C226.555 41.6104 226.657 41.8291 226.657 42.126C226.657 43.4385 226.665 44.7588 226.68 46.0869C226.712 47.3994 226.712 48.7119 226.68 50.0244C226.665 51.3369 226.602 52.6494 226.493 53.9619C226.384 55.2744 226.204 56.5791 225.954 57.876C225.907 58.126 225.759 58.3135 225.509 58.4385C225.274 58.5635 225.04 58.5947 224.805 58.5322ZM243.073 56.7979C243.135 57.0166 243.104 57.2588 242.979 57.5244C242.87 57.7744 242.682 57.9229 242.416 57.9697C240.776 58.1885 239.12 58.2432 237.448 58.1338C235.776 58.0244 234.135 57.7588 232.526 57.3369C232.307 57.29 232.143 57.1963 232.034 57.0557C231.94 56.915 231.885 56.7588 231.87 56.5869C231.854 56.415 231.877 56.2432 231.94 56.0713C232.018 55.8994 232.135 55.751 232.291 55.626C233.12 55.0322 233.924 54.415 234.705 53.7744C235.502 53.1338 236.268 52.4541 237.002 51.7354C237.33 51.4229 237.651 51.0947 237.963 50.751C238.276 50.4072 238.565 50.0557 238.83 49.6963C239.112 49.3369 239.393 48.9541 239.674 48.5479C239.955 48.1416 240.159 47.7119 240.284 47.2588C240.377 46.915 240.409 46.5791 240.377 46.251C240.346 45.9072 240.26 45.5869 240.12 45.29C239.979 44.9932 239.776 44.7354 239.51 44.5166C239.26 44.2979 238.955 44.1338 238.596 44.0244C238.19 43.8994 237.784 43.8369 237.377 43.8369C236.971 43.8369 236.557 43.8838 236.135 43.9775C235.729 44.0557 235.323 44.165 234.916 44.3057C234.526 44.4307 234.143 44.5635 233.768 44.7041C233.487 44.7979 233.245 44.7822 233.041 44.6572C232.854 44.5166 232.729 44.3369 232.666 44.1182C232.604 43.8838 232.62 43.6494 232.713 43.415C232.807 43.165 232.995 42.9932 233.276 42.8994C233.776 42.7275 234.284 42.5635 234.799 42.4072C235.33 42.251 235.862 42.1338 236.393 42.0557C236.924 41.9775 237.455 41.9619 237.987 42.0088C238.518 42.0557 239.041 42.1885 239.557 42.4072C240.495 42.8135 241.213 43.4541 241.713 44.3291C242.213 45.1885 242.385 46.1338 242.229 47.165C242.135 47.7588 241.948 48.3135 241.666 48.8291C241.385 49.3291 241.065 49.8135 240.705 50.2822C240.08 51.1729 239.401 51.9854 238.666 52.7197C238.073 53.3135 237.463 53.876 236.838 54.4072C236.229 54.9385 235.596 55.4541 234.94 55.9541C236.096 56.1729 237.26 56.3057 238.432 56.3525C239.62 56.3838 240.784 56.3213 241.924 56.165C242.19 56.1338 242.424 56.165 242.627 56.2588C242.846 56.3525 242.995 56.5322 243.073 56.7979ZM253.629 59.3291C253.191 59.4385 252.73 59.4932 252.246 59.4932C251.777 59.5088 251.309 59.4697 250.84 59.376C250.387 59.2822 249.949 59.126 249.527 58.9072C249.105 58.6885 248.746 58.3994 248.449 58.04C248.09 57.6182 247.824 57.1729 247.652 56.7041C247.496 56.2197 247.418 55.7354 247.418 55.251C247.418 54.751 247.48 54.251 247.605 53.751C247.746 53.2354 247.926 52.7432 248.145 52.2744C248.457 51.6025 248.816 50.9619 249.223 50.3525C249.629 49.7432 250.059 49.1416 250.512 48.5479C250.199 48.3291 249.895 48.1104 249.598 47.8916C249.301 47.6729 249.012 47.4307 248.73 47.165C248.402 46.8525 248.09 46.501 247.793 46.1104C247.496 45.7041 247.332 45.251 247.301 44.751C247.285 44.3135 247.387 43.9463 247.605 43.6494C247.824 43.3525 248.098 43.1025 248.426 42.8994C248.77 42.6963 249.137 42.54 249.527 42.4307C249.934 42.3057 250.309 42.2119 250.652 42.1494C251.324 42.0244 251.988 41.9385 252.645 41.8916C253.316 41.8447 253.988 41.8057 254.66 41.7744C254.707 41.6025 254.746 41.4307 254.777 41.2588C254.824 41.0869 254.871 40.915 254.918 40.7432C254.996 40.4619 255.145 40.2744 255.363 40.1807C255.598 40.0869 255.824 40.0713 256.043 40.1338C256.277 40.1963 256.465 40.3291 256.605 40.5322C256.762 40.7197 256.801 40.9541 256.723 41.2354L256.582 41.7979C256.77 41.8916 256.895 42.04 256.957 42.2432C257.035 42.4307 257.051 42.626 257.004 42.8291C256.973 43.0166 256.879 43.1885 256.723 43.3447C256.582 43.501 256.387 43.5791 256.137 43.5791C255.996 43.9541 255.848 44.29 255.691 44.5869C255.395 45.2744 255.02 45.915 254.566 46.5088C254.129 47.0869 253.668 47.665 253.184 48.2432C253.277 48.29 253.363 48.3525 253.441 48.4307C253.91 48.8369 254.316 49.2979 254.66 49.8135C255.02 50.3135 255.348 50.8369 255.645 51.3838C255.957 51.9463 256.223 52.54 256.441 53.165C256.676 53.79 256.809 54.4307 256.84 55.0869C256.887 56.1182 256.613 57.0244 256.02 57.8057C255.441 58.5713 254.645 59.0791 253.629 59.3291ZM249.457 45.2197C249.629 45.4229 249.801 45.6104 249.973 45.7822C250.16 45.9385 250.363 46.1025 250.582 46.2744C250.957 46.5713 251.324 46.8447 251.684 47.0947C251.73 47.0479 251.777 47.001 251.824 46.9541C251.871 46.9072 251.91 46.8525 251.941 46.79C252.285 46.3838 252.621 45.9697 252.949 45.5479C253.293 45.126 253.59 44.6729 253.84 44.1885C253.871 44.1104 253.91 44.0244 253.957 43.9307C254.004 43.8369 254.043 43.751 254.074 43.6729C253.449 43.6885 252.832 43.7354 252.223 43.8135C251.848 43.8447 251.457 43.8994 251.051 43.9775C250.645 44.0557 250.246 44.165 249.855 44.3057C249.715 44.3682 249.621 44.4072 249.574 44.4229C249.543 44.4229 249.512 44.4385 249.48 44.4697C249.355 44.5479 249.285 44.5869 249.27 44.5869L249.199 44.8213C249.23 44.8994 249.27 44.9775 249.316 45.0557C249.363 45.1182 249.41 45.1729 249.457 45.2197ZM250.066 57.0322C250.707 57.4541 251.41 57.6572 252.176 57.6416C252.535 57.6416 252.887 57.6025 253.23 57.5244C253.574 57.4307 253.902 57.2744 254.215 57.0557C254.293 56.9775 254.379 56.8916 254.473 56.7979C254.582 56.6885 254.668 56.5635 254.73 56.4229C254.84 56.1729 254.902 55.9932 254.918 55.8838C254.965 55.6807 254.988 55.4619 254.988 55.2275C254.957 54.6338 254.824 54.0557 254.59 53.4932C254.355 52.9307 254.09 52.3994 253.793 51.8994C253.652 51.6494 253.504 51.3916 253.348 51.126C253.191 50.8604 253.004 50.6182 252.785 50.3994C252.66 50.2744 252.535 50.1494 252.41 50.0244C252.285 49.8994 252.152 49.7822 252.012 49.6729C251.98 49.7197 251.941 49.7666 251.895 49.8135C251.848 49.8604 251.809 49.9072 251.777 49.9541C251.496 50.3291 251.199 50.7354 250.887 51.1729C250.59 51.5947 250.316 52.0322 250.066 52.4854C249.816 52.9385 249.613 53.4072 249.457 53.8916C249.301 54.3604 249.23 54.8291 249.246 55.2979C249.262 55.626 249.34 55.9541 249.48 56.2822C249.637 56.6104 249.832 56.8604 250.066 57.0322ZM261.162 39.5713C261.63 39.4463 262.052 39.4307 262.427 39.5244C262.818 39.6025 263.162 39.7666 263.459 40.0166C263.771 40.251 264.037 40.5479 264.255 40.9072C264.49 41.2666 264.677 41.6416 264.818 42.0322C265.084 42.8291 265.263 43.6416 265.357 44.4697C265.451 45.2979 265.529 46.126 265.591 46.9541C265.623 47.6416 265.662 48.3291 265.709 49.0166C265.755 49.6885 265.787 50.3682 265.802 51.0557C265.818 51.8994 265.787 52.8213 265.709 53.8213C265.646 54.8057 265.474 55.7588 265.193 56.6807C264.912 57.5869 264.482 58.3916 263.904 59.0947C263.326 59.8135 262.545 60.2979 261.56 60.5479C261.279 60.626 261.037 60.5869 260.834 60.4307C260.63 60.29 260.498 60.1104 260.435 59.8916C260.373 59.6729 260.388 59.4463 260.482 59.2119C260.576 58.9932 260.771 58.8447 261.068 58.7666C261.521 58.6416 261.896 58.4463 262.193 58.1807C262.49 57.915 262.755 57.5635 262.99 57.126C263.38 56.376 263.63 55.5557 263.74 54.665C263.865 53.7744 263.935 52.8916 263.951 52.0166C263.966 51.2979 263.943 50.5869 263.88 49.8838C263.834 49.1807 263.795 48.4697 263.763 47.751C263.716 46.9229 263.662 46.1416 263.599 45.4072C263.552 44.6729 263.42 43.915 263.201 43.1338C263.17 43.04 263.138 42.9463 263.107 42.8525C263.076 42.7432 263.045 42.6416 263.013 42.5479C262.951 42.3916 262.912 42.3057 262.896 42.29C262.896 42.2588 262.888 42.2354 262.873 42.2197C262.826 42.0635 262.755 41.9307 262.662 41.8213L262.521 41.6104C262.396 41.4854 262.326 41.4229 262.31 41.4229C262.17 41.3604 262.084 41.3291 262.052 41.3291C262.037 41.3135 262.021 41.3057 262.005 41.3057C261.834 41.3213 261.716 41.3447 261.654 41.376C261.373 41.4541 261.13 41.4229 260.927 41.2822C260.74 41.126 260.615 40.9385 260.552 40.7197C260.49 40.4854 260.505 40.2588 260.599 40.04C260.693 39.8057 260.88 39.6494 261.162 39.5713Z" fill="#4A2F2C"/>
</svg>
