<svg width="40" height="40" viewBox="0 0 40 40" fill="none" xmlns="http://www.w3.org/2000/svg">
<path d="M17.3599 30.9501C17.2633 31.14 17.0827 31.67 17.0584 31.703L17.0608 31.707C17.0869 31.7509 17.1091 31.7883 17.1651 31.8286C17.3136 31.9135 17.4498 31.9659 18.1068 31.9828C18.7197 31.991 19.8666 32.0029 20.4647 31.9994C21.1108 31.9956 21.5663 31.8214 22.0764 31.7764L22.0963 31.7746C22.3702 31.7506 22.9275 31.7018 23.7895 31.3689C24.3078 31.1687 24.9456 30.8729 25.3179 30.6711C25.8139 30.4022 25.9863 30.3032 26.0896 30.2489C26.301 30.1378 26.5909 30.0201 26.8344 29.8593C27.0549 29.7136 27.253 29.548 28.1337 28.6627C28.3819 28.4133 28.513 28.2917 28.6287 28.1762C28.8564 27.9487 29.1434 27.6202 29.501 27.2356C30.0223 26.6751 30.4688 26.2737 30.5738 26.0892C30.8224 25.6524 30.9639 24.7964 31.1586 24.4682C31.2725 24.2763 31.4905 23.9078 31.6214 23.3174C31.7745 22.6265 31.8366 22.0519 31.9055 21.666C31.9741 21.2809 32.051 20.7545 31.9548 19.8422C31.8924 19.2506 31.7698 18.4163 31.6715 17.8706C31.5731 17.3249 31.5154 17.07 31.4333 16.8764C31.1749 16.2669 31.053 15.9215 30.9696 15.6485C30.8757 15.3406 30.6561 14.7586 30.2638 14.0212C29.8695 13.2801 29.5792 12.7992 29.4484 12.6013C29.3669 12.4779 29.1864 12.218 28.8778 11.8188C28.5861 11.4415 28.304 11.0421 27.9245 10.7604C27.355 10.3375 27.0188 10.1046 26.3126 9.77169C25.8626 9.55947 25.0362 9.19636 24.616 8.9806C24.0082 8.66848 23.5737 8.51414 23.1217 8.40555C22.3356 8.2167 22.0166 8.10839 21.6571 8.04933C21.4736 8.0192 20.8998 7.95949 20.0206 8.04153C19.2599 8.11252 18.8253 8.15907 18.6509 8.1797C18.1645 8.23725 17.5432 8.39599 17.0701 8.47279C16.8203 8.51336 15.9335 8.59978 15.2219 8.98566C14.9004 9.15998 14.4685 9.32596 13.975 9.64523C13.3547 10.0465 12.9743 10.3168 12.9 10.4205C12.8159 10.538 12.4576 10.8352 12.101 11.0451C11.7902 11.2281 11.379 11.4336 10.8444 11.9091C10.5531 12.1683 10.1648 12.6445 9.80578 13.3093C9.64288 13.611 9.62164 13.7412 9.56232 13.8302C9.36381 14.1283 8.92097 15.0369 8.72609 15.5385L8.72507 15.5411C8.61317 15.8291 8.36971 16.4556 8.17154 17.3821C8.07119 17.8512 8.00766 18.3234 8.00068 19.1563C7.99369 19.9892 8.04181 21.1478 8.09409 21.8587C8.14637 22.5696 8.19626 22.8264 8.24625 23.007C8.32564 23.2938 8.41456 23.583 8.68166 24.0053C9.08812 24.6479 9.35941 25.0638 9.40854 25.1863C9.47733 25.3578 9.7618 25.9321 10.23 26.651C10.6323 27.2687 10.8518 27.551 11.2529 27.9464C11.5426 28.2319 12.0124 28.6056 12.667 29.146C13.0373 29.4518 13.4539 29.851 13.7959 30.0869L13.9038 30.1614C14.6117 30.6496 14.8487 30.8131 15.0413 30.9254C15.081 30.9485 15.1424 30.9698 15.1553 30.8006C15.1941 30.2896 15.2315 29.8376 15.2886 29.2014C15.3361 28.6719 15.4074 27.7464 15.4526 27.2588C15.5023 26.7218 15.3585 26.1514 15.6454 25.3687C15.8199 24.8922 15.9491 24.5863 15.9826 24.3935C16.0457 24.0295 16.1603 23.5081 16.2915 23.019C16.4946 22.2615 16.6755 21.4741 16.5614 21.151C16.4548 20.8489 16.3478 20.6195 16.3851 19.7192C16.3969 19.4353 16.5381 18.9447 16.7098 18.3043C16.825 17.8744 16.8902 17.6441 17.0643 17.4342C17.4337 16.989 17.5797 16.745 17.9943 16.7035C18.4699 16.656 19.1186 16.6112 19.6048 16.8254C19.8987 16.9548 20.2985 17.1744 20.528 17.5818C20.7084 17.9021 20.9444 18.3343 20.8162 19.5038C20.7312 20.2785 20.7191 20.6975 20.5604 20.8996C20.2872 21.2471 19.9978 21.6482 19.8899 22.7529C19.8555 23.1051 19.8408 23.3944 19.9365 23.679C20.0698 24.0752 20.1581 24.2932 20.5726 24.4843C20.7082 24.5469 21.0325 24.5729 21.4813 24.5242C21.769 24.4931 22.2724 24.4077 22.8583 24.1517C23.1947 24.0048 23.3855 23.9118 23.4967 23.8011C23.6812 23.6175 23.8427 23.3926 24.0152 22.7342C24.2068 22.0029 24.3521 21.8755 24.5978 21.4187C24.8423 20.9639 25.1269 20.5908 25.1414 20.0047C25.154 19.4968 25.1339 19.0058 25.0145 18.5926C24.8743 18.1072 24.7732 17.8062 24.7329 17.6778C24.6161 17.3063 24.609 17.0891 24.3477 16.6446L24.3395 16.6308C23.9778 16.0155 23.7371 15.6062 23.2602 15.4348C22.6921 15.2306 22.4445 15.0927 21.8915 14.8109C21.7056 14.7161 21.2663 14.5496 20.5823 14.4952C20.0516 14.4529 19.5926 14.4437 19.1928 14.6212C18.4277 14.9609 18.0562 15.2967 17.4462 15.529C16.9432 15.7206 16.659 15.7558 16.28 16.2375C15.9913 16.6044 15.6462 17.1303 15.5114 17.7607C15.4497 18.0493 15.3056 18.5309 15.1839 19.0923C15.0846 19.5509 14.9879 20.0102 15.0403 20.3643C15.0929 20.7192 15.1598 21.0776 15.2966 21.332C15.4189 21.5594 16.0455 21.9193 15.9796 22.4444C15.9452 22.7183 15.7819 23.2638 15.4314 23.9254C15.1188 24.5156 14.9154 24.7893 14.8121 24.7717C14.7536 24.7617 14.6795 24.7545 14.5955 24.7071C14.1928 24.4801 13.8901 24.2693 13.5322 23.7692C13.3609 23.5298 13.1281 23.1231 12.8615 22.4109C12.7092 22.0044 12.5451 21.5042 12.4496 21.1598C12.354 20.8154 12.3279 20.6322 12.3193 20.2516C12.3107 19.871 12.3204 19.3098 12.3242 18.9292C12.3299 18.3542 12.4582 17.6889 12.6247 17.0174C12.7194 16.6352 12.8936 16.1372 13.0797 15.6526C13.1661 15.4276 13.2991 15.0459 13.636 14.6016C14.0142 14.1028 14.2899 13.7964 14.4082 13.7079C14.6101 13.5569 15.2616 13.0773 15.9611 12.7258L15.9784 12.7171C16.638 12.3857 16.8766 12.2657 17.6603 11.9744C18.0076 11.8453 18.5585 11.6853 19.557 11.6459C20.1576 11.6222 20.9405 11.6289 21.3603 11.6528C21.8367 11.6798 22.0486 11.8338 22.4461 11.8985C22.6005 11.9236 23.1637 12.1669 23.914 12.5296C24.2413 12.6878 24.6847 12.9093 25.2726 13.2013C25.5335 13.3308 25.6631 13.3824 25.7962 13.511C26.1852 13.8867 26.4745 14.4015 26.6468 14.6232C26.8165 14.8416 27.2558 15.2737 27.4476 15.7403C27.6249 16.1714 27.9093 16.8451 28.0268 17.1364C28.1234 17.3758 28.3113 17.8589 28.3759 18.6467C28.4124 19.0925 28.4141 19.6317 28.3996 19.9574C28.3803 20.3928 28.3208 20.6003 28.295 20.7853C28.2498 21.1085 28.3268 21.5339 27.9376 22.2847C27.5701 22.9939 27.3226 23.4842 27.2644 23.6379C27.2173 23.7623 26.952 24.1509 26.5235 24.6708C26.2622 24.9878 26.0474 25.625 25.7962 25.8482C24.5 27 26 26 24.3477 26.9268C23.5934 27.3498 22.7578 27.257 22.5 27.2588C21.989 27.2624 21.5628 26.9951 21.2362 26.9268C20.342 26.7397 20.0318 26.5393 19.6342 26.3393C19.4348 26.239 19.1388 25.8187 19.0143 25.974C18.9738 26.0246 18.983 26.1172 18.948 26.2325C18.8551 26.5377 18.7205 26.7253 18.5477 27.2409C18.426 27.6036 18.1939 28.2598 18.078 28.7705C17.8858 29.6174 17.807 29.9975 17.7617 30.079C17.6436 30.2916 17.5004 30.6739 17.3599 30.9501Z" fill="#F6F3EE" stroke="#F6F3EE" stroke-width="1.5" stroke-linecap="round"/>
</svg>
