<svg width="258" height="242" viewBox="0 0 258 242" fill="none" xmlns="http://www.w3.org/2000/svg">
<path d="M137.685 48.0221C137.685 47.914 137.685 41.811 137.603 32.2527C137.521 28.7416 137.357 27.9502 137.262 26.5526C137.167 25.155 137.147 23.1752 136.792 19.859" stroke="#F4D77A" stroke-width="5.25" stroke-linecap="round"/>
<path d="M110.16 52.4051C109.864 50.5926 106.286 37.1702 99.4155 23.1529C92.5892 12.6547 91.3879 9.5975 90.9138 7.46165C90.7007 6.30598 90.5437 5.00452 90.3818 2.62512" stroke="#F4D77A" stroke-width="5.25" stroke-linecap="round"/>
<path d="M89.2171 68.9003C88.1679 68.2487 83.3474 65.5103 77.3283 60.7314C70.8496 53.2296 68.5322 47.768 66.8415 41.685C66.2341 39.3054 66.1351 38.3619 66.0332 37.3899" stroke="#F4D77A" stroke-width="5.25" stroke-linecap="round"/>
<path d="M59.7553 84.5273C57.5777 84.6588 48.0762 82.9789 38.3361 78.3608C33.0649 73.8944 25.6857 66.1888 21.6265 62.2112C20.7648 61.4186 19.6887 60.4956 18.5801 59.5446" stroke="#F4D77A" stroke-width="5.25" stroke-linecap="round"/>
<path d="M48.6621 120.915C48.6345 120.915 48.607 120.915 44.8271 120.915C41.0473 120.915 33.5159 120.915 28.7009 120.8C23.8858 120.685 22.0152 120.456 20.0879 120.219" stroke="#F4D77A" stroke-width="5.25" stroke-linecap="round"/>
<path d="M49.8499 155.019C42.6338 155.168 25.8906 155.943 15.5617 160.316C12.5264 161.782 9.60624 163.344 7.49862 164.366C5.39101 165.388 4.18441 165.823 2.62598 166.442" stroke="#F4D77A" stroke-width="5.25" stroke-linecap="round"/>
<path d="M69.8804 181.646C68.8239 182.282 65.4592 185.273 51.2928 195.604C47.1473 198.874 45.6137 200.659 44.5524 202.179C43.999 202.896 43.4156 203.503 42.5703 204.258" stroke="#F4D77A" stroke-width="5.25" stroke-linecap="round"/>
<path d="M100.643 200.737C100.643 200.839 98.509 206.178 95.066 214.87C93.3364 219.639 91.8121 223.626 90.0367 227.96C89.3526 229.711 89.1088 230.552 88.666 233.308" stroke="#F4D77A" stroke-width="5.25" stroke-linecap="round"/>
<path d="M143.694 200.017C143.694 200.125 143.725 210.305 143.832 226.267C143.909 232.105 144.032 233.351 144.199 234.583C144.366 235.816 144.574 236.998 144.801 238.652" stroke="#F4D77A" stroke-width="5.25" stroke-linecap="round"/>
<path d="M177.207 185.898C177.36 185.974 177.588 187.661 178.277 191.151C178.818 192.992 179.746 194.977 181.808 198.465C183.869 201.953 187.035 206.885 190.296 211.966" stroke="#F4D77A" stroke-width="5.25" stroke-linecap="round"/>
<path d="M202.599 156.99C204.537 157.191 210.044 157.91 214.171 159.751C215.274 160.359 216.341 161.073 219.453 163.845C222.565 166.616 227.689 171.423 232.969 176.376" stroke="#F4D77A" stroke-width="5.25" stroke-linecap="round"/>
<path d="M218.691 122.596C218.743 122.596 218.795 122.596 222.384 122.605C225.973 122.614 233.098 122.631 238.753 123.091C244.409 123.55 248.379 124.452 253.905 126.027" stroke="#F4D77A" stroke-width="5.25" stroke-linecap="round"/>
<path d="M209.964 87.5193C210.029 87.5193 211.264 87.5 218.395 85.5194C234.943 79.6559 247.95 75.2427 251.491 74.6451C252.967 74.4403 253.79 74.4352 254.638 74.4299" stroke="#F4D77A" stroke-width="5.25" stroke-linecap="round"/>
<path d="M181.779 59.2323C181.779 58.2521 182.081 54.4333 189.863 40.7496C192.671 36.4253 194.179 34.1385 195.324 32.2139C195.88 31.3277 196.385 30.6249 196.906 29.9009" stroke="#F4D77A" stroke-width="5.25" stroke-linecap="round"/>
<path d="M127.909 108.921C125.441 109.064 117.634 110.369 112.334 113.276C109.953 114.581 108.304 117.067 106.982 119.83C105.674 122.563 106.156 125.676 106.635 128.16C106.872 129.39 108.07 130.267 109.66 130.818C113.29 132.077 117.078 131.521 119.859 131.033C126.127 129.932 130.577 123.214 133.489 118.101C135.331 114.866 134.808 110.373 134.3 106.711C134.069 105.05 132.96 103.991 131.764 103.301C129.305 101.882 125.206 102.37 121.027 103.146C117.704 103.763 115.61 106.443 113.63 108.893C111.469 111.565 110.783 115.174 110.899 118.387C110.952 119.857 111.746 120.925 113.344 121.628C117.263 123.353 122.059 122.761 125.838 122.197C133.284 121.084 137.403 114.476 140.405 108.207C141.126 106.703 140.903 105.168 140.324 104.021C139.745 102.874 138.533 102.056 136.805 101.634C129.351 99.8158 123.105 105.082 117.961 109.741C113.164 114.086 112.299 121.631 113.618 130.046C115.362 141.17 132.506 133.444 138.705 131.02C141.136 130.069 142.75 126.903 144.287 123.218C145.653 119.941 145.638 113.479 145.136 105.742C144.931 102.581 143.208 101.185 141.854 100.331C133.962 95.35 119.332 100.383 114.767 102.812C108.257 106.276 104.653 118.597 104.827 126.228C104.873 128.251 106.603 130.109 108.254 131.517C115.513 137.712 134.97 135.91 147.91 134.129C155.881 133.032 159.431 125.513 162.691 118.59C168.973 105.247 166.5 100.289 165.673 97.8264C163.486 91.3123 143.913 92.0593 130.062 93.3569C121.784 94.1324 115.775 100.579 103.452 114.601C96.2189 122.832 94.9836 132.519 94.9606 140.715C94.9512 144.06 97.6614 147.109 101.475 150.546C110.709 158.869 131.9 160.028 145.205 159.773C148.896 159.702 151.191 156.883 152.823 154.799C156.125 150.581 156.12 143.842 156.244 133.392C156.351 124.31 147.71 112.928 141.526 104.74C139.57 102.15 136.13 100.607 131.464 99.3923C120.888 96.6395 110.723 105.451 103.467 111.487C99.1892 115.046 97.7152 122.444 97.497 135.621C97.4465 138.67 99.305 140.576 100.715 141.931C106.047 147.054 115.773 147.458 129.091 147.625C138.429 147.742 144.972 139.653 150.037 134.397C156.419 127.776 158.043 115.463 158.26 106.972C158.462 99.0668 150.564 95.1475 143.73 91.4623C136.955 87.809 122.751 88.6347 112.397 91.9353C97.7556 96.6023 95.8547 111.937 93.3716 118.285C92.0272 121.722 92.041 125.48 92.4108 129.092C93.4312 139.054 104.112 145.73 112.964 151.761C121.329 157.46 131.675 156.175 140.437 155.082C148.808 154.038 158.243 142.867 164.207 135.237C169.217 128.827 167.952 119.889 166.379 112.543C164.403 103.308 153.546 96.0853 147.982 92.2169C143.173 88.8726 131.211 89.0723 121.192 90.3125C111.783 91.4771 106.241 98.0392 98.6989 105.654C93.0544 111.354 91.2832 120.548 91.1636 130.649C91.0393 141.144 102.749 147.602 112.321 153.626C120.682 158.887 132.979 157.649 142.916 153.79C166.471 144.644 165.917 133.21 168.206 128.636C170.814 123.421 170.022 112.726 168.066 102.925C166.317 94.1632 156.855 86.3326 150.647 80.828C147.418 77.9652 140.787 77.4318 134.049 77.483C122.114 77.5735 101.899 96.1003 89.6041 108.682C83.7842 114.638 83.3447 121.774 83.6338 130.267C83.953 139.643 98.5003 151.017 108.327 158.688C115.202 164.054 127.99 162.298 135.796 161.691C140.864 161.297 151.584 151.657 162.302 140.957C167.526 135.742 168.661 128.926 169.314 122.148C170.065 114.364 164.081 105.722 156.623 96.6082C149.136 87.4585 136.676 85.9875 118.585 86.2933C111.441 86.414 106.256 90.8348 100.082 96.2703C80.5029 113.508 74.9885 131.67 74.3048 141.896C73.8955 148.019 89.3462 155.984 101.46 161.467C110.494 165.557 119.161 162.582 126.056 158.183C133.832 153.222 138.308 139.82 142.04 130.015C146.37 118.637 143.613 109.243 141.114 103.462C138.751 97.9957 133.84 94.8584 127.296 91.7338C122.893 89.6314 118.048 91.4878 114.205 93.2946C108.695 95.8859 105.663 100.87 103.941 103.748C100.305 109.822 101.819 124.573 105.124 134.754C108.631 145.563 125.244 147.456 143.733 149.877C149.751 150.665 153.334 149.897 155.975 149.14C160.879 147.735 163.472 142.008 165.911 137.268C167.076 135.004 167.424 132.472 167.775 129.758C168.207 126.425 166.638 122.503 164 119.095C160.329 114.354 150.259 115.04 143.496 115.837C135.463 116.785 130.726 129.673 128.396 134.611C126.807 137.977 126.569 142.462 127.095 146.328C127.508 149.369 131.628 149.825 134.484 150.161C140.94 150.92 147.126 147.025 151.659 142.642C156.828 137.642 156.054 119.514 154.466 109.006C154.042 106.198 150.305 104.392 144.777 102.72C127.87 97.6079 119.555 105.827 112.791 110.439C106.165 114.955 102.69 121.938 98.9577 130.592C97.705 133.496 97.7725 137.846 97.8174 143.064C97.8701 149.205 105.759 154.69 113.82 159.248C117.805 161.5 122.375 161.716 126.35 162.012C133.939 162.577 149.685 147.903 165.123 129.495C168.788 125.124 169.281 121.556 169.133 118.449C168.818 111.843 161.284 105.885 151.564 99.4799C145.647 95.5813 126.679 95.4627 114.462 96.1521C109.466 96.434 105.519 99.5666 102.923 101.477C97.9734 105.12 96.691 127.359 98.0755 143.009C98.8295 151.531 108.68 157.164 117.293 162.182C129.812 169.476 155.351 167.248 165.017 165.559C170.235 164.648 174.218 155.799 177.862 147.64C179.405 144.186 179.082 139.955 178.856 135.928C178.207 124.385 164.32 111.343 158.658 107.856C150.301 102.709 141.294 104.079 133.908 104.833C126.143 105.626 115.15 118.284 107.871 127.409C101.768 135.058 106.523 148.179 110.933 156.397C117.206 168.086 123.358 170.097 128.159 172.082C130.758 173.157 136.931 173.229 144.626 173.181C156.239 173.108 165.284 157.596 169.996 149.277C174.03 142.154 174.456 123.267 173.178 112.477C172.122 103.551 158.526 99.5295 151.15 96.9826C141.923 93.7967 126.944 96.1263 116.21 99.1408C106.287 101.927 99.7745 107.196 97.2635 109.557C92.8677 113.689 92.3332 119.918 92.0266 134.342C91.7728 146.281 100.75 156.531 105.662 160.063C108.685 162.236 119.451 161.898 132.936 161.605C140.031 161.451 151.822 153.257 168.076 142.325C177.109 136.25 179.761 131.521 181.377 128.489C182.867 125.694 182.609 121.198 182.237 116.195C181.573 107.27 164.378 94.143 151.963 85.1339C148.415 82.5591 142.17 82.5492 135.723 82.4095C126.651 82.213 112.925 93.8137 99.8851 108.418C87.2346 122.587 89.648 147.053 90.5809 158.533C90.9211 162.719 94.4572 166.204 97.0277 168.965C101.974 174.279 116.813 173.697 126.641 172.507C133.197 171.712 149.592 153.3 163.564 137.011C169.041 130.625 169.471 120.464 169.228 104.192C169.093 95.1626 163.227 89.2035 158.76 84.8269C150.917 82.4732 140.269 82.6348 133.604 84.6485C129.549 86.1682 124.128 88.6987 118.543 91.3058" stroke="#F4D77A" stroke-width="5.25" stroke-linecap="round"/>
</svg>
