<svg width="40" height="40" viewBox="0 0 40 40" fill="none" xmlns="http://www.w3.org/2000/svg">
<path d="M17.0022 8.21367C18.0475 7.92323 19.3173 8.01306 19.5771 8.01332C19.8857 8.01364 20.9787 7.96132 21.3466 8.08959C21.7106 8.21648 22.16 8.34627 22.8322 8.74802L22.8555 8.76194C23.3647 9.06627 23.7882 9.3194 24.0455 9.66005C24.8138 10.6771 25.468 11.5111 25.6189 11.8612C25.7159 12.0863 26.0052 12.8728 26.1244 13.9838C26.1935 14.6272 26.1766 15.0332 26.045 15.5132C25.8558 16.2031 25.4425 17.0469 25.3106 17.2138C25.065 17.5245 24.8452 17.5499 23.8964 18.1409C23.2351 18.5529 22.4513 18.9192 21.3518 18.9162C20.6451 18.9143 19.3464 18.9188 18.6055 18.8794L18.5934 18.8788C17.6751 18.8299 16.6622 18.7761 15.9243 18.2762C15.4939 17.9846 15.025 17.5916 14.7895 17.2138C14.4405 16.654 14.0127 15.9453 13.9275 15.2399C13.8183 14.3368 13.8159 13.1832 13.8726 12.7762C13.9347 12.3301 13.7679 11.742 14.5777 10.4704C15.0319 9.75729 15.4006 9.31336 15.6526 9.09005C15.8406 8.92341 15.9243 8.51318 17.0022 8.21367Z" stroke="#4A2F2C" stroke-width="1.5" stroke-linecap="round"/>
<path d="M31.2524 27.8738C31.318 28.1249 31.5086 28.5956 31.5536 29.4452C31.5947 30.2205 31.0187 30.8308 30.2423 30.8233C29.6485 30.8176 29.0069 30.8064 28.6067 30.8059C28.0458 30.8052 27.0261 30.7982 26.1815 30.7883C25.3369 30.7785 24.6869 30.77 24.2962 30.7567C23.47 30.7285 22.9982 30.6988 21.9373 30.5792C21.4056 30.5192 20.5963 30.4387 19.801 30.3995C19.0057 30.3602 18.2472 30.3569 17.7991 30.3674C17.217 30.3809 16.9314 30.3995 16.6261 30.4073C16.3051 30.4154 15.9264 30.4453 14.6835 30.4744C13.6504 30.4986 11.848 30.5305 10.9167 30.5427C9.98532 30.5549 9.92987 30.5295 9.83986 30.5295C9.33517 30.5295 8.78387 30.5983 8.49483 30.117C8.46146 30.0615 8.38468 29.9107 8.52322 29.6503C8.65174 29.4087 8.73404 29.3106 8.88348 29.0861C9.30817 28.4481 9.75302 27.6414 10.2839 26.883C10.8237 26.1119 11.1305 25.6859 11.5287 25.2472C11.8154 24.9313 12.5035 24.1962 13.5592 23.4818C14.6051 22.7741 14.9041 22.4951 15.3936 22.2566L15.4071 22.25C15.7108 22.102 16.0418 21.9406 16.8685 21.9265C17.4244 21.9169 18.4174 21.9117 18.9453 21.9206C19.5345 21.9305 19.8828 21.9124 20.3213 21.9767C20.6881 22.0306 20.972 22.0823 21.266 22.1284C22.011 22.2453 22.9112 22.4133 23.3264 22.5085C23.8298 22.6239 24.6693 22.7464 25.1587 22.8422C25.5689 22.9224 25.829 22.9184 27.2755 23.4482C27.7975 23.6394 28.0465 23.7809 28.4602 24.0024C29.1872 24.3917 29.4299 24.6826 29.5761 24.9275C29.7547 25.2266 30.1051 25.5994 30.323 25.9262C30.6371 26.3973 31.0056 26.9286 31.2524 27.8738Z" stroke="#4A2F2C" stroke-width="1.5" stroke-linecap="round"/>
</svg>
