<svg width="64" height="64" viewBox="0 0 64 64" fill="none" xmlns="http://www.w3.org/2000/svg">
<path d="M20.4942 26.6249C20.4942 26.6535 20.4942 26.6821 20.4759 30.1907C20.4576 33.6993 20.4211 40.6869 20.5663 44.3087C20.7114 47.9305 21.0394 47.9747 21.6575 48.179C23.1929 48.6866 26.4748 50.6157 30.768 53.4721C36.0726 57.0014 36.6767 58.3131 38.5377 59.8492C39.1344 60.3417 40.124 59.7729 48.9854 56.006C58.026 52.1628 59.3233 51.7715 59.873 51.179C60.3374 50.6783 59.4433 46.4171 58.525 39.4711C57.2832 30.0787 58.7967 27.3324 58.7448 26.2173C58.7154 25.5868 55.5783 24.1032 51.1634 21.1049C47.3198 18.4946 43.9201 16.0224 41.1947 14.4035C40.1919 13.8079 39.9259 13.737 39.6872 13.8314C39.4486 13.9258 39.2363 14.2046 36.8615 16.0265C34.4868 17.8485 29.9559 21.2053 26.9444 23.2957C23.933 25.3862 22.5783 26.1086 22.009 26.6021C21.4398 27.0956 21.697 27.3383 21.967 27.5374C22.4883 27.9217 23.95 29.1561 25.8415 30.9941C26.8672 31.9909 29.6135 34.2263 33.9318 37.4953C36.8417 39.698 38.4477 40.2163 38.9659 40.1094C39.2421 40.0524 39.4564 39.7103 42.2624 37.9032C45.0685 36.0962 50.4372 32.7631 53.3901 30.9556C56.343 29.1482 56.7174 28.9673 57.5565 28.4608" stroke="#4A2F2C" stroke-width="2" stroke-linecap="round"/>
<path d="M38.5195 40.873C38.5195 40.9176 38.5253 43.7239 38.7446 49.2237C38.9581 51.9401 39.3792 54.5052 39.6081 56.0559C39.8371 57.6066 39.8611 58.0651 39.9495 58.6617" stroke="#4A2F2C" stroke-width="2" stroke-linecap="round"/>
<path d="M31.4844 32.837C31.5385 32.837 31.8853 32.7151 32.5397 32.4435C33.2326 32.156 36.9667 29.5097 42.8511 25.3534C45.3396 23.6283 46.8179 22.683 47.7221 22.1156C48.6263 21.5483 48.9117 21.3875 49.3124 21.1748" stroke="#4A2F2C" stroke-width="2" stroke-linecap="round"/>
<path d="M57.9055 13.8821C57.8832 13.8821 56.1805 12.4139 53.294 9.9764C51.5236 8.48136 49.4566 7.54572 45.9387 6.25326C43.7776 5.45925 40.729 4.77922 37.7397 4.37036C31.9164 3.57391 27.4785 4.22137 24.9591 4.82195C21.9735 5.53367 19.0562 9.1189 16.2414 12.7768C14.9791 14.4173 14.3755 16.1796 13.5341 18.5674C11.9661 23.0173 11.1832 26.459 10.8692 27.7604C10.0303 31.2367 9.56836 35.5604 9.22394 37.8382C7.78161 36.6828 6.00517 34.681 4.60853 33.1737C4.30652 32.8097 4.15555 32.5709 4 32.2489" stroke="#4A2F2C" stroke-width="2" stroke-linecap="round"/>
<path d="M9.73438 39.5044C9.73438 39.4853 9.91785 39.1943 10.7143 38.2637C12.364 36.6055 13.7204 35.3321 14.2674 34.8866C14.5263 34.675 14.7473 34.4927 15.4633 33.8574" stroke="#4A2F2C" stroke-width="2" stroke-linecap="round"/>
</svg>
