<svg width="40" height="40" viewBox="0 0 40 40" fill="none" xmlns="http://www.w3.org/2000/svg">
<path d="M15.0692 17.6962C15.0692 17.7085 15.0692 17.7208 15.0614 19.2244C15.0536 20.7281 15.0379 23.7228 15.1001 25.275C15.1623 26.8272 15.3029 26.8461 15.5678 26.9337C16.2258 27.1513 17.6323 27.978 19.4723 29.2022C21.7457 30.7147 22.0046 31.2769 22.8021 31.9352C23.0579 32.1463 23.482 31.9025 27.2797 30.2881C31.1543 28.6411 31.7103 28.4734 31.9458 28.2194C32.1449 28.0049 31.7617 26.1786 31.3681 23.2018C30.8359 19.1764 31.4846 17.9994 31.4623 17.5216C31.4497 17.2513 30.1053 16.6155 28.2132 15.3305C26.5659 14.2118 25.1089 13.1523 23.9409 12.4585C23.5111 12.2032 23.3971 12.1728 23.2948 12.2133C23.1925 12.2538 23.1016 12.3732 22.0838 13.1541C21.066 13.9349 19.1242 15.3735 17.8336 16.2694C16.543 17.1653 15.9624 17.475 15.7184 17.6865C15.4745 17.898 15.5847 18.002 15.7004 18.0873C15.9238 18.252 16.5503 18.781 17.3609 19.5688C17.8005 19.9959 18.9775 20.954 20.8282 22.355C22.0753 23.299 22.7636 23.5211 22.9857 23.4753C23.104 23.4509 23.1959 23.3043 24.3985 22.5298C25.6011 21.7554 27.9019 20.3269 29.1675 19.5523C30.433 18.7776 30.5934 18.7001 30.9531 18.4831" stroke="#4A2F2C" stroke-width="1.5" stroke-linecap="round"/>
<path d="M22.7939 23.8027C22.7939 23.8218 22.7964 25.0245 22.8904 27.3816C22.9819 28.5458 23.1624 29.6451 23.2605 30.3097C23.3586 30.9743 23.3689 31.1708 23.4068 31.4265" stroke="#4A2F2C" stroke-width="1.5" stroke-linecap="round"/>
<path d="M19.7793 20.3587C19.8025 20.3587 19.9511 20.3064 20.2316 20.19C20.5285 20.0668 22.1289 18.9327 24.6508 17.1514C25.7173 16.4121 26.3508 16.007 26.7383 15.7638C27.1258 15.5206 27.2481 15.4518 27.4199 15.3606" stroke="#4A2F2C" stroke-width="1.5" stroke-linecap="round"/>
<path d="M31.1024 12.2352C31.0928 12.2352 30.3631 11.606 29.126 10.5613C28.3673 9.92059 27.4814 9.5196 25.9737 8.96569C25.0475 8.62539 23.741 8.33395 22.4599 8.15873C19.9642 7.81739 18.0622 8.09487 16.9825 8.35226C15.7029 8.65729 14.4526 10.1938 13.2463 11.7615C12.7053 12.4645 12.4466 13.2198 12.086 14.2432C11.414 16.1503 11.0785 17.6253 10.9439 18.1831C10.5844 19.6729 10.3864 21.5259 10.2388 22.5021C9.62069 22.0069 8.85936 21.149 8.2608 20.5031C8.13137 20.3471 8.06666 20.2447 8 20.1067" stroke="#4A2F2C" stroke-width="1.5" stroke-linecap="round"/>
<path d="M10.4575 23.216C10.4575 23.2078 10.5361 23.0831 10.8775 22.6843C11.5845 21.9736 12.1658 21.4279 12.4002 21.237C12.5112 21.1463 12.6059 21.0682 12.9128 20.7959" stroke="#4A2F2C" stroke-width="1.5" stroke-linecap="round"/>
</svg>
