<svg width="106" height="38" viewBox="0 0 106 38" fill="none" xmlns="http://www.w3.org/2000/svg">
<path d="M42.7965 19.0625C42.9449 19.0703 43.0582 19.125 43.1363 19.2266C43.2145 19.3203 43.2535 19.4258 43.2535 19.543C43.2535 19.6602 43.2145 19.7656 43.1363 19.8594C43.0582 19.9531 42.9449 20 42.7965 20C42.4605 19.9922 42.1207 19.9766 41.777 19.9531C41.441 19.9297 41.1012 19.9141 40.7574 19.9062C40.4215 19.8906 40.0816 19.8906 39.7379 19.9062C39.402 19.9219 39.066 19.957 38.7301 20.0117C38.5973 20.0352 38.4762 20.0234 38.3668 19.9766C38.2652 19.9219 38.1949 19.8281 38.1559 19.6953C38.1168 19.5781 38.1285 19.457 38.191 19.332C38.2535 19.207 38.3512 19.1367 38.484 19.1211C38.8434 19.0586 39.2027 19.0195 39.5621 19.0039C39.9215 18.9805 40.2809 18.9727 40.6402 18.9805C40.9996 18.9883 41.359 19.0039 41.7184 19.0273C42.0777 19.043 42.4371 19.0547 42.7965 19.0625ZM47.0598 22.9531C46.927 22.9141 46.8332 22.8398 46.7785 22.7305C46.7316 22.6211 46.7199 22.5039 46.7434 22.3789C46.8605 21.7461 46.9426 21.1133 46.9895 20.4805C47.0363 19.8477 47.0637 19.2148 47.0715 18.582C47.0793 17.9414 47.0754 17.3008 47.0598 16.6602C47.052 16.0195 47.048 15.3828 47.048 14.75C47.048 14.6016 47.0949 14.4922 47.1887 14.4219C47.2902 14.3438 47.3996 14.3047 47.5168 14.3047C47.634 14.3047 47.7395 14.3438 47.8332 14.4219C47.9348 14.4922 47.9855 14.6016 47.9855 14.75C47.9855 15.4062 47.9895 16.0664 47.9973 16.7305C48.0129 17.3867 48.0129 18.043 47.9973 18.6992C47.9895 19.3555 47.9582 20.0117 47.9035 20.668C47.8488 21.3242 47.759 21.9766 47.634 22.625C47.6105 22.75 47.5363 22.8438 47.4113 22.9062C47.2941 22.9688 47.177 22.9844 47.0598 22.9531ZM56.0457 18.6055C56.2332 18.6992 56.4285 18.8125 56.6316 18.9453C56.8426 19.0703 57.034 19.2148 57.2059 19.3789C57.3855 19.543 57.534 19.7227 57.6512 19.918C57.7762 20.1133 57.8465 20.3281 57.8621 20.5625C57.8777 20.8047 57.8191 21.0273 57.6863 21.2305C57.5613 21.4258 57.4051 21.5898 57.2176 21.7227C57.1551 21.7695 57.0887 21.8125 57.0184 21.8516C56.9559 21.8828 56.8895 21.918 56.8191 21.957C56.7801 21.9727 56.7371 21.9922 56.6902 22.0156C56.6512 22.0312 56.6082 22.0469 56.5613 22.0625C56.4363 22.1172 56.323 22.168 56.2215 22.2148C56.1199 22.2617 56.0184 22.3047 55.9168 22.3438C55.698 22.4297 55.4637 22.5156 55.2137 22.6016C54.9637 22.6875 54.7098 22.75 54.452 22.7891C54.202 22.8281 53.952 22.832 53.702 22.8008C53.4598 22.7617 53.2332 22.6602 53.0223 22.4961C52.9207 22.418 52.8738 22.3125 52.8816 22.1797C52.8895 22.0391 52.9363 21.9258 53.0223 21.8398C53.1238 21.7383 53.2332 21.6914 53.3504 21.6992C53.4754 21.707 53.5887 21.7539 53.6902 21.8398L53.866 21.8867C53.8582 21.8789 53.8777 21.8789 53.9246 21.8867C53.9715 21.8867 53.9988 21.8867 54.0066 21.8867C54.0848 21.8867 54.1395 21.8828 54.1707 21.875C54.2801 21.8672 54.4012 21.8477 54.534 21.8164C54.6746 21.7852 54.8035 21.75 54.9207 21.7109C55.1863 21.625 55.4324 21.5391 55.659 21.4531C55.8934 21.3594 56.1238 21.2578 56.3504 21.1484C56.4129 21.1172 56.4793 21.082 56.5496 21.043C56.6277 20.9961 56.6902 20.9531 56.7371 20.9141C56.7684 20.8906 56.8113 20.8516 56.866 20.7969L56.9246 20.6914C56.9324 20.6211 56.9324 20.582 56.9246 20.5742L56.8777 20.4453C56.8543 20.3984 56.8309 20.3594 56.8074 20.3281C56.784 20.2969 56.7723 20.2852 56.7723 20.293C56.7332 20.2539 56.6941 20.2148 56.6551 20.1758C56.6238 20.1367 56.5887 20.0977 56.5496 20.0586C56.3777 19.9023 56.1863 19.7617 55.9754 19.6367C55.5691 19.3945 55.1707 19.1992 54.7801 19.0508C54.5613 18.9727 54.3387 18.918 54.1121 18.8867C53.8855 18.8555 53.659 18.8164 53.4324 18.7695C53.1902 18.7305 52.948 18.668 52.7059 18.582C52.4715 18.4961 52.2723 18.3594 52.1082 18.1719C52.0301 18.0859 51.9637 17.9883 51.909 17.8789C51.8543 17.7617 51.8348 17.6406 51.8504 17.5156C51.866 17.4141 51.8777 17.3164 51.8855 17.2227C51.9012 17.1211 51.9168 17.0156 51.9324 16.9062C51.9715 16.7188 52.0066 16.5234 52.0379 16.3203C52.0691 16.1172 52.1395 15.9336 52.2488 15.7695C52.3816 15.5586 52.5457 15.3867 52.741 15.2539C52.9441 15.1133 53.159 15 53.3855 14.9141C53.8309 14.7656 54.2879 14.6875 54.7566 14.6797C55.2332 14.6719 55.702 14.6797 56.1629 14.7031C56.3113 14.7109 56.4246 14.7656 56.5027 14.8672C56.5809 14.9688 56.6199 15.0781 56.6199 15.1953C56.6199 15.3125 56.5809 15.418 56.5027 15.5117C56.4246 15.6055 56.3113 15.6484 56.1629 15.6406C55.8895 15.625 55.6121 15.6133 55.3309 15.6055C55.0574 15.5977 54.784 15.6094 54.5105 15.6406C54.284 15.6562 54.0418 15.6992 53.784 15.7695C53.534 15.832 53.3387 15.9336 53.198 16.0742C53.1199 16.1445 53.0652 16.2109 53.034 16.2734C53.0027 16.3281 52.9754 16.4141 52.952 16.5312C52.9207 16.6484 52.8934 16.7695 52.8699 16.8945C52.8543 17.0117 52.8387 17.1328 52.823 17.2578C52.8152 17.2969 52.8074 17.332 52.7996 17.3633C52.7996 17.3867 52.7957 17.418 52.7879 17.457C52.8035 17.5117 52.823 17.5547 52.8465 17.5859C52.8699 17.6094 52.8738 17.6172 52.8582 17.6094C52.8895 17.625 52.9168 17.6406 52.9402 17.6562C52.9637 17.6719 52.991 17.6875 53.0223 17.7031C53.0613 17.7188 53.1082 17.7344 53.1629 17.75C53.2176 17.7656 53.2723 17.7812 53.327 17.7969C53.5613 17.8594 53.7996 17.9062 54.0418 17.9375C54.284 17.9609 54.5223 18.0039 54.7566 18.0664C54.9832 18.1289 55.202 18.207 55.4129 18.3008C55.6316 18.3945 55.8426 18.4961 56.0457 18.6055ZM65.6645 17.1172C65.3285 17.8125 64.9613 18.5 64.5629 19.1797C64.3598 19.5234 64.1527 19.875 63.9418 20.2344C63.7387 20.5938 63.5199 20.9453 63.2855 21.2891C63.0512 21.625 62.7934 21.9414 62.5121 22.2383C62.2309 22.5352 61.9184 22.7969 61.5746 23.0234C61.4496 23.1094 61.3285 23.1289 61.2113 23.082C61.102 23.0352 61.016 22.9648 60.9535 22.8711C60.8988 22.7695 60.8793 22.6562 60.8949 22.5312C60.9105 22.4062 60.9809 22.3008 61.1059 22.2148C61.4262 22.0117 61.7113 21.7656 61.9613 21.4766C62.2113 21.1797 62.4379 20.875 62.641 20.5625C62.8676 20.2188 63.0785 19.875 63.2738 19.5312C63.477 19.1797 63.684 18.8281 63.8949 18.4766C64.098 18.1328 64.2855 17.7852 64.4574 17.4336C64.6293 17.082 64.8051 16.7266 64.9848 16.3672C65.1645 16.0156 65.3559 15.6719 65.559 15.3359C65.7621 15 66.0121 14.6992 66.309 14.4336C66.4184 14.332 66.5355 14.293 66.6605 14.3164C66.7855 14.332 66.891 14.3828 66.977 14.4688C67.0629 14.5469 67.1098 14.6445 67.1176 14.7617C67.1332 14.8789 67.0863 14.9883 66.977 15.0898C66.6723 15.3633 66.4223 15.6797 66.227 16.0391C66.0316 16.3906 65.8441 16.75 65.6645 17.1172ZM65.5707 19.168C65.8051 19.0508 66.0395 19.0078 66.2738 19.0391C66.5082 19.0625 66.723 19.1367 66.9184 19.2617C67.1215 19.3867 67.2934 19.5508 67.434 19.7539C67.5746 19.9492 67.6723 20.1641 67.727 20.3984C67.7738 20.6016 67.7973 20.8203 67.7973 21.0547C67.7973 21.2812 67.766 21.5039 67.7035 21.7227C67.641 21.9336 67.5473 22.1328 67.4223 22.3203C67.2973 22.5 67.1332 22.6406 66.9301 22.7422C66.7035 22.8516 66.4691 22.9023 66.227 22.8945C65.9848 22.8867 65.7504 22.8359 65.5238 22.7422C65.2504 22.6328 65.0199 22.4805 64.8324 22.2852C64.6527 22.082 64.5395 21.832 64.4926 21.5352C64.4848 21.4805 64.477 21.4492 64.4691 21.4414C64.4691 21.4336 64.4691 21.4219 64.4691 21.4062C64.4691 21.1562 64.4926 20.9258 64.5395 20.7148C64.5863 20.4961 64.6566 20.2891 64.7504 20.0938C64.8441 19.8906 64.9574 19.707 65.0902 19.543C65.2309 19.3789 65.391 19.2539 65.5707 19.168ZM66.5434 21.875C66.7074 21.7188 66.809 21.5156 66.848 21.2656C66.8949 21.0078 66.8754 20.7578 66.7895 20.5156C66.7738 20.4609 66.766 20.4375 66.766 20.4453C66.7738 20.4531 66.7621 20.4297 66.7309 20.375C66.723 20.3672 66.7035 20.3359 66.6723 20.2812C66.641 20.2266 66.6371 20.2148 66.6605 20.2461C66.6059 20.1836 66.5512 20.1328 66.4965 20.0938C66.4418 20.0469 66.3754 20.0078 66.2973 19.9766C66.2582 19.9609 66.2152 19.9531 66.1684 19.9531C66.1293 19.9453 66.102 19.9453 66.0863 19.9531C66.0707 19.9609 66.0434 19.9766 66.0043 20C65.9652 20.0156 65.9301 20.0391 65.8988 20.0703C65.8129 20.1562 65.7348 20.2617 65.6645 20.3867C65.5941 20.5039 65.5395 20.625 65.5004 20.75C65.4848 20.7891 65.473 20.8281 65.4652 20.8672C65.4574 20.8984 65.4496 20.9336 65.4418 20.9727C65.434 20.9883 65.4262 21.0234 65.4184 21.0781C65.4105 21.125 65.4066 21.1406 65.4066 21.125C65.3988 21.2031 65.3988 21.2812 65.4066 21.3594C65.4223 21.4297 65.4418 21.5 65.4652 21.5703C65.4887 21.6328 65.5238 21.6836 65.5707 21.7227C65.6098 21.7617 65.6605 21.7969 65.723 21.8281C65.7934 21.8594 65.8637 21.8828 65.934 21.8984C66.0277 21.9297 66.102 21.9531 66.1566 21.9688C66.2113 21.9766 66.2816 21.9727 66.3676 21.957C66.4379 21.9258 66.4848 21.9023 66.5082 21.8867C66.5395 21.8711 66.5512 21.8672 66.5434 21.875ZM62.6176 14.293C62.7582 14.3164 62.8949 14.3594 63.0277 14.4219C63.1605 14.4766 63.2816 14.5508 63.391 14.6445C63.5004 14.7383 63.598 14.8477 63.684 14.9727C63.7699 15.0898 63.8363 15.2148 63.8832 15.3477C63.9613 15.582 63.9965 15.8281 63.9887 16.0859C63.9809 16.3438 63.9457 16.5898 63.8832 16.8242C63.8207 17.0586 63.7348 17.2891 63.6254 17.5156C63.516 17.7344 63.3598 17.9219 63.1566 18.0781C62.9848 18.2109 62.7777 18.3047 62.5355 18.3594C62.3012 18.4062 62.0785 18.4102 61.8676 18.3711C61.6723 18.3398 61.5043 18.2656 61.3637 18.1484C61.2309 18.0312 61.1215 17.8945 61.0355 17.7383C60.9574 17.582 60.8988 17.4102 60.8598 17.2227C60.8285 17.0352 60.8129 16.8555 60.8129 16.6836C60.8129 16.3555 60.848 16.0273 60.9184 15.6992C60.9965 15.3633 61.1332 15.0625 61.3285 14.7969L61.4105 14.6914C61.7387 14.3398 62.141 14.207 62.6176 14.293ZM63.0395 16.2969C63.0473 16.2109 63.0512 16.1172 63.0512 16.0156C63.0512 15.9062 63.0434 15.8281 63.0277 15.7812C63.0121 15.6953 63.0004 15.6367 62.9926 15.6055C62.9848 15.5742 62.9535 15.5312 62.8988 15.4766C62.766 15.3438 62.6254 15.2578 62.477 15.2188C62.3363 15.1797 62.1996 15.2266 62.0668 15.3594C62.0121 15.4297 61.9809 15.4766 61.973 15.5C61.973 15.5156 61.9652 15.5312 61.9496 15.5469C61.9496 15.5547 61.9418 15.5781 61.9262 15.6172C61.9105 15.6562 61.9027 15.6836 61.9027 15.6992C61.8871 15.7305 61.8754 15.7617 61.8676 15.793C61.8676 15.8164 61.8598 15.8477 61.8441 15.8867C61.8363 15.9258 61.8285 15.9648 61.8207 16.0039C61.8129 16.0352 61.8051 16.0703 61.7973 16.1094C61.7895 16.125 61.7816 16.1602 61.7738 16.2148C61.766 16.2617 61.766 16.2773 61.7738 16.2617C61.7582 16.3242 61.7504 16.3906 61.7504 16.4609C61.7504 16.5234 61.7504 16.5859 61.7504 16.6484V16.8828C61.766 16.9844 61.7777 17.0508 61.7855 17.082C61.7934 17.1133 61.8012 17.1445 61.809 17.1758C61.8402 17.2461 61.8637 17.2969 61.8793 17.3281C61.9027 17.3516 61.9145 17.3672 61.9145 17.375C61.9848 17.4219 62.0238 17.4492 62.0316 17.457C62.0395 17.457 62.0512 17.457 62.0668 17.457C62.1059 17.4727 62.1449 17.4727 62.184 17.457C62.2543 17.4414 62.3051 17.4297 62.3363 17.4219C62.3754 17.4141 62.4145 17.4023 62.4535 17.3867C62.516 17.3711 62.5746 17.3438 62.6293 17.3047C62.7699 17.1172 62.8676 16.9414 62.9223 16.7773C62.9848 16.6133 63.0238 16.4531 63.0395 16.2969Z" fill="#4A2F2C"/>
<path d="M1.86068 7.64422C1.94599 6.41411 2.44444 3.16 2.83123 1.73701C3.00138 1.11104 5.73596 1.79904 7.12976 1.73695C11.0082 1.64575 11.9727 1.84594 12.5238 1.73679C13.0614 1.64438 14.8057 1.79771 16.0139 1.73695C16.7011 1.70238 18.7672 1.73698 22.2061 1.2166C23.903 0.95981 25.5933 0.975468 26.9894 1.04101C29.8123 1.17355 31.2986 1.26349 31.9499 1.21675C33.3028 1.11968 35.6753 1.21675 36.8216 1.21675C38.3055 1.21675 39.6574 1.6327 41.4858 1.73702C42.7456 1.80889 46.0289 1.60948 49.8971 1.88691C51.4803 2.00046 53.183 2.31625 55.9318 1.96277C60.311 1.39964 62.5354 1.90472 64.3321 1.73702C65.0414 1.67081 67.6854 1.62738 72.0695 1.73702C74.1903 1.79005 75.2217 1.73702 76.368 1.73702C78.45 1.73702 79.5302 2.42383 81.6278 2.47469C83.9412 2.53079 86.1238 2.49845 90.6012 2.96512C92.4487 3.15768 94.5258 3.32135 95.6166 3.45926C97.0799 3.64426 97.7599 3.45316 98.7203 3.45316C99.8138 3.45316 102.072 3.1768 103.019 3.73271C104.448 4.57136 104.059 6.08045 104.165 7.08731C104.298 8.34338 104.448 9.88282 104.448 11.001V15.1943C104.448 16.8716 104.947 19.3823 104.947 19.9466C104.947 21.6239 105.067 21.694 104.947 25.2581C104.847 28.2111 105.042 30.2887 104.947 32.7713C104.862 34.9857 104.899 35.4572 104.448 36.1201L104.443 36.1276C104.337 36.2825 104.229 36.442 102.864 36.5103C101.477 36.5797 98.8699 36.5557 94.9379 36.5042C91.006 36.4527 85.9017 36.4192 83.1939 36.3093C80.178 36.187 81.626 36.2332 78.1825 36.0976C76.0729 36.0145 73.9734 36.9705 68.3441 36.9992C62.7148 37.028 54.6345 36.2537 50.0413 36.1926C45.4481 36.1314 44.9517 36.0508 44.3081 36.0145C42.9008 35.9352 41.4969 35.6855 38.3464 35.6135C35.8244 35.5559 31.9198 35.8384 29.3708 35.881C26.8219 35.9236 25.9115 35.9666 25.3589 36.0145C23.777 36.1517 22.1975 36.4577 20.0539 36.5772C17.7614 36.705 16.4835 36.8879 13.323 36.7197C11.9948 36.649 10.2465 36.7013 9.02447 36.5772C6.35988 36.3068 4.10444 36.3554 3.57878 35.657C3.12018 35.0478 3.07143 34.2595 2.83123 32.9413C2.67919 32.1069 2.47237 31.3721 2.39214 30.191C2.32788 29.2449 2.115 28.3233 2.01551 27.3425C1.8713 25.9211 1.71939 24.0583 1.33459 23.1011C1.03287 22.3505 1.0136 21.3058 1.00075 20.2262C0.988946 19.2342 1.11636 18.1451 1.35286 14.98C1.5994 11.6804 1.79695 8.563 1.86068 7.64422Z" stroke="#4A2F2C" stroke-width="2" stroke-linecap="round"/>
</svg>
