<svg width="242" height="104" viewBox="0 0 242 104" fill="none" xmlns="http://www.w3.org/2000/svg">
<path d="M207.83 90.6554C196.699 94.5051 175.852 94.8431 175.852 94.8431C175.852 94.8431 89.6442 97.0217 75.8345 94.4243C66.9821 92.7593 42.4953 92.7492 22.0836 86.8864C1.67192 81.0236 5.75426 67.623 13.9189 59.6664C22.0836 51.7097 13.9189 44.1406 36.0955 31.0689C51.0647 22.2455 85.0423 15.8186 85.0423 15.8186C85.0423 15.8186 127.771 11.5078 137.069 9.83267C154.487 6.48251 158.336 7.5397 171.089 9.83267C185.736 12.4663 192.561 16.8407 203.067 23.6521C211.49 29.1131 213.441 33.2475 220.757 39.5654C235.229 52.0629 235.229 58.9949 235.229 58.9949C235.229 58.9949 234.74 69.6437 229.602 76.8359C224.686 83.7176 218.478 86.9726 207.83 90.6554Z" fill="#E8DCCD"/>
<path d="M26.2669 52.6537C25.5521 55.5993 23.3641 61.8276 19.435 65.3267C12.8068 73.3852 13.138 75.2377 24.2897 79.2057C29.8721 80.8247 35.6969 81.988 41.473 82.9311C43.9757 83.3323 43.7443 83.8315 44.4413 83.9981C46.3655 84.4474 47.6168 83.9556 49.0375 84.1637C55.9615 85.1752 62.5139 85.711 69.6775 86.551C77.2302 87.5359 73.4685 88.8389 76.1324 89.6249C76.3401 89.6911 76.5294 89.7516 76.703 89.8066C79.9261 90.8368 77.1237 88.3949 78.6656 88.1187C83.688 88.7717 89.4999 89.14 95.0204 89.5023C93.7025 89.6796 92.2448 89.8446 90.9073 89.9951C93.3162 90.1088 96.8381 90.5137 92.7181 90.993C93.6517 91.1724 94.4558 91.373 95.3842 91.5439C95.6652 90.7596 99.9802 90.7622 100.4 90.2938C100.8 89.8288 98.3534 89.9053 98.3776 89.8636C98.5426 89.2943 108.52 90.1789 109.276 90.2345C111.171 90.4133 109.503 91.3927 111.124 91.3326C113.924 91.2268 112.072 89.2272 115.85 91.883C117.357 91.0161 117.498 91.4647 119.401 91.5177C119.652 91.5242 119.455 91.0247 119.566 91.0112C122.455 90.6275 120.237 91.5675 120.252 91.6178C120.518 92.4734 123.624 92.0766 124.277 92.1538C132.486 93.121 138.536 93.7427 147.194 93.85C149.092 93.8727 154.762 93.4302 156.598 93.5413C158.394 93.6522 157.444 94.2865 158.372 94.5655C159.858 93.0535 161.258 92.864 164.662 93.7725C165.865 92.6651 165.8 93.5402 168.15 93.2735C170.105 93.0523 173.677 91.6731 175.798 92.7269C173.406 92.6845 173.534 93.2132 170.757 93.5972C169.837 93.7282 159.893 93.9538 160.704 95.0419C161.069 95.612 164.379 95.0164 164.478 95.1203C165.212 95.725 163.438 96.5233 161.783 96.2887C162.154 96.1564 162.679 96.0191 163.113 95.8853C159.443 95.183 162.054 98.1075 159.189 95.5621C158.828 95.2499 158.96 94.9149 158.404 94.5864C158.294 94.7286 158.971 95.0635 158.395 95.1365C157.809 95.2102 156.644 94.5717 156.478 95.1306C156.244 95.9436 158.736 95.5792 158.904 95.6231C158.905 95.6182 158.907 95.6133 158.909 95.6084C160.604 96.0058 157.133 96.1199 156.966 96.1991C155.893 96.7223 156.616 97.0974 155.013 97.542C154.138 97.7947 151.698 97.6965 150.88 97.7862C150.029 97.8786 151.362 98.2392 150.79 98.3307C150.217 98.4222 149.491 98.1433 148.804 98.2494C148.509 98.296 148.531 98.7222 148.388 98.7393C146.866 98.9271 147.857 98.0246 146.493 98.0994C145.619 98.1489 142.6 99.019 144.689 99.2355C143.675 99.336 142.748 99.4118 141.759 99.4923C142.381 99.6108 143.02 99.6882 143.62 99.829C141.786 99.6515 140.948 100.392 139.776 100.462C138.624 100.531 137.578 99.6675 136.299 100.11C133.582 101.05 140.308 100.552 141.174 100.7C141.503 100.76 140.251 101.463 140.055 101.485C139.192 101.582 138.187 101.103 137.522 101.133C135.138 101.244 133.718 101.907 131.447 102.059C123.76 102.58 114.213 102.983 106.884 103.084C104.201 103.123 102.497 102.378 101.312 102.386C98.3933 102.401 98.1344 103.031 95.5584 103.02C91.8332 103.008 86.5529 102.299 83.3849 102.002C81.17 101.806 79.0397 102.248 78.477 102.208C77.8243 102.163 77.1964 102.112 76.5925 102.051C75.9352 101.984 75.1474 101.884 74.4539 101.765C68.8407 100.989 60.5679 100.571 55.1526 100.039C52.1123 99.7669 50.7158 98.924 50.0943 98.881C47.372 98.6787 48.0342 99.3435 45.8368 99.0296C44.6441 98.8559 44.4924 98.2642 44.3362 98.2229C42.9565 97.8616 42.5806 98.557 41.4769 98.4324C35.1237 97.7016 29.0735 96.1398 22.8053 94.4394C22.3504 94.3147 22.4756 94.0085 22.1762 93.9461C20.8989 93.6823 21.3309 94.3287 20.0376 94.0098C20.0242 94.0064 20.0107 94.0029 19.997 93.9993C17.0054 93.2127 13.8815 91.9981 10.705 90.0797C10.4053 89.8943 10.4506 89.4404 9.73952 88.9825C9.04743 88.5248 8.23477 88.4674 7.13492 87.5415C4.26501 85.1156 1.84964 81.2599 0.908202 76.7359C0.751272 76.0055 0.0903831 75.1344 0.0304556 73.9784C-0.262439 70.2588 1.62279 65.7642 2.77348 63.6106C4.54458 60.0556 6.73121 57.2488 9.15588 54.7788C10.453 53.3582 10.8162 52.5251 11.616 49.8633C11.9631 48.6846 12.8005 47.4721 13.0768 46.6849C13.7332 44.8628 12.7954 46.1165 13.5429 44.1926C17.6772 34.3839 25.7181 29.3886 32.6387 25.2042C38.3435 21.9497 43.9317 19.9298 49.5426 17.9966C54.7338 16.2287 60.9494 13.9958 66.0335 12.8352C68.1522 12.3529 68.6858 12.8569 70.1562 12.5047C72.8053 11.8767 73.1164 10.9952 75.9071 10.2868C78.1455 9.72459 80.8247 9.95553 83.2343 9.43217C83.3276 9.4118 83.4125 9.39183 83.5323 9.36403C83.5844 9.35165 83.6287 9.34053 83.6655 9.33059C83.6713 9.32657 83.8187 9.29524 83.8082 9.29389L84.3758 9.21173C86.2475 8.87552 87.3546 8.11172 89.7698 7.77837C91.9443 7.47901 95.0547 7.50288 97.4394 7.19481C110.314 5.49002 123.66 3.948 135.676 2.10003L135.585 2.11699C144.288 0.38833 155.162 -1.09241 164.935 1.09763C167.466 1.57293 169.916 2.07134 172.397 2.55524C178.342 3.69555 184.736 5.52031 190.226 8.55963C190.96 8.97408 189.507 9.09561 191.986 10.0975C193.302 10.6453 195.407 10.9901 198.218 12.6018C201.2 14.3167 203.997 16.158 206.738 17.9896C214.407 22.7602 219.597 30.3717 224.757 34.9332C230.46 40.3234 236.12 45.5805 240.009 54.1792C240.242 54.7554 240.469 55.379 240.669 56.067C240.769 56.4116 240.865 56.7836 240.948 57.1834C240.992 57.3964 241.032 57.6141 241.067 57.8513C241.085 57.9728 241.104 58.1181 241.119 58.2572C241.137 58.4663 241.152 58.4717 241.162 58.9949L241.155 59.2672C240.665 66.7026 239.644 73.559 235.195 80.8315C229.396 90.4672 218.524 95.4684 210.445 98.2159C197.708 102.116 186.935 101.392 176.589 98.6773C175.37 98.3279 175.993 96.4682 176.685 95.9248C177.356 96.2814 177.964 96.7064 178.684 97.102C179.449 94.7568 179.313 95.3827 182.512 95.4113C184.482 95.4194 182.85 94.5316 183.878 94.1851C185.211 93.7651 191.377 92.05 190.322 93.6766C190.683 93.3736 191.016 93.0833 191.369 92.7841C195.866 92.0557 200.221 91.0304 204.292 89.5269C204.991 89.2617 204.895 88.7915 205.592 88.5065C206.042 88.318 206.501 88.1497 206.913 88.006C208.305 87.5208 209.639 87.2243 211.141 86.6077C212.221 86.158 212.17 85.5885 213.568 85.0364C214.945 84.4724 215.266 85.1682 216.707 83.5449C215.165 83.3165 220.52 81.2647 221.91 79.8793C222.156 79.6985 223.296 77.5847 224.13 76.7621C224.72 76.2113 225.634 75.5343 226.417 74.5606C226.764 74.136 227.073 73.6372 227.283 73.0744C227.585 72.2559 227.232 71.502 227.576 70.6535C227.816 70.0565 228.658 69.5338 228.969 68.7201C229.295 67.9116 229.348 65.9621 229.415 65.6221C229.682 64.3956 229.755 65.8397 229.975 65.0062C230.475 63.0762 230.921 60.7471 231.079 58.8041L231.075 58.9949C231.077 59.1569 231.079 59.1303 231.08 59.1651C231.082 59.1912 231.082 59.1958 231.083 59.2049C231.085 59.2213 231.086 59.2246 231.087 59.2241C231.087 59.2214 231.086 59.2046 231.083 59.1778C231.077 59.1288 231.065 59.0553 231.046 58.9698C231.012 58.8079 230.957 58.6021 230.891 58.3995C230.757 57.9813 230.572 57.5306 230.355 57.082C229.916 56.1724 229.357 55.2816 228.735 54.455C228.433 54.0535 228.407 54.8976 228.354 54.8476C226.012 52.4606 227.504 53.5568 227.324 52.5577C227.235 51.5326 222.423 46.6242 221.734 47.2399C222.33 46.3427 220.661 45.8488 220.346 45.6021C219.134 44.6414 219.947 44.1513 218.637 43.3651C218.15 43.0738 218.558 44.2522 218.122 43.8442C217.926 43.6617 217.751 43.4578 217.586 43.2372C216.756 42.1651 216.226 40.778 215.014 39.4971C214.653 39.1132 214.222 39.3117 213.577 38.6478C212.905 37.9703 210.696 34.8804 211.227 36.7768C210.193 34.6299 209.605 34.5667 207.865 32.8348C207.426 32.405 207.334 31.3309 206.2 30.6425C205.813 30.4105 205.388 30.9442 204.88 30.5332C203.726 29.6127 203.006 28.1894 201.385 27.0824C201.261 26.9983 201.135 26.9142 201.007 26.8303C197.841 24.7682 194.323 23.012 191.166 21.0482C190.268 20.4959 190.832 20.0112 189.477 19.2835C189.274 19.1728 187.371 18.8782 186.448 18.405C185.906 18.0926 183.047 16.4722 182.42 16.2371C181.401 15.8152 181.008 16.3913 180.482 16.0808C178.95 15.2043 180.554 14.665 178.172 15.3633C177.708 14.4567 176.494 14.2178 176.329 13.2369C175.376 14.0341 174.699 12.8807 173.23 12.9165C172.047 12.9498 170.843 14.0928 170.454 13.365C170.36 13.1994 170.31 12.9383 170.313 12.5474C169.601 12.6776 166.667 12.5842 166.193 12.5336C164.769 12.3726 165.63 11.9371 164.554 11.8306C164.368 11.813 164.493 12.2312 163.32 11.9992C162.519 11.7846 157.007 11.1262 156.695 11.1351C152.973 10.3836 158.748 10.8007 159.634 10.5526C159.768 10.6804 159.9 10.8089 160.041 10.9373C161.701 11.3343 160.865 10.3255 160.11 10.026C159.354 9.7234 157.879 9.99103 157.259 9.66513C156.948 9.50133 157.204 8.43543 158.191 8.63988C157.151 8.23138 158.634 7.99381 158.236 7.65311C157.804 7.21162 152.874 7.03275 152.875 7.67941C153.785 7.66827 154.912 7.64308 155.827 7.69459C156.905 8.76116 153.487 12.0858 150.304 10.9849C147.896 10.207 151.665 8.95973 146.203 10.4649C147.062 10.391 147.794 10.3989 148.574 10.3584C148.736 11.1124 147.394 10.4109 146.775 10.7402C146.481 10.8969 148.451 11.1987 146.826 11.5854C145.257 10.6844 144.294 11.9362 141.916 12.3526C142.55 12.0454 143.179 11.7441 143.824 11.4444C139.621 11.3136 149.075 9.52294 141.04 10.3801C141.984 10.1798 142.937 10.0309 143.909 9.8261C143.377 9.50056 143.951 8.21384 143.489 8.03237C142.268 7.55644 140.677 8.22658 139.32 8.41557C138.722 8.49991 139.033 8.11851 138.983 8.12569C138.148 8.24315 138.429 8.66764 137.725 8.83046C137.527 8.87635 137.238 8.91464 136.899 8.94957L136.91 8.94763C135.788 9.04623 134.15 9.01286 133.818 9.10117C132.712 9.3929 134.713 10.0409 134.597 10.1258C133.965 10.6731 132.505 10.4993 132.651 11.07C133.721 10.7896 135.567 10.5022 137.148 10.2691C140.445 9.74675 142.948 9.74114 137.376 11.4277L137.357 11.4312C137.306 11.4469 137.252 11.4628 137.197 11.4789C137.258 11.4913 137.317 11.5043 137.373 11.5178L137.393 11.5141C139.244 11.8968 139.353 12.7945 137.78 13.5262L137.736 13.5343C137.261 13.7501 136.561 13.9514 135.734 14.1001C132.738 14.6252 134.623 13.8225 132.993 13.4705C132.778 13.4333 128.796 13.6727 128.659 14.0952C128.701 13.1469 127.323 12.4834 128.06 11.4185C128.161 11.2635 129.78 11.1149 129.118 10.4161C128.77 10.0674 127.89 9.32227 127.952 8.81409C127.669 9.19737 127.371 9.62579 127.074 10.0253C124.693 10.4193 124.307 10.0885 122.906 9.60675C123.002 9.86602 124.351 10.8438 122.462 10.7211C122.365 10.7118 122.242 10.3186 121.277 10.2288C119.331 10.0494 118.933 9.96831 120.24 8.61913C116.402 9.74524 115.4 8.52227 111.422 9.35415C112.39 10.786 113.767 10.2552 117.419 9.54376C117.62 9.88715 117.736 10.2365 117.942 10.5831C112.943 10.3193 115.373 10.1286 112.677 11.1733C112.015 11.4298 108.364 11.6355 109.688 12.5266C110 12.7367 112.254 12.4601 112.037 12.8683C111.994 12.9467 109.273 13.4322 109.017 13.3604C105.853 12.4779 111.179 11.0496 102.874 12.391C102.643 12.4289 102.608 12.8806 102.163 12.9905C101.325 13.1963 101.28 12.682 100.522 12.8824C99.77 13.0824 98.8043 13.8827 97.5951 13.3649C95.406 12.4205 100.228 11.2376 102.478 11.6191C103.21 10.0132 87.5875 11.6182 86.6471 11.8366C82.452 12.8362 89.4975 11.7877 89.8824 12.1719C90.0732 12.3322 90.1785 14.6049 91.837 12.9515C92.3283 12.4615 90.0332 12.1208 91.3478 11.7425C92.6197 11.3686 92.176 12.0868 92.2745 12.1235C92.6231 12.2482 93.9884 11.8567 94.1798 11.932C97.1137 13.0717 97.0965 15.2607 93.0686 12.4514C91.5191 13.3426 95.3325 14.109 93.4017 14.8055C91.0341 15.6541 89.1272 14.8088 88.8358 14.7919C85.0937 14.6219 89.4694 15.6827 85.0268 15.6647L85.0136 15.6666C85.0132 15.6651 85.0058 15.6648 84.9912 15.6659C83.868 15.761 84.4156 15.4346 84.9147 15.1437L84.9734 15.1352C85.1725 15.0346 85.3426 14.941 85.4134 14.8703C85.4755 14.8005 85.2735 14.7704 84.9371 14.7752L84.8474 14.7882C84.4928 14.8282 83.8476 14.9453 82.8694 15.1619C78.1393 16.2308 80.8434 16.2096 80.729 17.4533C80.7284 17.7399 78.2195 18.6257 81.6863 17.762C81.724 17.4357 81.798 17.0005 81.9773 16.6696C82.885 16.712 84.6085 17.9564 85.0681 17.9237C85.2435 17.9052 85.3275 17.9009 85.434 17.8893L85.2539 17.9153C87.149 17.8577 87.0126 17.2049 88.385 17.9659C87.3603 17.0224 88.926 17.4938 89.5018 17.2131C91.5992 16.1805 88.6838 16.1796 93.6832 16.7095C92.9724 16.2918 92.3752 15.8714 91.711 15.4504C92.2942 15.3731 92.8488 15.2982 93.4551 15.2182C94.4032 16.2025 97.5118 15.7385 94.8125 17.1111C98.2185 17.0647 99.5578 16.6857 100.197 15.7756C100.318 15.602 100.826 15.4838 101.418 15.4053C101.282 15.1829 101.063 14.4741 101.146 14.3756C101.884 13.5077 103.341 14.7157 102.949 15.2783C103.375 15.2577 103.699 15.2522 103.817 15.2522C104.557 15.2537 103.173 15.8728 103.783 15.9689C103.977 16.0007 106.055 15.6746 106.108 15.8601C106.495 17.0446 102.975 16.5432 109.914 16.5013C109.956 15.38 106.803 15.9689 107.492 14.7073C108.229 13.3528 110.208 14.8463 110.427 13.2581C110.6 13.4962 110.688 13.701 110.844 13.9765C113.542 12.9976 113.721 14.2792 114.599 14.469C116.302 14.8436 123.867 13.8914 116.943 13.5537C117.93 13.3293 118.926 13.1634 119.909 12.9504C120.402 15.2286 119.69 14.3885 124.497 14.1765C125.535 14.1313 126.033 15.0995 126.9 13.7719C126.887 14.9734 129.928 13.8706 130.24 13.9736C132.231 14.6699 125.446 16.8399 124.323 14.8464C123.241 15.7994 123.134 14.7223 121.846 15.0174C119.993 15.4415 119.748 15.6821 117.436 15.1412C115.37 16.5132 126.082 14.6439 119.713 16.8825C115.746 18.2856 99.5286 20.7436 85.7234 22.5692L86.3034 22.4853C78.3942 24.2974 71.1522 26.2926 68.016 27.2034C55.6553 30.8827 47.8201 33.5958 40.1127 37.8841C38.3411 38.9382 36.5823 40.0523 34.8324 41.3139C34.3309 41.6674 32.2613 43.2597 30.7915 44.554C29.2824 45.8506 28.2654 46.8458 28.2005 45.8309C28.1056 45.5589 30.2544 42.4628 27.3527 44.1722C28.2132 44.0761 27.3651 45.7236 27.3568 45.8813C26.9997 47.6425 27.3371 48.0971 27.3243 48.6866C27.3261 49.3583 27.1497 49.6264 26.2669 52.6537ZM4.58416 67.0359C6.85311 61.9277 7.54618 61.6301 6.9078 61.6032C6.35923 61.6405 4.95528 62.5622 4.76228 61.0183C3.94552 62.29 3.20725 63.6487 2.58625 65.1291C2.86271 64.7844 3.13967 64.4651 3.42692 64.1473C3.42767 64.1457 3.42843 64.1441 3.42918 64.1425C3.75871 65.1443 4.14031 66.1204 4.58416 67.0359ZM146.309 100.463C145.952 100.727 145.598 100.991 145.206 101.25C143.956 101.188 142.76 101.126 141.527 101.062C141.672 100.885 141.811 100.705 141.954 100.528C143.392 100.516 144.855 100.503 146.309 100.463ZM103.735 11.1987C105.541 11.727 105.237 10.4706 107.595 10.8022C107.215 9.89184 106.8 9.00583 106.403 8.10652C104.682 8.43375 104.315 8.8352 102.408 8.80687C102.666 9.08521 102.919 9.36578 103.165 9.64707C103.471 9.54868 103.797 9.43897 104.097 9.34862C104.669 10.1432 101.677 10.5919 103.729 11.2013C103.731 11.2004 103.733 11.1996 103.735 11.1987ZM121.33 8.85592C122.251 8.87429 125.997 8.89206 126.426 8.44229C127.975 6.921 117.736 8.99543 125.211 6.91116C125.154 6.73031 125.167 6.54473 125.145 6.36148C123.745 6.46547 122.363 6.57279 120.965 6.68346C121.125 7.40499 121.159 8.13187 121.33 8.85592ZM21.916 37.0358C22.9927 35.7909 28.4516 30.7315 26.0464 31.5522C25.2748 31.8005 23.463 34.8718 22.5235 35.7686C21.8998 36.3433 22.0869 35.1975 21.0872 36.5877C21.3499 36.733 21.6157 36.9211 21.9177 37.0313C21.9171 37.0328 21.9166 37.0343 21.916 37.0358ZM22.946 41.7113C23.7656 40.4658 24.6856 39.264 25.6941 38.1433C24.3668 38.3266 23.2104 40.3166 22.3443 39.729C22.5568 39.3556 22.786 38.9781 23.0307 38.5973C23.4196 38.5189 23.8083 38.4483 24.2 38.3812C24.7541 37.0376 23.9532 37.3537 25.9311 35.8229C23.8229 35.6043 22.7 35.1594 20.9845 39.6792C20.8959 38.4538 18.0427 37.2865 18.1263 40.7646C18.1603 41.3768 19.5363 39.8065 19.6131 39.8357C20.3886 40.0334 20.1193 41.2047 20.8831 41.3479C21.2198 41.4112 21.9106 40.4969 22.3627 40.6488C22.5675 40.7309 22.4194 41.9172 22.946 41.7113ZM18.0396 42.2481C17.9418 41.5338 16.0077 42.6502 15.5354 44.3051C14.8634 46.7975 17.2888 43.4692 18.0396 42.2481ZM146.317 100.462C146.315 100.462 146.312 100.462 146.309 100.463C146.311 100.462 146.312 100.461 146.313 100.46C146.315 100.46 146.316 100.461 146.317 100.462ZM116.503 8.88712C117.553 8.38362 119.166 8.25432 118.98 7.6637C119.526 7.72108 120.064 7.77717 120.61 7.83388C120.584 7.65292 120.552 7.47214 120.526 7.29302C118.931 7.36405 117.327 7.43255 115.717 7.49784C115.97 7.96135 116.211 8.42801 116.503 8.88712ZM133.847 7.17601C135.8 6.94787 134.03 6.37552 134.404 5.91584C134.812 5.45581 136.492 5.50269 136.173 4.97287C135.121 5.13741 133.957 5.28599 132.764 5.43375C133.138 6.01065 133.478 6.60335 133.851 7.17544C133.849 7.17563 133.848 7.17582 133.847 7.17601ZM32.0994 93.7413C30.7471 93.2927 31.4428 92.8034 28.5627 92.9471C28.5647 92.9475 28.5668 92.9479 28.5688 92.9484C31.053 94.0215 34.3512 95.104 37.3119 95.065C35.6605 94.1252 34.2297 94.4311 32.0994 93.7413ZM98.7798 9.85387C98.251 10.4129 100.989 10.5427 101.515 10.0189C102.393 9.169 99.5623 9.00758 98.7798 9.85387ZM87.8941 95.3025C90.0142 93.8276 86.1431 92.0071 82.069 92.496C81.6941 92.5414 84.3095 93.1843 83.5084 93.4389C83.4132 93.4647 81.9729 93.3424 81.6381 93.5323C81.2529 93.721 81.6081 94.2455 80.9755 94.4101C79.8746 94.7039 77.6857 93.8161 76.8182 94.1616C76.7532 94.1847 77.1035 94.4204 77.443 94.6412C77.7488 94.8586 78.1161 95.0724 78.161 95.0898C79.7308 95.662 81.1166 94.876 81.4155 94.8924C82.5667 94.9393 82.356 95.6071 82.6456 95.786C83.1869 96.1215 84.2859 95.8762 84.3183 95.8997C86.0973 96.589 81.8934 96.2048 81.3886 96.4039C79.7197 96.9378 81.2302 97.7261 77.3875 97.7133C77.0548 97.725 72.5163 97.0395 78.0612 98.5515C76.7806 98.6215 75.627 98.6129 75.0426 98.6343C74.0346 98.7358 74.2177 98.914 74.9538 99.1067C77.6153 99.798 83.9874 99.7574 85.006 99.5835C85.7856 99.4562 84.6476 98.7527 85.1279 98.4815C86.2413 97.8636 88.0638 97.8117 87.9274 96.8614C87.6914 94.8674 85.2061 96.0751 83.6172 95.6521C83.8147 95.2309 83.924 94.8158 84.2527 94.4102C83.6908 94.9568 87.7897 95.4223 87.894 95.3064C87.894 95.3051 87.8941 95.3038 87.8941 95.3025ZM62.1413 95.23C59.9164 94.4462 59.9717 95.7093 57.9399 94.8169C55.9971 95.779 59.6531 96.0178 60.0585 96.113C61.9788 96.5565 61.8292 97.7709 63.8332 97.5572C63.2032 96.7791 62.7286 96.0064 62.1413 95.23ZM81.8544 97.7998C80.3223 98.3362 82.9976 98.4984 83.1447 98.623C84.3113 100.009 75.8837 99.1583 81.8544 97.7998ZM30.7613 32.9302C31.4447 32.5146 30.6814 32.2986 31.1787 31.748C31.6297 31.2154 33.9756 30.3568 33.7115 30.0834C33.5015 29.7519 29.1437 31.3534 32.85 28.7651C32.6105 28.6626 32.5706 28.501 32.4078 28.3755C31.3536 29.0187 30.3032 29.6847 29.2342 30.4106C30.1704 30.5109 31.0852 30.6777 31.9493 30.8242C31.6383 31.605 30.9902 31.2885 30.9585 31.3091C30.9589 31.3096 30.9593 31.3101 30.9596 31.3107C29.8759 32.0905 29.2715 33.8594 30.7613 32.9302ZM13.0786 86.6629C14.0584 85.4808 11.4581 85.9283 10.5921 85.5042C9.75178 85.1406 9.15582 83.8725 9.09242 84.6814C9.94723 86.0744 13.0149 86.8515 13.0796 86.6612C13.0793 86.6618 13.0789 86.6623 13.0786 86.6629ZM49.7362 94.1026C47.783 94.2619 48.0346 94.6913 45.7415 93.9649C45.7886 94.3409 45.8352 94.725 45.8836 95.0954C47.7531 95.3231 47.7438 94.249 49.8559 94.9078C50.2022 95.0151 49.3582 95.7857 50.9812 95.6776C50.5649 95.1778 50.1466 94.6264 49.7362 94.1026ZM40.0446 94.2666C42.2702 94.5282 44.4043 91.8198 40.1817 92.5792C39.555 92.6898 38.3711 94.0622 40.0446 94.2666ZM17.8675 49.0351C19.1732 45.3865 17.2916 49.4218 16.6216 50.2354C19.1032 41.3982 16.3233 51.4165 14.7749 51.5454C14.9174 52.5778 15.1853 54.6037 16.1375 52.807C16.5179 52.021 15.9837 52.1788 16.0028 52.131C16.5923 50.6233 17.2229 51.0004 17.8675 49.0351ZM66.0953 95.4818C65.9546 95.4925 66.1299 96.0226 65.6785 96.0878C65.2212 96.1517 64.2427 95.7106 64.1171 96.0166C63.9906 96.3242 65.9953 96.7361 66.6326 96.5594C67.2752 96.3805 67.3798 95.392 66.0953 95.4818ZM51.8993 92.977C49.9888 93.1555 52.8626 95.3478 53.2718 95.3751C56.8576 95.6135 51.7286 93.5687 51.8993 92.977ZM17.4801 58.5535C19.179 53.6296 15.9447 56.5184 13.6177 57.6121C13.5432 58.0074 13.4681 58.3859 13.3593 58.7801C13.5861 56.9381 13.9723 54.7696 12.0613 57.7602C11.7302 58.1727 11.3549 58.6748 10.9493 59.2816C11.7997 58.4811 12.2481 58.1887 12.4242 58.1325C12.5099 58.113 12.5332 58.1529 12.517 58.2278C12.4318 58.506 11.8474 59.2716 11.8686 59.309C12.3403 59.9516 13.0082 59.7983 13.7327 59.4753C15.124 58.9134 16.4656 57.1581 17.4775 58.5574C17.4783 58.5561 17.4792 58.5548 17.4801 58.5535ZM72.0174 96.5888C72.8525 96.6803 74.3028 96.7825 75.3857 96.8105C76.9257 96.8639 78.0791 96.6009 76.7259 95.8825C76.2998 95.9351 75.9039 95.9842 75.533 96.0275C74.3693 96.1684 73.2022 96.3719 72.0174 96.5888ZM73.6735 20.1951C75.3695 20.3755 76.773 20.0419 78.68 19.5816C76.8009 19.1563 77.9086 18.8124 78.4286 18.491C79.2568 17.9971 77.1296 18.4936 77.0972 18.4457C76.9778 17.6728 78.2995 17.244 75.1887 17.9729C75.9262 17.5235 76.59 17.0915 77.3264 16.65C74.9328 17.1506 74.2587 16.7877 72.5984 16.5389C74.4016 17.6787 72.2626 17.1982 70.6956 18.3626C69.9153 18.9437 72.8307 20.0944 73.6793 20.1938C73.6774 20.1942 73.6755 20.1947 73.6735 20.1951ZM20.0461 53.9805C19.9469 53.417 19.7237 52.8837 19.5551 52.3556C19.67 51.8687 19.7802 51.3906 19.8885 50.9136C20.138 50.9244 20.3955 50.9481 20.6387 50.9474C20.8846 50.3628 20.4918 50.5024 20.5151 50.3132C20.5164 50.3136 20.5176 50.314 20.5189 50.3144C20.863 47.66 21.3617 46.6284 22.9564 45.2979C22.3119 44.9279 21.6673 44.5579 21.0228 44.1879C20.8475 44.635 20.67 45.1186 20.5274 45.5706C20.7721 45.9806 21.0293 46.3766 21.2974 46.7576C20.8815 47.1529 20.4818 47.5643 20.0867 48.0072C20.0735 48.4626 20.0488 49.0149 20.0689 49.4166C17.41 50.9098 20.3083 46.5364 19.6292 46.1968C19.0191 45.9133 17.4174 50.9561 17.6332 51.7267C17.6533 51.8457 19.4636 51.2297 18.1393 52.7889C17.9016 53.0576 14.8058 52.0091 16.594 54.7467C16.8184 55.1781 19.1679 55.0802 20.0461 53.9805ZM29.1818 40.0371C25.6547 40.1053 34.9805 35.6307 30.4589 36.8911C30.8751 35.3539 30.7085 35.4867 29.1496 35.5707C29.0086 35.5782 29.5614 34.8219 29.4832 34.8393C28.2161 35.1737 27.1925 36.3516 26.6278 35.6865C26.3854 35.95 26.1642 36.1942 25.9392 36.4537C27.551 36.1502 26.2036 38.0333 26.1022 39.1204C26.0534 39.6046 26.7366 39.0845 26.701 39.5003C26.6908 39.6409 25.6912 40.3528 25.8733 40.5886C26.277 41.1153 27.4133 41.1833 28.6079 40.7369C28.6083 40.7373 28.6088 40.7378 28.6092 40.7383C28.8101 40.4951 28.9845 40.2691 29.1818 40.0371ZM20.7216 84.7823C20.7591 86.0294 22.5738 87.028 18.788 86.326C18.8805 86.6093 18.9844 86.8933 19.0877 87.1775C19.7254 87.3828 20.315 87.5555 20.954 87.7322C21.3335 87.3757 21.6993 87.1432 22.0504 87.002C24.3194 86.0335 25.9665 89.2245 24.6114 86.6558C24.444 86.3355 22.9274 86.2369 24.5359 85.9137C24.5342 85.9125 24.5324 85.9114 24.5307 85.9103C23.5427 85.7598 22.9508 85.752 22.4352 85.6622C21.8794 85.5626 21.4113 85.3687 20.7216 84.7823ZM9.55508 78.2897C7.38447 76.8728 7.65031 78.49 9.02831 80.2166C10.3886 81.9083 12.6755 82.9503 12.1006 82.113C12.0537 82.0396 10.9669 81.3348 10.1878 80.423C9.37912 79.5072 8.94596 78.4458 9.55508 78.2897ZM44.5783 88.2939C42.4872 87.9783 42.1595 89.2805 42.3072 89.7912C42.4571 90.303 43.9846 90.0123 44.1659 90.1116C44.7532 90.4415 43.4167 90.4364 44.178 90.8832C44.4308 91.0361 48.0765 91.9556 48.2622 91.9118C49.2438 91.6982 47.9851 90.4421 48.2701 90.3462C49.1942 90.0326 50.3212 90.7324 50.6394 90.1728C51.3182 88.9805 48.9621 90.0577 48.5842 90.0346C47.441 89.9657 47.6286 89.2739 46.8012 89.0335C45.9721 88.7919 45.3993 88.9652 44.6617 88.8205C44.4166 88.7722 44.6846 88.3121 44.5783 88.2939ZM37.1979 90.0854C39.5561 89.4448 34.4013 87.4684 33.7439 87.5636C31.7498 87.9094 36.0426 90.406 37.1979 90.0854ZM22.2534 42.8657C21.741 44.9082 24.8072 41.4969 25.5745 40.4473C25.1819 40.3545 22.4111 42.0915 22.2534 42.8657ZM16.6213 59.6792C17.6314 58.0291 15.2966 58.9404 14.0363 59.7868C13.9016 59.8817 13.7792 59.9846 13.6747 60.0934C13.794 61.2714 14.1194 60.9297 14.6472 60.4137C14.7697 60.2946 14.8984 60.166 15.0319 60.0388C15.8105 59.2654 15.6587 61.0577 16.6213 59.6792ZM67.5258 91.7098C67.1115 91.651 60.5069 92.0182 64.2311 92.6984C64.4947 92.7449 69.1163 92.9762 69.4613 92.8481C70.2002 92.5762 68.5639 91.8465 67.5258 91.7098ZM12.5656 67.1945C12.1508 66.0043 12.6895 65.2299 11.2939 65.3449C11.2933 65.3459 11.2926 65.347 11.2919 65.348C12.3263 63.1551 14.2527 64.5292 14.4905 64.1288C15.4487 62.7416 13.1702 62.9106 13.5136 61.7193C12.1686 64.0515 11.8122 62.7808 10.5678 64.4506C10.2768 64.8294 9.94049 66.7577 10.2221 67.1537C10.4793 67.548 11.9447 67.317 12.5656 67.1945ZM76.8046 92.5916C76.5855 92.5169 76.3856 92.4657 76.2086 92.435C74.251 92.1129 72.7983 93.1681 75.5084 93.7983C75.6585 93.8365 75.8023 93.8599 75.9386 93.8706C77.0384 93.935 77.9799 92.9535 76.8046 92.5916ZM125.127 13.8306C124.749 13.4719 124.357 13.1164 123.948 12.7647C124.745 12.5722 125.549 12.3758 126.349 12.1786C125.728 12.3822 125.08 12.5863 124.463 12.786C125.989 12.7441 126.801 13.38 125.131 13.8301C125.13 13.8302 125.128 13.8304 125.127 13.8306ZM178.045 14.112C178.575 14.6548 180.158 13.8829 180.03 13.748C179.019 12.709 177.293 13.3538 178.045 14.112ZM26.8265 42.9201C28.4572 41.4215 26.0012 41.136 24.937 42.1849C25.775 41.7755 25.9447 43.7932 26.8265 42.9201ZM159.634 10.5526C159.435 10.3623 159.234 10.173 159.004 9.98236C159.751 10.2908 159.866 10.4657 159.634 10.5526ZM66.6243 89.9089C66.2548 89.7268 63.3726 89.3671 62.9839 89.5209C62.1477 89.8423 64.2985 91.0945 65.6412 90.8744C65.7958 90.8514 66.9952 90.0899 66.6183 89.9084C66.6203 89.9086 66.6223 89.9087 66.6243 89.9089ZM128.66 14.1483C128.653 14.1304 128.653 14.1125 128.659 14.0952C128.659 14.1128 128.662 14.1305 128.66 14.1483ZM221.686 47.3174C221.697 47.2858 221.713 47.2591 221.734 47.2399C221.719 47.2638 221.706 47.2929 221.686 47.3174ZM46.7468 86.3921C46.0407 84.4425 43.7872 85.1445 45.3604 86.2702C45.4502 86.3306 46.5177 86.3615 46.7468 86.3921Z" fill="#E8DCCD"/>
<path d="M62.1389 37.2764C61.7639 36.8857 61.3654 36.5264 60.9436 36.1982C60.5217 35.8545 60.0998 35.5186 59.6779 35.1904C59.2717 34.8467 58.8732 34.4951 58.4826 34.1357C58.092 33.7607 57.7326 33.3545 57.4045 32.917C57.0607 32.4639 56.7873 31.9717 56.5842 31.4404C56.3967 30.8936 56.3654 30.3311 56.4904 29.7529C56.6154 29.1279 56.9201 28.5811 57.4045 28.1123C57.8889 27.6436 58.4123 27.2764 58.9748 27.0107C59.5842 26.7451 60.2014 26.5654 60.8264 26.4717C61.4514 26.3623 62.0842 26.2998 62.7248 26.2842C63.3654 26.2529 64.0061 26.2529 64.6467 26.2842C65.3029 26.2998 65.9514 26.292 66.592 26.2607C66.8889 26.2451 67.1076 26.3311 67.2482 26.5186C67.4045 26.7061 67.4826 26.917 67.4826 27.1514C67.4826 27.3857 67.4045 27.6045 67.2482 27.8076C67.1076 27.9951 66.8889 28.0967 66.592 28.1123C66.1389 28.1436 65.6857 28.1592 65.2326 28.1592C64.7951 28.1436 64.3498 28.1279 63.8967 28.1123C63.2873 28.0967 62.6701 28.1045 62.0451 28.1357C61.4357 28.167 60.8342 28.292 60.2404 28.5107C60.0373 28.5889 59.8186 28.6904 59.5842 28.8154C59.3498 28.9248 59.1311 29.0654 58.9279 29.2373C58.7404 29.4092 58.5842 29.5967 58.4592 29.7998C58.3342 30.0029 58.2795 30.2217 58.2951 30.4561C58.3107 30.6748 58.3654 30.8936 58.4592 31.1123C58.5529 31.3154 58.6701 31.5186 58.8107 31.7217C58.967 31.9248 59.1311 32.1201 59.3029 32.3076C59.4748 32.4951 59.6389 32.667 59.7951 32.8232C60.1545 33.1826 60.5295 33.5107 60.9201 33.8076C61.3107 34.1045 61.7014 34.4092 62.092 34.7217C62.4982 35.0498 62.9045 35.417 63.3107 35.8232C63.7326 36.2139 64.092 36.6436 64.3889 37.1123C64.7014 37.5654 64.9279 38.0498 65.0686 38.5654C65.2248 39.0811 65.2482 39.6279 65.1389 40.2061C65.0295 40.7529 64.8186 41.2217 64.5061 41.6123C64.2092 41.9873 63.8498 42.3311 63.4279 42.6436C63.0217 42.9404 62.5842 43.2139 62.1154 43.4639C61.6623 43.6982 61.2248 43.9404 60.8029 44.1904C60.5373 44.3467 60.2873 44.3779 60.0529 44.2842C59.8342 44.1904 59.6623 44.042 59.5373 43.8389C59.4279 43.6357 59.3811 43.417 59.3967 43.1826C59.4279 42.9326 59.5764 42.7295 59.842 42.5732C60.217 42.3545 60.592 42.1514 60.967 41.9639C61.342 41.7764 61.7092 41.5654 62.0686 41.3311C62.4123 41.1123 62.7092 40.8545 62.9592 40.5576C63.2248 40.2451 63.3576 39.8857 63.3576 39.4795C63.342 39.0732 63.2092 38.6826 62.9592 38.3076C62.7248 37.9326 62.4514 37.5889 62.1389 37.2764ZM70.5623 34.6045C70.8592 34.1982 71.2107 33.8389 71.617 33.5264C72.0389 33.2139 72.4842 32.9717 72.9529 32.7998C73.4217 32.6123 73.9061 32.5186 74.4061 32.5186C74.9061 32.5029 75.4061 32.5967 75.9061 32.7998C76.3904 32.9873 76.8279 33.2451 77.2186 33.5732C77.6092 33.8857 77.9139 34.292 78.1326 34.792C78.3045 35.167 78.4061 35.5732 78.4373 36.0107C78.4686 36.4482 78.3514 36.8467 78.0857 37.2061C77.8514 37.5342 77.5623 37.7842 77.2186 37.9561C76.8904 38.1279 76.5311 38.2529 76.1404 38.3311C75.7654 38.4092 75.3748 38.4482 74.9686 38.4482C74.5779 38.4482 74.2029 38.4404 73.8436 38.4248C73.4373 38.4092 73.0311 38.3779 72.6248 38.3311C72.2342 38.2842 71.8357 38.2373 71.4295 38.1904C71.5545 38.8936 71.8045 39.5186 72.1795 40.0654C72.5545 40.6123 73.0623 41.0264 73.7029 41.3076C73.8748 41.3701 74.0076 41.417 74.1014 41.4482C74.1482 41.4639 74.1873 41.4795 74.2186 41.4951C74.2654 41.4951 74.3123 41.4951 74.3592 41.4951C74.4842 41.5107 74.5857 41.5264 74.6639 41.542C74.7576 41.542 74.8436 41.5342 74.9217 41.5186C75.0311 41.5029 75.1014 41.4951 75.1326 41.4951C75.1795 41.4795 75.2264 41.4639 75.2732 41.4482C75.4451 41.4014 75.5936 41.3467 75.7186 41.2842C75.8592 41.2217 76.0232 41.1201 76.2107 40.9795C76.3045 40.9014 76.4295 40.7842 76.5857 40.6279C76.742 40.4717 76.8748 40.3311 76.9842 40.2061C77.1404 39.9873 77.3279 39.8389 77.5467 39.7607C77.7811 39.6826 78.0154 39.7139 78.2498 39.8545C78.4529 39.9795 78.5936 40.1748 78.6717 40.4404C78.7654 40.6904 78.7342 40.9248 78.5779 41.1436C78.1248 41.7529 77.5857 42.2764 76.9607 42.7139C76.3514 43.1357 75.6482 43.3623 74.8514 43.3936C74.2107 43.4248 73.5936 43.3154 72.9998 43.0654C72.4061 42.7998 71.8826 42.4482 71.4295 42.0107C70.867 41.4639 70.4217 40.8311 70.0936 40.1123C69.7654 39.3936 69.5857 38.6592 69.5545 37.9092C69.4139 37.7998 69.3045 37.667 69.2264 37.5107C69.1639 37.3389 69.1404 37.167 69.1561 36.9951C69.1873 36.8232 69.2498 36.667 69.3436 36.5264C69.4373 36.3701 69.5779 36.2686 69.7654 36.2217C69.9373 35.6436 70.2029 35.1045 70.5623 34.6045ZM76.1873 35.167C76.0154 34.9482 75.7498 34.7529 75.3904 34.5811C75.0936 34.4561 74.742 34.3936 74.3357 34.3936C73.9451 34.3936 73.6092 34.4639 73.3279 34.6045C72.9686 34.7764 72.6482 35.0186 72.367 35.3311C72.0857 35.6279 71.8592 35.9639 71.6873 36.3389C72.0623 36.3857 72.4373 36.4326 72.8123 36.4795C73.1873 36.5264 73.5623 36.5576 73.9373 36.5732C74.1404 36.5732 74.3436 36.5732 74.5467 36.5732C74.7498 36.5732 74.9529 36.5654 75.1561 36.5498C75.2186 36.5498 75.2732 36.5498 75.3201 36.5498C75.3826 36.5342 75.4451 36.5264 75.5076 36.5264C75.6482 36.4951 75.7498 36.4795 75.8123 36.4795C75.8904 36.4639 75.9686 36.4404 76.0467 36.4092C76.1092 36.3936 76.1873 36.3701 76.2811 36.3389C76.3592 36.3076 76.4061 36.2842 76.4217 36.2686C76.4373 36.2529 76.4607 36.2373 76.492 36.2217L76.5623 35.9404C76.5311 35.8779 76.5076 35.8232 76.492 35.7764C76.492 35.7139 76.4764 35.6592 76.4451 35.6123C76.4295 35.5654 76.3904 35.4951 76.3279 35.4014C76.2811 35.3076 76.2342 35.2295 76.1873 35.167ZM83.1107 34.1592C83.1264 33.8623 83.2357 33.6436 83.4389 33.5029C83.642 33.3467 83.8607 33.2686 84.0951 33.2686C84.3295 33.2686 84.5326 33.3467 84.7045 33.5029C84.892 33.6436 84.9779 33.8623 84.9623 34.1592C84.9623 34.2529 84.9545 34.3545 84.9389 34.4639C84.9389 34.5576 84.9389 34.6514 84.9389 34.7451C85.4389 34.4951 85.9623 34.2842 86.5092 34.1123C87.0717 33.9248 87.6264 33.8076 88.1732 33.7607C88.7357 33.7139 89.2748 33.7607 89.7904 33.9014C90.3217 34.0264 90.8061 34.2764 91.2436 34.6514C91.4623 34.8545 91.5561 35.0732 91.5248 35.3076C91.5092 35.542 91.4154 35.7451 91.2436 35.917C91.0873 36.0732 90.8842 36.1748 90.6342 36.2217C90.3842 36.2529 90.142 36.1748 89.9076 35.9873C89.7357 35.8467 89.5404 35.7451 89.3217 35.6826C89.1186 35.6201 88.892 35.5967 88.642 35.6123C88.4076 35.6123 88.1654 35.6357 87.9154 35.6826C87.6811 35.7295 87.4545 35.7842 87.2357 35.8467C86.4076 36.1123 85.6342 36.4639 84.9154 36.9014C84.9467 37.667 84.9936 38.4326 85.0561 39.1982C85.1186 39.8389 85.1732 40.5029 85.2201 41.1904C85.267 41.8623 85.3998 42.5029 85.6186 43.1123C85.7123 43.3936 85.6889 43.6279 85.5482 43.8154C85.4232 44.0186 85.2436 44.1514 85.0092 44.2139C84.7904 44.2764 84.5561 44.2607 84.3061 44.167C84.0717 44.0732 83.9076 43.8857 83.8139 43.6045C83.6889 43.2451 83.6029 42.8779 83.5561 42.5029C83.5092 42.1279 83.4623 41.7529 83.4154 41.3779C83.3842 41.0186 83.3451 40.6592 83.2982 40.2998C83.267 39.9248 83.2357 39.5576 83.2045 39.1982C83.1264 38.3545 83.0717 37.5186 83.0404 36.6904C83.0248 35.8467 83.0482 35.0029 83.1107 34.1592ZM95.7061 34.6045C96.0029 34.1982 96.3545 33.8389 96.7607 33.5264C97.1826 33.2139 97.6279 32.9717 98.0967 32.7998C98.5654 32.6123 99.0498 32.5186 99.5498 32.5186C100.05 32.5029 100.55 32.5967 101.05 32.7998C101.534 32.9873 101.972 33.2451 102.362 33.5732C102.753 33.8857 103.058 34.292 103.276 34.792C103.448 35.167 103.55 35.5732 103.581 36.0107C103.612 36.4482 103.495 36.8467 103.229 37.2061C102.995 37.5342 102.706 37.7842 102.362 37.9561C102.034 38.1279 101.675 38.2529 101.284 38.3311C100.909 38.4092 100.519 38.4482 100.112 38.4482C99.7217 38.4482 99.3467 38.4404 98.9873 38.4248C98.5811 38.4092 98.1748 38.3779 97.7686 38.3311C97.3779 38.2842 96.9795 38.2373 96.5732 38.1904C96.6982 38.8936 96.9482 39.5186 97.3232 40.0654C97.6982 40.6123 98.2061 41.0264 98.8467 41.3076C99.0186 41.3701 99.1514 41.417 99.2451 41.4482C99.292 41.4639 99.3311 41.4795 99.3623 41.4951C99.4092 41.4951 99.4561 41.4951 99.5029 41.4951C99.6279 41.5107 99.7295 41.5264 99.8076 41.542C99.9014 41.542 99.9873 41.5342 100.065 41.5186C100.175 41.5029 100.245 41.4951 100.276 41.4951C100.323 41.4795 100.37 41.4639 100.417 41.4482C100.589 41.4014 100.737 41.3467 100.862 41.2842C101.003 41.2217 101.167 41.1201 101.354 40.9795C101.448 40.9014 101.573 40.7842 101.729 40.6279C101.886 40.4717 102.019 40.3311 102.128 40.2061C102.284 39.9873 102.472 39.8389 102.69 39.7607C102.925 39.6826 103.159 39.7139 103.394 39.8545C103.597 39.9795 103.737 40.1748 103.815 40.4404C103.909 40.6904 103.878 40.9248 103.722 41.1436C103.269 41.7529 102.729 42.2764 102.104 42.7139C101.495 43.1357 100.792 43.3623 99.9951 43.3936C99.3545 43.4248 98.7373 43.3154 98.1436 43.0654C97.5498 42.7998 97.0264 42.4482 96.5732 42.0107C96.0107 41.4639 95.5654 40.8311 95.2373 40.1123C94.9092 39.3936 94.7295 38.6592 94.6982 37.9092C94.5576 37.7998 94.4482 37.667 94.3701 37.5107C94.3076 37.3389 94.2842 37.167 94.2998 36.9951C94.3311 36.8232 94.3936 36.667 94.4873 36.5264C94.5811 36.3701 94.7217 36.2686 94.9092 36.2217C95.0811 35.6436 95.3467 35.1045 95.7061 34.6045ZM101.331 35.167C101.159 34.9482 100.894 34.7529 100.534 34.5811C100.237 34.4561 99.8857 34.3936 99.4795 34.3936C99.0889 34.3936 98.7529 34.4639 98.4717 34.6045C98.1123 34.7764 97.792 35.0186 97.5107 35.3311C97.2295 35.6279 97.0029 35.9639 96.8311 36.3389C97.2061 36.3857 97.5811 36.4326 97.9561 36.4795C98.3311 36.5264 98.7061 36.5576 99.0811 36.5732C99.2842 36.5732 99.4873 36.5732 99.6904 36.5732C99.8936 36.5732 100.097 36.5654 100.3 36.5498C100.362 36.5498 100.417 36.5498 100.464 36.5498C100.526 36.5342 100.589 36.5264 100.651 36.5264C100.792 36.4951 100.894 36.4795 100.956 36.4795C101.034 36.4639 101.112 36.4404 101.19 36.4092C101.253 36.3936 101.331 36.3701 101.425 36.3389C101.503 36.3076 101.55 36.2842 101.565 36.2686C101.581 36.2529 101.604 36.2373 101.636 36.2217L101.706 35.9404C101.675 35.8779 101.651 35.8232 101.636 35.7764C101.636 35.7139 101.62 35.6592 101.589 35.6123C101.573 35.5654 101.534 35.4951 101.472 35.4014C101.425 35.3076 101.378 35.2295 101.331 35.167ZM108.09 41.4482C108.09 40.7764 108.137 40.0967 108.231 39.4092C108.34 38.5811 108.45 37.7607 108.559 36.9482C108.669 36.1201 108.715 35.2842 108.7 34.4404C108.7 34.1436 108.794 33.917 108.981 33.7607C109.169 33.6045 109.379 33.5264 109.614 33.5264C109.848 33.5264 110.067 33.6045 110.27 33.7607C110.473 33.917 110.575 34.1436 110.575 34.4404C111.184 34.3936 111.762 34.3701 112.309 34.3701C112.934 34.3857 113.465 34.5654 113.903 34.9092C114.34 35.2529 114.669 35.7139 114.887 36.292C115.075 36.8232 115.184 37.3701 115.215 37.9326C115.247 38.4951 115.27 39.0576 115.286 39.6201C115.301 40.417 115.325 41.2139 115.356 42.0107C115.387 42.792 115.403 43.5811 115.403 44.3779C115.403 44.6904 115.301 44.917 115.098 45.0576C114.911 45.2139 114.7 45.292 114.465 45.292C114.247 45.292 114.036 45.2139 113.833 45.0576C113.645 44.917 113.551 44.6904 113.551 44.3779C113.551 43.6279 113.536 42.8936 113.504 42.1748C113.489 41.4561 113.465 40.7217 113.434 39.9717C113.403 39.5654 113.387 39.1514 113.387 38.7295C113.403 38.292 113.372 37.8936 113.294 37.5342C113.247 37.3154 113.2 37.1279 113.153 36.9717C113.106 36.7998 113.02 36.6357 112.895 36.4795C112.864 36.417 112.794 36.3623 112.684 36.3154C112.59 36.2686 112.504 36.2451 112.426 36.2451C112.192 36.2451 111.973 36.2607 111.77 36.292C111.567 36.3232 111.356 36.3701 111.137 36.4326C111.044 36.4639 110.95 36.4951 110.856 36.5264C110.762 36.5576 110.676 36.5967 110.598 36.6436C110.442 37.2061 110.325 37.7451 110.247 38.2607C110.184 38.7607 110.122 39.2686 110.059 39.7842C110.012 40.1592 109.981 40.542 109.965 40.9326C109.965 41.3076 109.95 41.6826 109.919 42.0576C109.903 42.4326 109.856 42.8076 109.778 43.1826C109.715 43.5576 109.598 43.917 109.426 44.2607C109.286 44.5264 109.098 44.6748 108.864 44.7061C108.629 44.7529 108.411 44.7139 108.208 44.5889C108.02 44.4795 107.872 44.3076 107.762 44.0732C107.669 43.8389 107.684 43.5889 107.809 43.3232C107.95 43.042 108.028 42.7373 108.044 42.4092C108.059 42.0811 108.075 41.7607 108.09 41.4482ZM122.584 35.1436C123.147 34.7998 123.748 34.5029 124.389 34.2529C125.045 34.0029 125.709 33.8857 126.381 33.9014C126.319 32.5732 126.264 31.2529 126.217 29.9404C126.186 28.6279 126.162 27.3076 126.147 25.9795C126.147 25.6826 126.24 25.4639 126.428 25.3232C126.615 25.167 126.826 25.0889 127.061 25.0889C127.295 25.0889 127.506 25.167 127.694 25.3232C127.897 25.4639 127.998 25.6826 127.998 25.9795C128.014 27.5264 128.053 29.0811 128.115 30.6436C128.178 32.1904 128.24 33.7373 128.303 35.2842C128.365 36.8311 128.412 38.3857 128.444 39.9482C128.475 41.4951 128.467 43.042 128.42 44.5889C128.404 44.8857 128.295 45.1123 128.092 45.2686C127.889 45.4248 127.67 45.5029 127.436 45.5029C127.201 45.5029 126.99 45.4248 126.803 45.2686C126.615 45.1279 126.529 44.9014 126.545 44.5889C126.545 44.4795 126.545 44.3701 126.545 44.2607C126.545 44.1514 126.553 44.042 126.569 43.9326C126.412 43.917 126.256 43.9014 126.1 43.8857C125.959 43.8857 125.819 43.8857 125.678 43.8857C125.49 43.8857 125.303 43.8857 125.115 43.8857C124.928 43.8857 124.748 43.8779 124.576 43.8623C124.17 43.8311 123.764 43.792 123.358 43.7451C122.951 43.6982 122.553 43.6045 122.162 43.4639C121.772 43.3076 121.404 43.1201 121.061 42.9014C120.717 42.667 120.436 42.3623 120.217 41.9873C119.967 41.5967 119.756 41.1748 119.584 40.7217C119.428 40.2686 119.365 39.7998 119.397 39.3154C119.428 38.8311 119.537 38.3857 119.725 37.9795C119.912 37.5732 120.147 37.1982 120.428 36.8545C120.725 36.5107 121.053 36.1982 121.412 35.917C121.787 35.6357 122.178 35.3779 122.584 35.1436ZM126.592 42.0811C126.592 39.9873 126.545 37.8857 126.451 35.7764C125.936 35.7451 125.42 35.8389 124.904 36.0576C124.404 36.2607 123.944 36.4951 123.522 36.7607C123.287 36.9014 123.029 37.0654 122.748 37.2529C122.483 37.4248 122.233 37.6279 121.998 37.8623C121.779 38.0811 121.6 38.3232 121.459 38.5889C121.319 38.8545 121.248 39.1436 121.248 39.4561C121.264 39.7373 121.326 40.042 121.436 40.3701C121.545 40.6826 121.694 40.9404 121.881 41.1436C122.069 41.3467 122.279 41.5029 122.514 41.6123C122.748 41.7061 122.998 41.7842 123.264 41.8467C123.576 41.9092 123.873 41.9482 124.154 41.9639C124.451 41.9795 124.756 41.9951 125.069 42.0107C125.319 42.0107 125.569 42.0264 125.819 42.0576C126.069 42.0732 126.326 42.0811 126.592 42.0811ZM133.281 43.4639C133.406 42.7139 133.547 41.9795 133.703 41.2607C133.875 40.5264 134 39.7842 134.078 39.0342C134.14 38.2998 134.148 37.5811 134.101 36.8779C134.07 36.1592 134.117 35.4326 134.242 34.6982C134.273 34.4482 134.414 34.2607 134.664 34.1357C134.929 34.0107 135.172 33.9795 135.39 34.042C135.656 34.1201 135.836 34.2686 135.929 34.4873C136.039 34.7061 136.078 34.9404 136.047 35.1904C135.984 35.5498 135.953 35.917 135.953 36.292C135.969 36.667 135.984 37.042 136 37.417C136 38.1357 135.953 38.8545 135.859 39.5732C135.765 40.3232 135.64 41.0576 135.484 41.7764C135.344 42.4951 135.211 43.2217 135.086 43.9561C135.039 44.2061 134.89 44.3936 134.64 44.5186C134.39 44.6436 134.156 44.6748 133.937 44.6123C133.672 44.5342 133.484 44.3857 133.375 44.167C133.265 43.9482 133.234 43.7139 133.281 43.4639ZM134.406 32.6826C134.297 32.6514 134.187 32.6045 134.078 32.542C133.969 32.4639 133.89 32.3701 133.844 32.2607C133.797 32.1357 133.758 32.0264 133.726 31.9326C133.695 31.8389 133.679 31.7295 133.679 31.6045C133.679 31.4639 133.703 31.3232 133.75 31.1826C133.812 30.9014 133.937 30.6982 134.125 30.5732C134.187 30.4795 134.273 30.4092 134.383 30.3623C134.554 30.2529 134.75 30.1982 134.969 30.1982C135.187 30.1826 135.383 30.2373 135.554 30.3623C135.633 30.4248 135.711 30.4951 135.789 30.5732C135.867 30.6357 135.929 30.7217 135.976 30.8311C136.008 30.9092 136.039 30.9951 136.07 31.0889C136.117 31.1826 136.133 31.2764 136.117 31.3701C136.101 31.4795 136.086 31.5811 136.07 31.6748C136.054 31.7686 136.015 31.8545 135.953 31.9326C135.875 32.042 135.812 32.1201 135.765 32.167C135.719 32.2139 135.64 32.2764 135.531 32.3545C135.469 32.417 135.375 32.4639 135.25 32.4951C134.922 32.6826 134.64 32.7451 134.406 32.6826ZM143.579 50.4482C143.595 50.7451 143.509 50.9639 143.322 51.1045C143.15 51.2607 142.947 51.3389 142.712 51.3389C142.478 51.3389 142.259 51.2607 142.056 51.1045C141.853 50.9639 141.744 50.7451 141.728 50.4482C141.556 47.9482 141.454 45.4561 141.423 42.9717C141.392 40.4717 141.322 37.9717 141.212 35.4717C140.994 35.1279 140.978 34.7998 141.165 34.4873C141.15 34.3154 141.134 34.1592 141.119 34.0186C141.119 33.8623 141.111 33.6982 141.095 33.5264C141.079 33.2451 141.158 33.0342 141.329 32.8936C141.501 32.7373 141.697 32.6514 141.915 32.6357C142.15 32.6201 142.369 32.6826 142.572 32.8232C142.775 32.9482 142.9 33.1436 142.947 33.4092C143.212 33.2842 143.462 33.167 143.697 33.0576C143.947 32.9482 144.204 32.8389 144.47 32.7295C144.689 32.6357 144.931 32.5498 145.197 32.4717C145.462 32.3779 145.736 32.3076 146.017 32.2607C146.298 32.2139 146.572 32.1904 146.837 32.1904C147.119 32.1904 147.376 32.2373 147.611 32.3311C148.079 32.5186 148.462 32.7998 148.759 33.1748C149.072 33.5498 149.329 33.9639 149.533 34.417C149.72 34.8545 149.9 35.2998 150.072 35.7529C150.244 36.1904 150.337 36.6436 150.353 37.1123C150.369 37.5967 150.298 38.0498 150.142 38.4717C149.986 38.8936 149.767 39.2764 149.486 39.6201C149.22 39.9639 148.9 40.2686 148.525 40.5342C148.15 40.7998 147.751 41.0264 147.329 41.2139C146.876 41.417 146.408 41.5967 145.923 41.7529C145.439 41.9092 144.947 42.0107 144.447 42.0576C144.228 42.0889 144.017 42.0811 143.814 42.0342C143.626 41.9873 143.447 41.9248 143.275 41.8467C143.306 43.2998 143.337 44.7373 143.369 46.1592C143.415 47.5811 143.486 49.0107 143.579 50.4482ZM143.087 35.4248C143.119 36.1436 143.142 36.8623 143.158 37.5811C143.173 38.2842 143.197 38.9951 143.228 39.7139C143.322 39.7764 143.415 39.8389 143.509 39.9014C143.603 39.9482 143.704 40.0029 143.814 40.0654C143.939 40.1436 144.04 40.1904 144.119 40.2061C144.197 40.2061 144.322 40.1904 144.494 40.1592C144.837 40.0811 145.181 40.0029 145.525 39.9248C145.869 39.8311 146.197 39.7061 146.509 39.5498C146.806 39.4092 147.087 39.2607 147.353 39.1045C147.619 38.9326 147.861 38.7139 148.079 38.4482C148.22 38.2764 148.329 38.0811 148.408 37.8623C148.486 37.6279 148.509 37.3779 148.478 37.1123C148.462 36.7998 148.384 36.4795 148.244 36.1514C148.119 35.8232 147.994 35.5186 147.869 35.2373C147.79 35.0967 147.712 34.9561 147.634 34.8154C147.572 34.6592 147.494 34.5186 147.4 34.3936C147.259 34.2529 147.15 34.167 147.072 34.1357C146.634 34.1045 146.251 34.1279 145.923 34.2061C145.595 34.2842 145.267 34.3936 144.939 34.5342C144.626 34.6592 144.314 34.7998 144.001 34.9561C143.689 35.1123 143.384 35.2686 143.087 35.4248ZM154.581 43.4639C154.706 42.7139 154.847 41.9795 155.003 41.2607C155.175 40.5264 155.3 39.7842 155.378 39.0342C155.44 38.2998 155.448 37.5811 155.401 36.8779C155.37 36.1592 155.417 35.4326 155.542 34.6982C155.573 34.4482 155.714 34.2607 155.964 34.1357C156.229 34.0107 156.472 33.9795 156.69 34.042C156.956 34.1201 157.136 34.2686 157.229 34.4873C157.339 34.7061 157.378 34.9404 157.347 35.1904C157.284 35.5498 157.253 35.917 157.253 36.292C157.269 36.667 157.284 37.042 157.3 37.417C157.3 38.1357 157.253 38.8545 157.159 39.5732C157.065 40.3232 156.94 41.0576 156.784 41.7764C156.644 42.4951 156.511 43.2217 156.386 43.9561C156.339 44.2061 156.19 44.3936 155.94 44.5186C155.69 44.6436 155.456 44.6748 155.237 44.6123C154.972 44.5342 154.784 44.3857 154.675 44.167C154.565 43.9482 154.534 43.7139 154.581 43.4639ZM155.706 32.6826C155.597 32.6514 155.487 32.6045 155.378 32.542C155.269 32.4639 155.19 32.3701 155.144 32.2607C155.097 32.1357 155.058 32.0264 155.026 31.9326C154.995 31.8389 154.979 31.7295 154.979 31.6045C154.979 31.4639 155.003 31.3232 155.05 31.1826C155.112 30.9014 155.237 30.6982 155.425 30.5732C155.487 30.4795 155.573 30.4092 155.683 30.3623C155.854 30.2529 156.05 30.1982 156.269 30.1982C156.487 30.1826 156.683 30.2373 156.854 30.3623C156.933 30.4248 157.011 30.4951 157.089 30.5732C157.167 30.6357 157.229 30.7217 157.276 30.8311C157.308 30.9092 157.339 30.9951 157.37 31.0889C157.417 31.1826 157.433 31.2764 157.417 31.3701C157.401 31.4795 157.386 31.5811 157.37 31.6748C157.354 31.7686 157.315 31.8545 157.253 31.9326C157.175 32.042 157.112 32.1201 157.065 32.167C157.019 32.2139 156.94 32.2764 156.831 32.3545C156.769 32.417 156.675 32.4639 156.55 32.4951C156.222 32.6826 155.94 32.7451 155.706 32.6826ZM169.45 35.5186C169.747 35.5186 169.965 35.6123 170.106 35.7998C170.262 35.9873 170.34 36.1982 170.34 36.4326C170.34 36.667 170.262 36.8857 170.106 37.0889C169.965 37.2764 169.747 37.3701 169.45 37.3701C169.075 37.3857 168.7 37.3857 168.325 37.3701C167.965 37.3389 167.606 37.3076 167.247 37.2764C167.262 38.5107 167.239 39.7451 167.176 40.9795C167.129 42.2139 167.004 43.4404 166.801 44.6592C166.77 44.9248 166.629 45.1201 166.379 45.2451C166.129 45.3701 165.887 45.3936 165.653 45.3154C165.387 45.2373 165.2 45.0889 165.09 44.8701C164.997 44.667 164.973 44.4326 165.02 44.167C165.208 42.9795 165.309 41.792 165.325 40.6045C165.356 39.417 165.356 38.2217 165.325 37.0186C164.731 36.9248 164.129 36.8311 163.52 36.7373C162.911 36.6279 162.309 36.5342 161.715 36.4561C161.45 36.4248 161.262 36.2842 161.153 36.0342C161.028 35.7686 160.997 35.5264 161.059 35.3076C161.137 35.042 161.286 34.8623 161.504 34.7686C161.723 34.6592 161.958 34.6201 162.208 34.6514C162.723 34.7295 163.239 34.8154 163.754 34.9092C164.27 34.9873 164.794 35.0654 165.325 35.1436C165.309 35.0654 165.301 34.9482 165.301 34.792C165.301 33.3857 165.294 31.9951 165.278 30.6201C165.278 29.2451 165.348 27.8545 165.489 26.4482C165.52 26.1982 165.614 25.9795 165.77 25.792C165.942 25.6045 166.161 25.5107 166.426 25.5107C166.661 25.5107 166.879 25.6045 167.083 25.792C167.301 25.9795 167.395 26.1982 167.364 26.4482C167.208 27.9482 167.129 29.4404 167.129 30.9248C167.145 32.3936 167.169 33.8857 167.2 35.4014C167.575 35.4326 167.95 35.4639 168.325 35.4951C168.7 35.5107 169.075 35.5186 169.45 35.5186ZM182.936 33.1514C183.154 33.2764 183.303 33.4639 183.381 33.7139C183.459 33.9639 183.42 34.1982 183.264 34.417C182.873 34.9795 182.576 35.5967 182.373 36.2686C182.186 36.9404 181.967 37.5967 181.717 38.2373C181.451 38.9248 181.154 39.5889 180.826 40.2295C180.514 40.8701 180.178 41.5186 179.819 42.1748C179.787 42.2529 179.748 42.3232 179.701 42.3857C179.67 42.4326 179.639 42.4951 179.608 42.5732C179.67 42.8232 179.631 43.0498 179.49 43.2529C179.365 43.4404 179.194 43.5732 178.975 43.6514C178.334 44.7451 177.686 45.8232 177.029 46.8857C176.389 47.9639 175.748 49.0498 175.108 50.1436C174.951 50.4092 174.748 50.5576 174.498 50.5889C174.264 50.6201 174.045 50.5732 173.842 50.4482C173.639 50.3389 173.49 50.167 173.397 49.9326C173.303 49.7139 173.334 49.4717 173.49 49.2061C174.147 48.0811 174.811 46.9639 175.483 45.8545C176.154 44.7607 176.819 43.6514 177.475 42.5264C176.772 41.2607 176.1 39.9873 175.459 38.7061C174.819 37.4092 174.162 36.1201 173.49 34.8389C173.35 34.5732 173.326 34.3311 173.42 34.1123C173.529 33.8779 173.678 33.7061 173.865 33.5967C174.069 33.4717 174.287 33.4248 174.522 33.4561C174.772 33.4873 174.967 33.6357 175.108 33.9014C175.686 35.0264 176.256 36.1514 176.819 37.2764C177.381 38.3857 177.959 39.4951 178.553 40.6045C179.131 39.542 179.647 38.4248 180.1 37.2529C180.334 36.6123 180.553 35.9639 180.756 35.3076C180.975 34.6357 181.279 34.0264 181.67 33.4795C181.811 33.2607 181.998 33.1201 182.233 33.0576C182.467 32.9795 182.701 33.0107 182.936 33.1514ZM76.4311 72.5498C76.0717 72.2842 75.7436 71.9873 75.4467 71.6592C75.1654 71.3154 74.9076 70.9561 74.6732 70.5811C74.4545 70.2529 74.2436 69.9014 74.0404 69.5264C73.8373 69.1514 73.6576 68.7686 73.5014 68.3779C73.3451 67.9873 73.2201 67.5889 73.1264 67.1826C73.0482 66.7764 73.0248 66.3701 73.0561 65.9639C73.1029 65.167 73.1811 64.3857 73.2904 63.6201C73.4154 62.8389 73.5795 62.0732 73.7826 61.3232C73.8451 61.042 73.9232 60.7295 74.017 60.3857C74.1107 60.042 74.2279 59.7139 74.3686 59.4014C74.5248 59.0732 74.7045 58.7764 74.9076 58.5107C75.1107 58.2451 75.3686 58.042 75.6811 57.9014C76.1498 57.6982 76.6186 57.6279 77.0873 57.6904C77.5561 57.7373 78.0092 57.8623 78.4467 58.0654C78.8998 58.2686 79.3295 58.5186 79.7357 58.8154C80.142 59.0967 80.5248 59.3779 80.8842 59.6592C81.2123 59.9248 81.5326 60.2061 81.8451 60.5029C82.1732 60.7842 82.5092 61.0576 82.8529 61.3232C83.2592 61.6826 83.6654 62.042 84.0717 62.4014C84.4936 62.7607 84.8373 63.1748 85.1029 63.6436C85.4154 64.1748 85.5951 64.7139 85.642 65.2607C85.6889 65.792 85.6498 66.3232 85.5248 66.8545C85.3998 67.3701 85.2045 67.8779 84.9389 68.3779C84.6732 68.8779 84.3842 69.3623 84.0717 69.8311C83.7904 70.2373 83.4623 70.667 83.0873 71.1201C82.7279 71.5732 82.3217 71.9873 81.8686 72.3623C81.4311 72.7373 80.9545 73.0342 80.4389 73.2529C79.9389 73.4717 79.4076 73.5498 78.8451 73.4873C78.517 73.4404 78.2748 73.3154 78.1186 73.1123C77.8217 73.0654 77.5326 73.0029 77.2514 72.9248C76.9701 72.8467 76.6967 72.7217 76.4311 72.5498ZM74.9311 65.7998C74.8998 66.1904 74.9154 66.5498 74.9779 66.8779C75.0561 67.2061 75.1811 67.5732 75.3529 67.9795C75.5717 68.4326 75.8139 68.8936 76.0795 69.3623C76.3451 69.8154 76.6576 70.2295 77.017 70.6045C77.3295 70.9482 77.6889 71.1592 78.0951 71.2373C78.3607 71.2842 78.6186 71.3311 78.8686 71.3779C79.1186 71.4092 79.3686 71.4639 79.6186 71.542C79.7123 71.5107 79.8061 71.4795 79.8998 71.4482C79.9936 71.4014 80.0873 71.3389 80.1811 71.2607C80.4467 71.0889 80.6889 70.9014 80.9076 70.6982C81.1264 70.4951 81.3373 70.2842 81.5404 70.0654C81.9311 69.6279 82.3061 69.1514 82.6654 68.6357C83.0404 68.1201 83.3373 67.5889 83.5561 67.042C83.7748 66.4951 83.8607 65.9795 83.8139 65.4951C83.767 65.0107 83.5404 64.542 83.1342 64.0889C82.7592 63.667 82.3451 63.2842 81.892 62.9404C81.4545 62.5811 81.0248 62.2217 80.6029 61.8623C80.2436 61.5498 79.892 61.2529 79.5482 60.9717C79.2045 60.6904 78.8295 60.4248 78.4232 60.1748C78.0482 59.9248 77.6811 59.7373 77.3217 59.6123C77.2748 59.5967 77.2279 59.5889 77.1811 59.5889C77.1498 59.5732 77.1107 59.5576 77.0639 59.542L76.7123 59.5186C76.5873 59.5498 76.5092 59.5811 76.4779 59.6123C76.3686 59.7373 76.3061 59.7998 76.2904 59.7998C76.1811 59.9873 76.1107 60.1201 76.0795 60.1982C76.0482 60.2764 76.0014 60.4014 75.9389 60.5732C75.7826 61.0264 75.6498 61.4873 75.5404 61.9561C75.4311 62.4092 75.3373 62.8623 75.2592 63.3154C75.1811 63.7686 75.1107 64.1826 75.0482 64.5576C75.0014 64.9326 74.9623 65.3467 74.9311 65.7998ZM89.7998 64.1592C89.8154 63.8623 89.9248 63.6436 90.1279 63.5029C90.3311 63.3467 90.5498 63.2686 90.7842 63.2686C91.0186 63.2686 91.2217 63.3467 91.3936 63.5029C91.5811 63.6436 91.667 63.8623 91.6514 64.1592C91.6514 64.2529 91.6436 64.3545 91.6279 64.4639C91.6279 64.5576 91.6279 64.6514 91.6279 64.7451C92.1279 64.4951 92.6514 64.2842 93.1982 64.1123C93.7607 63.9248 94.3154 63.8076 94.8623 63.7607C95.4248 63.7139 95.9639 63.7607 96.4795 63.9014C97.0107 64.0264 97.4951 64.2764 97.9326 64.6514C98.1514 64.8545 98.2451 65.0732 98.2139 65.3076C98.1982 65.542 98.1045 65.7451 97.9326 65.917C97.7764 66.0732 97.5732 66.1748 97.3232 66.2217C97.0732 66.2529 96.8311 66.1748 96.5967 65.9873C96.4248 65.8467 96.2295 65.7451 96.0107 65.6826C95.8076 65.6201 95.5811 65.5967 95.3311 65.6123C95.0967 65.6123 94.8545 65.6357 94.6045 65.6826C94.3701 65.7295 94.1436 65.7842 93.9248 65.8467C93.0967 66.1123 92.3232 66.4639 91.6045 66.9014C91.6357 67.667 91.6826 68.4326 91.7451 69.1982C91.8076 69.8389 91.8623 70.5029 91.9092 71.1904C91.9561 71.8623 92.0889 72.5029 92.3076 73.1123C92.4014 73.3936 92.3779 73.6279 92.2373 73.8154C92.1123 74.0186 91.9326 74.1514 91.6982 74.2139C91.4795 74.2764 91.2451 74.2607 90.9951 74.167C90.7607 74.0732 90.5967 73.8857 90.5029 73.6045C90.3779 73.2451 90.292 72.8779 90.2451 72.5029C90.1982 72.1279 90.1514 71.7529 90.1045 71.3779C90.0732 71.0186 90.0342 70.6592 89.9873 70.2998C89.9561 69.9248 89.9248 69.5576 89.8936 69.1982C89.8154 68.3545 89.7607 67.5186 89.7295 66.6904C89.7139 65.8467 89.7373 65.0029 89.7998 64.1592ZM101.879 79.6982C102.223 80.0264 102.622 80.2529 103.075 80.3779C103.528 80.5186 103.981 80.5654 104.434 80.5186C104.887 80.4717 105.317 80.3389 105.723 80.1201C106.129 79.9014 106.465 79.5967 106.731 79.2061C107.294 78.4092 107.653 77.5264 107.809 76.5576C107.981 75.6045 108.051 74.6436 108.02 73.6748C107.27 73.7998 106.497 73.8232 105.7 73.7451C104.919 73.6826 104.176 73.5186 103.473 73.2529C103.114 73.1123 102.77 72.9482 102.442 72.7607C102.129 72.5576 101.879 72.2764 101.692 71.917C101.364 71.3076 101.223 70.6357 101.27 69.9014C101.301 69.1982 101.419 68.5186 101.622 67.8623C101.84 67.1904 102.083 66.5264 102.348 65.8701C102.489 65.5576 102.637 65.2295 102.794 64.8857C102.965 64.5264 103.184 64.2061 103.45 63.9248C103.715 63.6279 104.02 63.4014 104.364 63.2451C104.708 63.0889 105.075 62.9951 105.465 62.9639C105.403 62.7451 105.403 62.542 105.465 62.3545C105.528 62.1514 105.661 61.9873 105.864 61.8623C106.067 61.7373 106.301 61.7061 106.567 61.7686C106.848 61.8311 107.044 61.9717 107.153 62.1904C107.215 62.3311 107.27 62.4717 107.317 62.6123C107.379 62.7529 107.434 62.8936 107.481 63.0342C107.794 63.8779 108.075 64.7295 108.325 65.5889C108.59 66.4482 108.84 67.3154 109.075 68.1904C109.356 69.2217 109.567 70.2686 109.708 71.3311C109.848 72.3936 109.903 73.4717 109.872 74.5654C109.856 75.1748 109.801 75.7998 109.708 76.4404C109.629 77.0811 109.489 77.6982 109.286 78.292C109.083 78.8857 108.817 79.4482 108.489 79.9795C108.161 80.5264 107.739 80.9951 107.223 81.3857C106.739 81.7607 106.2 82.0264 105.606 82.1826C105.028 82.3545 104.434 82.4248 103.825 82.3936C103.231 82.3623 102.645 82.2295 102.067 81.9951C101.504 81.7607 101.004 81.4326 100.567 81.0107C100.348 80.8076 100.254 80.5811 100.286 80.3311C100.317 80.0967 100.419 79.8936 100.59 79.7217C100.747 79.5654 100.942 79.4717 101.176 79.4404C101.426 79.4092 101.661 79.4951 101.879 79.6982ZM104.481 71.6123C105.028 71.7529 105.59 71.8545 106.169 71.917C106.762 71.9639 107.333 71.9248 107.879 71.7998C107.786 71.0029 107.645 70.2373 107.458 69.5029C107.286 68.7686 107.09 68.0264 106.872 67.2764C106.747 66.8389 106.614 66.4092 106.473 65.9873C106.348 65.5654 106.215 65.1436 106.075 64.7217C106.028 64.7529 105.973 64.7764 105.911 64.792C105.848 64.792 105.778 64.7998 105.7 64.8154C105.231 64.8154 104.872 65.0264 104.622 65.4482C104.45 65.7139 104.309 65.9951 104.2 66.292C104.169 66.3701 104.137 66.4482 104.106 66.5264C104.075 66.5889 104.044 66.6592 104.012 66.7373C103.778 67.2998 103.575 67.8467 103.403 68.3779C103.247 68.8936 103.153 69.4014 103.122 69.9014V70.3232C103.137 70.4326 103.153 70.5186 103.169 70.5811C103.2 70.7217 103.215 70.8076 103.215 70.8389C103.231 70.8701 103.278 70.9482 103.356 71.0732C103.45 71.1514 103.536 71.2139 103.614 71.2607C103.692 71.3076 103.739 71.3389 103.754 71.3545C103.879 71.4014 103.997 71.4482 104.106 71.4951C104.231 71.542 104.356 71.5811 104.481 71.6123ZM115.623 73.0654C115.092 72.8311 114.67 72.5107 114.358 72.1045C114.061 71.6826 113.85 71.2217 113.725 70.7217C113.615 70.2217 113.584 69.7061 113.631 69.1748C113.678 68.6279 113.787 68.1045 113.959 67.6045C114.1 67.2139 114.256 66.8076 114.428 66.3857C114.615 65.9639 114.834 65.5732 115.084 65.2139C115.334 64.8545 115.631 64.5498 115.975 64.2998C116.319 64.0342 116.725 63.8623 117.194 63.7842C117.678 63.7061 118.162 63.6826 118.647 63.7139C119.147 63.7295 119.639 63.7764 120.123 63.8545C120.342 63.8857 120.553 63.9404 120.756 64.0186C120.959 64.0811 121.162 64.1514 121.365 64.2295C121.381 63.9951 121.483 63.7998 121.67 63.6436C121.873 63.4873 122.084 63.4092 122.303 63.4092C122.569 63.4092 122.779 63.5029 122.936 63.6904C123.108 63.8623 123.209 64.0732 123.24 64.3232C123.319 65.042 123.35 65.7607 123.334 66.4795C123.334 67.1982 123.311 67.917 123.264 68.6357C123.233 69.3545 123.201 70.0732 123.17 70.792C123.154 71.5107 123.162 72.2295 123.194 72.9482C123.209 73.2451 123.115 73.4717 122.912 73.6279C122.725 73.7686 122.514 73.8389 122.279 73.8389C122.045 73.8389 121.826 73.7686 121.623 73.6279C121.436 73.4717 121.334 73.2451 121.319 72.9482C120.428 73.3232 119.483 73.542 118.483 73.6045C117.483 73.6514 116.529 73.4717 115.623 73.0654ZM115.787 67.9795C115.694 68.2607 115.608 68.5811 115.529 68.9404C115.451 69.2998 115.428 69.6436 115.459 69.9717C115.49 70.2998 115.592 70.6045 115.764 70.8857C115.936 71.1514 116.217 71.3389 116.608 71.4482C117.404 71.6982 118.201 71.7686 118.998 71.6592C119.811 71.5498 120.569 71.2686 121.272 70.8154C121.334 70.0498 121.381 69.3076 121.412 68.5889C121.459 67.8701 121.475 67.1436 121.459 66.4092C121.194 66.2373 120.92 66.0889 120.639 65.9639C120.373 65.8232 120.076 65.7295 119.748 65.6826C119.42 65.6357 119.069 65.6045 118.694 65.5889C118.334 65.5576 117.983 65.5576 117.639 65.5889C117.608 65.5889 117.522 65.6123 117.381 65.6592C117.256 65.6904 117.186 65.7139 117.17 65.7295C117.014 65.8076 116.873 65.9326 116.748 66.1045C116.545 66.3857 116.365 66.6904 116.209 67.0186C116.053 67.3311 115.912 67.6514 115.787 67.9795ZM128.148 71.4482C128.148 70.7764 128.195 70.0967 128.289 69.4092C128.398 68.5811 128.508 67.7607 128.617 66.9482C128.726 66.1201 128.773 65.2842 128.758 64.4404C128.758 64.1436 128.851 63.917 129.039 63.7607C129.226 63.6045 129.437 63.5264 129.672 63.5264C129.906 63.5264 130.125 63.6045 130.328 63.7607C130.531 63.917 130.633 64.1436 130.633 64.4404C131.242 64.3936 131.82 64.3701 132.367 64.3701C132.992 64.3857 133.523 64.5654 133.961 64.9092C134.398 65.2529 134.726 65.7139 134.945 66.292C135.133 66.8232 135.242 67.3701 135.273 67.9326C135.304 68.4951 135.328 69.0576 135.344 69.6201C135.359 70.417 135.383 71.2139 135.414 72.0107C135.445 72.792 135.461 73.5811 135.461 74.3779C135.461 74.6904 135.359 74.917 135.156 75.0576C134.969 75.2139 134.758 75.292 134.523 75.292C134.304 75.292 134.094 75.2139 133.89 75.0576C133.703 74.917 133.609 74.6904 133.609 74.3779C133.609 73.6279 133.594 72.8936 133.562 72.1748C133.547 71.4561 133.523 70.7217 133.492 69.9717C133.461 69.5654 133.445 69.1514 133.445 68.7295C133.461 68.292 133.429 67.8936 133.351 67.5342C133.304 67.3154 133.258 67.1279 133.211 66.9717C133.164 66.7998 133.078 66.6357 132.953 66.4795C132.922 66.417 132.851 66.3623 132.742 66.3154C132.648 66.2686 132.562 66.2451 132.484 66.2451C132.25 66.2451 132.031 66.2607 131.828 66.292C131.625 66.3232 131.414 66.3701 131.195 66.4326C131.101 66.4639 131.008 66.4951 130.914 66.5264C130.82 66.5576 130.734 66.5967 130.656 66.6436C130.5 67.2061 130.383 67.7451 130.304 68.2607C130.242 68.7607 130.179 69.2686 130.117 69.7842C130.07 70.1592 130.039 70.542 130.023 70.9326C130.023 71.3076 130.008 71.6826 129.976 72.0576C129.961 72.4326 129.914 72.8076 129.836 73.1826C129.773 73.5576 129.656 73.917 129.484 74.2607C129.344 74.5264 129.156 74.6748 128.922 74.7061C128.687 74.7529 128.469 74.7139 128.265 74.5889C128.078 74.4795 127.929 74.3076 127.82 74.0732C127.726 73.8389 127.742 73.5889 127.867 73.3232C128.008 73.042 128.086 72.7373 128.101 72.4092C128.117 72.0811 128.133 71.7607 128.148 71.4482ZM140.181 73.4639C140.306 72.7139 140.447 71.9795 140.603 71.2607C140.775 70.5264 140.9 69.7842 140.978 69.0342C141.04 68.2998 141.048 67.5811 141.001 66.8779C140.97 66.1592 141.017 65.4326 141.142 64.6982C141.173 64.4482 141.314 64.2607 141.564 64.1357C141.829 64.0107 142.072 63.9795 142.29 64.042C142.556 64.1201 142.736 64.2686 142.829 64.4873C142.939 64.7061 142.978 64.9404 142.947 65.1904C142.884 65.5498 142.853 65.917 142.853 66.292C142.869 66.667 142.884 67.042 142.9 67.417C142.9 68.1357 142.853 68.8545 142.759 69.5732C142.665 70.3232 142.54 71.0576 142.384 71.7764C142.244 72.4951 142.111 73.2217 141.986 73.9561C141.939 74.2061 141.79 74.3936 141.54 74.5186C141.29 74.6436 141.056 74.6748 140.837 74.6123C140.572 74.5342 140.384 74.3857 140.275 74.167C140.165 73.9482 140.134 73.7139 140.181 73.4639ZM141.306 62.6826C141.197 62.6514 141.087 62.6045 140.978 62.542C140.869 62.4639 140.79 62.3701 140.744 62.2607C140.697 62.1357 140.658 62.0264 140.626 61.9326C140.595 61.8389 140.579 61.7295 140.579 61.6045C140.579 61.4639 140.603 61.3232 140.65 61.1826C140.712 60.9014 140.837 60.6982 141.025 60.5732C141.087 60.4795 141.173 60.4092 141.283 60.3623C141.454 60.2529 141.65 60.1982 141.869 60.1982C142.087 60.1826 142.283 60.2373 142.454 60.3623C142.533 60.4248 142.611 60.4951 142.689 60.5732C142.767 60.6357 142.829 60.7217 142.876 60.8311C142.908 60.9092 142.939 60.9951 142.97 61.0889C143.017 61.1826 143.033 61.2764 143.017 61.3701C143.001 61.4795 142.986 61.5811 142.97 61.6748C142.954 61.7686 142.915 61.8545 142.853 61.9326C142.775 62.042 142.712 62.1201 142.665 62.167C142.619 62.2139 142.54 62.2764 142.431 62.3545C142.369 62.417 142.275 62.4639 142.15 62.4951C141.822 62.6826 141.54 62.7451 141.306 62.6826ZM154.651 71.8701C154.714 72.0889 154.683 72.3232 154.558 72.5732C154.433 72.8232 154.245 72.9717 153.995 73.0186C153.151 73.1592 152.315 73.1514 151.487 72.9951C150.659 72.8232 149.894 72.4639 149.19 71.917C148.503 71.3701 148.011 70.6748 147.714 69.8311C147.433 68.9717 147.386 68.1123 147.573 67.2529C147.745 66.4873 148.104 65.8232 148.651 65.2607C149.198 64.6982 149.823 64.2607 150.526 63.9482C151.151 63.6514 151.808 63.417 152.495 63.2451C153.183 63.0732 153.87 63.0186 154.558 63.0811C154.823 63.1123 155.042 63.2139 155.214 63.3857C155.401 63.542 155.495 63.7529 155.495 64.0186C155.495 64.2529 155.401 64.4717 155.214 64.6748C155.042 64.8779 154.823 64.9717 154.558 64.9561C154.058 64.9092 153.565 64.9326 153.081 65.0264C152.597 65.1201 152.128 65.2686 151.675 65.4717C151.409 65.5967 151.144 65.7295 150.878 65.8701C150.628 66.0107 150.409 66.167 150.222 66.3389C150.019 66.5264 149.847 66.7139 149.706 66.9014C149.581 67.0889 149.487 67.3076 149.425 67.5576C149.362 67.8076 149.339 68.0732 149.354 68.3545C149.37 68.6357 149.417 68.917 149.495 69.1982C149.589 69.4639 149.714 69.7139 149.87 69.9482C150.026 70.167 150.214 70.3545 150.433 70.5107C150.886 70.8389 151.378 71.0654 151.909 71.1904C152.456 71.2998 152.987 71.3076 153.503 71.2139C153.753 71.167 153.987 71.1982 154.206 71.3076C154.425 71.417 154.573 71.6045 154.651 71.8701ZM160.075 68.4951C159.669 68.1982 159.379 67.8311 159.208 67.3936C159.036 66.9404 159.028 66.4639 159.184 65.9639C159.34 65.5107 159.583 65.1045 159.911 64.7451C160.239 64.3857 160.614 64.0967 161.036 63.8779C161.504 63.6279 162.004 63.4326 162.536 63.292C163.067 63.1514 163.606 63.0732 164.153 63.0576C164.7 63.042 165.239 63.0967 165.77 63.2217C166.317 63.3311 166.833 63.5107 167.317 63.7607C167.583 63.9014 167.731 64.0889 167.762 64.3232C167.794 64.5576 167.747 64.7764 167.622 64.9795C167.512 65.1826 167.34 65.3311 167.106 65.4248C166.872 65.5186 166.622 65.4951 166.356 65.3545C165.981 65.1514 165.559 65.0186 165.09 64.9561C164.622 64.8936 164.145 64.8936 163.661 64.9561C163.192 65.0029 162.747 65.1201 162.325 65.3076C161.903 65.4951 161.551 65.7373 161.27 66.0342C161.192 66.1123 161.137 66.167 161.106 66.1982C161.09 66.2295 161.059 66.2998 161.012 66.4092L160.965 66.667C161.012 66.8076 161.051 66.8936 161.083 66.9248C161.395 67.1279 161.715 67.2607 162.044 67.3232C162.387 67.3701 162.731 67.4014 163.075 67.417C163.559 67.4482 164.051 67.4795 164.551 67.5107C165.067 67.5264 165.559 67.5889 166.028 67.6982C166.512 67.8076 166.958 67.9873 167.364 68.2373C167.77 68.4873 168.114 68.8545 168.395 69.3389C168.708 69.8857 168.848 70.4561 168.817 71.0498C168.801 71.6279 168.575 72.1514 168.137 72.6201C167.7 73.0889 167.192 73.417 166.614 73.6045C166.036 73.7764 165.45 73.9014 164.856 73.9795C164.325 74.042 163.77 74.0576 163.192 74.0264C162.629 73.9951 162.083 73.9014 161.551 73.7451C161.036 73.6045 160.551 73.3857 160.098 73.0889C159.645 72.7764 159.27 72.3701 158.973 71.8701C158.833 71.6201 158.809 71.3857 158.903 71.167C158.997 70.9326 159.137 70.7607 159.325 70.6514C159.528 70.5264 159.747 70.4795 159.981 70.5107C160.231 70.542 160.434 70.6826 160.59 70.9326C160.809 71.292 161.114 71.5654 161.504 71.7529C161.895 71.9404 162.317 72.0732 162.77 72.1514C163.239 72.2139 163.708 72.2295 164.176 72.1982C164.645 72.1514 165.067 72.0889 165.442 72.0107C165.645 71.9639 165.848 71.9014 166.051 71.8232C166.27 71.7295 166.45 71.6201 166.59 71.4951C166.747 71.3701 166.856 71.2295 166.919 71.0732C166.981 70.9014 166.973 70.7139 166.895 70.5107C166.739 70.1201 166.473 69.8389 166.098 69.667C165.739 69.4951 165.356 69.3936 164.95 69.3623C164.544 69.3311 164.129 69.3154 163.708 69.3154C163.286 69.3154 162.864 69.2998 162.442 69.2686C162.02 69.2217 161.606 69.1436 161.2 69.0342C160.794 68.9248 160.419 68.7451 160.075 68.4951Z" fill="#4A2F2C"/>
</svg>
