<svg width="26" height="26" viewBox="0 0 26 26" fill="none" xmlns="http://www.w3.org/2000/svg">
<path d="M3.90425 8.54677C3.90425 8.57536 4.01011 9.32915 4.00754 10.6188C4.00654 11.1229 3.98116 11.3103 3.95152 11.5864C3.93654 11.7258 3.91657 11.8635 3.88365 12.8598C3.85073 13.8562 3.80415 15.7069 3.8966 17.6199C3.98904 19.5329 4.22191 21.4521 4.35684 22.5005C4.36009 22.5257 4.36331 22.5505 4.36652 22.5748C4.48549 23.4786 4.97214 24.2858 5.83705 24.5738C6.10804 24.664 6.4459 24.6979 6.90383 24.7302C7.36177 24.7625 7.93634 24.7681 8.77883 24.6457C9.62132 24.5233 10.7143 24.2726 11.4825 24.1185C12.2507 23.9644 12.661 23.9145 13.8604 23.8812C15.0598 23.848 17.1791 23.7981 18.1994 23.7508M3.90425 8.54677C2.82377 8.5658 2.2717 8.62408 1.76957 8.4005C1.49613 8.27875 1.14401 8.10888 0.923312 7.65701C0.816358 7.43804 0.650707 6.94761 0.828043 6.53335C0.965782 6.21158 1.13108 5.79841 1.55549 5.47338C1.76817 5.3105 2.07362 5.16217 2.32505 5.12682C2.5302 5.09798 2.74003 5.05462 3.28147 5.04305C3.49003 5.0386 3.76497 5.04388 5.76476 4.95272C7.76455 4.86155 11.287 5.28202 14.0758 5.07347C16.8646 4.86493 18.3319 4.581 19.635 4.47092C20.9382 4.36084 22.1524 3.79248 22.6084 3.85813C23.2981 3.95742 23.5909 4.02852 23.6963 4.10592C23.9918 4.32295 24.5468 4.75686 24.6564 5.26478C24.7464 5.68187 24.9026 7.25247 24.3776 7.40803C24.2843 7.43567 24.1455 7.48213 24.0519 7.50118C23.7467 7.56328 22.8061 7.7347 22.2302 7.81015M3.90425 8.54677C4.60848 8.53437 5.62794 8.46492 8.35948 8.36842C11.091 8.27192 15.5034 8.13732 17.8431 8.05911C20.1827 7.9809 20.3159 7.96315 20.4684 7.9396C20.7891 7.89007 22.0831 7.82884 22.2302 7.81015M3.90425 8.54677L22.2302 7.81015M18.1887 23.7574C18.4591 23.7601 20.1965 23.7666 20.5651 23.7574C21.4406 23.7355 22.15 23.0254 22.2257 22.1529C22.2468 21.9089 22.2613 21.6858 22.2613 21.5312C22.2613 21.1163 22.2559 21.0159 22.2525 19.221C22.2491 17.4261 22.1671 11.5194 22.2302 7.81015M8.85645 4.6155C8.85919 4.02358 8.89313 2.72411 9.00834 2.39933C9.1407 2.02624 9.52312 1.66087 9.8964 1.33045C10.2334 1.03217 10.4807 0.996913 11.1542 0.819733C11.35 0.768201 11.538 0.75997 12.0743 0.752642C12.6107 0.745313 13.4929 0.752606 14.341 0.782433C15.1891 0.81226 15.9765 0.864401 16.4101 0.89887C17.2914 0.968914 18.0296 1.27062 18.1966 1.45043C18.5576 1.83905 18.5693 4.07817 18.5232 4.48463M8.86514 11.3678C8.86514 11.3712 8.86514 11.3745 8.87942 12.121L8.87978 12.1402C8.89418 12.8929 8.92239 14.3678 8.93837 15.5932C8.95448 16.8292 8.95727 17.7663 8.96395 18.3255C8.9982 19.2415 9.02439 19.615 9.05035 19.891C9.05879 19.935 9.07019 19.9778 9.14602 20.1291M12.7012 11.6172L12.7118 13.0567C12.7225 14.4931 12.7437 17.3641 12.7605 18.8687C12.7773 20.3732 12.789 20.4244 12.8118 20.4792M16.5926 11.1546L16.5946 11.3986C16.5966 11.6389 16.6006 12.1177 16.6878 13.7002C16.7749 15.2826 16.9451 17.9541 17.1204 20.7067" stroke="#4A2F2C" stroke-width="1.5" stroke-linecap="round"/>
</svg>
