<svg width="40" height="40" viewBox="0 0 40 40" fill="none" xmlns="http://www.w3.org/2000/svg">
<path d="M19.8681 22.2805C17.5774 23.2572 15.1496 23.8796 13.2244 23.2457C11.4934 22.6758 9.87151 21.5228 8.97102 19.965C8.09207 18.4446 7.91232 16.5354 8.03416 14.6649C8.20466 12.0474 10.1438 9.30117 12.2709 8.55175C14.4007 7.80137 16.6702 7.83087 18.7837 8.55198C20.5416 9.15182 22.2029 10.2301 23.4811 11.7368C24.3191 12.7246 24.846 15.0443 24.7262 16.6664C24.6391 17.8462 24.1505 18.2955 23.4811 19.359C23.2293 19.7591 22.9341 20.1269 22.6042 20.4626M19.8681 22.2805L20.6662 23.2457M19.8681 22.2805C20.8954 21.8425 21.8425 21.2379 22.6042 20.4626M20.6662 23.2457C20.6662 23.2457 20.3465 23.4827 19.8681 23.8619C19.4966 24.1564 20.5816 25.7797 21.9674 27.1555C22.366 27.5512 23.1421 27.7755 23.4811 28.1279C23.8865 28.5492 24.3084 29.0318 24.7262 29.5097C26.3771 31.6716 27.0257 32.14 27.6788 31.9673C28.566 31.7328 29.6031 31.1701 30.4937 30.2609C30.5871 30.1656 30.8817 29.9352 30.9785 29.8392C31.608 29.2153 32.2831 29.5097 31.8765 28.1279C31.4699 26.7461 28.469 24.2411 28.469 24.2411C28.469 24.2411 24.7409 20.6823 24.4688 20.7809C24.1967 20.8795 23.4811 21.3971 23.4811 21.3971M20.6662 23.2457C20.6662 23.2457 21.3652 22.8772 21.9658 22.5C22.5933 22.1059 23.4811 21.3971 23.4811 21.3971M23.4811 21.3971L23.0427 20.9299L22.6042 20.4626M13 11C14.9321 9.50433 16.6124 10.2671 18.91 11.0901C21.7222 12.0974 22 14 22 15.5C22 18.5749 20.5101 19.9389 17.5 20.5C14.5907 21.0423 12.9434 21.0945 11.5 18.5C10.5319 16.7598 10.1093 15.4531 10.7406 13.6644C11.1128 12.6098 12.0732 11.7174 13 11Z" stroke="#4A2F2C" stroke-width="1.5"/>
</svg>
