<svg width="242" height="104" viewBox="0 0 242 104" fill="none" xmlns="http://www.w3.org/2000/svg">
<path d="M207.83 90.6554C196.699 94.5051 175.852 94.8431 175.852 94.8431C175.852 94.8431 89.6442 97.0217 75.8345 94.4243C66.9821 92.7593 42.4953 92.7492 22.0836 86.8864C1.67192 81.0236 5.75426 67.623 13.9189 59.6664C22.0836 51.7097 13.9189 44.1406 36.0955 31.0689C51.0647 22.2455 85.0423 15.8186 85.0423 15.8186C85.0423 15.8186 127.771 11.5078 137.069 9.83267C154.487 6.48251 158.336 7.5397 171.089 9.83267C185.736 12.4663 192.561 16.8407 203.067 23.6521C211.49 29.1131 213.441 33.2475 220.757 39.5654C235.229 52.0629 235.229 58.9949 235.229 58.9949C235.229 58.9949 234.74 69.6437 229.602 76.8359C224.686 83.7176 218.478 86.9726 207.83 90.6554Z" fill="#E8DCCD"/>
<path d="M26.2669 52.6537C25.5521 55.5993 23.3641 61.8276 19.435 65.3267C12.8068 73.3852 13.138 75.2377 24.2897 79.2057C29.8721 80.8247 35.6969 81.988 41.473 82.9311C43.9757 83.3323 43.7443 83.8315 44.4413 83.9981C46.3655 84.4474 47.6168 83.9556 49.0375 84.1637C55.9615 85.1752 62.5139 85.711 69.6775 86.551C77.2302 87.5359 73.4685 88.8389 76.1324 89.6249C76.3401 89.6911 76.5294 89.7516 76.703 89.8066C79.9261 90.8368 77.1237 88.3949 78.6656 88.1187C83.688 88.7717 89.4999 89.14 95.0204 89.5023C93.7025 89.6796 92.2448 89.8446 90.9073 89.9951C93.3162 90.1088 96.8381 90.5137 92.7181 90.993C93.6517 91.1724 94.4558 91.373 95.3842 91.5439C95.6652 90.7596 99.9802 90.7622 100.4 90.2938C100.8 89.8288 98.3534 89.9053 98.3776 89.8636C98.5426 89.2943 108.52 90.1789 109.276 90.2345C111.171 90.4133 109.503 91.3927 111.124 91.3326C113.924 91.2268 112.072 89.2272 115.85 91.883C117.357 91.0161 117.498 91.4647 119.401 91.5177C119.652 91.5242 119.455 91.0247 119.566 91.0112C122.455 90.6275 120.237 91.5675 120.252 91.6178C120.518 92.4734 123.624 92.0766 124.277 92.1538C132.486 93.121 138.536 93.7427 147.194 93.85C149.092 93.8727 154.762 93.4302 156.598 93.5413C158.394 93.6522 157.444 94.2865 158.372 94.5655C159.858 93.0535 161.258 92.864 164.662 93.7725C165.865 92.6651 165.8 93.5402 168.15 93.2735C170.105 93.0523 173.677 91.6731 175.798 92.7269C173.406 92.6845 173.534 93.2132 170.757 93.5972C169.837 93.7282 159.893 93.9538 160.704 95.0419C161.069 95.612 164.379 95.0164 164.478 95.1203C165.212 95.725 163.438 96.5233 161.783 96.2887C162.154 96.1564 162.679 96.0191 163.113 95.8853C159.443 95.183 162.054 98.1075 159.189 95.5621C158.828 95.2499 158.96 94.9149 158.404 94.5864C158.294 94.7286 158.971 95.0635 158.395 95.1365C157.809 95.2102 156.644 94.5717 156.478 95.1306C156.244 95.9436 158.736 95.5792 158.904 95.6231C158.905 95.6182 158.907 95.6133 158.909 95.6084C160.604 96.0058 157.133 96.1199 156.966 96.1991C155.893 96.7223 156.616 97.0974 155.013 97.542C154.138 97.7947 151.698 97.6965 150.88 97.7862C150.029 97.8786 151.362 98.2392 150.79 98.3307C150.217 98.4222 149.491 98.1433 148.804 98.2494C148.509 98.296 148.531 98.7222 148.388 98.7393C146.866 98.9271 147.857 98.0246 146.493 98.0994C145.619 98.1489 142.6 99.019 144.689 99.2355C143.675 99.336 142.748 99.4118 141.759 99.4923C142.381 99.6108 143.02 99.6882 143.62 99.829C141.786 99.6515 140.948 100.392 139.776 100.462C138.624 100.531 137.578 99.6675 136.299 100.11C133.582 101.05 140.308 100.552 141.174 100.7C141.503 100.76 140.251 101.463 140.055 101.485C139.192 101.582 138.187 101.103 137.522 101.133C135.138 101.244 133.718 101.907 131.447 102.059C123.76 102.58 114.213 102.983 106.884 103.084C104.201 103.123 102.497 102.378 101.312 102.386C98.3933 102.401 98.1344 103.031 95.5584 103.02C91.8332 103.008 86.5529 102.299 83.3849 102.002C81.17 101.806 79.0397 102.248 78.477 102.208C77.8243 102.163 77.1964 102.112 76.5925 102.051C75.9352 101.984 75.1474 101.884 74.4539 101.765C68.8407 100.989 60.5679 100.571 55.1526 100.039C52.1123 99.7669 50.7158 98.924 50.0943 98.881C47.372 98.6787 48.0342 99.3435 45.8368 99.0296C44.6441 98.8559 44.4924 98.2642 44.3362 98.2229C42.9565 97.8616 42.5806 98.557 41.4769 98.4324C35.1237 97.7016 29.0735 96.1398 22.8053 94.4394C22.3504 94.3147 22.4756 94.0085 22.1762 93.9461C20.8989 93.6823 21.3309 94.3287 20.0376 94.0098C20.0242 94.0064 20.0107 94.0029 19.997 93.9993C17.0054 93.2127 13.8815 91.9981 10.705 90.0797C10.4053 89.8943 10.4506 89.4404 9.73952 88.9825C9.04743 88.5248 8.23477 88.4674 7.13492 87.5415C4.26501 85.1156 1.84964 81.2599 0.908202 76.7359C0.751272 76.0055 0.0903831 75.1344 0.0304556 73.9784C-0.262439 70.2588 1.62279 65.7642 2.77348 63.6106C4.54458 60.0556 6.73121 57.2488 9.15588 54.7788C10.453 53.3582 10.8162 52.5251 11.616 49.8633C11.9631 48.6846 12.8005 47.4721 13.0768 46.6849C13.7332 44.8628 12.7954 46.1165 13.5429 44.1926C17.6772 34.3839 25.7181 29.3886 32.6387 25.2042C38.3435 21.9497 43.9317 19.9298 49.5426 17.9966C54.7338 16.2287 60.9494 13.9958 66.0335 12.8352C68.1522 12.3529 68.6858 12.8569 70.1562 12.5047C72.8053 11.8767 73.1164 10.9952 75.9071 10.2868C78.1455 9.72459 80.8247 9.95553 83.2343 9.43217C83.3276 9.4118 83.4125 9.39183 83.5323 9.36403C83.5844 9.35165 83.6287 9.34053 83.6655 9.33059C83.6713 9.32657 83.8187 9.29524 83.8082 9.29389L84.3758 9.21173C86.2475 8.87552 87.3546 8.11172 89.7698 7.77837C91.9443 7.47901 95.0547 7.50288 97.4394 7.19481C110.314 5.49002 123.66 3.948 135.676 2.10003L135.585 2.11699C144.288 0.38833 155.162 -1.09241 164.935 1.09763C167.466 1.57293 169.916 2.07134 172.397 2.55524C178.342 3.69555 184.736 5.52031 190.226 8.55963C190.96 8.97408 189.507 9.09561 191.986 10.0975C193.302 10.6453 195.407 10.9901 198.218 12.6018C201.2 14.3167 203.997 16.158 206.738 17.9896C214.407 22.7602 219.597 30.3717 224.757 34.9332C230.46 40.3234 236.12 45.5805 240.009 54.1792C240.242 54.7554 240.469 55.379 240.669 56.067C240.769 56.4116 240.865 56.7836 240.948 57.1834C240.992 57.3964 241.032 57.6141 241.067 57.8513C241.085 57.9728 241.104 58.1181 241.119 58.2572C241.137 58.4663 241.152 58.4717 241.162 58.9949L241.155 59.2672C240.665 66.7026 239.644 73.559 235.195 80.8315C229.396 90.4672 218.524 95.4684 210.445 98.2159C197.708 102.116 186.935 101.392 176.589 98.6773C175.37 98.3279 175.993 96.4682 176.685 95.9248C177.356 96.2814 177.964 96.7064 178.684 97.102C179.449 94.7568 179.313 95.3827 182.512 95.4113C184.482 95.4194 182.85 94.5316 183.878 94.1851C185.211 93.7651 191.377 92.05 190.322 93.6766C190.683 93.3736 191.016 93.0833 191.369 92.7841C195.866 92.0557 200.221 91.0304 204.292 89.5269C204.991 89.2617 204.895 88.7915 205.592 88.5065C206.042 88.318 206.501 88.1497 206.913 88.006C208.305 87.5208 209.639 87.2243 211.141 86.6077C212.221 86.158 212.17 85.5885 213.568 85.0364C214.945 84.4724 215.266 85.1682 216.707 83.5449C215.165 83.3165 220.52 81.2647 221.91 79.8793C222.156 79.6985 223.296 77.5847 224.13 76.7621C224.72 76.2113 225.634 75.5343 226.417 74.5606C226.764 74.136 227.073 73.6372 227.283 73.0744C227.585 72.2559 227.232 71.502 227.576 70.6535C227.816 70.0565 228.658 69.5338 228.969 68.7201C229.295 67.9116 229.348 65.9621 229.415 65.6221C229.682 64.3956 229.755 65.8397 229.975 65.0062C230.475 63.0762 230.921 60.7471 231.079 58.8041L231.075 58.9949C231.077 59.1569 231.079 59.1303 231.08 59.1651C231.082 59.1912 231.082 59.1958 231.083 59.2049C231.085 59.2213 231.086 59.2246 231.087 59.2241C231.087 59.2214 231.086 59.2046 231.083 59.1778C231.077 59.1288 231.065 59.0553 231.046 58.9698C231.012 58.8079 230.957 58.6021 230.891 58.3995C230.757 57.9813 230.572 57.5306 230.355 57.082C229.916 56.1724 229.357 55.2816 228.735 54.455C228.433 54.0535 228.407 54.8976 228.354 54.8476C226.012 52.4606 227.504 53.5568 227.324 52.5577C227.235 51.5326 222.423 46.6242 221.734 47.2399C222.33 46.3427 220.661 45.8488 220.346 45.6021C219.134 44.6414 219.947 44.1513 218.637 43.3651C218.15 43.0738 218.558 44.2522 218.122 43.8442C217.926 43.6617 217.751 43.4578 217.586 43.2372C216.756 42.1651 216.226 40.778 215.014 39.4971C214.653 39.1132 214.222 39.3117 213.577 38.6478C212.905 37.9703 210.696 34.8804 211.227 36.7768C210.193 34.6299 209.605 34.5667 207.865 32.8348C207.426 32.405 207.334 31.3309 206.2 30.6425C205.813 30.4105 205.388 30.9442 204.88 30.5332C203.726 29.6127 203.006 28.1894 201.385 27.0824C201.261 26.9983 201.135 26.9142 201.007 26.8303C197.841 24.7682 194.323 23.012 191.166 21.0482C190.268 20.4959 190.832 20.0112 189.477 19.2835C189.274 19.1728 187.371 18.8782 186.448 18.405C185.906 18.0926 183.047 16.4722 182.42 16.2371C181.401 15.8152 181.008 16.3913 180.482 16.0808C178.95 15.2043 180.554 14.665 178.172 15.3633C177.708 14.4567 176.494 14.2178 176.329 13.2369C175.376 14.0341 174.699 12.8807 173.23 12.9165C172.047 12.9498 170.843 14.0928 170.454 13.365C170.36 13.1994 170.31 12.9383 170.313 12.5474C169.601 12.6776 166.667 12.5842 166.193 12.5336C164.769 12.3726 165.63 11.9371 164.554 11.8306C164.368 11.813 164.493 12.2312 163.32 11.9992C162.519 11.7846 157.007 11.1262 156.695 11.1351C152.973 10.3836 158.748 10.8007 159.634 10.5526C159.768 10.6804 159.9 10.8089 160.041 10.9373C161.701 11.3343 160.865 10.3255 160.11 10.026C159.354 9.7234 157.879 9.99103 157.259 9.66513C156.948 9.50133 157.204 8.43543 158.191 8.63988C157.151 8.23138 158.634 7.99381 158.236 7.65311C157.804 7.21162 152.874 7.03275 152.875 7.67941C153.785 7.66827 154.912 7.64308 155.827 7.69459C156.905 8.76116 153.487 12.0858 150.304 10.9849C147.896 10.207 151.665 8.95973 146.203 10.4649C147.062 10.391 147.794 10.3989 148.574 10.3584C148.736 11.1124 147.394 10.4109 146.775 10.7402C146.481 10.8969 148.451 11.1987 146.826 11.5854C145.257 10.6844 144.294 11.9362 141.916 12.3526C142.55 12.0454 143.179 11.7441 143.824 11.4444C139.621 11.3136 149.075 9.52294 141.04 10.3801C141.984 10.1798 142.937 10.0309 143.909 9.8261C143.377 9.50056 143.951 8.21384 143.489 8.03237C142.268 7.55644 140.677 8.22658 139.32 8.41557C138.722 8.49991 139.033 8.11851 138.983 8.12569C138.148 8.24315 138.429 8.66764 137.725 8.83046C137.527 8.87635 137.238 8.91464 136.899 8.94957L136.91 8.94763C135.788 9.04623 134.15 9.01286 133.818 9.10117C132.712 9.3929 134.713 10.0409 134.597 10.1258C133.965 10.6731 132.505 10.4993 132.651 11.07C133.721 10.7896 135.567 10.5022 137.148 10.2691C140.445 9.74675 142.948 9.74114 137.376 11.4277L137.357 11.4312C137.306 11.4469 137.252 11.4628 137.197 11.4789C137.258 11.4913 137.317 11.5043 137.373 11.5178L137.393 11.5141C139.244 11.8968 139.353 12.7945 137.78 13.5262L137.736 13.5343C137.261 13.7501 136.561 13.9514 135.734 14.1001C132.738 14.6252 134.623 13.8225 132.993 13.4705C132.778 13.4333 128.796 13.6727 128.659 14.0952C128.701 13.1469 127.323 12.4834 128.06 11.4185C128.161 11.2635 129.78 11.1149 129.118 10.4161C128.77 10.0674 127.89 9.32227 127.952 8.81409C127.669 9.19737 127.371 9.62579 127.074 10.0253C124.693 10.4193 124.307 10.0885 122.906 9.60675C123.002 9.86602 124.351 10.8438 122.462 10.7211C122.365 10.7118 122.242 10.3186 121.277 10.2288C119.331 10.0494 118.933 9.96831 120.24 8.61913C116.402 9.74524 115.4 8.52227 111.422 9.35415C112.39 10.786 113.767 10.2552 117.419 9.54376C117.62 9.88715 117.736 10.2365 117.942 10.5831C112.943 10.3193 115.373 10.1286 112.677 11.1733C112.015 11.4298 108.364 11.6355 109.688 12.5266C110 12.7367 112.254 12.4601 112.037 12.8683C111.994 12.9467 109.273 13.4322 109.017 13.3604C105.853 12.4779 111.179 11.0496 102.874 12.391C102.643 12.4289 102.608 12.8806 102.163 12.9905C101.325 13.1963 101.28 12.682 100.522 12.8824C99.77 13.0824 98.8043 13.8827 97.5951 13.3649C95.406 12.4205 100.228 11.2376 102.478 11.6191C103.21 10.0132 87.5875 11.6182 86.6471 11.8366C82.452 12.8362 89.4975 11.7877 89.8824 12.1719C90.0732 12.3322 90.1785 14.6049 91.837 12.9515C92.3283 12.4615 90.0332 12.1208 91.3478 11.7425C92.6197 11.3686 92.176 12.0868 92.2745 12.1235C92.6231 12.2482 93.9884 11.8567 94.1798 11.932C97.1137 13.0717 97.0965 15.2607 93.0686 12.4514C91.5191 13.3426 95.3325 14.109 93.4017 14.8055C91.0341 15.6541 89.1272 14.8088 88.8358 14.7919C85.0937 14.6219 89.4694 15.6827 85.0268 15.6647L85.0136 15.6666C85.0132 15.6651 85.0058 15.6648 84.9912 15.6659C83.868 15.761 84.4156 15.4346 84.9147 15.1437L84.9734 15.1352C85.1725 15.0346 85.3426 14.941 85.4134 14.8703C85.4755 14.8005 85.2735 14.7704 84.9371 14.7752L84.8474 14.7882C84.4928 14.8282 83.8476 14.9453 82.8694 15.1619C78.1393 16.2308 80.8434 16.2096 80.729 17.4533C80.7284 17.7399 78.2195 18.6257 81.6863 17.762C81.724 17.4357 81.798 17.0005 81.9773 16.6696C82.885 16.712 84.6085 17.9564 85.0681 17.9237C85.2435 17.9052 85.3275 17.9009 85.434 17.8893L85.2539 17.9153C87.149 17.8577 87.0126 17.2049 88.385 17.9659C87.3603 17.0224 88.926 17.4938 89.5018 17.2131C91.5992 16.1805 88.6838 16.1796 93.6832 16.7095C92.9724 16.2918 92.3752 15.8714 91.711 15.4504C92.2942 15.3731 92.8488 15.2982 93.4551 15.2182C94.4032 16.2025 97.5118 15.7385 94.8125 17.1111C98.2185 17.0647 99.5578 16.6857 100.197 15.7756C100.318 15.602 100.826 15.4838 101.418 15.4053C101.282 15.1829 101.063 14.4741 101.146 14.3756C101.884 13.5077 103.341 14.7157 102.949 15.2783C103.375 15.2577 103.699 15.2522 103.817 15.2522C104.557 15.2537 103.173 15.8728 103.783 15.9689C103.977 16.0007 106.055 15.6746 106.108 15.8601C106.495 17.0446 102.975 16.5432 109.914 16.5013C109.956 15.38 106.803 15.9689 107.492 14.7073C108.229 13.3528 110.208 14.8463 110.427 13.2581C110.6 13.4962 110.688 13.701 110.844 13.9765C113.542 12.9976 113.721 14.2792 114.599 14.469C116.302 14.8436 123.867 13.8914 116.943 13.5537C117.93 13.3293 118.926 13.1634 119.909 12.9504C120.402 15.2286 119.69 14.3885 124.497 14.1765C125.535 14.1313 126.033 15.0995 126.9 13.7719C126.887 14.9734 129.928 13.8706 130.24 13.9736C132.231 14.6699 125.446 16.8399 124.323 14.8464C123.241 15.7994 123.134 14.7223 121.846 15.0174C119.993 15.4415 119.748 15.6821 117.436 15.1412C115.37 16.5132 126.082 14.6439 119.713 16.8825C115.746 18.2856 99.5286 20.7436 85.7234 22.5692L86.3034 22.4853C78.3942 24.2974 71.1522 26.2926 68.016 27.2034C55.6553 30.8827 47.8201 33.5958 40.1127 37.8841C38.3411 38.9382 36.5823 40.0523 34.8324 41.3139C34.3309 41.6674 32.2613 43.2597 30.7915 44.554C29.2824 45.8506 28.2654 46.8458 28.2005 45.8309C28.1056 45.5589 30.2544 42.4628 27.3527 44.1722C28.2132 44.0761 27.3651 45.7236 27.3568 45.8813C26.9997 47.6425 27.3371 48.0971 27.3243 48.6866C27.3261 49.3583 27.1497 49.6264 26.2669 52.6537ZM4.58416 67.0359C6.85311 61.9277 7.54618 61.6301 6.9078 61.6032C6.35923 61.6405 4.95528 62.5622 4.76228 61.0183C3.94552 62.29 3.20725 63.6487 2.58625 65.1291C2.86271 64.7844 3.13967 64.4651 3.42692 64.1473C3.42767 64.1457 3.42843 64.1441 3.42918 64.1425C3.75871 65.1443 4.14031 66.1204 4.58416 67.0359ZM146.309 100.463C145.952 100.727 145.598 100.991 145.206 101.25C143.956 101.188 142.76 101.126 141.527 101.062C141.672 100.885 141.811 100.705 141.954 100.528C143.392 100.516 144.855 100.503 146.309 100.463ZM103.735 11.1987C105.541 11.727 105.237 10.4706 107.595 10.8022C107.215 9.89184 106.8 9.00583 106.403 8.10652C104.682 8.43375 104.315 8.8352 102.408 8.80687C102.666 9.08521 102.919 9.36578 103.165 9.64707C103.471 9.54868 103.797 9.43897 104.097 9.34862C104.669 10.1432 101.677 10.5919 103.729 11.2013C103.731 11.2004 103.733 11.1996 103.735 11.1987ZM121.33 8.85592C122.251 8.87429 125.997 8.89206 126.426 8.44229C127.975 6.921 117.736 8.99543 125.211 6.91116C125.154 6.73031 125.167 6.54473 125.145 6.36148C123.745 6.46547 122.363 6.57279 120.965 6.68346C121.125 7.40499 121.159 8.13187 121.33 8.85592ZM21.916 37.0358C22.9927 35.7909 28.4516 30.7315 26.0464 31.5522C25.2748 31.8005 23.463 34.8718 22.5235 35.7686C21.8998 36.3433 22.0869 35.1975 21.0872 36.5877C21.3499 36.733 21.6157 36.9211 21.9177 37.0313C21.9171 37.0328 21.9166 37.0343 21.916 37.0358ZM22.946 41.7113C23.7656 40.4658 24.6856 39.264 25.6941 38.1433C24.3668 38.3266 23.2104 40.3166 22.3443 39.729C22.5568 39.3556 22.786 38.9781 23.0307 38.5973C23.4196 38.5189 23.8083 38.4483 24.2 38.3812C24.7541 37.0376 23.9532 37.3537 25.9311 35.8229C23.8229 35.6043 22.7 35.1594 20.9845 39.6792C20.8959 38.4538 18.0427 37.2865 18.1263 40.7646C18.1603 41.3768 19.5363 39.8065 19.6131 39.8357C20.3886 40.0334 20.1193 41.2047 20.8831 41.3479C21.2198 41.4112 21.9106 40.4969 22.3627 40.6488C22.5675 40.7309 22.4194 41.9172 22.946 41.7113ZM18.0396 42.2481C17.9418 41.5338 16.0077 42.6502 15.5354 44.3051C14.8634 46.7975 17.2888 43.4692 18.0396 42.2481ZM146.317 100.462C146.315 100.462 146.312 100.462 146.309 100.463C146.311 100.462 146.312 100.461 146.313 100.46C146.315 100.46 146.316 100.461 146.317 100.462ZM116.503 8.88712C117.553 8.38362 119.166 8.25432 118.98 7.6637C119.526 7.72108 120.064 7.77717 120.61 7.83388C120.584 7.65292 120.552 7.47214 120.526 7.29302C118.931 7.36405 117.327 7.43255 115.717 7.49784C115.97 7.96135 116.211 8.42801 116.503 8.88712ZM133.847 7.17601C135.8 6.94787 134.03 6.37552 134.404 5.91584C134.812 5.45581 136.492 5.50269 136.173 4.97287C135.121 5.13741 133.957 5.28599 132.764 5.43375C133.138 6.01065 133.478 6.60335 133.851 7.17544C133.849 7.17563 133.848 7.17582 133.847 7.17601ZM32.0994 93.7413C30.7471 93.2927 31.4428 92.8034 28.5627 92.9471C28.5647 92.9475 28.5668 92.9479 28.5688 92.9484C31.053 94.0215 34.3512 95.104 37.3119 95.065C35.6605 94.1252 34.2297 94.4311 32.0994 93.7413ZM98.7798 9.85387C98.251 10.4129 100.989 10.5427 101.515 10.0189C102.393 9.169 99.5623 9.00758 98.7798 9.85387ZM87.8941 95.3025C90.0142 93.8276 86.1431 92.0071 82.069 92.496C81.6941 92.5414 84.3095 93.1843 83.5084 93.4389C83.4132 93.4647 81.9729 93.3424 81.6381 93.5323C81.2529 93.721 81.6081 94.2455 80.9755 94.4101C79.8746 94.7039 77.6857 93.8161 76.8182 94.1616C76.7532 94.1847 77.1035 94.4204 77.443 94.6412C77.7488 94.8586 78.1161 95.0724 78.161 95.0898C79.7308 95.662 81.1166 94.876 81.4155 94.8924C82.5667 94.9393 82.356 95.6071 82.6456 95.786C83.1869 96.1215 84.2859 95.8762 84.3183 95.8997C86.0973 96.589 81.8934 96.2048 81.3886 96.4039C79.7197 96.9378 81.2302 97.7261 77.3875 97.7133C77.0548 97.725 72.5163 97.0395 78.0612 98.5515C76.7806 98.6215 75.627 98.6129 75.0426 98.6343C74.0346 98.7358 74.2177 98.914 74.9538 99.1067C77.6153 99.798 83.9874 99.7574 85.006 99.5835C85.7856 99.4562 84.6476 98.7527 85.1279 98.4815C86.2413 97.8636 88.0638 97.8117 87.9274 96.8614C87.6914 94.8674 85.2061 96.0751 83.6172 95.6521C83.8147 95.2309 83.924 94.8158 84.2527 94.4102C83.6908 94.9568 87.7897 95.4223 87.894 95.3064C87.894 95.3051 87.8941 95.3038 87.8941 95.3025ZM62.1413 95.23C59.9164 94.4462 59.9717 95.7093 57.9399 94.8169C55.9971 95.779 59.6531 96.0178 60.0585 96.113C61.9788 96.5565 61.8292 97.7709 63.8332 97.5572C63.2032 96.7791 62.7286 96.0064 62.1413 95.23ZM81.8544 97.7998C80.3223 98.3362 82.9976 98.4984 83.1447 98.623C84.3113 100.009 75.8837 99.1583 81.8544 97.7998ZM30.7613 32.9302C31.4447 32.5146 30.6814 32.2986 31.1787 31.748C31.6297 31.2154 33.9756 30.3568 33.7115 30.0834C33.5015 29.7519 29.1437 31.3534 32.85 28.7651C32.6105 28.6626 32.5706 28.501 32.4078 28.3755C31.3536 29.0187 30.3032 29.6847 29.2342 30.4106C30.1704 30.5109 31.0852 30.6777 31.9493 30.8242C31.6383 31.605 30.9902 31.2885 30.9585 31.3091C30.9589 31.3096 30.9593 31.3101 30.9596 31.3107C29.8759 32.0905 29.2715 33.8594 30.7613 32.9302ZM13.0786 86.6629C14.0584 85.4808 11.4581 85.9283 10.5921 85.5042C9.75178 85.1406 9.15582 83.8725 9.09242 84.6814C9.94723 86.0744 13.0149 86.8515 13.0796 86.6612C13.0793 86.6618 13.0789 86.6623 13.0786 86.6629ZM49.7362 94.1026C47.783 94.2619 48.0346 94.6913 45.7415 93.9649C45.7886 94.3409 45.8352 94.725 45.8836 95.0954C47.7531 95.3231 47.7438 94.249 49.8559 94.9078C50.2022 95.0151 49.3582 95.7857 50.9812 95.6776C50.5649 95.1778 50.1466 94.6264 49.7362 94.1026ZM40.0446 94.2666C42.2702 94.5282 44.4043 91.8198 40.1817 92.5792C39.555 92.6898 38.3711 94.0622 40.0446 94.2666ZM17.8675 49.0351C19.1732 45.3865 17.2916 49.4218 16.6216 50.2354C19.1032 41.3982 16.3233 51.4165 14.7749 51.5454C14.9174 52.5778 15.1853 54.6037 16.1375 52.807C16.5179 52.021 15.9837 52.1788 16.0028 52.131C16.5923 50.6233 17.2229 51.0004 17.8675 49.0351ZM66.0953 95.4818C65.9546 95.4925 66.1299 96.0226 65.6785 96.0878C65.2212 96.1517 64.2427 95.7106 64.1171 96.0166C63.9906 96.3242 65.9953 96.7361 66.6326 96.5594C67.2752 96.3805 67.3798 95.392 66.0953 95.4818ZM51.8993 92.977C49.9888 93.1555 52.8626 95.3478 53.2718 95.3751C56.8576 95.6135 51.7286 93.5687 51.8993 92.977ZM17.4801 58.5535C19.179 53.6296 15.9447 56.5184 13.6177 57.6121C13.5432 58.0074 13.4681 58.3859 13.3593 58.7801C13.5861 56.9381 13.9723 54.7696 12.0613 57.7602C11.7302 58.1727 11.3549 58.6748 10.9493 59.2816C11.7997 58.4811 12.2481 58.1887 12.4242 58.1325C12.5099 58.113 12.5332 58.1529 12.517 58.2278C12.4318 58.506 11.8474 59.2716 11.8686 59.309C12.3403 59.9516 13.0082 59.7983 13.7327 59.4753C15.124 58.9134 16.4656 57.1581 17.4775 58.5574C17.4783 58.5561 17.4792 58.5548 17.4801 58.5535ZM72.0174 96.5888C72.8525 96.6803 74.3028 96.7825 75.3857 96.8105C76.9257 96.8639 78.0791 96.6009 76.7259 95.8825C76.2998 95.9351 75.9039 95.9842 75.533 96.0275C74.3693 96.1684 73.2022 96.3719 72.0174 96.5888ZM73.6735 20.1951C75.3695 20.3755 76.773 20.0419 78.68 19.5816C76.8009 19.1563 77.9086 18.8124 78.4286 18.491C79.2568 17.9971 77.1296 18.4936 77.0972 18.4457C76.9778 17.6728 78.2995 17.244 75.1887 17.9729C75.9262 17.5235 76.59 17.0915 77.3264 16.65C74.9328 17.1506 74.2587 16.7877 72.5984 16.5389C74.4016 17.6787 72.2626 17.1982 70.6956 18.3626C69.9153 18.9437 72.8307 20.0944 73.6793 20.1938C73.6774 20.1942 73.6755 20.1947 73.6735 20.1951ZM20.0461 53.9805C19.9469 53.417 19.7237 52.8837 19.5551 52.3556C19.67 51.8687 19.7802 51.3906 19.8885 50.9136C20.138 50.9244 20.3955 50.9481 20.6387 50.9474C20.8846 50.3628 20.4918 50.5024 20.5151 50.3132C20.5164 50.3136 20.5176 50.314 20.5189 50.3144C20.863 47.66 21.3617 46.6284 22.9564 45.2979C22.3119 44.9279 21.6673 44.5579 21.0228 44.1879C20.8475 44.635 20.67 45.1186 20.5274 45.5706C20.7721 45.9806 21.0293 46.3766 21.2974 46.7576C20.8815 47.1529 20.4818 47.5643 20.0867 48.0072C20.0735 48.4626 20.0488 49.0149 20.0689 49.4166C17.41 50.9098 20.3083 46.5364 19.6292 46.1968C19.0191 45.9133 17.4174 50.9561 17.6332 51.7267C17.6533 51.8457 19.4636 51.2297 18.1393 52.7889C17.9016 53.0576 14.8058 52.0091 16.594 54.7467C16.8184 55.1781 19.1679 55.0802 20.0461 53.9805ZM29.1818 40.0371C25.6547 40.1053 34.9805 35.6307 30.4589 36.8911C30.8751 35.3539 30.7085 35.4867 29.1496 35.5707C29.0086 35.5782 29.5614 34.8219 29.4832 34.8393C28.2161 35.1737 27.1925 36.3516 26.6278 35.6865C26.3854 35.95 26.1642 36.1942 25.9392 36.4537C27.551 36.1502 26.2036 38.0333 26.1022 39.1204C26.0534 39.6046 26.7366 39.0845 26.701 39.5003C26.6908 39.6409 25.6912 40.3528 25.8733 40.5886C26.277 41.1153 27.4133 41.1833 28.6079 40.7369C28.6083 40.7373 28.6088 40.7378 28.6092 40.7383C28.8101 40.4951 28.9845 40.2691 29.1818 40.0371ZM20.7216 84.7823C20.7591 86.0294 22.5738 87.028 18.788 86.326C18.8805 86.6093 18.9844 86.8933 19.0877 87.1775C19.7254 87.3828 20.315 87.5555 20.954 87.7322C21.3335 87.3757 21.6993 87.1432 22.0504 87.002C24.3194 86.0335 25.9665 89.2245 24.6114 86.6558C24.444 86.3355 22.9274 86.2369 24.5359 85.9137C24.5342 85.9125 24.5324 85.9114 24.5307 85.9103C23.5427 85.7598 22.9508 85.752 22.4352 85.6622C21.8794 85.5626 21.4113 85.3687 20.7216 84.7823ZM9.55508 78.2897C7.38447 76.8728 7.65031 78.49 9.02831 80.2166C10.3886 81.9083 12.6755 82.9503 12.1006 82.113C12.0537 82.0396 10.9669 81.3348 10.1878 80.423C9.37912 79.5072 8.94596 78.4458 9.55508 78.2897ZM44.5783 88.2939C42.4872 87.9783 42.1595 89.2805 42.3072 89.7912C42.4571 90.303 43.9846 90.0123 44.1659 90.1116C44.7532 90.4415 43.4167 90.4364 44.178 90.8832C44.4308 91.0361 48.0765 91.9556 48.2622 91.9118C49.2438 91.6982 47.9851 90.4421 48.2701 90.3462C49.1942 90.0326 50.3212 90.7324 50.6394 90.1728C51.3182 88.9805 48.9621 90.0577 48.5842 90.0346C47.441 89.9657 47.6286 89.2739 46.8012 89.0335C45.9721 88.7919 45.3993 88.9652 44.6617 88.8205C44.4166 88.7722 44.6846 88.3121 44.5783 88.2939ZM37.1979 90.0854C39.5561 89.4448 34.4013 87.4684 33.7439 87.5636C31.7498 87.9094 36.0426 90.406 37.1979 90.0854ZM22.2534 42.8657C21.741 44.9082 24.8072 41.4969 25.5745 40.4473C25.1819 40.3545 22.4111 42.0915 22.2534 42.8657ZM16.6213 59.6792C17.6314 58.0291 15.2966 58.9404 14.0363 59.7868C13.9016 59.8817 13.7792 59.9846 13.6747 60.0934C13.794 61.2714 14.1194 60.9297 14.6472 60.4137C14.7697 60.2946 14.8984 60.166 15.0319 60.0388C15.8105 59.2654 15.6587 61.0577 16.6213 59.6792ZM67.5258 91.7098C67.1115 91.651 60.5069 92.0182 64.2311 92.6984C64.4947 92.7449 69.1163 92.9762 69.4613 92.8481C70.2002 92.5762 68.5639 91.8465 67.5258 91.7098ZM12.5656 67.1945C12.1508 66.0043 12.6895 65.2299 11.2939 65.3449C11.2933 65.3459 11.2926 65.347 11.2919 65.348C12.3263 63.1551 14.2527 64.5292 14.4905 64.1288C15.4487 62.7416 13.1702 62.9106 13.5136 61.7193C12.1686 64.0515 11.8122 62.7808 10.5678 64.4506C10.2768 64.8294 9.94049 66.7577 10.2221 67.1537C10.4793 67.548 11.9447 67.317 12.5656 67.1945ZM76.8046 92.5916C76.5855 92.5169 76.3856 92.4657 76.2086 92.435C74.251 92.1129 72.7983 93.1681 75.5084 93.7983C75.6585 93.8365 75.8023 93.8599 75.9386 93.8706C77.0384 93.935 77.9799 92.9535 76.8046 92.5916ZM125.127 13.8306C124.749 13.4719 124.357 13.1164 123.948 12.7647C124.745 12.5722 125.549 12.3758 126.349 12.1786C125.728 12.3822 125.08 12.5863 124.463 12.786C125.989 12.7441 126.801 13.38 125.131 13.8301C125.13 13.8302 125.128 13.8304 125.127 13.8306ZM178.045 14.112C178.575 14.6548 180.158 13.8829 180.03 13.748C179.019 12.709 177.293 13.3538 178.045 14.112ZM26.8265 42.9201C28.4572 41.4215 26.0012 41.136 24.937 42.1849C25.775 41.7755 25.9447 43.7932 26.8265 42.9201ZM159.634 10.5526C159.435 10.3623 159.234 10.173 159.004 9.98236C159.751 10.2908 159.866 10.4657 159.634 10.5526ZM66.6243 89.9089C66.2548 89.7268 63.3726 89.3671 62.9839 89.5209C62.1477 89.8423 64.2985 91.0945 65.6412 90.8744C65.7958 90.8514 66.9952 90.0899 66.6183 89.9084C66.6203 89.9086 66.6223 89.9087 66.6243 89.9089ZM128.66 14.1483C128.653 14.1304 128.653 14.1125 128.659 14.0952C128.659 14.1128 128.662 14.1305 128.66 14.1483ZM221.686 47.3174C221.697 47.2858 221.713 47.2591 221.734 47.2399C221.719 47.2638 221.706 47.2929 221.686 47.3174ZM46.7468 86.3921C46.0407 84.4425 43.7872 85.1445 45.3604 86.2702C45.4502 86.3306 46.5177 86.3615 46.7468 86.3921Z" fill="#E8DCCD"/>
<path d="M89.8279 58.042C89.6873 58.2451 89.5232 58.3779 89.3357 58.4404C89.1482 58.5029 88.9607 58.5107 88.7732 58.4639C88.6014 58.4014 88.4451 58.2998 88.3045 58.1592C88.1639 58.0029 88.0857 57.8076 88.0701 57.5732C88.0389 57.3545 88.0232 57.2139 88.0232 57.1514C87.992 57.0264 87.9686 56.9014 87.9529 56.7764C87.9373 56.6514 87.9139 56.5264 87.8826 56.4014C87.8201 56.0889 87.7576 55.7764 87.6951 55.4639C87.6482 55.1514 87.5857 54.8389 87.5076 54.5264C87.3357 53.7295 87.1561 52.9482 86.9686 52.1826C86.7811 51.4014 86.6014 50.6201 86.4295 49.8389C86.2576 49.1357 86.0857 48.4326 85.9139 47.7295C85.742 47.0107 85.5701 46.2998 85.3982 45.5967C85.3357 45.3623 85.2811 45.1279 85.2342 44.8936C85.1873 44.6592 85.1326 44.4248 85.0701 44.1904C85.0389 44.0654 85.0076 43.9326 84.9764 43.792C84.9451 43.6357 84.9373 43.4951 84.9529 43.3701C84.9842 43.1045 85.0779 42.8857 85.2342 42.7139C85.4061 42.5264 85.6248 42.4326 85.8904 42.4326C86.1248 42.4326 86.3436 42.5264 86.5467 42.7139C86.7654 42.8857 86.8592 43.1045 86.8279 43.3701C86.8436 43.4639 86.8514 43.542 86.8514 43.6045C86.867 43.667 86.8904 43.7373 86.9217 43.8154C86.9686 44.0654 87.0154 44.3076 87.0623 44.542C87.1248 44.7764 87.1795 45.0107 87.2264 45.2451C87.3982 45.9795 87.5701 46.7061 87.742 47.4248C87.9295 48.1279 88.1092 48.8389 88.2811 49.5576C88.4529 50.3389 88.6248 51.1123 88.7967 51.8779C88.9842 52.6436 89.1639 53.417 89.3357 54.1982C89.367 54.3545 89.3982 54.5029 89.4295 54.6436C89.4607 54.7842 89.492 54.9248 89.5232 55.0654C90.0389 54.2686 90.5311 53.4639 90.9998 52.6514C91.4842 51.8232 91.9373 50.9795 92.3592 50.1201C92.8748 49.0732 93.3357 47.9873 93.742 46.8623C94.1482 45.7373 94.3904 44.5889 94.4686 43.417C94.4842 43.167 94.5779 42.9639 94.7498 42.8076C94.9217 42.6514 95.1092 42.5576 95.3123 42.5264C95.5154 42.4951 95.7107 42.5342 95.8982 42.6436C96.1014 42.7373 96.2342 42.917 96.2967 43.1826C96.5623 44.1826 96.7967 45.1982 96.9998 46.2295C97.2186 47.2607 97.4373 48.2842 97.6561 49.2998C97.8904 50.3154 98.1482 51.3232 98.4295 52.3232C98.7264 53.3232 99.0936 54.2998 99.5311 55.2529C99.9842 54.6592 100.383 54.042 100.726 53.4014C101.07 52.7451 101.351 52.0498 101.57 51.3154C101.945 50.0967 102.195 48.8623 102.32 47.6123C102.461 46.3467 102.594 45.0811 102.719 43.8154C102.75 43.5654 102.844 43.3467 103 43.1592C103.172 42.9717 103.39 42.8779 103.656 42.8779C103.89 42.8779 104.109 42.9717 104.312 43.1592C104.531 43.3311 104.625 43.5498 104.594 43.8154C104.453 45.2061 104.312 46.5889 104.172 47.9639C104.031 49.3232 103.75 50.667 103.328 51.9951C102.969 53.0732 102.508 54.0654 101.945 54.9717C101.398 55.8779 100.75 56.7529 99.9998 57.5967C99.7967 57.8154 99.5311 57.9092 99.2029 57.8779C98.8904 57.8311 98.6639 57.6748 98.5232 57.4092C98.1014 56.6592 97.7342 55.8857 97.4217 55.0889C97.1092 54.292 96.8357 53.4873 96.6014 52.6748C96.367 51.8623 96.1561 51.042 95.9686 50.2139C95.7811 49.3701 95.6014 48.5342 95.4295 47.7061C95.0232 48.7842 94.5623 49.8467 94.0467 50.8936C93.4373 52.1436 92.7732 53.3623 92.0545 54.5498C91.3357 55.7217 90.5936 56.8857 89.8279 58.042ZM108.634 58.2295C108.415 58.1514 108.228 58.0029 108.072 57.7842C107.931 57.5498 107.908 57.3154 108.001 57.0811C108.267 56.3467 108.447 55.6045 108.54 54.8545C108.634 54.1045 108.697 53.3389 108.728 52.5576C108.744 52.3232 108.751 52.0967 108.751 51.8779C108.751 51.6436 108.759 51.4092 108.775 51.1748C108.728 50.9873 108.744 50.8076 108.822 50.6357C108.853 50.1826 108.884 49.7295 108.915 49.2764C108.947 48.8076 108.994 48.3467 109.056 47.8936C109.134 47.2061 109.212 46.5264 109.29 45.8545C109.384 45.167 109.447 44.4717 109.478 43.7686C109.509 43.1279 109.54 42.4951 109.572 41.8701C109.619 41.2295 109.783 40.6201 110.064 40.042C110.204 39.7764 110.392 39.6279 110.626 39.5967C110.861 39.5498 111.079 39.5889 111.283 39.7139C111.486 39.8232 111.634 39.9951 111.728 40.2295C111.837 40.4639 111.822 40.7139 111.681 40.9795C111.556 41.2451 111.47 41.5186 111.423 41.7998C111.376 42.0811 111.345 42.3701 111.329 42.667C111.329 42.9639 111.329 43.2607 111.329 43.5576C111.329 43.8545 111.322 44.1436 111.306 44.4248C111.228 45.1279 111.15 45.8311 111.072 46.5342C110.994 47.2217 110.915 47.917 110.837 48.6201C111.494 48.292 112.22 48.1123 113.017 48.0811C113.642 48.0654 114.275 48.1748 114.915 48.4092C115.572 48.6279 116.103 48.9873 116.509 49.4873C116.744 49.7842 116.931 50.1123 117.072 50.4717C117.212 50.8154 117.322 51.1826 117.4 51.5732C117.494 51.9482 117.556 52.3311 117.587 52.7217C117.619 53.0967 117.65 53.4639 117.681 53.8232C117.728 54.5576 117.744 55.292 117.728 56.0264C117.728 56.7451 117.712 57.4795 117.681 58.2295C117.681 58.5264 117.579 58.7451 117.376 58.8857C117.173 59.042 116.954 59.1201 116.72 59.1201C116.486 59.1201 116.275 59.042 116.087 58.8857C115.9 58.7451 115.814 58.5264 115.829 58.2295C115.845 57.6045 115.861 56.9795 115.876 56.3545C115.892 55.7295 115.884 55.1045 115.853 54.4795C115.822 54.167 115.798 53.8467 115.783 53.5186C115.767 53.1904 115.728 52.8623 115.665 52.5342C115.634 52.3779 115.603 52.2295 115.572 52.0889C115.556 51.9326 115.525 51.7764 115.478 51.6201C115.462 51.4951 115.423 51.3623 115.361 51.2217C115.314 51.0811 115.283 51.0029 115.267 50.9873C115.236 50.9404 115.212 50.9014 115.197 50.8701C115.181 50.8232 115.158 50.7764 115.126 50.7295C114.986 50.5732 114.9 50.4873 114.869 50.4717C114.806 50.4248 114.751 50.3936 114.704 50.3779C114.658 50.3467 114.611 50.3154 114.564 50.2842C114.392 50.1904 114.197 50.1123 113.978 50.0498C113.759 49.9873 113.548 49.9561 113.345 49.9561C112.814 49.9248 112.314 50.0186 111.845 50.2373C111.392 50.4561 110.986 50.792 110.626 51.2451C110.595 52.3232 110.54 53.3936 110.462 54.4561C110.384 55.5029 110.158 56.542 109.783 57.5732C109.704 57.8076 109.556 57.9951 109.337 58.1357C109.134 58.2764 108.9 58.3076 108.634 58.2295ZM122.964 49.6045C123.261 49.1982 123.612 48.8389 124.019 48.5264C124.44 48.2139 124.886 47.9717 125.354 47.7998C125.823 47.6123 126.308 47.5186 126.808 47.5186C127.308 47.5029 127.808 47.5967 128.308 47.7998C128.792 47.9873 129.229 48.2451 129.62 48.5732C130.011 48.8857 130.315 49.292 130.534 49.792C130.706 50.167 130.808 50.5732 130.839 51.0107C130.87 51.4482 130.753 51.8467 130.487 52.2061C130.253 52.5342 129.964 52.7842 129.62 52.9561C129.292 53.1279 128.933 53.2529 128.542 53.3311C128.167 53.4092 127.776 53.4482 127.37 53.4482C126.979 53.4482 126.604 53.4404 126.245 53.4248C125.839 53.4092 125.433 53.3779 125.026 53.3311C124.636 53.2842 124.237 53.2373 123.831 53.1904C123.956 53.8936 124.206 54.5186 124.581 55.0654C124.956 55.6123 125.464 56.0264 126.104 56.3076C126.276 56.3701 126.409 56.417 126.503 56.4482C126.55 56.4639 126.589 56.4795 126.62 56.4951C126.667 56.4951 126.714 56.4951 126.761 56.4951C126.886 56.5107 126.987 56.5264 127.065 56.542C127.159 56.542 127.245 56.5342 127.323 56.5186C127.433 56.5029 127.503 56.4951 127.534 56.4951C127.581 56.4795 127.628 56.4639 127.675 56.4482C127.847 56.4014 127.995 56.3467 128.12 56.2842C128.261 56.2217 128.425 56.1201 128.612 55.9795C128.706 55.9014 128.831 55.7842 128.987 55.6279C129.144 55.4717 129.276 55.3311 129.386 55.2061C129.542 54.9873 129.729 54.8389 129.948 54.7607C130.183 54.6826 130.417 54.7139 130.651 54.8545C130.854 54.9795 130.995 55.1748 131.073 55.4404C131.167 55.6904 131.136 55.9248 130.979 56.1436C130.526 56.7529 129.987 57.2764 129.362 57.7139C128.753 58.1357 128.05 58.3623 127.253 58.3936C126.612 58.4248 125.995 58.3154 125.401 58.0654C124.808 57.7998 124.284 57.4482 123.831 57.0107C123.269 56.4639 122.823 55.8311 122.495 55.1123C122.167 54.3936 121.987 53.6592 121.956 52.9092C121.815 52.7998 121.706 52.667 121.628 52.5107C121.565 52.3389 121.542 52.167 121.558 51.9951C121.589 51.8232 121.651 51.667 121.745 51.5264C121.839 51.3701 121.979 51.2686 122.167 51.2217C122.339 50.6436 122.604 50.1045 122.964 49.6045ZM128.589 50.167C128.417 49.9482 128.151 49.7529 127.792 49.5811C127.495 49.4561 127.144 49.3936 126.737 49.3936C126.347 49.3936 126.011 49.4639 125.729 49.6045C125.37 49.7764 125.05 50.0186 124.769 50.3311C124.487 50.6279 124.261 50.9639 124.089 51.3389C124.464 51.3857 124.839 51.4326 125.214 51.4795C125.589 51.5264 125.964 51.5576 126.339 51.5732C126.542 51.5732 126.745 51.5732 126.948 51.5732C127.151 51.5732 127.354 51.5654 127.558 51.5498C127.62 51.5498 127.675 51.5498 127.722 51.5498C127.784 51.5342 127.847 51.5264 127.909 51.5264C128.05 51.4951 128.151 51.4795 128.214 51.4795C128.292 51.4639 128.37 51.4404 128.448 51.4092C128.511 51.3936 128.589 51.3701 128.683 51.3389C128.761 51.3076 128.808 51.2842 128.823 51.2686C128.839 51.2529 128.862 51.2373 128.894 51.2217L128.964 50.9404C128.933 50.8779 128.909 50.8232 128.894 50.7764C128.894 50.7139 128.878 50.6592 128.847 50.6123C128.831 50.5654 128.792 50.4951 128.729 50.4014C128.683 50.3076 128.636 50.2295 128.589 50.167ZM136.872 58.0654C136.34 57.8311 135.919 57.5107 135.606 57.1045C135.309 56.6826 135.098 56.2217 134.973 55.7217C134.864 55.2217 134.833 54.7061 134.879 54.1748C134.926 53.6279 135.036 53.1045 135.208 52.6045C135.348 52.2139 135.504 51.8076 135.676 51.3857C135.864 50.9639 136.083 50.5732 136.333 50.2139C136.583 49.8545 136.879 49.5498 137.223 49.2998C137.567 49.0342 137.973 48.8623 138.442 48.7842C138.926 48.7061 139.411 48.6826 139.895 48.7139C140.395 48.7295 140.887 48.7764 141.372 48.8545C141.59 48.8857 141.801 48.9404 142.004 49.0186C142.208 49.0811 142.411 49.1514 142.614 49.2295C142.629 48.9951 142.731 48.7998 142.919 48.6436C143.122 48.4873 143.333 48.4092 143.551 48.4092C143.817 48.4092 144.028 48.5029 144.184 48.6904C144.356 48.8623 144.458 49.0732 144.489 49.3232C144.567 50.042 144.598 50.7607 144.583 51.4795C144.583 52.1982 144.559 52.917 144.512 53.6357C144.481 54.3545 144.45 55.0732 144.419 55.792C144.403 56.5107 144.411 57.2295 144.442 57.9482C144.458 58.2451 144.364 58.4717 144.161 58.6279C143.973 58.7686 143.762 58.8389 143.528 58.8389C143.294 58.8389 143.075 58.7686 142.872 58.6279C142.684 58.4717 142.583 58.2451 142.567 57.9482C141.676 58.3232 140.731 58.542 139.731 58.6045C138.731 58.6514 137.778 58.4717 136.872 58.0654ZM137.036 52.9795C136.942 53.2607 136.856 53.5811 136.778 53.9404C136.7 54.2998 136.676 54.6436 136.708 54.9717C136.739 55.2998 136.84 55.6045 137.012 55.8857C137.184 56.1514 137.465 56.3389 137.856 56.4482C138.653 56.6982 139.45 56.7686 140.247 56.6592C141.059 56.5498 141.817 56.2686 142.52 55.8154C142.583 55.0498 142.629 54.3076 142.661 53.5889C142.708 52.8701 142.723 52.1436 142.708 51.4092C142.442 51.2373 142.169 51.0889 141.887 50.9639C141.622 50.8232 141.325 50.7295 140.997 50.6826C140.669 50.6357 140.317 50.6045 139.942 50.5889C139.583 50.5576 139.231 50.5576 138.887 50.5889C138.856 50.5889 138.77 50.6123 138.629 50.6592C138.504 50.6904 138.434 50.7139 138.419 50.7295C138.262 50.8076 138.122 50.9326 137.997 51.1045C137.794 51.3857 137.614 51.6904 137.458 52.0186C137.301 52.3311 137.161 52.6514 137.036 52.9795ZM156.358 50.5186C156.654 50.5186 156.873 50.6123 157.014 50.7998C157.17 50.9873 157.248 51.1982 157.248 51.4326C157.248 51.667 157.17 51.8857 157.014 52.0889C156.873 52.2764 156.654 52.3701 156.358 52.3701C155.983 52.3857 155.608 52.3857 155.233 52.3701C154.873 52.3389 154.514 52.3076 154.154 52.2764C154.17 53.5107 154.147 54.7451 154.084 55.9795C154.037 57.2139 153.912 58.4404 153.709 59.6592C153.678 59.9248 153.537 60.1201 153.287 60.2451C153.037 60.3701 152.795 60.3936 152.561 60.3154C152.295 60.2373 152.108 60.0889 151.998 59.8701C151.904 59.667 151.881 59.4326 151.928 59.167C152.115 57.9795 152.217 56.792 152.233 55.6045C152.264 54.417 152.264 53.2217 152.233 52.0186C151.639 51.9248 151.037 51.8311 150.428 51.7373C149.819 51.6279 149.217 51.5342 148.623 51.4561C148.358 51.4248 148.17 51.2842 148.061 51.0342C147.936 50.7686 147.904 50.5264 147.967 50.3076C148.045 50.042 148.194 49.8623 148.412 49.7686C148.631 49.6592 148.865 49.6201 149.115 49.6514C149.631 49.7295 150.147 49.8154 150.662 49.9092C151.178 49.9873 151.701 50.0654 152.233 50.1436C152.217 50.0654 152.209 49.9482 152.209 49.792C152.209 48.3857 152.201 46.9951 152.186 45.6201C152.186 44.2451 152.256 42.8545 152.397 41.4482C152.428 41.1982 152.522 40.9795 152.678 40.792C152.85 40.6045 153.069 40.5107 153.334 40.5107C153.569 40.5107 153.787 40.6045 153.99 40.792C154.209 40.9795 154.303 41.1982 154.272 41.4482C154.115 42.9482 154.037 44.4404 154.037 45.9248C154.053 47.3936 154.076 48.8857 154.108 50.4014C154.483 50.4326 154.858 50.4639 155.233 50.4951C155.608 50.5107 155.983 50.5186 156.358 50.5186Z" fill="#4A2F2C"/>
</svg>
